<?xml version="1.0" standalone="no"?><!DOCTYPE svg PUBLIC "-//W3C//DTD SVG 1.1//EN" "http://www.w3.org/Graphics/SVG/1.1/DTD/svg11.dtd"><svg id="plot" class="object-fit-contain pt-2" width="852" height="542.53125px" cursor="crosshair" version="1.1" xmlns:xlink="http://www.w3.org/1999/xlink" xmlns="http://www.w3.org/2000/svg"><defs xmlns="http://www.w3.org/1999/xhtml"></defs><clipPath id="clip"><rect width="752" height="472.53125" fill="blue" transform="translate(90,10)"/></clipPath><g><path fill="none" d="M124.182,84.337L144.142,31.479L169.092,40.774L194.042,60.221L218.993,81.449L243.943,115.099L268.893,159.504L293.843,193.706L318.794,222.408L343.744,249.582L368.694,275.513L393.644,300.107L418.595,323.289L443.545,345.004L468.495,365.144L493.445,382.194L518.395,396.633L543.346,407.519L568.296,415.269L593.246,422.339L618.196,428.445L643.147,434.121L668.097,439.233L693.047,443.595L717.997,447.875L742.948,451.885L767.898,455.756L792.848,458.781L807.818,461.053" stroke="#1f77b4" stroke-width="2.0" clip-path="url(#clip)"/></g><g fill="none" font-size="10" font-family="sans-serif" text-anchor="middle" transform="translate(0,482.53125)"><path class="domain" stroke="currentColor" d="M90,0H842"/><g class="tick" opacity="1" transform="translate(119.19177173191773,0)"><line stroke="currentColor" y2="-6"/><text fill="currentColor" y="-9" dy="0em" text-anchor="top" dominant-baseline="hanging" font-size="18" transform="translate(0, 14)">0</text></g><g class="tick" opacity="1" transform="translate(218.99270072992698,0)"><line stroke="currentColor" y2="-6"/><text fill="currentColor" y="-9" dy="0em" text-anchor="top" dominant-baseline="hanging" font-size="18" transform="translate(0, 14)">20</text></g><g class="tick" opacity="1" transform="translate(318.7936297279363,0)"><line stroke="currentColor" y2="-6"/><text fill="currentColor" y="-9" dy="0em" text-anchor="top" dominant-baseline="hanging" font-size="18" transform="translate(0, 14)">40</text></g><g class="tick" opacity="1" transform="translate(418.5945587259456,0)"><line stroke="currentColor" y2="-6"/><text fill="currentColor" y="-9" dy="0em" text-anchor="top" dominant-baseline="hanging" font-size="18" transform="translate(0, 14)">60</text></g><g class="tick" opacity="1" transform="translate(518.3954877239548,0)"><line stroke="currentColor" y2="-6"/><text fill="currentColor" y="-9" dy="0em" text-anchor="top" dominant-baseline="hanging" font-size="18" transform="translate(0, 14)">80</text></g><g class="tick" opacity="1" transform="translate(618.1964167219643,0)"><line stroke="currentColor" y2="-6"/><text fill="currentColor" y="-9" dy="0em" text-anchor="top" dominant-baseline="hanging" font-size="18" transform="translate(0, 14)">100</text></g><g class="tick" opacity="1" transform="translate(717.9973457199734,0)"><line stroke="currentColor" y2="-6"/><text fill="currentColor" y="-9" dy="0em" text-anchor="top" dominant-baseline="hanging" font-size="18" transform="translate(0, 14)">120</text></g><g class="tick" opacity="1" transform="translate(817.7982747179827,0)"><line stroke="currentColor" y2="-6"/><text fill="currentColor" y="-9" dy="0em" text-anchor="top" dominant-baseline="hanging" font-size="18" transform="translate(0, 14)">140</text></g></g><g fill="none" font-size="10" font-family="sans-serif" text-anchor="middle" transform="translate(0,10)"><path class="domain" stroke="currentColor" d="M90,0H842"/><g class="tick" opacity="1" transform="translate(119.19177173191773,0)"><line stroke="currentColor" y2="6"/></g><g class="tick" opacity="1" transform="translate(218.99270072992698,0)"><line stroke="currentColor" y2="6"/></g><g class="tick" opacity="1" transform="translate(318.7936297279363,0)"><line stroke="currentColor" y2="6"/></g><g class="tick" opacity="1" transform="translate(418.5945587259456,0)"><line stroke="currentColor" y2="6"/></g><g class="tick" opacity="1" transform="translate(518.3954877239548,0)"><line stroke="currentColor" y2="6"/></g><g class="tick" opacity="1" transform="translate(618.1964167219643,0)"><line stroke="currentColor" y2="6"/></g><g class="tick" opacity="1" transform="translate(717.9973457199734,0)"><line stroke="currentColor" y2="6"/></g><g class="tick" opacity="1" transform="translate(817.7982747179827,0)"><line stroke="currentColor" y2="6"/></g></g><g fill="none" font-size="10" font-family="sans-serif" text-anchor="start" transform="translate(90,0)"><path class="domain" stroke="currentColor" d="M0,482.53125V10"/><g class="tick" opacity="1" transform="translate(0,449.79573621145767)"><line stroke="currentColor" x2="6"/><text fill="currentColor" x="9" dy="0.32em" text-anchor="end" font-size="18" transform="translate(-12, 0)">0.07</text></g><g class="tick" opacity="1" transform="translate(0,407.3511505566263)"><line stroke="currentColor" x2="6"/><text fill="currentColor" x="9" dy="0.32em" text-anchor="end" font-size="18" transform="translate(-12, 0)">0.08</text></g><g class="tick" opacity="1" transform="translate(0,364.9065649017949)"><line stroke="currentColor" x2="6"/><text fill="currentColor" x="9" dy="0.32em" text-anchor="end" font-size="18" transform="translate(-12, 0)">0.09</text></g><g class="tick" opacity="1" transform="translate(0,322.4619792469635)"><line stroke="currentColor" x2="6"/><text fill="currentColor" x="9" dy="0.32em" text-anchor="end" font-size="18" transform="translate(-12, 0)">0.10</text></g><g class="tick" opacity="1" transform="translate(0,280.01739359213207)"><line stroke="currentColor" x2="6"/><text fill="currentColor" x="9" dy="0.32em" text-anchor="end" font-size="18" transform="translate(-12, 0)">0.11</text></g><g class="tick" opacity="1" transform="translate(0,237.57280793730078)"><line stroke="currentColor" x2="6"/><text fill="currentColor" x="9" dy="0.32em" text-anchor="end" font-size="18" transform="translate(-12, 0)">0.12</text></g><g class="tick" opacity="1" transform="translate(0,195.12822228246932)"><line stroke="currentColor" x2="6"/><text fill="currentColor" x="9" dy="0.32em" text-anchor="end" font-size="18" transform="translate(-12, 0)">0.13</text></g><g class="tick" opacity="1" transform="translate(0,152.68363662763795)"><line stroke="currentColor" x2="6"/><text fill="currentColor" x="9" dy="0.32em" text-anchor="end" font-size="18" transform="translate(-12, 0)">0.14</text></g><g class="tick" opacity="1" transform="translate(0,110.23905097280661)"><line stroke="currentColor" x2="6"/><text fill="currentColor" x="9" dy="0.32em" text-anchor="end" font-size="18" transform="translate(-12, 0)">0.15</text></g><g class="tick" opacity="1" transform="translate(0,67.79446531797517)"><line stroke="currentColor" x2="6"/><text fill="currentColor" x="9" dy="0.32em" text-anchor="end" font-size="18" transform="translate(-12, 0)">0.16</text></g><g class="tick" opacity="1" transform="translate(0,25.34987966314379)"><line stroke="currentColor" x2="6"/><text fill="currentColor" x="9" dy="0.32em" text-anchor="end" font-size="18" transform="translate(-12, 0)">0.17</text></g></g><g fill="none" font-size="10" font-family="sans-serif" text-anchor="end" transform="translate(842,0)"><path class="domain" stroke="currentColor" d="M0,482.53125V10"/><g class="tick" opacity="1" transform="translate(0,449.79573621145767)"><line stroke="currentColor" x2="-6"/></g><g class="tick" opacity="1" transform="translate(0,407.3511505566263)"><line stroke="currentColor" x2="-6"/></g><g class="tick" opacity="1" transform="translate(0,364.9065649017949)"><line stroke="currentColor" x2="-6"/></g><g class="tick" opacity="1" transform="translate(0,322.4619792469635)"><line stroke="currentColor" x2="-6"/></g><g class="tick" opacity="1" transform="translate(0,280.01739359213207)"><line stroke="currentColor" x2="-6"/></g><g class="tick" opacity="1" transform="translate(0,237.57280793730078)"><line stroke="currentColor" x2="-6"/></g><g class="tick" opacity="1" transform="translate(0,195.12822228246932)"><line stroke="currentColor" x2="-6"/></g><g class="tick" opacity="1" transform="translate(0,152.68363662763795)"><line stroke="currentColor" x2="-6"/></g><g class="tick" opacity="1" transform="translate(0,110.23905097280661)"><line stroke="currentColor" x2="-6"/></g><g class="tick" opacity="1" transform="translate(0,67.79446531797517)"><line stroke="currentColor" x2="-6"/></g><g class="tick" opacity="1" transform="translate(0,25.34987966314379)"><line stroke="currentColor" x2="-6"/></g></g><text transform="translate(466, 532.53125)" dominant-baseline="bottom" text-anchor="middle" id="svg-x-label" font-family="sans-serif" fill="Black" font-size="18">model number</text><text transform="translate(5, 246.265625) rotate(-90)" dominant-baseline="hanging" text-anchor="middle" id="svg-y-label" fill="#1f77b4" font-family="sans-serif" font-size="18">L ratio</text></svg>