<?xml version="1.0" standalone="no"?><!DOCTYPE svg PUBLIC "-//W3C//DTD SVG 1.1//EN" "http://www.w3.org/Graphics/SVG/1.1/DTD/svg11.dtd"><svg id="plot" class="object-fit-contain pt-2" width="852" height="542.53125px" cursor="crosshair" version="1.1" xmlns:xlink="http://www.w3.org/1999/xlink" xmlns="http://www.w3.org/2000/svg"><defs xmlns="http://www.w3.org/1999/xhtml"></defs><clipPath id="clip"><rect width="752" height="472.53125" fill="blue" transform="translate(90,10)"/></clipPath><g><path fill="none" d="M807.818,31.479L807.818,31.551L807.818,31.63L807.818,31.747L807.818,31.975L807.818,32.211L807.818,32.386L807.818,32.638L807.818,32.955L807.818,33.18L807.818,33.394L807.818,33.662L807.818,33.912L807.818,34.088L807.818,34.255L807.818,34.51L807.818,34.735L807.818,34.857L807.818,34.97L807.818,35.103L807.818,35.19L807.818,35.243L807.818,35.314L807.818,35.37L807.818,35.403L807.818,35.434L807.818,35.46L807.818,35.481L807.818,35.497L807.818,35.517L807.818,35.54L807.818,35.558L807.818,35.59L807.818,35.645L807.818,35.711L807.818,35.787L807.818,35.87L807.818,35.959L807.818,36.053L807.818,36.15L807.818,36.297L807.818,36.452L807.818,36.556L807.818,36.709L807.818,36.867L807.818,36.97L807.818,37.124L807.818,37.328L807.818,37.529L807.818,37.727L807.818,37.922L807.818,38.113L807.818,38.39L807.818,38.663L807.818,38.839L807.818,39.011L807.818,39.18L807.818,39.426L807.818,39.744L807.818,40.05L807.818,40.345L807.818,40.628L807.818,40.902L807.818,41.166L807.818,41.358L807.818,41.483L807.818,41.667L807.818,42.021L807.818,42.362L807.818,42.58L807.818,42.894L807.818,43.294L807.818,43.582L807.818,43.767L807.818,44.035L807.818,44.421L807.818,44.729L807.818,44.927L807.818,45.213L807.818,45.49L807.818,45.668L807.818,45.928L807.818,46.26L807.818,46.501L807.818,46.656L807.818,46.883L807.818,47.176L807.818,47.457L807.818,47.728L807.818,47.99L807.818,48.242L807.818,48.485L807.818,48.721L807.818,49.06L807.818,49.386L807.818,49.595L807.818,49.798L807.818,50.091L807.818,50.466L807.818,50.735L807.818,50.994L807.818,51.325L807.818,51.565L807.818,51.796L807.818,52.094L807.818,52.38L807.818,52.655L807.818,52.92L807.818,53.176L807.818,53.423L807.818,53.662L807.818,53.893L807.818,54.225L807.818,54.647L807.818,54.949L807.818,55.143L807.818,55.424L807.818,55.783L807.818,56.125L807.818,56.53L807.818,56.989L807.818,57.351L807.818,57.627L807.818,57.893L807.818,58.15L807.818,58.517L807.818,58.981L807.818,59.311L807.818,59.522L807.818,59.796L807.818,60.163L807.818,60.608L807.818,60.97L807.818,61.201L807.818,61.533L807.818,61.852L807.818,62.057L807.818,62.352L807.818,62.729L807.818,62.999L807.818,63.173L807.818,63.427L807.818,63.751L807.818,64.062L807.818,64.287L807.818,64.504L807.818,64.784L807.818,65.118L807.818,65.438L807.818,65.782L807.818,66.1L807.818,66.304L807.818,66.551L807.818,66.837L807.818,67.156L807.818,67.503L807.818,67.835L807.818,68.151L807.818,68.38L807.818,68.6L807.818,68.884L807.818,69.157L807.818,69.483L807.818,69.916L807.818,70.324L807.818,70.71L807.818,71.027L807.818,71.329L807.818,71.713L807.818,72.076L807.818,72.337L807.818,72.587L807.818,72.908L807.818,73.289L807.818,73.722L807.818,74.064L807.818,74.326L807.818,74.578L807.818,74.88L807.818,75.17L807.818,75.393L807.818,75.611L807.818,75.874L807.818,76.226L807.818,76.515L807.818,76.746L807.818,77.013L807.818,77.311L807.818,77.636L807.818,77.947L807.818,78.245L807.818,78.532L807.818,78.809L807.818,79.074L807.818,79.392L807.818,79.754L807.818,80.041L807.818,80.264L807.818,80.535L807.818,80.899L807.818,81.196L807.818,81.387L807.818,81.662L807.818,81.927L807.818,82.181L807.818,82.506L807.818,82.889L807.818,83.327L807.818,83.675L807.818,84.07L807.818,84.447L807.818,84.69L807.818,84.98L807.818,85.311L807.818,85.576L807.818,85.829L807.818,86.064L807.818,86.318L807.818,86.564L807.818,86.799L807.818,87.101L807.818,87.453L807.818,87.83L807.818,88.226L807.818,88.549L807.818,88.766L807.818,89.052L807.818,89.446L807.818,89.768L807.818,89.978L807.818,90.23L807.818,90.508L807.818,90.798L807.817,91.134L807.817,91.408L807.817,91.675L807.817,91.922L807.817,92.137L807.817,92.38L807.817,92.628L807.817,92.847L807.817,93.092L807.817,93.33L807.817,93.484L807.817,93.711L807.817,93.988L807.817,94.238L807.817,94.498L807.817,94.767L807.817,94.995L807.817,95.235L807.817,95.544L807.817,95.925L807.817,96.242L807.816,96.46L807.816,96.678L807.816,96.891L807.816,97.088L807.816,97.294L807.816,97.508L807.816,97.755L807.816,98.044L807.816,98.29L807.816,98.531L807.816,98.768L807.816,99.021L807.815,99.258L807.815,99.428L807.815,99.679L807.815,99.925L807.815,100.168L807.815,100.405L807.815,100.561L807.815,100.793L807.814,101.02L807.814,101.245L807.814,101.467L807.814,101.613L807.814,101.83L807.814,102.116L807.813,102.398L807.813,102.676L807.813,102.95L807.813,103.222L807.812,103.49L807.812,103.756L807.812,104.019L807.812,104.28L807.811,104.539L807.811,104.796L807.811,105.051L807.81,105.305L807.81,105.557L807.81,105.807L807.809,106.056L807.809,106.304L807.808,106.55L807.808,106.795L807.808,107.039L807.807,107.282L807.807,107.524L807.806,107.765L807.806,108.005L807.805,108.243L807.805,108.481L807.804,108.718L807.804,108.954L807.803,109.188L807.802,109.422L807.802,109.655L807.801,109.887L807.8,110.118L807.8,110.348L807.799,110.577L807.798,110.806L807.797,111.033L807.797,111.259L807.796,111.485L807.795,111.71L807.794,111.933L807.793,112.156L807.792,112.378L807.791,112.6L807.79,112.82L807.789,113.04L807.788,113.259L807.787,113.477L807.786,113.694L807.785,113.91L807.783,114.126L807.782,114.341L807.781,114.556L807.779,114.77L807.778,114.983L807.776,115.195L807.775,115.407L807.773,115.619L807.772,115.83L807.77,116.04L807.768,116.25L807.766,116.459L807.764,116.668L807.762,116.877L807.76,117.085L807.758,117.292L807.756,117.499L807.754,117.706L807.751,117.913L807.749,118.119L807.747,118.325L807.744,118.531L807.741,118.736L807.738,118.941L807.736,119.146L807.733,119.351L807.73,119.555L807.726,119.759L807.723,119.963L807.72,120.167L807.716,120.371L807.713,120.574L807.709,120.778L807.705,120.981L807.701,122.824L807.697,125.293L807.692,127.755L807.688,130.207L807.683,132.652L807.679,135.087L807.674,137.515L807.669,139.933L807.663,142.343L807.658,144.744L807.652,147.137L807.646,149.521L807.64,151.896L807.634,154.263L807.628,156.621L807.621,158.97L807.614,161.311L807.607,163.643L807.599,165.967L807.592,168.281L807.584,170.588L807.576,172.885L807.567,175.174L807.558,177.454L807.549,179.725L807.54,181.988L807.53,184.243L807.52,186.488L807.51,188.725L807.499,190.954L807.488,193.174L807.477,195.385L807.465,197.588L807.452,199.783L807.44,201.969L807.427,204.146L807.413,206.316L807.399,208.477L807.385,210.63L807.37,212.774L807.354,214.911L807.338,217.039L807.322,219.16L807.304,221.272L807.287,223.377L807.268,225.473L807.25,227.562L807.23,229.643L807.21,231.716L807.189,233.782L807.167,235.839L807.145,237.889L807.122,239.931L807.098,241.966L807.073,243.993L807.048,246.012L807.022,248.024L806.994,250.028L806.966,252.025L806.937,254.014L806.907,255.996L806.876,257.971L806.844,259.938L806.811,261.898L806.777,263.85L806.741,265.795L806.705,267.733L806.667,269.664L806.628,271.588L806.587,273.505L806.546,275.414L806.503,277.317L806.458,279.213L806.412,281.101L806.365,282.983L806.316,284.859L806.265,286.727L806.213,288.589L806.159,290.444L806.103,292.292L806.045,294.134L805.985,295.97L805.924,297.798L805.86,299.621L805.795,301.436L805.727,303.246L805.657,305.049L805.585,306.845L805.51,308.635L805.433,310.419L805.353,312.197L805.271,313.968L805.186,315.733L805.099,317.491L805.008,319.244L804.915,320.99L804.819,322.731L804.719,324.465L804.616,326.193L804.51,327.915L804.401,329.631L804.288,331.342L804.171,333.046L804.051,334.745L803.927,336.438L803.799,338.125L803.667,339.806L803.53,341.481L803.389,343.151L803.244,344.815L803.094,346.473L802.94,348.126L802.78,349.773L802.616,351.414L802.446,353.05L802.271,354.681L802.09,356.305L801.904,357.925L801.712,359.539L801.514,361.147L801.309,362.75L801.098,364.348L800.881,365.94L800.657,367.527L800.426,369.109L800.187,370.686L799.942,372.258L799.688,373.824L799.427,375.385L799.158,376.941L798.88,378.493L798.594,380.038L798.299,381.579L797.995,383.115L797.682,384.646L797.359,386.172L797.027,387.693L796.684,389.209L796.331,390.72L795.967,392.226L795.592,393.727L795.205,395.223L794.808,396.714L794.398,398.201L793.975,399.682L793.541,401.159L793.093,402.63L792.632,404.097L792.157,405.56L791.668,406.977L791.164,408.333L790.646,409.636L790.113,410.895L789.563,412.114L788.998,413.299L788.417,414.454L787.818,415.582L787.202,416.686L786.568,417.769L785.916,418.831L785.245,419.876L784.555,420.903L783.845,421.915L783.115,422.912L782.364,423.895L781.592,424.864L780.799,425.82L779.983,426.764L779.144,427.696L778.282,428.615L777.395,429.523L776.485,430.281L775.778,430.944L775.071,431.885L773.849,432.827L772.841,433.682L771.805,434.526L770.742,435.359L769.649,436.182L768.528,436.994L767.376,437.796L766.194,438.587L764.98,439.367L763.734,440.137L762.455,440.896L761.142,441.643L759.795,442.38L758.413,443.105L756.995,443.819L755.541,444.521L754.049,445.212L752.518,445.89L750.948,446.557L749.339,447.212L747.688,447.854L745.996,448.483L744.26,449.1L742.482,449.705L740.658,450.296L738.789,450.874L736.874,451.439L734.911,451.99L732.9,452.264L731.87,452.526L730.839,452.922L729.246,453.302L727.653,453.81L725.464,454.033L724.349,454.403L722.652,454.886L720.342,455.34L717.976,455.779L715.553,456.203L713.073,456.61L710.533,457.002L707.933,457.116L706.602,457.296L705.271,457.736L702.547,458.078L699.759,458.403L696.905,458.711L693.986,458.741L692.492,458.877L690.999,459.274L687.943,459.528L684.817,459.764L681.619,459.981L678.349,459.919L676.677,460.009L675.005,460.358L671.585,460.517L668.089,460.656L664.515,460.775L660.862,460.614L658.995,460.652L657.129,460.95L653.313,461.006L649.415,461.04L645.432,461.053L641.364,460.784L639.286,460.768L637.208,460.752L635.087,460.725L632.965,460.698L630.798,460.66L628.632,460.882L624.208,460.785L619.693,460.666L615.084,460.527L610.381,460.106L607.982,460.016L605.582,460.195L600.687,460.009L595.695,459.54L593.149,459.437L590.603,459.34L588.007,459.239L585.412,459.148L582.766,459.057L580.119,458.98L577.422,458.906L574.725,458.851L571.99,458.809L569.229,458.786L566.442,458.783L563.629,458.803L560.789,458.848L557.924,458.712L556.478,458.751L555.032,459.009L552.114,459.122L549.17,459.027L547.684,459.092L546.199,459.387L543.201,459.524L540.177,459.426L538.651,459.483L537.126,459.537L535.587,459.582L534.048,459.834L530.943,459.871L527.812,459.666L526.232,459.647L524.653,459.617L523.06,459.572L521.467,459.689L518.255,459.526L515.015,459.164L513.381,459.047L511.748,459.066L508.454,458.782L505.133,458.336L503.459,458.305L500.097,457.833L498.409,457.787L495.007,457.426L491.577,456.929L489.849,456.74L488.12,456.68L484.637,456.298L481.126,455.91L477.588,455.387L475.806,455.317L472.228,454.785L470.432,454.712L466.814,454.301L463.17,453.753L461.334,453.672L457.649,453.115L455.8,453.031L452.076,452.595L448.326,452.022L446.438,451.798L444.55,451.705L440.748,451.251L436.92,450.792L433.067,450.326L429.188,449.855L425.284,449.378L421.355,448.896L417.402,448.408L413.424,447.781L411.424,447.664L407.41,447.029L405.397,446.91L401.348,446.4L397.276,445.884L393.181,445.363L389.063,444.837L384.923,444.306L380.762,443.77L376.579,443.095L374.478,442.956L370.264,442.407L366.031,441.72L363.909,441.576L359.646,441.015L355.365,440.449L351.065,439.878L346.748,439.302L342.414,438.588L340.238,438.428L335.88,437.705L333.697,437.54L329.317,436.941L324.922,436.335L320.514,435.723L316.094,435.106L311.663,434.483L307.22,433.857L302.769,433.229L298.309,432.599L293.841,431.968L289.367,431.336L284.888,430.703L280.405,430.068L275.919,429.431L271.432,428.792L266.945,428.151L262.46,427.509L257.978,426.866L253.501,426.223L249.03,425.58L244.568,424.938L240.116,424.172L237.896,423.978L233.463,423.341L229.046,422.584L226.842,422.393L222.452,421.768L218.084,421.024L215.912,420.843L211.581,420.238L207.278,419.644L203.007,419.063L198.77,418.496L194.571,417.944L190.414,417.408L186.302,416.889L182.239,416.386L178.23,415.903L174.28,415.371L171.357,415.032L168.486,414.909L162.837,414.108L160.103,413.836L157.37,413.492L155.608,413.304L154.093,413.097L153.335,413.022L152.578,412.935L151.943,412.866L151.309,412.768L150.992,412.731L150.674,412.716L150.04,412.638L149.406,412.554L148.771,412.462L148.166,412.371L147.56,412.296L146.35,412.037L145.745,411.902L145.139,411.746L143.929,411.366L142.802,410.921L141.676,410.361L140.55,409.559L138.911,408.485L138.143,407.759L137.374,407.093L136.959,406.614L136.545,405.896L135.715,404.985L135.3,404.367L134.886,403.436L134.056,402.206L133.524,401.183L132.992,400.344L132.727,399.775L132.461,398.925L131.929,397.776L131.5,396.686L131.071,395.535L130.642,394.315L130.213,393.02L129.783,391.635L129.354,390.226L128.965,388.807L128.575,387.512L128.296,386.389L128.017,384.646L127.459,382.555L127.122,380.882L126.785,379.186L126.48,377.462L126.175,375.913L125.97,374.593L125.765,373.184L125.56,371.678L125.355,369.696L125.06,367.032L124.765,364.04L124.504,361.233L124.346,359.2L124.267,357.917L124.228,357.122L124.208,356.64L124.198,356.359L124.194,356.148L124.189,355.933L124.185,355.767L124.183,355.662L124.183,355.596L124.182,355.554L124.182,355.528L124.182,355.511L124.182,355.498" stroke="#1f77b4" stroke-width="2.0" clip-path="url(#clip)"/></g><g fill="none" font-size="10" font-family="sans-serif" text-anchor="middle" transform="translate(0,482.53125)"><path class="domain" stroke="currentColor" d="M90,0H842"/><g class="tick" opacity="1" transform="translate(124.18176476928005,0)"><line stroke="currentColor" y2="-6"/><text fill="currentColor" y="-9" dy="0em" text-anchor="top" dominant-baseline="hanging" font-size="18" transform="translate(0, 14)">0.0</text></g><g class="tick" opacity="1" transform="translate(192.5454064741702,0)"><line stroke="currentColor" y2="-6"/><text fill="currentColor" y="-9" dy="0em" text-anchor="top" dominant-baseline="hanging" font-size="18" transform="translate(0, 14)">0.1</text></g><g class="tick" opacity="1" transform="translate(260.9090481790604,0)"><line stroke="currentColor" y2="-6"/><text fill="currentColor" y="-9" dy="0em" text-anchor="top" dominant-baseline="hanging" font-size="18" transform="translate(0, 14)">0.2</text></g><g class="tick" opacity="1" transform="translate(329.27268988395053,0)"><line stroke="currentColor" y2="-6"/><text fill="currentColor" y="-9" dy="0em" text-anchor="top" dominant-baseline="hanging" font-size="18" transform="translate(0, 14)">0.3</text></g><g class="tick" opacity="1" transform="translate(397.63633158884073,0)"><line stroke="currentColor" y2="-6"/><text fill="currentColor" y="-9" dy="0em" text-anchor="top" dominant-baseline="hanging" font-size="18" transform="translate(0, 14)">0.4</text></g><g class="tick" opacity="1" transform="translate(465.9999732937309,0)"><line stroke="currentColor" y2="-6"/><text fill="currentColor" y="-9" dy="0em" text-anchor="top" dominant-baseline="hanging" font-size="18" transform="translate(0, 14)">0.5</text></g><g class="tick" opacity="1" transform="translate(534.3636149986211,0)"><line stroke="currentColor" y2="-6"/><text fill="currentColor" y="-9" dy="0em" text-anchor="top" dominant-baseline="hanging" font-size="18" transform="translate(0, 14)">0.6</text></g><g class="tick" opacity="1" transform="translate(602.7272567035112,0)"><line stroke="currentColor" y2="-6"/><text fill="currentColor" y="-9" dy="0em" text-anchor="top" dominant-baseline="hanging" font-size="18" transform="translate(0, 14)">0.7</text></g><g class="tick" opacity="1" transform="translate(671.0908984084015,0)"><line stroke="currentColor" y2="-6"/><text fill="currentColor" y="-9" dy="0em" text-anchor="top" dominant-baseline="hanging" font-size="18" transform="translate(0, 14)">0.8</text></g><g class="tick" opacity="1" transform="translate(739.4545401132916,0)"><line stroke="currentColor" y2="-6"/><text fill="currentColor" y="-9" dy="0em" text-anchor="top" dominant-baseline="hanging" font-size="18" transform="translate(0, 14)">0.9</text></g><g class="tick" opacity="1" transform="translate(807.8181818181818,0)"><line stroke="currentColor" y2="-6"/><text fill="currentColor" y="-9" dy="0em" text-anchor="top" dominant-baseline="hanging" font-size="18" transform="translate(0, 14)">1.0</text></g></g><g fill="none" font-size="10" font-family="sans-serif" text-anchor="middle" transform="translate(0,10)"><path class="domain" stroke="currentColor" d="M90,0H842"/><g class="tick" opacity="1" transform="translate(124.18176476928005,0)"><line stroke="currentColor" y2="6"/></g><g class="tick" opacity="1" transform="translate(192.5454064741702,0)"><line stroke="currentColor" y2="6"/></g><g class="tick" opacity="1" transform="translate(260.9090481790604,0)"><line stroke="currentColor" y2="6"/></g><g class="tick" opacity="1" transform="translate(329.27268988395053,0)"><line stroke="currentColor" y2="6"/></g><g class="tick" opacity="1" transform="translate(397.63633158884073,0)"><line stroke="currentColor" y2="6"/></g><g class="tick" opacity="1" transform="translate(465.9999732937309,0)"><line stroke="currentColor" y2="6"/></g><g class="tick" opacity="1" transform="translate(534.3636149986211,0)"><line stroke="currentColor" y2="6"/></g><g class="tick" opacity="1" transform="translate(602.7272567035112,0)"><line stroke="currentColor" y2="6"/></g><g class="tick" opacity="1" transform="translate(671.0908984084015,0)"><line stroke="currentColor" y2="6"/></g><g class="tick" opacity="1" transform="translate(739.4545401132916,0)"><line stroke="currentColor" y2="6"/></g><g class="tick" opacity="1" transform="translate(807.8181818181818,0)"><line stroke="currentColor" y2="6"/></g></g><g fill="none" font-size="10" font-family="sans-serif" text-anchor="start" transform="translate(90,0)"><path class="domain" stroke="currentColor" d="M0,482.53125V10"/><g class="tick" opacity="1" transform="translate(0,471.5217978076025)"><line stroke="currentColor" x2="6"/><text fill="currentColor" x="9" dy="0.32em" text-anchor="end" font-size="18" transform="translate(-12, 0)">100µ</text></g><g class="tick" opacity="1" transform="translate(0,430.8684780494527)"><line stroke="currentColor" x2="6"/><text fill="currentColor" x="9" dy="0.32em" text-anchor="end" font-size="18" transform="translate(-12, 0)">10m</text></g><g class="tick" opacity="1" transform="translate(0,390.21515829130277)"><line stroke="currentColor" x2="6"/><text fill="currentColor" x="9" dy="0.32em" text-anchor="end" font-size="18" transform="translate(-12, 0)">1</text></g><g class="tick" opacity="1" transform="translate(0,349.5618385331528)"><line stroke="currentColor" x2="6"/><text fill="currentColor" x="9" dy="0.32em" text-anchor="end" font-size="18" transform="translate(-12, 0)">100</text></g><g class="tick" opacity="1" transform="translate(0,308.908518775003)"><line stroke="currentColor" x2="6"/><text fill="currentColor" x="9" dy="0.32em" text-anchor="end" font-size="18" transform="translate(-12, 0)">10k</text></g><g class="tick" opacity="1" transform="translate(0,268.2551990168531)"><line stroke="currentColor" x2="6"/><text fill="currentColor" x="9" dy="0.32em" text-anchor="end" font-size="18" transform="translate(-12, 0)">1M</text></g><g class="tick" opacity="1" transform="translate(0,227.60187925870318)"><line stroke="currentColor" x2="6"/><text fill="currentColor" x="9" dy="0.32em" text-anchor="end" font-size="18" transform="translate(-12, 0)">100M</text></g><g class="tick" opacity="1" transform="translate(0,186.9485595005533)"><line stroke="currentColor" x2="6"/><text fill="currentColor" x="9" dy="0.32em" text-anchor="end" font-size="18" transform="translate(-12, 0)">10G</text></g><g class="tick" opacity="1" transform="translate(0,146.29523974240337)"><line stroke="currentColor" x2="6"/><text fill="currentColor" x="9" dy="0.32em" text-anchor="end" font-size="18" transform="translate(-12, 0)">1T</text></g><g class="tick" opacity="1" transform="translate(0,105.64191998425345)"><line stroke="currentColor" x2="6"/><text fill="currentColor" x="9" dy="0.32em" text-anchor="end" font-size="18" transform="translate(-12, 0)">100T</text></g><g class="tick" opacity="1" transform="translate(0,64.98860022610353)"><line stroke="currentColor" x2="6"/><text fill="currentColor" x="9" dy="0.32em" text-anchor="end" font-size="18" transform="translate(-12, 0)">10P</text></g><g class="tick" opacity="1" transform="translate(0,24.335280467953655)"><line stroke="currentColor" x2="6"/><text fill="currentColor" x="9" dy="0.32em" text-anchor="end" font-size="18" transform="translate(-12, 0)">1E</text></g></g><g fill="none" font-size="10" font-family="sans-serif" text-anchor="end" transform="translate(842,0)"><path class="domain" stroke="currentColor" d="M0,482.53125V10"/><g class="tick" opacity="1" transform="translate(0,471.5217978076025)"><line stroke="currentColor" x2="-6"/></g><g class="tick" opacity="1" transform="translate(0,430.8684780494527)"><line stroke="currentColor" x2="-6"/></g><g class="tick" opacity="1" transform="translate(0,390.21515829130277)"><line stroke="currentColor" x2="-6"/></g><g class="tick" opacity="1" transform="translate(0,349.5618385331528)"><line stroke="currentColor" x2="-6"/></g><g class="tick" opacity="1" transform="translate(0,308.908518775003)"><line stroke="currentColor" x2="-6"/></g><g class="tick" opacity="1" transform="translate(0,268.2551990168531)"><line stroke="currentColor" x2="-6"/></g><g class="tick" opacity="1" transform="translate(0,227.60187925870318)"><line stroke="currentColor" x2="-6"/></g><g class="tick" opacity="1" transform="translate(0,186.9485595005533)"><line stroke="currentColor" x2="-6"/></g><g class="tick" opacity="1" transform="translate(0,146.29523974240337)"><line stroke="currentColor" x2="-6"/></g><g class="tick" opacity="1" transform="translate(0,105.64191998425345)"><line stroke="currentColor" x2="-6"/></g><g class="tick" opacity="1" transform="translate(0,64.98860022610353)"><line stroke="currentColor" x2="-6"/></g><g class="tick" opacity="1" transform="translate(0,24.335280467953655)"><line stroke="currentColor" x2="-6"/></g></g><text transform="translate(466, 532.53125)" dominant-baseline="bottom" text-anchor="middle" id="svg-x-label" font-family="sans-serif" fill="Black" font-size="18">mass</text><text transform="translate(5, 246.265625) rotate(-90)" dominant-baseline="hanging" text-anchor="middle" id="svg-y-label" fill="#1f77b4" font-family="sans-serif" font-size="18">eps ratio</text></svg>