<?xml version="1.0" encoding="utf-8" standalone="no"?>
<!DOCTYPE svg PUBLIC "-//W3C//DTD SVG 1.1//EN"
  "http://www.w3.org/Graphics/SVG/1.1/DTD/svg11.dtd">
<svg xmlns:xlink="http://www.w3.org/1999/xlink" width="387.874054pt" height="212.890603pt" viewBox="0 0 387.874054 212.890603" xmlns="http://www.w3.org/2000/svg" version="1.1">
 <metadata>
  <rdf:RDF xmlns:dc="http://purl.org/dc/elements/1.1/" xmlns:cc="http://creativecommons.org/ns#" xmlns:rdf="http://www.w3.org/1999/02/22-rdf-syntax-ns#">
   <cc:Work>
    <dc:type rdf:resource="http://purl.org/dc/dcmitype/StillImage"/>
    <dc:date>2022-10-19T09:33:04.502143</dc:date>
    <dc:format>image/svg+xml</dc:format>
    <dc:creator>
     <cc:Agent>
      <dc:title>Matplotlib v3.5.2, https://matplotlib.org/</dc:title>
     </cc:Agent>
    </dc:creator>
   </cc:Work>
  </rdf:RDF>
 </metadata>
 <defs>
  <style type="text/css">*{stroke-linejoin: round; stroke-linecap: butt}</style>
 </defs>
 <g id="figure_1">
  <g id="patch_1">
   <path d="M 0 212.890603 
L 387.874054 212.890603 
L 387.874054 0 
L 0 0 
L 0 212.890603 
z
" style="fill: none"/>
  </g>
  <g id="axes_1">
   <g id="patch_2">
    <path d="M 40.892719 176.979249 
L 375.692719 176.979249 
L 375.692719 10.659249 
L 40.892719 10.659249 
L 40.892719 176.979249 
z
" style="fill: none"/>
   </g>
   <g id="PolyCollection_1">
    <path d="M 40.892719 10.659249 
L 40.892719 214.779249 
L 41.227854 214.59006 
L 41.562989 214.400871 
L 41.898124 214.211682 
L 42.23326 214.022492 
L 42.568395 213.833303 
L 42.90353 213.644114 
L 43.238665 213.454925 
L 43.5738 213.265736 
L 43.908935 213.076546 
L 44.24407 212.887357 
L 44.579206 212.698168 
L 44.914341 212.508979 
L 45.249476 212.31979 
L 45.584611 212.130601 
L 45.919746 211.941411 
L 46.254881 211.752222 
L 46.590016 211.563033 
L 46.925152 211.373844 
L 47.260287 211.184655 
L 47.595422 210.995465 
L 47.930557 210.806276 
L 48.265692 210.617087 
L 48.600827 210.427898 
L 48.935962 210.238709 
L 49.271097 210.049519 
L 49.606233 209.86033 
L 49.941368 209.671141 
L 50.276503 209.481952 
L 50.611638 209.292763 
L 50.946773 209.103574 
L 51.281908 208.914384 
L 51.617043 208.725195 
L 51.952179 208.536006 
L 52.287314 208.346817 
L 52.622449 208.157628 
L 52.957584 207.968438 
L 53.292719 207.779249 
L 53.627854 207.59006 
L 53.962989 207.400871 
L 54.298124 207.211682 
L 54.63326 207.022492 
L 54.968395 206.833303 
L 55.30353 206.644114 
L 55.638665 206.454925 
L 55.9738 206.265736 
L 56.308935 206.076546 
L 56.64407 205.887357 
L 56.979206 205.698168 
L 57.314341 205.508979 
L 57.649476 205.31979 
L 57.984611 205.130601 
L 58.319746 204.941411 
L 58.654881 204.752222 
L 58.990016 204.563033 
L 59.325152 204.373844 
L 59.660287 204.184655 
L 59.995422 203.995465 
L 60.330557 203.806276 
L 60.665692 203.617087 
L 61.000827 203.427898 
L 61.335962 203.238709 
L 61.671097 203.049519 
L 62.006233 202.86033 
L 62.341368 202.671141 
L 62.676503 202.481952 
L 63.011638 202.292763 
L 63.346773 202.103574 
L 63.681908 201.914384 
L 64.017043 201.725195 
L 64.352179 201.536006 
L 64.687314 201.346817 
L 65.022449 201.157628 
L 65.357584 200.968438 
L 65.692719 200.779249 
L 66.027854 200.59006 
L 66.362989 200.400871 
L 66.698124 200.211682 
L 67.03326 200.022492 
L 67.368395 199.833303 
L 67.70353 199.644114 
L 68.038665 199.454925 
L 68.3738 199.265736 
L 68.708935 199.076546 
L 69.04407 198.887357 
L 69.379206 198.698168 
L 69.714341 198.508979 
L 70.049476 198.31979 
L 70.384611 198.130601 
L 70.719746 197.941411 
L 71.054881 197.752222 
L 71.390016 197.563033 
L 71.725152 197.373844 
L 72.060287 197.184655 
L 72.395422 196.995465 
L 72.730557 196.806276 
L 73.065692 196.617087 
L 73.400827 196.427898 
L 73.735962 196.238709 
L 74.071097 196.049519 
L 74.406233 195.86033 
L 74.741368 195.671141 
L 75.076503 195.481952 
L 75.411638 195.292763 
L 75.746773 195.103574 
L 76.081908 194.914384 
L 76.417043 194.725195 
L 76.752179 194.536006 
L 77.087314 194.346817 
L 77.422449 194.157628 
L 77.757584 193.968438 
L 78.092719 193.779249 
L 78.427854 193.59006 
L 78.762989 193.400871 
L 79.098124 193.211682 
L 79.43326 193.022492 
L 79.768395 192.833303 
L 80.10353 192.644114 
L 80.438665 192.454925 
L 80.7738 192.265736 
L 81.108935 192.076546 
L 81.44407 191.887357 
L 81.779206 191.698168 
L 82.114341 191.508979 
L 82.449476 191.31979 
L 82.784611 191.130601 
L 83.119746 190.941411 
L 83.454881 190.752222 
L 83.790016 190.563033 
L 84.125152 190.373844 
L 84.460287 190.184655 
L 84.795422 189.995465 
L 85.130557 189.806276 
L 85.465692 189.617087 
L 85.800827 189.427898 
L 86.135962 189.238709 
L 86.471097 189.049519 
L 86.806233 188.86033 
L 87.141368 188.671141 
L 87.476503 188.481952 
L 87.811638 188.292763 
L 88.146773 188.103574 
L 88.481908 187.914384 
L 88.817043 187.725195 
L 89.152179 187.536006 
L 89.487314 187.346817 
L 89.822449 187.157628 
L 90.157584 186.968438 
L 90.492719 186.779249 
L 90.827854 186.59006 
L 91.162989 186.400871 
L 91.498124 186.211682 
L 91.83326 186.022492 
L 92.168395 185.833303 
L 92.50353 185.644114 
L 92.838665 185.454925 
L 93.1738 185.265736 
L 93.508935 185.076546 
L 93.84407 184.887357 
L 94.179206 184.698168 
L 94.514341 184.508979 
L 94.849476 184.31979 
L 95.184611 184.130601 
L 95.519746 183.941411 
L 95.854881 183.752222 
L 96.190016 183.563033 
L 96.525152 183.373844 
L 96.860287 183.184655 
L 97.195422 182.995465 
L 97.530557 182.806276 
L 97.865692 182.617087 
L 98.200827 182.427898 
L 98.535962 182.238709 
L 98.871097 182.049519 
L 99.206233 181.86033 
L 99.541368 181.671141 
L 99.876503 181.481952 
L 100.211638 181.292763 
L 100.546773 181.103574 
L 100.881908 180.914384 
L 101.217043 180.725195 
L 101.552179 180.536006 
L 101.887314 180.346817 
L 102.222449 180.157628 
L 102.557584 179.968438 
L 102.892719 179.779249 
L 103.227854 179.59006 
L 103.562989 179.400871 
L 103.898124 179.211682 
L 104.23326 179.022492 
L 104.568395 178.833303 
L 104.90353 178.644114 
L 105.238665 178.454925 
L 105.5738 178.265736 
L 105.908935 178.076546 
L 106.24407 177.887357 
L 106.579206 177.698168 
L 106.914341 177.508979 
L 107.249476 177.31979 
L 107.584611 177.130601 
L 107.919746 176.941411 
L 108.254881 176.752222 
L 108.590016 176.563033 
L 108.925152 176.373844 
L 109.260287 176.184655 
L 109.595422 175.995465 
L 109.930557 175.806276 
L 110.265692 175.617087 
L 110.600827 175.427898 
L 110.935962 175.238709 
L 111.271097 175.049519 
L 111.606233 174.86033 
L 111.941368 174.671141 
L 112.276503 174.481952 
L 112.611638 174.292763 
L 112.946773 174.103574 
L 113.281908 173.914384 
L 113.617043 173.725195 
L 113.952179 173.536006 
L 114.287314 173.346817 
L 114.622449 173.157628 
L 114.957584 172.968438 
L 115.292719 172.779249 
L 115.627854 172.59006 
L 115.962989 172.400871 
L 116.298124 172.211682 
L 116.63326 172.022492 
L 116.968395 171.833303 
L 117.30353 171.644114 
L 117.638665 171.454925 
L 117.9738 171.265736 
L 118.308935 171.076546 
L 118.64407 170.887357 
L 118.979206 170.698168 
L 119.314341 170.508979 
L 119.649476 170.31979 
L 119.984611 170.130601 
L 120.319746 169.941411 
L 120.654881 169.752222 
L 120.990016 169.563033 
L 121.325152 169.373844 
L 121.660287 169.184655 
L 121.995422 168.995465 
L 122.330557 168.806276 
L 122.665692 168.617087 
L 123.000827 168.427898 
L 123.335962 168.238709 
L 123.671097 168.049519 
L 124.006233 167.86033 
L 124.341368 167.671141 
L 124.676503 167.481952 
L 125.011638 167.292763 
L 125.346773 167.103574 
L 125.681908 166.914384 
L 126.017043 166.725195 
L 126.352179 166.536006 
L 126.687314 166.346817 
L 127.022449 166.157628 
L 127.357584 165.968438 
L 127.692719 165.779249 
L 128.027854 165.59006 
L 128.362989 165.400871 
L 128.698124 165.211682 
L 129.03326 165.022492 
L 129.368395 164.833303 
L 129.70353 164.644114 
L 130.038665 164.454925 
L 130.3738 164.265736 
L 130.708935 164.076546 
L 131.04407 163.887357 
L 131.379206 163.698168 
L 131.714341 163.508979 
L 132.049476 163.31979 
L 132.384611 163.130601 
L 132.719746 162.941411 
L 133.054881 162.752222 
L 133.390016 162.563033 
L 133.725152 162.373844 
L 134.060287 162.184655 
L 134.395422 161.995465 
L 134.730557 161.806276 
L 135.065692 161.617087 
L 135.400827 161.427898 
L 135.735962 161.238709 
L 136.071097 161.049519 
L 136.406233 160.86033 
L 136.741368 160.671141 
L 137.076503 160.481952 
L 137.411638 160.292763 
L 137.746773 160.103574 
L 138.081908 159.914384 
L 138.417043 159.725195 
L 138.752179 159.536006 
L 139.087314 159.346817 
L 139.422449 159.157628 
L 139.757584 158.968438 
L 140.092719 158.779249 
L 140.427854 158.59006 
L 140.762989 158.400871 
L 141.098124 158.211682 
L 141.43326 158.022492 
L 141.768395 157.833303 
L 142.10353 157.644114 
L 142.438665 157.454925 
L 142.7738 157.265736 
L 143.108935 157.076546 
L 143.44407 156.887357 
L 143.779206 156.698168 
L 144.114341 156.508979 
L 144.449476 156.31979 
L 144.784611 156.130601 
L 145.119746 155.941411 
L 145.454881 155.752222 
L 145.790016 155.563033 
L 146.125152 155.373844 
L 146.460287 155.184655 
L 146.795422 154.995465 
L 147.130557 154.806276 
L 147.465692 154.617087 
L 147.800827 154.427898 
L 148.135962 154.238709 
L 148.471097 154.049519 
L 148.806233 153.86033 
L 149.141368 153.671141 
L 149.476503 153.481952 
L 149.811638 153.292763 
L 150.146773 153.103574 
L 150.481908 152.914384 
L 150.817043 152.725195 
L 151.152179 152.536006 
L 151.487314 152.346817 
L 151.822449 152.157628 
L 152.157584 151.968438 
L 152.492719 151.779249 
L 152.827854 151.59006 
L 153.162989 151.400871 
L 153.498124 151.211682 
L 153.83326 151.022492 
L 154.168395 150.833303 
L 154.50353 150.644114 
L 154.838665 150.454925 
L 155.1738 150.265736 
L 155.508935 150.076546 
L 155.84407 149.887357 
L 156.179206 149.698168 
L 156.514341 149.508979 
L 156.849476 149.31979 
L 157.184611 149.130601 
L 157.519746 148.941411 
L 157.854881 148.752222 
L 158.190016 148.563033 
L 158.525152 148.373844 
L 158.860287 148.184655 
L 159.195422 147.995465 
L 159.530557 147.806276 
L 159.865692 147.617087 
L 160.200827 147.427898 
L 160.535962 147.238709 
L 160.871097 147.049519 
L 161.206233 146.86033 
L 161.541368 146.671141 
L 161.876503 146.481952 
L 162.211638 146.292763 
L 162.546773 146.103574 
L 162.881908 145.914384 
L 163.217043 145.725195 
L 163.552179 145.536006 
L 163.887314 145.346817 
L 164.222449 145.157628 
L 164.557584 144.968438 
L 164.892719 144.779249 
L 165.227854 144.59006 
L 165.562989 144.400871 
L 165.898124 144.211682 
L 166.23326 144.022492 
L 166.568395 143.833303 
L 166.90353 143.644114 
L 167.238665 143.454925 
L 167.5738 143.265736 
L 167.908935 143.076546 
L 168.24407 142.887357 
L 168.579206 142.698168 
L 168.914341 142.508979 
L 169.249476 142.31979 
L 169.584611 142.130601 
L 169.919746 141.941411 
L 170.254881 141.752222 
L 170.590016 141.563033 
L 170.925152 141.373844 
L 171.260287 141.184655 
L 171.595422 140.995465 
L 171.930557 140.806276 
L 172.265692 140.617087 
L 172.600827 140.427898 
L 172.935962 140.238709 
L 173.271097 140.049519 
L 173.606233 139.86033 
L 173.941368 139.671141 
L 174.276503 139.481952 
L 174.611638 139.292763 
L 174.946773 139.103574 
L 175.281908 138.914384 
L 175.617043 138.725195 
L 175.952179 138.536006 
L 176.287314 138.346817 
L 176.622449 138.157628 
L 176.957584 137.968438 
L 177.292719 137.779249 
L 177.627854 137.59006 
L 177.962989 137.400871 
L 178.298124 137.211682 
L 178.63326 137.022492 
L 178.968395 136.833303 
L 179.30353 136.644114 
L 179.638665 136.454925 
L 179.9738 136.265736 
L 180.308935 136.076546 
L 180.64407 135.887357 
L 180.979206 135.698168 
L 181.314341 135.508979 
L 181.649476 135.31979 
L 181.984611 135.130601 
L 182.319746 134.941411 
L 182.654881 134.752222 
L 182.990016 134.563033 
L 183.325152 134.373844 
L 183.660287 134.184655 
L 183.995422 133.995465 
L 184.330557 133.806276 
L 184.665692 133.617087 
L 185.000827 133.427898 
L 185.335962 133.238709 
L 185.671097 133.049519 
L 186.006233 132.86033 
L 186.341368 132.671141 
L 186.676503 132.481952 
L 187.011638 132.292763 
L 187.346773 132.103574 
L 187.681908 131.914384 
L 188.017043 131.725195 
L 188.352179 131.536006 
L 188.687314 131.346817 
L 189.022449 131.157628 
L 189.357584 130.968438 
L 189.692719 130.779249 
L 190.027854 130.59006 
L 190.362989 130.400871 
L 190.698124 130.211682 
L 191.03326 130.022492 
L 191.368395 129.833303 
L 191.70353 129.644114 
L 192.038665 129.454925 
L 192.3738 129.265736 
L 192.708935 129.076546 
L 193.04407 128.887357 
L 193.379206 128.698168 
L 193.714341 128.508979 
L 194.049476 128.31979 
L 194.384611 128.130601 
L 194.719746 127.941411 
L 195.054881 127.752222 
L 195.390016 127.563033 
L 195.725152 127.373844 
L 196.060287 127.184655 
L 196.395422 126.995465 
L 196.730557 126.806276 
L 197.065692 126.617087 
L 197.400827 126.427898 
L 197.735962 126.238709 
L 198.071097 126.049519 
L 198.406233 125.86033 
L 198.741368 125.671141 
L 199.076503 125.481952 
L 199.411638 125.292763 
L 199.746773 125.103574 
L 200.081908 124.914384 
L 200.417043 124.725195 
L 200.752179 124.536006 
L 201.087314 124.346817 
L 201.422449 124.157628 
L 201.757584 123.968438 
L 202.092719 123.779249 
L 202.427854 123.59006 
L 202.762989 123.400871 
L 203.098124 123.211682 
L 203.43326 123.022492 
L 203.768395 122.833303 
L 204.10353 122.644114 
L 204.438665 122.454925 
L 204.7738 122.265736 
L 205.108935 122.076546 
L 205.44407 121.887357 
L 205.779206 121.698168 
L 206.114341 121.508979 
L 206.449476 121.31979 
L 206.784611 121.130601 
L 207.119746 120.941411 
L 207.454881 120.752222 
L 207.790016 120.563033 
L 208.125152 120.373844 
L 208.460287 120.184655 
L 208.795422 119.995465 
L 209.130557 119.806276 
L 209.465692 119.617087 
L 209.800827 119.427898 
L 210.135962 119.238709 
L 210.471097 119.049519 
L 210.806233 118.86033 
L 211.141368 118.671141 
L 211.476503 118.481952 
L 211.811638 118.292763 
L 212.146773 118.103574 
L 212.481908 117.914384 
L 212.817043 117.725195 
L 213.152179 117.536006 
L 213.487314 117.346817 
L 213.822449 117.157628 
L 214.157584 116.968438 
L 214.492719 116.779249 
L 214.827854 116.59006 
L 215.162989 116.400871 
L 215.498124 116.211682 
L 215.83326 116.022492 
L 216.168395 115.833303 
L 216.50353 115.644114 
L 216.838665 115.454925 
L 217.1738 115.265736 
L 217.508935 115.076546 
L 217.84407 114.887357 
L 218.179206 114.698168 
L 218.514341 114.508979 
L 218.849476 114.31979 
L 219.184611 114.130601 
L 219.519746 113.941411 
L 219.854881 113.752222 
L 220.190016 113.563033 
L 220.525152 113.373844 
L 220.860287 113.184655 
L 221.195422 112.995465 
L 221.530557 112.806276 
L 221.865692 112.617087 
L 222.200827 112.427898 
L 222.535962 112.238709 
L 222.871097 112.049519 
L 223.206233 111.86033 
L 223.541368 111.671141 
L 223.876503 111.481952 
L 224.211638 111.292763 
L 224.546773 111.103574 
L 224.881908 110.914384 
L 225.217043 110.725195 
L 225.552179 110.536006 
L 225.887314 110.346817 
L 226.222449 110.157628 
L 226.557584 109.968438 
L 226.892719 109.779249 
L 227.227854 109.59006 
L 227.562989 109.400871 
L 227.898124 109.211682 
L 228.23326 109.022492 
L 228.568395 108.833303 
L 228.90353 108.644114 
L 229.238665 108.454925 
L 229.5738 108.265736 
L 229.908935 108.076546 
L 230.24407 107.887357 
L 230.579206 107.698168 
L 230.914341 107.508979 
L 231.249476 107.31979 
L 231.584611 107.130601 
L 231.919746 106.941411 
L 232.254881 106.752222 
L 232.590016 106.563033 
L 232.925152 106.373844 
L 233.260287 106.184655 
L 233.595422 105.995465 
L 233.930557 105.806276 
L 234.265692 105.617087 
L 234.600827 105.427898 
L 234.935962 105.238709 
L 235.271097 105.049519 
L 235.606233 104.86033 
L 235.941368 104.671141 
L 236.276503 104.481952 
L 236.611638 104.292763 
L 236.946773 104.103574 
L 237.281908 103.914384 
L 237.617043 103.725195 
L 237.952179 103.536006 
L 238.287314 103.346817 
L 238.622449 103.157628 
L 238.957584 102.968438 
L 239.292719 102.779249 
L 239.627854 102.59006 
L 239.962989 102.400871 
L 240.298124 102.211682 
L 240.63326 102.022492 
L 240.968395 101.833303 
L 241.30353 101.644114 
L 241.638665 101.454925 
L 241.9738 101.265736 
L 242.308935 101.076546 
L 242.64407 100.887357 
L 242.979206 100.698168 
L 243.314341 100.508979 
L 243.649476 100.31979 
L 243.984611 100.130601 
L 244.319746 99.941411 
L 244.654881 99.752222 
L 244.990016 99.563033 
L 245.325152 99.373844 
L 245.660287 99.184655 
L 245.995422 98.995465 
L 246.330557 98.806276 
L 246.665692 98.617087 
L 247.000827 98.427898 
L 247.335962 98.238709 
L 247.671097 98.049519 
L 248.006233 97.86033 
L 248.341368 97.671141 
L 248.676503 97.481952 
L 249.011638 97.292763 
L 249.346773 97.103574 
L 249.681908 96.914384 
L 250.017043 96.725195 
L 250.352179 96.536006 
L 250.687314 96.346817 
L 251.022449 96.157628 
L 251.357584 95.968438 
L 251.692719 95.779249 
L 252.027854 95.59006 
L 252.362989 95.400871 
L 252.698124 95.211682 
L 253.03326 95.022492 
L 253.368395 94.833303 
L 253.70353 94.644114 
L 254.038665 94.454925 
L 254.3738 94.265736 
L 254.708935 94.076546 
L 255.04407 93.887357 
L 255.379206 93.698168 
L 255.714341 93.508979 
L 256.049476 93.31979 
L 256.384611 93.130601 
L 256.719746 92.941411 
L 257.054881 92.752222 
L 257.390016 92.563033 
L 257.725152 92.373844 
L 258.060287 92.184655 
L 258.395422 91.995465 
L 258.730557 91.806276 
L 259.065692 91.617087 
L 259.400827 91.427898 
L 259.735962 91.238709 
L 260.071097 91.049519 
L 260.406233 90.86033 
L 260.741368 90.671141 
L 261.076503 90.481952 
L 261.411638 90.292763 
L 261.746773 90.103574 
L 262.081908 89.914384 
L 262.417043 89.725195 
L 262.752179 89.536006 
L 263.087314 89.346817 
L 263.422449 89.157628 
L 263.757584 88.968438 
L 264.092719 88.779249 
L 264.427854 88.59006 
L 264.762989 88.400871 
L 265.098124 88.211682 
L 265.43326 88.022492 
L 265.768395 87.833303 
L 266.10353 87.644114 
L 266.438665 87.454925 
L 266.7738 87.265736 
L 267.108935 87.076546 
L 267.44407 86.887357 
L 267.779206 86.698168 
L 268.114341 86.508979 
L 268.449476 86.31979 
L 268.784611 86.130601 
L 269.119746 85.941411 
L 269.454881 85.752222 
L 269.790016 85.563033 
L 270.125152 85.373844 
L 270.460287 85.184655 
L 270.795422 84.995465 
L 271.130557 84.806276 
L 271.465692 84.617087 
L 271.800827 84.427898 
L 272.135962 84.238709 
L 272.471097 84.049519 
L 272.806233 83.86033 
L 273.141368 83.671141 
L 273.476503 83.481952 
L 273.811638 83.292763 
L 274.146773 83.103574 
L 274.481908 82.914384 
L 274.817043 82.725195 
L 275.152179 82.536006 
L 275.487314 82.346817 
L 275.822449 82.157628 
L 276.157584 81.968438 
L 276.492719 81.779249 
L 276.827854 81.59006 
L 277.162989 81.400871 
L 277.498124 81.211682 
L 277.83326 81.022492 
L 278.168395 80.833303 
L 278.50353 80.644114 
L 278.838665 80.454925 
L 279.1738 80.265736 
L 279.508935 80.076546 
L 279.84407 79.887357 
L 280.179206 79.698168 
L 280.514341 79.508979 
L 280.849476 79.31979 
L 281.184611 79.130601 
L 281.519746 78.941411 
L 281.854881 78.752222 
L 282.190016 78.563033 
L 282.525152 78.373844 
L 282.860287 78.184655 
L 283.195422 77.995465 
L 283.530557 77.806276 
L 283.865692 77.617087 
L 284.200827 77.427898 
L 284.535962 77.238709 
L 284.871097 77.049519 
L 285.206233 76.86033 
L 285.541368 76.671141 
L 285.876503 76.481952 
L 286.211638 76.292763 
L 286.546773 76.103574 
L 286.881908 75.914384 
L 287.217043 75.725195 
L 287.552179 75.536006 
L 287.887314 75.346817 
L 288.222449 75.157628 
L 288.557584 74.968438 
L 288.892719 74.779249 
L 289.227854 74.59006 
L 289.562989 74.400871 
L 289.898124 74.211682 
L 290.23326 74.022492 
L 290.568395 73.833303 
L 290.90353 73.644114 
L 291.238665 73.454925 
L 291.5738 73.265736 
L 291.908935 73.076546 
L 292.24407 72.887357 
L 292.579206 72.698168 
L 292.914341 72.508979 
L 293.249476 72.31979 
L 293.584611 72.130601 
L 293.919746 71.941411 
L 294.254881 71.752222 
L 294.590016 71.563033 
L 294.925152 71.373844 
L 295.260287 71.184655 
L 295.595422 70.995465 
L 295.930557 70.806276 
L 296.265692 70.617087 
L 296.600827 70.427898 
L 296.935962 70.238709 
L 297.271097 70.049519 
L 297.606233 69.86033 
L 297.941368 69.671141 
L 298.276503 69.481952 
L 298.611638 69.292763 
L 298.946773 69.103574 
L 299.281908 68.914384 
L 299.617043 68.725195 
L 299.952179 68.536006 
L 300.287314 68.346817 
L 300.622449 68.157628 
L 300.957584 67.968438 
L 301.292719 67.779249 
L 301.627854 67.59006 
L 301.962989 67.400871 
L 302.298124 67.211682 
L 302.63326 67.022492 
L 302.968395 66.833303 
L 303.30353 66.644114 
L 303.638665 66.454925 
L 303.9738 66.265736 
L 304.308935 66.076546 
L 304.64407 65.887357 
L 304.979206 65.698168 
L 305.314341 65.508979 
L 305.649476 65.31979 
L 305.984611 65.130601 
L 306.319746 64.941411 
L 306.654881 64.752222 
L 306.990016 64.563033 
L 307.325152 64.373844 
L 307.660287 64.184655 
L 307.995422 63.995465 
L 308.330557 63.806276 
L 308.665692 63.617087 
L 309.000827 63.427898 
L 309.335962 63.238709 
L 309.671097 63.049519 
L 310.006233 62.86033 
L 310.341368 62.671141 
L 310.676503 62.481952 
L 311.011638 62.292763 
L 311.346773 62.103574 
L 311.681908 61.914384 
L 312.017043 61.725195 
L 312.352179 61.536006 
L 312.687314 61.346817 
L 313.022449 61.157628 
L 313.357584 60.968438 
L 313.692719 60.779249 
L 314.027854 60.59006 
L 314.362989 60.400871 
L 314.698124 60.211682 
L 315.03326 60.022492 
L 315.368395 59.833303 
L 315.70353 59.644114 
L 316.038665 59.454925 
L 316.3738 59.265736 
L 316.708935 59.076546 
L 317.04407 58.887357 
L 317.379206 58.698168 
L 317.714341 58.508979 
L 318.049476 58.31979 
L 318.384611 58.130601 
L 318.719746 57.941411 
L 319.054881 57.752222 
L 319.390016 57.563033 
L 319.725152 57.373844 
L 320.060287 57.184655 
L 320.395422 56.995465 
L 320.730557 56.806276 
L 321.065692 56.617087 
L 321.400827 56.427898 
L 321.735962 56.238709 
L 322.071097 56.049519 
L 322.406233 55.86033 
L 322.741368 55.671141 
L 323.076503 55.481952 
L 323.411638 55.292763 
L 323.746773 55.103574 
L 324.081908 54.914384 
L 324.417043 54.725195 
L 324.752179 54.536006 
L 325.087314 54.346817 
L 325.422449 54.157628 
L 325.757584 53.968438 
L 326.092719 53.779249 
L 326.427854 53.59006 
L 326.762989 53.400871 
L 327.098124 53.211682 
L 327.43326 53.022492 
L 327.768395 52.833303 
L 328.10353 52.644114 
L 328.438665 52.454925 
L 328.7738 52.265736 
L 329.108935 52.076546 
L 329.44407 51.887357 
L 329.779206 51.698168 
L 330.114341 51.508979 
L 330.449476 51.31979 
L 330.784611 51.130601 
L 331.119746 50.941411 
L 331.454881 50.752222 
L 331.790016 50.563033 
L 332.125152 50.373844 
L 332.460287 50.184655 
L 332.795422 49.995465 
L 333.130557 49.806276 
L 333.465692 49.617087 
L 333.800827 49.427898 
L 334.135962 49.238709 
L 334.471097 49.049519 
L 334.806233 48.86033 
L 335.141368 48.671141 
L 335.476503 48.481952 
L 335.811638 48.292763 
L 336.146773 48.103574 
L 336.481908 47.914384 
L 336.817043 47.725195 
L 337.152179 47.536006 
L 337.487314 47.346817 
L 337.822449 47.157628 
L 338.157584 46.968438 
L 338.492719 46.779249 
L 338.827854 46.59006 
L 339.162989 46.400871 
L 339.498124 46.211682 
L 339.83326 46.022492 
L 340.168395 45.833303 
L 340.50353 45.644114 
L 340.838665 45.454925 
L 341.1738 45.265736 
L 341.508935 45.076546 
L 341.84407 44.887357 
L 342.179206 44.698168 
L 342.514341 44.508979 
L 342.849476 44.31979 
L 343.184611 44.130601 
L 343.519746 43.941411 
L 343.854881 43.752222 
L 344.190016 43.563033 
L 344.525152 43.373844 
L 344.860287 43.184655 
L 345.195422 42.995465 
L 345.530557 42.806276 
L 345.865692 42.617087 
L 346.200827 42.427898 
L 346.535962 42.238709 
L 346.871097 42.049519 
L 347.206233 41.86033 
L 347.541368 41.671141 
L 347.876503 41.481952 
L 348.211638 41.292763 
L 348.546773 41.103574 
L 348.881908 40.914384 
L 349.217043 40.725195 
L 349.552179 40.536006 
L 349.887314 40.346817 
L 350.222449 40.157628 
L 350.557584 39.968438 
L 350.892719 39.779249 
L 351.227854 39.59006 
L 351.562989 39.400871 
L 351.898124 39.211682 
L 352.23326 39.022492 
L 352.568395 38.833303 
L 352.90353 38.644114 
L 353.238665 38.454925 
L 353.5738 38.265736 
L 353.908935 38.076546 
L 354.24407 37.887357 
L 354.579206 37.698168 
L 354.914341 37.508979 
L 355.249476 37.31979 
L 355.584611 37.130601 
L 355.919746 36.941411 
L 356.254881 36.752222 
L 356.590016 36.563033 
L 356.925152 36.373844 
L 357.260287 36.184655 
L 357.595422 35.995465 
L 357.930557 35.806276 
L 358.265692 35.617087 
L 358.600827 35.427898 
L 358.935962 35.238709 
L 359.271097 35.049519 
L 359.606233 34.86033 
L 359.941368 34.671141 
L 360.276503 34.481952 
L 360.611638 34.292763 
L 360.946773 34.103574 
L 361.281908 33.914384 
L 361.617043 33.725195 
L 361.952179 33.536006 
L 362.287314 33.346817 
L 362.622449 33.157628 
L 362.957584 32.968438 
L 363.292719 32.779249 
L 363.627854 32.59006 
L 363.962989 32.400871 
L 364.298124 32.211682 
L 364.63326 32.022492 
L 364.968395 31.833303 
L 365.30353 31.644114 
L 365.638665 31.454925 
L 365.9738 31.265736 
L 366.308935 31.076546 
L 366.64407 30.887357 
L 366.979206 30.698168 
L 367.314341 30.508979 
L 367.649476 30.31979 
L 367.984611 30.130601 
L 368.319746 29.941411 
L 368.654881 29.752222 
L 368.990016 29.563033 
L 369.325152 29.373844 
L 369.660287 29.184655 
L 369.995422 28.995465 
L 370.330557 28.806276 
L 370.665692 28.617087 
L 371.000827 28.427898 
L 371.335962 28.238709 
L 371.671097 28.049519 
L 372.006233 27.86033 
L 372.341368 27.671141 
L 372.676503 27.481952 
L 373.011638 27.292763 
L 373.346773 27.103574 
L 373.681908 26.914384 
L 374.017043 26.725195 
L 374.352179 26.536006 
L 374.687314 26.346817 
L 375.022449 26.157628 
L 375.357584 25.968438 
L 375.692719 25.779249 
L 375.692719 10.659249 
L 375.692719 10.659249 
L 375.357584 10.659249 
L 375.022449 10.659249 
L 374.687314 10.659249 
L 374.352179 10.659249 
L 374.017043 10.659249 
L 373.681908 10.659249 
L 373.346773 10.659249 
L 373.011638 10.659249 
L 372.676503 10.659249 
L 372.341368 10.659249 
L 372.006233 10.659249 
L 371.671097 10.659249 
L 371.335962 10.659249 
L 371.000827 10.659249 
L 370.665692 10.659249 
L 370.330557 10.659249 
L 369.995422 10.659249 
L 369.660287 10.659249 
L 369.325152 10.659249 
L 368.990016 10.659249 
L 368.654881 10.659249 
L 368.319746 10.659249 
L 367.984611 10.659249 
L 367.649476 10.659249 
L 367.314341 10.659249 
L 366.979206 10.659249 
L 366.64407 10.659249 
L 366.308935 10.659249 
L 365.9738 10.659249 
L 365.638665 10.659249 
L 365.30353 10.659249 
L 364.968395 10.659249 
L 364.63326 10.659249 
L 364.298124 10.659249 
L 363.962989 10.659249 
L 363.627854 10.659249 
L 363.292719 10.659249 
L 362.957584 10.659249 
L 362.622449 10.659249 
L 362.287314 10.659249 
L 361.952179 10.659249 
L 361.617043 10.659249 
L 361.281908 10.659249 
L 360.946773 10.659249 
L 360.611638 10.659249 
L 360.276503 10.659249 
L 359.941368 10.659249 
L 359.606233 10.659249 
L 359.271097 10.659249 
L 358.935962 10.659249 
L 358.600827 10.659249 
L 358.265692 10.659249 
L 357.930557 10.659249 
L 357.595422 10.659249 
L 357.260287 10.659249 
L 356.925152 10.659249 
L 356.590016 10.659249 
L 356.254881 10.659249 
L 355.919746 10.659249 
L 355.584611 10.659249 
L 355.249476 10.659249 
L 354.914341 10.659249 
L 354.579206 10.659249 
L 354.24407 10.659249 
L 353.908935 10.659249 
L 353.5738 10.659249 
L 353.238665 10.659249 
L 352.90353 10.659249 
L 352.568395 10.659249 
L 352.23326 10.659249 
L 351.898124 10.659249 
L 351.562989 10.659249 
L 351.227854 10.659249 
L 350.892719 10.659249 
L 350.557584 10.659249 
L 350.222449 10.659249 
L 349.887314 10.659249 
L 349.552179 10.659249 
L 349.217043 10.659249 
L 348.881908 10.659249 
L 348.546773 10.659249 
L 348.211638 10.659249 
L 347.876503 10.659249 
L 347.541368 10.659249 
L 347.206233 10.659249 
L 346.871097 10.659249 
L 346.535962 10.659249 
L 346.200827 10.659249 
L 345.865692 10.659249 
L 345.530557 10.659249 
L 345.195422 10.659249 
L 344.860287 10.659249 
L 344.525152 10.659249 
L 344.190016 10.659249 
L 343.854881 10.659249 
L 343.519746 10.659249 
L 343.184611 10.659249 
L 342.849476 10.659249 
L 342.514341 10.659249 
L 342.179206 10.659249 
L 341.84407 10.659249 
L 341.508935 10.659249 
L 341.1738 10.659249 
L 340.838665 10.659249 
L 340.50353 10.659249 
L 340.168395 10.659249 
L 339.83326 10.659249 
L 339.498124 10.659249 
L 339.162989 10.659249 
L 338.827854 10.659249 
L 338.492719 10.659249 
L 338.157584 10.659249 
L 337.822449 10.659249 
L 337.487314 10.659249 
L 337.152179 10.659249 
L 336.817043 10.659249 
L 336.481908 10.659249 
L 336.146773 10.659249 
L 335.811638 10.659249 
L 335.476503 10.659249 
L 335.141368 10.659249 
L 334.806233 10.659249 
L 334.471097 10.659249 
L 334.135962 10.659249 
L 333.800827 10.659249 
L 333.465692 10.659249 
L 333.130557 10.659249 
L 332.795422 10.659249 
L 332.460287 10.659249 
L 332.125152 10.659249 
L 331.790016 10.659249 
L 331.454881 10.659249 
L 331.119746 10.659249 
L 330.784611 10.659249 
L 330.449476 10.659249 
L 330.114341 10.659249 
L 329.779206 10.659249 
L 329.44407 10.659249 
L 329.108935 10.659249 
L 328.7738 10.659249 
L 328.438665 10.659249 
L 328.10353 10.659249 
L 327.768395 10.659249 
L 327.43326 10.659249 
L 327.098124 10.659249 
L 326.762989 10.659249 
L 326.427854 10.659249 
L 326.092719 10.659249 
L 325.757584 10.659249 
L 325.422449 10.659249 
L 325.087314 10.659249 
L 324.752179 10.659249 
L 324.417043 10.659249 
L 324.081908 10.659249 
L 323.746773 10.659249 
L 323.411638 10.659249 
L 323.076503 10.659249 
L 322.741368 10.659249 
L 322.406233 10.659249 
L 322.071097 10.659249 
L 321.735962 10.659249 
L 321.400827 10.659249 
L 321.065692 10.659249 
L 320.730557 10.659249 
L 320.395422 10.659249 
L 320.060287 10.659249 
L 319.725152 10.659249 
L 319.390016 10.659249 
L 319.054881 10.659249 
L 318.719746 10.659249 
L 318.384611 10.659249 
L 318.049476 10.659249 
L 317.714341 10.659249 
L 317.379206 10.659249 
L 317.04407 10.659249 
L 316.708935 10.659249 
L 316.3738 10.659249 
L 316.038665 10.659249 
L 315.70353 10.659249 
L 315.368395 10.659249 
L 315.03326 10.659249 
L 314.698124 10.659249 
L 314.362989 10.659249 
L 314.027854 10.659249 
L 313.692719 10.659249 
L 313.357584 10.659249 
L 313.022449 10.659249 
L 312.687314 10.659249 
L 312.352179 10.659249 
L 312.017043 10.659249 
L 311.681908 10.659249 
L 311.346773 10.659249 
L 311.011638 10.659249 
L 310.676503 10.659249 
L 310.341368 10.659249 
L 310.006233 10.659249 
L 309.671097 10.659249 
L 309.335962 10.659249 
L 309.000827 10.659249 
L 308.665692 10.659249 
L 308.330557 10.659249 
L 307.995422 10.659249 
L 307.660287 10.659249 
L 307.325152 10.659249 
L 306.990016 10.659249 
L 306.654881 10.659249 
L 306.319746 10.659249 
L 305.984611 10.659249 
L 305.649476 10.659249 
L 305.314341 10.659249 
L 304.979206 10.659249 
L 304.64407 10.659249 
L 304.308935 10.659249 
L 303.9738 10.659249 
L 303.638665 10.659249 
L 303.30353 10.659249 
L 302.968395 10.659249 
L 302.63326 10.659249 
L 302.298124 10.659249 
L 301.962989 10.659249 
L 301.627854 10.659249 
L 301.292719 10.659249 
L 300.957584 10.659249 
L 300.622449 10.659249 
L 300.287314 10.659249 
L 299.952179 10.659249 
L 299.617043 10.659249 
L 299.281908 10.659249 
L 298.946773 10.659249 
L 298.611638 10.659249 
L 298.276503 10.659249 
L 297.941368 10.659249 
L 297.606233 10.659249 
L 297.271097 10.659249 
L 296.935962 10.659249 
L 296.600827 10.659249 
L 296.265692 10.659249 
L 295.930557 10.659249 
L 295.595422 10.659249 
L 295.260287 10.659249 
L 294.925152 10.659249 
L 294.590016 10.659249 
L 294.254881 10.659249 
L 293.919746 10.659249 
L 293.584611 10.659249 
L 293.249476 10.659249 
L 292.914341 10.659249 
L 292.579206 10.659249 
L 292.24407 10.659249 
L 291.908935 10.659249 
L 291.5738 10.659249 
L 291.238665 10.659249 
L 290.90353 10.659249 
L 290.568395 10.659249 
L 290.23326 10.659249 
L 289.898124 10.659249 
L 289.562989 10.659249 
L 289.227854 10.659249 
L 288.892719 10.659249 
L 288.557584 10.659249 
L 288.222449 10.659249 
L 287.887314 10.659249 
L 287.552179 10.659249 
L 287.217043 10.659249 
L 286.881908 10.659249 
L 286.546773 10.659249 
L 286.211638 10.659249 
L 285.876503 10.659249 
L 285.541368 10.659249 
L 285.206233 10.659249 
L 284.871097 10.659249 
L 284.535962 10.659249 
L 284.200827 10.659249 
L 283.865692 10.659249 
L 283.530557 10.659249 
L 283.195422 10.659249 
L 282.860287 10.659249 
L 282.525152 10.659249 
L 282.190016 10.659249 
L 281.854881 10.659249 
L 281.519746 10.659249 
L 281.184611 10.659249 
L 280.849476 10.659249 
L 280.514341 10.659249 
L 280.179206 10.659249 
L 279.84407 10.659249 
L 279.508935 10.659249 
L 279.1738 10.659249 
L 278.838665 10.659249 
L 278.50353 10.659249 
L 278.168395 10.659249 
L 277.83326 10.659249 
L 277.498124 10.659249 
L 277.162989 10.659249 
L 276.827854 10.659249 
L 276.492719 10.659249 
L 276.157584 10.659249 
L 275.822449 10.659249 
L 275.487314 10.659249 
L 275.152179 10.659249 
L 274.817043 10.659249 
L 274.481908 10.659249 
L 274.146773 10.659249 
L 273.811638 10.659249 
L 273.476503 10.659249 
L 273.141368 10.659249 
L 272.806233 10.659249 
L 272.471097 10.659249 
L 272.135962 10.659249 
L 271.800827 10.659249 
L 271.465692 10.659249 
L 271.130557 10.659249 
L 270.795422 10.659249 
L 270.460287 10.659249 
L 270.125152 10.659249 
L 269.790016 10.659249 
L 269.454881 10.659249 
L 269.119746 10.659249 
L 268.784611 10.659249 
L 268.449476 10.659249 
L 268.114341 10.659249 
L 267.779206 10.659249 
L 267.44407 10.659249 
L 267.108935 10.659249 
L 266.7738 10.659249 
L 266.438665 10.659249 
L 266.10353 10.659249 
L 265.768395 10.659249 
L 265.43326 10.659249 
L 265.098124 10.659249 
L 264.762989 10.659249 
L 264.427854 10.659249 
L 264.092719 10.659249 
L 263.757584 10.659249 
L 263.422449 10.659249 
L 263.087314 10.659249 
L 262.752179 10.659249 
L 262.417043 10.659249 
L 262.081908 10.659249 
L 261.746773 10.659249 
L 261.411638 10.659249 
L 261.076503 10.659249 
L 260.741368 10.659249 
L 260.406233 10.659249 
L 260.071097 10.659249 
L 259.735962 10.659249 
L 259.400827 10.659249 
L 259.065692 10.659249 
L 258.730557 10.659249 
L 258.395422 10.659249 
L 258.060287 10.659249 
L 257.725152 10.659249 
L 257.390016 10.659249 
L 257.054881 10.659249 
L 256.719746 10.659249 
L 256.384611 10.659249 
L 256.049476 10.659249 
L 255.714341 10.659249 
L 255.379206 10.659249 
L 255.04407 10.659249 
L 254.708935 10.659249 
L 254.3738 10.659249 
L 254.038665 10.659249 
L 253.70353 10.659249 
L 253.368395 10.659249 
L 253.03326 10.659249 
L 252.698124 10.659249 
L 252.362989 10.659249 
L 252.027854 10.659249 
L 251.692719 10.659249 
L 251.357584 10.659249 
L 251.022449 10.659249 
L 250.687314 10.659249 
L 250.352179 10.659249 
L 250.017043 10.659249 
L 249.681908 10.659249 
L 249.346773 10.659249 
L 249.011638 10.659249 
L 248.676503 10.659249 
L 248.341368 10.659249 
L 248.006233 10.659249 
L 247.671097 10.659249 
L 247.335962 10.659249 
L 247.000827 10.659249 
L 246.665692 10.659249 
L 246.330557 10.659249 
L 245.995422 10.659249 
L 245.660287 10.659249 
L 245.325152 10.659249 
L 244.990016 10.659249 
L 244.654881 10.659249 
L 244.319746 10.659249 
L 243.984611 10.659249 
L 243.649476 10.659249 
L 243.314341 10.659249 
L 242.979206 10.659249 
L 242.64407 10.659249 
L 242.308935 10.659249 
L 241.9738 10.659249 
L 241.638665 10.659249 
L 241.30353 10.659249 
L 240.968395 10.659249 
L 240.63326 10.659249 
L 240.298124 10.659249 
L 239.962989 10.659249 
L 239.627854 10.659249 
L 239.292719 10.659249 
L 238.957584 10.659249 
L 238.622449 10.659249 
L 238.287314 10.659249 
L 237.952179 10.659249 
L 237.617043 10.659249 
L 237.281908 10.659249 
L 236.946773 10.659249 
L 236.611638 10.659249 
L 236.276503 10.659249 
L 235.941368 10.659249 
L 235.606233 10.659249 
L 235.271097 10.659249 
L 234.935962 10.659249 
L 234.600827 10.659249 
L 234.265692 10.659249 
L 233.930557 10.659249 
L 233.595422 10.659249 
L 233.260287 10.659249 
L 232.925152 10.659249 
L 232.590016 10.659249 
L 232.254881 10.659249 
L 231.919746 10.659249 
L 231.584611 10.659249 
L 231.249476 10.659249 
L 230.914341 10.659249 
L 230.579206 10.659249 
L 230.24407 10.659249 
L 229.908935 10.659249 
L 229.5738 10.659249 
L 229.238665 10.659249 
L 228.90353 10.659249 
L 228.568395 10.659249 
L 228.23326 10.659249 
L 227.898124 10.659249 
L 227.562989 10.659249 
L 227.227854 10.659249 
L 226.892719 10.659249 
L 226.557584 10.659249 
L 226.222449 10.659249 
L 225.887314 10.659249 
L 225.552179 10.659249 
L 225.217043 10.659249 
L 224.881908 10.659249 
L 224.546773 10.659249 
L 224.211638 10.659249 
L 223.876503 10.659249 
L 223.541368 10.659249 
L 223.206233 10.659249 
L 222.871097 10.659249 
L 222.535962 10.659249 
L 222.200827 10.659249 
L 221.865692 10.659249 
L 221.530557 10.659249 
L 221.195422 10.659249 
L 220.860287 10.659249 
L 220.525152 10.659249 
L 220.190016 10.659249 
L 219.854881 10.659249 
L 219.519746 10.659249 
L 219.184611 10.659249 
L 218.849476 10.659249 
L 218.514341 10.659249 
L 218.179206 10.659249 
L 217.84407 10.659249 
L 217.508935 10.659249 
L 217.1738 10.659249 
L 216.838665 10.659249 
L 216.50353 10.659249 
L 216.168395 10.659249 
L 215.83326 10.659249 
L 215.498124 10.659249 
L 215.162989 10.659249 
L 214.827854 10.659249 
L 214.492719 10.659249 
L 214.157584 10.659249 
L 213.822449 10.659249 
L 213.487314 10.659249 
L 213.152179 10.659249 
L 212.817043 10.659249 
L 212.481908 10.659249 
L 212.146773 10.659249 
L 211.811638 10.659249 
L 211.476503 10.659249 
L 211.141368 10.659249 
L 210.806233 10.659249 
L 210.471097 10.659249 
L 210.135962 10.659249 
L 209.800827 10.659249 
L 209.465692 10.659249 
L 209.130557 10.659249 
L 208.795422 10.659249 
L 208.460287 10.659249 
L 208.125152 10.659249 
L 207.790016 10.659249 
L 207.454881 10.659249 
L 207.119746 10.659249 
L 206.784611 10.659249 
L 206.449476 10.659249 
L 206.114341 10.659249 
L 205.779206 10.659249 
L 205.44407 10.659249 
L 205.108935 10.659249 
L 204.7738 10.659249 
L 204.438665 10.659249 
L 204.10353 10.659249 
L 203.768395 10.659249 
L 203.43326 10.659249 
L 203.098124 10.659249 
L 202.762989 10.659249 
L 202.427854 10.659249 
L 202.092719 10.659249 
L 201.757584 10.659249 
L 201.422449 10.659249 
L 201.087314 10.659249 
L 200.752179 10.659249 
L 200.417043 10.659249 
L 200.081908 10.659249 
L 199.746773 10.659249 
L 199.411638 10.659249 
L 199.076503 10.659249 
L 198.741368 10.659249 
L 198.406233 10.659249 
L 198.071097 10.659249 
L 197.735962 10.659249 
L 197.400827 10.659249 
L 197.065692 10.659249 
L 196.730557 10.659249 
L 196.395422 10.659249 
L 196.060287 10.659249 
L 195.725152 10.659249 
L 195.390016 10.659249 
L 195.054881 10.659249 
L 194.719746 10.659249 
L 194.384611 10.659249 
L 194.049476 10.659249 
L 193.714341 10.659249 
L 193.379206 10.659249 
L 193.04407 10.659249 
L 192.708935 10.659249 
L 192.3738 10.659249 
L 192.038665 10.659249 
L 191.70353 10.659249 
L 191.368395 10.659249 
L 191.03326 10.659249 
L 190.698124 10.659249 
L 190.362989 10.659249 
L 190.027854 10.659249 
L 189.692719 10.659249 
L 189.357584 10.659249 
L 189.022449 10.659249 
L 188.687314 10.659249 
L 188.352179 10.659249 
L 188.017043 10.659249 
L 187.681908 10.659249 
L 187.346773 10.659249 
L 187.011638 10.659249 
L 186.676503 10.659249 
L 186.341368 10.659249 
L 186.006233 10.659249 
L 185.671097 10.659249 
L 185.335962 10.659249 
L 185.000827 10.659249 
L 184.665692 10.659249 
L 184.330557 10.659249 
L 183.995422 10.659249 
L 183.660287 10.659249 
L 183.325152 10.659249 
L 182.990016 10.659249 
L 182.654881 10.659249 
L 182.319746 10.659249 
L 181.984611 10.659249 
L 181.649476 10.659249 
L 181.314341 10.659249 
L 180.979206 10.659249 
L 180.64407 10.659249 
L 180.308935 10.659249 
L 179.9738 10.659249 
L 179.638665 10.659249 
L 179.30353 10.659249 
L 178.968395 10.659249 
L 178.63326 10.659249 
L 178.298124 10.659249 
L 177.962989 10.659249 
L 177.627854 10.659249 
L 177.292719 10.659249 
L 176.957584 10.659249 
L 176.622449 10.659249 
L 176.287314 10.659249 
L 175.952179 10.659249 
L 175.617043 10.659249 
L 175.281908 10.659249 
L 174.946773 10.659249 
L 174.611638 10.659249 
L 174.276503 10.659249 
L 173.941368 10.659249 
L 173.606233 10.659249 
L 173.271097 10.659249 
L 172.935962 10.659249 
L 172.600827 10.659249 
L 172.265692 10.659249 
L 171.930557 10.659249 
L 171.595422 10.659249 
L 171.260287 10.659249 
L 170.925152 10.659249 
L 170.590016 10.659249 
L 170.254881 10.659249 
L 169.919746 10.659249 
L 169.584611 10.659249 
L 169.249476 10.659249 
L 168.914341 10.659249 
L 168.579206 10.659249 
L 168.24407 10.659249 
L 167.908935 10.659249 
L 167.5738 10.659249 
L 167.238665 10.659249 
L 166.90353 10.659249 
L 166.568395 10.659249 
L 166.23326 10.659249 
L 165.898124 10.659249 
L 165.562989 10.659249 
L 165.227854 10.659249 
L 164.892719 10.659249 
L 164.557584 10.659249 
L 164.222449 10.659249 
L 163.887314 10.659249 
L 163.552179 10.659249 
L 163.217043 10.659249 
L 162.881908 10.659249 
L 162.546773 10.659249 
L 162.211638 10.659249 
L 161.876503 10.659249 
L 161.541368 10.659249 
L 161.206233 10.659249 
L 160.871097 10.659249 
L 160.535962 10.659249 
L 160.200827 10.659249 
L 159.865692 10.659249 
L 159.530557 10.659249 
L 159.195422 10.659249 
L 158.860287 10.659249 
L 158.525152 10.659249 
L 158.190016 10.659249 
L 157.854881 10.659249 
L 157.519746 10.659249 
L 157.184611 10.659249 
L 156.849476 10.659249 
L 156.514341 10.659249 
L 156.179206 10.659249 
L 155.84407 10.659249 
L 155.508935 10.659249 
L 155.1738 10.659249 
L 154.838665 10.659249 
L 154.50353 10.659249 
L 154.168395 10.659249 
L 153.83326 10.659249 
L 153.498124 10.659249 
L 153.162989 10.659249 
L 152.827854 10.659249 
L 152.492719 10.659249 
L 152.157584 10.659249 
L 151.822449 10.659249 
L 151.487314 10.659249 
L 151.152179 10.659249 
L 150.817043 10.659249 
L 150.481908 10.659249 
L 150.146773 10.659249 
L 149.811638 10.659249 
L 149.476503 10.659249 
L 149.141368 10.659249 
L 148.806233 10.659249 
L 148.471097 10.659249 
L 148.135962 10.659249 
L 147.800827 10.659249 
L 147.465692 10.659249 
L 147.130557 10.659249 
L 146.795422 10.659249 
L 146.460287 10.659249 
L 146.125152 10.659249 
L 145.790016 10.659249 
L 145.454881 10.659249 
L 145.119746 10.659249 
L 144.784611 10.659249 
L 144.449476 10.659249 
L 144.114341 10.659249 
L 143.779206 10.659249 
L 143.44407 10.659249 
L 143.108935 10.659249 
L 142.7738 10.659249 
L 142.438665 10.659249 
L 142.10353 10.659249 
L 141.768395 10.659249 
L 141.43326 10.659249 
L 141.098124 10.659249 
L 140.762989 10.659249 
L 140.427854 10.659249 
L 140.092719 10.659249 
L 139.757584 10.659249 
L 139.422449 10.659249 
L 139.087314 10.659249 
L 138.752179 10.659249 
L 138.417043 10.659249 
L 138.081908 10.659249 
L 137.746773 10.659249 
L 137.411638 10.659249 
L 137.076503 10.659249 
L 136.741368 10.659249 
L 136.406233 10.659249 
L 136.071097 10.659249 
L 135.735962 10.659249 
L 135.400827 10.659249 
L 135.065692 10.659249 
L 134.730557 10.659249 
L 134.395422 10.659249 
L 134.060287 10.659249 
L 133.725152 10.659249 
L 133.390016 10.659249 
L 133.054881 10.659249 
L 132.719746 10.659249 
L 132.384611 10.659249 
L 132.049476 10.659249 
L 131.714341 10.659249 
L 131.379206 10.659249 
L 131.04407 10.659249 
L 130.708935 10.659249 
L 130.3738 10.659249 
L 130.038665 10.659249 
L 129.70353 10.659249 
L 129.368395 10.659249 
L 129.03326 10.659249 
L 128.698124 10.659249 
L 128.362989 10.659249 
L 128.027854 10.659249 
L 127.692719 10.659249 
L 127.357584 10.659249 
L 127.022449 10.659249 
L 126.687314 10.659249 
L 126.352179 10.659249 
L 126.017043 10.659249 
L 125.681908 10.659249 
L 125.346773 10.659249 
L 125.011638 10.659249 
L 124.676503 10.659249 
L 124.341368 10.659249 
L 124.006233 10.659249 
L 123.671097 10.659249 
L 123.335962 10.659249 
L 123.000827 10.659249 
L 122.665692 10.659249 
L 122.330557 10.659249 
L 121.995422 10.659249 
L 121.660287 10.659249 
L 121.325152 10.659249 
L 120.990016 10.659249 
L 120.654881 10.659249 
L 120.319746 10.659249 
L 119.984611 10.659249 
L 119.649476 10.659249 
L 119.314341 10.659249 
L 118.979206 10.659249 
L 118.64407 10.659249 
L 118.308935 10.659249 
L 117.9738 10.659249 
L 117.638665 10.659249 
L 117.30353 10.659249 
L 116.968395 10.659249 
L 116.63326 10.659249 
L 116.298124 10.659249 
L 115.962989 10.659249 
L 115.627854 10.659249 
L 115.292719 10.659249 
L 114.957584 10.659249 
L 114.622449 10.659249 
L 114.287314 10.659249 
L 113.952179 10.659249 
L 113.617043 10.659249 
L 113.281908 10.659249 
L 112.946773 10.659249 
L 112.611638 10.659249 
L 112.276503 10.659249 
L 111.941368 10.659249 
L 111.606233 10.659249 
L 111.271097 10.659249 
L 110.935962 10.659249 
L 110.600827 10.659249 
L 110.265692 10.659249 
L 109.930557 10.659249 
L 109.595422 10.659249 
L 109.260287 10.659249 
L 108.925152 10.659249 
L 108.590016 10.659249 
L 108.254881 10.659249 
L 107.919746 10.659249 
L 107.584611 10.659249 
L 107.249476 10.659249 
L 106.914341 10.659249 
L 106.579206 10.659249 
L 106.24407 10.659249 
L 105.908935 10.659249 
L 105.5738 10.659249 
L 105.238665 10.659249 
L 104.90353 10.659249 
L 104.568395 10.659249 
L 104.23326 10.659249 
L 103.898124 10.659249 
L 103.562989 10.659249 
L 103.227854 10.659249 
L 102.892719 10.659249 
L 102.557584 10.659249 
L 102.222449 10.659249 
L 101.887314 10.659249 
L 101.552179 10.659249 
L 101.217043 10.659249 
L 100.881908 10.659249 
L 100.546773 10.659249 
L 100.211638 10.659249 
L 99.876503 10.659249 
L 99.541368 10.659249 
L 99.206233 10.659249 
L 98.871097 10.659249 
L 98.535962 10.659249 
L 98.200827 10.659249 
L 97.865692 10.659249 
L 97.530557 10.659249 
L 97.195422 10.659249 
L 96.860287 10.659249 
L 96.525152 10.659249 
L 96.190016 10.659249 
L 95.854881 10.659249 
L 95.519746 10.659249 
L 95.184611 10.659249 
L 94.849476 10.659249 
L 94.514341 10.659249 
L 94.179206 10.659249 
L 93.84407 10.659249 
L 93.508935 10.659249 
L 93.1738 10.659249 
L 92.838665 10.659249 
L 92.50353 10.659249 
L 92.168395 10.659249 
L 91.83326 10.659249 
L 91.498124 10.659249 
L 91.162989 10.659249 
L 90.827854 10.659249 
L 90.492719 10.659249 
L 90.157584 10.659249 
L 89.822449 10.659249 
L 89.487314 10.659249 
L 89.152179 10.659249 
L 88.817043 10.659249 
L 88.481908 10.659249 
L 88.146773 10.659249 
L 87.811638 10.659249 
L 87.476503 10.659249 
L 87.141368 10.659249 
L 86.806233 10.659249 
L 86.471097 10.659249 
L 86.135962 10.659249 
L 85.800827 10.659249 
L 85.465692 10.659249 
L 85.130557 10.659249 
L 84.795422 10.659249 
L 84.460287 10.659249 
L 84.125152 10.659249 
L 83.790016 10.659249 
L 83.454881 10.659249 
L 83.119746 10.659249 
L 82.784611 10.659249 
L 82.449476 10.659249 
L 82.114341 10.659249 
L 81.779206 10.659249 
L 81.44407 10.659249 
L 81.108935 10.659249 
L 80.7738 10.659249 
L 80.438665 10.659249 
L 80.10353 10.659249 
L 79.768395 10.659249 
L 79.43326 10.659249 
L 79.098124 10.659249 
L 78.762989 10.659249 
L 78.427854 10.659249 
L 78.092719 10.659249 
L 77.757584 10.659249 
L 77.422449 10.659249 
L 77.087314 10.659249 
L 76.752179 10.659249 
L 76.417043 10.659249 
L 76.081908 10.659249 
L 75.746773 10.659249 
L 75.411638 10.659249 
L 75.076503 10.659249 
L 74.741368 10.659249 
L 74.406233 10.659249 
L 74.071097 10.659249 
L 73.735962 10.659249 
L 73.400827 10.659249 
L 73.065692 10.659249 
L 72.730557 10.659249 
L 72.395422 10.659249 
L 72.060287 10.659249 
L 71.725152 10.659249 
L 71.390016 10.659249 
L 71.054881 10.659249 
L 70.719746 10.659249 
L 70.384611 10.659249 
L 70.049476 10.659249 
L 69.714341 10.659249 
L 69.379206 10.659249 
L 69.04407 10.659249 
L 68.708935 10.659249 
L 68.3738 10.659249 
L 68.038665 10.659249 
L 67.70353 10.659249 
L 67.368395 10.659249 
L 67.03326 10.659249 
L 66.698124 10.659249 
L 66.362989 10.659249 
L 66.027854 10.659249 
L 65.692719 10.659249 
L 65.357584 10.659249 
L 65.022449 10.659249 
L 64.687314 10.659249 
L 64.352179 10.659249 
L 64.017043 10.659249 
L 63.681908 10.659249 
L 63.346773 10.659249 
L 63.011638 10.659249 
L 62.676503 10.659249 
L 62.341368 10.659249 
L 62.006233 10.659249 
L 61.671097 10.659249 
L 61.335962 10.659249 
L 61.000827 10.659249 
L 60.665692 10.659249 
L 60.330557 10.659249 
L 59.995422 10.659249 
L 59.660287 10.659249 
L 59.325152 10.659249 
L 58.990016 10.659249 
L 58.654881 10.659249 
L 58.319746 10.659249 
L 57.984611 10.659249 
L 57.649476 10.659249 
L 57.314341 10.659249 
L 56.979206 10.659249 
L 56.64407 10.659249 
L 56.308935 10.659249 
L 55.9738 10.659249 
L 55.638665 10.659249 
L 55.30353 10.659249 
L 54.968395 10.659249 
L 54.63326 10.659249 
L 54.298124 10.659249 
L 53.962989 10.659249 
L 53.627854 10.659249 
L 53.292719 10.659249 
L 52.957584 10.659249 
L 52.622449 10.659249 
L 52.287314 10.659249 
L 51.952179 10.659249 
L 51.617043 10.659249 
L 51.281908 10.659249 
L 50.946773 10.659249 
L 50.611638 10.659249 
L 50.276503 10.659249 
L 49.941368 10.659249 
L 49.606233 10.659249 
L 49.271097 10.659249 
L 48.935962 10.659249 
L 48.600827 10.659249 
L 48.265692 10.659249 
L 47.930557 10.659249 
L 47.595422 10.659249 
L 47.260287 10.659249 
L 46.925152 10.659249 
L 46.590016 10.659249 
L 46.254881 10.659249 
L 45.919746 10.659249 
L 45.584611 10.659249 
L 45.249476 10.659249 
L 44.914341 10.659249 
L 44.579206 10.659249 
L 44.24407 10.659249 
L 43.908935 10.659249 
L 43.5738 10.659249 
L 43.238665 10.659249 
L 42.90353 10.659249 
L 42.568395 10.659249 
L 42.23326 10.659249 
L 41.898124 10.659249 
L 41.562989 10.659249 
L 41.227854 10.659249 
L 40.892719 10.659249 
z
" clip-path="url(#p070a7d9687)" style="fill: #1f77b4; fill-opacity: 0.1"/>
   </g>
   <g id="matplotlib.axis_1">
    <g id="xtick_1">
     <g id="line2d_1">
      <defs>
       <path id="m0681af3655" d="M 0 0 
L 0 3.5 
" style="stroke: #000000; stroke-width: 0.8"/>
      </defs>
      <g>
       <use xlink:href="#m0681af3655" x="40.892719" y="176.979249" style="stroke: #000000; stroke-width: 0.8"/>
      </g>
     </g>
     <g id="text_1">
      <!-- $\mathdefault{−15}$ -->
      <g transform="translate(32.037012 190.897748)scale(0.1 -0.1)">
       <defs>
        <path id="CMSY10-0" d="M 4218 1472 
C 4326 1472 4442 1472 4442 1600 
C 4442 1728 4326 1728 4218 1728 
L 755 1728 
C 646 1728 531 1728 531 1600 
C 531 1472 646 1472 755 1472 
L 4218 1472 
z
" transform="scale(0.015625)"/>
        <path id="CMR17-31" d="M 1702 4083 
C 1702 4217 1696 4224 1606 4224 
C 1357 3927 979 3833 621 3820 
C 602 3820 570 3820 563 3808 
C 557 3795 557 3782 557 3648 
C 755 3648 1088 3686 1344 3839 
L 1344 467 
C 1344 243 1331 166 781 166 
L 589 166 
L 589 0 
C 896 6 1216 12 1523 12 
C 1830 12 2150 6 2458 0 
L 2458 166 
L 2266 166 
C 1715 166 1702 236 1702 467 
L 1702 4083 
z
" transform="scale(0.015625)"/>
        <path id="CMR17-35" d="M 730 3750 
C 794 3724 1056 3641 1325 3641 
C 1920 3641 2246 3961 2432 4140 
C 2432 4191 2432 4224 2394 4224 
C 2387 4224 2374 4224 2323 4198 
C 2099 4102 1837 4032 1517 4032 
C 1325 4032 1037 4055 723 4191 
C 653 4224 640 4224 634 4224 
C 602 4224 595 4217 595 4090 
L 595 2231 
C 595 2113 595 2080 659 2080 
C 691 2080 704 2093 736 2139 
C 941 2435 1222 2560 1542 2560 
C 1766 2560 2246 2415 2246 1293 
C 2246 1087 2246 716 2054 422 
C 1894 159 1645 25 1370 25 
C 947 25 518 319 403 812 
C 429 806 480 793 506 793 
C 589 793 749 838 749 1036 
C 749 1209 627 1280 506 1280 
C 358 1280 262 1190 262 1011 
C 262 454 704 -128 1382 -128 
C 2042 -128 2669 441 2669 1267 
C 2669 2054 2170 2662 1549 2662 
C 1222 2662 947 2540 730 2304 
L 730 3750 
z
" transform="scale(0.015625)"/>
       </defs>
       <use xlink:href="#CMSY10-0" transform="scale(0.996264)"/>
       <use xlink:href="#CMR17-31" transform="translate(77.487468 0)scale(0.996264)"/>
       <use xlink:href="#CMR17-35" transform="translate(123.177945 0)scale(0.996264)"/>
      </g>
     </g>
    </g>
    <g id="xtick_2">
     <g id="line2d_2">
      <g>
       <use xlink:href="#m0681af3655" x="107.852719" y="176.979249" style="stroke: #000000; stroke-width: 0.8"/>
      </g>
     </g>
     <g id="text_2">
      <!-- $\mathdefault{−10}$ -->
      <g transform="translate(98.997012 190.897748)scale(0.1 -0.1)">
       <defs>
        <path id="CMR17-30" d="M 2688 2038 
C 2688 2430 2682 3099 2413 3613 
C 2176 4063 1798 4224 1466 4224 
C 1158 4224 768 4082 525 3620 
C 269 3137 243 2539 243 2038 
C 243 1671 250 1112 448 623 
C 723 -39 1216 -128 1466 -128 
C 1760 -128 2208 -7 2470 604 
C 2662 1048 2688 1568 2688 2038 
z
M 1466 -26 
C 1056 -26 813 328 723 816 
C 653 1196 653 1749 653 2109 
C 653 2604 653 3015 736 3407 
C 858 3954 1216 4121 1466 4121 
C 1728 4121 2067 3947 2189 3420 
C 2272 3054 2278 2623 2278 2109 
C 2278 1691 2278 1176 2202 797 
C 2067 96 1690 -26 1466 -26 
z
" transform="scale(0.015625)"/>
       </defs>
       <use xlink:href="#CMSY10-0" transform="scale(0.996264)"/>
       <use xlink:href="#CMR17-31" transform="translate(77.487468 0)scale(0.996264)"/>
       <use xlink:href="#CMR17-30" transform="translate(123.177945 0)scale(0.996264)"/>
      </g>
     </g>
    </g>
    <g id="xtick_3">
     <g id="line2d_3">
      <g>
       <use xlink:href="#m0681af3655" x="174.812719" y="176.979249" style="stroke: #000000; stroke-width: 0.8"/>
      </g>
     </g>
     <g id="text_3">
      <!-- $\mathdefault{−5}$ -->
      <g transform="translate(168.44768 190.897748)scale(0.1 -0.1)">
       <use xlink:href="#CMSY10-0" transform="scale(0.996264)"/>
       <use xlink:href="#CMR17-35" transform="translate(77.487468 0)scale(0.996264)"/>
      </g>
     </g>
    </g>
    <g id="xtick_4">
     <g id="line2d_4">
      <g>
       <use xlink:href="#m0681af3655" x="241.772719" y="176.979249" style="stroke: #000000; stroke-width: 0.8"/>
      </g>
     </g>
     <g id="text_4">
      <!-- $\mathdefault{0}$ -->
      <g transform="translate(239.282051 190.897748)scale(0.1 -0.1)">
       <use xlink:href="#CMR17-30" transform="scale(0.996264)"/>
      </g>
     </g>
    </g>
    <g id="xtick_5">
     <g id="line2d_5">
      <g>
       <use xlink:href="#m0681af3655" x="308.732719" y="176.979249" style="stroke: #000000; stroke-width: 0.8"/>
      </g>
     </g>
     <g id="text_5">
      <!-- $\mathdefault{5}$ -->
      <g transform="translate(306.242051 190.897748)scale(0.1 -0.1)">
       <use xlink:href="#CMR17-35" transform="scale(0.996264)"/>
      </g>
     </g>
    </g>
    <g id="xtick_6">
     <g id="line2d_6">
      <g>
       <use xlink:href="#m0681af3655" x="375.692719" y="176.979249" style="stroke: #000000; stroke-width: 0.8"/>
      </g>
     </g>
     <g id="text_6">
      <!-- $\mathdefault{10}$ -->
      <g transform="translate(370.711384 190.897748)scale(0.1 -0.1)">
       <use xlink:href="#CMR17-31" transform="scale(0.996264)"/>
       <use xlink:href="#CMR17-30" transform="translate(45.690477 0)scale(0.996264)"/>
      </g>
     </g>
    </g>
    <g id="text_7">
     <!-- $x - x_\text{turn}$ -->
     <g transform="translate(188.997036 203.753424)scale(0.1 -0.1)">
      <defs>
       <path id="CMMI12-78" d="M 3034 2624 
C 2829 2585 2752 2431 2752 2310 
C 2752 2156 2874 2105 2963 2105 
C 3155 2105 3290 2271 3290 2444 
C 3290 2694 2982 2816 2714 2816 
C 2323 2816 2106 2451 2048 2329 
C 1901 2790 1504 2816 1389 2816 
C 736 2816 390 1993 390 1849 
C 390 1823 416 1790 461 1790 
C 512 1790 525 1829 538 1855 
C 755 2572 1184 2687 1370 2687 
C 1658 2687 1715 2438 1715 2284 
C 1715 2143 1677 1993 1600 1678 
L 1382 778 
C 1286 390 1101 64 762 64 
C 730 64 570 64 435 126 
C 666 166 717 358 717 435 
C 717 563 621 640 499 640 
C 346 640 179 505 179 300 
C 179 57 480 -64 755 -64 
C 1062 -64 1280 153 1414 415 
C 1517 64 1837 -64 2074 -64 
C 2726 -64 3072 751 3072 896 
C 3072 929 3046 955 3008 955 
C 2950 955 2944 922 2925 870 
C 2752 300 2381 64 2093 64 
C 1869 64 1747 204 1747 467 
C 1747 607 1773 712 1875 1146 
L 2099 2039 
C 2195 2425 2413 2687 2707 2687 
C 2720 2687 2899 2687 3034 2624 
z
" transform="scale(0.015625)"/>
       <path id="CMR17-74" d="M 966 2585 
L 1862 2585 
L 1862 2752 
L 966 2752 
L 966 3968 
L 851 3968 
C 838 3292 614 2700 70 2687 
L 70 2585 
L 627 2585 
L 627 778 
C 627 655 627 -64 1370 -64 
C 1747 -64 1965 308 1965 784 
L 1965 1151 
L 1850 1151 
L 1850 790 
C 1850 347 1677 51 1408 51 
C 1222 51 966 179 966 765 
L 966 2585 
z
" transform="scale(0.015625)"/>
       <path id="CMR17-75" d="M 1882 2745 
L 1882 2579 
C 2259 2579 2317 2540 2317 2229 
L 2317 1053 
C 2317 510 2029 38 1555 38 
C 1030 38 986 355 986 691 
L 986 2816 
L 211 2745 
L 211 2579 
C 467 2579 640 2579 646 2320 
L 646 1079 
C 646 646 646 368 813 187 
C 896 103 1056 -64 1517 -64 
C 2061 -64 2272 400 2323 536 
L 2330 536 
L 2330 -64 
L 3091 -13 
L 3091 154 
C 2714 154 2656 193 2656 503 
L 2656 2816 
L 1882 2745 
z
" transform="scale(0.015625)"/>
       <path id="CMR17-72" d="M 960 1517 
C 960 2134 1222 2713 1702 2713 
C 1747 2713 1792 2707 1837 2687 
C 1837 2687 1696 2642 1696 2475 
C 1696 2321 1818 2257 1914 2257 
C 1990 2257 2131 2302 2131 2482 
C 2131 2687 1926 2816 1709 2816 
C 1222 2816 1011 2340 947 2115 
L 941 2115 
L 941 2816 
L 198 2745 
L 198 2578 
C 576 2578 634 2540 634 2231 
L 634 443 
C 634 198 608 166 198 166 
L 198 0 
C 352 12 646 12 813 12 
C 998 12 1325 12 1498 0 
L 1498 166 
C 1037 166 960 166 960 455 
L 960 1517 
z
" transform="scale(0.015625)"/>
       <path id="CMR17-6e" d="M 2656 1954 
C 2656 2282 2592 2816 1837 2816 
C 1331 2816 1069 2424 973 2166 
L 966 2166 
L 966 2816 
L 211 2745 
L 211 2578 
C 589 2578 646 2540 646 2231 
L 646 443 
C 646 198 621 166 211 166 
L 211 0 
C 365 12 646 12 813 12 
C 979 12 1267 12 1421 0 
L 1421 166 
C 1011 166 986 192 986 443 
L 986 1678 
C 986 2269 1344 2713 1792 2713 
C 2266 2713 2317 2289 2317 1980 
L 2317 443 
C 2317 198 2291 166 1882 166 
L 1882 0 
C 2035 12 2317 12 2483 12 
C 2650 12 2938 12 3091 0 
L 3091 166 
C 2682 166 2656 192 2656 443 
L 2656 1954 
z
" transform="scale(0.015625)"/>
      </defs>
      <use xlink:href="#CMMI12-78" transform="scale(0.996264)"/>
      <use xlink:href="#CMSY10-0" transform="translate(77.573267 0)scale(0.996264)"/>
      <use xlink:href="#CMMI12-78" transform="translate(177.199941 0)scale(0.996264)"/>
      <use xlink:href="#CMR17-74" transform="translate(232.634001 -14.943915)scale(0.697382)"/>
      <use xlink:href="#CMR17-75" transform="translate(257.330421 -14.943915)scale(0.697382)"/>
      <use xlink:href="#CMR17-72" transform="translate(292.957029 -14.943915)scale(0.697382)"/>
      <use xlink:href="#CMR17-6e" transform="translate(317.65345 -14.943915)scale(0.697382)"/>
     </g>
    </g>
   </g>
   <g id="matplotlib.axis_2">
    <g id="ytick_1">
     <g id="line2d_7">
      <defs>
       <path id="m539998d3a5" d="M 0 0 
L -3.5 0 
" style="stroke: #000000; stroke-width: 0.8"/>
      </defs>
      <g>
       <use xlink:href="#m539998d3a5" x="40.892719" y="161.859249" style="stroke: #000000; stroke-width: 0.8"/>
      </g>
     </g>
     <g id="text_8">
      <!-- $\mathdefault{0.6}$ -->
      <g transform="translate(21.16264 165.318498)scale(0.1 -0.1)">
       <defs>
        <path id="CMMI12-3a" d="M 1178 307 
C 1178 492 1024 620 870 620 
C 685 620 557 467 557 313 
C 557 128 710 0 864 0 
C 1050 0 1178 153 1178 307 
z
" transform="scale(0.015625)"/>
        <path id="CMR17-36" d="M 678 2198 
C 678 3712 1395 4076 1811 4076 
C 1946 4076 2272 4049 2400 3782 
C 2298 3782 2106 3782 2106 3558 
C 2106 3385 2246 3328 2336 3328 
C 2394 3328 2566 3353 2566 3571 
C 2566 3987 2246 4224 1805 4224 
C 1043 4224 243 3411 243 2011 
C 243 257 966 -128 1478 -128 
C 2099 -128 2688 431 2688 1295 
C 2688 2101 2170 2688 1517 2688 
C 1126 2688 838 2430 678 1979 
L 678 2198 
z
M 1478 25 
C 691 25 691 1212 691 1450 
C 691 1914 909 2585 1504 2585 
C 1613 2585 1926 2585 2138 2140 
C 2253 1889 2253 1624 2253 1302 
C 2253 954 2253 696 2118 438 
C 1978 173 1773 25 1478 25 
z
" transform="scale(0.015625)"/>
       </defs>
       <use xlink:href="#CMR17-30" transform="scale(0.996264)"/>
       <use xlink:href="#CMMI12-3a" transform="translate(45.690477 0)scale(0.996264)"/>
       <use xlink:href="#CMR17-36" transform="translate(72.787654 0)scale(0.996264)"/>
      </g>
     </g>
    </g>
    <g id="ytick_2">
     <g id="line2d_8">
      <g>
       <use xlink:href="#m539998d3a5" x="40.892719" y="131.619249" style="stroke: #000000; stroke-width: 0.8"/>
      </g>
     </g>
     <g id="text_9">
      <!-- $\mathdefault{0.8}$ -->
      <g transform="translate(21.16264 135.078498)scale(0.1 -0.1)">
       <defs>
        <path id="CMR17-38" d="M 1741 2289 
C 2144 2494 2554 2803 2554 3298 
C 2554 3884 1990 4224 1472 4224 
C 890 4224 378 3800 378 3215 
C 378 3054 416 2777 666 2533 
C 730 2469 998 2276 1171 2154 
C 883 2006 211 1652 211 945 
C 211 282 838 -128 1459 -128 
C 2144 -128 2720 366 2720 1022 
C 2720 1607 2330 1877 2074 2051 
L 1741 2289 
z
M 902 2855 
C 851 2887 595 3086 595 3388 
C 595 3781 998 4076 1459 4076 
C 1965 4076 2336 3716 2336 3298 
C 2336 2700 1670 2359 1638 2359 
C 1632 2359 1626 2359 1574 2398 
L 902 2855 
z
M 2080 1536 
C 2176 1466 2483 1253 2483 861 
C 2483 385 2010 25 1472 25 
C 890 25 448 443 448 951 
C 448 1459 838 1884 1280 2083 
L 2080 1536 
z
" transform="scale(0.015625)"/>
       </defs>
       <use xlink:href="#CMR17-30" transform="scale(0.996264)"/>
       <use xlink:href="#CMMI12-3a" transform="translate(45.690477 0)scale(0.996264)"/>
       <use xlink:href="#CMR17-38" transform="translate(72.787654 0)scale(0.996264)"/>
      </g>
     </g>
    </g>
    <g id="ytick_3">
     <g id="line2d_9">
      <g>
       <use xlink:href="#m539998d3a5" x="40.892719" y="101.379249" style="stroke: #000000; stroke-width: 0.8"/>
      </g>
     </g>
     <g id="text_10">
      <!-- $\mathdefault{1.0}$ -->
      <g transform="translate(21.16264 104.838498)scale(0.1 -0.1)">
       <use xlink:href="#CMR17-31" transform="scale(0.996264)"/>
       <use xlink:href="#CMMI12-3a" transform="translate(45.690477 0)scale(0.996264)"/>
       <use xlink:href="#CMR17-30" transform="translate(72.787654 0)scale(0.996264)"/>
      </g>
     </g>
    </g>
    <g id="ytick_4">
     <g id="line2d_10">
      <g>
       <use xlink:href="#m539998d3a5" x="40.892719" y="71.139249" style="stroke: #000000; stroke-width: 0.8"/>
      </g>
     </g>
     <g id="text_11">
      <!-- $\mathdefault{1.2}$ -->
      <g transform="translate(21.16264 74.598498)scale(0.1 -0.1)">
       <defs>
        <path id="CMR17-32" d="M 2669 990 
L 2554 990 
C 2490 537 2438 460 2413 422 
C 2381 371 1920 371 1830 371 
L 602 371 
C 832 620 1280 1073 1824 1596 
C 2214 1966 2669 2400 2669 3033 
C 2669 3788 2067 4224 1395 4224 
C 691 4224 262 3603 262 3027 
C 262 2777 448 2745 525 2745 
C 589 2745 781 2783 781 3007 
C 781 3206 614 3264 525 3264 
C 486 3264 448 3257 422 3244 
C 544 3788 915 4057 1306 4057 
C 1862 4057 2227 3616 2227 3033 
C 2227 2477 1901 1998 1536 1583 
L 262 147 
L 262 0 
L 2515 0 
L 2669 990 
z
" transform="scale(0.015625)"/>
       </defs>
       <use xlink:href="#CMR17-31" transform="scale(0.996264)"/>
       <use xlink:href="#CMMI12-3a" transform="translate(45.690477 0)scale(0.996264)"/>
       <use xlink:href="#CMR17-32" transform="translate(72.787654 0)scale(0.996264)"/>
      </g>
     </g>
    </g>
    <g id="ytick_5">
     <g id="line2d_11">
      <g>
       <use xlink:href="#m539998d3a5" x="40.892719" y="40.899249" style="stroke: #000000; stroke-width: 0.8"/>
      </g>
     </g>
     <g id="text_12">
      <!-- $\mathdefault{1.4}$ -->
      <g transform="translate(21.16264 44.358498)scale(0.1 -0.1)">
       <defs>
        <path id="CMR17-34" d="M 2150 4147 
C 2150 4281 2144 4288 2029 4288 
L 128 1254 
L 128 1088 
L 1779 1088 
L 1779 460 
C 1779 230 1766 166 1318 166 
L 1197 166 
L 1197 0 
C 1402 12 1747 12 1965 12 
C 2182 12 2528 12 2733 0 
L 2733 166 
L 2611 166 
C 2163 166 2150 230 2150 460 
L 2150 1088 
L 2803 1088 
L 2803 1254 
L 2150 1254 
L 2150 4147 
z
M 1798 3723 
L 1798 1254 
L 256 1254 
L 1798 3723 
z
" transform="scale(0.015625)"/>
       </defs>
       <use xlink:href="#CMR17-31" transform="scale(0.996264)"/>
       <use xlink:href="#CMMI12-3a" transform="translate(45.690477 0)scale(0.996264)"/>
       <use xlink:href="#CMR17-34" transform="translate(72.787654 0)scale(0.996264)"/>
      </g>
     </g>
    </g>
    <g id="ytick_6">
     <g id="line2d_12">
      <g>
       <use xlink:href="#m539998d3a5" x="40.892719" y="10.659249" style="stroke: #000000; stroke-width: 0.8"/>
      </g>
     </g>
     <g id="text_13">
      <!-- $\mathdefault{1.6}$ -->
      <g transform="translate(21.16264 14.118498)scale(0.1 -0.1)">
       <use xlink:href="#CMR17-31" transform="scale(0.996264)"/>
       <use xlink:href="#CMMI12-3a" transform="translate(45.690477 0)scale(0.996264)"/>
       <use xlink:href="#CMR17-36" transform="translate(72.787654 0)scale(0.996264)"/>
      </g>
     </g>
    </g>
    <g id="text_14">
     <!-- $\omega / \omega_0$ -->
     <g transform="translate(14.67198 104.675534)rotate(-90)scale(0.1 -0.1)">
      <defs>
       <path id="CMMI12-21" d="M 3802 2406 
C 3802 2592 3750 2828 3526 2828 
C 3398 2828 3251 2668 3251 2540 
C 3251 2483 3277 2444 3328 2387 
C 3424 2278 3546 2105 3546 1804 
C 3546 1574 3405 1209 3302 1011 
C 3123 659 2829 358 2496 358 
C 2093 358 1939 614 1869 972 
C 1939 1139 2086 1555 2086 1721 
C 2086 1792 2061 1849 1978 1849 
C 1933 1849 1882 1824 1850 1772 
C 1760 1632 1677 1126 1683 992 
C 1562 755 1216 358 806 358 
C 378 358 262 736 262 1100 
C 262 1766 678 2348 794 2508 
C 858 2604 902 2668 902 2681 
C 902 2726 877 2796 819 2796 
C 717 2796 685 2713 634 2636 
C 307 2131 77 1420 77 806 
C 77 409 224 -64 704 -64 
C 1235 -64 1568 390 1702 633 
C 1754 275 1946 -64 2413 -64 
C 2899 -64 3206 364 3437 883 
C 3603 1254 3802 2054 3802 2406 
z
" transform="scale(0.015625)"/>
       <path id="CMMI12-3d" d="M 2746 4563 
C 2746 4569 2784 4665 2784 4678 
C 2784 4755 2720 4800 2669 4800 
C 2637 4800 2579 4800 2528 4659 
L 384 -1364 
C 384 -1370 346 -1466 346 -1479 
C 346 -1556 410 -1600 461 -1600 
C 499 -1600 557 -1594 602 -1460 
L 2746 4563 
z
" transform="scale(0.015625)"/>
      </defs>
      <use xlink:href="#CMMI12-21" transform="scale(0.996264)"/>
      <use xlink:href="#CMMI12-3d" transform="translate(64.318346 0)scale(0.996264)"/>
      <use xlink:href="#CMMI12-21" transform="translate(113.093265 0)scale(0.996264)"/>
      <use xlink:href="#CMR17-30" transform="translate(173.837018 -14.943915)scale(0.697382)"/>
     </g>
    </g>
   </g>
   <g id="line2d_13">
    <path d="M 40.892719 101.379249 
L 375.692719 101.379249 
" clip-path="url(#p070a7d9687)" style="fill: none; stroke-dasharray: 1,1.65; stroke-dashoffset: 0; stroke: #808080"/>
   </g>
   <g id="line2d_14">
    <path d="M 241.772719 176.979249 
L 241.772719 10.659249 
" clip-path="url(#p070a7d9687)" style="fill: none; stroke-dasharray: 1,1.65; stroke-dashoffset: 0; stroke: #808080"/>
   </g>
   <g id="line2d_15">
    <path d="M 42.466893 213.890603 
L 375.692719 25.779249 
L 375.692719 25.779249 
" clip-path="url(#p070a7d9687)" style="fill: none; stroke: #000000; stroke-width: 1.5; stroke-linecap: square"/>
   </g>
   <g id="line2d_16">
    <path d="M 40.892719 59.312765 
L 41.227854 58.481088 
L 41.562989 58.051399 
L 41.898124 58.027048 
L 42.23326 58.407584 
L 42.568395 59.188782 
L 43.238665 61.917769 
L 43.908935 66.107753 
L 44.579206 71.599247 
L 45.584611 81.814678 
L 47.260287 101.929745 
L 49.271097 125.511797 
L 50.276503 134.841798 
L 50.946773 139.610766 
L 51.617043 143.01922 
L 52.287314 144.951018 
L 52.622449 145.341319 
L 52.957584 145.343052 
L 53.292719 144.956886 
L 53.627854 144.186912 
L 54.298124 141.528617 
L 54.968395 137.46642 
L 55.638665 132.146826 
L 56.64407 122.233537 
L 58.319746 102.562199 
L 60.330557 78.995909 
L 61.335962 69.330415 
L 62.341368 62.082751 
L 63.011638 58.865296 
L 63.681908 57.065402 
L 64.017043 56.715995 
L 64.352179 56.737589 
L 64.687314 57.129309 
L 65.022449 57.887214 
L 65.692719 60.470836 
L 66.362989 64.3982 
L 67.03326 69.535724 
L 68.038665 79.12564 
L 69.379206 94.289524 
L 72.060287 125.297282 
L 73.065692 134.617934 
L 74.071097 141.593034 
L 74.741368 144.697001 
L 75.411638 146.451135 
L 75.746773 146.804976 
L 76.081908 146.806366 
L 76.417043 146.456003 
L 76.752179 145.757304 
L 77.422449 143.341886 
L 78.092719 139.639685 
L 78.762989 134.768969 
L 79.768395 125.614608 
L 81.108935 110.977308 
L 84.125152 76.701648 
L 85.130557 67.569059 
L 86.135962 60.652644 
L 86.806233 57.495615 
L 87.476503 55.607513 
L 87.811638 55.156086 
L 88.146773 55.037252 
L 88.481908 55.251141 
L 88.817043 55.795496 
L 89.152179 56.665705 
L 89.822449 59.353763 
L 90.492719 63.233541 
L 91.498124 71.028538 
L 92.50353 80.733615 
L 94.179206 99.43789 
L 96.525152 125.457639 
L 97.530557 134.649367 
L 98.535962 141.832145 
L 99.206233 145.292616 
L 99.876503 147.584691 
L 100.211638 148.274039 
L 100.546773 148.653124 
L 100.881908 148.720177 
L 101.217043 148.475495 
L 101.552179 147.921427 
L 102.222449 145.904576 
L 102.892719 142.727942 
L 103.562989 138.479404 
L 104.568395 130.3543 
L 105.908935 117.026369 
L 110.265692 70.541069 
L 111.271097 62.698002 
L 111.941368 58.623059 
L 112.611638 55.584288 
L 113.281908 53.649641 
L 113.617043 53.11017 
L 113.952179 52.859829 
L 114.287314 52.899357 
L 114.622449 53.227761 
L 114.957584 53.84233 
L 115.627854 55.910735 
L 116.298124 59.049949 
L 116.968395 63.18078 
L 117.9738 71.008808 
L 119.314341 83.813765 
L 124.341368 135.432781 
L 125.346773 142.612711 
L 126.017043 146.298305 
L 126.687314 149.013114 
L 127.357584 150.704393 
L 127.692719 151.155878 
L 128.027854 151.341938 
L 128.362989 151.26236 
L 128.698124 150.918349 
L 129.03326 150.312504 
L 129.70353 148.332514 
L 130.3738 145.369918 
L 131.04407 141.492187 
L 132.049476 134.151546 
L 133.390016 122.088675 
L 135.400827 101.208705 
L 137.746773 77.13345 
L 139.087314 65.60103 
L 140.092719 58.7043 
L 141.098124 53.62687 
L 141.768395 51.353321 
L 142.438665 50.014065 
L 142.7738 49.701314 
L 143.108935 49.627714 
L 143.44407 49.792794 
L 143.779206 50.194987 
L 144.449476 51.699054 
L 145.119746 54.106197 
L 145.790016 57.366771 
L 146.795422 63.713398 
L 147.800827 71.561133 
L 149.141368 83.791992 
L 154.50353 135.650931 
L 155.508935 142.922773 
L 156.514341 148.691368 
L 157.184611 151.605994 
L 157.854881 153.727012 
L 158.525152 155.027434 
L 158.860287 155.365125 
L 159.195422 155.493567 
L 159.530557 155.41311 
L 159.865692 155.124911 
L 160.200827 154.630917 
L 160.871097 153.037206 
L 161.541368 150.662706 
L 162.211638 147.549453 
L 163.217043 141.611671 
L 164.222449 134.346936 
L 165.562989 123.038581 
L 167.908935 100.719373 
L 170.590016 75.53914 
L 171.930557 64.683941 
L 173.271097 55.736318 
L 174.276503 50.535361 
L 174.946773 47.862291 
L 175.617043 45.857435 
L 176.287314 44.538896 
L 176.622449 44.140215 
L 176.957584 43.915876 
L 177.292719 43.865661 
L 177.627854 43.988822 
L 177.962989 44.28409 
L 178.63326 45.383333 
L 179.30353 47.14329 
L 179.9738 49.536421 
L 180.979206 54.236321 
L 181.984611 60.140228 
L 183.325152 69.591493 
L 185.000827 83.298468 
L 191.368395 138.093529 
L 192.708935 147.114798 
L 194.049476 154.463615 
L 195.054881 158.744542 
L 196.060287 161.899658 
L 196.730557 163.35858 
L 197.400827 164.295702 
L 198.071097 164.711 
L 198.406233 164.724194 
L 198.741368 164.608949 
L 199.411638 163.998288 
L 200.081908 162.891759 
L 200.752179 161.305817 
L 201.757584 158.07228 
L 202.762989 153.885047 
L 204.10353 146.979964 
L 205.44407 138.7914 
L 207.119746 127.159301 
L 209.800827 106.599069 
L 214.157584 72.923013 
L 216.168395 59.044071 
L 217.84407 48.845338 
L 219.519746 40.109696 
L 220.860287 34.260972 
L 222.200827 29.460182 
L 223.206233 26.550178 
L 224.211638 24.224326 
L 225.217043 22.468224 
L 226.222449 21.261531 
L 226.892719 20.749926 
L 227.562989 20.462679 
L 228.23326 20.390455 
L 228.90353 20.523299 
L 229.5738 20.850747 
L 230.579206 21.682919 
L 231.584611 22.890464 
L 232.590016 24.434535 
L 233.930557 26.949174 
L 235.606233 30.696457 
L 237.617043 35.852764 
L 240.63326 44.375013 
L 246.665692 61.618141 
L 249.346773 68.538378 
L 251.692719 73.992283 
L 253.70353 78.17516 
L 255.714341 81.893427 
L 257.725152 85.15543 
L 259.735962 87.982477 
L 261.746773 90.404854 
L 263.757584 92.458436 
L 265.768395 94.181896 
L 267.779206 95.61452 
L 269.790016 96.794571 
L 272.135962 97.900054 
L 274.481908 98.762946 
L 277.162989 99.510713 
L 280.179206 100.116804 
L 283.865692 100.611937 
L 288.222449 100.963983 
L 294.254881 101.209374 
L 303.638665 101.34081 
L 327.768395 101.378731 
L 375.692719 101.379249 
L 375.692719 101.379249 
" clip-path="url(#p070a7d9687)" style="fill: none; stroke: #1f77b4; stroke-width: 1.5; stroke-linecap: square"/>
   </g>
   <g id="patch_3">
    <path d="M 40.892719 176.979249 
L 40.892719 10.659249 
" style="fill: none; stroke: #000000; stroke-width: 0.8; stroke-linejoin: miter; stroke-linecap: square"/>
   </g>
   <g id="patch_4">
    <path d="M 375.692719 176.979249 
L 375.692719 10.659249 
" style="fill: none; stroke: #000000; stroke-width: 0.8; stroke-linejoin: miter; stroke-linecap: square"/>
   </g>
   <g id="patch_5">
    <path d="M 40.892719 176.979249 
L 375.692719 176.979249 
" style="fill: none; stroke: #000000; stroke-width: 0.8; stroke-linejoin: miter; stroke-linecap: square"/>
   </g>
   <g id="patch_6">
    <path d="M 40.892719 10.659249 
L 375.692719 10.659249 
" style="fill: none; stroke: #000000; stroke-width: 0.8; stroke-linejoin: miter; stroke-linecap: square"/>
   </g>
   <g id="text_15">
    <!-- $k^2 &gt; 0$ -->
    <g transform="translate(54.284719 25.779249)scale(0.1 -0.1)">
     <defs>
      <path id="CMMI12-6b" d="M 1798 4255 
C 1805 4281 1818 4319 1818 4351 
C 1818 4416 1754 4416 1741 4416 
C 1734 4416 1504 4396 1389 4383 
C 1280 4377 1184 4364 1069 4358 
C 915 4345 870 4339 870 4223 
C 870 4159 934 4159 998 4159 
C 1325 4159 1325 4103 1325 4040 
C 1325 4014 1325 4002 1293 3888 
L 378 250 
C 352 153 352 141 352 102 
C 352 -39 461 -64 525 -64 
C 704 -64 742 76 794 275 
L 1094 1476 
C 1555 1425 1830 1232 1830 924 
C 1830 885 1830 860 1811 763 
C 1786 667 1786 590 1786 558 
C 1786 185 2029 -64 2355 -64 
C 2650 -64 2803 205 2854 295 
C 2989 532 3072 892 3072 917 
C 3072 949 3046 975 3008 975 
C 2950 975 2944 949 2918 847 
C 2829 513 2694 64 2368 64 
C 2240 64 2157 128 2157 372 
C 2157 494 2182 635 2208 731 
C 2234 847 2234 853 2234 930 
C 2234 1309 1894 1521 1306 1598 
C 1536 1739 1766 1989 1856 2086 
C 2221 2495 2470 2687 2765 2687 
C 2912 2687 2950 2655 2995 2624 
C 2758 2598 2669 2431 2669 2303 
C 2669 2150 2790 2099 2880 2099 
C 3053 2099 3206 2246 3206 2451 
C 3206 2634 3059 2816 2771 2816 
C 2419 2816 2131 2579 1677 2067 
C 1613 1989 1376 1746 1139 1656 
L 1798 4255 
z
" transform="scale(0.015625)"/>
      <path id="CMMI12-3e" d="M 4218 1460 
C 4339 1519 4346 1557 4346 1603 
C 4346 1641 4333 1687 4218 1738 
L 755 3347 
C 672 3385 659 3392 646 3392 
C 570 3392 525 3327 525 3276 
C 525 3199 576 3173 659 3134 
L 3949 1603 
L 653 65 
C 525 7 525 -39 525 -77 
C 525 -128 570 -192 646 -192 
C 659 -192 666 -186 755 -148 
L 4218 1460 
z
" transform="scale(0.015625)"/>
     </defs>
     <use xlink:href="#CMMI12-6b" transform="scale(0.996264)"/>
     <use xlink:href="#CMR17-32" transform="translate(54.079201 36.153639)scale(0.697382)"/>
     <use xlink:href="#CMMI12-3e" transform="translate(114.234523 0)scale(0.996264)"/>
     <use xlink:href="#CMR17-30" transform="translate(217.780628 0)scale(0.996264)"/>
    </g>
   </g>
   <g id="text_16">
    <!-- $k^2 &lt; 0$ -->
    <g transform="translate(335.516719 161.859249)scale(0.1 -0.1)">
     <defs>
      <path id="CMMI12-3c" d="M 4218 3134 
C 4333 3186 4346 3231 4346 3270 
C 4346 3340 4294 3392 4224 3392 
C 4211 3392 4205 3385 4115 3347 
L 653 1738 
C 538 1687 525 1641 525 1603 
C 525 1557 531 1519 653 1460 
L 4115 -148 
C 4198 -186 4211 -192 4224 -192 
C 4294 -192 4346 -141 4346 -71 
C 4346 -32 4333 13 4218 65 
L 922 1596 
L 4218 3134 
z
" transform="scale(0.015625)"/>
     </defs>
     <use xlink:href="#CMMI12-6b" transform="scale(0.996264)"/>
     <use xlink:href="#CMR17-32" transform="translate(54.079201 36.153639)scale(0.697382)"/>
     <use xlink:href="#CMMI12-3c" transform="translate(114.234523 0)scale(0.996264)"/>
     <use xlink:href="#CMR17-30" transform="translate(217.780628 0)scale(0.996264)"/>
    </g>
   </g>
   <g id="legend_1">
    <g id="patch_7">
     <path d="M 322.977914 32.596428 
L 368.692719 32.596428 
Q 370.692719 32.596428 370.692719 30.596428 
L 370.692719 17.659249 
Q 370.692719 15.659249 368.692719 15.659249 
L 322.977914 15.659249 
Q 320.977914 15.659249 320.977914 17.659249 
L 320.977914 30.596428 
Q 320.977914 32.596428 322.977914 32.596428 
z
" style="fill: #ffffff; opacity: 0.8; stroke: #cccccc; stroke-linejoin: miter"/>
    </g>
    <g id="line2d_17">
     <path d="M 324.977914 23.159249 
L 334.977914 23.159249 
L 344.977914 23.159249 
" style="fill: none; stroke: #000000; stroke-width: 1.5; stroke-linecap: square"/>
    </g>
    <g id="text_17">
     <!-- $\omega_\text{ac}$ -->
     <g transform="translate(352.977914 26.659249)scale(0.1 -0.1)">
      <defs>
       <path id="CMR17-61" d="M 2304 1656 
C 2304 2048 2304 2275 2035 2534 
C 1798 2751 1523 2816 1306 2816 
C 800 2816 435 2408 435 1977 
C 435 1740 627 1728 666 1728 
C 749 1728 896 1779 896 1958 
C 896 2118 774 2188 666 2188 
C 640 2188 608 2182 589 2176 
C 723 2594 1069 2713 1293 2713 
C 1613 2713 1965 2421 1965 1875 
L 1965 1632 
C 1587 1619 1133 1568 774 1373 
C 371 1147 256 822 256 576 
C 256 77 832 -64 1171 -64 
C 1523 -64 1850 135 1990 505 
C 2003 219 2182 -39 2464 -39 
C 2598 -39 2938 51 2938 563 
L 2938 926 
L 2822 926 
L 2822 557 
C 2822 161 2650 109 2566 109 
C 2304 109 2304 446 2304 732 
L 2304 1656 
z
M 1965 887 
C 1965 323 1568 38 1216 38 
C 896 38 646 278 646 576 
C 646 771 730 1114 1101 1322 
C 1408 1497 1760 1523 1965 1536 
L 1965 887 
z
" transform="scale(0.015625)"/>
       <path id="CMR17-63" d="M 2234 2240 
C 2112 2240 1933 2240 1933 2015 
C 1933 1836 2080 1785 2163 1785 
C 2208 1785 2394 1804 2394 2028 
C 2394 2476 1958 2816 1466 2816 
C 787 2816 211 2201 211 1379 
C 211 521 813 -64 1466 -64 
C 2259 -64 2458 676 2458 747 
C 2458 773 2451 792 2406 792 
C 2362 792 2355 786 2330 702 
C 2163 180 1798 51 1523 51 
C 1114 51 621 431 621 1385 
C 621 2358 1094 2700 1472 2700 
C 1722 2700 2093 2582 2234 2240 
z
" transform="scale(0.015625)"/>
      </defs>
      <use xlink:href="#CMMI12-21" transform="scale(0.996264)"/>
      <use xlink:href="#CMR17-61" transform="translate(60.743753 -14.943915)scale(0.697382)"/>
      <use xlink:href="#CMR17-63" transform="translate(92.726935 -14.943915)scale(0.697382)"/>
     </g>
    </g>
   </g>
  </g>
 </g>
 <defs>
  <clipPath id="p070a7d9687">
   <rect x="40.892719" y="10.659249" width="334.8" height="166.32"/>
  </clipPath>
 </defs>
</svg>
