<?xml version="1.0" encoding="UTF-8" standalone="no"?>
<!-- Created with matplotlib (https://matplotlib.org/) -->

<svg
   height="213.997566pt"
   version="1.1"
   viewBox="0 0 401.669588 213.997566"
   width="401.669588pt"
   id="svg117"
   sodipodi:docname="axes.svg"
   inkscape:version="1.4.2 (ebf0e940d0, 2025-05-08)"
   xmlns:inkscape="http://www.inkscape.org/namespaces/inkscape"
   xmlns:sodipodi="http://sodipodi.sourceforge.net/DTD/sodipodi-0.dtd"
   xmlns:xlink="http://www.w3.org/1999/xlink"
   xmlns="http://www.w3.org/2000/svg"
   xmlns:svg="http://www.w3.org/2000/svg"
   xmlns:rdf="http://www.w3.org/1999/02/22-rdf-syntax-ns#"
   xmlns:cc="http://creativecommons.org/ns#"
   xmlns:dc="http://purl.org/dc/elements/1.1/">
  <sodipodi:namedview
     id="namedview117"
     pagecolor="#ffffff"
     bordercolor="#999999"
     borderopacity="1"
     inkscape:showpageshadow="0"
     inkscape:pageopacity="0"
     inkscape:pagecheckerboard="0"
     inkscape:deskcolor="#d1d1d1"
     inkscape:document-units="pt"
     inkscape:zoom="3.1472322"
     inkscape:cx="397.65099"
     inkscape:cy="139.64651"
     inkscape:window-width="3840"
     inkscape:window-height="2133"
     inkscape:window-x="0"
     inkscape:window-y="27"
     inkscape:window-maximized="1"
     inkscape:current-layer="axes_1" />
  <metadata
     id="metadata1">
    <rdf:RDF>
      <cc:Work>
        <dc:type
           rdf:resource="http://purl.org/dc/dcmitype/StillImage" />
        <dc:date>2021-08-28T11:14:05.448004</dc:date>
        <dc:format>image/svg+xml</dc:format>
        <dc:creator>
          <cc:Agent>
            <dc:title>Matplotlib v3.3.3, https://matplotlib.org/</dc:title>
          </cc:Agent>
        </dc:creator>
      </cc:Work>
    </rdf:RDF>
  </metadata>
  <defs
     id="defs1">
    <style
       type="text/css"
       id="style1">*{stroke-linecap:butt;stroke-linejoin:round;}</style>
  </defs>
  <g
     id="figure_1">
    <g
       id="patch_1">
      <path
         d="M 0 213.997566  L 401.669588 213.997566  L 401.669588 0  L 0 0  z "
         style="fill:none;"
         id="path1" />
    </g>
    <g
       id="axes_1">
      <g
         id="patch_2">
        <path
           d="M 48.323213 176.979249  L 383.123213 176.979249  L 383.123213 10.659249  L 48.323213 10.659249  z "
           style="fill:none;"
           id="path2" />
      </g>
      <g
         id="PolyCollection_2" />
      <g
         id="matplotlib.axis_1">
        <g
           id="xtick_1">
          <g
             id="line2d_2">
            <defs
               id="defs5">
              <path
                 d="M 0 0  L 0 3.5  "
                 id="m9e93fa82c5"
                 style="stroke:#000000;stroke-width:0.8;" />
            </defs>
            <g
               id="g5">
              <use
                 style="stroke:#000000;stroke-width:0.8;"
                 x="48.323213"
                 xlink:href="#m9e93fa82c5"
                 y="176.979249"
                 id="use5" />
            </g>
          </g>
          <g
             id="text_1">
            <!-- $\mathdefault{0.005}$ -->
            <g
               transform="translate(36.976839 190.897748)scale(0.1 -0.1)"
               id="g10">
              <defs
                 id="defs6">
                <path
                   d="M 42 31.640625  C 42 37.75 41.90625 48.125 37.703125 56.109375  C 34 63.109375 28.09375 65.59375 22.90625 65.59375  C 18.09375 65.59375 12 63.40625 8.203125 56.203125  C 4.203125 48.71875 3.796875 39.4375 3.796875 31.640625  C 3.796875 25.953125 3.90625 17.28125 7 9.671875  C 11.296875 -0.609375 19 -2 22.90625 -2  C 27.5 -2 34.5 -0.109375 38.59375 9.375  C 41.59375 16.28125 42 24.359375 42 31.640625  z M 22.90625 -0.40625  C 16.5 -0.40625 12.703125 5.078125 11.296875 12.6875  C 10.203125 18.5625 10.203125 27.15625 10.203125 32.75  C 10.203125 40.4375 10.203125 46.828125 11.5 52.921875  C 13.40625 61.390625 19 64 22.90625 64  C 27 64 32.296875 61.296875 34.203125 53.125  C 35.5 47.4375 35.59375 40.734375 35.59375 32.75  C 35.59375 26.25 35.59375 18.265625 34.40625 12.375  C 32.296875 1.484375 26.40625 -0.40625 22.90625 -0.40625  z "
                   id="CMR17-48" />
                <path
                   d="M 18.40625 4.796875  C 18.40625 7.6875 16 9.671875 13.59375 9.671875  C 10.703125 9.671875 8.703125 7.28125 8.703125 4.890625  C 8.703125 2 11.09375 0 13.5 0  C 16.40625 0 18.40625 2.390625 18.40625 4.796875  z "
                   id="CMMI12-58" />
                <path
                   d="M 11.40625 57.6875  C 12.40625 57.28125 16.5 56 20.703125 56  C 30 56 35.09375 61.109375 38 64.0625  C 38 64.953125 38 65.5 37.40625 65.5  C 37.296875 65.5 37.09375 65.5 36.296875 65.046875  C 32.796875 63.40625 28.703125 62.078125 23.703125 62.078125  C 20.703125 62.078125 16.203125 62.484375 11.296875 64.671875  C 10.203125 65.171875 10 65.171875 9.90625 65.171875  C 9.40625 65.171875 9.296875 65.0625 9.296875 63.078125  L 9.296875 34.421875  C 9.296875 32.640625 9.296875 32.140625 10.296875 32.140625  C 10.796875 32.140625 11 32.34375 11.5 33.03125  C 14.703125 37.515625 19.09375 39.40625 24.09375 39.40625  C 27.59375 39.40625 35.09375 37.21875 35.09375 20.140625  C 35.09375 16.953125 35.09375 11.171875 32.09375 6.578125  C 29.59375 2.484375 25.703125 0.390625 21.40625 0.390625  C 14.796875 0.390625 8.09375 5 6.296875 12.71875  C 6.703125 12.609375 7.5 12.421875 7.90625 12.421875  C 9.203125 12.421875 11.703125 13.125 11.703125 16.21875  C 11.703125 18.90625 9.796875 20 7.90625 20  C 5.59375 20 4.09375 18.59375 4.09375 15.796875  C 4.09375 7.09375 11 -2 21.59375 -2  C 31.90625 -2 41.703125 6.875 41.703125 19.75  C 41.703125 31.71875 33.90625 41 24.203125 41  C 19.09375 41 14.796875 39.109375 11.40625 35.53125  z "
                   id="CMR17-53" />
              </defs>
              <use
                 transform="scale(0.996264)"
                 xlink:href="#CMR17-48"
                 id="use6" />
              <use
                 transform="translate(45.690477 0)scale(0.996264)"
                 xlink:href="#CMMI12-58"
                 id="use7" />
              <use
                 transform="translate(72.787654 0)scale(0.996264)"
                 xlink:href="#CMR17-48"
                 id="use8" />
              <use
                 transform="translate(118.478131 0)scale(0.996264)"
                 xlink:href="#CMR17-48"
                 id="use9" />
              <use
                 transform="translate(164.168608 0)scale(0.996264)"
                 xlink:href="#CMR17-53"
                 id="use10" />
            </g>
          </g>
        </g>
        <g
           id="xtick_2">
          <g
             id="line2d_3">
            <g
               id="g11">
              <use
                 style="stroke:#000000;stroke-width:0.8;"
                 x="92.123096"
                 xlink:href="#m9e93fa82c5"
                 y="176.979249"
                 id="use11" />
            </g>
          </g>
          <g
             id="text_2">
            <!-- $\mathdefault{0.010}$ -->
            <g
               transform="translate(80.776721 190.897748)scale(0.1 -0.1)"
               id="g16">
              <defs
                 id="defs11">
                <path
                   d="M 26.59375 63.40625  C 26.59375 65.5 26.5 65.5 25.09375 65.5  C 21.203125 61.1875 15.296875 59.796875 9.703125 59.796875  C 9.40625 59.796875 8.90625 59.796875 8.796875 59.5  C 8.703125 59.296875 8.703125 59.09375 8.703125 57  C 11.796875 57 17 57.59375 21 59.984375  L 21 7.203125  C 21 3.6875 20.796875 2.5 12.203125 2.5  L 9.203125 2.5  L 9.203125 0  C 14 0 19 0 23.796875 0  C 28.59375 0 33.59375 0 38.40625 0  L 38.40625 2.5  L 35.40625 2.5  C 26.796875 2.5 26.59375 3.59375 26.59375 7.15625  z "
                   id="CMR17-49" />
              </defs>
              <use
                 transform="scale(0.996264)"
                 xlink:href="#CMR17-48"
                 id="use12" />
              <use
                 transform="translate(45.690477 0)scale(0.996264)"
                 xlink:href="#CMMI12-58"
                 id="use13" />
              <use
                 transform="translate(72.787654 0)scale(0.996264)"
                 xlink:href="#CMR17-48"
                 id="use14" />
              <use
                 transform="translate(118.478131 0)scale(0.996264)"
                 xlink:href="#CMR17-49"
                 id="use15" />
              <use
                 transform="translate(164.168608 0)scale(0.996264)"
                 xlink:href="#CMR17-48"
                 id="use16" />
            </g>
          </g>
        </g>
        <g
           id="xtick_3">
          <g
             id="line2d_4">
            <g
               id="g17">
              <use
                 style="stroke:#000000;stroke-width:0.8;"
                 x="135.922978"
                 xlink:href="#m9e93fa82c5"
                 y="176.979249"
                 id="use17" />
            </g>
          </g>
          <g
             id="text_3">
            <!-- $\mathdefault{0.020}$ -->
            <g
               transform="translate(124.576603 190.897748)scale(0.1 -0.1)"
               id="g22">
              <defs
                 id="defs17">
                <path
                   d="M 41.703125 15.453125  L 39.90625 15.453125  C 38.90625 8.375 38.09375 7.171875 37.703125 6.5625  C 37.203125 5.765625 30 5.765625 28.59375 5.765625  L 9.40625 5.765625  C 13 9.671875 20 16.75 28.5 24.953125  C 34.59375 30.734375 41.703125 37.53125 41.703125 47.421875  C 41.703125 59.21875 32.296875 66 21.796875 66  C 10.796875 66 4.09375 56.3125 4.09375 47.34375  C 4.09375 43.4375 7 42.9375 8.203125 42.9375  C 9.203125 42.9375 12.203125 43.546875 12.203125 47.03125  C 12.203125 50.109375 9.59375 51 8.203125 51  C 7.59375 51 7 50.90625 6.59375 50.703125  C 8.5 59.21875 14.296875 63.40625 20.40625 63.40625  C 29.09375 63.40625 34.796875 56.515625 34.796875 47.421875  C 34.796875 38.734375 29.703125 31.25 24 24.75  L 4.09375 2.28125  L 4.09375 0  L 39.296875 0  z "
                   id="CMR17-50" />
              </defs>
              <use
                 transform="scale(0.996264)"
                 xlink:href="#CMR17-48"
                 id="use18" />
              <use
                 transform="translate(45.690477 0)scale(0.996264)"
                 xlink:href="#CMMI12-58"
                 id="use19" />
              <use
                 transform="translate(72.787654 0)scale(0.996264)"
                 xlink:href="#CMR17-48"
                 id="use20" />
              <use
                 transform="translate(118.478131 0)scale(0.996264)"
                 xlink:href="#CMR17-50"
                 id="use21" />
              <use
                 transform="translate(164.168608 0)scale(0.996264)"
                 xlink:href="#CMR17-48"
                 id="use22" />
            </g>
          </g>
        </g>
        <g
           id="xtick_4">
          <g
             id="line2d_5">
            <g
               id="g23">
              <use
                 style="stroke:#000000;stroke-width:0.8;"
                 x="193.823272"
                 xlink:href="#m9e93fa82c5"
                 y="176.979249"
                 id="use23" />
            </g>
          </g>
          <g
             id="text_4">
            <!-- $\mathdefault{0.050}$ -->
            <g
               transform="translate(182.476898 190.897748)scale(0.1 -0.1)"
               id="g28">
              <use
                 transform="scale(0.996264)"
                 xlink:href="#CMR17-48"
                 id="use24" />
              <use
                 transform="translate(45.690477 0)scale(0.996264)"
                 xlink:href="#CMMI12-58"
                 id="use25" />
              <use
                 transform="translate(72.787654 0)scale(0.996264)"
                 xlink:href="#CMR17-48"
                 id="use26" />
              <use
                 transform="translate(118.478131 0)scale(0.996264)"
                 xlink:href="#CMR17-53"
                 id="use27" />
              <use
                 transform="translate(164.168608 0)scale(0.996264)"
                 xlink:href="#CMR17-48"
                 id="use28" />
            </g>
          </g>
        </g>
        <g
           id="xtick_5">
          <g
             id="line2d_6">
            <g
               id="g29">
              <use
                 style="stroke:#000000;stroke-width:0.8;"
                 x="237.623155"
                 xlink:href="#m9e93fa82c5"
                 y="176.979249"
                 id="use29" />
            </g>
          </g>
          <g
             id="text_5">
            <!-- $\mathdefault{0.100}$ -->
            <g
               transform="translate(226.27678 190.897748)scale(0.1 -0.1)"
               id="g34">
              <use
                 transform="scale(0.996264)"
                 xlink:href="#CMR17-48"
                 id="use30" />
              <use
                 transform="translate(45.690477 0)scale(0.996264)"
                 xlink:href="#CMMI12-58"
                 id="use31" />
              <use
                 transform="translate(72.787654 0)scale(0.996264)"
                 xlink:href="#CMR17-49"
                 id="use32" />
              <use
                 transform="translate(118.478131 0)scale(0.996264)"
                 xlink:href="#CMR17-48"
                 id="use33" />
              <use
                 transform="translate(164.168608 0)scale(0.996264)"
                 xlink:href="#CMR17-48"
                 id="use34" />
            </g>
          </g>
        </g>
        <g
           id="xtick_6">
          <g
             id="line2d_7">
            <g
               id="g35">
              <use
                 style="stroke:#000000;stroke-width:0.8;"
                 x="281.423037"
                 xlink:href="#m9e93fa82c5"
                 y="176.979249"
                 id="use35" />
            </g>
          </g>
          <g
             id="text_6">
            <!-- $\mathdefault{0.200}$ -->
            <g
               transform="translate(270.076662 190.897748)scale(0.1 -0.1)"
               id="g40">
              <use
                 transform="scale(0.996264)"
                 xlink:href="#CMR17-48"
                 id="use36" />
              <use
                 transform="translate(45.690477 0)scale(0.996264)"
                 xlink:href="#CMMI12-58"
                 id="use37" />
              <use
                 transform="translate(72.787654 0)scale(0.996264)"
                 xlink:href="#CMR17-50"
                 id="use38" />
              <use
                 transform="translate(118.478131 0)scale(0.996264)"
                 xlink:href="#CMR17-48"
                 id="use39" />
              <use
                 transform="translate(164.168608 0)scale(0.996264)"
                 xlink:href="#CMR17-48"
                 id="use40" />
            </g>
          </g>
        </g>
        <g
           id="xtick_7">
          <g
             id="line2d_8">
            <g
               id="g41">
              <use
                 style="stroke:#000000;stroke-width:0.8;"
                 x="339.323331"
                 xlink:href="#m9e93fa82c5"
                 y="176.979249"
                 id="use41" />
            </g>
          </g>
          <g
             id="text_7">
            <!-- $\mathdefault{0.500}$ -->
            <g
               transform="translate(327.976957 190.897748)scale(0.1 -0.1)"
               id="g46">
              <use
                 transform="scale(0.996264)"
                 xlink:href="#CMR17-48"
                 id="use42" />
              <use
                 transform="translate(45.690477 0)scale(0.996264)"
                 xlink:href="#CMMI12-58"
                 id="use43" />
              <use
                 transform="translate(72.787654 0)scale(0.996264)"
                 xlink:href="#CMR17-53"
                 id="use44" />
              <use
                 transform="translate(118.478131 0)scale(0.996264)"
                 xlink:href="#CMR17-48"
                 id="use45" />
              <use
                 transform="translate(164.168608 0)scale(0.996264)"
                 xlink:href="#CMR17-48"
                 id="use46" />
            </g>
          </g>
        </g>
        <g
           id="xtick_8">
          <g
             id="line2d_9">
            <g
               id="g47">
              <use
                 style="stroke:#000000;stroke-width:0.8;"
                 x="383.123213"
                 xlink:href="#m9e93fa82c5"
                 y="176.979249"
                 id="use47" />
            </g>
          </g>
          <g
             id="text_8">
            <!-- $\mathdefault{1.000}$ -->
            <g
               transform="translate(371.776839 190.897748)scale(0.1 -0.1)"
               id="g52">
              <use
                 transform="scale(0.996264)"
                 xlink:href="#CMR17-49"
                 id="use48" />
              <use
                 transform="translate(45.690477 0)scale(0.996264)"
                 xlink:href="#CMMI12-58"
                 id="use49" />
              <use
                 transform="translate(72.787654 0)scale(0.996264)"
                 xlink:href="#CMR17-48"
                 id="use50" />
              <use
                 transform="translate(118.478131 0)scale(0.996264)"
                 xlink:href="#CMR17-48"
                 id="use51" />
              <use
                 transform="translate(164.168608 0)scale(0.996264)"
                 xlink:href="#CMR17-48"
                 id="use52" />
            </g>
          </g>
        </g>
        <g
           id="xtick_9">
          <g
             id="line2d_10">
            <defs
               id="defs52">
              <path
                 d="M 0 0  L 0 2  "
                 id="m2b0f68155d"
                 style="stroke:#000000;stroke-width:0.6;" />
            </defs>
            <g
               id="g53">
              <use
                 style="stroke:#000000;stroke-width:0.6;"
                 x="59.844089"
                 xlink:href="#m2b0f68155d"
                 y="176.979249"
                 id="use53" />
            </g>
          </g>
        </g>
        <g
           id="xtick_10">
          <g
             id="line2d_11">
            <g
               id="g54">
              <use
                 style="stroke:#000000;stroke-width:0.6;"
                 x="69.584851"
                 xlink:href="#m2b0f68155d"
                 y="176.979249"
                 id="use54" />
            </g>
          </g>
        </g>
        <g
           id="xtick_11">
          <g
             id="line2d_12">
            <g
               id="g55">
              <use
                 style="stroke:#000000;stroke-width:0.6;"
                 x="78.022683"
                 xlink:href="#m2b0f68155d"
                 y="176.979249"
                 id="use55" />
            </g>
          </g>
        </g>
        <g
           id="xtick_12">
          <g
             id="line2d_13">
            <g
               id="g56">
              <use
                 style="stroke:#000000;stroke-width:0.6;"
                 x="85.465378"
                 xlink:href="#m2b0f68155d"
                 y="176.979249"
                 id="use56" />
            </g>
          </g>
        </g>
        <g
           id="xtick_13">
          <g
             id="line2d_14">
            <g
               id="g57">
              <use
                 style="stroke:#000000;stroke-width:0.6;"
                 x="161.544266"
                 xlink:href="#m2b0f68155d"
                 y="176.979249"
                 id="use57" />
            </g>
          </g>
        </g>
        <g
           id="xtick_14">
          <g
             id="line2d_15">
            <g
               id="g58">
              <use
                 style="stroke:#000000;stroke-width:0.6;"
                 x="179.72286"
                 xlink:href="#m2b0f68155d"
                 y="176.979249"
                 id="use58" />
            </g>
          </g>
        </g>
        <g
           id="xtick_15">
          <g
             id="line2d_16">
            <g
               id="g59">
              <use
                 style="stroke:#000000;stroke-width:0.6;"
                 x="205.344148"
                 xlink:href="#m2b0f68155d"
                 y="176.979249"
                 id="use59" />
            </g>
          </g>
        </g>
        <g
           id="xtick_16">
          <g
             id="line2d_17">
            <g
               id="g60">
              <use
                 style="stroke:#000000;stroke-width:0.6;"
                 x="215.08491"
                 xlink:href="#m2b0f68155d"
                 y="176.979249"
                 id="use60" />
            </g>
          </g>
        </g>
        <g
           id="xtick_17">
          <g
             id="line2d_18">
            <g
               id="g61">
              <use
                 style="stroke:#000000;stroke-width:0.6;"
                 x="223.522742"
                 xlink:href="#m2b0f68155d"
                 y="176.979249"
                 id="use61" />
            </g>
          </g>
        </g>
        <g
           id="xtick_18">
          <g
             id="line2d_19">
            <g
               id="g62">
              <use
                 style="stroke:#000000;stroke-width:0.6;"
                 x="230.965437"
                 xlink:href="#m2b0f68155d"
                 y="176.979249"
                 id="use62" />
            </g>
          </g>
        </g>
        <g
           id="xtick_19">
          <g
             id="line2d_20">
            <g
               id="g63">
              <use
                 style="stroke:#000000;stroke-width:0.6;"
                 x="307.044325"
                 xlink:href="#m2b0f68155d"
                 y="176.979249"
                 id="use63" />
            </g>
          </g>
        </g>
        <g
           id="xtick_20">
          <g
             id="line2d_21">
            <g
               id="g64">
              <use
                 style="stroke:#000000;stroke-width:0.6;"
                 x="325.222919"
                 xlink:href="#m2b0f68155d"
                 y="176.979249"
                 id="use64" />
            </g>
          </g>
        </g>
        <g
           id="xtick_21">
          <g
             id="line2d_22">
            <g
               id="g65">
              <use
                 style="stroke:#000000;stroke-width:0.6;"
                 x="350.844207"
                 xlink:href="#m2b0f68155d"
                 y="176.979249"
                 id="use65" />
            </g>
          </g>
        </g>
        <g
           id="xtick_22">
          <g
             id="line2d_23">
            <g
               id="g66">
              <use
                 style="stroke:#000000;stroke-width:0.6;"
                 x="360.584969"
                 xlink:href="#m2b0f68155d"
                 y="176.979249"
                 id="use66" />
            </g>
          </g>
        </g>
        <g
           id="xtick_23">
          <g
             id="line2d_24">
            <g
               id="g67">
              <use
                 style="stroke:#000000;stroke-width:0.6;"
                 x="369.022801"
                 xlink:href="#m2b0f68155d"
                 y="176.979249"
                 id="use67" />
            </g>
          </g>
        </g>
        <g
           id="xtick_24">
          <g
             id="line2d_25">
            <g
               id="g68">
              <use
                 style="stroke:#000000;stroke-width:0.6;"
                 x="376.465496"
                 xlink:href="#m2b0f68155d"
                 y="176.979249"
                 id="use68" />
            </g>
          </g>
        </g>
        <g
           id="text_9">
          <!-- $r/R$ -->
          <g
             transform="translate(207.064544 204.306906)scale(0.1 -0.1)"
             id="g71">
            <defs
               id="defs68">
              <path
                 d="M 38.90625 40.8125  C 35.796875 40.21875 34.203125 38.015625 34.203125 35.828125  C 34.203125 33.421875 36.09375 32.625 37.5 32.625  C 40.296875 32.625 42.59375 35.03125 42.59375 38.015625  C 42.59375 41.21875 39.5 44 34.5 44  C 30.5 44 25.90625 42.203125 21.703125 36.125  C 21 41.40625 17 44 13 44  C 9.09375 44 7.09375 41.015625 5.90625 38.8125  C 4.203125 35.21875 2.703125 29.234375 2.703125 28.734375  C 2.703125 28.34375 3.09375 27.84375 3.796875 27.84375  C 4.59375 27.84375 4.703125 27.9375 5.296875 30.234375  C 6.796875 36.21875 8.703125 42.015625 12.703125 42.015625  C 15.09375 42.015625 15.796875 40.3125 15.796875 37.421875  C 15.796875 35.21875 14.796875 31.328125 14.09375 28.234375  L 11.296875 17.46875  C 10.90625 15.5625 9.796875 11.078125 9.296875 9.28125  C 8.59375 6.6875 7.5 2 7.5 1.5  C 7.5 0.09375 8.59375 -1 10.09375 -1  C 11.203125 -1 13.09375 -0.296875 13.703125 1.703125  C 14 2.5 17.703125 17.5625 18.296875 19.859375  C 18.796875 22.046875 19.40625 24.15625 19.90625 26.34375  C 20.296875 27.734375 20.703125 29.34375 21 30.640625  C 21.296875 31.53125 24 36.421875 26.5 38.625  C 27.703125 39.71875 30.296875 42.015625 34.40625 42.015625  C 36 42.015625 37.59375 41.71875 38.90625 40.8125  z "
                 id="CMMI12-114" />
              <path
                 d="M 42.90625 71.28125  C 42.90625 71.390625 43.5 72.90625 43.5 73.09375  C 43.5 74.296875 42.5 75 41.703125 75  C 41.203125 75 40.296875 75 39.5 72.796875  L 6 -21.296875  C 6 -21.40625 5.40625 -22.890625 5.40625 -23.09375  C 5.40625 -24.296875 6.40625 -25 7.203125 -25  C 7.796875 -25 8.703125 -24.890625 9.40625 -22.796875  z "
                 id="CMMI12-61" />
              <path
                 d="M 36.796875 61.3125  C 37.703125 65 38.09375 65 42 65  L 49.203125 65  C 57.796875 65 64.203125 62.421875 64.203125 54.671875  C 64.203125 49.609375 61.59375 35 41.5 35  L 30.203125 35  z M 50.703125 33.890625  C 63.09375 36.578125 72.796875 44.546875 72.796875 53.09375  C 72.796875 60.84375 64.90625 68 51 68  L 23.90625 68  C 21.90625 68 21 68 21 66.03125  C 21 65 21.703125 65 23.59375 65  C 29.59375 65 29.59375 64.25 29.59375 63.203125  C 29.59375 63.015625 29.59375 62.40625 29.203125 60.921875  L 15.703125 7.484375  C 14.796875 4 14.59375 3 7.703125 3  C 5.40625 3 4.703125 3 4.703125 1.109375  C 4.703125 0.109375 5.796875 0.109375 6.09375 0.109375  C 7.90625 0.109375 10 0.109375 11.90625 0.109375  L 23.703125 0.109375  C 25.5 0.109375 27.59375 0.109375 29.40625 0.109375  C 30.203125 0.109375 31.296875 0.109375 31.296875 2  C 31.296875 3 30.40625 3 28.90625 3  C 22.796875 3 22.796875 3.796875 22.796875 4.78125  C 22.796875 4.890625 22.796875 5.578125 23 6.359375  L 29.703125 33  L 41.703125 33  C 51.203125 33 53 27.046875 53 23.78125  C 53 22.296875 52 18.421875 51.296875 15.84375  C 50.203125 11.296875 49.90625 10.1875 49.90625 8.3125  C 49.90625 1.28125 55.703125 -2 62.40625 -2  C 70.5 -2 74 7.828125 74 9.234375  C 74 9.921875 73.5 10.21875 72.90625 10.21875  C 72.09375 10.21875 71.90625 9.625 71.703125 8.828125  C 69.296875 1.78125 65.203125 0 62.703125 0  C 60.203125 0 58.59375 1.09375 58.59375 5.5625  C 58.59375 7.953125 59.796875 17 59.90625 17.5  C 60.40625 21.171875 60.40625 21.5625 60.40625 22.375  C 60.40625 29.625 54.5 32.703125 50.703125 33.890625  z "
                 id="CMMI12-82" />
            </defs>
            <use
               transform="scale(0.996264)"
               xlink:href="#CMMI12-114"
               id="use69" />
            <use
               transform="translate(46.670612 0)scale(0.996264)"
               xlink:href="#CMMI12-61"
               id="use70" />
            <use
               transform="translate(95.445531 0)scale(0.996264)"
               xlink:href="#CMMI12-82"
               id="use71" />
          </g>
        </g>
      </g>
      <g
         id="matplotlib.axis_2">
        <g
           id="ytick_1">
          <g
             id="line2d_26">
            <defs
               id="defs71">
              <path
                 d="M 0 0  L -3.5 0  "
                 id="m53c939ae5f"
                 style="stroke:#000000;stroke-width:0.8;" />
            </defs>
            <g
               id="g72">
              <use
                 style="stroke:#000000;stroke-width:0.8;"
                 x="48.323213"
                 xlink:href="#m53c939ae5f"
                 y="176.979249"
                 id="use72" />
            </g>
          </g>
          <g
             id="text_10">
            <!-- $\mathdefault{10^{-1}}$ -->
            <g
               transform="translate(21.16264 180.438498)scale(0.1 -0.1)"
               id="g76">
              <defs
                 id="defs72">
                <path
                   d="M 65.90625 23  C 67.59375 23 69.40625 23 69.40625 25  C 69.40625 27 67.59375 27 65.90625 27  L 11.796875 27  C 10.09375 27 8.296875 27 8.296875 25  C 8.296875 23 10.09375 23 11.796875 23  z "
                   id="CMSY10-0" />
              </defs>
              <use
                 transform="scale(0.996264)"
                 xlink:href="#CMR17-49"
                 id="use73" />
              <use
                 transform="translate(45.690477 0)scale(0.996264)"
                 xlink:href="#CMR17-48"
                 id="use74" />
              <use
                 transform="translate(91.380954 36.153639)scale(0.697382)"
                 xlink:href="#CMSY10-0"
                 id="use75" />
              <use
                 transform="translate(145.621947 36.153639)scale(0.697382)"
                 xlink:href="#CMR17-49"
                 id="use76" />
            </g>
          </g>
        </g>
        <g
           id="ytick_2">
          <g
             id="line2d_27">
            <g
               id="g77">
              <use
                 style="stroke:#000000;stroke-width:0.8;"
                 x="48.323213"
                 xlink:href="#m53c939ae5f"
                 y="93.819249"
                 id="use77" />
            </g>
          </g>
          <g
             id="text_11">
            <!-- $\mathdefault{10^{0}}$ -->
            <g
               transform="translate(27.389305 97.278498)scale(0.1 -0.1)"
               id="g80">
              <use
                 transform="scale(0.996264)"
                 xlink:href="#CMR17-49"
                 id="use78" />
              <use
                 transform="translate(45.690477 0)scale(0.996264)"
                 xlink:href="#CMR17-48"
                 id="use79" />
              <use
                 transform="translate(91.380954 36.153639)scale(0.697382)"
                 xlink:href="#CMR17-48"
                 id="use80" />
            </g>
          </g>
        </g>
        <g
           id="ytick_3">
          <g
             id="line2d_28">
            <g
               id="g81">
              <use
                 style="stroke:#000000;stroke-width:0.8;"
                 x="48.323213"
                 xlink:href="#m53c939ae5f"
                 y="10.659249"
                 id="use81" />
            </g>
          </g>
          <g
             id="text_12">
            <!-- $\mathdefault{10^{1}}$ -->
            <g
               transform="translate(27.389305 14.118498)scale(0.1 -0.1)"
               id="g84">
              <use
                 transform="scale(0.996264)"
                 xlink:href="#CMR17-49"
                 id="use82" />
              <use
                 transform="translate(45.690477 0)scale(0.996264)"
                 xlink:href="#CMR17-48"
                 id="use83" />
              <use
                 transform="translate(91.380954 36.153639)scale(0.697382)"
                 xlink:href="#CMR17-49"
                 id="use84" />
            </g>
          </g>
        </g>
        <g
           id="ytick_4">
          <g
             id="line2d_29">
            <defs
               id="defs84">
              <path
                 d="M 0 0  L -2 0  "
                 id="m7c4d04ce33"
                 style="stroke:#000000;stroke-width:0.6;" />
            </defs>
            <g
               id="g85">
              <use
                 style="stroke:#000000;stroke-width:0.6;"
                 x="48.323213"
                 xlink:href="#m7c4d04ce33"
                 y="151.945595"
                 id="use85" />
            </g>
          </g>
        </g>
        <g
           id="ytick_5">
          <g
             id="line2d_30">
            <g
               id="g86">
              <use
                 style="stroke:#000000;stroke-width:0.6;"
                 x="48.323213"
                 xlink:href="#m7c4d04ce33"
                 y="137.301846"
                 id="use86" />
            </g>
          </g>
        </g>
        <g
           id="ytick_6">
          <g
             id="line2d_31">
            <g
               id="g87">
              <use
                 style="stroke:#000000;stroke-width:0.6;"
                 x="48.323213"
                 xlink:href="#m7c4d04ce33"
                 y="126.91194"
                 id="use87" />
            </g>
          </g>
        </g>
        <g
           id="ytick_7">
          <g
             id="line2d_32">
            <g
               id="g88">
              <use
                 style="stroke:#000000;stroke-width:0.6;"
                 x="48.323213"
                 xlink:href="#m7c4d04ce33"
                 y="118.852904"
                 id="use88" />
            </g>
          </g>
        </g>
        <g
           id="ytick_8">
          <g
             id="line2d_33">
            <g
               id="g89">
              <use
                 style="stroke:#000000;stroke-width:0.6;"
                 x="48.323213"
                 xlink:href="#m7c4d04ce33"
                 y="112.268191"
                 id="use89" />
            </g>
          </g>
        </g>
        <g
           id="ytick_9">
          <g
             id="line2d_34">
            <g
               id="g90">
              <use
                 style="stroke:#000000;stroke-width:0.6;"
                 x="48.323213"
                 xlink:href="#m7c4d04ce33"
                 y="106.700896"
                 id="use90" />
            </g>
          </g>
        </g>
        <g
           id="ytick_10">
          <g
             id="line2d_35">
            <g
               id="g91">
              <use
                 style="stroke:#000000;stroke-width:0.6;"
                 x="48.323213"
                 xlink:href="#m7c4d04ce33"
                 y="101.878286"
                 id="use91" />
            </g>
          </g>
        </g>
        <g
           id="ytick_11">
          <g
             id="line2d_36">
            <g
               id="g92">
              <use
                 style="stroke:#000000;stroke-width:0.6;"
                 x="48.323213"
                 xlink:href="#m7c4d04ce33"
                 y="97.624442"
                 id="use92" />
            </g>
          </g>
        </g>
        <g
           id="ytick_12">
          <g
             id="line2d_37">
            <g
               id="g93">
              <use
                 style="stroke:#000000;stroke-width:0.6;"
                 x="48.323213"
                 xlink:href="#m7c4d04ce33"
                 y="68.785595"
                 id="use93" />
            </g>
          </g>
        </g>
        <g
           id="ytick_13">
          <g
             id="line2d_38">
            <g
               id="g94">
              <use
                 style="stroke:#000000;stroke-width:0.6;"
                 x="48.323213"
                 xlink:href="#m7c4d04ce33"
                 y="54.141846"
                 id="use94" />
            </g>
          </g>
        </g>
        <g
           id="ytick_14">
          <g
             id="line2d_39">
            <g
               id="g95">
              <use
                 style="stroke:#000000;stroke-width:0.6;"
                 x="48.323213"
                 xlink:href="#m7c4d04ce33"
                 y="43.75194"
                 id="use95" />
            </g>
          </g>
        </g>
        <g
           id="ytick_15">
          <g
             id="line2d_40">
            <g
               id="g96">
              <use
                 style="stroke:#000000;stroke-width:0.6;"
                 x="48.323213"
                 xlink:href="#m7c4d04ce33"
                 y="35.692904"
                 id="use96" />
            </g>
          </g>
        </g>
        <g
           id="ytick_16">
          <g
             id="line2d_41">
            <g
               id="g97">
              <use
                 style="stroke:#000000;stroke-width:0.6;"
                 x="48.323213"
                 xlink:href="#m7c4d04ce33"
                 y="29.108191"
                 id="use97" />
            </g>
          </g>
        </g>
        <g
           id="ytick_17">
          <g
             id="line2d_42">
            <g
               id="g98">
              <use
                 style="stroke:#000000;stroke-width:0.6;"
                 x="48.323213"
                 xlink:href="#m7c4d04ce33"
                 y="23.540896"
                 id="use98" />
            </g>
          </g>
        </g>
        <g
           id="ytick_18">
          <g
             id="line2d_43">
            <g
               id="g99">
              <use
                 style="stroke:#000000;stroke-width:0.6;"
                 x="48.323213"
                 xlink:href="#m7c4d04ce33"
                 y="18.718286"
                 id="use99" />
            </g>
          </g>
        </g>
        <g
           id="ytick_19">
          <g
             id="line2d_44">
            <g
               id="g100">
              <use
                 style="stroke:#000000;stroke-width:0.6;"
                 x="48.323213"
                 xlink:href="#m7c4d04ce33"
                 y="14.464442"
                 id="use100" />
            </g>
          </g>
        </g>
        <g
           id="text_13">
          <!-- $\nu$/$\nu_\text{max}$ -->
          <g
             transform="translate(14.67198 108.899318)rotate(-90)scale(0.1 -0.1)"
             id="g106">
            <defs
               id="defs100">
              <path
                 d="M 22 43.015625  C 22 43.40625 21.703125 44 20.90625 44  C 20.203125 44 10.796875 42.984375 9.296875 42.984375  C 8.203125 42.875 7.203125 42.78125 7.203125 40.984375  C 7.203125 40 8 40 9.40625 40  C 14.09375 40 14.40625 39.296875 14.40625 38.203125  C 14.40625 37.796875 14.203125 36.609375 14.09375 36.21875  L 5.296875 1  C 5.296875 0.59375 5.59375 0 6.296875 0  L 8.40625 0  C 9.796875 0 25 3.59375 36.703125 15.5625  C 49.59375 28.84375 51.40625 41.125 51.40625 41.515625  C 51.40625 43.109375 50.09375 44 48.796875 44  C 45.90625 44 45.203125 41.3125 45 40.609375  C 39.09375 19.75 25.40625 7.390625 12.09375 3  z "
                 id="CMMI12-23" />
              <path
                 d="M 40.703125 71.015625  C 41.203125 72.296875 41.203125 72.5 41.203125 72.703125  C 41.203125 73.890625 40.296875 74.5 39.5 74.5  C 38.296875 74.5 37.90625 73.703125 37.5 72.5  L 5.09375 -21.515625  C 4.59375 -22.8125 4.59375 -23.015625 4.59375 -23.21875  C 4.59375 -24.40625 5.5 -25 6.296875 -25  C 7.5 -25 7.90625 -24.203125 8.296875 -23.015625  z "
                 id="CMR17-47" />
              <path
                 d="M 67.59375 30.203125  C 67.59375 35.1875 66.703125 43.59375 54.796875 43.59375  C 48 43.59375 43.296875 39 41.5 33.609375  L 41.40625 33.609375  C 40.203125 41.8125 34.296875 43.59375 28.703125 43.59375  C 20.796875 43.59375 16.703125 37.5 15.203125 33.5  L 15.09375 33.5  L 15.09375 43.59375  L 3.296875 42.5  L 3.296875 39.90625  C 9.203125 39.90625 10.09375 39.296875 10.09375 34.5  L 10.09375 6.6875  C 10.09375 2.875 9.703125 2.390625 3.296875 2.390625  L 3.296875 -0.203125  C 5.703125 0 10.09375 0 12.703125 0  C 15.296875 0 19.796875 0 22.203125 -0.203125  L 22.203125 2.390625  C 15.796875 2.390625 15.40625 2.78125 15.40625 6.6875  L 15.40625 25.90625  C 15.40625 35.109375 21 42 28 42  C 35.40625 42 36.203125 35.40625 36.203125 30.59375  L 36.203125 6.6875  C 36.203125 2.875 35.796875 2.390625 29.40625 2.390625  L 29.40625 -0.203125  C 31.796875 0 36.203125 0 38.796875 0  C 41.40625 0 45.90625 0 48.296875 -0.203125  L 48.296875 2.390625  C 41.90625 2.390625 41.5 2.78125 41.5 6.6875  L 41.5 25.90625  C 41.5 35.109375 47.09375 42 54.09375 42  C 61.5 42 62.296875 35.40625 62.296875 30.59375  L 62.296875 6.6875  C 62.296875 2.875 61.90625 2.390625 55.5 2.390625  L 55.5 -0.203125  C 57.90625 0 62.296875 0 64.90625 0  C 67.5 0 72 0 74.40625 -0.203125  L 74.40625 2.390625  C 68 2.390625 67.59375 2.78125 67.59375 6.6875  z "
                 id="CMR17-109" />
              <path
                 d="M 36 25.828125  C 36 32.375 36 35.84375 31.796875 39.734375  C 28.09375 43 23.796875 44 20.40625 44  C 12.5 44 6.796875 37.609375 6.796875 30.796875  C 6.796875 27 9.796875 27 10.40625 27  C 11.703125 27 14 27.78125 14 30.53125  C 14 33 12.09375 34.078125 10.40625 34.078125  C 10 34.078125 9.5 33.96875 9.203125 33.875  C 11.296875 40.5 16.703125 42.40625 20.203125 42.40625  C 25.203125 42.40625 30.703125 37.953125 30.703125 29.453125  L 30.703125 25  C 24.796875 25 17.703125 24.203125 12.09375 21.203125  C 5.796875 17.703125 4 12.703125 4 8.90625  C 4 1.203125 13 -1 18.296875 -1  C 23.796875 -1 28.90625 2.171875 31.09375 7.984375  C 31.296875 3.640625 34.09375 -0.28125 38.5 -0.28125  C 40.59375 -0.28125 45.90625 1.09375 45.90625 8.859375  L 45.90625 14.375  L 44.09375 14.375  L 44.09375 8.78125  C 44.09375 2.78125 41.40625 2 40.09375 2  C 36 2 36 7.15625 36 11.53125  z M 30.703125 13.59375  C 30.703125 4.953125 24.5 0.59375 19 0.59375  C 14 0.59375 10.09375 4.296875 10.09375 8.90625  C 10.09375 11.890625 11.40625 17.1875 17.203125 20.390625  C 22 23.09375 27.5 23.5 30.703125 23.5  z "
                 id="CMR17-97" />
              <path
                 d="M 26 23.078125  C 29 26.96875 32.40625 31.34375 35.203125 34.625  C 38.5 38.40625 42.296875 40 46.703125 40  L 46.703125 42.59375  C 45 42.59375 41.5 42.59375 39.703125 42.59375  C 37 42.59375 33.90625 42.59375 31.59375 42.6875  L 31.59375 40.09375  C 33 39.890625 33.796875 38.890625 33.796875 37.5  C 33.796875 35.703125 32.796875 34.609375 32.296875 33.921875  L 24.90625 24.578125  L 16.09375 36.03125  C 15.203125 37.125 15.203125 37.3125 15.203125 37.8125  C 15.203125 39.015625 16.203125 40 17.90625 40  L 17.90625 42.6875  C 15.5 42.59375 11.203125 42.59375 8.703125 42.59375  C 6 42.59375 2.796875 42.59375 0.59375 42.6875  L 0.59375 40  C 6 40 7.203125 39.59375 9.59375 36.609375  L 21.09375 21.796875  C 21.296875 21.59375 21.796875 21 21.796875 20.703125  C 21.796875 20.296875 13.09375 9.671875 12 8.28125  C 7.5 2.890625 2.796875 2.5 0.09375 2.5  L 0.09375 0  C 1.796875 0 5.296875 0 7.09375 0  C 9.09375 0 13.5 0 15.296875 -0.09375  L 15.296875 2.5  C 14.703125 2.59375 13.09375 2.796875 13.09375 5.078125  C 13.09375 6.875 13.90625 7.96875 14.796875 9.15625  L 23.09375 19.3125  L 31.796875 8  C 32.59375 6.90625 33.796875 5.40625 33.796875 4.703125  C 33.796875 3.296875 32.59375 2.5 31 2.5  L 31 -0.09375  C 33.40625 0 37.703125 0 40.203125 0  C 42.90625 0 46.09375 0 48.296875 -0.09375  L 48.296875 2.5  C 43.296875 2.5 41.796875 2.6875 39.40625 5.78125  z "
                 id="CMR17-120" />
            </defs>
            <use
               transform="scale(0.996264)"
               xlink:href="#CMMI12-23"
               id="use101" />
            <use
               transform="translate(54.482793 0)scale(0.996264)"
               xlink:href="#CMR17-47"
               id="use102" />
            <use
               transform="translate(100.17327 0)scale(0.996264)"
               xlink:href="#CMMI12-23"
               id="use103" />
            <use
               transform="translate(148.371752 -14.943915)scale(0.697382)"
               xlink:href="#CMR17-109"
               id="use104" />
            <use
               transform="translate(202.215219 -14.943915)scale(0.697382)"
               xlink:href="#CMR17-97"
               id="use105" />
            <use
               transform="translate(234.198401 -14.943915)scale(0.697382)"
               xlink:href="#CMR17-120"
               id="use106" />
          </g>
        </g>
      </g>
      <g
         id="line2d_46">
        <path
           clip-path="url(#p7230c20211)"
           d="M 48.323213 93.819249  L 383.123213 93.819249  "
           style="fill:none;stroke:#808080;stroke-dasharray:1.5,2.475;stroke-dashoffset:0;stroke-width:1.5;"
           id="path107" />
      </g>
      <g
         id="patch_3">
        <path
           d="M 48.323213 176.979249  L 48.323213 10.659249  "
           style="fill:none;stroke:#000000;stroke-linecap:square;stroke-linejoin:miter;stroke-width:0.8;"
           id="path109" />
      </g>
      <g
         id="patch_4">
        <path
           d="M 383.123213 176.979249  L 383.123213 10.659249  "
           style="fill:none;stroke:#000000;stroke-linecap:square;stroke-linejoin:miter;stroke-width:0.8;"
           id="path110" />
      </g>
      <g
         id="patch_5">
        <path
           d="M 48.323213 176.979249  L 383.123213 176.979249  "
           style="fill:none;stroke:#000000;stroke-linecap:square;stroke-linejoin:miter;stroke-width:0.8;"
           id="path111" />
      </g>
      <g
         id="patch_6">
        <path
           d="M 48.323213 10.659249  L 383.123213 10.659249  "
           style="fill:none;stroke:#000000;stroke-linecap:square;stroke-linejoin:miter;stroke-width:0.8;"
           id="path112" />
      </g>
    </g>
  </g>
  <defs
     id="defs117">
    <clipPath
       id="p7230c20211">
      <rect
         height="166.32"
         width="334.8"
         x="48.323213"
         y="10.659249"
         id="rect117" />
    </clipPath>
  </defs>
</svg>
