<?xml version="1.0" encoding="utf-8" standalone="no"?>
<!DOCTYPE svg PUBLIC "-//W3C//DTD SVG 1.1//EN"
  "http://www.w3.org/Graphics/SVG/1.1/DTD/svg11.dtd">
<!-- Created with matplotlib (https://matplotlib.org/) -->
<svg height="193.575677pt" version="1.1" viewBox="0 0 362.055677 193.575677" width="362.055677pt" xmlns="http://www.w3.org/2000/svg" xmlns:xlink="http://www.w3.org/1999/xlink">
 <defs>
  <style type="text/css">
*{stroke-linecap:butt;stroke-linejoin:round;}
  </style>
 </defs>
 <g id="figure_1">
  <g id="patch_1">
   <path d="M 0 193.575677 
L 362.055677 193.575677 
L 362.055677 0 
L 0 0 
z
" style="fill:none;"/>
  </g>
  <g id="axes_1">
   <g id="patch_2">
    <path d="M 20.055677 173.52 
L 354.855677 173.52 
L 354.855677 7.2 
L 20.055677 7.2 
z
" style="fill:none;"/>
   </g>
   <g id="matplotlib.axis_1">
    <g id="text_1">
     <!-- $y_1$ -->
     <defs>
      <path d="M 26.296875 -10.9375 
C 23.59375 -14.671875 19.703125 -18 14.796875 -18 
C 13.59375 -18 8.796875 -18 7.296875 -13.890625 
C 7.59375 -13.984375 8.09375 -13.984375 8.296875 -13.984375 
C 11.296875 -13.984375 13.296875 -11.390625 13.296875 -9.09375 
C 13.296875 -6.796875 11.40625 -6 9.90625 -6 
C 8.296875 -6 4.796875 -7.15625 4.796875 -11.859375 
C 4.796875 -16.734375 9.09375 -20.09375 14.796875 -20.09375 
C 24.796875 -20.09375 34.90625 -10.9375 37.703125 0.09375 
L 47.5 38.828125 
C 47.59375 39.328125 47.796875 39.9375 47.796875 40.53125 
C 47.796875 42.015625 46.59375 43.015625 45.09375 43.015625 
C 44.203125 43.015625 42.09375 42.609375 41.296875 39.609375 
L 33.90625 10.28125 
C 33.40625 8.484375 33.40625 8.28125 32.59375 7.1875 
C 30.59375 4.390625 27.296875 1 22.5 1 
C 16.90625 1 16.40625 6.484375 16.40625 9.1875 
C 16.40625 14.875 19.09375 22.546875 21.796875 29.734375 
C 22.90625 32.625 23.5 34.03125 23.5 36.015625 
C 23.5 40.21875 20.5 44 15.59375 44 
C 6.40625 44 2.703125 29.53125 2.703125 28.734375 
C 2.703125 28.34375 3.09375 27.84375 3.796875 27.84375 
C 4.703125 27.84375 4.796875 28.234375 5.203125 29.640625 
C 7.59375 38.015625 11.40625 42.015625 15.296875 42.015625 
C 16.203125 42.015625 17.90625 42.015625 17.90625 38.71875 
C 17.90625 36.125 16.796875 33.234375 15.296875 29.4375 
C 10.40625 16.359375 10.40625 13.078125 10.40625 10.671875 
C 10.40625 1.203125 17.203125 -1 22.203125 -1 
C 25.09375 -1 28.703125 -0.09375 32.203125 3.59375 
L 32.296875 3.5 
C 30.796875 -2.296875 29.796875 -6.125 26.296875 -10.9375 
z
" id="CMMI12-121"/>
      <path d="M 26.59375 63.40625 
C 26.59375 65.5 26.5 65.5 25.09375 65.5 
C 21.203125 61.1875 15.296875 59.796875 9.703125 59.796875 
C 9.40625 59.796875 8.90625 59.796875 8.796875 59.5 
C 8.703125 59.296875 8.703125 59.09375 8.703125 57 
C 11.796875 57 17 57.59375 21 59.984375 
L 21 7.203125 
C 21 3.6875 20.796875 2.5 12.203125 2.5 
L 9.203125 2.5 
L 9.203125 0 
C 14 0 19 0 23.796875 0 
C 28.59375 0 33.59375 0 38.40625 0 
L 38.40625 2.5 
L 35.40625 2.5 
C 26.796875 2.5 26.59375 3.59375 26.59375 7.15625 
z
" id="CMR17-49"/>
     </defs>
     <g transform="translate(183.027808 184.438498)scale(0.1 -0.1)">
      <use transform="translate(0 14.943915)scale(0.996264)" xlink:href="#CMMI12-121"/>
      <use transform="translate(47.564188 0)scale(0.697382)" xlink:href="#CMR17-49"/>
     </g>
    </g>
   </g>
   <g id="matplotlib.axis_2">
    <g id="text_2">
     <!-- $y_2$ -->
     <defs>
      <path d="M 41.703125 15.453125 
L 39.90625 15.453125 
C 38.90625 8.375 38.09375 7.171875 37.703125 6.5625 
C 37.203125 5.765625 30 5.765625 28.59375 5.765625 
L 9.40625 5.765625 
C 13 9.671875 20 16.75 28.5 24.953125 
C 34.59375 30.734375 41.703125 37.53125 41.703125 47.421875 
C 41.703125 59.21875 32.296875 66 21.796875 66 
C 10.796875 66 4.09375 56.3125 4.09375 47.34375 
C 4.09375 43.4375 7 42.9375 8.203125 42.9375 
C 9.203125 42.9375 12.203125 43.546875 12.203125 47.03125 
C 12.203125 50.109375 9.59375 51 8.203125 51 
C 7.59375 51 7 50.90625 6.59375 50.703125 
C 8.5 59.21875 14.296875 63.40625 20.40625 63.40625 
C 29.09375 63.40625 34.796875 56.515625 34.796875 47.421875 
C 34.796875 38.734375 29.703125 31.25 24 24.75 
L 4.09375 2.28125 
L 4.09375 0 
L 39.296875 0 
z
" id="CMR17-50"/>
     </defs>
     <g transform="translate(14.118498 94.787869)rotate(-90)scale(0.1 -0.1)">
      <use transform="translate(0 14.943915)scale(0.996264)" xlink:href="#CMMI12-121"/>
      <use transform="translate(47.564188 0)scale(0.697382)" xlink:href="#CMR17-50"/>
     </g>
    </g>
   </g>
   <g id="LineCollection_1">
    <path clip-path="url(#p36eb30e508)" d="M 36.795677 57.096 
L 237.675677 57.096 
" style="fill:none;stroke:#808080;stroke-width:1.5;"/>
   </g>
   <g id="LineCollection_2">
    <path clip-path="url(#p36eb30e508)" d="M 137.235677 90.36 
L 137.235677 23.832 
" style="fill:none;stroke:#808080;stroke-width:1.5;"/>
   </g>
   <g id="patch_3">
    <path clip-path="url(#p36eb30e508)" d="M 143.293653 57.976233 
Q 210.258844 67.706379 277.224034 77.436524 
" style="fill:none;stroke:#000000;stroke-linecap:round;"/>
    <path clip-path="url(#p36eb30e508)" d="M 146.964502 60.530616 
L 143.293653 57.976233 
L 147.539668 56.572184 
" style="fill:none;stroke:#000000;stroke-linecap:round;"/>
    <path clip-path="url(#p36eb30e508)" d="M 273.553185 74.882142 
L 277.224034 77.436524 
L 272.978019 78.840574 
" style="fill:none;stroke:#000000;stroke-linecap:round;"/>
   </g>
   <g id="line2d_1">
    <path clip-path="url(#p36eb30e508)" d="M 166.263275 194.575677 
L 173.601884 187.284414 
L 195.537056 165.490759 
L 217.472228 143.697103 
L 239.407401 121.903448 
L 261.342573 100.109793 
L 283.277746 78.316138 
L 305.212918 56.522483 
L 327.148091 34.728828 
L 349.083263 12.935172 
L 363.055677 -0.947097 
" style="fill:none;stroke:#006ba4;stroke-linecap:square;stroke-width:1.5;"/>
    <defs>
     <path d="M 0 1.5 
C 0.397805 1.5 0.77937 1.341951 1.06066 1.06066 
C 1.341951 0.77937 1.5 0.397805 1.5 0 
C 1.5 -0.397805 1.341951 -0.77937 1.06066 -1.06066 
C 0.77937 -1.341951 0.397805 -1.5 0 -1.5 
C -0.397805 -1.5 -0.77937 -1.341951 -1.06066 -1.06066 
C -1.341951 -0.77937 -1.5 -0.397805 -1.5 0 
C -1.5 0.397805 -1.341951 0.77937 -1.06066 1.06066 
C -0.77937 1.341951 -0.397805 1.5 0 1.5 
z
" id="mde0aa08244" style="stroke:#006ba4;"/>
    </defs>
    <g clip-path="url(#p36eb30e508)">
     <use style="fill:#006ba4;stroke:#006ba4;" x="20.055677" xlink:href="#mde0aa08244" y="339.84"/>
     <use style="fill:#006ba4;stroke:#006ba4;" x="41.990849" xlink:href="#mde0aa08244" y="318.046345"/>
     <use style="fill:#006ba4;stroke:#006ba4;" x="63.926022" xlink:href="#mde0aa08244" y="296.25269"/>
     <use style="fill:#006ba4;stroke:#006ba4;" x="85.861194" xlink:href="#mde0aa08244" y="274.459034"/>
     <use style="fill:#006ba4;stroke:#006ba4;" x="107.796366" xlink:href="#mde0aa08244" y="252.665379"/>
     <use style="fill:#006ba4;stroke:#006ba4;" x="129.731539" xlink:href="#mde0aa08244" y="230.871724"/>
     <use style="fill:#006ba4;stroke:#006ba4;" x="151.666711" xlink:href="#mde0aa08244" y="209.078069"/>
     <use style="fill:#006ba4;stroke:#006ba4;" x="173.601884" xlink:href="#mde0aa08244" y="187.284414"/>
     <use style="fill:#006ba4;stroke:#006ba4;" x="195.537056" xlink:href="#mde0aa08244" y="165.490759"/>
     <use style="fill:#006ba4;stroke:#006ba4;" x="217.472228" xlink:href="#mde0aa08244" y="143.697103"/>
     <use style="fill:#006ba4;stroke:#006ba4;" x="239.407401" xlink:href="#mde0aa08244" y="121.903448"/>
     <use style="fill:#006ba4;stroke:#006ba4;" x="261.342573" xlink:href="#mde0aa08244" y="100.109793"/>
     <use style="fill:#006ba4;stroke:#006ba4;" x="283.277746" xlink:href="#mde0aa08244" y="78.316138"/>
     <use style="fill:#006ba4;stroke:#006ba4;" x="305.212918" xlink:href="#mde0aa08244" y="56.522483"/>
     <use style="fill:#006ba4;stroke:#006ba4;" x="327.148091" xlink:href="#mde0aa08244" y="34.728828"/>
     <use style="fill:#006ba4;stroke:#006ba4;" x="349.083263" xlink:href="#mde0aa08244" y="12.935172"/>
     <use style="fill:#006ba4;stroke:#006ba4;" x="363.108923" xlink:href="#mde0aa08244" y="-1"/>
    </g>
   </g>
   <g id="line2d_2">
    <defs>
     <path d="M 0 2 
L 0 -2 
" id="md91a83240b" style="stroke:#808080;"/>
    </defs>
    <g clip-path="url(#p36eb30e508)">
     <use style="fill:#808080;stroke:#808080;" x="36.795677" xlink:href="#md91a83240b" y="57.096"/>
    </g>
   </g>
   <g id="line2d_3">
    <g clip-path="url(#p36eb30e508)">
     <use style="fill:#808080;stroke:#808080;" x="237.675677" xlink:href="#md91a83240b" y="57.096"/>
    </g>
   </g>
   <g id="line2d_4">
    <defs>
     <path d="M 2 0 
L -2 -0 
" id="m75de841155" style="stroke:#808080;"/>
    </defs>
    <g clip-path="url(#p36eb30e508)">
     <use style="fill:#808080;stroke:#808080;" x="137.235677" xlink:href="#m75de841155" y="90.36"/>
    </g>
   </g>
   <g id="line2d_5">
    <g clip-path="url(#p36eb30e508)">
     <use style="fill:#808080;stroke:#808080;" x="137.235677" xlink:href="#m75de841155" y="23.832"/>
    </g>
   </g>
   <g id="line2d_6">
    <defs>
     <path d="M -3 3 
L 3 3 
L 3 -3 
L -3 -3 
z
" id="m5b7fe3d11c" style="stroke:#cc0000;stroke-linejoin:miter;"/>
    </defs>
    <g clip-path="url(#p36eb30e508)">
     <use style="fill:#cc0000;stroke:#cc0000;stroke-linejoin:miter;" x="283.277746" xlink:href="#m5b7fe3d11c" y="78.316138"/>
    </g>
   </g>
   <g id="line2d_7">
    <defs>
     <path d="M 0 3 
C 0.795609 3 1.55874 2.683901 2.12132 2.12132 
C 2.683901 1.55874 3 0.795609 3 0 
C 3 -0.795609 2.683901 -1.55874 2.12132 -2.12132 
C 1.55874 -2.683901 0.795609 -3 0 -3 
C -0.795609 -3 -1.55874 -2.683901 -2.12132 -2.12132 
C -2.683901 -1.55874 -3 -0.795609 -3 0 
C -3 0.795609 -2.683901 1.55874 -2.12132 2.12132 
C -1.55874 2.683901 -0.795609 3 0 3 
z
" id="m903a515925" style="stroke:#808080;"/>
    </defs>
    <g clip-path="url(#p36eb30e508)">
     <use style="fill:#808080;stroke:#808080;" x="137.235677" xlink:href="#m903a515925" y="57.096"/>
    </g>
   </g>
   <g id="patch_4">
    <path d="M 20.055677 173.52 
L 20.055677 7.2 
" style="fill:none;stroke:#000000;stroke-linecap:square;stroke-linejoin:miter;stroke-width:0.8;"/>
   </g>
   <g id="patch_5">
    <path d="M 354.855677 173.52 
L 354.855677 7.2 
" style="fill:none;stroke:#000000;stroke-linecap:square;stroke-linejoin:miter;stroke-width:0.8;"/>
   </g>
   <g id="patch_6">
    <path d="M 20.055677 173.52 
L 354.855677 173.52 
" style="fill:none;stroke:#000000;stroke-linecap:square;stroke-linejoin:miter;stroke-width:0.8;"/>
   </g>
   <g id="patch_7">
    <path d="M 20.055677 7.2 
L 354.855677 7.2 
" style="fill:none;stroke:#000000;stroke-linecap:square;stroke-linejoin:miter;stroke-width:0.8;"/>
   </g>
   <g id="text_3">
    <!-- $\chi^2(x)$ -->
    <defs>
     <path d="M 33 16.234375 
C 30.296875 24.46875 30.90625 23.671875 28.40625 30.609375 
C 25.296875 39.140625 24.5 39.84375 23.09375 41.234375 
C 21.296875 42.8125 17.90625 44 14.40625 44 
C 8.796875 44 6.09375 38.84375 6.09375 37.546875 
C 6.09375 36.953125 6.59375 36.65625 7.203125 36.65625 
C 8 36.65625 8.203125 37.15625 8.296875 37.546875 
C 9.796875 41.421875 12.90625 42.015625 13.796875 42.015625 
C 16.703125 42.015625 19.5 34.875 21.296875 30.125 
C 23.703125 24.0625 24.90625 19.890625 27.59375 10.265625 
L 4 -16.390625 
C 3.09375 -17.484375 3.09375 -17.875 3.09375 -17.984375 
C 3.09375 -18.78125 3.59375 -18.984375 4 -18.984375 
C 4.40625 -18.984375 4.703125 -18.78125 5 -18.484375 
C 7.796875 -15.6875 14 -8.328125 16.59375 -5.34375 
L 28.203125 7.796875 
C 33.09375 -7.484375 33.09375 -7.6875 34.59375 -11.359375 
C 36.203125 -15.125 38.296875 -20 46.796875 -20 
C 52.5 -20 55.09375 -14.921875 55.09375 -13.53125 
C 55.09375 -12.84375 54.5 -12.640625 54 -12.640625 
C 53.203125 -12.640625 53.09375 -13.046875 52.796875 -13.84375 
C 51.703125 -16.609375 49.09375 -18 47.5 -18 
C 46.203125 -18 44.59375 -18 40.203125 -6.984375 
C 37.59375 -0.328125 35.296875 7.59375 33.59375 13.75 
L 57.296875 40.53125 
C 58.09375 41.4375 58.203125 41.53125 58.203125 41.921875 
C 58.203125 42.609375 57.703125 42.90625 57.203125 42.90625 
C 56.90625 42.90625 56.59375 42.90625 55.59375 41.828125 
z
" id="CMMI12-31"/>
     <path d="M 30.59375 -24.390625 
C 30.59375 -24.296875 30.59375 -24.09375 30.296875 -23.796875 
C 25.703125 -19.125 13.40625 -6.359375 13.40625 24.703125 
C 13.40625 55.765625 25.5 68.421875 30.40625 73.390625 
C 30.40625 73.5 30.59375 73.703125 30.59375 74 
C 30.59375 74.296875 30.296875 74.5 29.90625 74.5 
C 28.796875 74.5 20.296875 67.125 15.40625 56.15625 
C 10.40625 45.109375 9 34.359375 9 24.8125 
C 9 17.625 9.703125 5.484375 15.703125 -7.359375 
C 20.5 -17.734375 28.703125 -25 29.90625 -25 
C 30.40625 -25 30.59375 -24.796875 30.59375 -24.390625 
z
" id="CMR17-40"/>
     <path d="M 47.40625 40.71875 
C 44.203125 40.109375 43 37.71875 43 35.828125 
C 43 33.421875 44.90625 32.625 46.296875 32.625 
C 49.296875 32.625 51.40625 35.21875 51.40625 37.921875 
C 51.40625 42.109375 46.59375 44 42.40625 44 
C 36.296875 44 32.90625 38.015625 32 36.125 
C 29.703125 44 23.5 44 21.703125 44 
C 11.5 44 6.09375 30.9375 6.09375 28.734375 
C 6.09375 28.34375 6.5 27.84375 7.203125 27.84375 
C 8 27.84375 8.203125 28.4375 8.40625 28.84375 
C 11.796875 39.921875 18.5 42.015625 21.40625 42.015625 
C 25.90625 42.015625 26.796875 37.8125 26.796875 35.421875 
C 26.796875 33.234375 26.203125 30.9375 25 26.140625 
L 21.59375 12.46875 
C 20.09375 6.484375 17.203125 1 11.90625 1 
C 11.40625 1 8.90625 1 6.796875 2.296875 
C 10.40625 3 11.203125 5.984375 11.203125 7.1875 
C 11.203125 9.1875 9.703125 10.375 7.796875 10.375 
C 5.40625 10.375 2.796875 8.28125 2.796875 5.09375 
C 2.796875 0.890625 7.5 -1 11.796875 -1 
C 16.59375 -1 20 2.796875 22.09375 6.890625 
C 23.703125 1 28.703125 -1 32.40625 -1 
C 42.59375 -1 48 12.078125 48 14.265625 
C 48 14.765625 47.59375 15.171875 47 15.171875 
C 46.09375 15.171875 46 14.671875 45.703125 13.875 
C 43 5.09375 37.203125 1 32.703125 1 
C 29.203125 1 27.296875 3.59375 27.296875 7.6875 
C 27.296875 9.875 27.703125 11.46875 29.296875 18.0625 
L 32.796875 31.625 
C 34.296875 37.625 37.703125 42.015625 42.296875 42.015625 
C 42.5 42.015625 45.296875 42.015625 47.40625 40.71875 
z
" id="CMMI12-120"/>
     <path d="M 26.296875 24.703125 
C 26.296875 31.875 25.59375 44.015625 19.59375 56.859375 
C 14.796875 67.234375 6.59375 74.5 5.40625 74.5 
C 5.09375 74.5 4.703125 74.390625 4.703125 73.890625 
C 4.703125 73.703125 4.796875 73.59375 4.90625 73.390625 
C 9.703125 68.40625 21.90625 55.75 21.90625 24.75 
C 21.90625 -6.359375 9.796875 -19.015625 4.90625 -24.015625 
C 4.796875 -24.203125 4.703125 -24.3125 4.703125 -24.5 
C 4.703125 -25 5.09375 -25 5.40625 -25 
C 6.5 -25 15 -17.625 19.90625 -6.65625 
C 24.90625 4.390625 26.296875 15.140625 26.296875 24.703125 
z
" id="CMR17-41"/>
    </defs>
    <g transform="translate(193.516711 82.674869)scale(0.1 -0.1)">
     <use transform="scale(0.996264)" xlink:href="#CMMI12-31"/>
     <use transform="translate(61.112959 36.153639)scale(0.697382)" xlink:href="#CMR17-50"/>
     <use transform="translate(93.594273 0)scale(0.996264)" xlink:href="#CMR17-40"/>
     <use transform="translate(128.875041 0)scale(0.996264)" xlink:href="#CMMI12-120"/>
     <use transform="translate(184.3091 0)scale(0.996264)" xlink:href="#CMR17-41"/>
    </g>
   </g>
  </g>
 </g>
 <defs>
  <clipPath id="p36eb30e508">
   <rect height="166.32" width="334.8" x="20.055677" y="7.2"/>
  </clipPath>
 </defs>
</svg>
