<?xml version="1.0" encoding="utf-8" standalone="no"?>
<!DOCTYPE svg PUBLIC "-//W3C//DTD SVG 1.1//EN"
  "http://www.w3.org/Graphics/SVG/1.1/DTD/svg11.dtd">
<!-- Created with matplotlib (https://matplotlib.org/) -->
<svg height="193.575677pt" version="1.1" viewBox="0 0 362.055677 193.575677" width="362.055677pt" xmlns="http://www.w3.org/2000/svg" xmlns:xlink="http://www.w3.org/1999/xlink">
 <defs>
  <style type="text/css">
*{stroke-linecap:butt;stroke-linejoin:round;}
  </style>
 </defs>
 <g id="figure_1">
  <g id="patch_1">
   <path d="M 0 193.575677 
L 362.055677 193.575677 
L 362.055677 0 
L 0 0 
z
" style="fill:none;"/>
  </g>
  <g id="axes_1">
   <g id="patch_2">
    <path d="M 20.055677 173.52 
L 354.855677 173.52 
L 354.855677 7.2 
L 20.055677 7.2 
z
" style="fill:none;"/>
   </g>
   <g id="matplotlib.axis_1">
    <g id="text_1">
     <!-- $y_1$ -->
     <defs>
      <path d="M 26.296875 -10.9375 
C 23.59375 -14.671875 19.703125 -18 14.796875 -18 
C 13.59375 -18 8.796875 -18 7.296875 -13.890625 
C 7.59375 -13.984375 8.09375 -13.984375 8.296875 -13.984375 
C 11.296875 -13.984375 13.296875 -11.390625 13.296875 -9.09375 
C 13.296875 -6.796875 11.40625 -6 9.90625 -6 
C 8.296875 -6 4.796875 -7.15625 4.796875 -11.859375 
C 4.796875 -16.734375 9.09375 -20.09375 14.796875 -20.09375 
C 24.796875 -20.09375 34.90625 -10.9375 37.703125 0.09375 
L 47.5 38.828125 
C 47.59375 39.328125 47.796875 39.9375 47.796875 40.53125 
C 47.796875 42.015625 46.59375 43.015625 45.09375 43.015625 
C 44.203125 43.015625 42.09375 42.609375 41.296875 39.609375 
L 33.90625 10.28125 
C 33.40625 8.484375 33.40625 8.28125 32.59375 7.1875 
C 30.59375 4.390625 27.296875 1 22.5 1 
C 16.90625 1 16.40625 6.484375 16.40625 9.1875 
C 16.40625 14.875 19.09375 22.546875 21.796875 29.734375 
C 22.90625 32.625 23.5 34.03125 23.5 36.015625 
C 23.5 40.21875 20.5 44 15.59375 44 
C 6.40625 44 2.703125 29.53125 2.703125 28.734375 
C 2.703125 28.34375 3.09375 27.84375 3.796875 27.84375 
C 4.703125 27.84375 4.796875 28.234375 5.203125 29.640625 
C 7.59375 38.015625 11.40625 42.015625 15.296875 42.015625 
C 16.203125 42.015625 17.90625 42.015625 17.90625 38.71875 
C 17.90625 36.125 16.796875 33.234375 15.296875 29.4375 
C 10.40625 16.359375 10.40625 13.078125 10.40625 10.671875 
C 10.40625 1.203125 17.203125 -1 22.203125 -1 
C 25.09375 -1 28.703125 -0.09375 32.203125 3.59375 
L 32.296875 3.5 
C 30.796875 -2.296875 29.796875 -6.125 26.296875 -10.9375 
z
" id="CMMI12-121"/>
      <path d="M 26.59375 63.40625 
C 26.59375 65.5 26.5 65.5 25.09375 65.5 
C 21.203125 61.1875 15.296875 59.796875 9.703125 59.796875 
C 9.40625 59.796875 8.90625 59.796875 8.796875 59.5 
C 8.703125 59.296875 8.703125 59.09375 8.703125 57 
C 11.796875 57 17 57.59375 21 59.984375 
L 21 7.203125 
C 21 3.6875 20.796875 2.5 12.203125 2.5 
L 9.203125 2.5 
L 9.203125 0 
C 14 0 19 0 23.796875 0 
C 28.59375 0 33.59375 0 38.40625 0 
L 38.40625 2.5 
L 35.40625 2.5 
C 26.796875 2.5 26.59375 3.59375 26.59375 7.15625 
z
" id="CMR17-49"/>
     </defs>
     <g transform="translate(183.027808 184.438498)scale(0.1 -0.1)">
      <use transform="translate(0 14.943915)scale(0.996264)" xlink:href="#CMMI12-121"/>
      <use transform="translate(47.564188 0)scale(0.697382)" xlink:href="#CMR17-49"/>
     </g>
    </g>
   </g>
   <g id="matplotlib.axis_2">
    <g id="text_2">
     <!-- $y_2$ -->
     <defs>
      <path d="M 41.703125 15.453125 
L 39.90625 15.453125 
C 38.90625 8.375 38.09375 7.171875 37.703125 6.5625 
C 37.203125 5.765625 30 5.765625 28.59375 5.765625 
L 9.40625 5.765625 
C 13 9.671875 20 16.75 28.5 24.953125 
C 34.59375 30.734375 41.703125 37.53125 41.703125 47.421875 
C 41.703125 59.21875 32.296875 66 21.796875 66 
C 10.796875 66 4.09375 56.3125 4.09375 47.34375 
C 4.09375 43.4375 7 42.9375 8.203125 42.9375 
C 9.203125 42.9375 12.203125 43.546875 12.203125 47.03125 
C 12.203125 50.109375 9.59375 51 8.203125 51 
C 7.59375 51 7 50.90625 6.59375 50.703125 
C 8.5 59.21875 14.296875 63.40625 20.40625 63.40625 
C 29.09375 63.40625 34.796875 56.515625 34.796875 47.421875 
C 34.796875 38.734375 29.703125 31.25 24 24.75 
L 4.09375 2.28125 
L 4.09375 0 
L 39.296875 0 
z
" id="CMR17-50"/>
     </defs>
     <g transform="translate(14.118498 94.787869)rotate(-90)scale(0.1 -0.1)">
      <use transform="translate(0 14.943915)scale(0.996264)" xlink:href="#CMMI12-121"/>
      <use transform="translate(47.564188 0)scale(0.697382)" xlink:href="#CMR17-50"/>
     </g>
    </g>
   </g>
   <g id="LineCollection_1">
    <path clip-path="url(#p957e827f8d)" d="M 36.795677 57.096 
L 237.675677 57.096 
" style="fill:none;stroke:#808080;stroke-width:1.5;"/>
   </g>
   <g id="LineCollection_2">
    <path clip-path="url(#p957e827f8d)" d="M 137.235677 90.36 
L 137.235677 23.832 
" style="fill:none;stroke:#808080;stroke-width:1.5;"/>
   </g>
   <g id="line2d_1">
    <path clip-path="url(#p957e827f8d)" d="M 166.263275 194.575677 
L 173.601884 187.284414 
L 195.537056 165.490759 
L 217.472228 143.697103 
L 239.407401 121.903448 
L 261.342573 100.109793 
L 283.277746 78.316138 
L 305.212918 56.522483 
L 327.148091 34.728828 
L 349.083263 12.935172 
L 363.055677 -0.947097 
" style="fill:none;stroke:#006ba4;stroke-linecap:square;stroke-width:1.5;"/>
    <defs>
     <path d="M 0 1.5 
C 0.397805 1.5 0.77937 1.341951 1.06066 1.06066 
C 1.341951 0.77937 1.5 0.397805 1.5 0 
C 1.5 -0.397805 1.341951 -0.77937 1.06066 -1.06066 
C 0.77937 -1.341951 0.397805 -1.5 0 -1.5 
C -0.397805 -1.5 -0.77937 -1.341951 -1.06066 -1.06066 
C -1.341951 -0.77937 -1.5 -0.397805 -1.5 0 
C -1.5 0.397805 -1.341951 0.77937 -1.06066 1.06066 
C -0.77937 1.341951 -0.397805 1.5 0 1.5 
z
" id="m4cfb90506d" style="stroke:#006ba4;"/>
    </defs>
    <g clip-path="url(#p957e827f8d)">
     <use style="fill:#006ba4;stroke:#006ba4;" x="20.055677" xlink:href="#m4cfb90506d" y="339.84"/>
     <use style="fill:#006ba4;stroke:#006ba4;" x="41.990849" xlink:href="#m4cfb90506d" y="318.046345"/>
     <use style="fill:#006ba4;stroke:#006ba4;" x="63.926022" xlink:href="#m4cfb90506d" y="296.25269"/>
     <use style="fill:#006ba4;stroke:#006ba4;" x="85.861194" xlink:href="#m4cfb90506d" y="274.459034"/>
     <use style="fill:#006ba4;stroke:#006ba4;" x="107.796366" xlink:href="#m4cfb90506d" y="252.665379"/>
     <use style="fill:#006ba4;stroke:#006ba4;" x="129.731539" xlink:href="#m4cfb90506d" y="230.871724"/>
     <use style="fill:#006ba4;stroke:#006ba4;" x="151.666711" xlink:href="#m4cfb90506d" y="209.078069"/>
     <use style="fill:#006ba4;stroke:#006ba4;" x="173.601884" xlink:href="#m4cfb90506d" y="187.284414"/>
     <use style="fill:#006ba4;stroke:#006ba4;" x="195.537056" xlink:href="#m4cfb90506d" y="165.490759"/>
     <use style="fill:#006ba4;stroke:#006ba4;" x="217.472228" xlink:href="#m4cfb90506d" y="143.697103"/>
     <use style="fill:#006ba4;stroke:#006ba4;" x="239.407401" xlink:href="#m4cfb90506d" y="121.903448"/>
     <use style="fill:#006ba4;stroke:#006ba4;" x="261.342573" xlink:href="#m4cfb90506d" y="100.109793"/>
     <use style="fill:#006ba4;stroke:#006ba4;" x="283.277746" xlink:href="#m4cfb90506d" y="78.316138"/>
     <use style="fill:#006ba4;stroke:#006ba4;" x="305.212918" xlink:href="#m4cfb90506d" y="56.522483"/>
     <use style="fill:#006ba4;stroke:#006ba4;" x="327.148091" xlink:href="#m4cfb90506d" y="34.728828"/>
     <use style="fill:#006ba4;stroke:#006ba4;" x="349.083263" xlink:href="#m4cfb90506d" y="12.935172"/>
     <use style="fill:#006ba4;stroke:#006ba4;" x="363.108923" xlink:href="#m4cfb90506d" y="-1"/>
    </g>
   </g>
   <g id="line2d_2">
    <defs>
     <path d="M 0 2 
L 0 -2 
" id="m5191fa161b" style="stroke:#808080;"/>
    </defs>
    <g clip-path="url(#p957e827f8d)">
     <use style="fill:#808080;stroke:#808080;" x="36.795677" xlink:href="#m5191fa161b" y="57.096"/>
    </g>
   </g>
   <g id="line2d_3">
    <g clip-path="url(#p957e827f8d)">
     <use style="fill:#808080;stroke:#808080;" x="237.675677" xlink:href="#m5191fa161b" y="57.096"/>
    </g>
   </g>
   <g id="line2d_4">
    <defs>
     <path d="M 2 0 
L -2 -0 
" id="m6551dc903a" style="stroke:#808080;"/>
    </defs>
    <g clip-path="url(#p957e827f8d)">
     <use style="fill:#808080;stroke:#808080;" x="137.235677" xlink:href="#m6551dc903a" y="90.36"/>
    </g>
   </g>
   <g id="line2d_5">
    <g clip-path="url(#p957e827f8d)">
     <use style="fill:#808080;stroke:#808080;" x="137.235677" xlink:href="#m6551dc903a" y="23.832"/>
    </g>
   </g>
   <g id="line2d_6">
    <defs>
     <path d="M 0 3 
C 0.795609 3 1.55874 2.683901 2.12132 2.12132 
C 2.683901 1.55874 3 0.795609 3 0 
C 3 -0.795609 2.683901 -1.55874 2.12132 -2.12132 
C 1.55874 -2.683901 0.795609 -3 0 -3 
C -0.795609 -3 -1.55874 -2.683901 -2.12132 -2.12132 
C -2.683901 -1.55874 -3 -0.795609 -3 0 
C -3 0.795609 -2.683901 1.55874 -2.12132 2.12132 
C -1.55874 2.683901 -0.795609 3 0 3 
z
" id="mabf9fb8a89" style="stroke:#808080;"/>
    </defs>
    <g clip-path="url(#p957e827f8d)">
     <use style="fill:#808080;stroke:#808080;" x="137.235677" xlink:href="#mabf9fb8a89" y="57.096"/>
    </g>
   </g>
   <g id="patch_3">
    <path d="M 20.055677 173.52 
L 20.055677 7.2 
" style="fill:none;stroke:#000000;stroke-linecap:square;stroke-linejoin:miter;stroke-width:0.8;"/>
   </g>
   <g id="patch_4">
    <path d="M 354.855677 173.52 
L 354.855677 7.2 
" style="fill:none;stroke:#000000;stroke-linecap:square;stroke-linejoin:miter;stroke-width:0.8;"/>
   </g>
   <g id="patch_5">
    <path d="M 20.055677 173.52 
L 354.855677 173.52 
" style="fill:none;stroke:#000000;stroke-linecap:square;stroke-linejoin:miter;stroke-width:0.8;"/>
   </g>
   <g id="patch_6">
    <path d="M 20.055677 7.2 
L 354.855677 7.2 
" style="fill:none;stroke:#000000;stroke-linecap:square;stroke-linejoin:miter;stroke-width:0.8;"/>
   </g>
  </g>
 </g>
 <defs>
  <clipPath id="p957e827f8d">
   <rect height="166.32" width="334.8" x="20.055677" y="7.2"/>
  </clipPath>
 </defs>
</svg>
