<?xml version="1.0" encoding="utf-8" standalone="no"?>
<!DOCTYPE svg PUBLIC "-//W3C//DTD SVG 1.1//EN"
  "http://www.w3.org/Graphics/SVG/1.1/DTD/svg11.dtd">
<svg xmlns:xlink="http://www.w3.org/1999/xlink" width="404.478505pt" height="212.890603pt" viewBox="0 0 404.478505 212.890603" xmlns="http://www.w3.org/2000/svg" version="1.1">
 <metadata>
  <rdf:RDF xmlns:dc="http://purl.org/dc/elements/1.1/" xmlns:cc="http://creativecommons.org/ns#" xmlns:rdf="http://www.w3.org/1999/02/22-rdf-syntax-ns#">
   <cc:Work>
    <dc:type rdf:resource="http://purl.org/dc/dcmitype/StillImage"/>
    <dc:date>2025-06-03T17:15:45.827288</dc:date>
    <dc:format>image/svg+xml</dc:format>
    <dc:creator>
     <cc:Agent>
      <dc:title>Matplotlib v3.9.2, https://matplotlib.org/</dc:title>
     </cc:Agent>
    </dc:creator>
   </cc:Work>
  </rdf:RDF>
 </metadata>
 <defs>
  <style type="text/css">*{stroke-linejoin: round; stroke-linecap: butt}</style>
 </defs>
 <g id="figure_1">
  <g id="patch_1">
   <path d="M 0 212.890603 
L 404.478505 212.890603 
L 404.478505 0 
L 0 0 
L 0 212.890603 
z
" style="fill: none"/>
  </g>
  <g id="axes_1">
   <g id="patch_2">
    <path d="M 53.622798 176.979249 
L 388.422798 176.979249 
L 388.422798 10.659249 
L 53.622798 10.659249 
L 53.622798 176.979249 
z
" style="fill: none"/>
   </g>
   <g id="matplotlib.axis_1">
    <g id="xtick_1">
     <g id="line2d_1">
      <defs>
       <path id="mb93610827d" d="M 0 0 
L 0 3.5 
" style="stroke: #000000; stroke-width: 0.8"/>
      </defs>
      <g>
       <use xlink:href="#mb93610827d" x="80.054377" y="176.979249" style="stroke: #000000; stroke-width: 0.8"/>
      </g>
     </g>
     <g id="text_1">
      <!-- $\mathdefault{1.25}$ -->
      <g transform="translate(71.19867 190.897748) scale(0.1 -0.1)">
       <defs>
        <path id="CMR17-31" d="M 1702 4058 
C 1702 4192 1696 4192 1606 4192 
C 1357 3916 979 3827 621 3827 
C 602 3827 570 3827 563 3808 
C 557 3795 557 3782 557 3648 
C 755 3648 1088 3686 1344 3839 
L 1344 461 
C 1344 236 1331 160 781 160 
L 589 160 
L 589 0 
C 896 0 1216 0 1523 0 
C 1830 0 2150 0 2458 0 
L 2458 160 
L 2266 160 
C 1715 160 1702 230 1702 458 
L 1702 4058 
z
" transform="scale(0.015625)"/>
        <path id="CMMI12-3a" d="M 1178 307 
C 1178 492 1024 619 870 619 
C 685 619 557 466 557 313 
C 557 128 710 0 864 0 
C 1050 0 1178 153 1178 307 
z
" transform="scale(0.015625)"/>
        <path id="CMR17-32" d="M 2669 989 
L 2554 989 
C 2490 536 2438 459 2413 420 
C 2381 369 1920 369 1830 369 
L 602 369 
C 832 619 1280 1072 1824 1597 
C 2214 1967 2669 2402 2669 3035 
C 2669 3790 2067 4224 1395 4224 
C 691 4224 262 3604 262 3030 
C 262 2780 448 2748 525 2748 
C 589 2748 781 2787 781 3010 
C 781 3207 614 3264 525 3264 
C 486 3264 448 3258 422 3245 
C 544 3790 915 4058 1306 4058 
C 1862 4058 2227 3617 2227 3035 
C 2227 2479 1901 2000 1536 1584 
L 262 146 
L 262 0 
L 2515 0 
L 2669 989 
z
" transform="scale(0.015625)"/>
        <path id="CMR17-35" d="M 730 3692 
C 794 3666 1056 3584 1325 3584 
C 1920 3584 2246 3911 2432 4100 
C 2432 4157 2432 4192 2394 4192 
C 2387 4192 2374 4192 2323 4163 
C 2099 4058 1837 3973 1517 3973 
C 1325 3973 1037 3999 723 4139 
C 653 4171 640 4171 634 4171 
C 602 4171 595 4164 595 4037 
L 595 2203 
C 595 2089 595 2057 659 2057 
C 691 2057 704 2070 736 2114 
C 941 2401 1222 2522 1542 2522 
C 1766 2522 2246 2382 2246 1289 
C 2246 1085 2246 715 2054 421 
C 1894 159 1645 25 1370 25 
C 947 25 518 320 403 814 
C 429 807 480 795 506 795 
C 589 795 749 840 749 1038 
C 749 1210 627 1280 506 1280 
C 358 1280 262 1190 262 1011 
C 262 454 704 -128 1382 -128 
C 2042 -128 2669 440 2669 1264 
C 2669 2030 2170 2624 1549 2624 
C 1222 2624 947 2503 730 2274 
L 730 3692 
z
" transform="scale(0.015625)"/>
       </defs>
       <use xlink:href="#CMR17-31" transform="scale(0.996264)"/>
       <use xlink:href="#CMMI12-3a" transform="translate(45.690477 0) scale(0.996264)"/>
       <use xlink:href="#CMR17-32" transform="translate(72.787654 0) scale(0.996264)"/>
       <use xlink:href="#CMR17-35" transform="translate(118.478131 0) scale(0.996264)"/>
      </g>
     </g>
    </g>
    <g id="xtick_2">
     <g id="line2d_2">
      <g>
       <use xlink:href="#mb93610827d" x="124.107009" y="176.979249" style="stroke: #000000; stroke-width: 0.8"/>
      </g>
     </g>
     <g id="text_2">
      <!-- $\mathdefault{1.50}$ -->
      <g transform="translate(115.251301 190.897748) scale(0.1 -0.1)">
       <defs>
        <path id="CMR17-30" d="M 2688 2025 
C 2688 2416 2682 3080 2413 3591 
C 2176 4039 1798 4198 1466 4198 
C 1158 4198 768 4058 525 3597 
C 269 3118 243 2524 243 2025 
C 243 1661 250 1106 448 619 
C 723 -39 1216 -128 1466 -128 
C 1760 -128 2208 -7 2470 600 
C 2662 1042 2688 1559 2688 2025 
z
M 1466 -26 
C 1056 -26 813 325 723 812 
C 653 1188 653 1738 653 2096 
C 653 2588 653 2997 736 3387 
C 858 3929 1216 4096 1466 4096 
C 1728 4096 2067 3923 2189 3400 
C 2272 3036 2278 2607 2278 2096 
C 2278 1680 2278 1169 2202 792 
C 2067 95 1690 -26 1466 -26 
z
" transform="scale(0.015625)"/>
       </defs>
       <use xlink:href="#CMR17-31" transform="scale(0.996264)"/>
       <use xlink:href="#CMMI12-3a" transform="translate(45.690477 0) scale(0.996264)"/>
       <use xlink:href="#CMR17-35" transform="translate(72.787654 0) scale(0.996264)"/>
       <use xlink:href="#CMR17-30" transform="translate(118.478131 0) scale(0.996264)"/>
      </g>
     </g>
    </g>
    <g id="xtick_3">
     <g id="line2d_3">
      <g>
       <use xlink:href="#mb93610827d" x="168.15964" y="176.979249" style="stroke: #000000; stroke-width: 0.8"/>
      </g>
     </g>
     <g id="text_3">
      <!-- $\mathdefault{1.75}$ -->
      <g transform="translate(159.303933 190.897748) scale(0.1 -0.1)">
       <defs>
        <path id="CMR17-37" d="M 2886 3941 
L 2886 4081 
L 1382 4081 
C 634 4081 621 4165 595 4288 
L 480 4288 
L 294 3094 
L 410 3094 
C 429 3215 474 3540 550 3661 
C 589 3712 1062 3712 1171 3712 
L 2579 3712 
L 1869 2661 
C 1395 1954 1069 999 1069 165 
C 1069 89 1069 -128 1299 -128 
C 1530 -128 1530 89 1530 171 
L 1530 465 
C 1530 1508 1709 2196 2003 2636 
L 2886 3941 
z
" transform="scale(0.015625)"/>
       </defs>
       <use xlink:href="#CMR17-31" transform="scale(0.996264)"/>
       <use xlink:href="#CMMI12-3a" transform="translate(45.690477 0) scale(0.996264)"/>
       <use xlink:href="#CMR17-37" transform="translate(72.787654 0) scale(0.996264)"/>
       <use xlink:href="#CMR17-35" transform="translate(118.478131 0) scale(0.996264)"/>
      </g>
     </g>
    </g>
    <g id="xtick_4">
     <g id="line2d_4">
      <g>
       <use xlink:href="#mb93610827d" x="212.212272" y="176.979249" style="stroke: #000000; stroke-width: 0.8"/>
      </g>
     </g>
     <g id="text_4">
      <!-- $\mathdefault{2.00}$ -->
      <g transform="translate(203.356565 190.897748) scale(0.1 -0.1)">
       <use xlink:href="#CMR17-32" transform="scale(0.996264)"/>
       <use xlink:href="#CMMI12-3a" transform="translate(45.690477 0) scale(0.996264)"/>
       <use xlink:href="#CMR17-30" transform="translate(72.787654 0) scale(0.996264)"/>
       <use xlink:href="#CMR17-30" transform="translate(118.478131 0) scale(0.996264)"/>
      </g>
     </g>
    </g>
    <g id="xtick_5">
     <g id="line2d_5">
      <g>
       <use xlink:href="#mb93610827d" x="256.264903" y="176.979249" style="stroke: #000000; stroke-width: 0.8"/>
      </g>
     </g>
     <g id="text_5">
      <!-- $\mathdefault{2.25}$ -->
      <g transform="translate(247.409196 190.897748) scale(0.1 -0.1)">
       <use xlink:href="#CMR17-32" transform="scale(0.996264)"/>
       <use xlink:href="#CMMI12-3a" transform="translate(45.690477 0) scale(0.996264)"/>
       <use xlink:href="#CMR17-32" transform="translate(72.787654 0) scale(0.996264)"/>
       <use xlink:href="#CMR17-35" transform="translate(118.478131 0) scale(0.996264)"/>
      </g>
     </g>
    </g>
    <g id="xtick_6">
     <g id="line2d_6">
      <g>
       <use xlink:href="#mb93610827d" x="300.317535" y="176.979249" style="stroke: #000000; stroke-width: 0.8"/>
      </g>
     </g>
     <g id="text_6">
      <!-- $\mathdefault{2.50}$ -->
      <g transform="translate(291.461828 190.897748) scale(0.1 -0.1)">
       <use xlink:href="#CMR17-32" transform="scale(0.996264)"/>
       <use xlink:href="#CMMI12-3a" transform="translate(45.690477 0) scale(0.996264)"/>
       <use xlink:href="#CMR17-35" transform="translate(72.787654 0) scale(0.996264)"/>
       <use xlink:href="#CMR17-30" transform="translate(118.478131 0) scale(0.996264)"/>
      </g>
     </g>
    </g>
    <g id="xtick_7">
     <g id="line2d_7">
      <g>
       <use xlink:href="#mb93610827d" x="344.370166" y="176.979249" style="stroke: #000000; stroke-width: 0.8"/>
      </g>
     </g>
     <g id="text_7">
      <!-- $\mathdefault{2.75}$ -->
      <g transform="translate(335.514459 190.897748) scale(0.1 -0.1)">
       <use xlink:href="#CMR17-32" transform="scale(0.996264)"/>
       <use xlink:href="#CMMI12-3a" transform="translate(45.690477 0) scale(0.996264)"/>
       <use xlink:href="#CMR17-37" transform="translate(72.787654 0) scale(0.996264)"/>
       <use xlink:href="#CMR17-35" transform="translate(118.478131 0) scale(0.996264)"/>
      </g>
     </g>
    </g>
    <g id="xtick_8">
     <g id="line2d_8">
      <g>
       <use xlink:href="#mb93610827d" x="388.422798" y="176.979249" style="stroke: #000000; stroke-width: 0.8"/>
      </g>
     </g>
     <g id="text_8">
      <!-- $\mathdefault{3.00}$ -->
      <g transform="translate(379.567091 190.897748) scale(0.1 -0.1)">
       <defs>
        <path id="CMR17-33" d="M 1414 2157 
C 1984 2157 2234 1662 2234 1090 
C 2234 320 1824 25 1453 25 
C 1114 25 563 194 390 693 
C 422 680 454 680 486 680 
C 640 680 755 782 755 948 
C 755 1133 614 1216 486 1216 
C 378 1216 211 1165 211 926 
C 211 335 787 -128 1466 -128 
C 2176 -128 2720 430 2720 1085 
C 2720 1707 2208 2157 1600 2227 
C 2086 2328 2554 2756 2554 3329 
C 2554 3820 2048 4179 1472 4179 
C 890 4179 378 3829 378 3329 
C 378 3110 544 3072 627 3072 
C 762 3072 877 3155 877 3321 
C 877 3486 762 3569 627 3569 
C 602 3569 570 3569 544 3557 
C 730 3959 1235 4032 1459 4032 
C 1683 4032 2106 3925 2106 3320 
C 2106 3143 2080 2828 1862 2550 
C 1670 2304 1453 2304 1242 2284 
C 1210 2284 1062 2269 1037 2269 
C 992 2263 966 2257 966 2208 
C 966 2163 973 2157 1101 2157 
L 1414 2157 
z
" transform="scale(0.015625)"/>
       </defs>
       <use xlink:href="#CMR17-33" transform="scale(0.996264)"/>
       <use xlink:href="#CMMI12-3a" transform="translate(45.690477 0) scale(0.996264)"/>
       <use xlink:href="#CMR17-30" transform="translate(72.787654 0) scale(0.996264)"/>
       <use xlink:href="#CMR17-30" transform="translate(118.478131 0) scale(0.996264)"/>
      </g>
     </g>
    </g>
    <g id="text_9">
     <!-- $\lambda$ -->
     <g transform="translate(218.117015 203.753424) scale(0.1 -0.1)">
      <defs>
       <path id="CMMI12-15" d="M 1978 3965 
C 1818 4416 1312 4416 1229 4416 
C 1190 4416 1120 4416 1120 4352 
C 1120 4302 1158 4295 1190 4289 
C 1286 4276 1363 4263 1466 4080 
C 1530 3959 2189 2059 2189 2046 
C 2189 2040 2182 2033 2131 1982 
L 467 311 
C 390 234 339 183 339 102 
C 339 12 416 -64 518 -64 
C 544 -64 614 -51 653 -13 
C 755 82 1670 1194 2253 1881 
C 2419 1383 2624 797 2822 261 
C 2854 166 2886 76 2976 -6 
C 3040 -64 3053 -64 3232 -64 
L 3354 -64 
C 3379 -64 3424 -64 3424 -13 
C 3424 13 3418 19 3392 45 
C 3334 115 3290 229 3264 306 
L 1978 3965 
z
" transform="scale(0.015625)"/>
      </defs>
      <use xlink:href="#CMMI12-15" transform="scale(0.996264)"/>
     </g>
    </g>
   </g>
   <g id="matplotlib.axis_2">
    <g id="ytick_1">
     <g id="line2d_9">
      <defs>
       <path id="m325bcedb7c" d="M 0 0 
L -3.5 0 
" style="stroke: #000000; stroke-width: 0.8"/>
      </defs>
      <g>
       <use xlink:href="#m325bcedb7c" x="53.622798" y="176.979249" style="stroke: #000000; stroke-width: 0.8"/>
      </g>
     </g>
     <g id="text_10">
      <!-- $\mathdefault{−1.00}$ -->
      <g transform="translate(21.16264 180.438498) scale(0.1 -0.1)">
       <defs>
        <path id="CMSY10-0" d="M 4218 1472 
C 4326 1472 4442 1472 4442 1600 
C 4442 1728 4326 1728 4218 1728 
L 755 1728 
C 646 1728 531 1728 531 1600 
C 531 1472 646 1472 755 1472 
L 4218 1472 
z
" transform="scale(0.015625)"/>
       </defs>
       <use xlink:href="#CMSY10-0" transform="scale(0.996264)"/>
       <use xlink:href="#CMR17-31" transform="translate(77.487468 0) scale(0.996264)"/>
       <use xlink:href="#CMMI12-3a" transform="translate(123.177945 0) scale(0.996264)"/>
       <use xlink:href="#CMR17-30" transform="translate(150.275122 0) scale(0.996264)"/>
       <use xlink:href="#CMR17-30" transform="translate(195.965599 0) scale(0.996264)"/>
      </g>
     </g>
    </g>
    <g id="ytick_2">
     <g id="line2d_10">
      <g>
       <use xlink:href="#m325bcedb7c" x="53.622798" y="156.189249" style="stroke: #000000; stroke-width: 0.8"/>
      </g>
     </g>
     <g id="text_11">
      <!-- $\mathdefault{−0.75}$ -->
      <g transform="translate(21.16264 159.648498) scale(0.1 -0.1)">
       <use xlink:href="#CMSY10-0" transform="scale(0.996264)"/>
       <use xlink:href="#CMR17-30" transform="translate(77.487468 0) scale(0.996264)"/>
       <use xlink:href="#CMMI12-3a" transform="translate(123.177945 0) scale(0.996264)"/>
       <use xlink:href="#CMR17-37" transform="translate(150.275122 0) scale(0.996264)"/>
       <use xlink:href="#CMR17-35" transform="translate(195.965599 0) scale(0.996264)"/>
      </g>
     </g>
    </g>
    <g id="ytick_3">
     <g id="line2d_11">
      <g>
       <use xlink:href="#m325bcedb7c" x="53.622798" y="135.399249" style="stroke: #000000; stroke-width: 0.8"/>
      </g>
     </g>
     <g id="text_12">
      <!-- $\mathdefault{−0.50}$ -->
      <g transform="translate(21.16264 138.858498) scale(0.1 -0.1)">
       <use xlink:href="#CMSY10-0" transform="scale(0.996264)"/>
       <use xlink:href="#CMR17-30" transform="translate(77.487468 0) scale(0.996264)"/>
       <use xlink:href="#CMMI12-3a" transform="translate(123.177945 0) scale(0.996264)"/>
       <use xlink:href="#CMR17-35" transform="translate(150.275122 0) scale(0.996264)"/>
       <use xlink:href="#CMR17-30" transform="translate(195.965599 0) scale(0.996264)"/>
      </g>
     </g>
    </g>
    <g id="ytick_4">
     <g id="line2d_12">
      <g>
       <use xlink:href="#m325bcedb7c" x="53.622798" y="114.609249" style="stroke: #000000; stroke-width: 0.8"/>
      </g>
     </g>
     <g id="text_13">
      <!-- $\mathdefault{−0.25}$ -->
      <g transform="translate(21.16264 118.068498) scale(0.1 -0.1)">
       <use xlink:href="#CMSY10-0" transform="scale(0.996264)"/>
       <use xlink:href="#CMR17-30" transform="translate(77.487468 0) scale(0.996264)"/>
       <use xlink:href="#CMMI12-3a" transform="translate(123.177945 0) scale(0.996264)"/>
       <use xlink:href="#CMR17-32" transform="translate(150.275122 0) scale(0.996264)"/>
       <use xlink:href="#CMR17-35" transform="translate(195.965599 0) scale(0.996264)"/>
      </g>
     </g>
    </g>
    <g id="ytick_5">
     <g id="line2d_13">
      <g>
       <use xlink:href="#m325bcedb7c" x="53.622798" y="93.819249" style="stroke: #000000; stroke-width: 0.8"/>
      </g>
     </g>
     <g id="text_14">
      <!-- $\mathdefault{0.00}$ -->
      <g transform="translate(28.911384 97.278498) scale(0.1 -0.1)">
       <use xlink:href="#CMR17-30" transform="scale(0.996264)"/>
       <use xlink:href="#CMMI12-3a" transform="translate(45.690477 0) scale(0.996264)"/>
       <use xlink:href="#CMR17-30" transform="translate(72.787654 0) scale(0.996264)"/>
       <use xlink:href="#CMR17-30" transform="translate(118.478131 0) scale(0.996264)"/>
      </g>
     </g>
    </g>
    <g id="ytick_6">
     <g id="line2d_14">
      <g>
       <use xlink:href="#m325bcedb7c" x="53.622798" y="73.029249" style="stroke: #000000; stroke-width: 0.8"/>
      </g>
     </g>
     <g id="text_15">
      <!-- $\mathdefault{0.25}$ -->
      <g transform="translate(28.911384 76.488498) scale(0.1 -0.1)">
       <use xlink:href="#CMR17-30" transform="scale(0.996264)"/>
       <use xlink:href="#CMMI12-3a" transform="translate(45.690477 0) scale(0.996264)"/>
       <use xlink:href="#CMR17-32" transform="translate(72.787654 0) scale(0.996264)"/>
       <use xlink:href="#CMR17-35" transform="translate(118.478131 0) scale(0.996264)"/>
      </g>
     </g>
    </g>
    <g id="ytick_7">
     <g id="line2d_15">
      <g>
       <use xlink:href="#m325bcedb7c" x="53.622798" y="52.239249" style="stroke: #000000; stroke-width: 0.8"/>
      </g>
     </g>
     <g id="text_16">
      <!-- $\mathdefault{0.50}$ -->
      <g transform="translate(28.911384 55.698498) scale(0.1 -0.1)">
       <use xlink:href="#CMR17-30" transform="scale(0.996264)"/>
       <use xlink:href="#CMMI12-3a" transform="translate(45.690477 0) scale(0.996264)"/>
       <use xlink:href="#CMR17-35" transform="translate(72.787654 0) scale(0.996264)"/>
       <use xlink:href="#CMR17-30" transform="translate(118.478131 0) scale(0.996264)"/>
      </g>
     </g>
    </g>
    <g id="ytick_8">
     <g id="line2d_16">
      <g>
       <use xlink:href="#m325bcedb7c" x="53.622798" y="31.449249" style="stroke: #000000; stroke-width: 0.8"/>
      </g>
     </g>
     <g id="text_17">
      <!-- $\mathdefault{0.75}$ -->
      <g transform="translate(28.911384 34.908498) scale(0.1 -0.1)">
       <use xlink:href="#CMR17-30" transform="scale(0.996264)"/>
       <use xlink:href="#CMMI12-3a" transform="translate(45.690477 0) scale(0.996264)"/>
       <use xlink:href="#CMR17-37" transform="translate(72.787654 0) scale(0.996264)"/>
       <use xlink:href="#CMR17-35" transform="translate(118.478131 0) scale(0.996264)"/>
      </g>
     </g>
    </g>
    <g id="ytick_9">
     <g id="line2d_17">
      <g>
       <use xlink:href="#m325bcedb7c" x="53.622798" y="10.659249" style="stroke: #000000; stroke-width: 0.8"/>
      </g>
     </g>
     <g id="text_18">
      <!-- $\mathdefault{1.00}$ -->
      <g transform="translate(28.911384 14.118498) scale(0.1 -0.1)">
       <use xlink:href="#CMR17-31" transform="scale(0.996264)"/>
       <use xlink:href="#CMMI12-3a" transform="translate(45.690477 0) scale(0.996264)"/>
       <use xlink:href="#CMR17-30" transform="translate(72.787654 0) scale(0.996264)"/>
       <use xlink:href="#CMR17-30" transform="translate(118.478131 0) scale(0.996264)"/>
      </g>
     </g>
    </g>
    <g id="text_19">
     <!-- $F(\lambda)$ -->
     <g transform="translate(14.67198 104.494526) rotate(-90) scale(0.1 -0.1)">
      <defs>
       <path id="CMMI12-46" d="M 1901 2055 
L 2515 2055 
C 3002 2055 3040 1946 3040 1761 
C 3040 1678 3027 1589 2995 1448 
C 2982 1423 2976 1391 2976 1378 
C 2976 1333 3002 1308 3046 1308 
C 3098 1308 3104 1333 3130 1435 
L 3501 2935 
C 3501 2961 3482 2999 3437 2999 
C 3379 2999 3373 2974 3347 2863 
C 3213 2376 3085 2240 2528 2240 
L 1946 2240 
L 2362 3926 
C 2419 4154 2432 4154 2694 4154 
L 3552 4154 
C 4352 4154 4467 3918 4467 3464 
C 4467 3426 4467 3285 4448 3119 
C 4442 3094 4429 3011 4429 2985 
C 4429 2934 4461 2915 4499 2915 
C 4544 2915 4570 2941 4582 3055 
L 4717 4174 
C 4717 4195 4730 4263 4730 4277 
C 4730 4352 4672 4352 4557 4352 
L 1523 4352 
C 1402 4352 1338 4352 1338 4229 
C 1338 4154 1382 4154 1491 4154 
C 1888 4154 1888 4113 1888 4050 
C 1888 4018 1882 3992 1862 3922 
L 998 473 
C 941 249 928 185 480 185 
C 358 185 294 185 294 70 
C 294 0 352 0 390 0 
C 512 0 640 0 762 0 
L 1594 0 
C 1734 0 1888 0 2029 0 
C 2086 0 2163 0 2163 115 
C 2163 185 2125 185 1984 185 
C 1478 185 1466 229 1466 324 
C 1466 356 1478 406 1491 449 
L 1901 2055 
z
" transform="scale(0.015625)"/>
       <path id="CMR17-28" d="M 1958 -1561 
C 1958 -1555 1958 -1542 1939 -1523 
C 1645 -1224 858 -407 858 1581 
C 858 3569 1632 4379 1946 4697 
C 1946 4704 1958 4717 1958 4736 
C 1958 4755 1939 4768 1914 4768 
C 1843 4768 1299 4296 986 3594 
C 666 2887 576 2199 576 1588 
C 576 1128 621 351 1005 -471 
C 1312 -1135 1837 -1600 1914 -1600 
C 1946 -1600 1958 -1587 1958 -1561 
z
" transform="scale(0.015625)"/>
       <path id="CMR17-29" d="M 1683 1581 
C 1683 2040 1638 2817 1254 3639 
C 947 4303 422 4768 346 4768 
C 326 4768 301 4761 301 4729 
C 301 4717 307 4710 314 4697 
C 621 4378 1402 3568 1402 1584 
C 1402 -407 627 -1217 314 -1537 
C 307 -1549 301 -1556 301 -1568 
C 301 -1600 326 -1600 346 -1600 
C 416 -1600 960 -1128 1274 -426 
C 1594 281 1683 969 1683 1581 
z
" transform="scale(0.015625)"/>
      </defs>
      <use xlink:href="#CMMI12-46" transform="scale(0.996264)"/>
      <use xlink:href="#CMR17-28" transform="translate(76.696793 0) scale(0.996264)"/>
      <use xlink:href="#CMMI12-15" transform="translate(111.97756 0) scale(0.996264)"/>
      <use xlink:href="#CMR17-29" transform="translate(168.881632 0) scale(0.996264)"/>
     </g>
    </g>
   </g>
   <g id="line2d_18">
    <path d="M 36.001745 148.404916 
L 37.589228 40.285874 
L 38.369329 -1 
M 42.302624 -1 
L 42.880835 24.51064 
L 45.526639 152.662955 
L 46.055799 171.946472 
L 46.58496 186.968213 
L 47.114121 197.209717 
L 47.643282 202.388682 
L 48.172442 202.460541 
L 48.701603 197.609586 
L 49.230764 188.230599 
L 49.759925 174.902252 
L 50.818246 139.427231 
L 53.46405 41.239904 
L 53.993211 26.839541 
L 54.522371 15.720353 
L 55.051532 8.25715 
L 55.580693 4.657278 
L 56.109854 4.95835 
L 56.639014 9.03307 
L 57.168175 16.600655 
L 57.697336 27.244084 
L 58.755657 55.545719 
L 61.401461 135.791232 
L 62.459782 158.047787 
L 62.988943 165.124094 
L 63.518104 169.171142 
L 64.047265 170.100276 
L 64.576425 167.949096 
L 65.105586 162.876037 
L 65.634747 155.150415 
L 66.693068 133.286439 
L 70.397194 43.442395 
L 70.926354 35.633576 
L 71.455515 30.18436 
L 71.984676 27.254296 
L 72.513836 26.904172 
L 73.042997 29.096368 
L 73.572158 33.698859 
L 74.101319 40.492587 
L 75.15964 59.407106 
L 78.863765 137.69126 
L 79.392926 144.855357 
L 79.922087 150.066231 
L 80.451248 153.16874 
L 80.980408 154.086456 
L 81.509569 152.822594 
L 82.03873 149.458094 
L 82.567891 144.147018 
L 83.626212 128.622437 
L 85.213694 97.847489 
L 86.801176 66.946391 
L 87.859498 50.994691 
L 88.388659 45.254686 
L 88.917819 41.258125 
L 89.44698 39.117447 
L 89.976141 38.879766 
L 90.505302 40.526548 
L 91.034462 43.975522 
L 91.563623 49.08469 
L 92.621945 63.454235 
L 94.209427 91.259562 
L 95.796909 118.970325 
L 96.85523 133.344956 
L 97.384391 138.574646 
L 97.913552 142.276139 
L 98.442713 144.346544 
L 98.971873 144.737826 
L 99.501034 143.457427 
L 100.030195 140.567086 
L 100.559356 136.179924 
L 101.617677 123.596002 
L 102.675999 107.432956 
L 104.792642 73.027588 
L 105.850963 59.139069 
L 106.380124 53.831675 
L 106.909285 49.835793 
L 107.438445 47.263533 
L 107.967606 46.180816 
L 108.496767 46.60601 
L 109.025927 48.510065 
L 109.555088 51.818125 
L 110.084249 56.412531 
L 111.14257 68.802502 
L 112.730053 92.191318 
L 114.317535 115.494006 
L 115.375856 127.835828 
L 115.905017 132.468637 
L 116.434178 135.890036 
L 116.963339 138.007418 
L 117.492499 138.768683 
L 118.02166 138.163266 
L 118.550821 136.221909 
L 119.079982 133.015195 
L 119.609142 128.650914 
L 120.667464 117.043675 
L 122.254946 95.302839 
L 123.842428 73.602367 
L 124.90075 61.987137 
L 125.42991 57.562987 
L 125.959071 54.233796 
L 126.488232 52.088221 
L 127.017393 51.179422 
L 127.546553 51.523934 
L 128.075714 53.101612 
L 128.604875 55.856644 
L 129.134036 59.699584 
L 130.192357 70.141912 
L 131.779839 90.188955 
L 133.367322 110.805758 
L 134.425643 122.261452 
L 134.954804 126.799263 
L 135.483964 130.371216 
L 136.013125 132.882798 
L 136.542286 134.270402 
L 137.071447 134.502803 
L 137.600607 133.581693 
L 138.129768 131.541299 
L 138.658929 128.44708 
L 139.71725 119.501425 
L 140.775572 107.79206 
L 143.950536 69.952136 
L 145.008858 61.085101 
L 145.538019 57.987518 
L 146.067179 55.895373 
L 146.59634 54.859867 
L 147.125501 54.902743 
L 147.654661 56.015968 
L 148.183822 58.162224 
L 148.712983 61.276201 
L 149.771304 70.019028 
L 150.829626 81.256036 
L 154.00459 117.07508 
L 155.062912 125.434493 
L 155.592073 128.359897 
L 156.121233 130.342896 
L 156.650394 131.335647 
L 157.179555 131.317173 
L 157.708716 130.293702 
L 158.237876 128.298272 
L 158.767037 125.389637 
L 159.825359 117.185058 
L 160.88368 106.581928 
L 164.058644 72.25304 
L 165.116966 63.9816 
L 165.646127 60.998285 
L 166.175287 58.88941 
L 166.704448 57.705815 
L 167.233609 57.473799 
L 167.76277 58.194612 
L 168.29193 59.84461 
L 168.821091 62.376052 
L 169.350252 65.718517 
L 170.408573 74.453935 
L 171.996056 90.836427 
L 174.112698 112.778914 
L 175.17102 121.25641 
L 175.700181 124.462761 
L 176.229341 126.868955 
L 176.758502 128.416833 
L 177.287663 129.070576 
L 177.816824 128.817473 
L 178.345984 127.668099 
L 178.875145 125.655886 
L 179.404306 122.836126 
L 180.462627 115.094625 
L 181.520949 105.252028 
L 184.695913 73.618381 
L 185.754235 65.919469 
L 186.283395 63.101217 
L 186.812556 61.06749 
L 187.341717 59.866356 
L 187.870878 59.524688 
L 188.400038 60.047617 
L 188.929199 61.418525 
L 189.45836 63.599594 
L 189.987521 66.532865 
L 191.045842 74.333363 
L 192.633324 89.277679 
L 194.749967 109.941896 
L 195.808289 118.287351 
L 196.86661 124.169618 
L 197.395771 126.000202 
L 197.924932 127.027205 
L 198.454093 127.228079 
L 198.983253 126.600813 
L 199.512414 125.163875 
L 200.041575 122.955655 
L 200.570735 120.033417 
L 201.629057 112.360866 
L 203.216539 97.814409 
L 205.333182 77.833492 
L 206.391504 69.787027 
L 207.449825 64.120538 
L 207.978986 62.357785 
L 208.508147 61.369056 
L 209.037307 61.176035 
L 209.566468 61.78091 
L 210.095629 63.166403 
L 210.62479 65.296284 
L 211.15395 68.116327 
L 212.212272 75.528827 
L 213.799754 89.619317 
L 215.916397 109.090792 
L 216.974718 117.007478 
L 218.03304 122.658189 
L 218.562201 124.458122 
L 219.091361 125.513392 
L 219.620522 125.800614 
L 220.149683 125.315005 
L 220.678844 124.070425 
L 221.208004 122.098975 
L 221.737165 119.450151 
L 222.795487 112.397442 
L 223.853808 103.599286 
L 227.028772 75.535405 
L 228.087094 68.60502 
L 228.616255 66.018236 
L 229.145415 64.102529 
L 229.674576 62.902069 
L 230.203737 62.443808 
L 230.732898 62.736884 
L 231.262058 63.772469 
L 231.791219 65.524036 
L 232.32038 67.948047 
L 233.378701 74.561132 
L 234.437023 82.973813 
L 237.611987 110.598735 
L 238.670309 117.690087 
L 239.199469 120.41411 
L 239.72863 122.501138 
L 240.257791 123.902979 
L 240.786952 124.587815 
L 241.316112 124.540912 
L 241.845273 123.764921 
L 242.374434 122.279766 
L 242.903595 120.122129 
L 243.961916 114.014058 
L 245.020238 106.025548 
L 248.724363 74.913747 
L 249.782684 68.591165 
L 250.311845 66.297489 
L 250.841006 64.657752 
L 251.370166 63.709484 
L 251.899327 63.47382 
L 252.428488 63.955047 
L 252.957649 65.140535 
L 253.486809 67.001075 
L 254.01597 69.491602 
L 255.074292 76.109987 
L 256.132613 84.367993 
L 259.307578 110.883692 
L 260.365899 117.536513 
L 260.89506 120.0545 
L 261.424221 121.951221 
L 261.953381 123.182985 
L 262.482542 123.721813 
L 263.011703 123.556063 
L 263.540863 122.690679 
L 264.070024 121.147042 
L 264.599185 118.962447 
L 265.657506 112.893344 
L 266.715828 105.057126 
L 270.419953 74.99332 
L 271.478275 68.980194 
L 272.007435 66.822725 
L 272.536596 65.30258 
L 273.065757 64.454704 
L 273.594918 64.298208 
L 274.124078 64.835943 
L 274.653239 66.054449 
L 275.1824 67.924294 
L 275.71156 70.400781 
L 276.769882 76.925299 
L 278.357364 89.410923 
L 280.474007 106.933875 
L 281.532329 114.227621 
L 282.59065 119.598139 
L 283.119811 121.398023 
L 283.648972 122.5472 
L 284.178132 123.019248 
L 284.707293 122.803689 
L 285.236454 121.906219 
L 285.765615 120.348563 
L 286.294775 118.167957 
L 287.353097 112.158722 
L 288.411418 104.44458 
L 292.115543 75.0935 
L 293.173865 69.294594 
L 293.703026 67.235323 
L 294.232186 65.80497 
L 294.761347 65.036855 
L 295.290508 64.948665 
L 295.819669 65.542046 
L 296.348829 66.802565 
L 296.87799 68.700055 
L 297.936312 74.211255 
L 298.994633 81.555429 
L 303.227919 114.275062 
L 304.28624 119.406136 
L 304.815401 121.08656 
L 305.344562 122.119325 
L 305.873723 122.480201 
L 306.402883 122.160881 
L 306.932044 121.169189 
L 307.461205 119.528895 
L 307.990366 117.279154 
L 309.048687 111.179006 
L 310.107009 103.446281 
L 313.281973 78.119556 
L 314.340294 71.640149 
L 314.869455 69.160644 
L 315.398616 67.270908 
L 315.927777 66.015955 
L 316.456937 65.425665 
L 316.986098 65.514059 
L 317.515259 66.278955 
L 318.04442 67.702009 
L 318.57358 69.74914 
L 319.631902 75.505798 
L 320.690223 83.000759 
L 324.394349 111.935797 
L 325.45267 117.699367 
L 325.981831 119.748902 
L 326.510992 121.173104 
L 327.040152 121.937579 
L 327.569313 122.023803 
L 328.098474 121.429592 
L 328.627634 120.169164 
L 329.156795 118.272826 
L 330.215117 112.769424 
L 331.273438 105.4474 
L 335.506724 73.203582 
L 336.565046 68.332835 
L 337.094206 66.802967 
L 337.623367 65.931817 
L 338.152528 65.740891 
L 338.681689 66.235131 
L 339.210849 67.402773 
L 339.74001 69.215599 
L 340.269171 71.629603 
L 341.327492 78.012814 
L 342.914974 90.232892 
L 345.031617 107.234524 
L 346.089939 114.167672 
L 347.14826 119.106008 
L 347.677421 120.665926 
L 348.206582 121.562661 
L 348.735743 121.773608 
L 349.264903 121.293078 
L 349.794064 120.132477 
L 350.323225 118.320061 
L 350.852386 115.900274 
L 351.910707 109.490528 
L 353.498189 97.214808 
L 355.614832 80.186956 
L 356.673154 73.292978 
L 357.202314 70.575614 
L 357.731475 68.440253 
L 358.260636 66.940946 
L 358.789797 66.115895 
L 359.318957 65.98645 
L 359.848118 66.556533 
L 360.377279 67.812489 
L 360.90644 69.723384 
L 361.4356 72.241736 
L 362.493922 78.835435 
L 364.081404 91.301546 
L 366.198047 108.295024 
L 367.256368 115.015917 
L 367.785529 117.607526 
L 368.31469 119.593105 
L 368.843851 120.921259 
L 369.373011 121.557264 
L 369.902172 121.484009 
L 370.431333 120.702488 
L 370.960494 119.231833 
L 371.489654 117.108881 
L 372.547976 111.136219 
L 373.606297 103.389026 
L 376.781262 77.823637 
L 377.839583 71.459141 
L 378.368744 69.108833 
L 378.897905 67.400805 
L 379.427065 66.380509 
L 379.956226 66.075588 
L 380.485387 66.495091 
L 381.014548 67.629163 
L 381.543708 69.449237 
L 382.072869 71.908706 
L 383.131191 78.476571 
L 384.718673 91.084333 
L 386.835316 108.368661 
L 387.893637 115.163065 
L 388.422798 117.754308 
L 388.951959 119.710081 
L 389.48112 120.977162 
L 390.01028 121.520528 
L 390.539441 121.324361 
L 391.068602 120.392556 
L 391.597762 118.7487 
L 392.126923 116.435531 
L 393.185245 110.061075 
L 394.243566 101.941748 
L 397.418531 76.150778 
L 398.476852 70.176968 
L 399.006013 68.116984 
L 399.535174 66.757487 
L 400.064334 66.137117 
L 400.593495 66.274422 
L 401.122656 67.167253 
L 401.651817 68.792718 
L 402.180977 71.107711 
L 403.239299 77.539812 
L 404.29762 85.768593 
L 405.478505 95.959219 
L 405.478505 95.959219 
" clip-path="url(#p1d5d1c0d33)" style="fill: none; stroke: #1f77b4; stroke-width: 1.5; stroke-linecap: square"/>
   </g>
   <g id="line2d_19">
    <path d="M 36.001745 148.404916 
L 38.118388 10.534646 
L 38.543856 -1 
M 42.269338 -1 
L 42.351674 0.855671 
L 44.468317 104.478972 
L 46.58496 186.968213 
L 48.701603 197.609586 
L 50.818246 139.427231 
L 52.934889 58.388797 
L 55.051532 8.25715 
L 57.168175 16.600655 
L 59.284818 71.905445 
L 61.401461 135.791232 
L 63.518104 169.171142 
L 65.634747 155.150415 
L 67.75139 106.125065 
L 69.868033 53.355927 
L 71.984676 27.254296 
L 74.101319 40.492587 
L 76.217962 82.799422 
L 78.334605 128.803979 
L 80.451248 153.16874 
L 82.567891 144.147018 
L 84.684533 108.624804 
L 86.801176 66.946391 
L 88.917819 41.258125 
L 91.034462 43.975522 
L 93.151105 72.193431 
L 95.267748 110.274535 
L 97.384391 138.574646 
L 99.501034 143.457427 
L 101.617677 123.596002 
L 103.73432 89.824151 
L 105.850963 59.139069 
L 107.967606 46.180816 
L 110.084249 56.412531 
L 112.200892 84.071603 
L 114.317535 115.494006 
L 116.434178 135.890036 
L 118.550821 136.221909 
L 120.667464 117.043675 
L 122.784107 87.768303 
L 124.90075 61.987137 
L 127.017393 51.179422 
L 129.134036 59.699584 
L 131.250679 83.173467 
L 133.367322 110.805758 
L 135.483964 130.371216 
L 137.600607 133.581693 
L 139.71725 119.501425 
L 143.950536 69.952136 
L 146.067179 55.895373 
L 148.183822 58.162224 
L 150.300465 75.398984 
L 152.417108 100.034642 
L 154.533751 121.640329 
L 156.650394 131.335647 
L 158.767037 125.389637 
L 160.88368 106.581928 
L 163.000323 82.865376 
L 165.116966 63.9816 
L 167.233609 57.473799 
L 169.350252 65.718517 
L 171.466895 85.122172 
L 173.583538 107.720919 
L 175.700181 124.462761 
L 177.816824 128.817473 
L 179.933467 119.284421 
L 182.05011 99.853832 
L 184.166753 78.309298 
L 186.283395 63.101217 
L 188.400038 60.047617 
L 190.516681 70.141813 
L 192.633324 89.277679 
L 194.749967 109.941896 
L 196.86661 124.169618 
L 198.983253 126.600813 
L 201.099896 116.471795 
L 203.216539 97.814409 
L 205.333182 77.833492 
L 207.449825 64.120538 
L 209.566468 61.78091 
L 211.683111 71.555714 
L 213.799754 89.619317 
L 215.916397 109.090792 
L 218.03304 122.658189 
L 220.149683 125.315005 
L 222.266326 116.189593 
L 224.382969 98.806868 
L 226.499612 79.715479 
L 228.616255 66.018236 
L 230.732898 62.736884 
L 232.849541 70.985047 
L 234.966184 87.608018 
L 237.082827 106.397969 
L 239.199469 120.41411 
L 241.316112 124.540912 
L 243.432755 117.344532 
L 245.549398 101.558383 
L 247.666041 83.038755 
L 249.782684 68.591165 
L 251.899327 63.47382 
L 254.01597 69.491602 
L 256.132613 84.367993 
L 258.249256 102.609995 
L 260.365899 117.536513 
L 262.482542 123.721813 
L 264.599185 118.962447 
L 266.715828 105.057126 
L 268.832471 87.12566 
L 270.949114 71.72501 
L 273.065757 64.454704 
L 275.1824 67.924294 
L 277.299043 80.818839 
L 279.415686 98.396027 
L 281.532329 114.227621 
L 283.648972 122.5472 
L 285.765615 120.348563 
L 287.882258 108.47245 
L 289.9989 91.288844 
L 292.115543 75.0935 
L 294.232186 65.80497 
L 296.348829 66.802565 
L 298.465472 77.694138 
L 302.698758 110.945531 
L 304.815401 121.08656 
L 306.932044 121.169189 
L 309.048687 111.179006 
L 313.281973 78.119556 
L 315.398616 67.270908 
L 317.515259 66.278955 
L 319.631902 75.505798 
L 323.865188 108.360535 
L 325.981831 119.748902 
L 328.098474 121.429592 
L 330.215117 112.769424 
L 332.33176 97.010475 
L 334.448403 80.071179 
L 336.565046 68.332835 
L 338.681689 66.235131 
L 340.798331 74.586036 
L 342.914974 90.232892 
L 345.031617 107.234524 
L 347.14826 119.106008 
L 349.264903 121.293078 
L 351.381546 112.932681 
L 353.498189 97.214808 
L 355.614832 80.186956 
L 357.731475 68.440253 
L 359.848118 66.556533 
L 361.964761 75.304665 
L 364.081404 91.301546 
L 366.198047 108.295024 
L 368.31469 119.593105 
L 370.431333 120.702488 
L 372.547976 111.136219 
L 376.781262 77.823637 
L 378.897905 67.400805 
L 381.014548 67.629163 
L 383.131191 78.476571 
L 387.364477 112.006279 
L 389.48112 120.977162 
L 391.597762 118.7487 
L 393.714405 106.169032 
L 395.831048 88.410864 
L 397.947691 72.879856 
L 400.064334 66.137117 
L 402.180977 71.107711 
L 404.29762 85.768593 
L 405.478505 95.89524 
L 405.478505 95.89524 
" clip-path="url(#p1d5d1c0d33)" style="fill: none; stroke: #ff7f0e; stroke-width: 0.7; stroke-linecap: square"/>
    <defs>
     <path id="md41d720ce4" d="M 0 1.5 
C 0.397805 1.5 0.77937 1.341951 1.06066 1.06066 
C 1.341951 0.77937 1.5 0.397805 1.5 0 
C 1.5 -0.397805 1.341951 -0.77937 1.06066 -1.06066 
C 0.77937 -1.341951 0.397805 -1.5 0 -1.5 
C -0.397805 -1.5 -0.77937 -1.341951 -1.06066 -1.06066 
C -1.341951 -0.77937 -1.5 -0.397805 -1.5 0 
C -1.5 0.397805 -1.341951 0.77937 -1.06066 1.06066 
C -0.77937 1.341951 -0.397805 1.5 0 1.5 
z
" style="stroke: #ff7f0e"/>
    </defs>
    <g clip-path="url(#p1d5d1c0d33)">
     <use xlink:href="#md41d720ce4" x="36.001745" y="148.404916" style="fill: #ff7f0e; stroke: #ff7f0e"/>
     <use xlink:href="#md41d720ce4" x="38.118388" y="10.534646" style="fill: #ff7f0e; stroke: #ff7f0e"/>
     <use xlink:href="#md41d720ce4" x="38.543856" y="-1" style="fill: #ff7f0e; stroke: #ff7f0e"/>
     <use xlink:href="#md41d720ce4" x="42.269338" y="-1" style="fill: #ff7f0e; stroke: #ff7f0e"/>
     <use xlink:href="#md41d720ce4" x="42.351674" y="0.855671" style="fill: #ff7f0e; stroke: #ff7f0e"/>
     <use xlink:href="#md41d720ce4" x="44.468317" y="104.478972" style="fill: #ff7f0e; stroke: #ff7f0e"/>
     <use xlink:href="#md41d720ce4" x="46.58496" y="186.968213" style="fill: #ff7f0e; stroke: #ff7f0e"/>
     <use xlink:href="#md41d720ce4" x="48.701603" y="197.609586" style="fill: #ff7f0e; stroke: #ff7f0e"/>
     <use xlink:href="#md41d720ce4" x="50.818246" y="139.427231" style="fill: #ff7f0e; stroke: #ff7f0e"/>
     <use xlink:href="#md41d720ce4" x="52.934889" y="58.388797" style="fill: #ff7f0e; stroke: #ff7f0e"/>
     <use xlink:href="#md41d720ce4" x="55.051532" y="8.25715" style="fill: #ff7f0e; stroke: #ff7f0e"/>
     <use xlink:href="#md41d720ce4" x="57.168175" y="16.600655" style="fill: #ff7f0e; stroke: #ff7f0e"/>
     <use xlink:href="#md41d720ce4" x="59.284818" y="71.905445" style="fill: #ff7f0e; stroke: #ff7f0e"/>
     <use xlink:href="#md41d720ce4" x="61.401461" y="135.791232" style="fill: #ff7f0e; stroke: #ff7f0e"/>
     <use xlink:href="#md41d720ce4" x="63.518104" y="169.171142" style="fill: #ff7f0e; stroke: #ff7f0e"/>
     <use xlink:href="#md41d720ce4" x="65.634747" y="155.150415" style="fill: #ff7f0e; stroke: #ff7f0e"/>
     <use xlink:href="#md41d720ce4" x="67.75139" y="106.125065" style="fill: #ff7f0e; stroke: #ff7f0e"/>
     <use xlink:href="#md41d720ce4" x="69.868033" y="53.355927" style="fill: #ff7f0e; stroke: #ff7f0e"/>
     <use xlink:href="#md41d720ce4" x="71.984676" y="27.254296" style="fill: #ff7f0e; stroke: #ff7f0e"/>
     <use xlink:href="#md41d720ce4" x="74.101319" y="40.492587" style="fill: #ff7f0e; stroke: #ff7f0e"/>
     <use xlink:href="#md41d720ce4" x="76.217962" y="82.799422" style="fill: #ff7f0e; stroke: #ff7f0e"/>
     <use xlink:href="#md41d720ce4" x="78.334605" y="128.803979" style="fill: #ff7f0e; stroke: #ff7f0e"/>
     <use xlink:href="#md41d720ce4" x="80.451248" y="153.16874" style="fill: #ff7f0e; stroke: #ff7f0e"/>
     <use xlink:href="#md41d720ce4" x="82.567891" y="144.147018" style="fill: #ff7f0e; stroke: #ff7f0e"/>
     <use xlink:href="#md41d720ce4" x="84.684533" y="108.624804" style="fill: #ff7f0e; stroke: #ff7f0e"/>
     <use xlink:href="#md41d720ce4" x="86.801176" y="66.946391" style="fill: #ff7f0e; stroke: #ff7f0e"/>
     <use xlink:href="#md41d720ce4" x="88.917819" y="41.258125" style="fill: #ff7f0e; stroke: #ff7f0e"/>
     <use xlink:href="#md41d720ce4" x="91.034462" y="43.975522" style="fill: #ff7f0e; stroke: #ff7f0e"/>
     <use xlink:href="#md41d720ce4" x="93.151105" y="72.193431" style="fill: #ff7f0e; stroke: #ff7f0e"/>
     <use xlink:href="#md41d720ce4" x="95.267748" y="110.274535" style="fill: #ff7f0e; stroke: #ff7f0e"/>
     <use xlink:href="#md41d720ce4" x="97.384391" y="138.574646" style="fill: #ff7f0e; stroke: #ff7f0e"/>
     <use xlink:href="#md41d720ce4" x="99.501034" y="143.457427" style="fill: #ff7f0e; stroke: #ff7f0e"/>
     <use xlink:href="#md41d720ce4" x="101.617677" y="123.596002" style="fill: #ff7f0e; stroke: #ff7f0e"/>
     <use xlink:href="#md41d720ce4" x="103.73432" y="89.824151" style="fill: #ff7f0e; stroke: #ff7f0e"/>
     <use xlink:href="#md41d720ce4" x="105.850963" y="59.139069" style="fill: #ff7f0e; stroke: #ff7f0e"/>
     <use xlink:href="#md41d720ce4" x="107.967606" y="46.180816" style="fill: #ff7f0e; stroke: #ff7f0e"/>
     <use xlink:href="#md41d720ce4" x="110.084249" y="56.412531" style="fill: #ff7f0e; stroke: #ff7f0e"/>
     <use xlink:href="#md41d720ce4" x="112.200892" y="84.071603" style="fill: #ff7f0e; stroke: #ff7f0e"/>
     <use xlink:href="#md41d720ce4" x="114.317535" y="115.494006" style="fill: #ff7f0e; stroke: #ff7f0e"/>
     <use xlink:href="#md41d720ce4" x="116.434178" y="135.890036" style="fill: #ff7f0e; stroke: #ff7f0e"/>
     <use xlink:href="#md41d720ce4" x="118.550821" y="136.221909" style="fill: #ff7f0e; stroke: #ff7f0e"/>
     <use xlink:href="#md41d720ce4" x="120.667464" y="117.043675" style="fill: #ff7f0e; stroke: #ff7f0e"/>
     <use xlink:href="#md41d720ce4" x="122.784107" y="87.768303" style="fill: #ff7f0e; stroke: #ff7f0e"/>
     <use xlink:href="#md41d720ce4" x="124.90075" y="61.987137" style="fill: #ff7f0e; stroke: #ff7f0e"/>
     <use xlink:href="#md41d720ce4" x="127.017393" y="51.179422" style="fill: #ff7f0e; stroke: #ff7f0e"/>
     <use xlink:href="#md41d720ce4" x="129.134036" y="59.699584" style="fill: #ff7f0e; stroke: #ff7f0e"/>
     <use xlink:href="#md41d720ce4" x="131.250679" y="83.173467" style="fill: #ff7f0e; stroke: #ff7f0e"/>
     <use xlink:href="#md41d720ce4" x="133.367322" y="110.805758" style="fill: #ff7f0e; stroke: #ff7f0e"/>
     <use xlink:href="#md41d720ce4" x="135.483964" y="130.371216" style="fill: #ff7f0e; stroke: #ff7f0e"/>
     <use xlink:href="#md41d720ce4" x="137.600607" y="133.581693" style="fill: #ff7f0e; stroke: #ff7f0e"/>
     <use xlink:href="#md41d720ce4" x="139.71725" y="119.501425" style="fill: #ff7f0e; stroke: #ff7f0e"/>
     <use xlink:href="#md41d720ce4" x="141.833893" y="94.654733" style="fill: #ff7f0e; stroke: #ff7f0e"/>
     <use xlink:href="#md41d720ce4" x="143.950536" y="69.952136" style="fill: #ff7f0e; stroke: #ff7f0e"/>
     <use xlink:href="#md41d720ce4" x="146.067179" y="55.895373" style="fill: #ff7f0e; stroke: #ff7f0e"/>
     <use xlink:href="#md41d720ce4" x="148.183822" y="58.162224" style="fill: #ff7f0e; stroke: #ff7f0e"/>
     <use xlink:href="#md41d720ce4" x="150.300465" y="75.398984" style="fill: #ff7f0e; stroke: #ff7f0e"/>
     <use xlink:href="#md41d720ce4" x="152.417108" y="100.034642" style="fill: #ff7f0e; stroke: #ff7f0e"/>
     <use xlink:href="#md41d720ce4" x="154.533751" y="121.640329" style="fill: #ff7f0e; stroke: #ff7f0e"/>
     <use xlink:href="#md41d720ce4" x="156.650394" y="131.335647" style="fill: #ff7f0e; stroke: #ff7f0e"/>
     <use xlink:href="#md41d720ce4" x="158.767037" y="125.389637" style="fill: #ff7f0e; stroke: #ff7f0e"/>
     <use xlink:href="#md41d720ce4" x="160.88368" y="106.581928" style="fill: #ff7f0e; stroke: #ff7f0e"/>
     <use xlink:href="#md41d720ce4" x="163.000323" y="82.865376" style="fill: #ff7f0e; stroke: #ff7f0e"/>
     <use xlink:href="#md41d720ce4" x="165.116966" y="63.9816" style="fill: #ff7f0e; stroke: #ff7f0e"/>
     <use xlink:href="#md41d720ce4" x="167.233609" y="57.473799" style="fill: #ff7f0e; stroke: #ff7f0e"/>
     <use xlink:href="#md41d720ce4" x="169.350252" y="65.718517" style="fill: #ff7f0e; stroke: #ff7f0e"/>
     <use xlink:href="#md41d720ce4" x="171.466895" y="85.122172" style="fill: #ff7f0e; stroke: #ff7f0e"/>
     <use xlink:href="#md41d720ce4" x="173.583538" y="107.720919" style="fill: #ff7f0e; stroke: #ff7f0e"/>
     <use xlink:href="#md41d720ce4" x="175.700181" y="124.462761" style="fill: #ff7f0e; stroke: #ff7f0e"/>
     <use xlink:href="#md41d720ce4" x="177.816824" y="128.817473" style="fill: #ff7f0e; stroke: #ff7f0e"/>
     <use xlink:href="#md41d720ce4" x="179.933467" y="119.284421" style="fill: #ff7f0e; stroke: #ff7f0e"/>
     <use xlink:href="#md41d720ce4" x="182.05011" y="99.853832" style="fill: #ff7f0e; stroke: #ff7f0e"/>
     <use xlink:href="#md41d720ce4" x="184.166753" y="78.309298" style="fill: #ff7f0e; stroke: #ff7f0e"/>
     <use xlink:href="#md41d720ce4" x="186.283395" y="63.101217" style="fill: #ff7f0e; stroke: #ff7f0e"/>
     <use xlink:href="#md41d720ce4" x="188.400038" y="60.047617" style="fill: #ff7f0e; stroke: #ff7f0e"/>
     <use xlink:href="#md41d720ce4" x="190.516681" y="70.141813" style="fill: #ff7f0e; stroke: #ff7f0e"/>
     <use xlink:href="#md41d720ce4" x="192.633324" y="89.277679" style="fill: #ff7f0e; stroke: #ff7f0e"/>
     <use xlink:href="#md41d720ce4" x="194.749967" y="109.941896" style="fill: #ff7f0e; stroke: #ff7f0e"/>
     <use xlink:href="#md41d720ce4" x="196.86661" y="124.169618" style="fill: #ff7f0e; stroke: #ff7f0e"/>
     <use xlink:href="#md41d720ce4" x="198.983253" y="126.600813" style="fill: #ff7f0e; stroke: #ff7f0e"/>
     <use xlink:href="#md41d720ce4" x="201.099896" y="116.471795" style="fill: #ff7f0e; stroke: #ff7f0e"/>
     <use xlink:href="#md41d720ce4" x="203.216539" y="97.814409" style="fill: #ff7f0e; stroke: #ff7f0e"/>
     <use xlink:href="#md41d720ce4" x="205.333182" y="77.833492" style="fill: #ff7f0e; stroke: #ff7f0e"/>
     <use xlink:href="#md41d720ce4" x="207.449825" y="64.120538" style="fill: #ff7f0e; stroke: #ff7f0e"/>
     <use xlink:href="#md41d720ce4" x="209.566468" y="61.78091" style="fill: #ff7f0e; stroke: #ff7f0e"/>
     <use xlink:href="#md41d720ce4" x="211.683111" y="71.555714" style="fill: #ff7f0e; stroke: #ff7f0e"/>
     <use xlink:href="#md41d720ce4" x="213.799754" y="89.619317" style="fill: #ff7f0e; stroke: #ff7f0e"/>
     <use xlink:href="#md41d720ce4" x="215.916397" y="109.090792" style="fill: #ff7f0e; stroke: #ff7f0e"/>
     <use xlink:href="#md41d720ce4" x="218.03304" y="122.658189" style="fill: #ff7f0e; stroke: #ff7f0e"/>
     <use xlink:href="#md41d720ce4" x="220.149683" y="125.315005" style="fill: #ff7f0e; stroke: #ff7f0e"/>
     <use xlink:href="#md41d720ce4" x="222.266326" y="116.189593" style="fill: #ff7f0e; stroke: #ff7f0e"/>
     <use xlink:href="#md41d720ce4" x="224.382969" y="98.806868" style="fill: #ff7f0e; stroke: #ff7f0e"/>
     <use xlink:href="#md41d720ce4" x="226.499612" y="79.715479" style="fill: #ff7f0e; stroke: #ff7f0e"/>
     <use xlink:href="#md41d720ce4" x="228.616255" y="66.018236" style="fill: #ff7f0e; stroke: #ff7f0e"/>
     <use xlink:href="#md41d720ce4" x="230.732898" y="62.736884" style="fill: #ff7f0e; stroke: #ff7f0e"/>
     <use xlink:href="#md41d720ce4" x="232.849541" y="70.985047" style="fill: #ff7f0e; stroke: #ff7f0e"/>
     <use xlink:href="#md41d720ce4" x="234.966184" y="87.608018" style="fill: #ff7f0e; stroke: #ff7f0e"/>
     <use xlink:href="#md41d720ce4" x="237.082827" y="106.397969" style="fill: #ff7f0e; stroke: #ff7f0e"/>
     <use xlink:href="#md41d720ce4" x="239.199469" y="120.41411" style="fill: #ff7f0e; stroke: #ff7f0e"/>
     <use xlink:href="#md41d720ce4" x="241.316112" y="124.540912" style="fill: #ff7f0e; stroke: #ff7f0e"/>
     <use xlink:href="#md41d720ce4" x="243.432755" y="117.344532" style="fill: #ff7f0e; stroke: #ff7f0e"/>
     <use xlink:href="#md41d720ce4" x="245.549398" y="101.558383" style="fill: #ff7f0e; stroke: #ff7f0e"/>
     <use xlink:href="#md41d720ce4" x="247.666041" y="83.038755" style="fill: #ff7f0e; stroke: #ff7f0e"/>
     <use xlink:href="#md41d720ce4" x="249.782684" y="68.591165" style="fill: #ff7f0e; stroke: #ff7f0e"/>
     <use xlink:href="#md41d720ce4" x="251.899327" y="63.47382" style="fill: #ff7f0e; stroke: #ff7f0e"/>
     <use xlink:href="#md41d720ce4" x="254.01597" y="69.491602" style="fill: #ff7f0e; stroke: #ff7f0e"/>
     <use xlink:href="#md41d720ce4" x="256.132613" y="84.367993" style="fill: #ff7f0e; stroke: #ff7f0e"/>
     <use xlink:href="#md41d720ce4" x="258.249256" y="102.609995" style="fill: #ff7f0e; stroke: #ff7f0e"/>
     <use xlink:href="#md41d720ce4" x="260.365899" y="117.536513" style="fill: #ff7f0e; stroke: #ff7f0e"/>
     <use xlink:href="#md41d720ce4" x="262.482542" y="123.721813" style="fill: #ff7f0e; stroke: #ff7f0e"/>
     <use xlink:href="#md41d720ce4" x="264.599185" y="118.962447" style="fill: #ff7f0e; stroke: #ff7f0e"/>
     <use xlink:href="#md41d720ce4" x="266.715828" y="105.057126" style="fill: #ff7f0e; stroke: #ff7f0e"/>
     <use xlink:href="#md41d720ce4" x="268.832471" y="87.12566" style="fill: #ff7f0e; stroke: #ff7f0e"/>
     <use xlink:href="#md41d720ce4" x="270.949114" y="71.72501" style="fill: #ff7f0e; stroke: #ff7f0e"/>
     <use xlink:href="#md41d720ce4" x="273.065757" y="64.454704" style="fill: #ff7f0e; stroke: #ff7f0e"/>
     <use xlink:href="#md41d720ce4" x="275.1824" y="67.924294" style="fill: #ff7f0e; stroke: #ff7f0e"/>
     <use xlink:href="#md41d720ce4" x="277.299043" y="80.818839" style="fill: #ff7f0e; stroke: #ff7f0e"/>
     <use xlink:href="#md41d720ce4" x="279.415686" y="98.396027" style="fill: #ff7f0e; stroke: #ff7f0e"/>
     <use xlink:href="#md41d720ce4" x="281.532329" y="114.227621" style="fill: #ff7f0e; stroke: #ff7f0e"/>
     <use xlink:href="#md41d720ce4" x="283.648972" y="122.5472" style="fill: #ff7f0e; stroke: #ff7f0e"/>
     <use xlink:href="#md41d720ce4" x="285.765615" y="120.348563" style="fill: #ff7f0e; stroke: #ff7f0e"/>
     <use xlink:href="#md41d720ce4" x="287.882258" y="108.47245" style="fill: #ff7f0e; stroke: #ff7f0e"/>
     <use xlink:href="#md41d720ce4" x="289.9989" y="91.288844" style="fill: #ff7f0e; stroke: #ff7f0e"/>
     <use xlink:href="#md41d720ce4" x="292.115543" y="75.0935" style="fill: #ff7f0e; stroke: #ff7f0e"/>
     <use xlink:href="#md41d720ce4" x="294.232186" y="65.80497" style="fill: #ff7f0e; stroke: #ff7f0e"/>
     <use xlink:href="#md41d720ce4" x="296.348829" y="66.802565" style="fill: #ff7f0e; stroke: #ff7f0e"/>
     <use xlink:href="#md41d720ce4" x="298.465472" y="77.694138" style="fill: #ff7f0e; stroke: #ff7f0e"/>
     <use xlink:href="#md41d720ce4" x="300.582115" y="94.4637" style="fill: #ff7f0e; stroke: #ff7f0e"/>
     <use xlink:href="#md41d720ce4" x="302.698758" y="110.945531" style="fill: #ff7f0e; stroke: #ff7f0e"/>
     <use xlink:href="#md41d720ce4" x="304.815401" y="121.08656" style="fill: #ff7f0e; stroke: #ff7f0e"/>
     <use xlink:href="#md41d720ce4" x="306.932044" y="121.169189" style="fill: #ff7f0e; stroke: #ff7f0e"/>
     <use xlink:href="#md41d720ce4" x="309.048687" y="111.179006" style="fill: #ff7f0e; stroke: #ff7f0e"/>
     <use xlink:href="#md41d720ce4" x="311.16533" y="94.812763" style="fill: #ff7f0e; stroke: #ff7f0e"/>
     <use xlink:href="#md41d720ce4" x="313.281973" y="78.119556" style="fill: #ff7f0e; stroke: #ff7f0e"/>
     <use xlink:href="#md41d720ce4" x="315.398616" y="67.270908" style="fill: #ff7f0e; stroke: #ff7f0e"/>
     <use xlink:href="#md41d720ce4" x="317.515259" y="66.278955" style="fill: #ff7f0e; stroke: #ff7f0e"/>
     <use xlink:href="#md41d720ce4" x="319.631902" y="75.505798" style="fill: #ff7f0e; stroke: #ff7f0e"/>
     <use xlink:href="#md41d720ce4" x="321.748545" y="91.519914" style="fill: #ff7f0e; stroke: #ff7f0e"/>
     <use xlink:href="#md41d720ce4" x="323.865188" y="108.360535" style="fill: #ff7f0e; stroke: #ff7f0e"/>
     <use xlink:href="#md41d720ce4" x="325.981831" y="119.748902" style="fill: #ff7f0e; stroke: #ff7f0e"/>
     <use xlink:href="#md41d720ce4" x="328.098474" y="121.429592" style="fill: #ff7f0e; stroke: #ff7f0e"/>
     <use xlink:href="#md41d720ce4" x="330.215117" y="112.769424" style="fill: #ff7f0e; stroke: #ff7f0e"/>
     <use xlink:href="#md41d720ce4" x="332.33176" y="97.010475" style="fill: #ff7f0e; stroke: #ff7f0e"/>
     <use xlink:href="#md41d720ce4" x="334.448403" y="80.071179" style="fill: #ff7f0e; stroke: #ff7f0e"/>
     <use xlink:href="#md41d720ce4" x="336.565046" y="68.332835" style="fill: #ff7f0e; stroke: #ff7f0e"/>
     <use xlink:href="#md41d720ce4" x="338.681689" y="66.235131" style="fill: #ff7f0e; stroke: #ff7f0e"/>
     <use xlink:href="#md41d720ce4" x="340.798331" y="74.586036" style="fill: #ff7f0e; stroke: #ff7f0e"/>
     <use xlink:href="#md41d720ce4" x="342.914974" y="90.232892" style="fill: #ff7f0e; stroke: #ff7f0e"/>
     <use xlink:href="#md41d720ce4" x="345.031617" y="107.234524" style="fill: #ff7f0e; stroke: #ff7f0e"/>
     <use xlink:href="#md41d720ce4" x="347.14826" y="119.106008" style="fill: #ff7f0e; stroke: #ff7f0e"/>
     <use xlink:href="#md41d720ce4" x="349.264903" y="121.293078" style="fill: #ff7f0e; stroke: #ff7f0e"/>
     <use xlink:href="#md41d720ce4" x="351.381546" y="112.932681" style="fill: #ff7f0e; stroke: #ff7f0e"/>
     <use xlink:href="#md41d720ce4" x="353.498189" y="97.214808" style="fill: #ff7f0e; stroke: #ff7f0e"/>
     <use xlink:href="#md41d720ce4" x="355.614832" y="80.186956" style="fill: #ff7f0e; stroke: #ff7f0e"/>
     <use xlink:href="#md41d720ce4" x="357.731475" y="68.440253" style="fill: #ff7f0e; stroke: #ff7f0e"/>
     <use xlink:href="#md41d720ce4" x="359.848118" y="66.556533" style="fill: #ff7f0e; stroke: #ff7f0e"/>
     <use xlink:href="#md41d720ce4" x="361.964761" y="75.304665" style="fill: #ff7f0e; stroke: #ff7f0e"/>
     <use xlink:href="#md41d720ce4" x="364.081404" y="91.301546" style="fill: #ff7f0e; stroke: #ff7f0e"/>
     <use xlink:href="#md41d720ce4" x="366.198047" y="108.295024" style="fill: #ff7f0e; stroke: #ff7f0e"/>
     <use xlink:href="#md41d720ce4" x="368.31469" y="119.593105" style="fill: #ff7f0e; stroke: #ff7f0e"/>
     <use xlink:href="#md41d720ce4" x="370.431333" y="120.702488" style="fill: #ff7f0e; stroke: #ff7f0e"/>
     <use xlink:href="#md41d720ce4" x="372.547976" y="111.136219" style="fill: #ff7f0e; stroke: #ff7f0e"/>
     <use xlink:href="#md41d720ce4" x="374.664619" y="94.656334" style="fill: #ff7f0e; stroke: #ff7f0e"/>
     <use xlink:href="#md41d720ce4" x="376.781262" y="77.823637" style="fill: #ff7f0e; stroke: #ff7f0e"/>
     <use xlink:href="#md41d720ce4" x="378.897905" y="67.400805" style="fill: #ff7f0e; stroke: #ff7f0e"/>
     <use xlink:href="#md41d720ce4" x="381.014548" y="67.629163" style="fill: #ff7f0e; stroke: #ff7f0e"/>
     <use xlink:href="#md41d720ce4" x="383.131191" y="78.476571" style="fill: #ff7f0e; stroke: #ff7f0e"/>
     <use xlink:href="#md41d720ce4" x="385.247834" y="95.589212" style="fill: #ff7f0e; stroke: #ff7f0e"/>
     <use xlink:href="#md41d720ce4" x="387.364477" y="112.006279" style="fill: #ff7f0e; stroke: #ff7f0e"/>
     <use xlink:href="#md41d720ce4" x="389.48112" y="120.977162" style="fill: #ff7f0e; stroke: #ff7f0e"/>
     <use xlink:href="#md41d720ce4" x="391.597762" y="118.7487" style="fill: #ff7f0e; stroke: #ff7f0e"/>
     <use xlink:href="#md41d720ce4" x="393.714405" y="106.169032" style="fill: #ff7f0e; stroke: #ff7f0e"/>
     <use xlink:href="#md41d720ce4" x="395.831048" y="88.410864" style="fill: #ff7f0e; stroke: #ff7f0e"/>
     <use xlink:href="#md41d720ce4" x="397.947691" y="72.879856" style="fill: #ff7f0e; stroke: #ff7f0e"/>
     <use xlink:href="#md41d720ce4" x="400.064334" y="66.137117" style="fill: #ff7f0e; stroke: #ff7f0e"/>
     <use xlink:href="#md41d720ce4" x="402.180977" y="71.107711" style="fill: #ff7f0e; stroke: #ff7f0e"/>
     <use xlink:href="#md41d720ce4" x="404.29762" y="85.768593" style="fill: #ff7f0e; stroke: #ff7f0e"/>
     <use xlink:href="#md41d720ce4" x="406.414263" y="103.919807" style="fill: #ff7f0e; stroke: #ff7f0e"/>
     <use xlink:href="#md41d720ce4" x="408.530906" y="117.770748" style="fill: #ff7f0e; stroke: #ff7f0e"/>
     <use xlink:href="#md41d720ce4" x="410.647549" y="121.280566" style="fill: #ff7f0e; stroke: #ff7f0e"/>
     <use xlink:href="#md41d720ce4" x="412.764192" y="112.825022" style="fill: #ff7f0e; stroke: #ff7f0e"/>
     <use xlink:href="#md41d720ce4" x="414.880835" y="96.001708" style="fill: #ff7f0e; stroke: #ff7f0e"/>
     <use xlink:href="#md41d720ce4" x="416.997478" y="78.157107" style="fill: #ff7f0e; stroke: #ff7f0e"/>
     <use xlink:href="#md41d720ce4" x="419.114121" y="67.209777" style="fill: #ff7f0e; stroke: #ff7f0e"/>
     <use xlink:href="#md41d720ce4" x="421.230764" y="68.126043" style="fill: #ff7f0e; stroke: #ff7f0e"/>
     <use xlink:href="#md41d720ce4" x="423.347407" y="80.617362" style="fill: #ff7f0e; stroke: #ff7f0e"/>
     <use xlink:href="#md41d720ce4" x="425.46405" y="99.144893" style="fill: #ff7f0e; stroke: #ff7f0e"/>
     <use xlink:href="#md41d720ce4" x="427.580693" y="115.316237" style="fill: #ff7f0e; stroke: #ff7f0e"/>
     <use xlink:href="#md41d720ce4" x="429.697336" y="121.668255" style="fill: #ff7f0e; stroke: #ff7f0e"/>
     <use xlink:href="#md41d720ce4" x="431.813979" y="115.144229" style="fill: #ff7f0e; stroke: #ff7f0e"/>
     <use xlink:href="#md41d720ce4" x="433.930622" y="98.635401" style="fill: #ff7f0e; stroke: #ff7f0e"/>
     <use xlink:href="#md41d720ce4" x="436.047265" y="79.783934" style="fill: #ff7f0e; stroke: #ff7f0e"/>
     <use xlink:href="#md41d720ce4" x="438.163908" y="67.49646" style="fill: #ff7f0e; stroke: #ff7f0e"/>
     <use xlink:href="#md41d720ce4" x="440.280551" y="67.729071" style="fill: #ff7f0e; stroke: #ff7f0e"/>
     <use xlink:href="#md41d720ce4" x="442.397194" y="80.535273" style="fill: #ff7f0e; stroke: #ff7f0e"/>
     <use xlink:href="#md41d720ce4" x="444.513836" y="99.86397" style="fill: #ff7f0e; stroke: #ff7f0e"/>
     <use xlink:href="#md41d720ce4" x="446.630479" y="116.334597" style="fill: #ff7f0e; stroke: #ff7f0e"/>
     <use xlink:href="#md41d720ce4" x="448.747122" y="121.764554" style="fill: #ff7f0e; stroke: #ff7f0e"/>
     <use xlink:href="#md41d720ce4" x="450.863765" y="113.284102" style="fill: #ff7f0e; stroke: #ff7f0e"/>
     <use xlink:href="#md41d720ce4" x="452.980408" y="94.953588" style="fill: #ff7f0e; stroke: #ff7f0e"/>
     <use xlink:href="#md41d720ce4" x="455.097051" y="75.935735" style="fill: #ff7f0e; stroke: #ff7f0e"/>
     <use xlink:href="#md41d720ce4" x="457.213694" y="65.976237" style="fill: #ff7f0e; stroke: #ff7f0e"/>
     <use xlink:href="#md41d720ce4" x="459.330337" y="70.381187" style="fill: #ff7f0e; stroke: #ff7f0e"/>
     <use xlink:href="#md41d720ce4" x="461.44698" y="87.083099" style="fill: #ff7f0e; stroke: #ff7f0e"/>
     <use xlink:href="#md41d720ce4" x="463.563623" y="107.459696" style="fill: #ff7f0e; stroke: #ff7f0e"/>
     <use xlink:href="#md41d720ce4" x="465.680266" y="120.686906" style="fill: #ff7f0e; stroke: #ff7f0e"/>
     <use xlink:href="#md41d720ce4" x="467.796909" y="119.492769" style="fill: #ff7f0e; stroke: #ff7f0e"/>
     <use xlink:href="#md41d720ce4" x="469.913552" y="104.265856" style="fill: #ff7f0e; stroke: #ff7f0e"/>
     <use xlink:href="#md41d720ce4" x="472.030195" y="83.153989" style="fill: #ff7f0e; stroke: #ff7f0e"/>
     <use xlink:href="#md41d720ce4" x="474.146838" y="67.841728" style="fill: #ff7f0e; stroke: #ff7f0e"/>
     <use xlink:href="#md41d720ce4" x="476.263481" y="67.102597" style="fill: #ff7f0e; stroke: #ff7f0e"/>
     <use xlink:href="#md41d720ce4" x="478.380124" y="81.654343" style="fill: #ff7f0e; stroke: #ff7f0e"/>
     <use xlink:href="#md41d720ce4" x="480.496767" y="103.37893" style="fill: #ff7f0e; stroke: #ff7f0e"/>
     <use xlink:href="#md41d720ce4" x="482.61341" y="119.673102" style="fill: #ff7f0e; stroke: #ff7f0e"/>
     <use xlink:href="#md41d720ce4" x="484.730053" y="120.723853" style="fill: #ff7f0e; stroke: #ff7f0e"/>
     <use xlink:href="#md41d720ce4" x="486.846696" y="105.555725" style="fill: #ff7f0e; stroke: #ff7f0e"/>
     <use xlink:href="#md41d720ce4" x="488.963339" y="83.071051" style="fill: #ff7f0e; stroke: #ff7f0e"/>
     <use xlink:href="#md41d720ce4" x="491.079982" y="67.044913" style="fill: #ff7f0e; stroke: #ff7f0e"/>
     <use xlink:href="#md41d720ce4" x="493.196625" y="67.723149" style="fill: #ff7f0e; stroke: #ff7f0e"/>
     <use xlink:href="#md41d720ce4" x="495.313267" y="85.089365" style="fill: #ff7f0e; stroke: #ff7f0e"/>
     <use xlink:href="#md41d720ce4" x="497.42991" y="108.298433" style="fill: #ff7f0e; stroke: #ff7f0e"/>
     <use xlink:href="#md41d720ce4" x="499.546553" y="122.194406" style="fill: #ff7f0e; stroke: #ff7f0e"/>
     <use xlink:href="#md41d720ce4" x="501.663196" y="117.204661" style="fill: #ff7f0e; stroke: #ff7f0e"/>
     <use xlink:href="#md41d720ce4" x="503.779839" y="96.204911" style="fill: #ff7f0e; stroke: #ff7f0e"/>
     <use xlink:href="#md41d720ce4" x="505.896482" y="73.31442" style="fill: #ff7f0e; stroke: #ff7f0e"/>
     <use xlink:href="#md41d720ce4" x="508.013125" y="64.662119" style="fill: #ff7f0e; stroke: #ff7f0e"/>
     <use xlink:href="#md41d720ce4" x="510.129768" y="76.918003" style="fill: #ff7f0e; stroke: #ff7f0e"/>
     <use xlink:href="#md41d720ce4" x="512.246411" y="101.739374" style="fill: #ff7f0e; stroke: #ff7f0e"/>
     <use xlink:href="#md41d720ce4" x="514.363054" y="120.930494" style="fill: #ff7f0e; stroke: #ff7f0e"/>
     <use xlink:href="#md41d720ce4" x="516.479697" y="119.611914" style="fill: #ff7f0e; stroke: #ff7f0e"/>
     <use xlink:href="#md41d720ce4" x="518.59634" y="98.098791" style="fill: #ff7f0e; stroke: #ff7f0e"/>
     <use xlink:href="#md41d720ce4" x="520.712983" y="72.872483" style="fill: #ff7f0e; stroke: #ff7f0e"/>
     <use xlink:href="#md41d720ce4" x="522.829626" y="64.455828" style="fill: #ff7f0e; stroke: #ff7f0e"/>
     <use xlink:href="#md41d720ce4" x="524.946269" y="80.568022" style="fill: #ff7f0e; stroke: #ff7f0e"/>
     <use xlink:href="#md41d720ce4" x="527.062912" y="108.327473" style="fill: #ff7f0e; stroke: #ff7f0e"/>
     <use xlink:href="#md41d720ce4" x="529.179555" y="123.672495" style="fill: #ff7f0e; stroke: #ff7f0e"/>
     <use xlink:href="#md41d720ce4" x="531.296198" y="112.098613" style="fill: #ff7f0e; stroke: #ff7f0e"/>
     <use xlink:href="#md41d720ce4" x="533.412841" y="83.212847" style="fill: #ff7f0e; stroke: #ff7f0e"/>
     <use xlink:href="#md41d720ce4" x="535.529484" y="64.101177" style="fill: #ff7f0e; stroke: #ff7f0e"/>
     <use xlink:href="#md41d720ce4" x="537.646127" y="74.347757" style="fill: #ff7f0e; stroke: #ff7f0e"/>
     <use xlink:href="#md41d720ce4" x="539.76277" y="104.915495" style="fill: #ff7f0e; stroke: #ff7f0e"/>
     <use xlink:href="#md41d720ce4" x="541.879413" y="124.126063" style="fill: #ff7f0e; stroke: #ff7f0e"/>
     <use xlink:href="#md41d720ce4" x="543.996056" y="109.832893" style="fill: #ff7f0e; stroke: #ff7f0e"/>
     <use xlink:href="#md41d720ce4" x="546.112698" y="76.57446" style="fill: #ff7f0e; stroke: #ff7f0e"/>
     <use xlink:href="#md41d720ce4" x="548.229341" y="63.705152" style="fill: #ff7f0e; stroke: #ff7f0e"/>
     <use xlink:href="#md41d720ce4" x="550.345984" y="89.26374" style="fill: #ff7f0e; stroke: #ff7f0e"/>
     <use xlink:href="#md41d720ce4" x="552.462627" y="121.446882" style="fill: #ff7f0e; stroke: #ff7f0e"/>
     <use xlink:href="#md41d720ce4" x="554.57927" y="113.870874" style="fill: #ff7f0e; stroke: #ff7f0e"/>
     <use xlink:href="#md41d720ce4" x="556.695913" y="73.836166" style="fill: #ff7f0e; stroke: #ff7f0e"/>
     <use xlink:href="#md41d720ce4" x="558.812556" y="64.630609" style="fill: #ff7f0e; stroke: #ff7f0e"/>
     <use xlink:href="#md41d720ce4" x="560.929199" y="104.734333" style="fill: #ff7f0e; stroke: #ff7f0e"/>
     <use xlink:href="#md41d720ce4" x="563.045842" y="103.303091" style="fill: #ff7f0e; stroke: #ff7f0e"/>
    </g>
   </g>
   <g id="line2d_20">
    <path d="M 53.622798 93.819249 
L 388.422798 93.819249 
" clip-path="url(#p1d5d1c0d33)" style="fill: none; stroke-dasharray: 3.7,1.6; stroke-dashoffset: 0; stroke: #808080"/>
   </g>
   <g id="patch_3">
    <path d="M 53.622798 176.979249 
L 53.622798 10.659249 
" style="fill: none; stroke: #000000; stroke-width: 0.8; stroke-linejoin: miter; stroke-linecap: square"/>
   </g>
   <g id="patch_4">
    <path d="M 388.422798 176.979249 
L 388.422798 10.659249 
" style="fill: none; stroke: #000000; stroke-width: 0.8; stroke-linejoin: miter; stroke-linecap: square"/>
   </g>
   <g id="patch_5">
    <path d="M 53.622798 176.979249 
L 388.422798 176.979249 
" style="fill: none; stroke: #000000; stroke-width: 0.8; stroke-linejoin: miter; stroke-linecap: square"/>
   </g>
   <g id="patch_6">
    <path d="M 53.622798 10.659249 
L 388.422798 10.659249 
" style="fill: none; stroke: #000000; stroke-width: 0.8; stroke-linejoin: miter; stroke-linecap: square"/>
   </g>
  </g>
 </g>
 <defs>
  <clipPath id="p1d5d1c0d33">
   <rect x="53.622798" y="10.659249" width="334.8" height="166.32"/>
  </clipPath>
 </defs>
</svg>
