<?xml version="1.0" encoding="utf-8" standalone="no"?>
<!DOCTYPE svg PUBLIC "-//W3C//DTD SVG 1.1//EN"
  "http://www.w3.org/Graphics/SVG/1.1/DTD/svg11.dtd">
<!-- Created with matplotlib (https://matplotlib.org/) -->
<svg height="236.238783pt" version="1.1" viewBox="0 0 438.924137 236.238783" width="438.924137pt" xmlns="http://www.w3.org/2000/svg" xmlns:xlink="http://www.w3.org/1999/xlink">
 <defs>
  <style type="text/css">
*{stroke-linecap:butt;stroke-linejoin:round;}
  </style>
 </defs>
 <g id="figure_1">
  <g id="patch_1">
   <path d="M -0 236.238783 
L 438.924137 236.238783 
L 438.924137 -0 
L -0 -0 
z
" style="fill:none;"/>
  </g>
  <g id="axes_1">
   <g id="patch_2">
    <path d="M 42.096548 199.220466 
L 431.724137 199.220466 
L 431.724137 10.659249 
L 42.096548 10.659249 
z
" style="fill:none;"/>
   </g>
   <g id="matplotlib.axis_1">
    <g id="xtick_1">
     <g id="line2d_1">
      <defs>
       <path d="M 0 0 
L 0 3.5 
" id="mf188718860" style="stroke:#000000;stroke-width:0.8;"/>
      </defs>
      <g>
       <use style="stroke:#000000;stroke-width:0.8;" x="399.998687" xlink:href="#mf188718860" y="199.220466"/>
      </g>
     </g>
     <g id="text_1">
      <!-- $4800$ -->
      <defs>
       <path d="M 33.59375 64.40625 
C 33.59375 66.5 33.5 66.5 31.703125 66.5 
L 2 19.59375 
L 2 17 
L 27.796875 17 
L 27.796875 7.140625 
C 27.796875 3.5 27.59375 2.5 20.59375 2.5 
L 18.703125 2.5 
L 18.703125 0 
C 21.90625 0 27.296875 0 30.703125 0 
C 34.09375 0 39.5 0 42.703125 0 
L 42.703125 2.5 
L 40.796875 2.5 
C 33.796875 2.5 33.59375 3.5 33.59375 7.140625 
L 33.59375 17 
L 43.796875 17 
L 43.796875 19.59375 
L 33.59375 19.59375 
z
M 28.09375 57.859375 
L 28.09375 19.59375 
L 4 19.59375 
z
" id="CMR17-52"/>
       <path d="M 27.203125 35.375 
C 33.5 38.546875 39.90625 43.328125 39.90625 50.984375 
C 39.90625 60.015625 31.09375 65.296875 23 65.296875 
C 13.90625 65.296875 5.90625 58.734375 5.90625 49.6875 
C 5.90625 47.203125 6.5 42.921875 10.40625 39.140625 
C 11.40625 38.15625 15.59375 35.171875 18.296875 33.28125 
C 13.796875 30.984375 3.296875 25.53125 3.296875 14.59375 
C 3.296875 4.359375 13.09375 -2 22.796875 -2 
C 33.5 -2 42.5 5.65625 42.5 15.78125 
C 42.5 24.84375 36.40625 29.015625 32.40625 31.703125 
z
M 14.09375 44.09375 
C 13.296875 44.59375 9.296875 47.671875 9.296875 52.359375 
C 9.296875 58.421875 15.59375 63 22.796875 63 
C 30.703125 63 36.5 57.4375 36.5 50.96875 
C 36.5 41.703125 26.09375 36.421875 25.59375 36.421875 
C 25.5 36.421875 25.40625 36.421875 24.59375 37.03125 
z
M 32.5 23.734375 
C 34 22.640625 38.796875 19.375 38.796875 13.296875 
C 38.796875 5.953125 31.40625 0.390625 23 0.390625 
C 13.90625 0.390625 7 6.84375 7 14.6875 
C 7 22.546875 13.09375 29.09375 20 32.1875 
z
" id="CMR17-56"/>
       <path d="M 42 31.640625 
C 42 37.75 41.90625 48.125 37.703125 56.109375 
C 34 63.109375 28.09375 65.59375 22.90625 65.59375 
C 18.09375 65.59375 12 63.40625 8.203125 56.203125 
C 4.203125 48.71875 3.796875 39.4375 3.796875 31.640625 
C 3.796875 25.953125 3.90625 17.28125 7 9.671875 
C 11.296875 -0.609375 19 -2 22.90625 -2 
C 27.5 -2 34.5 -0.109375 38.59375 9.375 
C 41.59375 16.28125 42 24.359375 42 31.640625 
z
M 22.90625 -0.40625 
C 16.5 -0.40625 12.703125 5.078125 11.296875 12.6875 
C 10.203125 18.5625 10.203125 27.15625 10.203125 32.75 
C 10.203125 40.4375 10.203125 46.828125 11.5 52.921875 
C 13.40625 61.390625 19 64 22.90625 64 
C 27 64 32.296875 61.296875 34.203125 53.125 
C 35.5 47.4375 35.59375 40.734375 35.59375 32.75 
C 35.59375 26.25 35.59375 18.265625 34.40625 12.375 
C 32.296875 1.484375 26.40625 -0.40625 22.90625 -0.40625 
z
" id="CMR17-48"/>
      </defs>
      <g transform="translate(390.036016 213.138965)scale(0.1 -0.1)">
       <use transform="scale(0.996264)" xlink:href="#CMR17-52"/>
       <use transform="translate(45.690477 0)scale(0.996264)" xlink:href="#CMR17-56"/>
       <use transform="translate(91.380954 0)scale(0.996264)" xlink:href="#CMR17-48"/>
       <use transform="translate(137.071431 0)scale(0.996264)" xlink:href="#CMR17-48"/>
      </g>
     </g>
    </g>
    <g id="xtick_2">
     <g id="line2d_2">
      <g>
       <use style="stroke:#000000;stroke-width:0.8;" x="336.547787" xlink:href="#mf188718860" y="199.220466"/>
      </g>
     </g>
     <g id="text_2">
      <!-- $5000$ -->
      <defs>
       <path d="M 11.40625 57.6875 
C 12.40625 57.28125 16.5 56 20.703125 56 
C 30 56 35.09375 61.109375 38 64.0625 
C 38 64.953125 38 65.5 37.40625 65.5 
C 37.296875 65.5 37.09375 65.5 36.296875 65.046875 
C 32.796875 63.40625 28.703125 62.078125 23.703125 62.078125 
C 20.703125 62.078125 16.203125 62.484375 11.296875 64.671875 
C 10.203125 65.171875 10 65.171875 9.90625 65.171875 
C 9.40625 65.171875 9.296875 65.0625 9.296875 63.078125 
L 9.296875 34.421875 
C 9.296875 32.640625 9.296875 32.140625 10.296875 32.140625 
C 10.796875 32.140625 11 32.34375 11.5 33.03125 
C 14.703125 37.515625 19.09375 39.40625 24.09375 39.40625 
C 27.59375 39.40625 35.09375 37.21875 35.09375 20.140625 
C 35.09375 16.953125 35.09375 11.171875 32.09375 6.578125 
C 29.59375 2.484375 25.703125 0.390625 21.40625 0.390625 
C 14.796875 0.390625 8.09375 5 6.296875 12.71875 
C 6.703125 12.609375 7.5 12.421875 7.90625 12.421875 
C 9.203125 12.421875 11.703125 13.125 11.703125 16.21875 
C 11.703125 18.90625 9.796875 20 7.90625 20 
C 5.59375 20 4.09375 18.59375 4.09375 15.796875 
C 4.09375 7.09375 11 -2 21.59375 -2 
C 31.90625 -2 41.703125 6.875 41.703125 19.75 
C 41.703125 31.71875 33.90625 41 24.203125 41 
C 19.09375 41 14.796875 39.109375 11.40625 35.53125 
z
" id="CMR17-53"/>
      </defs>
      <g transform="translate(326.585116 213.138965)scale(0.1 -0.1)">
       <use transform="scale(0.996264)" xlink:href="#CMR17-53"/>
       <use transform="translate(45.690477 0)scale(0.996264)" xlink:href="#CMR17-48"/>
       <use transform="translate(91.380954 0)scale(0.996264)" xlink:href="#CMR17-48"/>
       <use transform="translate(137.071431 0)scale(0.996264)" xlink:href="#CMR17-48"/>
      </g>
     </g>
    </g>
    <g id="xtick_3">
     <g id="line2d_3">
      <g>
       <use style="stroke:#000000;stroke-width:0.8;" x="273.096886" xlink:href="#mf188718860" y="199.220466"/>
      </g>
     </g>
     <g id="text_3">
      <!-- $5200$ -->
      <defs>
       <path d="M 41.703125 15.453125 
L 39.90625 15.453125 
C 38.90625 8.375 38.09375 7.171875 37.703125 6.5625 
C 37.203125 5.765625 30 5.765625 28.59375 5.765625 
L 9.40625 5.765625 
C 13 9.671875 20 16.75 28.5 24.953125 
C 34.59375 30.734375 41.703125 37.53125 41.703125 47.421875 
C 41.703125 59.21875 32.296875 66 21.796875 66 
C 10.796875 66 4.09375 56.3125 4.09375 47.34375 
C 4.09375 43.4375 7 42.9375 8.203125 42.9375 
C 9.203125 42.9375 12.203125 43.546875 12.203125 47.03125 
C 12.203125 50.109375 9.59375 51 8.203125 51 
C 7.59375 51 7 50.90625 6.59375 50.703125 
C 8.5 59.21875 14.296875 63.40625 20.40625 63.40625 
C 29.09375 63.40625 34.796875 56.515625 34.796875 47.421875 
C 34.796875 38.734375 29.703125 31.25 24 24.75 
L 4.09375 2.28125 
L 4.09375 0 
L 39.296875 0 
z
" id="CMR17-50"/>
      </defs>
      <g transform="translate(263.134216 213.138965)scale(0.1 -0.1)">
       <use transform="scale(0.996264)" xlink:href="#CMR17-53"/>
       <use transform="translate(45.690477 0)scale(0.996264)" xlink:href="#CMR17-50"/>
       <use transform="translate(91.380954 0)scale(0.996264)" xlink:href="#CMR17-48"/>
       <use transform="translate(137.071431 0)scale(0.996264)" xlink:href="#CMR17-48"/>
      </g>
     </g>
    </g>
    <g id="xtick_4">
     <g id="line2d_4">
      <g>
       <use style="stroke:#000000;stroke-width:0.8;" x="209.645986" xlink:href="#mf188718860" y="199.220466"/>
      </g>
     </g>
     <g id="text_4">
      <!-- $5400$ -->
      <g transform="translate(199.683315 213.138965)scale(0.1 -0.1)">
       <use transform="scale(0.996264)" xlink:href="#CMR17-53"/>
       <use transform="translate(45.690477 0)scale(0.996264)" xlink:href="#CMR17-52"/>
       <use transform="translate(91.380954 0)scale(0.996264)" xlink:href="#CMR17-48"/>
       <use transform="translate(137.071431 0)scale(0.996264)" xlink:href="#CMR17-48"/>
      </g>
     </g>
    </g>
    <g id="xtick_5">
     <g id="line2d_5">
      <g>
       <use style="stroke:#000000;stroke-width:0.8;" x="146.195086" xlink:href="#mf188718860" y="199.220466"/>
      </g>
     </g>
     <g id="text_5">
      <!-- $5600$ -->
      <defs>
       <path d="M 10.59375 34 
C 10.59375 57.65625 21.796875 63 28.296875 63 
C 30.40625 63 35.5 62.640625 37.5 59 
C 35.90625 59 32.90625 59 32.90625 55.515625 
C 32.90625 52.828125 35.09375 51.921875 36.5 51.921875 
C 37.40625 51.921875 40.09375 52.3125 40.09375 55.625 
C 40.09375 61.78125 35.09375 65.296875 28.203125 65.296875 
C 16.296875 65.296875 3.796875 52.96875 3.796875 31 
C 3.796875 3.953125 15.09375 -2 23.09375 -2 
C 32.796875 -2 42 6.671875 42 20.046875 
C 42 32.515625 33.90625 41.59375 23.703125 41.59375 
C 17.59375 41.59375 13.09375 37.609375 10.59375 30.625 
z
M 23.09375 0.390625 
C 10.796875 0.390625 10.796875 18.75 10.796875 22.4375 
C 10.796875 29.625 14.203125 40 23.5 40 
C 25.203125 40 30.09375 40 33.40625 33.125 
C 35.203125 29.21875 35.203125 25.140625 35.203125 20.140625 
C 35.203125 14.75 35.203125 10.78125 33.09375 6.78125 
C 30.90625 2.671875 27.703125 0.390625 23.09375 0.390625 
z
" id="CMR17-54"/>
      </defs>
      <g transform="translate(136.232415 213.138965)scale(0.1 -0.1)">
       <use transform="scale(0.996264)" xlink:href="#CMR17-53"/>
       <use transform="translate(45.690477 0)scale(0.996264)" xlink:href="#CMR17-54"/>
       <use transform="translate(91.380954 0)scale(0.996264)" xlink:href="#CMR17-48"/>
       <use transform="translate(137.071431 0)scale(0.996264)" xlink:href="#CMR17-48"/>
      </g>
     </g>
    </g>
    <g id="xtick_6">
     <g id="line2d_6">
      <g>
       <use style="stroke:#000000;stroke-width:0.8;" x="82.744185" xlink:href="#mf188718860" y="199.220466"/>
      </g>
     </g>
     <g id="text_6">
      <!-- $5800$ -->
      <g transform="translate(72.781515 213.138965)scale(0.1 -0.1)">
       <use transform="scale(0.996264)" xlink:href="#CMR17-53"/>
       <use transform="translate(45.690477 0)scale(0.996264)" xlink:href="#CMR17-56"/>
       <use transform="translate(91.380954 0)scale(0.996264)" xlink:href="#CMR17-48"/>
       <use transform="translate(137.071431 0)scale(0.996264)" xlink:href="#CMR17-48"/>
      </g>
     </g>
    </g>
    <g id="text_7">
     <!-- effective T/K -->
     <defs>
      <path d="M 38.09375 23 
C 38.5 23.40625 38.5 23.609375 38.5 24.625 
C 38.5 34.96875 33.09375 44 21.703125 44 
C 11.09375 44 2.703125 33.890625 2.703125 21.609375 
C 2.703125 8.609375 12.203125 -1 22.796875 -1 
C 34 -1 38.40625 9.484375 38.40625 11.5625 
C 38.40625 12.25 37.796875 12.25 37.59375 12.25 
C 36.90625 12.25 36.796875 12.046875 36.40625 10.875 
C 34.203125 4.140625 28.703125 0.796875 23.5 0.796875 
C 19.203125 0.796875 14.90625 3.171875 12.203125 7.5 
C 9.09375 12.546875 9.09375 18.375 9.09375 23 
z
M 9.203125 24.5 
C 9.90625 39.140625 17.59375 42.40625 21.59375 42.40625 
C 28.40625 42.40625 33 35.890625 33.09375 24.5 
z
" id="CMR17-101"/>
      <path d="M 39.90625 40 
L 51.296875 40 
L 51.296875 42.578125 
L 39.703125 42.578125 
L 39.703125 54.59375 
C 39.703125 62.84375 43.90625 68 48.203125 68 
C 49.5 68 51 67.609375 52 66.90625 
C 51.203125 66.703125 49.09375 66.015625 49.09375 63.546875 
C 49.09375 60.953125 51.09375 60.15625 52.5 60.15625 
C 53.90625 60.15625 55.90625 60.953125 55.90625 63.546875 
C 55.90625 67.3125 52.296875 69.59375 48.296875 69.59375 
C 44.40625 69.59375 41.203125 67.703125 38.703125 65.328125 
C 36.40625 68.59375 32.59375 69.59375 28.703125 69.59375 
C 20.90625 69.59375 9.90625 65.125 9.90625 54.203125 
L 9.90625 42.578125 
L 1.90625 42.578125 
L 1.90625 40 
L 9.90625 40 
L 9.90625 6.671875 
C 9.90625 2.875 9.5 2.390625 3.09375 2.390625 
L 3.09375 -0.203125 
C 5.5 0 9.90625 0 12.40625 0 
C 15 0 19.40625 0 21.796875 -0.203125 
L 21.796875 2.390625 
C 15.40625 2.390625 15 2.78125 15 6.671875 
L 15 40 
L 34.796875 40 
L 34.796875 6.671875 
C 34.796875 2.875 34.40625 2.390625 28 2.390625 
L 28 -0.203125 
C 30.40625 0 35 0 37.59375 0 
C 40.5 0 45.59375 0 48.296875 -0.203125 
L 48.296875 2.390625 
C 41.09375 2.390625 39.90625 2.390625 39.90625 6.859375 
z
M 14.796875 42.578125 
L 14.796875 54.203125 
C 14.796875 63.234375 21.796875 68 28.5 68 
C 30 68 33.90625 67.6875 36.296875 65.421875 
C 34.5 65.421875 32.796875 64.625 32.796875 62.140625 
C 32.796875 59.5625 35.09375 58.859375 35.296875 58.859375 
C 34.796875 57.0625 34.796875 55.09375 34.796875 54.390625 
L 34.796875 42.578125 
z
" id="CMR17-11"/>
      <path d="M 34.90625 35 
C 33 35 30.203125 35 30.203125 31.515625 
C 30.203125 28.71875 32.5 27.921875 33.796875 27.921875 
C 34.5 27.921875 37.40625 28.234375 37.40625 31.625 
C 37.40625 38.546875 30.59375 43.796875 22.90625 43.796875 
C 12.296875 43.796875 3.296875 34.03125 3.296875 21.296875 
C 3.296875 8.0625 12.703125 -1 22.90625 -1 
C 35.296875 -1 38.40625 10.578125 38.40625 11.6875 
C 38.40625 12.09375 38.296875 12.390625 37.59375 12.390625 
C 36.90625 12.390625 36.796875 12.296875 36.40625 10.984375 
C 33.796875 2.8125 28.09375 0.796875 23.796875 0.796875 
C 17.40625 0.796875 9.703125 6.671875 9.703125 21.390625 
C 9.703125 36.53125 17.09375 42 23 42 
C 26.90625 42 32.703125 40.203125 34.90625 35 
z
" id="CMR17-99"/>
      <path d="M 15.09375 40 
L 29.09375 40 
L 29.09375 42.578125 
L 15.09375 42.578125 
L 15.09375 61 
L 13.296875 61 
C 13.09375 50.703125 9.59375 41.6875 1.09375 41.6875 
L 1.09375 40 
L 9.796875 40 
L 9.796875 12.046875 
C 9.796875 10.15625 9.796875 -1 21.40625 -1 
C 27.296875 -1 30.703125 4.78125 30.703125 12.140625 
L 30.703125 17.8125 
L 28.90625 17.8125 
L 28.90625 12.234375 
C 28.90625 5.375 26.203125 0.796875 22 0.796875 
C 19.09375 0.796875 15.09375 2.78125 15.09375 11.84375 
z
" id="CMR17-116"/>
      <path d="M 15.5 61.078125 
C 15.5 63.265625 13.703125 65.15625 11.40625 65.15625 
C 9.203125 65.15625 7.296875 63.375 7.296875 61.078125 
C 7.296875 58.890625 9.09375 57 11.40625 57 
C 13.59375 57 15.5 58.796875 15.5 61.078125 
z
M 3.796875 42.28125 
L 3.796875 39.703125 
C 9.40625 39.703125 10.203125 39.09375 10.203125 34.328125 
L 10.203125 6.671875 
C 10.203125 2.875 9.796875 2.390625 3.40625 2.390625 
L 3.40625 -0.203125 
C 5.796875 0 10.09375 0 12.59375 0 
C 15 0 19.09375 0 21.40625 -0.203125 
L 21.40625 2.390625 
C 15.5 2.390625 15.296875 2.984375 15.296875 6.5625 
L 15.296875 43.375 
z
" id="CMR17-105"/>
      <path d="M 39.09375 33.796875 
C 40 36 41.59375 40 47.40625 40 
L 47.40625 42.59375 
C 45.5 42.59375 43 42.59375 41.09375 42.59375 
C 39 42.59375 35.703125 42.59375 33.703125 42.6875 
L 33.703125 40.09375 
C 36.203125 39.890625 37.59375 38.703125 37.59375 36.109375 
C 37.59375 35.203125 37.59375 35 37 33.609375 
L 26 5.890625 
L 14.09375 35.71875 
C 13.5 37.015625 13.5 37.203125 13.5 37.609375 
C 13.5 40 16.796875 40 18.296875 40 
L 18.296875 42.6875 
C 15.90625 42.59375 11.5 42.59375 9 42.59375 
C 6.296875 42.59375 3.203125 42.59375 1 42.6875 
L 1 40 
C 4.796875 40 6.90625 40 8.09375 36.90625 
L 22.59375 0.6875 
C 23.203125 -0.796875 23.296875 -1 24.203125 -1 
C 25.09375 -1 25.203125 -0.796875 25.796875 0.6875 
z
" id="CMR17-118"/>
      <path d="M 62.203125 67.59375 
L 4.5 67.59375 
L 2.796875 45.59375 
L 4.59375 45.59375 
C 5.90625 62.125 7.296875 65 22.703125 65 
C 24.5 65 27.40625 65 28.203125 64.90625 
C 30.09375 64.609375 30.09375 63.40625 30.09375 61.125 
L 30.09375 7.171875 
C 30.09375 3.59375 29.796875 2.5 21.5 2.5 
L 18.703125 2.5 
L 18.703125 0 
C 23.5 0 28.5 0 33.40625 0 
C 38.296875 0 43.296875 0 48.09375 0 
L 48.09375 2.5 
L 45.296875 2.5 
C 37 2.5 36.703125 3.59375 36.703125 7.171875 
L 36.703125 61.125 
C 36.703125 63.3125 36.703125 64.515625 38.5 64.90625 
C 39.296875 65 42.203125 65 44 65 
C 59.296875 65 60.796875 62.125 62.09375 45.59375 
L 63.90625 45.59375 
z
" id="CMR17-84"/>
      <path d="M 40.703125 71.015625 
C 41.203125 72.296875 41.203125 72.5 41.203125 72.703125 
C 41.203125 73.890625 40.296875 74.5 39.5 74.5 
C 38.296875 74.5 37.90625 73.703125 37.5 72.5 
L 5.09375 -21.515625 
C 4.59375 -22.8125 4.59375 -23.015625 4.59375 -23.21875 
C 4.59375 -24.40625 5.5 -25 6.296875 -25 
C 7.5 -25 7.90625 -24.203125 8.296875 -23.015625 
z
" id="CMR17-47"/>
      <path d="M 36.90625 41.796875 
L 54.203125 59.09375 
C 57.796875 62.59375 61.59375 65.40625 67.203125 65.40625 
L 67.203125 68 
C 65.203125 68 62.703125 68 60.703125 68 
C 58 68 53.296875 68 50.703125 68.09375 
L 50.703125 65.5 
C 53.296875 65.3125 53.703125 63.515625 53.703125 62.796875 
C 53.703125 62.109375 53.296875 61.015625 52.90625 60.421875 
L 19.703125 27.15625 
L 19.703125 60.9375 
C 19.703125 65.40625 20.796875 65.40625 27.703125 65.40625 
L 27.703125 68 
C 24.796875 68 19.5 68 16.40625 68 
C 13.296875 68 8 68 5.09375 68 
L 5.09375 65.40625 
C 12 65.40625 13.09375 65.40625 13.09375 60.921875 
L 13.09375 6.96875 
C 13.09375 2.5 12 2.5 5.09375 2.5 
L 5.09375 0 
C 8 0 13.296875 0 16.40625 0 
C 19.5 0 24.796875 0 27.703125 0 
L 27.703125 2.5 
C 20.796875 2.5 19.703125 2.5 19.703125 6.984375 
L 19.703125 24.671875 
L 32.5 37.34375 
L 51.40625 8.390625 
C 52 7.390625 52.703125 6.09375 52.703125 5.09375 
C 52.703125 2.5 49.90625 2.5 48.59375 2.5 
L 48.59375 0 
C 51.796875 0 56.40625 0 59.703125 0 
C 62.09375 0 66.203125 0 68.5 -0.09375 
L 68.5 2.5 
C 63.703125 2.5 62.203125 3.09375 59.203125 7.703125 
z
" id="CMR17-75"/>
     </defs>
     <g transform="translate(207.714225 226.548123)scale(0.1 -0.1)">
      <use transform="scale(0.996264)" xlink:href="#CMR17-101"/>
      <use transform="translate(40.48566 0)scale(0.996264)" xlink:href="#CMR17-11"/>
      <use transform="translate(92.830338 0)scale(0.996264)" xlink:href="#CMR17-101"/>
      <use transform="translate(133.315998 0)scale(0.996264)" xlink:href="#CMR17-99"/>
      <use transform="translate(173.801659 0)scale(0.996264)" xlink:href="#CMR17-116"/>
      <use transform="translate(209.082426 0)scale(0.996264)" xlink:href="#CMR17-105"/>
      <use transform="translate(233.953485 0)scale(0.996264)" xlink:href="#CMR17-118"/>
      <use transform="translate(279.643947 0)scale(0.996264)" xlink:href="#CMR17-101"/>
      <use transform="translate(350.205574 0)scale(0.996264)" xlink:href="#CMR17-84"/>
      <use transform="translate(416.715454 0)scale(0.996264)" xlink:href="#CMR17-47"/>
      <use transform="translate(462.405931 0)scale(0.996264)" xlink:href="#CMR17-75"/>
     </g>
    </g>
   </g>
   <g id="matplotlib.axis_2">
    <g id="ytick_1">
     <g id="line2d_7">
      <defs>
       <path d="M 0 0 
L -3.5 0 
" id="m8ad3fc03fc" style="stroke:#000000;stroke-width:0.8;"/>
      </defs>
      <g>
       <use style="stroke:#000000;stroke-width:0.8;" x="42.096548" xlink:href="#m8ad3fc03fc" y="152.247316"/>
      </g>
     </g>
     <g id="text_8">
      <!-- $10^{0}$ -->
      <defs>
       <path d="M 26.59375 63.40625 
C 26.59375 65.5 26.5 65.5 25.09375 65.5 
C 21.203125 61.1875 15.296875 59.796875 9.703125 59.796875 
C 9.40625 59.796875 8.90625 59.796875 8.796875 59.5 
C 8.703125 59.296875 8.703125 59.09375 8.703125 57 
C 11.796875 57 17 57.59375 21 59.984375 
L 21 7.203125 
C 21 3.6875 20.796875 2.5 12.203125 2.5 
L 9.203125 2.5 
L 9.203125 0 
C 14 0 19 0 23.796875 0 
C 28.59375 0 33.59375 0 38.40625 0 
L 38.40625 2.5 
L 35.40625 2.5 
C 26.796875 2.5 26.59375 3.59375 26.59375 7.15625 
z
" id="CMR17-49"/>
      </defs>
      <g transform="translate(21.16264 155.706565)scale(0.1 -0.1)">
       <use transform="scale(0.996264)" xlink:href="#CMR17-49"/>
       <use transform="translate(45.690477 0)scale(0.996264)" xlink:href="#CMR17-48"/>
       <use transform="translate(91.380954 36.153639)scale(0.697382)" xlink:href="#CMR17-48"/>
      </g>
     </g>
    </g>
    <g id="ytick_2">
     <g id="line2d_8">
      <g>
       <use style="stroke:#000000;stroke-width:0.8;" x="42.096548" xlink:href="#m8ad3fc03fc" y="10.659249"/>
      </g>
     </g>
     <g id="text_9">
      <!-- $10^{1}$ -->
      <g transform="translate(21.16264 14.118498)scale(0.1 -0.1)">
       <use transform="scale(0.996264)" xlink:href="#CMR17-49"/>
       <use transform="translate(45.690477 0)scale(0.996264)" xlink:href="#CMR17-48"/>
       <use transform="translate(91.380954 36.153639)scale(0.697382)" xlink:href="#CMR17-49"/>
      </g>
     </g>
    </g>
    <g id="ytick_3">
     <g id="line2d_9">
      <defs>
       <path d="M 0 0 
L -2 0 
" id="m0127069b33" style="stroke:#000000;stroke-width:0.6;"/>
      </defs>
      <g>
       <use style="stroke:#000000;stroke-width:0.6;" x="42.096548" xlink:href="#m0127069b33" y="194.869571"/>
      </g>
     </g>
    </g>
    <g id="ytick_4">
     <g id="line2d_10">
      <g>
       <use style="stroke:#000000;stroke-width:0.6;" x="42.096548" xlink:href="#m0127069b33" y="183.658451"/>
      </g>
     </g>
    </g>
    <g id="ytick_5">
     <g id="line2d_11">
      <g>
       <use style="stroke:#000000;stroke-width:0.6;" x="42.096548" xlink:href="#m0127069b33" y="174.179585"/>
      </g>
     </g>
    </g>
    <g id="ytick_6">
     <g id="line2d_12">
      <g>
       <use style="stroke:#000000;stroke-width:0.6;" x="42.096548" xlink:href="#m0127069b33" y="165.968617"/>
      </g>
     </g>
    </g>
    <g id="ytick_7">
     <g id="line2d_13">
      <g>
       <use style="stroke:#000000;stroke-width:0.6;" x="42.096548" xlink:href="#m0127069b33" y="158.72603"/>
      </g>
     </g>
    </g>
    <g id="ytick_8">
     <g id="line2d_14">
      <g>
       <use style="stroke:#000000;stroke-width:0.6;" x="42.096548" xlink:href="#m0127069b33" y="109.625061"/>
      </g>
     </g>
    </g>
    <g id="ytick_9">
     <g id="line2d_15">
      <g>
       <use style="stroke:#000000;stroke-width:0.6;" x="42.096548" xlink:href="#m0127069b33" y="84.69264"/>
      </g>
     </g>
    </g>
    <g id="ytick_10">
     <g id="line2d_16">
      <g>
       <use style="stroke:#000000;stroke-width:0.6;" x="42.096548" xlink:href="#m0127069b33" y="67.002806"/>
      </g>
     </g>
    </g>
    <g id="ytick_11">
     <g id="line2d_17">
      <g>
       <use style="stroke:#000000;stroke-width:0.6;" x="42.096548" xlink:href="#m0127069b33" y="53.281504"/>
      </g>
     </g>
    </g>
    <g id="ytick_12">
     <g id="line2d_18">
      <g>
       <use style="stroke:#000000;stroke-width:0.6;" x="42.096548" xlink:href="#m0127069b33" y="42.070385"/>
      </g>
     </g>
    </g>
    <g id="ytick_13">
     <g id="line2d_19">
      <g>
       <use style="stroke:#000000;stroke-width:0.6;" x="42.096548" xlink:href="#m0127069b33" y="32.591518"/>
      </g>
     </g>
    </g>
    <g id="ytick_14">
     <g id="line2d_20">
      <g>
       <use style="stroke:#000000;stroke-width:0.6;" x="42.096548" xlink:href="#m0127069b33" y="24.380551"/>
      </g>
     </g>
    </g>
    <g id="ytick_15">
     <g id="line2d_21">
      <g>
       <use style="stroke:#000000;stroke-width:0.6;" x="42.096548" xlink:href="#m0127069b33" y="17.137964"/>
      </g>
     </g>
    </g>
    <g id="text_10">
     <!-- $L/L_\odot$ -->
     <defs>
      <path d="M 36.703125 60.328125 
C 37.59375 64.109375 37.90625 65.109375 46.703125 65.109375 
C 49.40625 65.109375 50.09375 65.109375 50.09375 67 
C 50.09375 68 49 68 48.59375 68 
C 46.59375 68 44.296875 68 42.296875 68 
L 28.90625 68 
C 27 68 24.796875 68 22.90625 68 
C 22.09375 68 21 68 21 66.109375 
C 21 65.109375 21.90625 65.109375 23.40625 65.109375 
C 29.5 65.109375 29.5 64.3125 29.5 63.21875 
C 29.5 63.03125 29.5 62.421875 29.09375 60.921875 
L 15.59375 7.375 
C 14.703125 3.890625 14.5 2.890625 7.5 2.890625 
C 5.59375 2.890625 4.59375 2.890625 4.59375 1.09375 
C 4.59375 0 5.203125 0 7.203125 0 
L 52 0 
C 54.203125 0 54.296875 0.09375 55 1.890625 
L 62.703125 23.09375 
C 62.90625 23.59375 63.09375 24.1875 63.09375 24.484375 
C 63.09375 25.078125 62.59375 25.484375 62.09375 25.484375 
C 62 25.484375 61.5 25.484375 61.296875 25.078125 
C 61.09375 24.984375 61.09375 24.78125 60.296875 22.890625 
C 57.09375 14.140625 52.59375 2.890625 35.703125 2.890625 
L 26.09375 2.890625 
C 24.703125 2.890625 24.5 2.890625 23.90625 3 
C 22.796875 3.09375 22.703125 3.296875 22.703125 4.09375 
C 22.703125 4.796875 22.90625 5.390625 23.09375 6.265625 
z
" id="CMMI12-76"/>
      <path d="M 42.90625 71.28125 
C 42.90625 71.390625 43.5 72.90625 43.5 73.09375 
C 43.5 74.296875 42.5 75 41.703125 75 
C 41.203125 75 40.296875 75 39.5 72.796875 
L 6 -21.296875 
C 6 -21.40625 5.40625 -22.890625 5.40625 -23.09375 
C 5.40625 -24.296875 6.40625 -25 7.203125 -25 
C 7.796875 -25 8.703125 -24.890625 9.40625 -22.796875 
z
" id="CMMI12-61"/>
      <path d="M 72.21875 25 
C 72.21875 43.4375 57.21875 58.359375 38.90625 58.359375 
C 20.3125 58.359375 5.5 43.234375 5.5 25 
C 5.5 6.5625 20.5 -8.359375 38.8125 -8.359375 
C 57.421875 -8.359375 72.21875 6.765625 72.21875 25 
z
M 38.90625 -5.859375 
C 21.703125 -5.859375 8 8.0625 8 25 
C 8 42.234375 22 55.859375 38.8125 55.859375 
C 56.015625 55.859375 69.71875 41.9375 69.71875 25 
C 69.71875 7.765625 55.71875 -5.859375 38.90625 -5.859375 
z
M 45.703125 25 
C 45.703125 28.796875 42.59375 31.90625 38.90625 31.90625 
C 34.90625 31.90625 32 28.59375 32 25 
C 32 21.203125 35.09375 18.09375 38.796875 18.09375 
C 42.796875 18.09375 45.703125 21.40625 45.703125 25 
z
" id="CMSY10-12"/>
     </defs>
     <g transform="translate(15.225462 117.324005)rotate(-90)scale(0.1 -0.1)">
      <use transform="translate(0 14.943915)scale(0.996264)" xlink:href="#CMMI12-76"/>
      <use transform="translate(66.370875 14.943915)scale(0.996264)" xlink:href="#CMMI12-61"/>
      <use transform="translate(115.145794 14.943915)scale(0.996264)" xlink:href="#CMMI12-76"/>
      <use transform="translate(181.51667 0)scale(0.697382)" xlink:href="#CMSY10-12"/>
     </g>
    </g>
   </g>
   <g id="LineCollection_1">
    <path clip-path="url(#p2c426099a8)" d="M 114.469635 95.903759 
L 51.018735 95.903759 
" style="fill:none;stroke:#808080;stroke-width:1.5;"/>
   </g>
   <g id="LineCollection_2">
    <path clip-path="url(#p2c426099a8)" d="M 82.744185 109.625061 
L 82.744185 84.69264 
" style="fill:none;stroke:#808080;stroke-width:1.5;"/>
   </g>
   <g id="line2d_22">
    <path clip-path="url(#p2c426099a8)" d="M 124.746064 172.001194 
L 135.865972 175.163317 
L 138.687305 175.441295 
L 135.80927 174.45258 
L 131.917411 173.485298 
L 129.417201 172.647992 
L 120.696836 169.028838 
L 108.745439 163.338646 
L 103.27276 160.485058 
L 98.160658 157.585576 
L 93.582586 154.653144 
L 89.701909 151.706061 
L 86.492563 148.76138 
L 84.149867 145.840123 
L 82.870432 142.987518 
L 82.821309 140.308957 
L 84.220223 137.9031 
L 86.133412 135.903362 
L 87.352952 134.391869 
L 89.71822 130.584615 
L 90.56549 129.418525 
L 92.559169 127.236619 
L 93.600505 126.219861 
L 97.375245 123.472234 
L 100.059578 121.880147 
L 102.835455 120.455822 
L 104.144896 119.800346 
L 111.198242 117.00065 
L 118.726872 114.767516 
L 127.248361 112.72296 
L 136.584763 110.967568 
L 146.927334 109.486013 
L 158.029328 108.280648 
L 169.715817 107.337426 
L 182.15218 106.635297 
L 195.075192 106.147844 
L 208.335692 105.833949 
L 235.277706 105.610887 
L 273.960786 105.581435 
L 285.899761 105.458812 
L 297.037097 105.226332 
L 307.607492 104.84318 
L 317.197996 104.295812 
L 326.08366 103.563295 
L 334.156431 102.64695 
L 341.434032 101.545739 
L 347.934423 100.260217 
L 353.727249 98.789703 
L 358.887283 97.159777 
L 363.472939 95.379738 
L 367.564031 93.456133 
L 371.091595 91.41774 
L 374.26646 89.253711 
L 377.147043 87.011721 
L 379.58006 84.704377 
L 381.821517 82.31702 
L 385.724892 77.436095 
L 390.608655 69.943646 
L 392.153036 67.476947 
L 401.562101 50.652874 
L 409.827072 37.324893 
L 412.72072 33.154397 
L 415.588587 29.139684 
L 421.385377 21.476965 
L 425.813985 16.046364 
L 434.698865 5.887962 
L 439.1688 1.140281 
L 439.924137 0.329833 
L 439.924137 0.329833 
" style="fill:none;stroke:#006ba4;stroke-linecap:square;stroke-width:1.5;"/>
    <defs>
     <path d="M 0 1.5 
C 0.397805 1.5 0.77937 1.341951 1.06066 1.06066 
C 1.341951 0.77937 1.5 0.397805 1.5 0 
C 1.5 -0.397805 1.341951 -0.77937 1.06066 -1.06066 
C 0.77937 -1.341951 0.397805 -1.5 0 -1.5 
C -0.397805 -1.5 -0.77937 -1.341951 -1.06066 -1.06066 
C -1.341951 -0.77937 -1.5 -0.397805 -1.5 0 
C -1.5 0.397805 -1.341951 0.77937 -1.06066 1.06066 
C -0.77937 1.341951 -0.397805 1.5 0 1.5 
z
" id="mcf2919e2fe" style="stroke:#006ba4;"/>
    </defs>
    <g clip-path="url(#p2c426099a8)">
     <use style="fill:#006ba4;stroke:#006ba4;" x="124.746064" xlink:href="#mcf2919e2fe" y="172.001194"/>
     <use style="fill:#006ba4;stroke:#006ba4;" x="129.450048" xlink:href="#mcf2919e2fe" y="173.382022"/>
     <use style="fill:#006ba4;stroke:#006ba4;" x="135.865972" xlink:href="#mcf2919e2fe" y="175.163317"/>
     <use style="fill:#006ba4;stroke:#006ba4;" x="138.687305" xlink:href="#mcf2919e2fe" y="175.441295"/>
     <use style="fill:#006ba4;stroke:#006ba4;" x="135.80927" xlink:href="#mcf2919e2fe" y="174.45258"/>
     <use style="fill:#006ba4;stroke:#006ba4;" x="131.917411" xlink:href="#mcf2919e2fe" y="173.485298"/>
     <use style="fill:#006ba4;stroke:#006ba4;" x="129.417201" xlink:href="#mcf2919e2fe" y="172.647992"/>
     <use style="fill:#006ba4;stroke:#006ba4;" x="126.654431" xlink:href="#mcf2919e2fe" y="171.484159"/>
     <use style="fill:#006ba4;stroke:#006ba4;" x="120.696836" xlink:href="#mcf2919e2fe" y="169.028838"/>
     <use style="fill:#006ba4;stroke:#006ba4;" x="114.522577" xlink:href="#mcf2919e2fe" y="166.148491"/>
     <use style="fill:#006ba4;stroke:#006ba4;" x="108.745439" xlink:href="#mcf2919e2fe" y="163.338646"/>
     <use style="fill:#006ba4;stroke:#006ba4;" x="103.27276" xlink:href="#mcf2919e2fe" y="160.485058"/>
     <use style="fill:#006ba4;stroke:#006ba4;" x="98.160658" xlink:href="#mcf2919e2fe" y="157.585576"/>
     <use style="fill:#006ba4;stroke:#006ba4;" x="93.582586" xlink:href="#mcf2919e2fe" y="154.653144"/>
     <use style="fill:#006ba4;stroke:#006ba4;" x="89.701909" xlink:href="#mcf2919e2fe" y="151.706061"/>
     <use style="fill:#006ba4;stroke:#006ba4;" x="86.492563" xlink:href="#mcf2919e2fe" y="148.76138"/>
     <use style="fill:#006ba4;stroke:#006ba4;" x="84.149867" xlink:href="#mcf2919e2fe" y="145.840123"/>
     <use style="fill:#006ba4;stroke:#006ba4;" x="82.870432" xlink:href="#mcf2919e2fe" y="142.987518"/>
     <use style="fill:#006ba4;stroke:#006ba4;" x="82.821309" xlink:href="#mcf2919e2fe" y="140.308957"/>
     <use style="fill:#006ba4;stroke:#006ba4;" x="84.220223" xlink:href="#mcf2919e2fe" y="137.9031"/>
     <use style="fill:#006ba4;stroke:#006ba4;" x="86.133412" xlink:href="#mcf2919e2fe" y="135.903362"/>
     <use style="fill:#006ba4;stroke:#006ba4;" x="87.352952" xlink:href="#mcf2919e2fe" y="134.391869"/>
     <use style="fill:#006ba4;stroke:#006ba4;" x="88.151762" xlink:href="#mcf2919e2fe" y="133.053319"/>
     <use style="fill:#006ba4;stroke:#006ba4;" x="88.897279" xlink:href="#mcf2919e2fe" y="131.794006"/>
     <use style="fill:#006ba4;stroke:#006ba4;" x="89.71822" xlink:href="#mcf2919e2fe" y="130.584615"/>
     <use style="fill:#006ba4;stroke:#006ba4;" x="90.56549" xlink:href="#mcf2919e2fe" y="129.418525"/>
     <use style="fill:#006ba4;stroke:#006ba4;" x="91.568211" xlink:href="#mcf2919e2fe" y="128.303983"/>
     <use style="fill:#006ba4;stroke:#006ba4;" x="92.559169" xlink:href="#mcf2919e2fe" y="127.236619"/>
     <use style="fill:#006ba4;stroke:#006ba4;" x="93.600505" xlink:href="#mcf2919e2fe" y="126.219861"/>
     <use style="fill:#006ba4;stroke:#006ba4;" x="94.867341" xlink:href="#mcf2919e2fe" y="125.254446"/>
     <use style="fill:#006ba4;stroke:#006ba4;" x="96.061447" xlink:href="#mcf2919e2fe" y="124.337679"/>
     <use style="fill:#006ba4;stroke:#006ba4;" x="97.375245" xlink:href="#mcf2919e2fe" y="123.472234"/>
     <use style="fill:#006ba4;stroke:#006ba4;" x="98.653167" xlink:href="#mcf2919e2fe" y="122.652854"/>
     <use style="fill:#006ba4;stroke:#006ba4;" x="100.059578" xlink:href="#mcf2919e2fe" y="121.880147"/>
     <use style="fill:#006ba4;stroke:#006ba4;" x="101.400615" xlink:href="#mcf2919e2fe" y="121.146592"/>
     <use style="fill:#006ba4;stroke:#006ba4;" x="102.835455" xlink:href="#mcf2919e2fe" y="120.455822"/>
     <use style="fill:#006ba4;stroke:#006ba4;" x="104.144896" xlink:href="#mcf2919e2fe" y="119.800346"/>
     <use style="fill:#006ba4;stroke:#006ba4;" x="105.676825" xlink:href="#mcf2919e2fe" y="119.180189"/>
     <use style="fill:#006ba4;stroke:#006ba4;" x="107.170272" xlink:href="#mcf2919e2fe" y="118.51536"/>
     <use style="fill:#006ba4;stroke:#006ba4;" x="111.198242" xlink:href="#mcf2919e2fe" y="117.00065"/>
     <use style="fill:#006ba4;stroke:#006ba4;" x="118.726872" xlink:href="#mcf2919e2fe" y="114.767516"/>
     <use style="fill:#006ba4;stroke:#006ba4;" x="127.248361" xlink:href="#mcf2919e2fe" y="112.72296"/>
     <use style="fill:#006ba4;stroke:#006ba4;" x="136.584763" xlink:href="#mcf2919e2fe" y="110.967568"/>
     <use style="fill:#006ba4;stroke:#006ba4;" x="146.927334" xlink:href="#mcf2919e2fe" y="109.486013"/>
     <use style="fill:#006ba4;stroke:#006ba4;" x="158.029328" xlink:href="#mcf2919e2fe" y="108.280648"/>
     <use style="fill:#006ba4;stroke:#006ba4;" x="169.715817" xlink:href="#mcf2919e2fe" y="107.337426"/>
     <use style="fill:#006ba4;stroke:#006ba4;" x="182.15218" xlink:href="#mcf2919e2fe" y="106.635297"/>
     <use style="fill:#006ba4;stroke:#006ba4;" x="195.075192" xlink:href="#mcf2919e2fe" y="106.147844"/>
     <use style="fill:#006ba4;stroke:#006ba4;" x="208.335692" xlink:href="#mcf2919e2fe" y="105.833949"/>
     <use style="fill:#006ba4;stroke:#006ba4;" x="221.740713" xlink:href="#mcf2919e2fe" y="105.671954"/>
     <use style="fill:#006ba4;stroke:#006ba4;" x="235.277706" xlink:href="#mcf2919e2fe" y="105.610887"/>
     <use style="fill:#006ba4;stroke:#006ba4;" x="248.545473" xlink:href="#mcf2919e2fe" y="105.610858"/>
     <use style="fill:#006ba4;stroke:#006ba4;" x="251.174472" xlink:href="#mcf2919e2fe" y="105.615332"/>
     <use style="fill:#006ba4;stroke:#006ba4;" x="261.564288" xlink:href="#mcf2919e2fe" y="105.615407"/>
     <use style="fill:#006ba4;stroke:#006ba4;" x="273.960786" xlink:href="#mcf2919e2fe" y="105.581435"/>
     <use style="fill:#006ba4;stroke:#006ba4;" x="285.899761" xlink:href="#mcf2919e2fe" y="105.458812"/>
     <use style="fill:#006ba4;stroke:#006ba4;" x="297.037097" xlink:href="#mcf2919e2fe" y="105.226332"/>
     <use style="fill:#006ba4;stroke:#006ba4;" x="307.607492" xlink:href="#mcf2919e2fe" y="104.84318"/>
     <use style="fill:#006ba4;stroke:#006ba4;" x="317.197996" xlink:href="#mcf2919e2fe" y="104.295812"/>
     <use style="fill:#006ba4;stroke:#006ba4;" x="326.08366" xlink:href="#mcf2919e2fe" y="103.563295"/>
     <use style="fill:#006ba4;stroke:#006ba4;" x="334.156431" xlink:href="#mcf2919e2fe" y="102.64695"/>
     <use style="fill:#006ba4;stroke:#006ba4;" x="341.434032" xlink:href="#mcf2919e2fe" y="101.545739"/>
     <use style="fill:#006ba4;stroke:#006ba4;" x="347.934423" xlink:href="#mcf2919e2fe" y="100.260217"/>
     <use style="fill:#006ba4;stroke:#006ba4;" x="353.727249" xlink:href="#mcf2919e2fe" y="98.789703"/>
     <use style="fill:#006ba4;stroke:#006ba4;" x="358.887283" xlink:href="#mcf2919e2fe" y="97.159777"/>
     <use style="fill:#006ba4;stroke:#006ba4;" x="363.472939" xlink:href="#mcf2919e2fe" y="95.379738"/>
     <use style="fill:#006ba4;stroke:#006ba4;" x="367.564031" xlink:href="#mcf2919e2fe" y="93.456133"/>
     <use style="fill:#006ba4;stroke:#006ba4;" x="371.091595" xlink:href="#mcf2919e2fe" y="91.41774"/>
     <use style="fill:#006ba4;stroke:#006ba4;" x="374.26646" xlink:href="#mcf2919e2fe" y="89.253711"/>
     <use style="fill:#006ba4;stroke:#006ba4;" x="377.147043" xlink:href="#mcf2919e2fe" y="87.011721"/>
     <use style="fill:#006ba4;stroke:#006ba4;" x="379.58006" xlink:href="#mcf2919e2fe" y="84.704377"/>
     <use style="fill:#006ba4;stroke:#006ba4;" x="381.821517" xlink:href="#mcf2919e2fe" y="82.31702"/>
     <use style="fill:#006ba4;stroke:#006ba4;" x="383.786909" xlink:href="#mcf2919e2fe" y="79.916541"/>
     <use style="fill:#006ba4;stroke:#006ba4;" x="385.724892" xlink:href="#mcf2919e2fe" y="77.436095"/>
     <use style="fill:#006ba4;stroke:#006ba4;" x="387.370158" xlink:href="#mcf2919e2fe" y="74.969446"/>
     <use style="fill:#006ba4;stroke:#006ba4;" x="389.114607" xlink:href="#mcf2919e2fe" y="72.447487"/>
     <use style="fill:#006ba4;stroke:#006ba4;" x="390.608655" xlink:href="#mcf2919e2fe" y="69.943646"/>
     <use style="fill:#006ba4;stroke:#006ba4;" x="392.153036" xlink:href="#mcf2919e2fe" y="67.476947"/>
     <use style="fill:#006ba4;stroke:#006ba4;" x="393.529598" xlink:href="#mcf2919e2fe" y="64.998807"/>
     <use style="fill:#006ba4;stroke:#006ba4;" x="394.867397" xlink:href="#mcf2919e2fe" y="62.544276"/>
     <use style="fill:#006ba4;stroke:#006ba4;" x="396.167161" xlink:href="#mcf2919e2fe" y="60.132932"/>
     <use style="fill:#006ba4;stroke:#006ba4;" x="397.538952" xlink:href="#mcf2919e2fe" y="57.709559"/>
     <use style="fill:#006ba4;stroke:#006ba4;" x="398.872796" xlink:href="#mcf2919e2fe" y="55.308396"/>
     <use style="fill:#006ba4;stroke:#006ba4;" x="400.262859" xlink:href="#mcf2919e2fe" y="52.968176"/>
     <use style="fill:#006ba4;stroke:#006ba4;" x="401.562101" xlink:href="#mcf2919e2fe" y="50.652874"/>
     <use style="fill:#006ba4;stroke:#006ba4;" x="402.988201" xlink:href="#mcf2919e2fe" y="48.33389"/>
     <use style="fill:#006ba4;stroke:#006ba4;" x="404.341294" xlink:href="#mcf2919e2fe" y="46.072168"/>
     <use style="fill:#006ba4;stroke:#006ba4;" x="405.670227" xlink:href="#mcf2919e2fe" y="43.832375"/>
     <use style="fill:#006ba4;stroke:#006ba4;" x="407.04107" xlink:href="#mcf2919e2fe" y="41.637214"/>
     <use style="fill:#006ba4;stroke:#006ba4;" x="408.405237" xlink:href="#mcf2919e2fe" y="39.46976"/>
     <use style="fill:#006ba4;stroke:#006ba4;" x="409.827072" xlink:href="#mcf2919e2fe" y="37.324893"/>
     <use style="fill:#006ba4;stroke:#006ba4;" x="411.361361" xlink:href="#mcf2919e2fe" y="35.211577"/>
     <use style="fill:#006ba4;stroke:#006ba4;" x="412.72072" xlink:href="#mcf2919e2fe" y="33.154397"/>
     <use style="fill:#006ba4;stroke:#006ba4;" x="414.110365" xlink:href="#mcf2919e2fe" y="31.137777"/>
     <use style="fill:#006ba4;stroke:#006ba4;" x="415.588587" xlink:href="#mcf2919e2fe" y="29.139684"/>
     <use style="fill:#006ba4;stroke:#006ba4;" x="417.051861" xlink:href="#mcf2919e2fe" y="27.179694"/>
     <use style="fill:#006ba4;stroke:#006ba4;" x="418.508095" xlink:href="#mcf2919e2fe" y="25.234488"/>
     <use style="fill:#006ba4;stroke:#006ba4;" x="419.935478" xlink:href="#mcf2919e2fe" y="23.336137"/>
     <use style="fill:#006ba4;stroke:#006ba4;" x="421.385377" xlink:href="#mcf2919e2fe" y="21.476965"/>
     <use style="fill:#006ba4;stroke:#006ba4;" x="422.852641" xlink:href="#mcf2919e2fe" y="19.654631"/>
     <use style="fill:#006ba4;stroke:#006ba4;" x="424.335163" xlink:href="#mcf2919e2fe" y="17.832749"/>
     <use style="fill:#006ba4;stroke:#006ba4;" x="425.813985" xlink:href="#mcf2919e2fe" y="16.046364"/>
     <use style="fill:#006ba4;stroke:#006ba4;" x="427.331402" xlink:href="#mcf2919e2fe" y="14.286863"/>
     <use style="fill:#006ba4;stroke:#006ba4;" x="428.773024" xlink:href="#mcf2919e2fe" y="12.552805"/>
     <use style="fill:#006ba4;stroke:#006ba4;" x="430.246111" xlink:href="#mcf2919e2fe" y="10.858301"/>
     <use style="fill:#006ba4;stroke:#006ba4;" x="431.756596" xlink:href="#mcf2919e2fe" y="9.171428"/>
     <use style="fill:#006ba4;stroke:#006ba4;" x="433.222347" xlink:href="#mcf2919e2fe" y="7.518244"/>
     <use style="fill:#006ba4;stroke:#006ba4;" x="434.698865" xlink:href="#mcf2919e2fe" y="5.887962"/>
     <use style="fill:#006ba4;stroke:#006ba4;" x="436.169136" xlink:href="#mcf2919e2fe" y="4.276552"/>
     <use style="fill:#006ba4;stroke:#006ba4;" x="437.725385" xlink:href="#mcf2919e2fe" y="2.704065"/>
     <use style="fill:#006ba4;stroke:#006ba4;" x="439.1688" xlink:href="#mcf2919e2fe" y="1.140281"/>
     <use style="fill:#006ba4;stroke:#006ba4;" x="440.613782" xlink:href="#mcf2919e2fe" y="-0.410131"/>
     <use style="fill:#006ba4;stroke:#006ba4;" x="441.203395" xlink:href="#mcf2919e2fe" y="-1"/>
    </g>
   </g>
   <g id="line2d_23">
    <defs>
     <path d="M 0 2 
L 0 -2 
" id="mbc7aca5324" style="stroke:#808080;"/>
    </defs>
    <g clip-path="url(#p2c426099a8)">
     <use style="fill:#808080;stroke:#808080;" x="114.469635" xlink:href="#mbc7aca5324" y="95.903759"/>
    </g>
   </g>
   <g id="line2d_24">
    <g clip-path="url(#p2c426099a8)">
     <use style="fill:#808080;stroke:#808080;" x="51.018735" xlink:href="#mbc7aca5324" y="95.903759"/>
    </g>
   </g>
   <g id="line2d_25">
    <defs>
     <path d="M 2 0 
L -2 -0 
" id="m3fa6456909" style="stroke:#808080;"/>
    </defs>
    <g clip-path="url(#p2c426099a8)">
     <use style="fill:#808080;stroke:#808080;" x="82.744185" xlink:href="#m3fa6456909" y="109.625061"/>
    </g>
   </g>
   <g id="line2d_26">
    <g clip-path="url(#p2c426099a8)">
     <use style="fill:#808080;stroke:#808080;" x="82.744185" xlink:href="#m3fa6456909" y="84.69264"/>
    </g>
   </g>
   <g id="line2d_27">
    <path clip-path="url(#p2c426099a8)" d="M 82.744185 95.903759 
" style="fill:none;stroke:#808080;stroke-linecap:square;stroke-width:1.5;"/>
   </g>
   <g id="patch_3">
    <path d="M 42.096548 199.220466 
L 42.096548 10.659249 
" style="fill:none;stroke:#000000;stroke-linecap:square;stroke-linejoin:miter;stroke-width:0.8;"/>
   </g>
   <g id="patch_4">
    <path d="M 431.724137 199.220466 
L 431.724137 10.659249 
" style="fill:none;stroke:#000000;stroke-linecap:square;stroke-linejoin:miter;stroke-width:0.8;"/>
   </g>
   <g id="patch_5">
    <path d="M 42.096548 199.220466 
L 431.724137 199.220466 
" style="fill:none;stroke:#000000;stroke-linecap:square;stroke-linejoin:miter;stroke-width:0.8;"/>
   </g>
   <g id="patch_6">
    <path d="M 42.096548 10.659249 
L 431.724137 10.659249 
" style="fill:none;stroke:#000000;stroke-linecap:square;stroke-linejoin:miter;stroke-width:0.8;"/>
   </g>
  </g>
 </g>
 <defs>
  <clipPath id="p2c426099a8">
   <rect height="188.561217" width="389.627589" x="42.096548" y="10.659249"/>
  </clipPath>
 </defs>
</svg>
