<?xml version="1.0" encoding="utf-8" standalone="no"?>
<!DOCTYPE svg PUBLIC "-//W3C//DTD SVG 1.1//EN"
  "http://www.w3.org/Graphics/SVG/1.1/DTD/svg11.dtd">
<!-- Created with matplotlib (https://matplotlib.org/) -->
<svg height="210.538317pt" version="1.1" viewBox="0 0 380.76598 210.538317" width="380.76598pt" xmlns="http://www.w3.org/2000/svg" xmlns:xlink="http://www.w3.org/1999/xlink">
 <metadata>
  <rdf:RDF xmlns:cc="http://creativecommons.org/ns#" xmlns:dc="http://purl.org/dc/elements/1.1/" xmlns:rdf="http://www.w3.org/1999/02/22-rdf-syntax-ns#">
   <cc:Work>
    <dc:type rdf:resource="http://purl.org/dc/dcmitype/StillImage"/>
    <dc:date>2021-09-19T10:41:52.946594</dc:date>
    <dc:format>image/svg+xml</dc:format>
    <dc:creator>
     <cc:Agent>
      <dc:title>Matplotlib v3.3.3, https://matplotlib.org/</dc:title>
     </cc:Agent>
    </dc:creator>
   </cc:Work>
  </rdf:RDF>
 </metadata>
 <defs>
  <style type="text/css">*{stroke-linecap:butt;stroke-linejoin:round;}</style>
 </defs>
 <g id="figure_1">
  <g id="patch_1">
   <path d="M 0 210.538317 
L 380.76598 210.538317 
L 380.76598 0 
L 0 0 
z
" style="fill:none;"/>
  </g>
  <g id="axes_1">
   <g id="patch_2">
    <path d="M 37.018347 173.52 
L 371.818347 173.52 
L 371.818347 7.2 
L 37.018347 7.2 
z
" style="fill:none;"/>
   </g>
   <g id="matplotlib.axis_1">
    <g id="xtick_1">
     <g id="line2d_1">
      <defs>
       <path d="M 0 0 
L 0 3.5 
" id="m078476c586" style="stroke:#000000;stroke-width:0.8;"/>
      </defs>
      <g>
       <use style="stroke:#000000;stroke-width:0.8;" x="37.018347" xlink:href="#m078476c586" y="173.52"/>
      </g>
     </g>
     <g id="text_1">
      <!-- $\mathdefault{10^{-5}}$ -->
      <g transform="translate(26.938061 187.438498)scale(0.1 -0.1)">
       <defs>
        <path d="M 26.59375 63.40625 
C 26.59375 65.5 26.5 65.5 25.09375 65.5 
C 21.203125 61.1875 15.296875 59.796875 9.703125 59.796875 
C 9.40625 59.796875 8.90625 59.796875 8.796875 59.5 
C 8.703125 59.296875 8.703125 59.09375 8.703125 57 
C 11.796875 57 17 57.59375 21 59.984375 
L 21 7.203125 
C 21 3.6875 20.796875 2.5 12.203125 2.5 
L 9.203125 2.5 
L 9.203125 0 
C 14 0 19 0 23.796875 0 
C 28.59375 0 33.59375 0 38.40625 0 
L 38.40625 2.5 
L 35.40625 2.5 
C 26.796875 2.5 26.59375 3.59375 26.59375 7.15625 
z
" id="CMR17-49"/>
        <path d="M 42 31.640625 
C 42 37.75 41.90625 48.125 37.703125 56.109375 
C 34 63.109375 28.09375 65.59375 22.90625 65.59375 
C 18.09375 65.59375 12 63.40625 8.203125 56.203125 
C 4.203125 48.71875 3.796875 39.4375 3.796875 31.640625 
C 3.796875 25.953125 3.90625 17.28125 7 9.671875 
C 11.296875 -0.609375 19 -2 22.90625 -2 
C 27.5 -2 34.5 -0.109375 38.59375 9.375 
C 41.59375 16.28125 42 24.359375 42 31.640625 
z
M 22.90625 -0.40625 
C 16.5 -0.40625 12.703125 5.078125 11.296875 12.6875 
C 10.203125 18.5625 10.203125 27.15625 10.203125 32.75 
C 10.203125 40.4375 10.203125 46.828125 11.5 52.921875 
C 13.40625 61.390625 19 64 22.90625 64 
C 27 64 32.296875 61.296875 34.203125 53.125 
C 35.5 47.4375 35.59375 40.734375 35.59375 32.75 
C 35.59375 26.25 35.59375 18.265625 34.40625 12.375 
C 32.296875 1.484375 26.40625 -0.40625 22.90625 -0.40625 
z
" id="CMR17-48"/>
        <path d="M 65.90625 23 
C 67.59375 23 69.40625 23 69.40625 25 
C 69.40625 27 67.59375 27 65.90625 27 
L 11.796875 27 
C 10.09375 27 8.296875 27 8.296875 25 
C 8.296875 23 10.09375 23 11.796875 23 
z
" id="CMSY10-0"/>
        <path d="M 11.40625 57.6875 
C 12.40625 57.28125 16.5 56 20.703125 56 
C 30 56 35.09375 61.109375 38 64.0625 
C 38 64.953125 38 65.5 37.40625 65.5 
C 37.296875 65.5 37.09375 65.5 36.296875 65.046875 
C 32.796875 63.40625 28.703125 62.078125 23.703125 62.078125 
C 20.703125 62.078125 16.203125 62.484375 11.296875 64.671875 
C 10.203125 65.171875 10 65.171875 9.90625 65.171875 
C 9.40625 65.171875 9.296875 65.0625 9.296875 63.078125 
L 9.296875 34.421875 
C 9.296875 32.640625 9.296875 32.140625 10.296875 32.140625 
C 10.796875 32.140625 11 32.34375 11.5 33.03125 
C 14.703125 37.515625 19.09375 39.40625 24.09375 39.40625 
C 27.59375 39.40625 35.09375 37.21875 35.09375 20.140625 
C 35.09375 16.953125 35.09375 11.171875 32.09375 6.578125 
C 29.59375 2.484375 25.703125 0.390625 21.40625 0.390625 
C 14.796875 0.390625 8.09375 5 6.296875 12.71875 
C 6.703125 12.609375 7.5 12.421875 7.90625 12.421875 
C 9.203125 12.421875 11.703125 13.125 11.703125 16.21875 
C 11.703125 18.90625 9.796875 20 7.90625 20 
C 5.59375 20 4.09375 18.59375 4.09375 15.796875 
C 4.09375 7.09375 11 -2 21.59375 -2 
C 31.90625 -2 41.703125 6.875 41.703125 19.75 
C 41.703125 31.71875 33.90625 41 24.203125 41 
C 19.09375 41 14.796875 39.109375 11.40625 35.53125 
z
" id="CMR17-53"/>
       </defs>
       <use transform="scale(0.996264)" xlink:href="#CMR17-49"/>
       <use transform="translate(45.690477 0)scale(0.996264)" xlink:href="#CMR17-48"/>
       <use transform="translate(91.380954 36.153639)scale(0.697382)" xlink:href="#CMSY10-0"/>
       <use transform="translate(145.621947 36.153639)scale(0.697382)" xlink:href="#CMR17-53"/>
      </g>
     </g>
    </g>
    <g id="xtick_2">
     <g id="line2d_2">
      <g>
       <use style="stroke:#000000;stroke-width:0.8;" x="102.934483" xlink:href="#m078476c586" y="173.52"/>
      </g>
     </g>
     <g id="text_2">
      <!-- $\mathdefault{10^{-4}}$ -->
      <g transform="translate(92.854196 187.438498)scale(0.1 -0.1)">
       <defs>
        <path d="M 33.59375 64.40625 
C 33.59375 66.5 33.5 66.5 31.703125 66.5 
L 2 19.59375 
L 2 17 
L 27.796875 17 
L 27.796875 7.140625 
C 27.796875 3.5 27.59375 2.5 20.59375 2.5 
L 18.703125 2.5 
L 18.703125 0 
C 21.90625 0 27.296875 0 30.703125 0 
C 34.09375 0 39.5 0 42.703125 0 
L 42.703125 2.5 
L 40.796875 2.5 
C 33.796875 2.5 33.59375 3.5 33.59375 7.140625 
L 33.59375 17 
L 43.796875 17 
L 43.796875 19.59375 
L 33.59375 19.59375 
z
M 28.09375 57.859375 
L 28.09375 19.59375 
L 4 19.59375 
z
" id="CMR17-52"/>
       </defs>
       <use transform="scale(0.996264)" xlink:href="#CMR17-49"/>
       <use transform="translate(45.690477 0)scale(0.996264)" xlink:href="#CMR17-48"/>
       <use transform="translate(91.380954 36.153639)scale(0.697382)" xlink:href="#CMSY10-0"/>
       <use transform="translate(145.621947 36.153639)scale(0.697382)" xlink:href="#CMR17-52"/>
      </g>
     </g>
    </g>
    <g id="xtick_3">
     <g id="line2d_3">
      <g>
       <use style="stroke:#000000;stroke-width:0.8;" x="168.850619" xlink:href="#m078476c586" y="173.52"/>
      </g>
     </g>
     <g id="text_3">
      <!-- $\mathdefault{10^{-3}}$ -->
      <g transform="translate(158.770332 187.438498)scale(0.1 -0.1)">
       <defs>
        <path d="M 22.09375 33.703125 
C 31 33.703125 34.90625 25.96875 34.90625 17.03125 
C 34.90625 5 28.5 0.390625 22.703125 0.390625 
C 17.40625 0.390625 8.796875 3.03125 6.09375 10.828125 
C 6.59375 10.625 7.09375 10.625 7.59375 10.625 
C 10 10.625 11.796875 12.21875 11.796875 14.8125 
C 11.796875 17.703125 9.59375 19 7.59375 19 
C 5.90625 19 3.296875 18.203125 3.296875 14.46875 
C 3.296875 5.234375 12.296875 -2 22.90625 -2 
C 34 -2 42.5 6.71875 42.5 16.953125 
C 42.5 26.671875 34.5 33.703125 25 34.796875 
C 32.59375 36.375 39.90625 43.0625 39.90625 52.015625 
C 39.90625 59.6875 32 65.296875 23 65.296875 
C 13.90625 65.296875 5.90625 59.828125 5.90625 52.015625 
C 5.90625 48.59375 8.5 48 9.796875 48 
C 11.90625 48 13.703125 49.296875 13.703125 51.890625 
C 13.703125 54.46875 11.90625 55.765625 9.796875 55.765625 
C 9.40625 55.765625 8.90625 55.765625 8.5 55.578125 
C 11.40625 61.859375 19.296875 63 22.796875 63 
C 26.296875 63 32.90625 61.328125 32.90625 51.875 
C 32.90625 49.109375 32.5 44.1875 29.09375 39.84375 
C 26.09375 36 22.703125 36 19.40625 35.6875 
C 18.90625 35.6875 16.59375 35.453125 16.203125 35.453125 
C 15.5 35.359375 15.09375 35.265625 15.09375 34.5 
C 15.09375 33.796875 15.203125 33.703125 17.203125 33.703125 
z
" id="CMR17-51"/>
       </defs>
       <use transform="scale(0.996264)" xlink:href="#CMR17-49"/>
       <use transform="translate(45.690477 0)scale(0.996264)" xlink:href="#CMR17-48"/>
       <use transform="translate(91.380954 36.153639)scale(0.697382)" xlink:href="#CMSY10-0"/>
       <use transform="translate(145.621947 36.153639)scale(0.697382)" xlink:href="#CMR17-51"/>
      </g>
     </g>
    </g>
    <g id="xtick_4">
     <g id="line2d_4">
      <g>
       <use style="stroke:#000000;stroke-width:0.8;" x="234.766754" xlink:href="#m078476c586" y="173.52"/>
      </g>
     </g>
     <g id="text_4">
      <!-- $\mathdefault{10^{-2}}$ -->
      <g transform="translate(224.686467 187.438498)scale(0.1 -0.1)">
       <defs>
        <path d="M 41.703125 15.453125 
L 39.90625 15.453125 
C 38.90625 8.375 38.09375 7.171875 37.703125 6.5625 
C 37.203125 5.765625 30 5.765625 28.59375 5.765625 
L 9.40625 5.765625 
C 13 9.671875 20 16.75 28.5 24.953125 
C 34.59375 30.734375 41.703125 37.53125 41.703125 47.421875 
C 41.703125 59.21875 32.296875 66 21.796875 66 
C 10.796875 66 4.09375 56.3125 4.09375 47.34375 
C 4.09375 43.4375 7 42.9375 8.203125 42.9375 
C 9.203125 42.9375 12.203125 43.546875 12.203125 47.03125 
C 12.203125 50.109375 9.59375 51 8.203125 51 
C 7.59375 51 7 50.90625 6.59375 50.703125 
C 8.5 59.21875 14.296875 63.40625 20.40625 63.40625 
C 29.09375 63.40625 34.796875 56.515625 34.796875 47.421875 
C 34.796875 38.734375 29.703125 31.25 24 24.75 
L 4.09375 2.28125 
L 4.09375 0 
L 39.296875 0 
z
" id="CMR17-50"/>
       </defs>
       <use transform="scale(0.996264)" xlink:href="#CMR17-49"/>
       <use transform="translate(45.690477 0)scale(0.996264)" xlink:href="#CMR17-48"/>
       <use transform="translate(91.380954 36.153639)scale(0.697382)" xlink:href="#CMSY10-0"/>
       <use transform="translate(145.621947 36.153639)scale(0.697382)" xlink:href="#CMR17-50"/>
      </g>
     </g>
    </g>
    <g id="xtick_5">
     <g id="line2d_5">
      <g>
       <use style="stroke:#000000;stroke-width:0.8;" x="300.68289" xlink:href="#m078476c586" y="173.52"/>
      </g>
     </g>
     <g id="text_5">
      <!-- $\mathdefault{10^{-1}}$ -->
      <g transform="translate(290.602603 187.438498)scale(0.1 -0.1)">
       <use transform="scale(0.996264)" xlink:href="#CMR17-49"/>
       <use transform="translate(45.690477 0)scale(0.996264)" xlink:href="#CMR17-48"/>
       <use transform="translate(91.380954 36.153639)scale(0.697382)" xlink:href="#CMSY10-0"/>
       <use transform="translate(145.621947 36.153639)scale(0.697382)" xlink:href="#CMR17-49"/>
      </g>
     </g>
    </g>
    <g id="xtick_6">
     <g id="line2d_6">
      <g>
       <use style="stroke:#000000;stroke-width:0.8;" x="366.599025" xlink:href="#m078476c586" y="173.52"/>
      </g>
     </g>
     <g id="text_6">
      <!-- $\mathdefault{10^{0}}$ -->
      <g transform="translate(359.632071 187.438498)scale(0.1 -0.1)">
       <use transform="scale(0.996264)" xlink:href="#CMR17-49"/>
       <use transform="translate(45.690477 0)scale(0.996264)" xlink:href="#CMR17-48"/>
       <use transform="translate(91.380954 36.153639)scale(0.697382)" xlink:href="#CMR17-48"/>
      </g>
     </g>
    </g>
    <g id="xtick_7">
     <g id="line2d_7">
      <defs>
       <path d="M 0 0 
L 0 2 
" id="m6255a4397e" style="stroke:#000000;stroke-width:0.6;"/>
      </defs>
      <g>
       <use style="stroke:#000000;stroke-width:0.6;" x="56.861081" xlink:href="#m6255a4397e" y="173.52"/>
      </g>
     </g>
    </g>
    <g id="xtick_8">
     <g id="line2d_8">
      <g>
       <use style="stroke:#000000;stroke-width:0.6;" x="68.468337" xlink:href="#m6255a4397e" y="173.52"/>
      </g>
     </g>
    </g>
    <g id="xtick_9">
     <g id="line2d_9">
      <g>
       <use style="stroke:#000000;stroke-width:0.6;" x="76.703815" xlink:href="#m6255a4397e" y="173.52"/>
      </g>
     </g>
    </g>
    <g id="xtick_10">
     <g id="line2d_10">
      <g>
       <use style="stroke:#000000;stroke-width:0.6;" x="83.091749" xlink:href="#m6255a4397e" y="173.52"/>
      </g>
     </g>
    </g>
    <g id="xtick_11">
     <g id="line2d_11">
      <g>
       <use style="stroke:#000000;stroke-width:0.6;" x="88.311071" xlink:href="#m6255a4397e" y="173.52"/>
      </g>
     </g>
    </g>
    <g id="xtick_12">
     <g id="line2d_12">
      <g>
       <use style="stroke:#000000;stroke-width:0.6;" x="92.723944" xlink:href="#m6255a4397e" y="173.52"/>
      </g>
     </g>
    </g>
    <g id="xtick_13">
     <g id="line2d_13">
      <g>
       <use style="stroke:#000000;stroke-width:0.6;" x="96.546549" xlink:href="#m6255a4397e" y="173.52"/>
      </g>
     </g>
    </g>
    <g id="xtick_14">
     <g id="line2d_14">
      <g>
       <use style="stroke:#000000;stroke-width:0.6;" x="99.918326" xlink:href="#m6255a4397e" y="173.52"/>
      </g>
     </g>
    </g>
    <g id="xtick_15">
     <g id="line2d_15">
      <g>
       <use style="stroke:#000000;stroke-width:0.6;" x="122.777217" xlink:href="#m6255a4397e" y="173.52"/>
      </g>
     </g>
    </g>
    <g id="xtick_16">
     <g id="line2d_16">
      <g>
       <use style="stroke:#000000;stroke-width:0.6;" x="134.384472" xlink:href="#m6255a4397e" y="173.52"/>
      </g>
     </g>
    </g>
    <g id="xtick_17">
     <g id="line2d_17">
      <g>
       <use style="stroke:#000000;stroke-width:0.6;" x="142.619951" xlink:href="#m6255a4397e" y="173.52"/>
      </g>
     </g>
    </g>
    <g id="xtick_18">
     <g id="line2d_18">
      <g>
       <use style="stroke:#000000;stroke-width:0.6;" x="149.007884" xlink:href="#m6255a4397e" y="173.52"/>
      </g>
     </g>
    </g>
    <g id="xtick_19">
     <g id="line2d_19">
      <g>
       <use style="stroke:#000000;stroke-width:0.6;" x="154.227206" xlink:href="#m6255a4397e" y="173.52"/>
      </g>
     </g>
    </g>
    <g id="xtick_20">
     <g id="line2d_20">
      <g>
       <use style="stroke:#000000;stroke-width:0.6;" x="158.64008" xlink:href="#m6255a4397e" y="173.52"/>
      </g>
     </g>
    </g>
    <g id="xtick_21">
     <g id="line2d_21">
      <g>
       <use style="stroke:#000000;stroke-width:0.6;" x="162.462685" xlink:href="#m6255a4397e" y="173.52"/>
      </g>
     </g>
    </g>
    <g id="xtick_22">
     <g id="line2d_22">
      <g>
       <use style="stroke:#000000;stroke-width:0.6;" x="165.834462" xlink:href="#m6255a4397e" y="173.52"/>
      </g>
     </g>
    </g>
    <g id="xtick_23">
     <g id="line2d_23">
      <g>
       <use style="stroke:#000000;stroke-width:0.6;" x="188.693353" xlink:href="#m6255a4397e" y="173.52"/>
      </g>
     </g>
    </g>
    <g id="xtick_24">
     <g id="line2d_24">
      <g>
       <use style="stroke:#000000;stroke-width:0.6;" x="200.300608" xlink:href="#m6255a4397e" y="173.52"/>
      </g>
     </g>
    </g>
    <g id="xtick_25">
     <g id="line2d_25">
      <g>
       <use style="stroke:#000000;stroke-width:0.6;" x="208.536087" xlink:href="#m6255a4397e" y="173.52"/>
      </g>
     </g>
    </g>
    <g id="xtick_26">
     <g id="line2d_26">
      <g>
       <use style="stroke:#000000;stroke-width:0.6;" x="214.92402" xlink:href="#m6255a4397e" y="173.52"/>
      </g>
     </g>
    </g>
    <g id="xtick_27">
     <g id="line2d_27">
      <g>
       <use style="stroke:#000000;stroke-width:0.6;" x="220.143342" xlink:href="#m6255a4397e" y="173.52"/>
      </g>
     </g>
    </g>
    <g id="xtick_28">
     <g id="line2d_28">
      <g>
       <use style="stroke:#000000;stroke-width:0.6;" x="224.556216" xlink:href="#m6255a4397e" y="173.52"/>
      </g>
     </g>
    </g>
    <g id="xtick_29">
     <g id="line2d_29">
      <g>
       <use style="stroke:#000000;stroke-width:0.6;" x="228.378821" xlink:href="#m6255a4397e" y="173.52"/>
      </g>
     </g>
    </g>
    <g id="xtick_30">
     <g id="line2d_30">
      <g>
       <use style="stroke:#000000;stroke-width:0.6;" x="231.750597" xlink:href="#m6255a4397e" y="173.52"/>
      </g>
     </g>
    </g>
    <g id="xtick_31">
     <g id="line2d_31">
      <g>
       <use style="stroke:#000000;stroke-width:0.6;" x="254.609488" xlink:href="#m6255a4397e" y="173.52"/>
      </g>
     </g>
    </g>
    <g id="xtick_32">
     <g id="line2d_32">
      <g>
       <use style="stroke:#000000;stroke-width:0.6;" x="266.216744" xlink:href="#m6255a4397e" y="173.52"/>
      </g>
     </g>
    </g>
    <g id="xtick_33">
     <g id="line2d_33">
      <g>
       <use style="stroke:#000000;stroke-width:0.6;" x="274.452222" xlink:href="#m6255a4397e" y="173.52"/>
      </g>
     </g>
    </g>
    <g id="xtick_34">
     <g id="line2d_34">
      <g>
       <use style="stroke:#000000;stroke-width:0.6;" x="280.840156" xlink:href="#m6255a4397e" y="173.52"/>
      </g>
     </g>
    </g>
    <g id="xtick_35">
     <g id="line2d_35">
      <g>
       <use style="stroke:#000000;stroke-width:0.6;" x="286.059478" xlink:href="#m6255a4397e" y="173.52"/>
      </g>
     </g>
    </g>
    <g id="xtick_36">
     <g id="line2d_36">
      <g>
       <use style="stroke:#000000;stroke-width:0.6;" x="290.472351" xlink:href="#m6255a4397e" y="173.52"/>
      </g>
     </g>
    </g>
    <g id="xtick_37">
     <g id="line2d_37">
      <g>
       <use style="stroke:#000000;stroke-width:0.6;" x="294.294956" xlink:href="#m6255a4397e" y="173.52"/>
      </g>
     </g>
    </g>
    <g id="xtick_38">
     <g id="line2d_38">
      <g>
       <use style="stroke:#000000;stroke-width:0.6;" x="297.666733" xlink:href="#m6255a4397e" y="173.52"/>
      </g>
     </g>
    </g>
    <g id="xtick_39">
     <g id="line2d_39">
      <g>
       <use style="stroke:#000000;stroke-width:0.6;" x="320.525624" xlink:href="#m6255a4397e" y="173.52"/>
      </g>
     </g>
    </g>
    <g id="xtick_40">
     <g id="line2d_40">
      <g>
       <use style="stroke:#000000;stroke-width:0.6;" x="332.132879" xlink:href="#m6255a4397e" y="173.52"/>
      </g>
     </g>
    </g>
    <g id="xtick_41">
     <g id="line2d_41">
      <g>
       <use style="stroke:#000000;stroke-width:0.6;" x="340.368358" xlink:href="#m6255a4397e" y="173.52"/>
      </g>
     </g>
    </g>
    <g id="xtick_42">
     <g id="line2d_42">
      <g>
       <use style="stroke:#000000;stroke-width:0.6;" x="346.756291" xlink:href="#m6255a4397e" y="173.52"/>
      </g>
     </g>
    </g>
    <g id="xtick_43">
     <g id="line2d_43">
      <g>
       <use style="stroke:#000000;stroke-width:0.6;" x="351.975613" xlink:href="#m6255a4397e" y="173.52"/>
      </g>
     </g>
    </g>
    <g id="xtick_44">
     <g id="line2d_44">
      <g>
       <use style="stroke:#000000;stroke-width:0.6;" x="356.388487" xlink:href="#m6255a4397e" y="173.52"/>
      </g>
     </g>
    </g>
    <g id="xtick_45">
     <g id="line2d_45">
      <g>
       <use style="stroke:#000000;stroke-width:0.6;" x="360.211092" xlink:href="#m6255a4397e" y="173.52"/>
      </g>
     </g>
    </g>
    <g id="xtick_46">
     <g id="line2d_46">
      <g>
       <use style="stroke:#000000;stroke-width:0.6;" x="363.582869" xlink:href="#m6255a4397e" y="173.52"/>
      </g>
     </g>
    </g>
    <g id="text_7">
     <!-- $r/R$ -->
     <g transform="translate(195.759678 200.847657)scale(0.1 -0.1)">
      <defs>
       <path d="M 38.90625 40.8125 
C 35.796875 40.21875 34.203125 38.015625 34.203125 35.828125 
C 34.203125 33.421875 36.09375 32.625 37.5 32.625 
C 40.296875 32.625 42.59375 35.03125 42.59375 38.015625 
C 42.59375 41.21875 39.5 44 34.5 44 
C 30.5 44 25.90625 42.203125 21.703125 36.125 
C 21 41.40625 17 44 13 44 
C 9.09375 44 7.09375 41.015625 5.90625 38.8125 
C 4.203125 35.21875 2.703125 29.234375 2.703125 28.734375 
C 2.703125 28.34375 3.09375 27.84375 3.796875 27.84375 
C 4.59375 27.84375 4.703125 27.9375 5.296875 30.234375 
C 6.796875 36.21875 8.703125 42.015625 12.703125 42.015625 
C 15.09375 42.015625 15.796875 40.3125 15.796875 37.421875 
C 15.796875 35.21875 14.796875 31.328125 14.09375 28.234375 
L 11.296875 17.46875 
C 10.90625 15.5625 9.796875 11.078125 9.296875 9.28125 
C 8.59375 6.6875 7.5 2 7.5 1.5 
C 7.5 0.09375 8.59375 -1 10.09375 -1 
C 11.203125 -1 13.09375 -0.296875 13.703125 1.703125 
C 14 2.5 17.703125 17.5625 18.296875 19.859375 
C 18.796875 22.046875 19.40625 24.15625 19.90625 26.34375 
C 20.296875 27.734375 20.703125 29.34375 21 30.640625 
C 21.296875 31.53125 24 36.421875 26.5 38.625 
C 27.703125 39.71875 30.296875 42.015625 34.40625 42.015625 
C 36 42.015625 37.59375 41.71875 38.90625 40.8125 
z
" id="CMMI12-114"/>
       <path d="M 42.90625 71.28125 
C 42.90625 71.390625 43.5 72.90625 43.5 73.09375 
C 43.5 74.296875 42.5 75 41.703125 75 
C 41.203125 75 40.296875 75 39.5 72.796875 
L 6 -21.296875 
C 6 -21.40625 5.40625 -22.890625 5.40625 -23.09375 
C 5.40625 -24.296875 6.40625 -25 7.203125 -25 
C 7.796875 -25 8.703125 -24.890625 9.40625 -22.796875 
z
" id="CMMI12-61"/>
       <path d="M 36.796875 61.3125 
C 37.703125 65 38.09375 65 42 65 
L 49.203125 65 
C 57.796875 65 64.203125 62.421875 64.203125 54.671875 
C 64.203125 49.609375 61.59375 35 41.5 35 
L 30.203125 35 
z
M 50.703125 33.890625 
C 63.09375 36.578125 72.796875 44.546875 72.796875 53.09375 
C 72.796875 60.84375 64.90625 68 51 68 
L 23.90625 68 
C 21.90625 68 21 68 21 66.03125 
C 21 65 21.703125 65 23.59375 65 
C 29.59375 65 29.59375 64.25 29.59375 63.203125 
C 29.59375 63.015625 29.59375 62.40625 29.203125 60.921875 
L 15.703125 7.484375 
C 14.796875 4 14.59375 3 7.703125 3 
C 5.40625 3 4.703125 3 4.703125 1.109375 
C 4.703125 0.109375 5.796875 0.109375 6.09375 0.109375 
C 7.90625 0.109375 10 0.109375 11.90625 0.109375 
L 23.703125 0.109375 
C 25.5 0.109375 27.59375 0.109375 29.40625 0.109375 
C 30.203125 0.109375 31.296875 0.109375 31.296875 2 
C 31.296875 3 30.40625 3 28.90625 3 
C 22.796875 3 22.796875 3.796875 22.796875 4.78125 
C 22.796875 4.890625 22.796875 5.578125 23 6.359375 
L 29.703125 33 
L 41.703125 33 
C 51.203125 33 53 27.046875 53 23.78125 
C 53 22.296875 52 18.421875 51.296875 15.84375 
C 50.203125 11.296875 49.90625 10.1875 49.90625 8.3125 
C 49.90625 1.28125 55.703125 -2 62.40625 -2 
C 70.5 -2 74 7.828125 74 9.234375 
C 74 9.921875 73.5 10.21875 72.90625 10.21875 
C 72.09375 10.21875 71.90625 9.625 71.703125 8.828125 
C 69.296875 1.78125 65.203125 0 62.703125 0 
C 60.203125 0 58.59375 1.09375 58.59375 5.5625 
C 58.59375 7.953125 59.796875 17 59.90625 17.5 
C 60.40625 21.171875 60.40625 21.5625 60.40625 22.375 
C 60.40625 29.625 54.5 32.703125 50.703125 33.890625 
z
" id="CMMI12-82"/>
      </defs>
      <use transform="scale(0.996264)" xlink:href="#CMMI12-114"/>
      <use transform="translate(46.670612 0)scale(0.996264)" xlink:href="#CMMI12-61"/>
      <use transform="translate(95.445531 0)scale(0.996264)" xlink:href="#CMMI12-82"/>
     </g>
    </g>
   </g>
   <g id="matplotlib.axis_2">
    <g id="ytick_1">
     <g id="line2d_47">
      <defs>
       <path d="M 0 0 
L -3.5 0 
" id="m5a95488d9f" style="stroke:#000000;stroke-width:0.8;"/>
      </defs>
      <g>
       <use style="stroke:#000000;stroke-width:0.8;" x="37.018347" xlink:href="#m5a95488d9f" y="173.52"/>
      </g>
     </g>
     <g id="text_8">
      <!-- $\mathdefault{0}$ -->
      <g transform="translate(25.037012 176.979249)scale(0.1 -0.1)">
       <use transform="scale(0.996264)" xlink:href="#CMR17-48"/>
      </g>
     </g>
    </g>
    <g id="ytick_2">
     <g id="line2d_48">
      <g>
       <use style="stroke:#000000;stroke-width:0.8;" x="37.018347" xlink:href="#m5a95488d9f" y="133.847705"/>
      </g>
     </g>
     <g id="text_9">
      <!-- $\mathdefault{20}$ -->
      <g transform="translate(20.055677 137.306954)scale(0.1 -0.1)">
       <use transform="scale(0.996264)" xlink:href="#CMR17-50"/>
       <use transform="translate(45.690477 0)scale(0.996264)" xlink:href="#CMR17-48"/>
      </g>
     </g>
    </g>
    <g id="ytick_3">
     <g id="line2d_49">
      <g>
       <use style="stroke:#000000;stroke-width:0.8;" x="37.018347" xlink:href="#m5a95488d9f" y="94.175411"/>
      </g>
     </g>
     <g id="text_10">
      <!-- $\mathdefault{40}$ -->
      <g transform="translate(20.055677 97.63466)scale(0.1 -0.1)">
       <use transform="scale(0.996264)" xlink:href="#CMR17-52"/>
       <use transform="translate(45.690477 0)scale(0.996264)" xlink:href="#CMR17-48"/>
      </g>
     </g>
    </g>
    <g id="ytick_4">
     <g id="line2d_50">
      <g>
       <use style="stroke:#000000;stroke-width:0.8;" x="37.018347" xlink:href="#m5a95488d9f" y="54.503116"/>
      </g>
     </g>
     <g id="text_11">
      <!-- $\mathdefault{60}$ -->
      <g transform="translate(20.055677 57.962365)scale(0.1 -0.1)">
       <defs>
        <path d="M 10.59375 34 
C 10.59375 57.65625 21.796875 63 28.296875 63 
C 30.40625 63 35.5 62.640625 37.5 59 
C 35.90625 59 32.90625 59 32.90625 55.515625 
C 32.90625 52.828125 35.09375 51.921875 36.5 51.921875 
C 37.40625 51.921875 40.09375 52.3125 40.09375 55.625 
C 40.09375 61.78125 35.09375 65.296875 28.203125 65.296875 
C 16.296875 65.296875 3.796875 52.96875 3.796875 31 
C 3.796875 3.953125 15.09375 -2 23.09375 -2 
C 32.796875 -2 42 6.671875 42 20.046875 
C 42 32.515625 33.90625 41.59375 23.703125 41.59375 
C 17.59375 41.59375 13.09375 37.609375 10.59375 30.625 
z
M 23.09375 0.390625 
C 10.796875 0.390625 10.796875 18.75 10.796875 22.4375 
C 10.796875 29.625 14.203125 40 23.5 40 
C 25.203125 40 30.09375 40 33.40625 33.125 
C 35.203125 29.21875 35.203125 25.140625 35.203125 20.140625 
C 35.203125 14.75 35.203125 10.78125 33.09375 6.78125 
C 30.90625 2.671875 27.703125 0.390625 23.09375 0.390625 
z
" id="CMR17-54"/>
       </defs>
       <use transform="scale(0.996264)" xlink:href="#CMR17-54"/>
       <use transform="translate(45.690477 0)scale(0.996264)" xlink:href="#CMR17-48"/>
      </g>
     </g>
    </g>
    <g id="ytick_5">
     <g id="line2d_51">
      <g>
       <use style="stroke:#000000;stroke-width:0.8;" x="37.018347" xlink:href="#m5a95488d9f" y="14.830821"/>
      </g>
     </g>
     <g id="text_12">
      <!-- $\mathdefault{80}$ -->
      <g transform="translate(20.055677 18.29007)scale(0.1 -0.1)">
       <defs>
        <path d="M 27.203125 35.375 
C 33.5 38.546875 39.90625 43.328125 39.90625 50.984375 
C 39.90625 60.015625 31.09375 65.296875 23 65.296875 
C 13.90625 65.296875 5.90625 58.734375 5.90625 49.6875 
C 5.90625 47.203125 6.5 42.921875 10.40625 39.140625 
C 11.40625 38.15625 15.59375 35.171875 18.296875 33.28125 
C 13.796875 30.984375 3.296875 25.53125 3.296875 14.59375 
C 3.296875 4.359375 13.09375 -2 22.796875 -2 
C 33.5 -2 42.5 5.65625 42.5 15.78125 
C 42.5 24.84375 36.40625 29.015625 32.40625 31.703125 
z
M 14.09375 44.09375 
C 13.296875 44.59375 9.296875 47.671875 9.296875 52.359375 
C 9.296875 58.421875 15.59375 63 22.796875 63 
C 30.703125 63 36.5 57.4375 36.5 50.96875 
C 36.5 41.703125 26.09375 36.421875 25.59375 36.421875 
C 25.5 36.421875 25.40625 36.421875 24.59375 37.03125 
z
M 32.5 23.734375 
C 34 22.640625 38.796875 19.375 38.796875 13.296875 
C 38.796875 5.953125 31.40625 0.390625 23 0.390625 
C 13.90625 0.390625 7 6.84375 7 14.6875 
C 7 22.546875 13.09375 29.09375 20 32.1875 
z
" id="CMR17-56"/>
       </defs>
       <use transform="scale(0.996264)" xlink:href="#CMR17-56"/>
       <use transform="translate(45.690477 0)scale(0.996264)" xlink:href="#CMR17-48"/>
      </g>
     </g>
    </g>
    <g id="text_13">
     <!-- Sensitivity Function -->
     <g transform="translate(14.118498 134.043515)rotate(-90)scale(0.1 -0.1)">
      <defs>
       <path d="M 43.796875 67.03125 
C 43.796875 68.8125 43.703125 68.921875 43.09375 68.921875 
C 42.5 68.921875 42.296875 68.515625 41.90625 67.625 
L 38.90625 61.046875 
C 35.09375 66.515625 29.296875 69 23 69 
C 12.796875 69 4.59375 60.953125 4.59375 50.828125 
C 4.59375 47.75 5.296875 43.375 8.703125 39.21875 
C 12.40625 34.65625 15.90625 33.859375 23.90625 31.765625 
C 26.90625 30.96875 31.90625 29.671875 32.90625 29.28125 
C 38.59375 26.90625 41.59375 20.953125 41.59375 15.390625 
C 41.59375 8.234375 36.5 0.59375 27.796875 0.59375 
C 17.09375 0.59375 7.09375 6.546875 6.40625 20.484375 
C 6.296875 22.078125 6.203125 22.171875 5.5 22.171875 
C 4.703125 22.171875 4.59375 22.078125 4.59375 20.078125 
L 4.59375 -0.015625 
C 4.59375 -1.796875 4.703125 -1.90625 5.296875 -1.90625 
C 6 -1.90625 6.203125 -1.40625 7.59375 1.6875 
C 7.703125 1.984375 7.703125 2.1875 9.59375 5.953125 
C 14.59375 -0.609375 23 -2 27.796875 -2 
C 38.703125 -2 46.40625 7.046875 46.40625 17.5625 
C 46.40625 22.71875 44.5 26.6875 43.40625 28.484375 
C 39.203125 34.84375 34.703125 36.03125 29.90625 37.21875 
C 29.203125 37.53125 29 37.53125 23.40625 38.90625 
C 18 40.296875 15.703125 41 13.203125 43.6875 
C 10.40625 46.75 9.40625 49.9375 9.40625 53.109375 
C 9.40625 59.5625 14.59375 66.609375 23.09375 66.609375 
C 33.703125 66.609375 40.296875 59.15625 41.796875 46.765625 
C 42.09375 44.96875 42.203125 44.875 42.90625 44.875 
C 43.796875 44.875 43.796875 45.171875 43.796875 46.859375 
z
" id="CMR17-83"/>
       <path d="M 38.09375 23 
C 38.5 23.40625 38.5 23.609375 38.5 24.625 
C 38.5 34.96875 33.09375 44 21.703125 44 
C 11.09375 44 2.703125 33.890625 2.703125 21.609375 
C 2.703125 8.609375 12.203125 -1 22.796875 -1 
C 34 -1 38.40625 9.484375 38.40625 11.5625 
C 38.40625 12.25 37.796875 12.25 37.59375 12.25 
C 36.90625 12.25 36.796875 12.046875 36.40625 10.875 
C 34.203125 4.140625 28.703125 0.796875 23.5 0.796875 
C 19.203125 0.796875 14.90625 3.171875 12.203125 7.5 
C 9.09375 12.546875 9.09375 18.375 9.09375 23 
z
M 9.203125 24.5 
C 9.90625 39.140625 17.59375 42.40625 21.59375 42.40625 
C 28.40625 42.40625 33 35.890625 33.09375 24.5 
z
" id="CMR17-101"/>
       <path d="M 41.5 30.203125 
C 41.5 35.296875 40.5 43.59375 28.703125 43.59375 
C 20.796875 43.59375 16.703125 37.5 15.203125 33.5 
L 15.09375 33.5 
L 15.09375 43.59375 
L 3.296875 42.5 
L 3.296875 39.90625 
C 9.203125 39.90625 10.09375 39.296875 10.09375 34.5 
L 10.09375 6.6875 
C 10.09375 2.875 9.703125 2.390625 3.296875 2.390625 
L 3.296875 -0.203125 
C 5.703125 0 10.09375 0 12.703125 0 
C 15.296875 0 19.796875 0 22.203125 -0.203125 
L 22.203125 2.390625 
C 15.796875 2.390625 15.40625 2.78125 15.40625 6.6875 
L 15.40625 25.90625 
C 15.40625 35.109375 21 42 28 42 
C 35.40625 42 36.203125 35.40625 36.203125 30.59375 
L 36.203125 6.6875 
C 36.203125 2.875 35.796875 2.390625 29.40625 2.390625 
L 29.40625 -0.203125 
C 31.796875 0 36.203125 0 38.796875 0 
C 41.40625 0 45.90625 0 48.296875 -0.203125 
L 48.296875 2.390625 
C 41.90625 2.390625 41.5 2.78125 41.5 6.6875 
z
" id="CMR17-110"/>
       <path d="M 30.90625 42.140625 
C 30.90625 43.953125 30.796875 44.046875 30.203125 44.046875 
C 29.796875 44.046875 29.703125 43.953125 28.5 42.453125 
C 28.203125 42.046875 27.296875 41.03125 27 40.640625 
C 23.796875 44.046875 19.296875 44.046875 17.59375 44.046875 
C 6.5 44.046875 2.5 38.234375 2.5 32.4375 
C 2.5 23.40625 12.703125 21.328125 15.59375 20.703125 
C 21.90625 19.421875 24.09375 19.015625 26.203125 17.203125 
C 27.5 16.015625 29.703125 13.8125 29.703125 10.21875 
C 29.703125 6 27.296875 0.59375 18.09375 0.59375 
C 9.40625 0.59375 6.296875 7.1875 4.5 15.953125 
C 4.203125 17.34375 4.203125 17.453125 3.40625 17.453125 
C 2.59375 17.453125 2.5 17.34375 2.5 15.359375 
L 2.5 0.984375 
C 2.5 -0.796875 2.59375 -0.90625 3.203125 -0.90625 
C 3.703125 -0.90625 3.796875 -0.796875 4.296875 0 
C 4.90625 0.890625 6.40625 3.296875 7 4.3125 
C 9 1.609375 12.5 -1 18.09375 -1 
C 28 -1 33.296875 4.421875 33.296875 12.25 
C 33.296875 17.375 30.59375 20.078125 29.296875 21.28125 
C 26.296875 24.390625 22.796875 25.09375 18.59375 25.890625 
C 13.09375 27.109375 6.09375 28.515625 6.09375 34.640625 
C 6.09375 37.234375 7.5 42.765625 17.59375 42.765625 
C 28.296875 42.765625 28.90625 32.71875 29.09375 29.5 
C 29.203125 29 29.703125 28.890625 30 28.890625 
C 30.90625 28.890625 30.90625 29.203125 30.90625 30.90625 
z
" id="CMR17-115"/>
       <path d="M 15.5 61.078125 
C 15.5 63.265625 13.703125 65.15625 11.40625 65.15625 
C 9.203125 65.15625 7.296875 63.375 7.296875 61.078125 
C 7.296875 58.890625 9.09375 57 11.40625 57 
C 13.59375 57 15.5 58.796875 15.5 61.078125 
z
M 3.796875 42.28125 
L 3.796875 39.703125 
C 9.40625 39.703125 10.203125 39.09375 10.203125 34.328125 
L 10.203125 6.671875 
C 10.203125 2.875 9.796875 2.390625 3.40625 2.390625 
L 3.40625 -0.203125 
C 5.796875 0 10.09375 0 12.59375 0 
C 15 0 19.09375 0 21.40625 -0.203125 
L 21.40625 2.390625 
C 15.5 2.390625 15.296875 2.984375 15.296875 6.5625 
L 15.296875 43.375 
z
" id="CMR17-105"/>
       <path d="M 15.09375 40 
L 29.09375 40 
L 29.09375 42.578125 
L 15.09375 42.578125 
L 15.09375 61 
L 13.296875 61 
C 13.09375 50.703125 9.59375 41.6875 1.09375 41.6875 
L 1.09375 40 
L 9.796875 40 
L 9.796875 12.046875 
C 9.796875 10.15625 9.796875 -1 21.40625 -1 
C 27.296875 -1 30.703125 4.78125 30.703125 12.140625 
L 30.703125 17.8125 
L 28.90625 17.8125 
L 28.90625 12.234375 
C 28.90625 5.375 26.203125 0.796875 22 0.796875 
C 19.09375 0.796875 15.09375 2.78125 15.09375 11.84375 
z
" id="CMR17-116"/>
       <path d="M 39.09375 33.796875 
C 40 36 41.59375 40 47.40625 40 
L 47.40625 42.59375 
C 45.5 42.59375 43 42.59375 41.09375 42.59375 
C 39 42.59375 35.703125 42.59375 33.703125 42.6875 
L 33.703125 40.09375 
C 36.203125 39.890625 37.59375 38.703125 37.59375 36.109375 
C 37.59375 35.203125 37.59375 35 37 33.609375 
L 26 5.890625 
L 14.09375 35.71875 
C 13.5 37.015625 13.5 37.203125 13.5 37.609375 
C 13.5 40 16.796875 40 18.296875 40 
L 18.296875 42.6875 
C 15.90625 42.59375 11.5 42.59375 9 42.59375 
C 6.296875 42.59375 3.203125 42.59375 1 42.6875 
L 1 40 
C 4.796875 40 6.90625 40 8.09375 36.90625 
L 22.59375 0.6875 
C 23.203125 -0.796875 23.296875 -1 24.203125 -1 
C 25.09375 -1 25.203125 -0.796875 25.796875 0.6875 
z
" id="CMR17-118"/>
       <path d="M 39 34.328125 
C 41.5 40.40625 46 40.40625 47.40625 40.40625 
L 47.40625 43 
C 45.5 43 43 43 41.09375 43 
C 39 43 35.703125 43 33.703125 43.09375 
L 33.703125 40.5 
C 37.5 40.203125 37.59375 37.40625 37.59375 36.609375 
C 37.59375 35.625 37.40625 35.125 36.90625 33.921875 
L 26 7.015625 
L 14.09375 36.03125 
C 13.59375 37.21875 13.59375 37.90625 13.59375 38.015625 
C 13.59375 40.203125 15.90625 40.40625 18.296875 40.40625 
L 18.296875 43.09375 
C 15.90625 43 11.59375 43 9.09375 43 
C 6.40625 43 3.203125 43 1 43.09375 
L 1 40.40625 
C 6.40625 40.40625 7 39.90625 8.296875 36.71875 
L 23.203125 0.234375 
C 18.703125 -11.53125 16.09375 -18.40625 9.796875 -18.40625 
C 8.703125 -18.40625 6.203125 -18.109375 4.40625 -16.3125 
C 6.703125 -16.109375 7.703125 -14.71875 7.703125 -13.015625 
C 7.703125 -11.328125 6.5 -9.828125 4.5 -9.828125 
C 2.296875 -9.828125 1.203125 -11.328125 1.203125 -13.125 
C 1.203125 -17.109375 5.296875 -20 9.796875 -20 
C 15.59375 -20 19.203125 -14.40625 21.203125 -9.4375 
z
" id="CMR17-121"/>
       <path d="M 54.40625 67.578125 
L 5.09375 67.578125 
L 5.09375 65 
C 12 65 13.09375 65 13.09375 60.53125 
L 13.09375 6.96875 
C 13.09375 2.5 12 2.5 5.09375 2.5 
L 5.09375 0 
C 8 0 13.59375 0 16.703125 0 
C 20.796875 0 25.59375 0 29.703125 0 
L 29.703125 2.5 
L 27.5 2.5 
C 19.90625 2.5 19.703125 3.484375 19.703125 7.0625 
L 19.703125 32.421875 
L 28.703125 32.421875 
C 38 32.421875 38.90625 29.140625 38.90625 20.8125 
L 40.703125 20.8125 
L 40.703125 46.671875 
L 38.90625 46.671875 
C 38.90625 38.28125 38 35 28.703125 35 
L 19.703125 35 
L 19.703125 61.109375 
C 19.703125 64.5 19.90625 65 23.90625 65 
L 36.796875 65 
C 51.90625 65 53.59375 58.828125 55 45.5625 
L 56.796875 45.5625 
z
" id="CMR17-70"/>
       <path d="M 29.40625 42.078125 
L 29.40625 39.5 
C 35.296875 39.5 36.203125 38.890625 36.203125 34.15625 
L 36.203125 16.125 
C 36.203125 7.8125 31.703125 0.59375 24.296875 0.59375 
C 16.09375 0.59375 15.40625 5.4375 15.40625 10.59375 
L 15.40625 43.171875 
L 3.296875 42.078125 
L 3.296875 39.5 
C 7.296875 39.5 10 39.5 10.09375 35.53125 
L 10.09375 16.53125 
C 10.09375 9.890625 10.09375 5.640625 12.703125 2.859375 
C 14 1.578125 16.5 -1 23.703125 -1 
C 32.203125 -1 35.5 5.890625 36.296875 7.90625 
L 36.40625 7.90625 
L 36.40625 -0.984375 
L 48.296875 -0.984375 
L 48.296875 2 
C 42.40625 2 41.5 2.59375 41.5 7.390625 
L 41.5 43.171875 
z
" id="CMR17-117"/>
       <path d="M 34.90625 35 
C 33 35 30.203125 35 30.203125 31.515625 
C 30.203125 28.71875 32.5 27.921875 33.796875 27.921875 
C 34.5 27.921875 37.40625 28.234375 37.40625 31.625 
C 37.40625 38.546875 30.59375 43.796875 22.90625 43.796875 
C 12.296875 43.796875 3.296875 34.03125 3.296875 21.296875 
C 3.296875 8.0625 12.703125 -1 22.90625 -1 
C 35.296875 -1 38.40625 10.578125 38.40625 11.6875 
C 38.40625 12.09375 38.296875 12.390625 37.59375 12.390625 
C 36.90625 12.390625 36.796875 12.296875 36.40625 10.984375 
C 33.796875 2.8125 28.09375 0.796875 23.796875 0.796875 
C 17.40625 0.796875 9.703125 6.671875 9.703125 21.390625 
C 9.703125 36.53125 17.09375 42 23 42 
C 26.90625 42 32.703125 40.203125 34.90625 35 
z
" id="CMR17-99"/>
       <path d="M 43.09375 21.1875 
C 43.09375 34 33.796875 44 22.90625 44 
C 12 44 2.703125 34 2.703125 21.1875 
C 2.703125 8.609375 12 -1 22.90625 -1 
C 33.796875 -1 43.09375 8.609375 43.09375 21.1875 
z
M 22.90625 0.796875 
C 18.203125 0.796875 14.203125 3.59375 11.90625 7.5 
C 9.40625 11.984375 9.09375 17.59375 9.09375 22 
C 9.09375 26.203125 9.296875 31.40625 11.90625 35.90625 
C 13.90625 39.203125 17.796875 42.40625 22.90625 42.40625 
C 27.40625 42.40625 31.203125 39.90625 33.59375 36.40625 
C 36.703125 31.703125 36.703125 25.109375 36.703125 22 
C 36.703125 18.09375 36.5 12.109375 33.796875 7.296875 
C 31 2.703125 26.703125 0.796875 22.90625 0.796875 
z
" id="CMR17-111"/>
      </defs>
      <use transform="scale(0.996264)" xlink:href="#CMR17-83"/>
      <use transform="translate(50.89537 0)scale(0.996264)" xlink:href="#CMR17-101"/>
      <use transform="translate(91.38103 0)scale(0.996264)" xlink:href="#CMR17-110"/>
      <use transform="translate(142.2764 0)scale(0.996264)" xlink:href="#CMR17-115"/>
      <use transform="translate(178.077738 0)scale(0.996264)" xlink:href="#CMR17-105"/>
      <use transform="translate(202.948796 0)scale(0.996264)" xlink:href="#CMR17-116"/>
      <use transform="translate(238.229564 0)scale(0.996264)" xlink:href="#CMR17-105"/>
      <use transform="translate(263.100622 0)scale(0.996264)" xlink:href="#CMR17-118"/>
      <use transform="translate(311.393538 0)scale(0.996264)" xlink:href="#CMR17-105"/>
      <use transform="translate(336.264597 0)scale(0.996264)" xlink:href="#CMR17-116"/>
      <use transform="translate(368.942911 0)scale(0.996264)" xlink:href="#CMR17-121"/>
      <use transform="translate(447.311793 0)scale(0.996264)" xlink:href="#CMR17-70"/>
      <use transform="translate(499.488384 0)scale(0.996264)" xlink:href="#CMR17-117"/>
      <use transform="translate(550.383754 0)scale(0.996264)" xlink:href="#CMR17-110"/>
      <use transform="translate(601.279124 0)scale(0.996264)" xlink:href="#CMR17-99"/>
      <use transform="translate(641.764784 0)scale(0.996264)" xlink:href="#CMR17-116"/>
      <use transform="translate(677.045552 0)scale(0.996264)" xlink:href="#CMR17-105"/>
      <use transform="translate(701.91661 0)scale(0.996264)" xlink:href="#CMR17-111"/>
      <use transform="translate(747.607087 0)scale(0.996264)" xlink:href="#CMR17-110"/>
     </g>
    </g>
   </g>
   <g id="line2d_52">
    <path clip-path="url(#p9a98b66601)" d="M -1 173.519983 
L 75.379721 173.478908 
L 81.994607 173.361207 
L 88.609878 172.919518 
L 92.108513 172.317754 
L 95.225753 171.313971 
L 98.724924 169.228735 
L 101.84259 165.887895 
L 103.646057 162.966591 
L 105.342611 159.307316 
L 106.94422 154.831769 
L 108.460951 149.478521 
L 109.860499 143.404438 
L 111.194801 136.456986 
L 112.469671 128.656217 
L 113.690179 120.054992 
L 115.419964 105.912224 
L 118.230497 78.641343 
L 121.502327 44.282557 
L 122.928691 30.976693 
L 124.287346 21.097289 
L 125.584429 15.58399 
L 126.82528 15.12 
L 127.634174 17.907153 
L 128.420838 23.157654 
L 129.186461 30.775006 
L 129.932141 40.568775 
L 130.658889 52.257603 
L 132.059273 79.788072 
L 135.246414 148.742432 
L 136.036991 161.435386 
L 136.806321 169.857584 
L 137.555515 173.419614 
L 138.285601 171.865408 
L 138.99753 165.301415 
L 139.821882 151.653136 
L 140.623159 133.010647 
L 143.62121 51.26978 
L 144.324109 40.193774 
L 145.010163 36.14 
L 145.554149 38.396245 
L 146.087991 45.465492 
L 146.612059 56.856271 
L 147.632263 89.0926 
L 149.45158 153.543946 
L 150.146911 168.768692 
L 150.488344 172.53171 
L 150.825752 173.479146 
L 151.15923 171.570189 
L 151.488868 166.884718 
L 152.136971 150.084943 
L 153.082418 112.281339 
L 154.296319 61.118613 
L 154.774514 47.328628 
L 155.244853 40.173473 
L 155.707589 40.475024 
L 156.162964 48.216426 
L 156.611208 62.539565 
L 157.487175 103.935975 
L 158.427725 150.36304 
L 158.931131 167.018581 
L 159.179552 171.639295 
L 159.425837 173.488258 
L 159.67002 172.485425 
L 159.912139 168.672365 
L 160.304892 156.825386 
L 161.074593 117.966646 
L 162.167487 57.544597 
L 162.518721 45.614026 
L 162.865698 40.248613 
L 163.20852 42.033055 
L 163.547285 50.783667 
L 164.21302 84.79451 
L 165.469842 161.283663 
L 165.876813 172.38701 
L 166.11299 173.364807 
L 166.347235 170.111068 
L 166.579578 162.830156 
L 167.091775 134.741931 
L 168.359449 50.281745 
L 168.576337 43.216371 
L 168.791593 40.225951 
L 168.979794 41.131476 
L 169.166765 45.309974 
L 169.537085 62.506861 
L 170.263655 118.008803 
L 170.924679 163.05754 
L 171.317768 173.392975 
L 171.492787 172.603665 
L 171.666743 168.417809 
L 172.04472 148.628352 
L 173.507136 42.137945 
L 173.647327 40.158571 
L 173.786834 40.762602 
L 173.995645 46.450132 
L 174.408753 72.707724 
L 175.548847 167.658152 
L 175.787126 173.394341 
L 176.023439 170.546177 
L 176.303786 156.390448 
L 176.719225 119.247682 
L 177.366902 56.755641 
L 177.603116 43.717332 
L 177.816562 39.693421 
L 178.028428 43.683731 
L 178.272072 57.718837 
L 178.753227 105.89991 
L 179.283927 158.912822 
L 179.574078 172.559555 
L 179.742875 172.991273 
L 179.910684 167.667388 
L 180.200116 146.299763 
L 181.203062 44.220103 
L 181.361017 39.563854 
L 181.518104 40.603693 
L 181.681191 47.668221 
L 182.004603 77.014929 
L 182.817179 166.75985 
L 183.06814 173.459956 
L 183.212658 169.911098 
L 183.447835 153.147945 
L 184.037482 78.469591 
L 184.38324 44.99183 
L 184.607742 38.770004 
L 184.717492 41.066972 
L 184.935736 55.669562 
L 185.502079 130.237532 
L 185.911814 170.273154 
L 186.047099 173.513633 
L 186.194628 170.250209 
L 186.430466 151.16157 
L 187.461325 38.190859 
L 187.570536 41.146928 
L 187.759239 55.933476 
L 188.150684 112.48369 
L 188.591671 167.869235 
L 188.801606 173.182198 
L 189.010013 161.241278 
L 189.402056 104.784325 
L 189.799012 47.883081 
L 190.001263 37.436132 
L 190.085812 38.308908 
L 190.254164 49.270698 
L 190.58272 97.433994 
L 191.061025 167.358243 
L 191.178192 173.060036 
L 191.294881 172.21213 
L 191.494247 155.977328 
L 192.355293 36.609336 
L 192.461422 38.635914 
L 192.672505 59.385533 
L 193.48188 173.519982 
L 193.670771 163.786669 
L 193.981205 114.613218 
L 194.44366 42.321739 
L 194.570087 38.493755 
L 194.695958 44.22413 
L 194.97593 86.003564 
L 195.459853 169.06533 
L 195.565701 173.487414 
L 195.651321 171.572379 
L 195.82662 152.99179 
L 196.591784 36.844964 
L 196.680299 42.185906 
L 196.900087 76.46189 
L 197.380799 168.438178 
L 197.46761 173.22331 
L 197.539711 172.725867 
L 197.678176 160.526545 
L 197.994778 94.751365 
L 198.356621 36.489891 
L 198.426416 35.731887 
L 198.578077 48.087968 
L 198.919641 122.224739 
L 199.240522 172.727849 
L 199.2951 173.442863 
L 199.403945 166.784433 
L 199.583024 135.510896 
L 200.059004 37.103612 
L 200.112717 34.676576 
L 200.166329 35.065441 
L 200.355375 57.751926 
L 200.947742 173.504489 
L 201.002322 172.243957 
L 201.12942 157.621487 
L 201.772233 33.573679 
L 201.917705 48.840727 
L 202.533949 173.376423 
L 202.597356 169.779991 
L 202.751329 142.897157 
L 203.273651 31.942845 
L 203.334896 34.969712 
L 203.512833 68.200278 
L 203.971311 173.311362 
L 204.019248 172.873001 
L 204.114881 162.707461 
L 204.390486 86.865746 
L 204.666659 30.863027 
L 204.72202 31.096869 
L 204.829216 44.04855 
L 205.119553 129.347427 
L 205.361938 173.435317 
L 205.417885 171.886812 
L 205.586218 140.068034 
L 206.039304 28.796566 
L 206.105988 32.947241 
L 206.303924 81.874127 
L 206.647435 172.693037 
L 206.690988 173.366646 
L 206.792611 162.001781 
L 207.070023 72.725919 
L 207.306513 27.057385 
L 207.356142 29.643807 
L 207.525487 69.386842 
L 207.89754 173.327642 
L 207.958357 171.297116 
L 208.093227 142.262247 
L 208.492021 25.45615 
L 208.528628 25.930372 
L 208.630722 41.872307 
L 209.060419 173.079378 
L 209.12764 170.975823 
L 209.27916 132.546611 
L 209.636069 23.733587 
L 209.689032 26.185469 
L 209.825934 60.597337 
L 210.184116 173.459377 
L 210.22462 172.094666 
L 210.345144 145.200992 
L 210.712525 22.667105 
L 210.746201 22.869459 
L 210.827502 35.456627 
L 211.242104 173.421484 
L 211.322072 166.48298 
L 211.509647 97.135627 
L 211.748708 22.050272 
L 211.807423 24.433642 
L 211.94807 66.003105 
L 212.28187 173.212344 
L 212.423236 139.802723 
L 212.779543 22.348641 
L 212.875127 40.755315 
L 213.260605 173.357885 
L 213.304545 168.922903 
L 213.469864 109.027163 
L 213.715296 23.610865 
L 213.764585 24.917903 
L 213.883689 57.676316 
L 214.216316 173.42084 
L 214.306558 158.323661 
L 214.671311 25.717497 
L 214.765405 37.426868 
L 215.132217 173.015936 
L 215.242383 159.813155 
L 215.60381 29.32634 
L 215.694372 39.127534 
L 215.896631 124.344904 
L 216.064786 173.026584 
L 216.100926 172.954107 
L 216.165611 162.560846 
L 216.55472 33.562072 
L 216.635099 45.701364 
L 216.994696 172.956636 
L 217.090966 164.46997 
L 217.489775 38.666651 
L 217.574981 51.804848 
L 217.944097 173.437154 
L 218.003502 169.616243 
L 218.174098 114.11881 
L 218.399583 45.232428 
L 218.448252 45.403873 
L 218.563855 70.426675 
L 218.898329 173.477817 
L 218.941544 171.649565 
L 219.08899 133.790933 
L 219.372635 52.166654 
L 219.414039 52.942749 
L 219.543648 80.422791 
L 219.881143 173.519037 
L 219.984988 161.692984 
L 220.390075 60.57197 
L 220.444887 64.910845 
L 220.608269 107.526569 
L 220.898358 173.517059 
L 220.910732 173.322182 
L 220.97713 167.241194 
L 221.163312 118.423238 
L 221.408255 69.497007 
L 221.448493 70.390339 
L 221.543358 83.400946 
L 221.951681 173.483668 
L 222.024714 169.939593 
L 222.173248 140.761558 
L 222.512233 78.283021 
L 222.575769 82.012363 
L 222.737318 113.349244 
L 223.072733 173.502379 
L 223.124552 171.17142 
L 223.247094 151.658217 
L 223.629588 78.100415 
L 223.64841 78.618697 
L 223.737049 88.792034 
L 224.113265 173.502881 
L 224.217028 161.562249 
L 224.569992 52.488097 
L 224.658352 66.100158 
L 224.966436 173.442422 
L 225.026263 164.411775 
L 225.34235 46.396794 
L 225.418906 59.371952 
L 225.74245 173.519255 
L 225.78512 170.785161 
L 225.95889 121.018734 
L 226.185896 76.926053 
L 226.279514 87.272783 
L 226.718853 173.453302 
L 226.769511 172.698672 
L 226.923276 157.393203 
L 227.318205 113.851119 
L 227.345007 113.510793 
L 227.398771 114.018239 
L 227.56127 123.510975 
L 228.197942 173.037628 
L 228.282278 173.478995 
L 228.310445 173.277585 
L 228.451659 170.094471 
L 229.309342 141.330198 
L 229.338164 141.354628 
L 229.424699 141.909305 
L 229.598051 144.913132 
L 230.003747 157.522702 
L 230.468898 170.381102 
L 230.760156 173.435401 
L 230.818443 173.519997 
L 230.876739 173.439878 
L 230.993356 172.821054 
L 231.255842 169.620771 
L 232.335214 153.931548 
L 232.451841 153.681015 
L 232.510146 153.701625 
L 232.655879 154.160151 
L 232.859828 155.681017 
L 233.267406 160.855611 
L 234.095498 171.609784 
L 234.428918 173.370242 
L 234.602693 173.504629 
L 234.747407 173.230788 
L 235.007657 171.978632 
L 235.44071 168.452624 
L 236.102945 162.751304 
L 236.562304 160.648153 
L 236.791562 160.440452 
L 237.020513 160.789593 
L 237.363381 162.216059 
L 237.933336 166.087981 
L 238.727943 171.450534 
L 239.180224 173.138054 
L 239.405859 173.476185 
L 239.631173 173.484265 
L 239.856133 173.192773 
L 240.305041 171.904039 
L 241.866282 166.111026 
L 242.19897 165.629628 
L 242.420294 165.537721 
L 242.7516 165.72942 
L 243.082068 166.268896 
L 243.740464 168.070802 
L 245.046942 172.067404 
L 245.479331 172.916844 
L 246.017619 173.460138 
L 246.339402 173.516073 
L 246.660277 173.393583 
L 247.193087 172.877509 
L 247.934765 171.782567 
L 249.090134 170.123686 
L 249.715036 169.592385 
L 250.232882 169.419438 
L 250.748067 169.48282 
L 251.362736 169.81989 
L 252.277377 170.670906 
L 254.376315 172.762972 
L 255.163 173.235246 
L 256.007166 173.485343 
L 256.90621 173.496868 
L 257.983611 173.271663 
L 262.011698 172.200578 
L 263.529782 172.146722 
L 265.45448 172.326674 
L 273.742345 173.390856 
L 277.699031 173.509833 
L 287.914669 173.498239 
L 307.642545 173.375979 
L 311.282545 173.099851 
L 314.851839 172.63377 
L 318.792834 171.857297 
L 322.30194 171.223596 
L 323.857898 171.132076 
L 325.540395 171.277094 
L 327.022574 171.652787 
L 328.937603 172.422435 
L 331.123998 173.305888 
L 332.132596 173.505013 
L 333.074509 173.470413 
L 333.957749 173.210008 
L 334.939622 172.674709 
L 337.861288 170.818304 
L 338.495811 170.744104 
L 339.103054 170.883931 
L 339.82649 171.318815 
L 340.780729 172.210726 
L 341.91748 173.242741 
L 342.510544 173.502202 
L 342.966858 173.484565 
L 343.354169 173.303095 
L 343.941284 172.751957 
L 344.946535 171.355281 
L 345.699406 170.481237 
L 346.149129 170.267266 
L 346.540689 170.342089 
L 346.920832 170.657471 
L 347.570088 171.638824 
L 348.559013 173.249825 
L 348.919167 173.503119 
L 349.130589 173.508041 
L 349.406688 173.338455 
L 349.809398 172.748245 
L 350.576137 170.955024 
L 351.120179 169.908834 
L 351.411865 169.690782 
L 351.583117 169.711754 
L 351.863309 169.99509 
L 352.190371 170.677482 
L 353.263784 173.40009 
L 353.504081 173.51699 
L 353.645869 173.431721 
L 353.923475 172.930177 
L 354.282241 171.749221 
L 355.045022 169.189303 
L 355.286478 169.010455 
L 355.444087 169.153804 
L 355.675612 169.72869 
L 356.194022 171.984052 
L 356.615442 173.402748 
L 356.818657 173.497941 
L 357.01708 173.116057 
L 357.274437 171.987264 
L 358.00008 168.288756 
L 358.171254 168.203719 
L 358.338557 168.598026 
L 358.609079 170.088934 
L 359.169657 173.408724 
L 359.314738 173.493567 
L 359.456635 173.091061 
L 359.686273 171.527715 
L 360.286341 167.160956 
L 360.367191 167.181221 
L 360.486298 167.611407 
L 360.716933 169.581889 
L 361.183896 173.49978 
L 361.251973 173.484468 
L 361.385266 172.815387 
L 361.640819 169.659281 
L 361.983887 165.871952 
L 362.040782 165.793081 
L 362.068933 165.834259 
L 362.179596 166.511145 
L 362.430415 170.276968 
L 362.724582 173.519833 
L 362.78287 173.365115 
L 362.907644 171.940365 
L 363.352966 163.915663 
L 363.428921 164.228007 
L 363.574876 166.944896 
L 363.892127 173.519699 
L 363.923293 173.404915 
L 364.014419 171.878545 
L 364.37164 161.138604 
L 364.458341 162.311461 
L 364.770135 173.517581 
L 364.869026 171.399401 
L 365.146086 157.951153 
L 365.221368 159.970179 
L 365.443059 173.517531 
L 365.521163 170.07652 
L 365.711813 150.426496 
L 365.784968 155.843507 
L 365.919564 173.519451 
L 365.975403 167.796093 
L 366.106862 140.57003 
L 366.166616 150.692537 
L 366.255426 173.517997 
L 366.308678 160.527596 
L 366.394318 126.198535 
L 366.447891 145.994504 
L 366.506012 173.517083 
L 366.553042 142.623533 
L 366.590571 83.866141 
L 366.65046 159.290445 
L 366.668709 166.714109 
L 366.668709 166.714109 
" style="fill:none;stroke:#000000;stroke-linecap:square;"/>
   </g>
   <g id="patch_3">
    <path d="M 37.018347 173.52 
L 37.018347 7.2 
" style="fill:none;stroke:#000000;stroke-linecap:square;stroke-linejoin:miter;stroke-width:0.8;"/>
   </g>
   <g id="patch_4">
    <path d="M 371.818347 173.52 
L 371.818347 7.2 
" style="fill:none;stroke:#000000;stroke-linecap:square;stroke-linejoin:miter;stroke-width:0.8;"/>
   </g>
   <g id="patch_5">
    <path d="M 37.018347 173.52 
L 371.818347 173.52 
" style="fill:none;stroke:#000000;stroke-linecap:square;stroke-linejoin:miter;stroke-width:0.8;"/>
   </g>
   <g id="patch_6">
    <path d="M 37.018347 7.2 
L 371.818347 7.2 
" style="fill:none;stroke:#000000;stroke-linecap:square;stroke-linejoin:miter;stroke-width:0.8;"/>
   </g>
  </g>
 </g>
 <defs>
  <clipPath id="p9a98b66601">
   <rect height="166.32" width="334.8" x="37.018347" y="7.2"/>
  </clipPath>
 </defs>
</svg>
