<?xml version="1.0" encoding="UTF-8" standalone="no"?>
<!-- Created with matplotlib (https://matplotlib.org/) -->

<svg
   height="213.997566pt"
   version="1.1"
   viewBox="0 0 401.669588 213.997566"
   width="401.669588pt"
   id="svg117"
   sodipodi:docname="mixed.svg"
   inkscape:version="1.4 (e7c3feb100, 2024-10-09)"
   xmlns:inkscape="http://www.inkscape.org/namespaces/inkscape"
   xmlns:sodipodi="http://sodipodi.sourceforge.net/DTD/sodipodi-0.dtd"
   xmlns="http://www.w3.org/2000/svg"
   xmlns:svg="http://www.w3.org/2000/svg"
   xmlns:rdf="http://www.w3.org/1999/02/22-rdf-syntax-ns#"
   xmlns:cc="http://creativecommons.org/ns#"
   xmlns:dc="http://purl.org/dc/elements/1.1/">
  <sodipodi:namedview
     id="namedview117"
     pagecolor="#ffffff"
     bordercolor="#999999"
     borderopacity="1"
     inkscape:showpageshadow="0"
     inkscape:pageopacity="0"
     inkscape:pagecheckerboard="0"
     inkscape:deskcolor="#d1d1d1"
     inkscape:document-units="pt"
     inkscape:zoom="3.1472322"
     inkscape:cx="267.69554"
     inkscape:cy="142.66504"
     inkscape:window-width="2048"
     inkscape:window-height="1117"
     inkscape:window-x="0"
     inkscape:window-y="35"
     inkscape:window-maximized="1"
     inkscape:current-layer="axes_1" />
  <metadata
     id="metadata1">
    <rdf:RDF>
      <cc:Work>
        <dc:type
           rdf:resource="http://purl.org/dc/dcmitype/StillImage" />
        <dc:date>2021-08-28T11:14:05.448004</dc:date>
        <dc:format>image/svg+xml</dc:format>
        <dc:creator>
          <cc:Agent>
            <dc:title>Matplotlib v3.3.3, https://matplotlib.org/</dc:title>
          </cc:Agent>
        </dc:creator>
      </cc:Work>
    </rdf:RDF>
  </metadata>
  <defs
     id="defs1">
    <style
       type="text/css"
       id="style1">*{stroke-linecap:butt;stroke-linejoin:round;}</style>
    <clipPath
       id="p7230c20211-6">
      <rect
         height="166.32001"
         width="334.79999"
         x="48.323212"
         y="10.659249"
         id="rect117-7" />
    </clipPath>
  </defs>
  <g
     id="figure_1">
    <g
       id="patch_1">
      <path
         d="M 0 213.997566  L 401.669588 213.997566  L 401.669588 0  L 0 0  z "
         style="fill:none;"
         id="path1" />
    </g>
    <g
       id="axes_1">
      <path
         clip-path="url(#p7230c20211-6)"
         d="m -1,77.229765 7.405979,-1.746048 13.48403,-3.512544 18.275261,-4.878293 8.040488,-1.906752 7.443913,-1.428888 3.564265,-0.512072 2.989171,-0.315506 2.854133,-0.186629 2.955692,-0.0562 2.536852,0.07826 2.438925,0.19695 3.470507,0.505826 3.593004,0.836709 2.632212,0.836784 2.096145,0.81049 3.82133,1.825549 2.61626,1.52471 2.896132,1.953911 2.859105,2.210332 4.075737,3.632199 3.470009,3.51969 3.74747,4.201047 3.89682,4.73829 6.27284,8.141948 7.8629,10.250782 3.77218,4.53573 3.16677,3.43774 2.11665,2.05559 2.70348,2.29393 2.36165,1.66513 2.17788,1.23318 1.96053,0.85116 1.92677,0.59297 1.8533,0.34265 1.91452,0.12336 1.97242,-0.1096 2.00553,-0.34554 1.98516,-0.55952 2.08326,-0.80208 2.40928,-1.17826 2.5152,-1.49302 2.61556,-1.82079 2.59574,-2.06928 2.87844,-2.5732 4.86128,-4.71875 4.75446,-4.48709 3.4366,-2.941 3.18435,-2.458215 3.68733,-2.524661 3.71845,-2.213327 3.63152,-1.863043 3.18092,-1.409653 3.88366,-1.464784 3.7346,-1.166458 3.67133,-0.935219 4.01589,-0.800893 4.32643,-0.616743 4.09589,-0.35581 4.26119,-0.1357 4.08168,0.102874 3.61855,0.291618 3.88484,0.538192 3.6477,0.734259 3.36728,0.891015 3.48989,1.156264 3.14345,1.258204 3.52955,1.67171 3.11459,1.71146 3.18241,1.980741 3.45693,2.411751 3.43369,2.643338 4.4279,3.70524 11.22567,9.58526 2.31195,1.63621 2.17761,1.28774 1.78999,0.81831 1.8339,0.56125 1.41842,0.20918 1.42488,-0.0144 1.37224,-0.25156 1.24011,-0.44531 1.22289,-0.65753 1.28124,-0.93655 1.37711,-1.30358 1.35344,-1.5928 1.55552,-2.22266 1.31048,-2.1992 1.96304,-3.8373 2.05657,-4.66437 2.41202,-6.151436 6.87155,-18.312703 1.43361,-3.117721 1.37789,-2.452631 1.03239,-1.400605 0.98948,-0.929822 0.48952,-0.295452 0.72801,-0.222351 0.74933,0.05813 0.67204,0.31202 0.61031,0.504106 0.98701,1.273079 0.62368,1.102201 1.14966,2.628566 0.93458,2.694638 1.15204,3.958162 1.64509,6.684101 2.34773,10.8097 2.3657,10.644628 1.33178,4.96041 0.92614,2.6848 0.5208,1.16428 0.91774,1.35492 0.56656,0.34456 0.33186,0.0164 0.47194,-0.22287 0.52711,-0.60227 0.36032,-0.63022 0.78841,-1.99803 0.77019,-2.7658 0.84492,-3.90535 0.93378,-5.27982 1.42639,-9.368501 2.64586,-17.698308 0.72717,-3.774198 0.83551,-3.162142 0.442,-1.05012 0.50245,-0.596297 0.32909,-0.02131 0.17608,0.114095 0.44113,0.678748 0.53598,1.5944 0.611,2.841174 0.8364,5.542846 0.9887,8.559908 2.8374,26.295485 0.64523,3.56617 0.44191,1.39016 0.32976,0.39952 0.26839,-0.10484 0.22106,-0.38696 0.41706,-1.48175 0.51121,-3.14671 0.55207,-4.93546 0.75811,-8.88186 2.16981,-27.232191 0.51804,-3.579293 0.30111,-1.055438 0.19681,-0.232295 0.19373,0.143784 0.19072,0.512756 0.28052,1.432517 0.36395,3.04573 0.52513,6.562974 0.82284,13.94602 1.12176,18.969796 0.4812,4.94465 0.3284,1.43702 0.12791,0.0682 0.126,-0.21758 0.18547,-0.84622 0.29993,-2.7003 0.40138,-6.05264 0.58961,-12.794054 1.08661,-24.112802 0.37703,-3.937395 0.15966,-0.442441 0.0392,0.01489 0.11581,0.338655 0.1874,1.499853 0.28579,4.540495 0.42995,11.299188 1.14023,32.376591 0.20242,1.11662 0.0859,-0.30087 0.14451,-1.62059 0.23168,-5.53778 0.37756,-15.559821 0.67553,-27.493441 0.12099,-0.981116 0.0419,0.136412 0.0999,1.392051 0.18084,6.4573 0.30873,20.885034 0.41,23.911901 0.0156,0.0522 0.0412,-0.36976 0.0954,-3.93267 0.18112,-19.145579 0.32157,-34.30041 0.0319,0.536024 0.0855,6.748395 0.18928,22.502418 v 0"
         style="fill:none;stroke:#000000;stroke-width:1.5;stroke-linecap:square;stroke-linejoin:round"
         id="path108" />
    </g>
  </g>
  <defs
     id="defs117">
    <clipPath
       id="p7230c20211">
      <rect
         height="166.32"
         width="334.8"
         x="48.323213"
         y="10.659249"
         id="rect117" />
    </clipPath>
  </defs>
</svg>
