<?xml version="1.0" encoding="UTF-8" standalone="no"?>
<!-- Created with matplotlib (https://matplotlib.org/) -->

<svg
   height="213.997566pt"
   version="1.1"
   viewBox="0 0 401.669588 213.997566"
   width="401.669588pt"
   id="svg117"
   sodipodi:docname="N.svg"
   inkscape:version="1.4 (e7c3feb100, 2024-10-09)"
   xmlns:inkscape="http://www.inkscape.org/namespaces/inkscape"
   xmlns:sodipodi="http://sodipodi.sourceforge.net/DTD/sodipodi-0.dtd"
   xmlns="http://www.w3.org/2000/svg"
   xmlns:svg="http://www.w3.org/2000/svg"
   xmlns:rdf="http://www.w3.org/1999/02/22-rdf-syntax-ns#"
   xmlns:cc="http://creativecommons.org/ns#"
   xmlns:dc="http://purl.org/dc/elements/1.1/">
  <sodipodi:namedview
     id="namedview117"
     pagecolor="#ffffff"
     bordercolor="#999999"
     borderopacity="1"
     inkscape:showpageshadow="0"
     inkscape:pageopacity="0"
     inkscape:pagecheckerboard="0"
     inkscape:deskcolor="#d1d1d1"
     inkscape:document-units="pt"
     inkscape:zoom="2.1547336"
     inkscape:cx="274.51189"
     inkscape:cy="191.67102"
     inkscape:window-width="2048"
     inkscape:window-height="1117"
     inkscape:window-x="0"
     inkscape:window-y="35"
     inkscape:window-maximized="1"
     inkscape:current-layer="svg117" />
  <metadata
     id="metadata1">
    <rdf:RDF>
      <cc:Work>
        <dc:type
           rdf:resource="http://purl.org/dc/dcmitype/StillImage" />
        <dc:date>2021-08-28T11:14:05.448004</dc:date>
        <dc:format>image/svg+xml</dc:format>
        <dc:creator>
          <cc:Agent>
            <dc:title>Matplotlib v3.3.3, https://matplotlib.org/</dc:title>
          </cc:Agent>
        </dc:creator>
      </cc:Work>
    </rdf:RDF>
  </metadata>
  <defs
     id="defs1">
    <style
       type="text/css"
       id="style1">*{stroke-linecap:butt;stroke-linejoin:round;}</style>
    <clipPath
       id="p7230c20211-6">
      <rect
         height="166.32001"
         width="334.79999"
         x="48.323212"
         y="10.659249"
         id="rect117-7" />
    </clipPath>
    <clipPath
       id="clipPath1">
      <rect
         height="166.32001"
         width="334.79999"
         x="48.323212"
         y="10.659249"
         id="rect1" />
    </clipPath>
  </defs>
  <defs
     id="defs117">
    <clipPath
       id="p7230c20211">
      <rect
         height="166.32"
         width="334.8"
         x="48.323213"
         y="10.659249"
         id="rect117" />
    </clipPath>
  </defs>
  <g
     id="PolyCollection_1"
     style="stroke-linecap:butt;stroke-linejoin:round">
    <path
       clip-path="url(#p7230c20211-6)"
       d="m -145116.94,83253.819 v 0 h 144961.15336 14.60082 14.60142 14.60233 14.603734 14.605968 14.609506 14.615122 11.551351 12.910822 11.042054 12.604107 11.845385 13.48403 13.835671 16.146599 7.341657 5.843304 2.955692 4.975777 3.470507 3.593004 2.632212 4.124982 1.792493 2.61626 2.896132 1.788275 1.07083 2.020741 2.054996 1.168149 2.30186 1.4364 0.59526 0.87053 0.84528 1.80057 1.09176 1.00449 1.61271 0.81773 0.79717 1.16617 1.04827 0.83079 1.13165 0.94517 0.616 1.49444 0.60728 1.13862 1.01929 0.57096 0.33949 0.83588 1.24962 0.97231 0.71437 0.41111 0.81043 0.56818 0.50207 0.87498 0.64524 0.84647 0.62494 0.83921 0.47763 0.82102 0.56562 0.43732 0.43368 0.2155 0.21464 0.21377 0.21292 0.2121 0.10573 0.10553 0.21046 0.32231 0.16046 0.16 0.31864 0.15866 0.15821 0.18635 0.18576 0.18516 0.18458 0.15775 0.15733 0.15691 0.15651 0.30769 0.15326 0.15288 0.1525 0.15212 0.15174 0.15138 0.26821 0.13368 0.13339 0.26596 0.13257 0.13229 0.22345 0.22269 0.22193 0.11069 0.11051 0.23961 0.11948 0.11928 0.11907 0.11886 0.2371 0.17652 0.17606 0.17563 0.17519 0.17476 0.17434 0.087 0.0869 0.1735 0.15684 0.15651 0.15617 0.15585 0.27857 0.1389 0.13864 0.23668 0.11807 0.11789 0.23523 0.11736 0.11718 0.1124 0.11224 0.22401 0.22339 0.22278 0.15238 0.15209 0.15182 0.15154 0.13996 0.13973 0.1395 0.13927 0.25514 0.12729 0.1271 0.25366 0.12655 0.12638 0.21573 0.21522 0.10742 0.10729 0.21422 0.14254 0.14232 0.14211 0.1419 0.14168 0.14148 0.14128 0.14107 0.14081 0.14062 0.14042 0.14023 0.27977 0.1396 0.13941 0.13923 0.13904 0.13887 0.13868 0.27683 0.13816 0.13798 0.13781 0.13765 0.23929 0.23881 0.11922 0.1191 0.11898 0.11887 0.23738 0.11852 0.11841 0.0847 0.0847 0.16911 0.1689 0.16868 0.15242 0.15225 0.15208 0.15192 0.10119 0.10111 0.10105 0.10098 0.15134 0.15119 0.15104 0.1509 0.15076 0.15062 0.15049 0.15035 0.15023 0.1501 0.14999 0.14986 0.13089 0.1308 0.13072 0.13064 0.0808 0.16146 0.0807 0.1613 0.1612 0.1611 0.16101 0.16093 0.16084 0.0804 0.0804 0.1607 0.16063 0.16057 0.16052 0.16048 0.14054 0.14051 0.14049 0.14047 0.18728 0.18725 0.18725 0.18726 0.28091 0.28098 0.28109 0.28123 0.37526 0.51708 0.49474 0.49581 0.66306 0.33249 0.33318 0.38071 0.38169 0.38269 0.38373 0.38476 0.19277 0.38631 0.38731 0.35298 0.31839 0.15941 0.31926 0.15983 0.33826 0.35701 0.1787 0.17882 0.17893 0.17904 0.17914 0.17922 0.17929 0.17937 0.17942 0.17946 0.17951 0.17953 0.17955 0.15919 0.15919 0.15918 0.15917 0.15915 0.15911 0.15909 0.15904 0.31793 0.15888 0.15881 0.15873 0.15865 0.15856 0.15846 0.16418 0.16406 0.16394 0.16381 0.16368 0.16354 0.16339 0.16324 0.16309 0.16292 0.16276 0.16258 0.1624 0.16223 0.16204 0.16184 0.17573 0.1755 0.17526 0.17501 0.34926 0.34822 0.69323 0.68867 0.7547 0.74866 0.55837 0.55478 1.09881 0.72671 0.71995 0.5372 0.53333 1.05525 0.87272 0.86188 0.60745 0.60201 0.59662 0.59126 0.3723 0.37018 0.73409 0.72577 0.71756 0.63332 0.62698 0.62074 0.61458 0.68126 0.67376 0.33408 0.33226 0.65913 0.65834 0.6512 0.59448 0.58862 0.58283 0.57717 0.44468 0.44137 0.87304 0.67133 0.66374 0.89932 0.44449 0.44116 0.43836 0.43511 0.86074 0.49671 0.49255 0.72265 0.71387 0.57883 0.57319 0.34299 0.341 0.56135 0.55607 0.77651 0.76645 0.5055 0.50123 0.99013 0.73177 0.36253 0.36035 0.35809 0.35598 0.35388 0.35183 0.46578 0.46223 0.45875 0.45495 0.45159 0.67093 0.6637 0.46551 0.46205 0.91295 0.45148 0.38884 0.38646 0.4874 0.4837 0.40924 0.40665 0.60478 0.59918 0.78935 0.42723 0.42447 0.45741 0.59624 0.59096 0.65387 0.64762 0.27547 0.27436 0.36328 0.36136 0.53793 0.53381 0.52855 0.52461 0.26004 0.25909 0.5154 0.39407 0.39194 0.49358 0.49027 0.43453 0.43201 0.20928 0.2087 0.41568 0.50332 0.35963 0.43647 0.43402 0.44986 0.44728 0.19327 0.4708 0.27702 0.43678 0.43442 0.47766 0.47489 0.3142 0.31303 0.38299 0.38126 0.37956 0.3779 0.42806 0.42597 0.29899 0.29799 0.59305 0.32834 0.37792 0.37638 0.41595 0.41411 0.20179 0.46838 0.26627 0.65934 0.328 0.32694 0.51758 0.38578 0.38435 0.19062 0.19027 0.37955 0.50353 0.24939 0.55789 0.30819 0.30736 0.30653 0.18231 0.36378 0.42245 0.24049 0.23862 0.23816 0.47495 0.2354 0.23497 0.49603 0.49414 0.27339 0.27284 0.54406 0.45315 0.22603 0.22567 0.42042 0.34747 0.34667 0.54987 0.27419 0.27373 0.43354 0.43241 0.42888 0.22624 0.22596 0.45107 0.26266 0.26229 0.52354 0.31118 0.31071 0.41206 0.43412 0.43327 0.21462 0.21442 0.42828 0.39922 0.32295 0.32255 0.41814 0.4175 0.31672 0.31638 0.38665 0.38412 0.38369 0.25018 0.25001 0.19479 0.38929 0.1945 0.21039 0.21029 0.42032 0.36998 0.36972 0.18326 0.18321 0.36478 0.36457 0.27162 0.27153 0.26921 0.53119 0.46949 0.20747 0.41487 0.25208 0.25206 0.23982 0.2398 0.18389 0.36777 0.4417 0.25782 0.38327 0.38334 0.38084 0.40033 0.16764 0.16767 0.30194 0.50901 0.20699 0.47251 0.23637 0.23647 0.18301 0.36622 0.58654 0.24104 0.24118 0.37876 0.37913 0.29666 0.29691 0.31561 0.31371 0.27265 0.27289 0.18375 0.18386 0.36809 0.30748 0.30782 0.45758 0.30423 0.49156 0.22561 0.22583 0.20513 0.20531 0.41121 0.37069 0.47994 0.29368 0.3468 0.3474 0.32635 0.28993 0.53987 0.35771 0.49891 0.28304 0.28351 0.42284 0.38531 0.45306 0.52002 0.27534 0.27586 0.22351 0.52914 0.44096 0.27042 0.26956 0.40257 0.43423 0.53126 0.21488 0.37866 0.26299 0.52251 0.48673 0.25779 0.25835 0.32057 0.25654 0.41366 0.63325 0.28223 0.28295 0.37501 0.24836 0.2486 0.46298 0.55251 0.24349 0.24408 0.39353 0.48214 0.25471 0.23939 0.40165 0.35537 0.23654 0.44048 0.26243 0.26317 0.46388 0.25901 0.23051 0.45792 0.27009 0.29785 0.45148 0.26704 0.405 0.33332 0.27699 0.44053 0.32879 0.21769 0.21793 0.40575 0.48413 0.21327 0.21384 0.23842 0.42282 0.21084 0.30092 0.53373 0.29698 0.32133 0.40911 0.16593 0.18978 0.40401 0.47626 0.24921 0.39636 0.27123 0.19578 0.39045 0.26718 0.38589 0.19163 0.27474 0.1905 0.31939 0.3998 0.18705 0.3721 0.36942 0.2527 0.18234 0.43145 0.22563 0.17966 0.3127 0.22227 0.35328 0.35059 0.21791 0.30289 0.51475 0.23413 0.16886 0.16899 0.39757 0.33186 0.32912 0.14282 0.20372 0.32339 0.14042 0.2199 0.41603 0.37238 0.15537 0.15491 0.15394 0.30597 0.15199 0.30156 0.39137 0.16588 0.14693 0.14593 0.2568 0.21824 0.2881 0.28493 0.1414 0.1404 0.27874 0.29282 0.18802 0.1353 0.15197 0.31714 0.13252 0.1316 0.26134 0.2586 0.12839 0.25457 0.25193 0.18708 0.12433 0.12307 0.13828 0.18283 0.16614 0.23992 0.31146 0.16117 0.11697 0.11579 0.13012 0.17208 0.1564 0.11352 0.23869 0.26376 0.1103 0.10956 0.10923 0.17608 0.22836 0.21277 0.22386 0.10454 0.10404 0.10354 0.25662 0.15265 0.1011 0.10063 0.24941 0.14839 0.0983 0.0978 0.24249 0.14428 0.0956 0.0951 0.18894 0.1872 0.093 0.18463 0.18296 0.13603 0.0906 0.17924 0.17761 0.13192 0.0876 0.17405 0.17249 0.0857 0.0853 0.16943 0.16792 0.0834 0.083 0.16496 0.16351 0.0812 0.16136 0.17994 0.0792 0.15769 0.0829 0.14149 0.10617 0.15699 0.1115 0.10309 0.1083 0.11902 0.12741 0.099 0.1034 0.18155 0.0868 0.1041 0.11696 0.14697 0.0701 0.10776 0.0923 0.11225 0.0856 0.11898 0.0852 0.10919 0.0919 0.0833 0.0909 0.0494 0.0861 0.1506 0.12898 0.12791 0.12686 0.12582 0.12478 0.12376 0.12275 0.12175 0.12075 0.11976 0.1188 0.11783 0.11687 0.11593 0.115 0.11406 0.11315 0.11224 0.11134 0.11044 0.10956 0.10869 0.10782 0.10696 0.10611 0.10526 0.10443 0.1036 0.10278 0.10197 0.10117 0.10036 0.0996 0.0988 0.098 0.0973 0.0965 0.0957 0.095 0.0942 0.0935 0.0928 0.0921 0.0913 0.0906 0.0899 0.0892 0.0885 0.0878 0.0872 0.0865 0.0858 0.0852 0.0845 0.0839 0.0832 0.0826 0.082 0.0813 0.0807 0.0801 0.0795 0.0788 0.0783 0.0777 0.0771 0.0765 0.0759 0.0753 0.0747 0.0742 0.0736 0.0366 0.0365 0.0725 0.0719 0.0714 0.0709 0.0703 0.0698 0.0693 0.0687 0.0682 0.0677 0.0672 0.0667 0.0662 0.0657 0.0652 0.0647 0.0642 0.0637 0.0632 0.0628 0.0623 0.0618 0.0614 0.0609 0.0604 0.06 0.0595 0.0591 0.0586 0.0582 0.0578 0.0573 0.0569 0.0565 0.056 0.0556 0.0552 0.0548 0.0544 0.054 0.0536 0.0532 0.0528 0.0524 0.052 0.0516 0.0512 0.0508 0.0505 0.0501 0.0497 0.0493 0.049 0.0486 0.0483 0.0479 0.0475 0.0472 0.0468 0.0465 0.0461 0.0458 0.0455 0.0451 0.0448 0.0445 0.0441 0.0438 0.0435 0.0432 0.0428 0.0425 0.0422 0.0419 0.0416 0.0413 0.041 0.0407 0.0404 0.0401 0.0398 0.0395 0.0392 0.0389 0.0386 0.0383 0.038 0.0377 0.0375 0.0372 0.0369 0.0367 0.0364 0.0361 0.0358 0.0356 0.0353 0.0351 0.0348 0.0346 0.0343 0.0341 0.0338 0.0335 0.0333 0.0331 0.0328 0.0326 0.0323 0.0321 0.0319 0.0316 0.0314 0.0312 0.031 0.0307 0.0305 0.0303 0.03 0.0298 0.0296 0.0294 0.0292 0.029 0.0288 0.0286 0.0283 0.0281 0.0279 0.0277 0.0275 0.0273 0.0271 0.0269 0.0267 0.0266 0.0263 0.0262 0.026 0.0258 0.0256 0.0254 0.0252 0.0251 0.0249 0.0247 0.0245 0.0243 0.0242 0.024 0.0238 0.0236 0.0235 0.0233 0.0231 0.023 0.0228 0.0226 0.0225 0.0223 0.0222 0.022 0.0219 0.0217 0.0215 0.0214 0.0212 0.0211 0.0209 0.0208 0.0206 0.0205 0.0204 0.0202 0.0201 0.0199 0.0198 0.0196 0.0195 0.0194 0.0192 0.0191 0.019 0.0188 0.0187 0.0186 0.0184 0.0183 0.0182 0.0181 0.0179 0.0178 0.0177 0.0176 0.0174 0.0173 0.0172 0.0171 0.017 0.0169 0.0167 0.0166 0.0165 0.0164 0.0163 0.0162 0.0161 0.016 0.0159 0.0157 0.0156 0.0155 0.0154 0.0153 0.0152 0.0151 0.015 0.0149 0.0148 0.0147 0.0146 0.0145 0.0144 0.0143 0.0142 0.0141 0.014 0.0139 0.0139 0.0138 0.0137 0.0136 0.0135 0.0134 0.0133 0.0132 0.0131 0.0131 0.013 0.0129 0.0128 0.0127 0.0126 0.0125 0.0125 0.0124 0.0123 0.0122 0.0121 0.012 0.012 0.0119 0.0118 0.0117 0.0117 0.0116 0.0115 0.0114 0.0114 0.0113 0.0112 0.0111 0.0111 0.011 0.0109 0.0109 0.0108 0.0107 0.0106 0.0106 0.0105 0.0104 0.0104 0.0103 0.0102 0.0102 0.0101 0.01 0.01 0.01 0.01 0.01 0.01 0.01 0.01 0.01 0.009 0.009 0.009 0.009 0.009 0.009 0.009 0.009 0.009 0.009 0.009 0.009 0.009 0.009 0.009 0.009 0.008 0.008 0.008 0.008 0.008 0.008 0.008 0.008 0.008 0.008 0.008 0.008 0.008 0.008 0.008 0.008 0.008 0.008 0.007 0.007 0.007 0.007 0.007 0.007 0.007 0.007 0.007 0.007 0.007 0.007 0.007 0.007 0.007 0.007 0.007 0.007 0.007 0.007 0.007 0.007 0.006 0.006 0.006 0.006 0.006 0.006 0.006 0.006 0.006 0.006 0.006 0.006 0.006 0.006 0.006 0.006 0.006 0.006 0.006 0.006 0.006 0.006 0.006 0.006 0.006 0.006 0.005 0.005 0.005 0.005 0.005 0.005 0.005 0.005 0.005 0.005 0.005 0.005 0.005 0.005 0.005 0.005 0.005 0.005 0.005 0.005 0.005 0.005 0.005 0.005 0.005 0.005 0.005 0.005 0.005 0.005 0.005 0.005 0.005 0.005 0.004 0.004 0.004 0.004 0.004 0.004 0.004 0.004 0.004 0.004 0.004 0.004 0.004 0.004 0.004 0.004 0.004 0.004 0.004 0.004 0.004 0.004 0.004 0.004 0.004 0.004 0.004 0.004 0.004 0.004 0.004 0.004 0.004 0.004 0.004 0.004 0.004 0.004 0.004 0.004 0.004 0.004 0.004 0.004 0.004 0.004 0.004 0.004 0.003 0.003 0.003 0.003 0.003 0.003 0.003 0.003 0.003 0.003 0.003 0.003 0.003 0.003 0.003 0.003 0.003 0.003 0.003 0.003 0.003 0.003 0.003 0.003 0.003 0.003 0.003 0.003 0.003 0.003 0.003 0.003 0.003 0.003 0.003 0.003 0.003 0.003 0.003 0.003 0.003 0.003 0.003 0.003 0.003 0.003 0.003 0.003 0.003 0.003 0.003 0.003 0.003 0.003 0.003 0.003 0.003 0.003 0.003 0.003 0.003 0.003 0.003 0.003 0.003 0.003 0.003 0.003 0.003 0.003 0.003 0.003 0.003 0.003 0.003 0.003 0.003 0.003 0.002 0.002 0.002 0.002 0.002 0.002 0.002 0.002 0.002 0.002 0.002 0.002 0.002 0.002 0.002 0.002 0.002 0.002 0.002 0.002 0.002 0.002 0.002 0.002 0.002 0.002 0.002 0.002 0.002 0.002 0.002 0.002 0.002 0.002 0.002 0.002 0.002 0.002 0.002 0.002 0.002 0.002 0.002 0.002 0.002 0.002 0.002 0.002 0.002 0.002 0.002 0.002 0.002 0.002 0.002 0.002 0.002 0.002 0.002 0.002 0.002 0.002 0.002 0.002 0.002 0.002 0.002 0.002 0.002 0.002 0.002 0.002 0.003 0.002 0.002 0.002 0.002 10e-4 0.002 0.002 0.002 0.003 0.002 10e-4 0.003 0.002 0.001 0.002 0.001 0.002 10e-4 0.002 0.002 10e-4 0.002 0.002 0.002 0.002 0.001 0.002 0.002 0.002 7.7e-4 0.002 0.002 0.002 0.002 10e-4 0.001 0.002 9.2e-4 0.002 0.002 0.001 0.002 0.001 10e-4 0.002 0.002 10e-4 0.002 0.002 10e-4 0.001 0.002 0.002 0.001 0.002 10e-4 0.001 0.002 0.002 0.001 10e-4 10e-4 0.002 0.001 10e-4 0.002 10e-4 0.001 10e-4 0.002 10e-4 0.001 10e-4 0.002 10e-4 0.001 10e-4 0.002 0.001 10e-4 10e-4 0.002 0.001 10e-4 10e-4 0.002 0.002 0.001 10e-4 10e-4 0.001 10e-4 0.001 0.002 0.002 0.001 6.7e-4 0.001 0.002 10e-4 0.001 0.002 0.002 0.001 7.2e-4 7.2e-4 10e-4 10e-4 0.001 7.4e-4 7.5e-4 0.002 0.002 0.002 7.7e-4 7.9e-4 0.002 0.002 8e-4 0.002 8.3e-4 8.2e-4 8.4e-4 0.002 8.4e-4 8.4e-4 8.6e-4 0.002 8.9e-4 9e-4 9e-4 0.002 9.1e-4 9.2e-4 9.3e-4 0.002 9.7e-4 9.4e-4 9.6e-4 9.8e-4 9.8e-4 0.001 10e-4 10e-4 0.001 10e-4 0.001 10e-4 0.001 10e-4 10e-4 0.001 10e-4 0.001 10e-4 10e-4 5.9e-4 5.9e-4 10e-4 0.001 10e-4 10e-4 6.1e-4 6.3e-4 10e-4 10e-4 6.5e-4 6.6e-4 10e-4 6.8e-4 6.9e-4 10e-4 7.1e-4 7.2e-4 7e-4 10e-4 7.3e-4 7.3e-4 7.4e-4 7.5e-4 7.6e-4 7.7e-4 7.7e-4 7.9e-4 8e-4 8.1e-4 8.1e-4 8.3e-4 8.4e-4 8.2e-4 8.4e-4 8.4e-4 8.6e-4 8.6e-4 8.8e-4 9e-4 4.5e-4 4.5e-4 9.2e-4 9.4e-4 9.5e-4 4.8e-4 9.7e-4 4.9e-4 10e-4 0.001 5.2e-4 5.1e-4 5.1e-4 5e-4 0.001 10e-4 5.3e-4 5.4e-4 5.4e-4 5.4e-4 0.001 5.6e-4 5.7e-4 5.7e-4 5.8e-4 5.9e-4 5.9e-4 10e-4 6.1e-4 6.2e-4 6.2e-4 6.3e-4 6.4e-4 6.4e-4 6.5e-4 6.6e-4 6.6e-4 6.7e-4 6.9e-4 6.9e-4 6.7e-4 6.9e-4 7e-4 3.5e-4 7.1e-4 7.1e-4 3.6e-4 7.3e-4 7.4e-4 7.5e-4 3.8e-4 3.8e-4 7.7e-4 3.9e-4 3.9e-4 7.9e-4 4e-4 4e-4 8.1e-4 4.1e-4 4.1e-4 8.2e-4 4.2e-4 4.1e-4 4.2e-4 8.5e-4 4.3e-4 4.3e-4 4.3e-4 4.4e-4 4.4e-4 4.4e-4 4.4e-4 4.4e-4 4.5e-4 4.5e-4 4.4e-4 4.5e-4 2.3e-4 2.2e-4 4.6e-4 4.5e-4 2.3e-4 2.2e-4 2.3e-4 2.3e-4 2.3e-4 4.5e-4 2.3e-4 2.3e-4 2.3e-4 2.3e-4 2.3e-4 1.1e-4 1.2e-4 2.2e-4 2.3e-4 2.3e-4 3.5e-4 1.7e-4 1.7e-4 1.2e-4 1.1e-4 2.2e-4 2.2e-4 2.2e-4 2.2e-4 1.1e-4 1.1e-4 2.2e-4 3.4e-4 2.2e-4 3.4e-4 2.3e-4 2.2e-4 2.3e-4 2.9e-4 3.2e-4 5.6e-4 2.9e-4 3e-4 5.2e-4 2.1e-4 1.8e-4 3.1e-4 5.1e-4 4.8e-4 4.2e-4 2.3e-4 2.5e-4 10e-5 8e-5 5e-5 2e-5 0.002 0.004 0.007 0.007 0.009 0.0143 0.0158 0.008 0.007 0.006 0.006 0.005 0.005 0.004 0.004 0.004 0.004 0.003 0.003 0.003 0.003 0.003 0.003 0.003 0.003 0.003 0.002 0.002 0.002 0.002 0.002 0.002 0.002 0.002 10e-4 4.4e-4 5e-5 V 337.75529 v 0 l -5e-5,1.3e-4 -4.4e-4,10e-4 -10e-4,0.003 -0.002,9.3e-4 -0.002,-0.001 -0.002,-0.004 -0.002,-0.006 -0.002,-0.008 -0.002,-0.009 -0.002,-0.01 -0.002,-0.0101 -0.003,-0.0107 -0.003,-0.0112 -0.003,-0.0113 -0.003,-0.011 -0.003,-0.0104 -0.003,-0.0101 -0.003,-0.01 -0.003,-0.01 -0.003,-0.009 -0.004,-0.008 -0.004,-0.007 -0.004,-0.006 -0.004,-0.005 -0.005,-0.003 -0.005,-10e-4 -0.006,10e-4 -0.006,0.003 -0.007,0.005 -0.008,0.004 -0.0158,-0.0324 -0.0143,-0.17264 -0.009,-0.33004 -0.007,-0.52295 -0.007,-0.78941 -0.004,-0.73195 -0.002,-0.41816 -2e-5,-0.005 -5e-5,-0.0117 -8e-5,-0.0194 -10e-5,-0.0259 -2.5e-4,-0.0601 -2.3e-4,-0.0569 -4.2e-4,-0.10603 -4.8e-4,-0.12328 -5.1e-4,-0.13305 -3.1e-4,-0.0841 -1.8e-4,-0.0507 -2.1e-4,-0.0593 -5.2e-4,-0.14616 -3e-4,-0.0877 -2.9e-4,-0.0882 -5.6e-4,82920.27152 h -3.2e-4 -2.9e-4 -2.3e-4 -2.2e-4 -2.3e-4 -3.4e-4 -2.2e-4 -3.4e-4 -2.2e-4 -1.1e-4 -1.1e-4 -2.2e-4 -2.2e-4 -2.2e-4 -2.2e-4 -1.1e-4 -1.2e-4 -1.7e-4 -1.7e-4 -3.5e-4 -2.3e-4 -2.3e-4 -2.2e-4 -1.2e-4 -1.1e-4 -2.3e-4 -2.3e-4 -2.3e-4 -2.3e-4 -2.3e-4 -4.5e-4 -2.3e-4 -2.3e-4 -2.3e-4 -2.2e-4 -2.3e-4 -4.5e-4 -4.6e-4 -2.2e-4 -2.3e-4 -4.5e-4 -4.4e-4 -4.5e-4 -4.5e-4 -4.4e-4 -4.4e-4 -4.4e-4 -4.4e-4 -4.4e-4 -4.3e-4 -4.3e-4 -4.3e-4 -8.5e-4 -4.2e-4 -4.1e-4 -4.2e-4 -8.2e-4 -4.1e-4 -4.1e-4 -8.1e-4 -4e-4 -4e-4 -7.9e-4 -3.9e-4 -3.9e-4 -7.7e-4 -3.8e-4 -3.8e-4 -7.5e-4 -7.4e-4 -7.3e-4 -3.6e-4 -7.1e-4 -7.1e-4 -3.5e-4 -7e-4 -6.9e-4 -6.7e-4 -6.9e-4 -6.9e-4 -6.7e-4 -6.6e-4 -6.6e-4 -6.5e-4 -6.4e-4 -6.4e-4 -6.3e-4 -6.2e-4 -6.2e-4 -6.1e-4 -10e-4 -5.9e-4 -5.9e-4 -5.8e-4 -5.7e-4 -5.7e-4 -5.6e-4 -0.001 -5.4e-4 -5.4e-4 -5.4e-4 -5.3e-4 -10e-4 -0.001 -5e-4 -5.1e-4 -5.1e-4 -5.2e-4 -0.001 -10e-4 -4.9e-4 -9.7e-4 -4.8e-4 -9.5e-4 -9.4e-4 -9.2e-4 -4.5e-4 -4.5e-4 -9e-4 -8.8e-4 -8.6e-4 -8.6e-4 -8.4e-4 -8.4e-4 -8.2e-4 -8.4e-4 -8.3e-4 -8.1e-4 -8.1e-4 -8e-4 -7.9e-4 -7.7e-4 -7.7e-4 -7.6e-4 -7.5e-4 -7.4e-4 -7.3e-4 -7.3e-4 -10e-4 -7e-4 -7.2e-4 -7.1e-4 -10e-4 -6.9e-4 -6.8e-4 -10e-4 -6.6e-4 -6.5e-4 -10e-4 -10e-4 -6.3e-4 -6.1e-4 -10e-4 -10e-4 -0.001 -10e-4 -5.9e-4 -5.9e-4 -10e-4 -10e-4 -0.001 -10e-4 -0.001 -10e-4 -10e-4 -0.001 -10e-4 -0.001 -10e-4 -0.001 -10e-4 -10e-4 -0.001 -9.8e-4 -9.8e-4 -9.6e-4 -9.4e-4 -9.7e-4 -0.002 -9.3e-4 -9.2e-4 -9.1e-4 -0.002 -9e-4 -9e-4 -8.9e-4 -0.002 -8.6e-4 -8.4e-4 -8.4e-4 -0.002 -8.4e-4 -8.2e-4 -8.3e-4 -0.002 -8e-4 -0.002 -0.002 -7.9e-4 -7.7e-4 -0.002 -0.002 -0.002 -7.5e-4 -7.4e-4 -0.001 -10e-4 -10e-4 -7.2e-4 -7.2e-4 -0.001 -0.002 -0.002 -0.001 -10e-4 -0.002 -0.001 -6.7e-4 -0.001 -0.002 -0.002 -0.001 -10e-4 -0.001 -10e-4 -10e-4 -0.001 -0.002 -0.002 -10e-4 -10e-4 -0.001 -0.002 -10e-4 -10e-4 -0.001 -0.002 -10e-4 -0.001 -10e-4 -0.002 -10e-4 -0.001 -10e-4 -0.002 -10e-4 -0.001 -10e-4 -0.002 -10e-4 -0.001 -0.002 -10e-4 -10e-4 -0.001 -0.002 -0.002 -0.001 -10e-4 -0.002 -0.001 -0.002 -0.002 -0.001 -10e-4 -0.002 -0.002 -10e-4 -0.002 -0.002 -10e-4 -0.001 -0.002 -0.001 -0.002 -0.002 -9.2e-4 -0.002 -0.001 -10e-4 -0.002 -0.002 -0.002 -0.002 -7.7e-4 -0.002 -0.002 -0.002 -0.001 -0.002 -0.002 -0.002 -0.002 -10e-4 -0.002 -0.002 -10e-4 -0.002 -0.001 -0.002 -0.001 -0.002 -0.003 -10e-4 -0.002 -0.003 -0.002 -0.002 -0.002 -10e-4 -0.002 -0.002 -0.002 -0.002 -0.003 -0.002 -0.002 -0.002 -0.002 -0.002 -0.002 -0.002 -0.002 -0.002 -0.002 -0.002 -0.002 -0.002 -0.002 -0.002 -0.002 -0.002 -0.002 -0.002 -0.002 -0.002 -0.002 -0.002 -0.002 -0.002 -0.002 -0.002 -0.002 -0.002 -0.002 -0.002 -0.002 -0.002 -0.002 -0.002 -0.002 -0.002 -0.002 -0.002 -0.002 -0.002 -0.002 -0.002 -0.002 -0.002 -0.002 -0.002 -0.002 -0.002 -0.002 -0.002 -0.002 -0.002 -0.002 -0.002 -0.002 -0.002 -0.002 -0.002 -0.002 -0.002 -0.002 -0.002 -0.002 -0.002 -0.002 -0.002 -0.002 -0.002 -0.002 -0.002 -0.002 -0.003 -0.003 -0.003 -0.003 -0.003 -0.003 -0.003 -0.003 -0.003 -0.003 -0.003 -0.003 -0.003 -0.003 -0.003 -0.003 -0.003 -0.003 -0.003 -0.003 -0.003 -0.003 -0.003 -0.003 -0.003 -0.003 -0.003 -0.003 -0.003 -0.003 -0.003 -0.003 -0.003 -0.003 -0.003 -0.003 -0.003 -0.003 -0.003 -0.003 -0.003 -0.003 -0.003 -0.003 -0.003 -0.003 -0.003 -0.003 -0.003 -0.003 -0.003 -0.003 -0.003 -0.003 -0.003 -0.003 -0.003 -0.003 -0.003 -0.003 -0.003 -0.003 -0.003 -0.003 -0.003 -0.003 -0.003 -0.003 -0.003 -0.003 -0.003 -0.003 -0.003 -0.003 -0.003 -0.003 -0.003 -0.003 -0.004 -0.004 -0.004 -0.004 -0.004 -0.004 -0.004 -0.004 -0.004 -0.004 -0.004 -0.004 -0.004 -0.004 -0.004 -0.004 -0.004 -0.004 -0.004 -0.004 -0.004 -0.004 -0.004 -0.004 -0.004 -0.004 -0.004 -0.004 -0.004 -0.004 -0.004 -0.004 -0.004 -0.004 -0.004 -0.004 -0.004 -0.004 -0.004 -0.004 -0.004 -0.004 -0.004 -0.004 -0.004 -0.004 -0.004 -0.004 -0.005 -0.005 -0.005 -0.005 -0.005 -0.005 -0.005 -0.005 -0.005 -0.005 -0.005 -0.005 -0.005 -0.005 -0.005 -0.005 -0.005 -0.005 -0.005 -0.005 -0.005 -0.005 -0.005 -0.005 -0.005 -0.005 -0.005 -0.005 -0.005 -0.005 -0.005 -0.005 -0.005 -0.005 -0.006 -0.006 -0.006 -0.006 -0.006 -0.006 -0.006 -0.006 -0.006 -0.006 -0.006 -0.006 -0.006 -0.006 -0.006 -0.006 -0.006 -0.006 -0.006 -0.006 -0.006 -0.006 -0.006 -0.006 -0.006 -0.006 -0.007 -0.007 -0.007 -0.007 -0.007 -0.007 -0.007 -0.007 -0.007 -0.007 -0.007 -0.007 -0.007 -0.007 -0.007 -0.007 -0.007 -0.007 -0.007 -0.007 -0.007 -0.007 -0.008 -0.008 -0.008 -0.008 -0.008 -0.008 -0.008 -0.008 -0.008 -0.008 -0.008 -0.008 -0.008 -0.008 -0.008 -0.008 -0.008 -0.008 -0.009 -0.009 -0.009 -0.009 -0.009 -0.009 -0.009 -0.009 -0.009 -0.009 -0.009 -0.009 -0.009 -0.009 -0.009 -0.009 -0.01 -0.01 -0.01 -0.01 -0.01 -0.01 -0.01 -0.01 -0.01 -0.0101 -0.0102 -0.0102 -0.0103 -0.0104 -0.0104 -0.0105 -0.0106 -0.0106 -0.0107 -0.0108 -0.0109 -0.0109 -0.011 -0.0111 -0.0111 -0.0112 -0.0113 -0.0114 -0.0114 -0.0115 -0.0116 -0.0117 -0.0117 -0.0118 -0.0119 -0.012 -0.012 -0.0121 -0.0122 -0.0123 -0.0124 -0.0125 -0.0125 -0.0126 -0.0127 -0.0128 -0.0129 -0.013 -0.0131 -0.0131 -0.0132 -0.0133 -0.0134 -0.0135 -0.0136 -0.0137 -0.0138 -0.0139 -0.0139 -0.014 -0.0141 -0.0142 -0.0143 -0.0144 -0.0145 -0.0146 -0.0147 -0.0148 -0.0149 -0.015 -0.0151 -0.0152 -0.0153 -0.0154 -0.0155 -0.0156 -0.0157 -0.0159 -0.016 -0.0161 -0.0162 -0.0163 -0.0164 -0.0165 -0.0166 -0.0167 -0.0169 -0.017 -0.0171 -0.0172 -0.0173 -0.0174 -0.0176 -0.0177 -0.0178 -0.0179 -0.0181 -0.0182 -0.0183 -0.0184 -0.0186 -0.0187 -0.0188 -0.019 -0.0191 -0.0192 -0.0194 -0.0195 -0.0196 -0.0198 -0.0199 -0.0201 -0.0202 -0.0204 -0.0205 -0.0206 -0.0208 -0.0209 -0.0211 -0.0212 -0.0214 -0.0215 -0.0217 -0.0219 -0.022 -0.0222 -0.0223 -0.0225 -0.0226 -0.0228 -0.023 -0.0231 -0.0233 -0.0235 -0.0236 -0.0238 -0.024 -0.0242 -0.0243 -0.0245 -0.0247 -0.0249 -0.0251 -0.0252 -0.0254 -0.0256 -0.0258 -0.026 -0.0262 -0.0263 -0.0266 -0.0267 -0.0269 -0.0271 -0.0273 -0.0275 -0.0277 -0.0279 -0.0281 -0.0283 -0.0286 -0.0288 -0.029 -0.0292 -0.0294 -0.0296 -0.0298 -0.03 -0.0303 -0.0305 -0.0307 -0.031 -0.0312 -0.0314 -0.0316 -0.0319 -0.0321 -0.0323 -0.0326 -0.0328 -0.0331 -0.0333 -0.0335 -0.0338 -0.0341 -0.0343 -0.0346 -0.0348 -0.0351 -0.0353 -0.0356 -0.0358 -0.0361 -0.0364 -0.0367 -0.0369 -0.0372 -0.0375 -0.0377 -0.038 -0.0383 -0.0386 -0.0389 -0.0392 -0.0395 -0.0398 -0.0401 -0.0404 -0.0407 -0.041 -0.0413 -0.0416 -0.0419 -0.0422 -0.0425 -0.0428 -0.0432 -0.0435 -0.0438 -0.0441 -0.0445 -0.0448 -0.0451 -0.0455 -0.0458 -0.0461 -0.0465 -0.0468 -0.0472 -0.0475 -0.0479 -0.0483 -0.0486 -0.049 -0.0493 -0.0497 -0.0501 -0.0505 -0.0508 -0.0512 -0.0516 -0.052 -0.0524 -0.0528 -0.0532 -0.0536 -0.054 -0.0544 -0.0548 -0.0552 -0.0556 -0.056 -0.0565 -0.0569 -0.0573 -0.0578 -0.0582 -0.0586 -0.0591 -0.0595 -0.06 -0.0604 -0.0609 -0.0614 -0.0618 -0.0623 -0.0628 -0.0632 -0.0637 -0.0642 -0.0647 -0.0652 -0.0657 -0.0662 -0.0667 -0.0672 -0.0677 -0.0682 -0.0687 -0.0693 -0.0698 -0.0703 -0.0709 -0.0714 -0.0719 -0.0725 -0.0365 -0.0366 -0.0736 -0.0742 -0.0747 -0.0753 -0.0759 -0.0765 -0.0771 -0.0777 -0.0783 -0.0788 -0.0795 -0.0801 -0.0807 -0.0813 -0.082 -0.0826 -0.0832 -0.0839 -0.0845 -0.0852 -0.0858 -0.0865 -0.0872 -0.0878 -0.0885 -0.0892 -0.0899 -0.0906 -0.0913 -0.0921 -0.0928 -0.0935 -0.0942 -0.095 -0.0957 -0.0965 -0.0973 -0.098 -0.0988 -0.0996 -0.10036 -0.10117 -0.10197 -0.10278 -0.1036 -0.10443 -0.10526 -0.10611 -0.10696 -0.10782 -0.10869 -0.10956 -0.11044 -0.11134 -0.11224 -0.11315 -0.11406 -0.115 -0.11593 -0.11687 -0.11783 -0.1188 -0.11976 -0.12075 -0.12175 -0.12275 -0.12376 -0.12478 -0.12582 -0.12686 -0.12791 -0.12898 -0.1506 -0.0861 -0.0494 -0.0909 -0.0833 -0.0919 -0.10919 -0.0852 -0.11898 -0.0856 -0.11225 -0.0923 -0.10776 -0.0701 -0.14697 -0.11696 -0.1041 -0.0868 -0.18155 -0.1034 -0.099 -0.12741 -0.11902 -0.1083 -0.10309 -0.1115 -0.15699 -0.10617 -0.14149 -0.0829 -0.15769 -0.0792 -0.17994 -0.16136 -0.0812 -0.16351 -0.16496 -0.083 -0.0834 -0.16792 -0.16943 -0.0853 -0.0857 -0.17249 -0.17405 -0.0876 -0.13192 -0.17761 -0.17924 -0.0906 -0.13603 -0.18296 -0.18463 -0.093 -0.1872 -0.18894 -0.0951 -0.0956 -0.14428 -0.24249 -0.0978 -0.0983 -0.14839 -0.24941 -0.10063 -0.1011 -0.15265 -0.25662 -0.10354 -0.10404 -0.10454 -0.22386 -0.21277 -0.22836 -0.17608 -0.10923 -0.10956 -0.1103 -0.26376 -0.23869 -0.11352 -0.1564 -0.17208 -0.13012 -0.11579 -0.11697 -0.16117 -0.31146 -0.23992 -0.16614 -0.18283 -0.13828 -0.12307 -0.12433 -0.18708 -0.25193 -0.25457 -0.12839 -0.2586 -0.26134 -0.1316 -0.13252 -0.31714 -0.15197 -0.1353 -0.18802 -0.29282 -0.27874 -0.1404 -0.1414 -0.28493 l -0.2881,-83046.08379 -0.21824,-15.86252 -0.2568,-0.14002 -0.14593,-0.0946 -0.14693,6.45003 -0.16588,12.84917 -0.39137,-6.20048 -0.30156,-3.37419 -0.15199,-1.42773 -0.30597,-2.43011 -0.15394,-1.05658 -0.15491,-0.93148 -0.15537,-0.83012 -0.37238,-1.84103 -0.41603,-1.76195 -0.2199,-0.82589 -0.14042,-0.49167 -0.32339,-1.05052 -0.20372,-0.59995 -0.14282,-0.39328 -0.32912,-0.47758 -0.33186,-0.3306 -0.39757,-0.39221 -0.16899,-0.1656 -0.16886,-0.165 -0.23413,-0.22797 -0.51475,-0.49712 -0.30289,-0.28997 -0.21791,-0.20782 -0.35059,-0.33283 -0.35328,-0.33326 -0.22227,-0.20878 -0.3127,-0.29255 -0.17966,-0.16747 -0.22563,-0.20988 -0.43145,-0.39936 -0.18234,-0.16808 -0.2527,-0.23246 -0.36942,-0.33861 -0.3721,-0.33948 -0.18705,-0.1702 -0.3998,-0.36278 -0.31939,-0.28862 -0.1905,-0.17175 -0.27474,-0.24721 -0.19163,-0.17211 -0.38589,-0.34573 -0.26718,-0.23868 -0.39045,-0.34778 -0.19578,-0.17396 -0.27123,-0.24063 -0.39636,-0.35064 -0.24921,-0.21995 -0.47626,-0.41927 -0.40401,-0.35434 -0.18978,-0.16612 -0.16593,-0.14513 -0.40911,-0.35713 -0.32133,-0.27977 -0.29698,-0.25816 -0.53373,-0.46271 -0.30092,-0.26016 -0.21084,-0.18206 -0.42282,-0.36445 -0.23842,-0.20509 -0.21384,-0.18374 -0.21327,-0.18308 -0.48413,-0.41483 -0.40575,-0.34676 -0.21793,-0.18598 -0.21769,-0.1856 -0.32879,-0.28 -0.44053,-0.37446 -0.27699,-0.23506 -0.33332,-0.28255 -0.405,-0.34278 -0.26704,-0.22574 -0.45148,-0.38113 -0.29785,-0.25105 -0.27009,-0.22745 -0.45792,-0.3851 -0.23051,-0.19361 -0.25901,-0.2174 -0.46388,-0.38886 -0.26317,-0.22031 -0.26243,-0.21952 -0.44048,-0.36798 -0.23654,-0.19737 -0.35537,-0.29628 -0.40165,-0.33442 -0.23939,-0.19911 -0.25471,-0.21173 -0.48214,-0.40032 -0.39353,-0.32629 -0.24408,-0.20219 -0.24349,-0.20159 -0.55251,-0.4569 -0.46298,-0.38223 -0.2486,-0.20504 -0.24836,-0.20471 -0.37501,-0.30887 -0.28295,-0.23285 -0.28223,-0.23211 -0.63325,-0.52019 -0.41366,-0.33929 -0.25654,-0.21025 -0.32057,-0.26257 -0.25835,-0.21147 -0.25779,-0.21091 -0.48673,-0.39786 -0.52251,-0.42655 -0.26299,-0.21449 -0.37866,-0.30862 -0.21488,-0.17504 -0.53126,-0.43241 -0.43423,-0.35303 -0.40257,-0.32697 -0.26956,-0.21878 -0.27042,-0.21937 -0.44096,-0.35746 -0.52914,-0.42849 -0.22351,-0.18086 -0.27586,-0.22312 -0.27534,-0.22258 -0.52002,-0.42004 -0.45306,-0.3656 -0.38531,-0.31067 -0.42284,-0.34064 -0.28351,-0.22825 -0.28304,-0.22775 -0.49891,-0.40116 -0.35771,-0.28739 -0.53987,-0.43337 -0.28993,-0.23254 -0.32635,-0.2616 -0.3474,-0.27831 -0.3468,-0.27765 -0.29368,-0.23499 -0.47994,-0.38378 -0.37069,-0.29619 -0.41121,-0.3283 -0.20531,-0.16382 -0.20513,-0.16363 -0.22583,-0.18011 -0.22561,-0.17988 -0.49156,-0.39164 -0.30423,-0.19759 -0.45758,-0.25282 -0.30782,-0.17102 -0.30748,-0.16941 -0.36809,-0.19928 -0.18386,-0.0994 -0.18375,-0.0977 -0.27289,-0.1449 -0.27265,-0.14608 -0.31371,-0.16814 -0.31561,-0.16883 -0.29691,-0.15854 -0.29666,-0.15789 -0.37913,-0.19917 -0.37876,-0.1971 -0.24118,-0.12607 -0.24104,-0.12617 -0.58654,-0.29988 -0.36622,-0.18751 -0.18301,-0.0949 -0.23647,-0.12039 -0.23637,-0.12005 -0.47251,-0.23644 -0.20699,-0.10571 -0.50901,-0.2521 -0.30194,-0.14946 -0.16767,-0.0835 -0.16764,-0.083 -0.40033,-0.19533 -0.38084,-0.1864 -0.38334,-0.18737 -0.38327,-0.18677 -0.25782,-0.12795 -0.4417,-0.21369 -0.36777,-0.17774 -0.18389,-0.0914 -0.2398,-0.11629 -0.23982,-0.11594 -0.25206,-0.12227 -0.25208,-0.12411 -0.41487,-0.19973 -0.20747,-0.1065 -0.46949,-0.22392 -0.53119,-0.24658 -0.26921,-0.12432 -0.27153,-0.12495 -0.27162,-0.12991 -0.36457,-0.17443 -0.36478,-0.17204 -0.18321,-0.088 -0.18326,-0.0878 -0.36972,-0.17397 -0.36998,-0.17852 -0.42032,-0.1987 -0.21029,-0.10377 -0.21039,-0.10007 -0.1945,-0.0943 -0.38929,-0.17868 -0.19479,-0.0963 -0.25001,-0.11866 -0.25018,-0.12056 -0.38369,-0.17955 -0.38412,-0.18164 -0.38665,-0.18244 -0.31638,-0.15238 -0.31672,-0.1529 -0.4175,-0.1958 -0.41814,-0.1961 -0.32255,-0.15558 -0.32295,-0.1553 -0.39922,-0.18688 -0.42828,-0.19557 -0.21442,-0.1044 -0.21462,-0.10384 -0.43327,-0.19613 -0.43412,-0.20067 -0.41206,-0.191 -0.31071,-0.14859 -0.31118,-0.14942 -0.52354,-0.23295 -0.26229,-0.12885 -0.26266,-0.12689 -0.45107,-0.19949 -0.22596,-0.11293 -0.22624,-0.11487 -0.42888,-0.1967 -0.43241,-0.20058 -0.43354,-0.19908 -0.27373,-0.13528 -0.27419,-0.13593 -0.54987,-0.24274 -0.34667,-0.16766 -0.34747,-0.16657 -0.42042,-0.19017 -0.22567,-0.11506 -0.22603,-0.1173 -0.45315,-0.20685 -0.54406,-0.24192 -0.27284,-0.13949 -0.27339,-0.1388 -0.49414,-0.22149 -0.49603,-0.22119 -0.23497,-0.12272 -0.2354,-0.1208 -0.47495,-0.2067 -0.23816,-0.11992 -0.23862,-0.11856 -0.24049,-0.12104 -0.42245,-0.1883 -0.36378,-0.1662 -0.18231,-0.0996 -0.30653,-0.14437 -0.30736,-0.14871 -0.30819,-0.15379 -0.55789,-0.24397 -0.24939,-0.13638 -0.50353,-0.22311 -0.37955,-0.17484 -0.19027,-0.10377 -0.19062,-0.10444 -0.38435,-0.1798 -0.38578,-0.18909 -0.51758,-0.23703 -0.32694,-0.16984 -0.328,-0.17104 -0.65934,-0.28651 -0.26627,-0.14904 -0.46838,-0.21349 -0.20179,-0.12016 -0.41411,-0.19678 -0.41595,-0.20236 -0.37638,-0.19174 -0.37792,-0.19378 -0.32834,-0.17803 -0.59305,-0.2687 -0.29799,-0.16365 -0.29899,-0.16295 -0.42597,-0.21082 -0.42806,-0.21553 -0.3779,-0.19794 -0.37956,-0.19549 -0.38126,-0.19285 -0.38299,-0.1947 -0.31303,-0.17697 -0.3142,-0.18194 -0.47489,-0.23988 -0.47766,-0.24382 -0.43442,-0.23058 -0.43678,-0.22844 -0.27702,-0.16636 -0.4708,-0.23112 -0.19327,-0.13137 -0.44728,-0.22642 -0.44986,-0.23821 -0.43402,-0.24341 -0.43647,-0.24444 -0.35963,-0.2079 -0.50332,-0.2501 -0.41568,-0.21032 -0.2087,-0.131 -0.20928,-0.1375 -0.43201,-0.23327 -0.43453,-0.24437 -0.49027,-0.26334 -0.49358,-0.26026 -0.39194,-0.22173 -0.39407,-0.22097 -0.5154,-0.26103 -0.25909,-0.16521 -0.26004,-0.16981 -0.52461,-0.27809 -0.52855,-0.29114 -0.53381,-0.29526 -0.53793,-0.28944 -0.36136,-0.21311 -0.36328,-0.20346 -0.27436,-0.17002 -0.27547,-0.183 -0.64762,-0.34014 -0.65387,-0.35805 -0.59096,-0.33823 -0.59624,-0.33406 -0.45741,-0.27353 -0.42447,-0.25849 -0.42723,-0.26666 -0.78935,-0.41522 -0.59918,-0.34516 -0.60478,-0.34006 -0.40665,-0.25414 -0.40924,-0.25232 -0.4837,-0.28372 -0.4874,-0.28617 -0.38646,-0.2456 -0.38884,-0.25186 -0.45148,-0.28862 -0.91295,-0.4864 -0.46205,-0.30428 -0.46551,-0.30539 -0.6637,-0.39025 -0.67093,-0.39496 -0.45159,-0.29792 -0.45495,-0.29319 -0.45875,-0.29176 -0.46223,-0.29159 -0.46578,-0.28959 -0.35183,-0.23451 -0.35388,-0.23114 -0.35598,-0.23045 -0.35809,-0.2335 -0.36035,-0.24445 -0.36253,-0.26542 -0.73177,-0.4547 -0.99013,-0.58675 -0.50123,-0.36395 -0.5055,-0.36478 -0.76645,-0.49054 -0.77651,-0.49843 -0.55607,-0.38634 -0.56135,-0.3756 -0.341,-0.26049 -0.34299,-0.26494 -0.57319,-0.39212 -0.57883,-0.41145 -0.71387,-0.48867 -0.72265,-0.49496 -0.49255,-0.37494 -0.49671,-0.3752 -0.86074,-0.56367 -0.43511,-0.34011 -0.43836,-0.33683 -0.44116,-0.3423 -0.44449,-0.36025 -0.89932,-0.62204 -0.66374,-0.51146 -0.67133,-0.51914 -0.87304,-0.62225 -0.44137,-0.375068 -0.44468,-0.36501 -0.57717,-0.435084 -0.58283,-0.45924 -0.58862,-0.496504 -0.59448,-0.508208 -0.6512,-0.523969 -0.65834,-0.518236 -0.65913,-0.51674 -0.33226,-0.324102 -0.33408,-0.334433 -0.67376,-0.558356 -0.68126,-0.584453 -0.61458,-0.551296 -0.62074,-0.550948 -0.62698,-0.548977 -0.63332,-0.553066 -0.71756,-0.613225 -0.72577,-0.624026 -0.73409,-0.623841 -0.37018,-0.38229 -0.3723,-0.387703 -0.59126,-0.549447 -0.59662,-0.57432 -0.60201,-0.596338 -0.60745,-0.629879 -0.86188,-0.849519 -0.87272,-0.902749 -1.05525,-1.041522 -0.53333,-0.660439 -0.5372,-0.660748 -0.71995,-0.830106 -0.72671,-0.89327 -1.09881,-1.196521 -0.55478,-0.788452 -0.55837,-0.791462 -0.74866,-0.969957 -0.7547,-1.012425 -0.68867,-0.966581 -0.69323,-0.935073 -0.34822,-0.59591 -0.34926,-0.522452 -0.17501,-0.320182 -0.17526,-0.285483 -0.1755,-0.275463 -0.17573,-0.273585 -0.16184,-0.260413 -0.16204,-0.260152 -0.16223,-0.261535 -0.1624,-0.263422 -0.16258,-0.265243 -0.16276,-0.267059 -0.16292,-0.268809 -0.16309,-0.270141 -0.16324,-0.271261 -0.16339,-0.272884 -0.16354,-0.274746 -0.16368,-0.275893 -0.16381,-0.276514 -0.16394,-0.277402 -0.16406,-0.278213 -0.16418,-0.278137 -0.15846,-0.272405 -0.15856,-0.272037 -0.15865,-0.272235 -0.15873,-0.211448 -0.15881,-0.06556 -0.15888,-0.06505 -0.31793,-0.128229 -0.15904,-0.0632 -0.15909,-0.06271 -0.15911,-0.06213 -0.15915,-0.06154 -0.15917,-0.06096 -0.15918,-0.06037 -0.15919,-0.05977 -0.15919,-0.05919 -0.17955,-0.06604 -0.17953,-0.06527 -0.17951,-0.0645 -0.17946,-0.06374 -0.17942,-0.06299 -0.17937,-0.06225 -0.17929,-0.06151 -0.17922,-0.06077 -0.17914,-0.06006 -0.17904,-0.05937 -0.17893,-0.05868 -0.17882,-0.05801 -0.1787,-0.05744 -0.35701,-0.113103 -0.33826,-0.104942 -0.15983,-0.04909 -0.31926,-0.09709 -0.15941,-0.04803 -0.31839,-0.09532 -0.35298,-0.104744 -0.38731,-0.114318 -0.38631,-0.113873 -0.19277,-0.05694 -0.38476,-0.114203 -0.38373,-0.115143 -0.38269,-0.116569 -0.38169,-0.118503 -0.38071,-0.120969 -0.33318,-0.108483 -0.33249,-0.110632 -0.66306,-0.22975 -0.49581,-0.180808 -0.49474,-0.187758 -0.51708,-0.205094 -0.37526,-0.154522 -0.28123,-0.118692 -0.28109,-0.121133 -0.28098,-0.12363 -0.28091,-0.126188 -0.18726,-0.08545 -0.18725,-0.08645 -0.18725,-0.08749 -0.18728,-0.08855 -0.14047,-0.06707 -0.14049,-0.0676 -0.14051,-0.06815 -0.14054,-0.06868 -0.16048,-0.07905 -0.16052,-0.07974 -0.16057,-0.0804 -0.16063,-0.06363 -0.1607,0.07828 -0.0804,0.09728 -0.0804,0.09522 -0.16084,0.0725 -0.16093,0.09771 -0.16101,0.101961 -0.1611,0.09906 -0.1612,0.09016 -0.1613,0.06976 -0.0807,0.09956 -0.16146,0.03933 -0.0808,0.08369 -0.13064,0.05555 -0.13072,0.06205 -0.1308,0.06484 -0.13089,0.06754 -0.14986,0.06173 -0.14999,0.06412 -0.1501,0.06265 -0.15023,0.05988 -0.15035,0.05713 -0.15049,0.05453 -0.15062,0.05206 -0.15076,0.04948 -0.1509,0.04682 -0.15104,0.04434 -0.15119,0.03982 -0.15134,0.02875 -0.10098,0.03673 -0.10105,0.02618 -0.10111,0.02486 -0.10119,0.03184 -0.15192,0.02036 -0.15208,0.02683 -0.15225,0.02741 -0.15242,0.02751 -0.16868,0.02218 -0.1689,0.01975 -0.16911,0.008 -0.0847,0.02414 -0.0847,0.0163 -0.11841,0.0093 -0.11852,0.02203 -0.23738,-0.01395 -0.11887,0.02092 -0.11898,0.01 -0.1191,0.0085 -0.11922,0.01801 -0.23881,-0.0086 -0.23929,-0.0074 -0.13765,0.01265 -0.13781,0.0028 -0.13798,0.0021 -0.13816,0.008 -0.27683,-0.02719 -0.13868,0.0064 -0.13887,-0.0015 -0.13904,-0.0044 -0.13923,-0.005 -0.13941,-0.0039 -0.1396,4.75e-4 -0.27977,-0.03039 -0.14023,-5.48e-4 -0.14042,-0.0062 -0.14062,-0.0083 -0.14081,-0.0086 -0.14107,-0.009 -0.14128,-0.0093 -0.14148,-0.0095 -0.14168,-0.0098 -0.1419,-0.01004 -0.14211,-0.01028 -0.14232,-0.01 -0.14254,-0.0089 -0.21422,-0.02194 -0.10729,-0.0046 -0.10742,-0.0048 -0.21522,-0.02042 -0.21573,-0.01951 -0.12638,-0.007 -0.12655,-0.0073 -0.25366,-0.02563 -0.1271,-0.0071 -0.12729,-0.0073 -0.25514,-0.02406 -0.13927,-0.0087 -0.1395,-0.0104 -0.13973,-0.01086 -0.13996,-0.0105 -0.15154,-0.0115 -0.15182,-0.01128 -0.15209,-0.01092 -0.15238,-0.0098 -0.22278,-0.01557 -0.22339,-0.01426 -0.22401,-0.01482 -0.11224,-0.0062 -0.1124,-0.0079 -0.11718,-0.0081 -0.11736,-0.0065 -0.23523,-0.01494 -0.11789,-0.0049 -0.11807,-0.0052 -0.23668,-0.01395 -0.13864,-0.0065 -0.1389,-0.006 -0.27857,-0.01398 -0.15585,-0.006 -0.15617,-0.0065 -0.15651,-0.0063 -0.15684,-0.0057 -0.1735,-0.0066 -0.0869,-0.0032 -0.087,-0.003 -0.17434,-0.0054 -0.17476,-0.0043 -0.17519,-0.0041 -0.17563,-0.004 -0.17606,-0.0034 -0.17652,-0.0024 -0.2371,-0.0032 -0.11886,-0.0016 -0.11907,-0.0028 -0.11928,-0.0026 -0.11948,-0.0011 -0.23961,-0.0012 -0.11051,3.8e-4 -0.11069,4.35e-4 -0.22193,9.55e-4 -0.22269,0.002 -0.22345,0.0018 -0.13229,7.98e-4 -0.13257,0.0013 -0.26596,0.0043 -0.13339,0.0033 -0.13368,0.0038 -0.26821,0.0072 -0.15138,0.0044 -0.15174,0.0037 -0.15212,0.0037 -0.1525,0.0043 -0.15288,0.0058 -0.15326,0.0078 -0.30769,0.01507 -0.15651,0.0081 -0.15691,0.007 -0.15733,0.007 -0.15775,0.0078 -0.18458,0.01023 -0.18516,0.01115 -0.18576,0.01153 -0.18635,0.01151 -0.15821,0.01029 -0.15866,0.01163 -0.31864,0.024 -0.16,0.01272 -0.16046,0.01386 -0.32231,0.02839 -0.21046,0.01836 -0.10553,0.0066 -0.10573,0.0054 -0.2121,0.01794 -0.21292,0.02295 -0.21377,0.02472 -0.21464,0.02366 -0.2155,0.02342 -0.43368,0.04839 -0.43732,0.05123 -0.56562,0.07029 -0.82102,0.110489 -0.47763,0.06861 -0.83921,0.128727 -0.62494,0.102639 -0.84647,0.147824 -0.64524,0.11915 -0.87498,0.169952 -0.50207,0.101917 -0.56818,0.119927 -0.81043,0.178761 -0.41111,0.09397 -0.71437,0.167887 -0.97231,0.238738 -1.24962,0.323933 -0.83588,0.227057 -0.33949,0.0943 -0.57096,0.161251 -1.01929,0.296455 -1.13862,0.343867 -0.60728,0.188621 -1.49444,0.478667 -0.616,0.203258 -0.94517,0.31707 -1.13165,0.389097 -0.83079,0.292111 -1.04827,0.375634 -1.16617,0.426822 -0.79717,0.296917 -0.81773,0.308665 -1.61271,0.621523 -1.00449,0.395619 -1.09176,0.436388 -1.80057,0.734159 -0.84528,0.350448 -0.87053,0.364421 -0.59526,0.251622 -1.4364,0.614691 -2.30186,1.005487 -1.168149,0.519354 -2.054996,0.926246 -2.020741,0.927481 -1.07083,0.497493 -1.788275,0.839272 -2.896132,1.381693 -2.61626,1.270759 -1.792493,0.881345 -4.124982,2.057764 -2.632212,1.334247 -3.593004,1.843514 -3.470507,1.803564 -4.975777,2.619187 -2.955692,1.573164 -5.843304,3.13881 -7.341657,3.99177 -16.146599,8.89749 -13.835671,7.7372 -13.48403,7.59927 -11.845385,6.70771 -12.604107,7.15807 -11.042054,6.28359 -12.910822,7.35679 -11.551351,6.58861 -14.615122,8.34155 -14.609506,8.34244 -14.605968,8.34294 -14.603734,8.34322 -14.60233,8.34321 -14.60142,8.34304 -14.60082,8.34137 z"
       style="fill:#006ba4;fill-opacity:0.15;stroke:#006ba4;stroke-linecap:butt;stroke-linejoin:round;stroke-opacity:0.15"
       id="path3" />
  </g>
  <g
     id="line2d_1"
     style="stroke-linecap:butt;stroke-linejoin:round">
    <path
       clip-path="url(#p7230c20211-6)"
       d="m 33.72568,109.14895 23.488256,-12.88926 13.774773,-7.331161 9.695723,-4.981325 11.429867,-5.591561 8.102991,-3.709846 7.8499,-3.320828 6.49003,-2.485934 6.06632,-2.055837 4.51152,-1.311554 4.72602,-1.12322 4.33291,-0.770209 4.01546,-0.473741 3.92928,-0.233822 3.76355,-0.0042 4.01969,0.206446 6.23966,0.365988 3.4066,-0.412417 1.35568,-0.466693 1.30714,-0.668171 1.28718,-0.840537 1.60536,-1.253076 0.46817,-0.376221 2.23038,-1.56068 0.49581,-0.284759 0.66306,-0.03838 0.66567,-0.294623 1.14509,0.103747 0.96126,0.346857 1.44499,1.107567 0.97676,1.044053 1.0725,1.366969 1.77368,2.640604 2.71219,4.511926 3.68044,6.038549 3.99841,5.46395 2.54547,2.919897 1.07053,1.321187 7.38953,7.161634 10.43236,8.816911 3.99308,2.97744 2.72347,1.99075 10.8042,7.27319 9.68617,5.89298 2.09846,1.2139 15.31318,8.45498 13.65844,6.77934 4.61865,2.16778 2.66405,1.27071 10.95194,5.14902 11.37623,5.52403 5.76988,3.0699 9.04265,5.22504 5.83716,3.63871 6.11391,4.13171 5.35624,3.93105 3.2544,2.6569 3.04634,2.73857 2.88315,2.88414 1.76341,2.05636 1.72499,2.41737 1.38614,2.40179 0.96955,2.0866 1.00752,2.69626 0.68371,2.36808 0.94378,4.4331 0.30885,1.98806 0.45796,3.85784 0.30156,3.37419 0.39137,6.20048 0.45874,-36.84485 0.2568,8.27918 0.21827,32.6258 m 34.20512,0 0.006,-118.554192 v 0"
       style="fill:none;stroke:#ff800e;stroke-width:1.5;stroke-linecap:square;stroke-linejoin:round"
       id="path5" />
  </g>
</svg>
