<?xml version="1.0" encoding="UTF-8" standalone="no"?>
<!-- Created with matplotlib (https://matplotlib.org/) -->

<svg
   height="213.997566pt"
   version="1.1"
   viewBox="0 0 401.669588 213.997566"
   width="401.669588pt"
   id="svg117"
   sodipodi:docname="S.svg"
   inkscape:version="1.4 (e7c3feb100, 2024-10-09)"
   xmlns:inkscape="http://www.inkscape.org/namespaces/inkscape"
   xmlns:sodipodi="http://sodipodi.sourceforge.net/DTD/sodipodi-0.dtd"
   xmlns="http://www.w3.org/2000/svg"
   xmlns:svg="http://www.w3.org/2000/svg"
   xmlns:rdf="http://www.w3.org/1999/02/22-rdf-syntax-ns#"
   xmlns:cc="http://creativecommons.org/ns#"
   xmlns:dc="http://purl.org/dc/elements/1.1/">
  <sodipodi:namedview
     id="namedview117"
     pagecolor="#ffffff"
     bordercolor="#999999"
     borderopacity="1"
     inkscape:showpageshadow="0"
     inkscape:pageopacity="0"
     inkscape:pagecheckerboard="0"
     inkscape:deskcolor="#d1d1d1"
     inkscape:document-units="pt"
     inkscape:zoom="1.7780612"
     inkscape:cx="285.98566"
     inkscape:cy="215.40316"
     inkscape:window-width="2048"
     inkscape:window-height="1117"
     inkscape:window-x="0"
     inkscape:window-y="35"
     inkscape:window-maximized="1"
     inkscape:current-layer="figure_1" />
  <metadata
     id="metadata1">
    <rdf:RDF>
      <cc:Work>
        <dc:type
           rdf:resource="http://purl.org/dc/dcmitype/StillImage" />
        <dc:date>2021-08-28T11:14:05.448004</dc:date>
        <dc:format>image/svg+xml</dc:format>
        <dc:creator>
          <cc:Agent>
            <dc:title>Matplotlib v3.3.3, https://matplotlib.org/</dc:title>
          </cc:Agent>
        </dc:creator>
      </cc:Work>
    </rdf:RDF>
  </metadata>
  <defs
     id="defs1">
    <style
       type="text/css"
       id="style1">*{stroke-linecap:butt;stroke-linejoin:round;}</style>
    <clipPath
       id="p7230c20211-6">
      <rect
         height="166.32001"
         width="334.79999"
         x="48.323212"
         y="10.659249"
         id="rect117-7" />
    </clipPath>
    <clipPath
       id="clipPath1">
      <rect
         height="166.32001"
         width="334.79999"
         x="48.323212"
         y="10.659249"
         id="rect1" />
    </clipPath>
  </defs>
  <g
     id="figure_1">
    <g
       id="PolyCollection_2"
       style="stroke-linecap:butt;stroke-linejoin:round">
      <path
         clip-path="url(#p7230c20211-6)"
         d="m -155.78664,-124.71815 v 52.217399 h 14.60082 14.60142 14.60233 14.603734 14.605968 14.609506 14.615122 11.551351 12.910822 11.042054 12.604107 11.845385 13.48403 13.835671 16.146599 7.341657 5.843304 2.955692 4.975777 3.470507 3.593004 2.632212 4.124982 1.792493 2.61626 2.896132 1.788275 1.07083 2.020741 2.054996 1.168149 2.30186 1.4364 0.59526 0.87053 0.84528 1.80057 1.09176 1.00449 1.61271 0.81773 0.79717 1.16617 1.04827 0.83079 1.13165 0.94517 0.616 1.49444 0.60728 1.13862 1.01929 0.57096 0.33949 0.83588 1.24962 0.97231 0.71437 0.41111 0.81043 0.56818 0.50207 0.87498 0.64524 0.84647 0.62494 0.83921 0.47763 0.82102 0.56562 0.43732 0.43368 0.2155 0.21464 0.21377 0.21292 0.2121 0.10573 0.10553 0.21046 0.32231 0.16046 0.16 0.31864 0.15866 0.15821 0.18635 0.18576 0.18516 0.18458 0.15775 0.15733 0.15691 0.15651 0.30769 0.15326 0.15288 0.1525 0.15212 0.15174 0.15138 0.26821 0.13368 0.13339 0.26596 0.13257 0.13229 0.22345 0.22269 0.22193 0.11069 0.11051 0.23961 0.11948 0.11928 0.11907 0.11886 0.2371 0.17652 0.17606 0.17563 0.17519 0.17476 0.17434 0.087 0.0869 0.1735 0.15684 0.15651 0.15617 0.15585 0.27857 0.1389 0.13864 0.23668 0.11807 0.11789 0.23523 0.11736 0.11718 0.1124 0.11224 0.22401 0.22339 0.22278 0.15238 0.15209 0.15182 0.15154 0.13996 0.13973 0.1395 0.13927 0.25514 0.12729 0.1271 0.25366 0.12655 0.12638 0.21573 0.21522 0.10742 0.10729 0.21422 0.14254 0.14232 0.14211 0.1419 0.14168 0.14148 0.14128 0.14107 0.14081 0.14062 0.14042 0.14023 0.27977 0.1396 0.13941 0.13923 0.13904 0.13887 0.13868 0.27683 0.13816 0.13798 0.13781 0.13765 0.23929 0.23881 0.11922 0.1191 0.11898 0.11887 0.23738 0.11852 0.11841 0.0847 0.0847 0.16911 0.1689 0.16868 0.15242 0.15225 0.15208 0.15192 0.10119 0.10111 0.10105 0.10098 0.15134 0.15119 0.15104 0.1509 0.15076 0.15062 0.15049 0.15035 0.15023 0.1501 0.14999 0.14986 0.13089 0.1308 0.13072 0.13064 0.0808 0.16146 0.0807 0.1613 0.1612 0.1611 0.16101 0.16093 0.16084 0.0804 0.0804 0.1607 0.16063 0.16057 0.16052 0.16048 0.14054 0.14051 0.14049 0.14047 0.18728 0.18725 0.18725 0.18726 0.28091 0.28098 0.28109 0.28123 0.37526 0.51708 0.49474 0.49581 0.66306 0.33249 0.33318 0.38071 0.38169 0.38269 0.38373 0.38476 0.19277 0.38631 0.38731 0.35298 0.31839 0.15941 0.31926 0.15983 0.33826 0.35701 0.1787 0.17882 0.17893 0.17904 0.17914 0.17922 0.17929 0.17937 0.17942 0.17946 0.17951 0.17953 0.17955 0.15919 0.15919 0.15918 0.15917 0.15915 0.15911 0.15909 0.15904 0.31793 0.15888 0.15881 0.15873 0.15865 0.15856 0.15846 0.16418 0.16406 0.16394 0.16381 0.16368 0.16354 0.16339 0.16324 0.16309 0.16292 0.16276 0.16258 0.1624 0.16223 0.16204 0.16184 0.17573 0.1755 0.17526 0.17501 0.34926 0.34822 0.69323 0.68867 0.7547 0.74866 0.55837 0.55478 1.09881 0.72671 0.71995 0.5372 0.53333 1.05525 0.87272 0.86188 0.60745 0.60201 0.59662 0.59126 0.3723 0.37018 0.73409 0.72577 0.71756 0.63332 0.62698 0.62074 0.61458 0.68126 0.67376 0.33408 0.33226 0.65913 0.65834 0.6512 0.59448 0.58862 0.58283 0.57717 0.44468 0.44137 0.87304 0.67133 0.66374 0.89932 0.44449 0.44116 0.43836 0.43511 0.86074 0.49671 0.49255 0.72265 0.71387 0.57883 0.57319 0.34299 0.341 0.56135 0.55607 0.77651 0.76645 0.5055 0.50123 0.99013 0.73177 0.36253 0.36035 0.35809 0.35598 0.35388 0.35183 0.46578 0.46223 0.45875 0.45495 0.45159 0.67093 0.6637 0.46551 0.46205 0.91295 0.45148 0.38884 0.38646 0.4874 0.4837 0.40924 0.40665 0.60478 0.59918 0.78935 0.42723 0.42447 0.45741 0.59624 0.59096 0.65387 0.64762 0.27547 0.27436 0.36328 0.36136 0.53793 0.53381 0.52855 0.52461 0.26004 0.25909 0.5154 0.39407 0.39194 0.49358 0.49027 0.43453 0.43201 0.20928 0.2087 0.41568 0.50332 0.35963 0.43647 0.43402 0.44986 0.44728 0.19327 0.4708 0.27702 0.43678 0.43442 0.47766 0.47489 0.3142 0.31303 0.38299 0.38126 0.37956 0.3779 0.42806 0.42597 0.29899 0.29799 0.59305 0.32834 0.37792 0.37638 0.41595 0.41411 0.20179 0.46838 0.26627 0.65934 0.328 0.32694 0.51758 0.38578 0.38435 0.19062 0.19027 0.37955 0.50353 0.24939 0.55789 0.30819 0.30736 0.30653 0.18231 0.36378 0.42245 0.24049 0.23862 0.23816 0.47495 0.2354 0.23497 0.49603 0.49414 0.27339 0.27284 0.54406 0.45315 0.22603 0.22567 0.42042 0.34747 0.34667 0.54987 0.27419 0.27373 0.43354 0.43241 0.42888 0.22624 0.22596 0.45107 0.26266 0.26229 0.52354 0.31118 0.31071 0.41206 0.43412 0.43327 0.21462 0.21442 0.42828 0.39922 0.32295 0.32255 0.41814 0.4175 0.31672 0.31638 0.38665 0.38412 0.38369 0.25018 0.25001 0.19479 0.38929 0.1945 0.21039 0.21029 0.42032 0.36998 0.36972 0.18326 0.18321 0.36478 0.36457 0.27162 0.27153 0.26921 0.53119 0.46949 0.20747 0.41487 0.25208 0.25206 0.23982 0.2398 0.18389 0.36777 0.4417 0.25782 0.38327 0.38334 0.38084 0.40033 0.16764 0.16767 0.30194 0.50901 0.20699 0.47251 0.23637 0.23647 0.18301 0.36622 0.58654 0.24104 0.24118 0.37876 0.37913 0.29666 0.29691 0.31561 0.31371 0.27265 0.27289 0.18375 0.18386 0.36809 0.30748 0.30782 0.45758 0.30423 0.49156 0.22561 0.22583 0.20513 0.20531 0.41121 0.37069 0.47994 0.29368 0.3468 0.3474 0.32635 0.28993 0.53987 0.35771 0.49891 0.28304 0.28351 0.42284 0.38531 0.45306 0.52002 0.27534 0.27586 0.22351 0.52914 0.44096 0.27042 0.26956 0.40257 0.43423 0.53126 0.21488 0.37866 0.26299 0.52251 0.48673 0.25779 0.25835 0.32057 0.25654 0.41366 0.63325 0.28223 0.28295 0.37501 0.24836 0.2486 0.46298 0.55251 0.24349 0.24408 0.39353 0.48214 0.25471 0.23939 0.40165 0.35537 0.23654 0.44048 0.26243 0.26317 0.46388 0.25901 0.23051 0.45792 0.27009 0.29785 0.45148 0.26704 0.405 0.33332 0.27699 0.44053 0.32879 0.21769 0.21793 0.40575 0.48413 0.21327 0.21384 0.23842 0.42282 0.21084 0.30092 0.53373 0.29698 0.32133 0.40911 0.16593 0.18978 0.40401 0.47626 0.24921 0.39636 0.27123 0.19578 0.39045 0.26718 0.38589 0.19163 0.27474 0.1905 0.31939 0.3998 0.18705 0.3721 0.36942 0.2527 0.18234 0.43145 0.22563 0.17966 0.3127 0.22227 0.35328 0.35059 0.21791 0.30289 0.51475 0.23413 0.16886 0.16899 0.39757 0.33186 0.32912 0.14282 0.20372 0.32339 0.14042 0.2199 0.41603 0.37238 0.15537 0.15491 0.15394 0.30597 0.15199 0.30156 0.39137 0.16588 0.14693 0.14593 0.2568 0.21824 0.2881 0.28493 0.1414 0.1404 0.27874 0.29282 0.18802 0.1353 0.15197 0.31714 0.13252 0.1316 0.26134 0.2586 0.12839 0.25457 0.25193 0.18708 0.12433 0.12307 0.13828 0.18283 0.16614 0.23992 0.31146 0.16117 0.11697 0.11579 0.13012 0.17208 0.1564 0.11352 0.23869 0.26376 0.1103 0.10956 0.10923 0.17608 0.22836 0.21277 0.22386 0.10454 0.10404 0.10354 0.25662 0.15265 0.1011 0.10063 0.24941 0.14839 0.0983 0.0978 0.24249 0.14428 0.0956 0.0951 0.18894 0.1872 0.093 0.18463 0.18296 0.13603 0.0906 0.17924 0.17761 0.13192 0.0876 0.17405 0.17249 0.0857 0.0853 0.16943 0.16792 0.0834 0.083 0.16496 0.16351 0.0812 0.16136 0.17994 0.0792 0.15769 0.0829 0.14149 0.10617 0.15699 0.1115 0.10309 0.1083 0.11902 0.12741 0.099 0.1034 0.18155 0.0868 0.1041 0.11696 0.14697 0.0701 0.10776 0.0923 0.11225 0.0856 0.11898 0.0852 0.10919 0.0919 0.0833 0.0909 0.0494 0.0861 0.1506 0.12898 0.12791 0.12686 0.12582 0.12478 0.12376 0.12275 0.12175 0.12075 0.11976 0.1188 0.11783 0.11687 0.11593 0.115 0.11406 0.11315 0.11224 0.11134 0.11044 0.10956 0.10869 0.10782 0.10696 0.10611 0.10526 0.10443 0.1036 0.10278 0.10197 0.10117 0.10036 0.0996 0.0988 0.098 0.0973 0.0965 0.0957 0.095 0.0942 0.0935 0.0928 0.0921 0.0913 0.0906 0.0899 0.0892 0.0885 0.0878 0.0872 0.0865 0.0858 0.0852 0.0845 0.0839 0.0832 0.0826 0.082 0.0813 0.0807 0.0801 0.0795 0.0788 0.0783 0.0777 0.0771 0.0765 0.0759 0.0753 0.0747 0.0742 0.0736 0.0366 0.0365 0.0725 0.0719 0.0714 0.0709 0.0703 0.0698 0.0693 0.0687 0.0682 0.0677 0.0672 0.0667 0.0662 0.0657 0.0652 0.0647 0.0642 0.0637 0.0632 0.0628 0.0623 0.0618 0.0614 0.0609 0.0604 0.06 0.0595 0.0591 0.0586 0.0582 0.0578 0.0573 0.0569 0.0565 0.056 0.0556 0.0552 0.0548 0.0544 0.054 0.0536 0.0532 0.0528 0.0524 0.052 0.0516 0.0512 0.0508 0.0505 0.0501 0.0497 0.0493 0.049 0.0486 0.0483 0.0479 0.0475 0.0472 0.0468 0.0465 0.0461 0.0458 0.0455 0.0451 0.0448 0.0445 0.0441 0.0438 0.0435 0.0432 0.0428 0.0425 0.0422 0.0419 0.0416 0.0413 0.041 0.0407 0.0404 0.0401 0.0398 0.0395 0.0392 0.0389 0.0386 0.0383 0.038 0.0377 0.0375 0.0372 0.0369 0.0367 0.0364 0.0361 0.0358 0.0356 0.0353 0.0351 0.0348 0.0346 0.0343 0.0341 0.0338 0.0335 0.0333 0.0331 0.0328 0.0326 0.0323 0.0321 0.0319 0.0316 0.0314 0.0312 0.031 0.0307 0.0305 0.0303 0.03 0.0298 0.0296 0.0294 0.0292 0.029 0.0288 0.0286 0.0283 0.0281 0.0279 0.0277 0.0275 0.0273 0.0271 0.0269 0.0267 0.0266 0.0263 0.0262 0.026 0.0258 0.0256 0.0254 0.0252 0.0251 0.0249 0.0247 0.0245 0.0243 0.0242 0.024 0.0238 0.0236 0.0235 0.0233 0.0231 0.023 0.0228 0.0226 0.0225 0.0223 0.0222 0.022 0.0219 0.0217 0.0215 0.0214 0.0212 0.0211 0.0209 0.0208 0.0206 0.0205 0.0204 0.0202 0.0201 0.0199 0.0198 0.0196 0.0195 0.0194 0.0192 0.0191 0.019 0.0188 0.0187 0.0186 0.0184 0.0183 0.0182 0.0181 0.0179 0.0178 0.0177 0.0176 0.0174 0.0173 0.0172 0.0171 0.017 0.0169 0.0167 0.0166 0.0165 0.0164 0.0163 0.0162 0.0161 0.016 0.0159 0.0157 0.0156 0.0155 0.0154 0.0153 0.0152 0.0151 0.015 0.0149 0.0148 0.0147 0.0146 0.0145 0.0144 0.0143 0.0142 0.0141 0.014 0.0139 0.0139 0.0138 0.0137 0.0136 0.0135 0.0134 0.0133 0.0132 0.0131 0.0131 0.013 0.0129 0.0128 0.0127 0.0126 0.0125 0.0125 0.0124 0.0123 0.0122 0.0121 0.012 0.012 0.0119 0.0118 0.0117 0.0117 0.0116 0.0115 0.0114 0.0114 0.0113 0.0112 0.0111 0.0111 0.011 0.0109 0.0109 0.0108 0.0107 0.0106 0.0106 0.0105 0.0104 0.0104 0.0103 0.0102 0.0102 0.0101 0.01 0.01 0.01 0.01 0.01 0.01 0.01 0.01 0.01 0.009 0.009 0.009 0.009 0.009 0.009 0.009 0.009 0.009 0.009 0.009 0.009 0.009 0.009 0.009 0.009 0.008 0.008 0.008 0.008 0.008 0.008 0.008 0.008 0.008 0.008 0.008 0.008 0.008 0.008 0.008 0.008 0.008 0.008 0.007 0.007 0.007 0.007 0.007 0.007 0.007 0.007 0.007 0.007 0.007 0.007 0.007 0.007 0.007 0.007 0.007 0.007 0.007 0.007 0.007 0.007 0.006 0.006 0.006 0.006 0.006 0.006 0.006 0.006 0.006 0.006 0.006 0.006 0.006 0.006 0.006 0.006 0.006 0.006 0.006 0.006 0.006 0.006 0.006 0.006 0.006 0.006 0.005 0.005 0.005 0.005 0.005 0.005 0.005 0.005 0.005 0.005 0.005 0.005 0.005 0.005 0.005 0.005 0.005 0.005 0.005 0.005 0.005 0.005 0.005 0.005 0.005 0.005 0.005 0.005 0.005 0.005 0.005 0.005 0.005 0.005 0.004 0.004 0.004 0.004 0.004 0.004 0.004 0.004 0.004 0.004 0.004 0.004 0.004 0.004 0.004 0.004 0.004 0.004 0.004 0.004 0.004 0.004 0.004 0.004 0.004 0.004 0.004 0.004 0.004 0.004 0.004 0.004 0.004 0.004 0.004 0.004 0.004 0.004 0.004 0.004 0.004 0.004 0.004 0.004 0.004 0.004 0.004 0.004 0.003 0.003 0.003 0.003 0.003 0.003 0.003 0.003 0.003 0.003 0.003 0.003 0.003 0.003 0.003 0.003 0.003 0.003 0.003 0.003 0.003 0.003 0.003 0.003 0.003 0.003 0.003 0.003 0.003 0.003 0.003 0.003 0.003 0.003 0.003 0.003 0.003 0.003 0.003 0.003 0.003 0.003 0.003 0.003 0.003 0.003 0.003 0.003 0.003 0.003 0.003 0.003 0.003 0.003 0.003 0.003 0.003 0.003 0.003 0.003 0.003 0.003 0.003 0.003 0.003 0.003 0.003 0.003 0.003 0.003 0.003 0.003 0.003 0.003 0.003 0.003 0.003 0.003 0.002 0.002 0.002 0.002 0.002 0.002 0.002 0.002 0.002 0.002 0.002 0.002 0.002 0.002 0.002 0.002 0.002 0.002 0.002 0.002 0.002 0.002 0.002 0.002 0.002 0.002 0.002 0.002 0.002 0.002 0.002 0.002 0.002 0.002 0.002 0.002 0.002 0.002 0.002 0.002 0.002 0.002 0.002 0.002 0.002 0.002 0.002 0.002 0.002 0.002 0.002 0.002 0.002 0.002 0.002 0.002 0.002 0.002 0.002 0.002 0.002 0.002 0.002 0.002 0.002 0.002 0.002 0.002 0.002 0.002 0.002 0.002 0.003 0.002 0.002 0.002 0.002 10e-4 0.002 0.002 0.002 0.003 0.002 10e-4 0.003 0.002 0.001 0.002 0.001 0.002 10e-4 0.002 0.002 10e-4 0.002 0.002 0.002 0.002 0.001 0.002 0.002 0.002 7.7e-4 0.002 0.002 0.002 0.002 10e-4 0.001 0.002 9.2e-4 0.002 0.002 0.001 0.002 0.001 10e-4 0.002 0.002 10e-4 0.002 0.002 10e-4 0.001 0.002 0.002 0.001 0.002 10e-4 0.001 0.002 0.002 0.001 10e-4 10e-4 0.002 0.001 10e-4 0.002 10e-4 0.001 10e-4 0.002 10e-4 0.001 10e-4 0.002 10e-4 0.001 10e-4 0.002 0.001 10e-4 10e-4 0.002 0.001 10e-4 10e-4 0.002 0.002 0.001 10e-4 10e-4 0.001 10e-4 0.001 0.002 0.002 0.001 6.7e-4 0.001 0.002 10e-4 0.001 0.002 0.002 0.001 7.2e-4 7.2e-4 10e-4 10e-4 0.001 7.4e-4 7.5e-4 0.002 0.002 0.002 7.7e-4 7.9e-4 0.002 0.002 8e-4 0.002 8.3e-4 8.2e-4 8.4e-4 0.002 8.4e-4 8.4e-4 8.6e-4 0.002 8.9e-4 9e-4 9e-4 0.002 9.1e-4 9.2e-4 9.3e-4 0.002 9.7e-4 9.4e-4 9.6e-4 9.8e-4 9.8e-4 0.001 10e-4 10e-4 0.001 10e-4 0.001 10e-4 0.001 10e-4 10e-4 0.001 10e-4 0.001 10e-4 10e-4 5.9e-4 5.9e-4 10e-4 0.001 10e-4 10e-4 6.1e-4 6.3e-4 10e-4 10e-4 6.5e-4 6.6e-4 10e-4 6.8e-4 6.9e-4 10e-4 7.1e-4 7.2e-4 7e-4 10e-4 7.3e-4 7.3e-4 7.4e-4 7.5e-4 7.6e-4 7.7e-4 7.7e-4 7.9e-4 8e-4 8.1e-4 8.1e-4 8.3e-4 8.4e-4 8.2e-4 8.4e-4 8.4e-4 8.6e-4 8.6e-4 8.8e-4 9e-4 4.5e-4 4.5e-4 9.2e-4 9.4e-4 9.5e-4 4.8e-4 9.7e-4 4.9e-4 10e-4 0.001 5.2e-4 5.1e-4 5.1e-4 5e-4 0.001 10e-4 5.3e-4 5.4e-4 5.4e-4 5.4e-4 0.001 5.6e-4 5.7e-4 5.7e-4 5.8e-4 5.9e-4 5.9e-4 10e-4 6.1e-4 6.2e-4 6.2e-4 6.3e-4 6.4e-4 6.4e-4 6.5e-4 6.6e-4 6.6e-4 6.7e-4 6.9e-4 6.9e-4 6.7e-4 6.9e-4 7e-4 3.5e-4 7.1e-4 7.1e-4 3.6e-4 7.3e-4 7.4e-4 7.5e-4 3.8e-4 3.8e-4 7.7e-4 3.9e-4 3.9e-4 7.9e-4 4e-4 4e-4 8.1e-4 4.1e-4 4.1e-4 8.2e-4 4.2e-4 4.1e-4 4.2e-4 8.5e-4 4.3e-4 4.3e-4 4.3e-4 4.4e-4 4.4e-4 4.4e-4 4.4e-4 4.4e-4 4.5e-4 4.5e-4 4.4e-4 4.5e-4 2.3e-4 2.2e-4 4.6e-4 4.5e-4 2.3e-4 2.2e-4 2.3e-4 2.3e-4 2.3e-4 4.5e-4 2.3e-4 2.3e-4 2.3e-4 2.3e-4 2.3e-4 1.1e-4 1.2e-4 2.2e-4 2.3e-4 2.3e-4 3.5e-4 1.7e-4 1.7e-4 1.2e-4 1.1e-4 2.2e-4 2.2e-4 2.2e-4 2.2e-4 1.1e-4 1.1e-4 2.2e-4 3.4e-4 2.2e-4 3.4e-4 2.3e-4 2.2e-4 2.3e-4 2.9e-4 3.2e-4 5.6e-4 2.9e-4 3e-4 5.2e-4 2.1e-4 1.8e-4 3.1e-4 5.1e-4 4.8e-4 4.2e-4 2.3e-4 2.5e-4 10e-5 8e-5 5e-5 2e-5 0.002 0.004 0.007 0.007 0.009 0.0143 0.0158 0.008 0.007 0.006 0.006 0.005 0.005 0.004 0.004 0.004 0.004 0.003 0.003 0.003 0.003 0.003 0.003 0.003 0.003 0.003 0.002 0.002 0.002 0.002 0.002 0.002 0.002 0.002 10e-4 4.4e-4 5e-5 v 150.435158 0 l -5e-5,1.84e-4 -4.4e-4,0.0016 -10e-4,0.0032 -0.002,6.04e-4 -0.002,-0.0028 -0.002,-0.0061 -0.002,-0.009 -0.002,-0.01128 -0.002,-0.01318 -0.002,-0.01477 -0.002,-0.0157 -0.003,-0.016 -0.003,-0.01623 -0.003,-0.01642 -0.003,-0.01697 -0.003,-0.01686 -0.003,-0.01649 -0.003,-0.01601 -0.003,-0.01512 -0.003,-0.0138 -0.004,-0.01238 -0.004,-0.01025 -0.004,-0.0073 -0.004,-0.0034 -0.005,0.0022 -0.005,0.01197 -0.006,0.02607 -0.006,0.05077 -0.007,0.0991 -0.008,0.205923 -0.0158,0.687451 -0.0143,1.557258 -0.009,2.186603 -0.007,3.151263 -0.007,5.065522 -0.004,5.709376 -0.002,4.376279 -2e-5,0.0651 -5e-5,0.14732 -8e-5,0.24976 -10e-5,0.3424 -2.5e-4,0.83285 -2.3e-4,0.85013 -4.2e-4,1.77834 -4.8e-4,2.46885 -5.1e-4,3.35578 -3.1e-4,2.66814 -1.8e-4,1.92193 -2.1e-4,2.68632 -5.2e-4,9.71832 -3e-4,10.8197 -2.9e-4,39.2505 -5.6e-4,155.40077 -3.2e-4,-0.10281 -2.9e-4,-0.0946 -2.3e-4,-0.0766 -2.2e-4,-0.0775 -2.3e-4,-0.0782 -3.4e-4,-0.11926 -2.2e-4,-0.0806 -3.4e-4,-0.12257 -2.2e-4,-0.0833 -1.1e-4,-0.0418 -1.1e-4,-0.0418 -2.2e-4,-0.0841 -2.2e-4,-0.0849 -2.2e-4,-0.0852 -2.2e-4,-0.0854 -1.1e-4,-0.045 -1.2e-4,-0.0446 -1.7e-4,-0.0664 -1.7e-4,-0.0653 -3.5e-4,-0.12663 -2.3e-4,-0.0808 -2.3e-4,-0.077 -2.2e-4,-0.0731 -1.2e-4,-0.0349 -1.1e-4,-0.0337 -2.3e-4,-0.064 -2.3e-4,-0.0593 -2.3e-4,-0.0546 -2.3e-4,-0.0501 -2.3e-4,-0.0459 -4.5e-4,-0.0802 -2.3e-4,-0.0351 -2.3e-4,-0.0324 -2.3e-4,-0.03 -2.2e-4,-0.0278 -2.3e-4,-0.026 -4.5e-4,-0.0477 -4.6e-4,-0.0438 -2.2e-4,-0.0212 -2.3e-4,-0.0211 -4.5e-4,-0.0424 -4.4e-4,-0.0431 -4.5e-4,-0.0442 -4.5e-4,-0.0458 -4.4e-4,-0.0471 -4.4e-4,-0.0484 -4.4e-4,-0.0497 -4.4e-4,-0.051 -4.4e-4,-0.0522 -4.3e-4,-0.0533 -4.3e-4,-0.0543 -4.3e-4,-0.0554 -8.5e-4,-0.11238 -4.2e-4,-0.0567 -4.1e-4,-0.0572 -4.2e-4,-0.0576 -8.2e-4,-0.11497 -4.1e-4,-0.058 -4.1e-4,-0.0583 -8.1e-4,-0.11565 -4e-4,-0.0572 -4e-4,-0.0573 -7.9e-4,-0.11317 -3.9e-4,-0.0558 -3.9e-4,-0.0557 -7.7e-4,-0.10981 -3.8e-4,-0.054 -3.8e-4,-0.0539 -7.5e-4,-0.10634 -7.4e-4,-0.10405 -7.3e-4,-0.1018 -3.6e-4,-0.0503 -7.1e-4,-0.0995 -7.1e-4,-0.0969 -3.5e-4,-0.0479 -7e-4,-0.0946 -6.9e-4,-0.0925 -6.7e-4,-0.0907 -6.9e-4,-0.0914 -6.9e-4,-0.0895 -6.7e-4,-0.0877 -6.6e-4,-0.0859 -6.6e-4,-0.0842 -6.5e-4,-0.0825 -6.4e-4,-0.0809 -6.4e-4,-0.0793 -6.3e-4,-0.0778 -6.2e-4,-0.0763 -6.2e-4,-0.0749 -6.1e-4,-0.0737 -10e-4,-0.14311 -5.9e-4,-0.0694 -5.9e-4,-0.0685 -5.8e-4,-0.0673 -5.7e-4,-0.0661 -5.7e-4,-0.065 -5.6e-4,-0.0641 -0.001,-0.12489 -5.4e-4,-0.0608 -5.4e-4,-0.06 -5.4e-4,-0.0591 -5.3e-4,-0.0583 -10e-4,-0.11418 -0.001,-0.11019 -5e-4,-0.054 -5.1e-4,-0.0533 -5.1e-4,-0.0545 -5.2e-4,-0.0538 -0.001,-0.10549 -10e-4,-0.10202 -4.9e-4,-0.0501 -9.7e-4,-0.0983 -4.8e-4,-0.0482 -9.5e-4,-0.0947 -9.4e-4,-0.0921 -9.2e-4,-0.0897 -4.5e-4,-0.0441 -4.5e-4,-0.0437 -9e-4,-0.0859 -8.8e-4,-0.0837 -8.6e-4,-0.0819 -8.6e-4,-0.0801 -8.4e-4,-0.0784 -8.4e-4,-0.0767 -8.2e-4,-0.0751 -8.4e-4,-0.0763 -8.3e-4,-0.0747 -8.1e-4,-0.0732 -8.1e-4,-0.0717 -8e-4,-0.0703 -7.9e-4,-0.0689 -7.7e-4,-0.0676 -7.7e-4,-0.0664 -7.6e-4,-0.0651 -7.5e-4,-0.064 -7.4e-4,-0.0628 -7.3e-4,-0.0617 -7.3e-4,-0.0609 -10e-4,-0.11837 -7e-4,-0.0576 -7.2e-4,-0.0589 -7.1e-4,-0.0581 -10e-4,-0.11315 -6.9e-4,-0.0551 -6.8e-4,-0.0546 -10e-4,-0.10639 -6.6e-4,-0.0519 -6.5e-4,-0.0514 -10e-4,-0.10067 -10e-4,-0.0974 -6.3e-4,-0.0477 -6.1e-4,-0.0473 -10e-4,-0.0962 -10e-4,-0.0934 -0.001,-0.091 -10e-4,-0.0885 -5.9e-4,-0.0435 -5.9e-4,-0.0431 -10e-4,-0.0847 -10e-4,-0.0825 -0.001,-0.0807 -10e-4,-0.0818 -0.001,-0.0799 -10e-4,-0.0782 -10e-4,-0.0765 -0.001,-0.0749 -10e-4,-0.0734 -0.001,-0.0719 -10e-4,-0.0705 -0.001,-0.0717 -10e-4,-0.0703 -10e-4,-0.0689 -0.001,-0.0676 -9.8e-4,-0.0664 -9.8e-4,-0.0651 -9.6e-4,-0.064 -9.4e-4,-0.0628 -9.7e-4,-0.0642 -0.002,-0.12471 -9.3e-4,-0.0606 -9.2e-4,-0.0597 -9.1e-4,-0.0589 -0.002,-0.11465 -9e-4,-0.0579 -9e-4,-0.0571 -8.9e-4,-0.0563 -0.002,-0.10979 -8.6e-4,-0.0535 -8.4e-4,-0.0529 -8.4e-4,-0.0522 -0.002,-0.10569 -8.4e-4,-0.0516 -8.2e-4,-0.051 -8.3e-4,-0.0504 -0.002,-0.0984 -8e-4,-0.0482 -0.002,-0.0983 -0.002,-0.0951 -7.9e-4,-0.0467 -7.7e-4,-0.0463 -0.002,-0.0908 -0.002,-0.0916 -0.002,-0.0891 -7.5e-4,-0.0438 -7.4e-4,-0.0434 -0.001,-0.0853 -10e-4,-0.0862 -10e-4,-0.084 -7.2e-4,-0.0413 -7.2e-4,-0.0409 -0.001,-0.0807 -0.002,-0.12186 -0.002,-0.11739 -0.001,-0.0762 -10e-4,-0.0777 -0.002,-0.11338 -0.001,-0.0734 -6.7e-4,-0.0363 -0.001,-0.0744 -0.002,-0.10872 -0.002,-0.10525 -0.001,-0.0711 -10e-4,-0.0699 -0.001,-0.0686 -10e-4,-0.0674 -10e-4,-0.0686 -0.001,-0.0675 -0.002,-0.099 -0.002,-0.0985 -10e-4,-0.065 -10e-4,-0.064 -0.001,-0.0631 -0.002,-0.12738 -10e-4,-0.0619 -10e-4,-0.0611 -0.001,-0.0625 -0.002,-0.12173 -10e-4,-0.0593 -0.001,-0.0607 -10e-4,-0.0599 -0.002,-0.1168 -10e-4,-0.0591 -0.001,-0.0583 -10e-4,-0.0576 -0.002,-0.11449 -10e-4,-0.0569 -0.001,-0.0562 -10e-4,-0.0555 -0.002,-0.11144 -10e-4,-0.0559 -0.001,-0.0554 -0.002,-0.10822 -10e-4,-0.0548 -10e-4,-0.0542 -0.001,-0.0536 -0.002,-0.10655 -0.002,-0.10597 -0.001,-0.0527 -10e-4,-0.0522 -0.002,-0.10405 -0.001,-0.0519 -0.002,-0.10222 -0.002,-0.10183 -0.001,-0.0509 -10e-4,-0.0505 -0.002,-0.10189 -0.002,-0.0988 -10e-4,-0.05 -0.002,-0.0994 -0.002,-0.0987 -10e-4,-0.0491 -0.001,-0.0487 -0.002,-0.0969 -0.001,-0.0482 -0.002,-0.0967 -0.002,-0.0844 -9.2e-4,-0.0417 -0.002,-0.10117 -0.001,-0.0588 -10e-4,-0.0476 -0.002,-0.0829 -0.002,-0.10541 -0.002,-0.0933 -0.002,-0.07 -7.7e-4,-0.0346 -0.002,-0.0811 -0.002,-0.0923 -0.002,-0.0917 -0.001,-0.0456 -0.002,-0.0863 -0.002,-0.0857 -0.002,-0.10228 -0.002,-0.0904 -10e-4,-0.045 -0.002,-0.0906 -0.002,-0.0899 -10e-4,-0.0448 -0.002,-0.0898 -0.001,-0.045 -0.002,-0.0895 -0.001,-0.0444 -0.002,-0.0673 -0.003,-0.11106 -10e-4,-0.0446 -0.002,-0.0667 -0.003,-0.11101 -0.002,-0.0884 -0.002,-0.0884 -0.002,-0.0881 -10e-4,-0.0439 -0.002,-0.0883 -0.002,-0.088 -0.002,-0.0879 -0.002,-0.0661 -0.003,-0.10979 -0.002,-0.0877 -0.002,-0.0877 -0.002,-0.0877 -0.002,-0.0876 -0.002,-0.0876 -0.002,-0.0875 -0.002,-0.0875 -0.002,-0.0874 -0.002,-0.0874 -0.002,-0.0873 -0.002,-0.0873 -0.002,-0.0873 -0.002,-0.0872 -0.002,-0.0872 -0.002,-0.0872 -0.002,-0.0872 -0.002,-0.0872 -0.002,-0.0872 -0.002,-0.0872 -0.002,-0.0872 -0.002,-0.0872 -0.002,-0.0873 -0.002,-0.0873 -0.002,-0.0873 -0.002,-0.0874 -0.002,-0.0874 -0.002,-0.0874 -0.002,-0.0875 -0.002,-0.0875 -0.002,-0.0876 -0.002,-0.0877 -0.002,-0.0877 -0.002,-0.0878 -0.002,-0.0879 -0.002,-0.088 -0.002,-0.0881 -0.002,-0.0882 -0.002,-0.0883 -0.002,-0.0884 -0.002,-0.0886 -0.002,-0.0887 -0.002,-0.0889 -0.002,-0.0891 -0.002,-0.0892 -0.002,-0.0894 -0.002,-0.0896 -0.002,-0.0897 -0.002,-0.0899 -0.002,-0.09 -0.002,-0.0902 -0.002,-0.0903 -0.002,-0.0905 -0.002,-0.0906 -0.002,-0.0907 -0.002,-0.0908 -0.002,-0.0909 -0.002,-0.091 -0.002,-0.0912 -0.002,-0.0913 -0.002,-0.0914 -0.002,-0.0915 -0.002,-0.0917 -0.002,-0.0918 -0.002,-0.092 -0.002,-0.0922 -0.002,-0.0923 -0.002,-0.0925 -0.002,-0.0927 -0.002,-0.0928 -0.002,-0.093 -0.002,-0.0932 -0.002,-0.0934 -0.003,-0.0936 -0.003,-0.0937 -0.003,-0.0939 -0.003,-0.0941 -0.003,-0.0943 -0.003,-0.0945 -0.003,-0.0947 -0.003,-0.0949 -0.003,-0.0951 -0.003,-0.0953 -0.003,-0.0955 -0.003,-0.0957 -0.003,-0.096 -0.003,-0.0962 -0.003,-0.0964 -0.003,-0.0966 -0.003,-0.0968 -0.003,-0.097 -0.003,-0.0972 -0.003,-0.0974 -0.003,-0.0976 -0.003,-0.0977 -0.003,-0.0979 -0.003,-0.0981 -0.003,-0.0982 -0.003,-0.0983 -0.003,-0.0985 -0.003,-0.0986 -0.003,-0.0987 -0.003,-0.0989 -0.003,-0.0991 -0.003,-0.0992 -0.003,-0.0994 -0.003,-0.0996 -0.003,-0.0998 -0.003,-0.1 -0.003,-0.1002 -0.003,-0.10042 -0.003,-0.10065 -0.003,-0.10087 -0.003,-0.10109 -0.003,-0.10131 -0.003,-0.10153 -0.003,-0.10174 -0.003,-0.10194 -0.003,-0.10215 -0.003,-0.10235 -0.003,-0.10256 -0.003,-0.10275 -0.003,-0.10294 -0.003,-0.10314 -0.003,-0.10333 -0.003,-0.10353 -0.003,-0.10372 -0.003,-0.10394 -0.003,-0.10414 -0.003,-0.10435 -0.003,-0.10455 -0.003,-0.10477 -0.003,-0.10498 -0.003,-0.10518 -0.003,-0.1054 -0.003,-0.1056 -0.003,-0.10581 -0.003,-0.10603 -0.003,-0.10625 -0.003,-0.10649 -0.003,-0.10674 -0.003,-0.10699 -0.003,-0.10726 -0.003,-0.10754 -0.003,-0.10783 -0.003,-0.10813 -0.003,-0.10845 -0.003,-0.10878 -0.003,-0.1091 -0.003,-0.10942 -0.003,-0.10974 -0.004,-0.11004 -0.004,-0.11035 -0.004,-0.11064 -0.004,-0.11092 -0.004,-0.1112 -0.004,-0.11148 -0.004,-0.11174 -0.004,-0.112 -0.004,-0.11227 -0.004,-0.11257 -0.004,-0.11288 -0.004,-0.11321 -0.004,-0.11357 -0.004,-0.11395 -0.004,-0.11435 -0.004,-0.11477 -0.004,-0.11523 -0.004,-0.1157 -0.004,-0.1162 -0.004,-0.11669 -0.004,-0.11717 -0.004,-0.11764 -0.004,-0.11811 -0.004,-0.11857 -0.004,-0.11902 -0.004,-0.11945 -0.004,-0.11989 -0.004,-0.12031 -0.004,-0.12073 -0.004,-0.12114 -0.004,-0.12158 -0.004,-0.12203 -0.004,-0.12249 -0.004,-0.12297 -0.004,-0.12346 -0.004,-0.12397 -0.004,-0.12449 -0.004,-0.12504 -0.004,-0.1256 -0.004,-0.12616 -0.004,-0.12672 -0.004,-0.12726 -0.004,-0.12782 -0.004,-0.12834 -0.004,-0.12888 -0.004,-0.12939 -0.004,-0.12991 -0.004,-0.1304 -0.005,-0.1309 -0.005,-0.13138 -0.005,-0.13187 -0.005,-0.13234 -0.005,-0.13284 -0.005,-0.13331 -0.005,-0.13378 -0.005,-0.13427 -0.005,-0.13475 -0.005,-0.13522 -0.005,-0.13569 -0.005,-0.13617 -0.005,-0.13664 -0.005,-0.1371 -0.005,-0.13756 -0.005,-0.13802 -0.005,-0.13845 -0.005,-0.13889 -0.005,-0.13931 -0.005,-0.1397 -0.005,-0.1401 -0.005,-0.14045 -0.005,-0.1408 -0.005,-0.14111 -0.005,-0.14142 -0.005,-0.14171 -0.005,-0.14197 -0.005,-0.14221 -0.005,-0.14247 -0.005,-0.1427 -0.005,-0.14294 -0.005,-0.14317 -0.005,-0.1434 -0.005,-0.14361 -0.006,-0.14382 -0.006,-0.144 -0.006,-0.14417 -0.006,-0.14431 -0.006,-0.14441 -0.006,-0.1445 -0.006,-0.14454 -0.006,-0.14458 -0.006,-0.14457 -0.006,-0.14455 -0.006,-0.14452 -0.006,-0.14448 -0.006,-0.14444 -0.006,-0.14439 -0.006,-0.14433 -0.006,-0.14426 -0.006,-0.14418 -0.006,-0.14408 -0.006,-0.14397 -0.006,-0.14383 -0.006,-0.14366 -0.006,-0.14346 -0.006,-0.14326 -0.006,-0.14302 -0.006,-0.14278 -0.006,-0.14251 -0.007,-0.14223 -0.007,-0.14194 -0.007,-0.14164 -0.007,-0.14133 -0.007,-0.141 -0.007,-0.14065 -0.007,-0.14028 -0.007,-0.13991 -0.007,-0.13951 -0.007,-0.1391 -0.007,-0.1387 -0.007,-0.13828 -0.007,-0.13785 -0.007,-0.13742 -0.007,-0.13698 -0.007,-0.13654 -0.007,-0.13606 -0.007,-0.13558 -0.007,-0.13507 -0.007,-0.13456 -0.007,-0.13403 -0.007,-0.13347 -0.008,-0.13292 -0.008,-0.13238 -0.008,-0.13182 -0.008,-0.13128 -0.008,-0.13074 -0.008,-0.13021 -0.008,-0.12972 -0.008,-0.12908 -0.008,-0.12871 -0.008,-0.12805 -0.008,-0.12754 -0.008,-0.12698 -0.008,-0.12641 -0.008,-0.12584 -0.008,-0.12528 -0.008,-0.12475 -0.008,-0.12423 -0.008,-0.12374 -0.009,-0.12328 -0.009,-0.12285 -0.009,-0.12244 -0.009,-0.12205 -0.009,-0.12166 -0.009,-0.12128 -0.009,-0.12091 -0.009,-0.12054 -0.009,-0.12018 -0.009,-0.11984 -0.009,-0.11951 -0.009,-0.11922 -0.009,-0.11895 -0.009,-0.11873 -0.009,-0.11855 -0.009,-0.1184 -0.01,-0.11828 -0.01,-0.11819 -0.01,-0.11814 -0.01,-0.11809 -0.01,-0.11807 -0.01,-0.11808 -0.01,-0.11809 -0.01,-0.11814 -0.01,-0.11821 -0.0101,-0.11831 -0.0102,-0.11843 -0.0102,-0.11859 -0.0103,-0.11877 -0.0104,-0.11898 -0.0104,-0.11921 -0.0105,-0.11947 -0.0106,-0.11974 -0.0106,-0.12005 -0.0107,-0.12036 -0.0108,-0.1207 -0.0109,-0.12107 -0.0109,-0.12145 -0.011,-0.12185 -0.0111,-0.12228 -0.0111,-0.12272 -0.0112,-0.12317 -0.0113,-0.12363 -0.0114,-0.12408 -0.0114,-0.12454 -0.0115,-0.12501 -0.0116,-0.12548 -0.0117,-0.12596 -0.0117,-0.12644 -0.0118,-0.12701 -0.0119,-0.12744 -0.012,-0.12804 -0.012,-0.12858 -0.0121,-0.12914 -0.0122,-0.12972 -0.0123,-0.13028 -0.0124,-0.13085 -0.0125,-0.13139 -0.0125,-0.13194 -0.0126,-0.13247 -0.0127,-0.133 -0.0128,-0.13352 -0.0129,-0.13404 -0.013,-0.13456 -0.0131,-0.1351 -0.0131,-0.13561 -0.0132,-0.13615 -0.0133,-0.13667 -0.0134,-0.13719 -0.0135,-0.1377 -0.0136,-0.1382 -0.0137,-0.13868 -0.0138,-0.13915 -0.0139,-0.13961 -0.0139,-0.14005 -0.014,-0.1405 -0.0141,-0.14093 -0.0142,-0.14136 -0.0143,-0.14179 -0.0144,-0.14221 -0.0145,-0.14264 -0.0146,-0.14305 -0.0147,-0.14346 -0.0148,-0.14385 -0.0149,-0.14424 -0.015,-0.14458 -0.0151,-0.14492 -0.0152,-0.14524 -0.0153,-0.14553 -0.0154,-0.1458 -0.0155,-0.14607 -0.0156,-0.14633 -0.0157,-0.14658 -0.0159,-0.14684 -0.016,-0.14709 -0.0161,-0.14734 -0.0162,-0.14758 -0.0163,-0.14781 -0.0164,-0.14803 -0.0165,-0.14823 -0.0166,-0.14842 -0.0167,-0.14859 -0.0169,-0.14877 -0.017,-0.14892 -0.0171,-0.14909 -0.0172,-0.14924 -0.0173,-0.14939 -0.0174,-0.14954 -0.0176,-0.14966 -0.0177,-0.14979 -0.0178,-0.14988 -0.0179,-0.14997 -0.0181,-0.15005 -0.0182,-0.1501 -0.0183,-0.15017 -0.0184,-0.15023 -0.0186,-0.15029 -0.0187,-0.15035 -0.0188,-0.15041 -0.019,-0.15049 -0.0191,-0.15055 -0.0192,-0.15061 -0.0194,-0.15067 -0.0195,-0.15072 -0.0196,-0.15078 -0.0198,-0.15082 -0.0199,-0.15086 -0.0201,-0.15089 -0.0202,-0.15094 -0.0204,-0.15096 -0.0205,-0.15098 -0.0206,-0.15101 -0.0208,-0.15103 -0.0209,-0.15105 -0.0211,-0.15106 -0.0212,-0.15108 -0.0214,-0.15109 -0.0215,-0.15112 -0.0217,-0.15114 -0.0219,-0.15116 -0.022,-0.15121 -0.0222,-0.15124 -0.0223,-0.15129 -0.0225,-0.15135 -0.0226,-0.1514 -0.0228,-0.15147 -0.023,-0.15153 -0.0231,-0.15158 -0.0233,-0.15163 -0.0235,-0.15166 -0.0236,-0.15169 -0.0238,-0.15171 -0.024,-0.15172 -0.0242,-0.15176 -0.0243,-0.15179 -0.0245,-0.15185 -0.0247,-0.15191 -0.0249,-0.15198 -0.0251,-0.15205 -0.0252,-0.15214 -0.0254,-0.15221 -0.0256,-0.15229 -0.0258,-0.15235 -0.026,-0.15243 -0.0262,-0.15249 -0.0263,-0.15256 -0.0266,-0.15264 -0.0267,-0.15274 -0.0269,-0.15283 -0.0271,-0.15295 -0.0273,-0.15306 -0.0275,-0.15317 -0.0277,-0.1533 -0.0279,-0.1534 -0.0281,-0.15351 -0.0283,-0.15361 -0.0286,-0.15372 -0.0288,-0.15381 -0.029,-0.15391 -0.0292,-0.15401 -0.0294,-0.15412 -0.0296,-0.15423 -0.0298,-0.15436 -0.03,-0.15447 -0.0303,-0.15461 -0.0305,-0.15476 -0.0307,-0.15492 -0.031,-0.15508 -0.0312,-0.15525 -0.0314,-0.15542 -0.0316,-0.15557 -0.0319,-0.15574 -0.0321,-0.15591 -0.0323,-0.15609 -0.0326,-0.15628 -0.0328,-0.15649 -0.0331,-0.15671 -0.0333,-0.15692 -0.0335,-0.15709 -0.0338,-0.15723 -0.0341,-0.15735 -0.0343,-0.15743 -0.0346,-0.1575 -0.0348,-0.15757 -0.0351,-0.15767 -0.0353,-0.15778 -0.0356,-0.15792 -0.0358,-0.15806 -0.0361,-0.15821 -0.0364,-0.15836 -0.0367,-0.15854 -0.0369,-0.15871 -0.0372,-0.15892 -0.0375,-0.15912 -0.0377,-0.15936 -0.038,-0.1596 -0.0383,-0.15983 -0.0386,-0.16007 -0.0389,-0.1603 -0.0392,-0.16054 -0.0395,-0.16076 -0.0398,-0.16098 -0.0401,-0.16121 -0.0404,-0.16143 -0.0407,-0.16164 -0.041,-0.16187 -0.0413,-0.16209 -0.0416,-0.16234 -0.0419,-0.16258 -0.0422,-0.16283 -0.0425,-0.16309 -0.0428,-0.16335 -0.0432,-0.1636 -0.0435,-0.16386 -0.0438,-0.1641 -0.0441,-0.16434 -0.0445,-0.16457 -0.0448,-0.16479 -0.0451,-0.165 -0.0455,-0.16521 -0.0458,-0.16542 -0.0461,-0.16563 -0.0465,-0.16585 -0.0468,-0.16607 -0.0472,-0.16632 -0.0475,-0.16656 -0.0479,-0.16683 -0.0483,-0.16711 -0.0486,-0.1674 -0.049,-0.1677 -0.0493,-0.168 -0.0497,-0.16832 -0.0501,-0.16864 -0.0505,-0.16893 -0.0508,-0.16922 -0.0512,-0.16948 -0.0516,-0.16974 -0.052,-0.16999 -0.0524,-0.17023 -0.0528,-0.17048 -0.0532,-0.17075 -0.0536,-0.17103 -0.054,-0.17134 -0.0544,-0.17165 -0.0548,-0.17198 -0.0552,-0.17231 -0.0556,-0.17263 -0.056,-0.17295 -0.0565,-0.17326 -0.0569,-0.17356 -0.0573,-0.17386 -0.0578,-0.17416 -0.0582,-0.17445 -0.0586,-0.17477 -0.0591,-0.17507 -0.0595,-0.1754 -0.06,-0.17572 -0.0604,-0.17606 -0.0609,-0.17639 -0.0614,-0.17674 -0.0618,-0.17708 -0.0623,-0.17743 -0.0628,-0.17778 -0.0632,-0.17814 -0.0637,-0.1785 -0.0642,-0.17886 -0.0647,-0.17922 -0.0652,-0.17959 -0.0657,-0.17996 -0.0662,-0.18033 -0.0667,-0.18069 -0.0672,-0.18107 -0.0677,-0.18144 -0.0682,-0.18182 -0.0687,-0.18221 -0.0693,-0.18259 -0.0698,-0.18299 -0.0703,-0.18337 -0.0709,-0.18377 -0.0714,-0.18417 -0.0719,-0.18457 -0.0725,-0.1849 -0.0365,-0.0926 -0.0366,-0.0928 -0.0736,-0.18594 -0.0742,-0.18628 -0.0747,-0.18674 -0.0753,-0.18718 -0.0759,-0.18762 -0.0765,-0.18805 -0.0771,-0.18849 -0.0777,-0.18892 -0.0783,-0.18936 -0.0788,-0.18978 -0.0795,-0.19023 -0.0801,-0.19067 -0.0807,-0.19111 -0.0813,-0.19156 -0.082,-0.19201 -0.0826,-0.19249 -0.0832,-0.193 -0.0839,-0.19351 -0.0845,-0.19406 -0.0852,-0.19461 -0.0858,-0.19515 -0.0865,-0.19567 -0.0872,-0.19616 -0.0878,-0.19665 -0.0885,-0.19711 -0.0892,-0.1976 -0.0899,-0.19809 -0.0906,-0.1986 -0.0913,-0.19914 -0.0921,-0.19968 -0.0928,-0.20023 -0.0935,-0.20078 -0.0942,-0.20133 -0.095,-0.20189 -0.0957,-0.20246 -0.0965,-0.20303 -0.0973,-0.2036 -0.098,-0.20418 -0.0988,-0.20476 -0.0996,-0.20532 -0.10036,-0.20591 -0.10117,-0.20649 -0.10197,-0.2071 -0.10278,-0.20772 -0.1036,-0.20834 -0.10443,-0.20896 -0.10526,-0.2096 -0.10611,-0.21023 -0.10696,-0.21086 -0.10782,-0.21149 -0.10869,-0.21213 -0.10956,-0.2128 -0.11044,-0.21345 -0.11134,-0.21413 -0.11224,-0.2148 -0.11315,-0.2155 -0.11406,-0.2162 -0.115,-0.21691 -0.11593,-0.21763 -0.11687,-0.21835 -0.11783,-0.21908 -0.1188,-0.21982 -0.11976,-0.22055 -0.12075,-0.22129 -0.12175,-0.22204 -0.12275,-0.2228 -0.12376,-0.22357 -0.12478,-0.22435 -0.12582,-0.22515 -0.12686,-0.22596 -0.12791,-0.22676 -0.12898,-0.22761 -0.1506,-0.26438 -0.0861,-0.15043 -0.0494,-0.0862 -0.0909,-0.1582 -0.0833,-0.14446 -0.0919,-0.15891 -0.10919,-0.18825 -0.0852,-0.14649 -0.11898,-0.20378 -0.0856,-0.14601 -0.11225,-0.19098 -0.0923,-0.1564 -0.10776,-0.18207 -0.0701,-0.11806 -0.14697,-0.24676 -0.11696,-0.19549 -0.1041,-0.1734 -0.0868,-0.14426 -0.18155,-0.30034 -0.1034,-0.17027 -0.099,-0.16252 -0.12741,-0.20858 -0.11902,-0.19409 -0.1083,-0.17604 -0.10309,-0.16703 -0.1115,-0.18013 -0.15699,-0.25256 -0.10617,-0.17015 -0.14149,-0.22594 -0.0829,-0.13196 -0.15769,-0.2502 -0.0792,-0.1253 -0.17994,-0.28369 -0.16136,-0.25314 -0.0812,-0.12703 -0.16351,-0.25499 -0.16496,-0.25604 -0.083,-0.12844 -0.0834,-0.12877 -0.16792,-0.2584 -0.16943,-0.25945 -0.0853,-0.13017 -0.0857,-0.1305 -0.17249,-0.26192 -0.17405,-0.26306 -0.0876,-0.13201 -0.13192,-0.1983 -0.17761,-0.26599 -0.17924,-0.26721 -0.0906,-0.13458 -0.13603,-0.2017 -0.18296,-0.27022 -0.18463,-0.27148 -0.093,-0.13626 -0.1872,-0.2736 -0.18894,-0.27488 -0.0951,-0.13796 -0.0956,-0.13833 -0.14428,-0.2083 -0.24249,-0.3485 -0.0978,-0.14006 -0.0983,-0.14044 -0.14839,-0.2115 -0.24941,-0.35395 -0.10063,-0.14228 -0.1011,-0.14269 -0.15265,-0.21491 -0.25662,-0.35972 -0.10354,-0.14463 -0.10404,-0.14503 -0.10454,-0.14545 -0.22386,-0.31048 -0.21277,-0.29382 -0.22836,-0.31402 -0.17608,-0.24118 -0.10923,-0.14921 -0.10956,-0.14938 -0.1103,-0.15006 -0.26376,-0.35759 -0.23869,-0.32204 -0.11352,-0.1527 -0.1564,-0.20987 -0.17208,-0.23024 -0.13012,-0.17365 -0.11579,-0.15419 -0.11697,-0.15547 -0.16117,-0.21371 -0.31146,-0.41134 -0.23992,-0.31538 -0.16614,-0.21767 -0.18283,-0.23886 -0.13828,-0.18017 -0.12307,-0.16003 -0.12433,-0.16135 -0.18708,-0.24218 -0.25193,-0.325 -0.25457,-0.32708 -0.12839,-0.16447 -0.2586,-0.33029 -0.26134,-0.33246 -0.1316,-0.16692 -0.13252,-0.16776 -0.31714,-0.40015 -0.15197,-0.19111 -0.1353,-0.16979 -0.18802,-0.2354 -0.29282,-0.36537 -0.27874,-0.34641 -0.1404,-0.17396 -0.1414,-0.17485 -0.28493,-0.35128 -0.2881,-0.35387 -0.21824,-9.78461 -0.2568,-8.27918 -0.14593,6.03395 -0.14693,11.32958 -0.16588,-0.19436 -0.39137,-0.45064 -0.30156,-0.33935 -0.15199,-0.16934 -0.30597,-0.33698 -0.15394,-0.16753 -0.15491,-0.16754 -0.15537,-0.16713 -0.37238,-0.39686 -0.41603,-0.43585 -0.2199,-0.22779 -0.14042,-0.14482 -0.32339,-0.33109 -0.20372,-0.20675 -0.14282,-0.1444 -0.32912,-0.73072 -0.33186,-0.82554 -0.39757,-0.91286 -0.16899,-0.36412 -0.16886,-0.34529 -0.23413,-0.46433 -0.51475,-0.95645 -0.30289,-0.52548 -0.21791,-0.36232 -0.35059,-0.55754 -0.35328,-0.53596 -0.22227,-0.32728 -0.3127,-0.44261 -0.17966,-0.24669 -0.22563,-0.30402 -0.43145,-0.56081 -0.18234,-0.2291 -0.2527,-0.30696 -0.36942,-0.43835 -0.3721,-0.42912 -0.18705,-0.20965 -0.3998,-0.44318 -0.31939,-0.3454 -0.1905,-0.19842 -0.27474,-0.27901 -0.19163,-0.1887 -0.38589,-0.38922 -0.26718,-0.26736 -0.39045,-0.38734 -0.19578,-0.19071 -0.27123,-0.26116 -0.39636,-0.37682 -0.24921,-0.23546 -0.47626,-0.44596 -0.40401,-0.37224 -0.18978,-0.17308 -0.16593,-0.14915 -0.40911,-0.36342 -0.32133,-0.28189 -0.29698,-0.25888 -0.53373,-0.45849 -0.30092,-0.25641 -0.21084,-0.17923 -0.42282,-0.35246 -0.23842,-0.19658 -0.21384,-0.17475 -0.21327,-0.17434 -0.48413,-0.3926 -0.40575,-0.32623 -0.21793,-0.17468 -0.21769,-0.17194 -0.32879,-0.25768 -0.44053,-0.342 -0.27699,-0.21319 -0.33332,-0.25295 -0.405,-0.30398 -0.26704,-0.19926 -0.45148,-0.33505 -0.29785,-0.21832 -0.27009,-0.1968 -0.45792,-0.33193 -0.23051,-0.16404 -0.25901,-0.18426 -0.46388,-0.33166 -0.26317,-0.18857 -0.26243,-0.18857 -0.44048,-0.31281 -0.23654,-0.16766 -0.35537,-0.24982 -0.40165,-0.28018 -0.23939,-0.16615 -0.25471,-0.17552 -0.48214,-0.3305 -0.39353,-0.26832 -0.24408,-0.16619 -0.24349,-0.16671 -0.55251,-0.37544 -0.46298,-0.31362 -0.2486,-0.16881 -0.24836,-0.16576 -0.37501,-0.24665 -0.28295,-0.18521 -0.28223,-0.18624 -0.63325,-0.41526 -0.41366,-0.27133 -0.25654,-0.1664 -0.32057,-0.2032 -0.25835,-0.16283 -0.25779,-0.16427 -0.48673,-0.31047 -0.52251,-0.33144 -0.26299,-0.16628 -0.37866,-0.23411 -0.21488,-0.1331 -0.53126,-0.32969 -0.43423,-0.2702 -0.40257,-0.24907 -0.26956,-0.16576 -0.27042,-0.16494 -0.44096,-0.26774 -0.52914,-0.31921 -0.22351,-0.13617 -0.27586,-0.16595 -0.27534,-0.16623 -0.52002,-0.31062 -0.45306,-0.27098 -0.38531,-0.23067 -0.42284,-0.25023 -0.28351,-0.16796 -0.28304,-0.16657 -0.49891,-0.28938 -0.35771,-0.20983 -0.53987,-0.31269 -0.28993,-0.17027 -0.32635,-0.18841 -0.3474,-0.19797 -0.3468,-0.19614 -0.29368,-0.16678 -0.47994,-0.27098 -0.37069,-0.21196 -0.41121,-0.23214 -0.20531,-0.11409 -0.20513,-0.10905 -0.22583,-0.12066 -0.22561,-0.12515 -0.49156,-0.27218 -0.30423,-0.2166 -0.45758,-0.36403 -0.30782,-0.24472 -0.30748,-0.24431 -0.36809,-0.29229 -0.18386,-0.14593 -0.18375,-0.1458 -0.27289,-0.21646 -0.27265,-0.21618 -0.31371,-0.24861 -0.31561,-0.24998 -0.29691,-0.23504 -0.29666,-0.23474 -0.37913,-0.29982 -0.37876,-0.29936 -0.24118,-0.19054 -0.24104,-0.19035 -0.58654,-0.4629 -0.36622,-0.28884 -0.18301,-0.14427 -0.23647,-0.18636 -0.23637,-0.18621 -0.47251,-0.37206 -0.20699,-0.16291 -0.50901,-0.40038 -0.30194,-0.23738 -0.16767,-0.13178 -0.16764,-0.13171 -0.40033,-0.31441 -0.38084,-0.29895 -0.38334,-0.30075 -0.38327,-0.30054 -0.25782,-0.20207 -0.4417,-0.34599 -0.36777,-0.28795 -0.18389,-0.1439 -0.2398,-0.1876 -0.23982,-0.18754 -0.25206,-0.19705 -0.25208,-0.19698 -0.41487,-0.32402 -0.20747,-0.16195 -0.46949,-0.36624 -0.53119,-0.4141 -0.26921,-0.20976 -0.27153,-0.2115 -0.27162,-0.21149 -0.36457,-0.2837 -0.36478,-0.28368 -0.18321,-0.14241 -0.18326,-0.14243 -0.36972,-0.2872 -0.36998,-0.28721 -0.42032,-0.32607 -0.21029,-0.16304 -0.21039,-0.16306 -0.1945,-0.1507 -0.38929,-0.30148 -0.19479,-0.15076 -0.25001,-0.19344 -0.25018,-0.19349 -0.38369,-0.29658 -0.38412,-0.29672 -0.38665,-0.29848 -0.31638,-0.24407 -0.31672,-0.24419 -0.4175,-0.32168 -0.41814,-0.32193 -0.32255,-0.24816 -0.32295,-0.24832 -0.39922,-0.30674 -0.42828,-0.32884 -0.21442,-0.16454 -0.21462,-0.16462 -0.43327,-0.33213 -0.43412,-0.33256 -0.41206,-0.31539 -0.31071,-0.23766 -0.31118,-0.23786 -0.52354,-0.3999 -0.26229,-0.2002 -0.26266,-0.20036 -0.45107,-0.34388 -0.22596,-0.17215 -0.22624,-0.17227 -0.42888,-0.32634 -0.43241,-0.32876 -0.43354,-0.32935 -0.27373,-0.20779 -0.27419,-0.208 -0.54987,-0.4168 -0.34667,-0.26257 -0.34747,-0.26295 -0.42042,-0.31793 -0.22567,-0.17054 -0.22603,-0.17071 -0.45315,-0.34198 -0.54406,-0.41027 -0.27284,-0.20557 -0.27339,-0.20583 -0.49414,-0.37174 -0.49603,-0.37288 -0.23497,-0.17648 -0.2354,-0.1767 -0.47495,-0.35627 -0.23816,-0.17853 -0.23862,-0.17877 -0.24049,-0.18006 -0.42245,-0.31606 -0.36378,-0.272 -0.18231,-0.13622 -0.30653,-0.22889 -0.30736,-0.22936 -0.30819,-0.2298 -0.55789,-0.41564 -0.24939,-0.18562 -0.50353,-0.37448 -0.37955,-0.28205 -0.19027,-0.14131 -0.19062,-0.14147 -0.38435,-0.28508 -0.38578,-0.28589 -0.51758,-0.38319 -0.32694,-0.24183 -0.328,-0.24239 -0.65934,-0.48681 -0.26627,-0.19639 -0.46838,-0.34519 -0.20179,-0.1486 -0.41411,-0.30471 -0.41595,-0.3058 -0.37638,-0.27645 -0.37792,-0.27731 -0.32834,-0.24069 -0.59305,-0.43431 -0.29799,-0.21802 -0.29899,-0.21856 -0.42597,-0.3111 -0.42806,-0.31232 -0.3779,-0.27543 -0.37956,-0.27637 -0.38126,-0.27735 -0.38299,-0.27839 -0.31303,-0.22733 -0.3142,-0.22792 -0.47489,-0.34413 -0.47766,-0.34578 -0.43442,-0.31411 -0.43678,-0.31546 -0.27702,-0.19987 -0.4708,-0.33936 -0.19327,-0.13918 -0.44728,-0.32182 -0.44986,-0.32337 -0.43402,-0.31159 -0.43647,-0.31291 -0.35963,-0.25751 -0.50332,-0.36003 -0.41568,-0.29706 -0.2087,-0.14902 -0.20928,-0.14934 -0.43201,-0.30798 -0.43453,-0.30938 -0.49027,-0.34862 -0.49358,-0.35059 -0.39194,-0.27809 -0.39407,-0.27931 -0.5154,-0.36493 -0.25909,-0.18327 -0.26004,-0.18378 -0.52461,-0.3704 -0.52855,-0.37271 -0.53381,-0.37589 -0.53793,-0.37831 -0.36136,-0.25384 -0.36328,-0.25494 -0.27436,-0.19239 -0.27547,-0.193 -0.64762,-0.45317 -0.65387,-0.45689 -0.59096,-0.41225 -0.59624,-0.41531 -0.45741,-0.31818 -0.42447,-0.29492 -0.42723,-0.29648 -0.78935,-0.54701 -0.59918,-0.4146 -0.60478,-0.41789 -0.40665,-0.28065 -0.40924,-0.28212 -0.4837,-0.33307 -0.4874,-0.33521 -0.38646,-0.265466 -0.38884,-0.266808 -0.45148,-0.309394 -0.91295,-0.624641 -0.46205,-0.31562 -0.46551,-0.317525 -0.6637,-0.452031 -0.67093,-0.456219 -0.45159,-0.3066 -0.45495,-0.308471 -0.45875,-0.310656 -0.46223,-0.312613 -0.46578,-0.31462 -0.35183,-0.237379 -0.35388,-0.238525 -0.35598,-0.239696 -0.35809,-0.240879 -0.36035,-0.242166 -0.36253,-0.243357 -0.73177,-0.490402 -0.99013,-0.662186 -0.50123,-0.334539 -0.5055,-0.336833 -0.76645,-0.509788 -0.77651,-0.515409 -0.55607,-0.368363 -0.56135,-0.371254 -0.341,-0.225208 -0.34299,-0.226251 -0.57319,-0.37754 -0.57883,-0.380543 -0.71387,-0.468321 -0.72265,-0.473032 -0.49255,-0.321769 -0.49671,-0.323948 -0.86074,-0.560212 -0.43511,-0.282596 -0.43836,-0.284264 -0.44116,-0.285642 -0.44449,-0.287344 -0.89932,-0.580016 -0.66374,-0.426936 -0.67133,-0.430739 -0.87304,-0.558579 -0.44137,-0.281675 -0.44468,-0.283287 -0.57717,-0.366938 -0.58283,-0.369864 -0.58862,-0.372551 -0.59448,-0.374833 -0.6512,-0.409434 -0.65834,-0.412936 -0.65913,-0.412164 -0.33226,-0.207268 -0.33408,-0.208074 -0.67376,-0.41851 -0.68126,-0.42154 -0.61458,-0.378909 -0.62074,-0.381388 -0.62698,-0.383907 -0.63332,-0.386564 -0.71756,-0.436502 -0.72577,-0.439782 -0.73409,-0.442879 -0.37018,-0.222575 -0.3723,-0.223362 -0.59126,-0.353473 -0.59662,-0.354956 -0.60201,-0.356478 -0.60745,-0.358046 -0.86188,-0.504854 -0.87272,-0.507104 -1.05525,-0.606648 -0.53333,-0.30387 -0.5372,-0.304385 -0.71995,-0.404657 -0.72671,-0.40467 -1.09881,-0.603017 -0.55478,-0.300296 -0.55837,-0.2998 -0.74866,-0.397105 -0.7547,-0.393981 -0.68867,-0.353918 -0.69323,-0.349958 -0.34822,-0.173404 -0.34926,-0.172112 -0.17501,-0.08554 -0.17526,-0.08526 -0.1755,-0.08489 -0.17573,-0.08451 -0.16184,-0.07739 -0.16204,-0.07705 -0.16223,-0.0767 -0.1624,-0.07633 -0.16258,-0.07594 -0.16276,-0.07554 -0.16292,-0.07513 -0.16309,-0.0747 -0.16324,-0.07427 -0.16339,-0.07382 -0.16354,-0.07335 -0.16368,-0.07286 -0.16381,-0.07237 -0.16394,-0.07186 -0.16406,-0.07133 -0.16418,-0.07079 -0.15846,-0.06776 -0.15856,-0.06723 -0.15865,-0.06669 -0.15873,-0.128636 -0.15881,-0.282659 -0.15888,-0.298929 -0.31793,-0.448031 -0.15904,-0.289068 -0.15909,-0.268358 -0.15911,-0.259132 -0.15915,-0.256865 -0.15917,-0.255259 -0.15918,-0.253667 -0.15919,-0.252977 -0.15919,-0.254229 -0.17955,-0.275544 -0.17953,-0.276014 -0.17951,-0.273845 -0.17946,-0.2704 -0.17942,-0.266626 -0.17937,-0.262795 -0.17929,-0.258734 -0.17922,-0.253893 -0.17914,-0.248524 -0.17904,-0.243477 -0.17893,-0.239658 -0.17882,-0.238377 -0.1787,-0.237034 -0.35701,-0.408423 -0.33826,-0.379382 -0.15983,-0.184774 -0.31926,-0.329268 -0.15941,-0.150629 -0.31839,-0.284728 -0.35298,-0.281301 -0.38731,-0.280574 -0.38631,-0.260964 -0.19277,-0.04051 -0.38476,-0.184929 -0.38373,-0.121415 -0.38269,-0.07122 -0.38169,-0.03051 -0.38071,-0.002 -0.33318,0.08786 -0.33249,0.206759 -0.66306,0.03838 -0.49581,0.284759 -0.49474,0.299551 -0.51708,0.252471 -0.37526,0.292491 -0.28123,0.274988 -0.28109,0.228118 -0.28098,0.213061 -0.28091,0.177927 -0.18726,0.198294 -0.18725,0.159668 -0.18725,0.145202 -0.18728,0.126338 -0.14047,0.134042 -0.14049,0.114409 -0.14051,0.110626 -0.14054,0.116714 -0.16048,0.111447 -0.16052,0.117231 -0.16057,0.117399 -0.16063,0.09095 -0.1607,-0.08173 -0.0804,-0.04109 -0.0804,-0.04122 -0.16084,-0.08289 -0.16093,-0.08353 -0.16101,-0.08411 -0.1611,-0.08468 -0.1612,-0.08523 -0.1613,-0.08581 -0.0807,-0.04309 -0.16146,-0.08657 -0.0808,-0.04348 -0.13064,-0.07054 -0.13072,-0.07088 -0.1308,-0.0712 -0.13089,-0.07151 -0.14986,-0.08219 -0.14999,-0.08259 -0.1501,-0.08298 -0.15023,-0.08335 -0.15035,-0.08372 -0.15049,-0.08408 -0.15062,-0.08443 -0.15076,-0.08477 -0.1509,-0.08511 -0.15104,-0.08544 -0.15119,-0.08576 -0.15134,-0.08609 -0.10098,-0.05756 -0.10105,-0.05769 -0.10111,-0.05783 -0.10119,-0.05795 -0.15192,-0.08717 -0.15208,-0.08747 -0.15225,-0.08775 -0.15242,-0.08803 -0.16868,-0.09762 -0.1689,-0.09795 -0.16911,-0.09828 -0.0847,-0.04926 -0.0847,-0.04933 -0.11841,-0.06904 -0.11852,-0.06918 -0.23738,-0.138814 -0.11887,-0.06963 -0.11898,-0.06977 -0.1191,-0.06991 -0.11922,-0.07004 -0.23881,-0.140488 -0.23929,-0.14107 -0.13765,-0.08125 -0.13781,-0.08141 -0.13798,-0.08159 -0.13816,-0.08175 -0.27683,-0.164035 -0.13868,-0.08228 -0.13887,-0.08244 -0.13904,-0.08261 -0.13923,-0.08277 -0.13941,-0.08294 -0.1396,-0.0831 -0.27977,-0.166695 -0.14023,-0.08363 -0.14042,-0.08378 -0.14062,-0.08395 -0.14081,-0.08411 -0.14107,-0.08431 -0.14128,-0.08447 -0.14148,-0.08463 -0.14168,-0.08479 -0.1419,-0.08496 -0.14211,-0.08512 -0.14232,-0.08528 -0.14254,-0.08544 -0.21422,-0.128479 -0.10729,-0.06438 -0.10742,-0.06447 -0.21522,-0.12921 -0.21573,-0.129598 -0.12638,-0.07595 -0.12655,-0.07607 -0.25366,-0.152539 -0.1271,-0.07647 -0.12729,-0.07659 -0.25514,-0.153585 -0.13927,-0.08387 -0.1395,-0.08403 -0.13973,-0.08418 -0.13996,-0.08434 -0.15154,-0.09135 -0.15182,-0.09154 -0.15209,-0.09173 -0.15238,-0.09192 -0.22278,-0.134421 -0.22339,-0.134843 -0.22401,-0.135273 -0.11224,-0.0678 -0.1124,-0.0679 -0.11718,-0.07079 -0.11736,-0.07091 -0.23523,-0.142173 -0.11789,-0.07127 -0.11807,-0.07138 -0.23668,-0.143139 -0.13864,-0.08387 -0.1389,-0.08404 -0.27857,-0.168593 -0.15585,-0.09435 -0.15617,-0.09457 -0.15651,-0.09479 -0.15684,-0.09501 -0.1735,-0.105122 -0.0869,-0.05266 -0.087,-0.05273 -0.17434,-0.105665 -0.17476,-0.105955 -0.17519,-0.10624 -0.17563,-0.106529 -0.17606,-0.106819 -0.17652,-0.107111 -0.2371,-0.143929 -0.11886,-0.07217 -0.11907,-0.0723 -0.11928,-0.07243 -0.11948,-0.07257 -0.23961,-0.145568 -0.11051,-0.06715 -0.11069,-0.06727 -0.22193,-0.134904 -0.22269,-0.135408 -0.22345,-0.135917 -0.13229,-0.08049 -0.13257,-0.08066 -0.26596,-0.161865 -0.13339,-0.08121 -0.13368,-0.08139 -0.26821,-0.163351 -0.15138,-0.09223 -0.15174,-0.09246 -0.15212,-0.09271 -0.1525,-0.09295 -0.15288,-0.0932 -0.15326,-0.09345 -0.30769,-0.187683 -0.15651,-0.0955 -0.15691,-0.09576 -0.15733,-0.09603 -0.15775,-0.0963 -0.18458,-0.112701 -0.18516,-0.113084 -0.18576,-0.113471 -0.18635,-0.113864 -0.15821,-0.09669 -0.15866,-0.09696 -0.31864,-0.194821 -0.16,-0.09785 -0.16046,-0.09814 -0.32231,-0.197206 -0.21046,-0.128825 -0.10553,-0.0646 -0.10573,-0.06473 -0.2121,-0.12984 -0.21292,-0.130385 -0.21377,-0.130953 -0.21464,-0.13151 -0.2155,-0.132066 -0.43368,-0.265855 -0.43732,-0.268217 -0.56562,-0.347026 -0.82102,-0.504134 -0.47763,-0.293434 -0.83921,-0.515835 -0.62494,-0.384389 -0.84647,-0.520967 -0.64524,-0.397371 -0.87498,-0.539219 -0.50207,-0.309577 -0.56818,-0.350406 -0.81043,-0.500167 -0.41111,-0.25382 -0.71437,-0.44112 -0.97231,-0.60073 -1.24962,-0.772721 -0.83588,-0.517237 -0.33949,-0.210051 -0.57096,-0.353207 -1.01929,-0.630576 -1.13862,-0.70457 -0.60728,-0.375591 -1.49444,-0.923978 -0.616,-0.380704 -0.94517,-0.583655 -1.13165,-0.698425 -0.83079,-0.512305 -1.04827,-0.64577 -1.16617,-0.717761 -0.79717,-0.490164 -0.81773,-0.50224 -1.61271,-0.989375 -1.00449,-0.615478 -1.09176,-0.667939 -1.80057,-1.1001 -0.84528,-0.515703 -0.87053,-0.53052 -0.59526,-0.362407 -1.4364,-0.873231 -2.30186,-1.397003 -1.168149,-0.707465 -2.054996,-1.241968 -2.020741,-1.218884 -1.07083,-0.644657 -1.788275,-1.074515 -2.896132,-1.736025 -2.61626,-1.564111 L 84.809414,13.656629 80.684432,11.20405 78.05222,9.643835 74.459216,7.520328 70.988709,5.475366 66.012932,2.552407 63.05724,0.821239 57.213936,-2.591123 49.872279,-6.862094 33.72568,-16.211805 l -13.835671,-7.975307 -13.48403,-7.74972 -11.845385,-6.795413 -12.604107,-7.222201 -11.042054,-6.322056 -12.910822,-7.388024 -11.551351,-6.607504 -14.615122,-8.357757 -14.609506,-8.352897 -14.605968,-8.349805 -14.603734,-8.347856 -14.60233,-8.346625 -14.60142,-8.34584 z"
         style="fill:#ff800e;fill-opacity:0.15;stroke:#ff800e;stroke-linecap:butt;stroke-linejoin:round;stroke-opacity:0.15"
         id="path4" />
    </g>
    <g
       id="line2d_45"
       style="stroke-linecap:butt;stroke-linejoin:round">
      <path
         clip-path="url(#p7230c20211-6)"
         d="m 59.938564,-1 20.745868,12.20405 21.834718,13.105991 19.85029,12.189916 24.85472,15.248153 12.34407,7.341935 4.11057,2.21342 2.75626,1.267873 2.87844,1.068564 9.93295,3.340711 3.46966,1.597386 4.14111,2.140278 5.22603,2.927543 7.68516,4.586575 9.08148,5.683278 11.1065,7.232557 12.33417,8.319549 12.2719,8.548551 11.95788,8.59455 12.69159,9.40203 13.71637,10.44746 15.00326,11.71839 14.14787,11.31238 12.09895,9.94525 9.08566,7.73741 6.54086,5.85066 4.41254,4.22042 3.06996,3.22689 1.15167,1.26104 0.2568,0.14002 9.38698,12.36491 3.33621,4.96009 3.06136,4.95004 0.49778,0.8497 v 0"
         style="fill:none;stroke:#006ba4;stroke-width:1.5;stroke-linecap:butt;stroke-linejoin:round;stroke-dasharray:5.55, 2.4;stroke-dashoffset:0"
         id="path106" />
    </g>
  </g>
  <defs
     id="defs117">
    <clipPath
       id="p7230c20211">
      <rect
         height="166.32"
         width="334.8"
         x="48.323213"
         y="10.659249"
         id="rect117" />
    </clipPath>
  </defs>
</svg>
