<?xml version="1.0" encoding="UTF-8" standalone="no"?>
<!-- Created with matplotlib (https://matplotlib.org/) -->

<svg
   height="210.538317pt"
   version="1.1"
   viewBox="0 0 395.706955 210.538317"
   width="395.706955pt"
   id="svg104"
   sodipodi:docname="solar_Δν.svg"
   inkscape:version="1.3.2 (091e20ef0f, 2023-11-25, custom)"
   xmlns:inkscape="http://www.inkscape.org/namespaces/inkscape"
   xmlns:sodipodi="http://sodipodi.sourceforge.net/DTD/sodipodi-0.dtd"
   xmlns:xlink="http://www.w3.org/1999/xlink"
   xmlns="http://www.w3.org/2000/svg"
   xmlns:svg="http://www.w3.org/2000/svg"
   xmlns:rdf="http://www.w3.org/1999/02/22-rdf-syntax-ns#"
   xmlns:cc="http://creativecommons.org/ns#"
   xmlns:dc="http://purl.org/dc/elements/1.1/">
  <sodipodi:namedview
     id="namedview104"
     pagecolor="#ffffff"
     bordercolor="#000000"
     borderopacity="0.25"
     inkscape:showpageshadow="2"
     inkscape:pageopacity="0.0"
     inkscape:pagecheckerboard="0"
     inkscape:deskcolor="#d1d1d1"
     inkscape:document-units="pt"
     inkscape:zoom="4.9752725"
     inkscape:cx="263.80465"
     inkscape:cy="140.29382"
     inkscape:window-width="3840"
     inkscape:window-height="2133"
     inkscape:window-x="0"
     inkscape:window-y="27"
     inkscape:window-maximized="1"
     inkscape:current-layer="axes_1" />
  <metadata
     id="metadata1">
    <rdf:RDF>
      <cc:Work>
        <dc:type
           rdf:resource="http://purl.org/dc/dcmitype/StillImage" />
        <dc:date>2021-02-18T20:21:22.476685</dc:date>
        <dc:format>image/svg+xml</dc:format>
        <dc:creator>
          <cc:Agent>
            <dc:title>Matplotlib v3.3.3, https://matplotlib.org/</dc:title>
          </cc:Agent>
        </dc:creator>
      </cc:Work>
    </rdf:RDF>
  </metadata>
  <defs
     id="defs1">
    <style
       type="text/css"
       id="style1">*{stroke-linecap:butt;stroke-linejoin:round;}</style>
    <clipPath
       id="pcc0d1a3f7d-6">
      <rect
         height="166.32001"
         width="334.79999"
         x="43.744286"
         y="7.1999998"
         id="rect104-7" />
    </clipPath>
    <clipPath
       id="clipPath1">
      <rect
         height="166.32001"
         width="334.79999"
         x="43.744286"
         y="7.1999998"
         id="rect1" />
    </clipPath>
    <clipPath
       id="clipPath2">
      <rect
         height="166.32001"
         width="334.79999"
         x="43.744286"
         y="7.1999998"
         id="rect2" />
    </clipPath>
    <path
       d="M 40.59375,68.796875 C 39.796875,70.5 39.40625,70.5 38.59375,70.5 c -1.1875,0 -1.296875,-0.203125 -2,-1.609375 L 4.203125,1.703125 C 4.09375,1.5 3.703125,0.59375 3.703125,0.5 3.703125,0.09375 3.796875,0 5.59375,0 H 71.5 c 1.796875,0 1.90625,0.09375 1.90625,0.5 0,0.09375 -0.40625,1 -0.5,1.203125 z m -4.5,-5.703125 27.703125,-57.5 h -55.5 z"
       id="CMR17-1" />
  </defs>
  <g
     id="figure_1">
    <g
       id="patch_1">
      <path
         d="M 0 210.538317  L 395.706955 210.538317  L 395.706955 0  L 0 0  z "
         style="fill:none;"
         id="path1" />
    </g>
    <g
       id="axes_1">
      <g
         id="patch_3"
         style="stroke-linecap:butt;stroke-linejoin:round">
        <path
           clip-path="url(#pcc0d1a3f7d-6)"
           d="m 209.22218,65.514242 q 5.36889,0 10.73779,0"
           style="fill:none;stroke:#000000;stroke-linecap:round;stroke-linejoin:round"
           id="path89" />
        <path
           clip-path="url(#pcc0d1a3f7d-6)"
           d="m 211.22218,66.514242 -2,-1 2,-1"
           style="fill:none;stroke:#000000;stroke-linecap:round;stroke-linejoin:round"
           id="path90" />
        <path
           clip-path="url(#pcc0d1a3f7d-6)"
           d="m 217.95997,64.514242 2,1 -2,1"
           style="fill:none;stroke:#000000;stroke-linecap:round;stroke-linejoin:round"
           id="path91" />
      </g>
      <g
         id="text_19"
         style="stroke-linecap:butt;stroke-linejoin:round">
        <!-- $\Delta\nu$ -->
        <g
           transform="matrix(0.1,0,0,-0.1,207.79628,61.194012)"
           id="g104"
           style="stroke-linecap:butt;stroke-linejoin:round">
          <defs
             id="defs102">
            <path
               d="M 40.59375,68.796875 C 39.796875,70.5 39.40625,70.5 38.59375,70.5 c -1.1875,0 -1.296875,-0.203125 -2,-1.609375 L 4.203125,1.703125 C 4.09375,1.5 3.703125,0.59375 3.703125,0.5 3.703125,0.09375 3.796875,0 5.59375,0 H 71.5 c 1.796875,0 1.90625,0.09375 1.90625,0.5 0,0.09375 -0.40625,1 -0.5,1.203125 z m -4.5,-5.703125 27.703125,-57.5 h -55.5 z"
               id="path104" />
          </defs>
          <use
             transform="scale(0.996264)"
             xlink:href="#CMR17-1"
             id="use103"
             style="stroke-linecap:butt;stroke-linejoin:round" />
          <path
             d="M 22,43.015625 C 22,43.40625 21.703125,44 20.90625,44 20.203125,44 10.796875,42.984375 9.296875,42.984375 8.203125,42.875 7.203125,42.78125 7.203125,40.984375 7.203125,40 8,40 9.40625,40 c 4.6875,0 5,-0.703125 5,-1.796875 0,-0.40625 -0.203125,-1.59375 -0.3125,-1.984375 L 5.296875,1 c 0,-0.40625 0.296875,-1 1,-1 H 8.40625 C 9.796875,0 25,3.59375 36.703125,15.5625 49.59375,28.84375 51.40625,41.125 51.40625,41.515625 51.40625,43.109375 50.09375,44 48.796875,44 45.90625,44 45.203125,41.3125 45,40.609375 39.09375,19.75 25.40625,7.390625 12.09375,3 Z"
             id="use104"
             style="stroke-linecap:butt;stroke-linejoin:round"
             transform="matrix(0.996264,0,0,0.996264,76.91959,0)" />
        </g>
      </g>
    </g>
  </g>
  <defs
     id="defs104">
    <clipPath
       id="pcc0d1a3f7d">
      <rect
         height="166.32"
         width="334.8"
         x="43.744285"
         y="7.2"
         id="rect104" />
    </clipPath>
  </defs>
</svg>
