<?xml version="1.0" encoding="utf-8" standalone="no"?>
<!DOCTYPE svg PUBLIC "-//W3C//DTD SVG 1.1//EN"
  "http://www.w3.org/Graphics/SVG/1.1/DTD/svg11.dtd">
<svg xmlns:xlink="http://www.w3.org/1999/xlink" width="390.087981pt" height="210.538317pt" viewBox="0 0 390.087981 210.538317" xmlns="http://www.w3.org/2000/svg" version="1.1">
 <metadata>
  <rdf:RDF xmlns:dc="http://purl.org/dc/elements/1.1/" xmlns:cc="http://creativecommons.org/ns#" xmlns:rdf="http://www.w3.org/1999/02/22-rdf-syntax-ns#">
   <cc:Work>
    <dc:type rdf:resource="http://purl.org/dc/dcmitype/StillImage"/>
    <dc:date>2024-03-17T13:28:18.132531</dc:date>
    <dc:format>image/svg+xml</dc:format>
    <dc:creator>
     <cc:Agent>
      <dc:title>Matplotlib v3.8.2, https://matplotlib.org/</dc:title>
     </cc:Agent>
    </dc:creator>
   </cc:Work>
  </rdf:RDF>
 </metadata>
 <defs>
  <style type="text/css">*{stroke-linejoin: round; stroke-linecap: butt}</style>
 </defs>
 <g id="figure_1">
  <g id="patch_1">
   <path d="M 0 210.538317 
L 390.087981 210.538317 
L 390.087981 0 
L 0 0 
L 0 210.538317 
z
" style="fill: none"/>
  </g>
  <g id="axes_1">
   <g id="patch_2">
    <path d="M 48.087981 173.52 
L 382.887981 173.52 
L 382.887981 7.2 
L 48.087981 7.2 
L 48.087981 173.52 
z
" style="fill: none"/>
   </g>
   <g id="matplotlib.axis_1">
    <g id="xtick_1">
     <g id="line2d_1">
      <defs>
       <path id="m44f62612e6" d="M 0 0 
L 0 3.5 
" style="stroke: #000000; stroke-width: 0.8"/>
      </defs>
      <g>
       <use xlink:href="#m44f62612e6" x="48.087981" y="173.52" style="stroke: #000000; stroke-width: 0.8"/>
      </g>
     </g>
     <g id="text_1">
      <!-- $\mathdefault{0}$ -->
      <g transform="translate(45.597313 187.438498) scale(0.1 -0.1)">
       <defs>
        <path id="CMR17-30" d="M 2688 2038 
C 2688 2430 2682 3099 2413 3613 
C 2176 4063 1798 4224 1466 4224 
C 1158 4224 768 4082 525 3620 
C 269 3137 243 2539 243 2038 
C 243 1671 250 1112 448 623 
C 723 -39 1216 -128 1466 -128 
C 1760 -128 2208 -7 2470 604 
C 2662 1048 2688 1568 2688 2038 
z
M 1466 -26 
C 1056 -26 813 328 723 816 
C 653 1196 653 1749 653 2109 
C 653 2604 653 3015 736 3407 
C 858 3954 1216 4121 1466 4121 
C 1728 4121 2067 3947 2189 3420 
C 2272 3054 2278 2623 2278 2109 
C 2278 1691 2278 1176 2202 797 
C 2067 96 1690 -26 1466 -26 
z
" transform="scale(0.015625)"/>
       </defs>
       <use xlink:href="#CMR17-30" transform="scale(0.996264)"/>
      </g>
     </g>
    </g>
    <g id="xtick_2">
     <g id="line2d_2">
      <g>
       <use xlink:href="#m44f62612e6" x="97.432123" y="173.52" style="stroke: #000000; stroke-width: 0.8"/>
      </g>
     </g>
     <g id="text_2">
      <!-- $\mathdefault{20}$ -->
      <g transform="translate(92.450787 187.438498) scale(0.1 -0.1)">
       <defs>
        <path id="CMR17-32" d="M 2669 990 
L 2554 990 
C 2490 537 2438 460 2413 422 
C 2381 371 1920 371 1830 371 
L 602 371 
C 832 620 1280 1073 1824 1596 
C 2214 1966 2669 2400 2669 3033 
C 2669 3788 2067 4224 1395 4224 
C 691 4224 262 3603 262 3027 
C 262 2777 448 2745 525 2745 
C 589 2745 781 2783 781 3007 
C 781 3206 614 3264 525 3264 
C 486 3264 448 3257 422 3244 
C 544 3788 915 4057 1306 4057 
C 1862 4057 2227 3616 2227 3033 
C 2227 2477 1901 1998 1536 1583 
L 262 147 
L 262 0 
L 2515 0 
L 2669 990 
z
" transform="scale(0.015625)"/>
       </defs>
       <use xlink:href="#CMR17-32" transform="scale(0.996264)"/>
       <use xlink:href="#CMR17-30" transform="translate(45.690477 0) scale(0.996264)"/>
      </g>
     </g>
    </g>
    <g id="xtick_3">
     <g id="line2d_3">
      <g>
       <use xlink:href="#m44f62612e6" x="146.776264" y="173.52" style="stroke: #000000; stroke-width: 0.8"/>
      </g>
     </g>
     <g id="text_3">
      <!-- $\mathdefault{40}$ -->
      <g transform="translate(141.794929 187.438498) scale(0.1 -0.1)">
       <defs>
        <path id="CMR17-34" d="M 2150 4147 
C 2150 4281 2144 4288 2029 4288 
L 128 1254 
L 128 1088 
L 1779 1088 
L 1779 460 
C 1779 230 1766 166 1318 166 
L 1197 166 
L 1197 0 
C 1402 12 1747 12 1965 12 
C 2182 12 2528 12 2733 0 
L 2733 166 
L 2611 166 
C 2163 166 2150 230 2150 460 
L 2150 1088 
L 2803 1088 
L 2803 1254 
L 2150 1254 
L 2150 4147 
z
M 1798 3723 
L 1798 1254 
L 256 1254 
L 1798 3723 
z
" transform="scale(0.015625)"/>
       </defs>
       <use xlink:href="#CMR17-34" transform="scale(0.996264)"/>
       <use xlink:href="#CMR17-30" transform="translate(45.690477 0) scale(0.996264)"/>
      </g>
     </g>
    </g>
    <g id="xtick_4">
     <g id="line2d_4">
      <g>
       <use xlink:href="#m44f62612e6" x="196.120406" y="173.52" style="stroke: #000000; stroke-width: 0.8"/>
      </g>
     </g>
     <g id="text_4">
      <!-- $\mathdefault{60}$ -->
      <g transform="translate(191.13907 187.438498) scale(0.1 -0.1)">
       <defs>
        <path id="CMR17-36" d="M 678 2198 
C 678 3712 1395 4076 1811 4076 
C 1946 4076 2272 4049 2400 3782 
C 2298 3782 2106 3782 2106 3558 
C 2106 3385 2246 3328 2336 3328 
C 2394 3328 2566 3353 2566 3571 
C 2566 3987 2246 4224 1805 4224 
C 1043 4224 243 3411 243 2011 
C 243 257 966 -128 1478 -128 
C 2099 -128 2688 431 2688 1295 
C 2688 2101 2170 2688 1517 2688 
C 1126 2688 838 2430 678 1979 
L 678 2198 
z
M 1478 25 
C 691 25 691 1212 691 1450 
C 691 1914 909 2585 1504 2585 
C 1613 2585 1926 2585 2138 2140 
C 2253 1889 2253 1624 2253 1302 
C 2253 954 2253 696 2118 438 
C 1978 173 1773 25 1478 25 
z
" transform="scale(0.015625)"/>
       </defs>
       <use xlink:href="#CMR17-36" transform="scale(0.996264)"/>
       <use xlink:href="#CMR17-30" transform="translate(45.690477 0) scale(0.996264)"/>
      </g>
     </g>
    </g>
    <g id="xtick_5">
     <g id="line2d_5">
      <g>
       <use xlink:href="#m44f62612e6" x="245.464547" y="173.52" style="stroke: #000000; stroke-width: 0.8"/>
      </g>
     </g>
     <g id="text_5">
      <!-- $\mathdefault{80}$ -->
      <g transform="translate(240.483212 187.438498) scale(0.1 -0.1)">
       <defs>
        <path id="CMR17-38" d="M 1741 2289 
C 2144 2494 2554 2803 2554 3298 
C 2554 3884 1990 4224 1472 4224 
C 890 4224 378 3800 378 3215 
C 378 3054 416 2777 666 2533 
C 730 2469 998 2276 1171 2154 
C 883 2006 211 1652 211 945 
C 211 282 838 -128 1459 -128 
C 2144 -128 2720 366 2720 1022 
C 2720 1607 2330 1877 2074 2051 
L 1741 2289 
z
M 902 2855 
C 851 2887 595 3086 595 3388 
C 595 3781 998 4076 1459 4076 
C 1965 4076 2336 3716 2336 3298 
C 2336 2700 1670 2359 1638 2359 
C 1632 2359 1626 2359 1574 2398 
L 902 2855 
z
M 2080 1536 
C 2176 1466 2483 1253 2483 861 
C 2483 385 2010 25 1472 25 
C 890 25 448 443 448 951 
C 448 1459 838 1884 1280 2083 
L 2080 1536 
z
" transform="scale(0.015625)"/>
       </defs>
       <use xlink:href="#CMR17-38" transform="scale(0.996264)"/>
       <use xlink:href="#CMR17-30" transform="translate(45.690477 0) scale(0.996264)"/>
      </g>
     </g>
    </g>
    <g id="xtick_6">
     <g id="line2d_6">
      <g>
       <use xlink:href="#m44f62612e6" x="294.808689" y="173.52" style="stroke: #000000; stroke-width: 0.8"/>
      </g>
     </g>
     <g id="text_6">
      <!-- $\mathdefault{100}$ -->
      <g transform="translate(287.336686 187.438498) scale(0.1 -0.1)">
       <defs>
        <path id="CMR17-31" d="M 1702 4083 
C 1702 4217 1696 4224 1606 4224 
C 1357 3927 979 3833 621 3820 
C 602 3820 570 3820 563 3808 
C 557 3795 557 3782 557 3648 
C 755 3648 1088 3686 1344 3839 
L 1344 467 
C 1344 243 1331 166 781 166 
L 589 166 
L 589 0 
C 896 6 1216 12 1523 12 
C 1830 12 2150 6 2458 0 
L 2458 166 
L 2266 166 
C 1715 166 1702 236 1702 467 
L 1702 4083 
z
" transform="scale(0.015625)"/>
       </defs>
       <use xlink:href="#CMR17-31" transform="scale(0.996264)"/>
       <use xlink:href="#CMR17-30" transform="translate(45.690477 0) scale(0.996264)"/>
       <use xlink:href="#CMR17-30" transform="translate(91.380954 0) scale(0.996264)"/>
      </g>
     </g>
    </g>
    <g id="xtick_7">
     <g id="line2d_7">
      <g>
       <use xlink:href="#m44f62612e6" x="344.15283" y="173.52" style="stroke: #000000; stroke-width: 0.8"/>
      </g>
     </g>
     <g id="text_7">
      <!-- $\mathdefault{120}$ -->
      <g transform="translate(336.680827 187.438498) scale(0.1 -0.1)">
       <use xlink:href="#CMR17-31" transform="scale(0.996264)"/>
       <use xlink:href="#CMR17-32" transform="translate(45.690477 0) scale(0.996264)"/>
       <use xlink:href="#CMR17-30" transform="translate(91.380954 0) scale(0.996264)"/>
      </g>
     </g>
    </g>
    <g id="text_8">
     <!-- $\nu\mod\Delta\nu/\mu$Hz -->
     <g transform="translate(179.810485 200.847657) scale(0.1 -0.1)">
      <defs>
       <path id="CMMI12-17" d="M 1408 2751 
C 1408 2777 1389 2816 1338 2816 
C 1293 2816 691 2758 595 2751 
C 525 2745 461 2739 461 2623 
C 461 2559 512 2559 602 2559 
C 902 2559 922 2515 922 2445 
C 922 2419 909 2343 902 2317 
L 339 64 
C 339 38 358 0 403 0 
L 538 0 
C 627 0 1600 230 2349 996 
C 3174 1845 3290 2630 3290 2655 
C 3290 2758 3206 2816 3123 2816 
C 2938 2816 2893 2643 2880 2598 
C 2502 1264 1626 472 774 192 
L 1408 2751 
z
" transform="scale(0.015625)"/>
       <path id="CMR17-6d" d="M 4326 1954 
C 4326 2276 4269 2816 3507 2816 
C 3072 2816 2771 2520 2656 2173 
L 2650 2173 
C 2573 2700 2195 2816 1837 2816 
C 1331 2816 1069 2424 973 2166 
L 966 2166 
L 966 2816 
L 211 2745 
L 211 2578 
C 589 2578 646 2540 646 2231 
L 646 443 
C 646 198 621 166 211 166 
L 211 0 
C 365 12 646 12 813 12 
C 979 12 1267 12 1421 0 
L 1421 166 
C 1011 166 986 192 986 443 
L 986 1678 
C 986 2269 1344 2713 1792 2713 
C 2266 2713 2317 2289 2317 1980 
L 2317 443 
C 2317 198 2291 166 1882 166 
L 1882 0 
C 2035 12 2317 12 2483 12 
C 2650 12 2938 12 3091 0 
L 3091 166 
C 2682 166 2656 192 2656 443 
L 2656 1678 
C 2656 2269 3014 2713 3462 2713 
C 3936 2713 3987 2289 3987 1980 
L 3987 443 
C 3987 198 3962 166 3552 166 
L 3552 0 
C 3706 12 3987 12 4154 12 
C 4320 12 4608 12 4762 0 
L 4762 166 
C 4352 166 4326 192 4326 443 
L 4326 1954 
z
" transform="scale(0.015625)"/>
       <path id="CMR17-6f" d="M 2758 1356 
C 2758 2176 2163 2816 1466 2816 
C 768 2816 173 2176 173 1356 
C 173 550 768 -64 1466 -64 
C 2163 -64 2758 550 2758 1356 
z
M 1466 51 
C 1165 51 909 230 762 480 
C 602 768 582 1126 582 1408 
C 582 1676 595 2009 762 2297 
C 890 2508 1139 2713 1466 2713 
C 1754 2713 1997 2553 2150 2329 
C 2349 2028 2349 1606 2349 1408 
C 2349 1158 2336 774 2163 467 
C 1984 172 1709 51 1466 51 
z
" transform="scale(0.015625)"/>
       <path id="CMR17-64" d="M 1869 4345 
L 1869 4179 
C 2246 4179 2304 4141 2304 3843 
L 2304 2371 
C 2278 2403 2016 2816 1498 2816 
C 845 2816 211 2228 211 1376 
C 211 529 806 -64 1434 -64 
C 1978 -64 2259 361 2291 406 
L 2291 -64 
L 3066 -13 
L 3066 154 
C 2688 154 2630 193 2630 503 
L 2630 4416 
L 1869 4345 
z
M 2291 762 
C 2291 568 2176 393 2029 264 
C 1811 70 1594 38 1472 38 
C 1286 38 621 135 621 1369 
C 621 2636 1363 2713 1530 2713 
C 1824 2713 2061 2545 2208 2313 
C 2291 2177 2291 2157 2291 2041 
L 2291 762 
z
" transform="scale(0.015625)"/>
       <path id="CMR17-1" d="M 2598 4435 
C 2547 4544 2522 4544 2470 4544 
C 2394 4544 2387 4531 2342 4441 
L 269 108 
C 262 96 237 38 237 32 
C 237 6 243 0 358 0 
L 4576 0 
C 4691 0 4698 6 4698 32 
C 4698 38 4672 96 4666 108 
L 2598 4435 
z
M 2310 4056 
L 4083 358 
L 531 358 
L 2310 4056 
z
" transform="scale(0.015625)"/>
       <path id="CMMI12-3d" d="M 2746 4563 
C 2746 4569 2784 4665 2784 4678 
C 2784 4755 2720 4800 2669 4800 
C 2637 4800 2579 4800 2528 4659 
L 384 -1364 
C 384 -1370 346 -1466 346 -1479 
C 346 -1556 410 -1600 461 -1600 
C 499 -1600 557 -1594 602 -1460 
L 2746 4563 
z
" transform="scale(0.015625)"/>
       <path id="CMMI12-16" d="M 922 140 
C 1082 -7 1318 -64 1536 -64 
C 1946 -64 2227 210 2374 408 
C 2438 70 2707 -64 2931 -64 
C 3123 -64 3277 51 3392 281 
C 3494 498 3584 887 3584 913 
C 3584 944 3558 970 3520 970 
C 3462 970 3456 938 3430 842 
C 3334 466 3213 64 2950 64 
C 2765 64 2752 229 2752 357 
C 2752 504 2810 734 2854 925 
L 3034 1615 
C 3059 1736 3130 2023 3162 2138 
C 3200 2291 3270 2566 3270 2591 
C 3270 2687 3194 2752 3098 2752 
C 3040 2752 2906 2726 2854 2534 
L 2406 759 
C 2374 632 2374 619 2291 517 
C 2214 408 1965 64 1562 64 
C 1203 64 1088 325 1088 625 
C 1088 811 1146 1034 1171 1143 
L 1459 2292 
C 1491 2413 1542 2617 1542 2656 
C 1542 2758 1459 2816 1376 2816 
C 1318 2816 1178 2796 1126 2592 
L 198 -1085 
C 192 -1116 179 -1154 179 -1191 
C 179 -1287 256 -1351 352 -1351 
C 538 -1351 576 -1204 621 -1029 
L 922 140 
z
" transform="scale(0.015625)"/>
       <path id="CMR17-48" d="M 3590 3898 
C 3590 4185 3661 4185 4102 4185 
L 4102 4352 
C 3917 4339 3578 4339 3379 4339 
C 3181 4339 2842 4339 2656 4352 
L 2656 4185 
C 3098 4185 3168 4185 3168 3898 
L 3168 2342 
L 1261 2342 
L 1261 3898 
C 1261 4185 1331 4185 1773 4185 
L 1773 4352 
C 1587 4339 1248 4339 1050 4339 
C 851 4339 512 4339 326 4352 
L 326 4185 
C 768 4185 838 4185 838 3898 
L 838 452 
C 838 166 768 166 326 166 
L 326 0 
C 512 12 851 12 1050 12 
C 1248 12 1587 12 1773 0 
L 1773 166 
C 1331 166 1261 166 1261 452 
L 1261 2176 
L 3168 2176 
L 3168 452 
C 3168 166 3098 166 2656 166 
L 2656 0 
C 2842 12 3181 12 3379 12 
C 3578 12 3917 12 4102 0 
L 4102 166 
C 3661 166 3590 166 3590 452 
L 3590 3898 
z
" transform="scale(0.015625)"/>
       <path id="CMR17-7a" d="M 2310 2604 
C 2362 2668 2362 2681 2362 2694 
C 2362 2752 2336 2752 2221 2752 
L 275 2752 
L 211 1760 
L 326 1760 
C 371 2380 442 2649 1178 2649 
L 1958 2649 
L 128 96 
C 128 6 134 0 269 0 
L 2291 0 
L 2381 1152 
L 2266 1152 
C 2214 441 2131 115 1350 115 
L 531 115 
L 2310 2604 
z
" transform="scale(0.015625)"/>
      </defs>
      <use xlink:href="#CMMI12-17" transform="scale(0.996264)"/>
      <use xlink:href="#CMR17-6d" transform="translate(120.900414 0) scale(0.996264)"/>
      <use xlink:href="#CMR17-6f" transform="translate(197.820004 0) scale(0.996264)"/>
      <use xlink:href="#CMR17-64" transform="translate(246.112919 0) scale(0.996264)"/>
      <use xlink:href="#CMR17-1" transform="translate(330.2171 0) scale(0.996264)"/>
      <use xlink:href="#CMMI12-17" transform="translate(407.13669 0) scale(0.996264)"/>
      <use xlink:href="#CMMI12-3d" transform="translate(461.619482 0) scale(0.996264)"/>
      <use xlink:href="#CMMI12-16" transform="translate(510.394401 0) scale(0.996264)"/>
      <use xlink:href="#CMR17-48" transform="translate(569.085823 0) scale(0.996264)"/>
      <use xlink:href="#CMR17-7a" transform="translate(638.158252 0) scale(0.996264)"/>
     </g>
    </g>
   </g>
   <g id="matplotlib.axis_2">
    <g id="ytick_1">
     <g id="line2d_8">
      <defs>
       <path id="m2d27d810f1" d="M 0 0 
L -3.5 0 
" style="stroke: #000000; stroke-width: 0.8"/>
      </defs>
      <g>
       <use xlink:href="#m2d27d810f1" x="48.087981" y="154.741935" style="stroke: #000000; stroke-width: 0.8"/>
      </g>
     </g>
     <g id="text_9">
      <!-- $\mathdefault{1500}$ -->
      <g transform="translate(21.16264 158.201185) scale(0.1 -0.1)">
       <defs>
        <path id="CMR17-35" d="M 730 3750 
C 794 3724 1056 3641 1325 3641 
C 1920 3641 2246 3961 2432 4140 
C 2432 4191 2432 4224 2394 4224 
C 2387 4224 2374 4224 2323 4198 
C 2099 4102 1837 4032 1517 4032 
C 1325 4032 1037 4055 723 4191 
C 653 4224 640 4224 634 4224 
C 602 4224 595 4217 595 4090 
L 595 2231 
C 595 2113 595 2080 659 2080 
C 691 2080 704 2093 736 2139 
C 941 2435 1222 2560 1542 2560 
C 1766 2560 2246 2415 2246 1293 
C 2246 1087 2246 716 2054 422 
C 1894 159 1645 25 1370 25 
C 947 25 518 319 403 812 
C 429 806 480 793 506 793 
C 589 793 749 838 749 1036 
C 749 1209 627 1280 506 1280 
C 358 1280 262 1190 262 1011 
C 262 454 704 -128 1382 -128 
C 2042 -128 2669 441 2669 1267 
C 2669 2054 2170 2662 1549 2662 
C 1222 2662 947 2540 730 2304 
L 730 3750 
z
" transform="scale(0.015625)"/>
       </defs>
       <use xlink:href="#CMR17-31" transform="scale(0.996264)"/>
       <use xlink:href="#CMR17-35" transform="translate(45.690477 0) scale(0.996264)"/>
       <use xlink:href="#CMR17-30" transform="translate(91.380954 0) scale(0.996264)"/>
       <use xlink:href="#CMR17-30" transform="translate(137.071431 0) scale(0.996264)"/>
      </g>
     </g>
    </g>
    <g id="ytick_2">
     <g id="line2d_9">
      <g>
       <use xlink:href="#m2d27d810f1" x="48.087981" y="127.916129" style="stroke: #000000; stroke-width: 0.8"/>
      </g>
     </g>
     <g id="text_10">
      <!-- $\mathdefault{2000}$ -->
      <g transform="translate(21.16264 131.375378) scale(0.1 -0.1)">
       <use xlink:href="#CMR17-32" transform="scale(0.996264)"/>
       <use xlink:href="#CMR17-30" transform="translate(45.690477 0) scale(0.996264)"/>
       <use xlink:href="#CMR17-30" transform="translate(91.380954 0) scale(0.996264)"/>
       <use xlink:href="#CMR17-30" transform="translate(137.071431 0) scale(0.996264)"/>
      </g>
     </g>
    </g>
    <g id="ytick_3">
     <g id="line2d_10">
      <g>
       <use xlink:href="#m2d27d810f1" x="48.087981" y="101.090323" style="stroke: #000000; stroke-width: 0.8"/>
      </g>
     </g>
     <g id="text_11">
      <!-- $\mathdefault{2500}$ -->
      <g transform="translate(21.16264 104.549572) scale(0.1 -0.1)">
       <use xlink:href="#CMR17-32" transform="scale(0.996264)"/>
       <use xlink:href="#CMR17-35" transform="translate(45.690477 0) scale(0.996264)"/>
       <use xlink:href="#CMR17-30" transform="translate(91.380954 0) scale(0.996264)"/>
       <use xlink:href="#CMR17-30" transform="translate(137.071431 0) scale(0.996264)"/>
      </g>
     </g>
    </g>
    <g id="ytick_4">
     <g id="line2d_11">
      <g>
       <use xlink:href="#m2d27d810f1" x="48.087981" y="74.264516" style="stroke: #000000; stroke-width: 0.8"/>
      </g>
     </g>
     <g id="text_12">
      <!-- $\mathdefault{3000}$ -->
      <g transform="translate(21.16264 77.723765) scale(0.1 -0.1)">
       <defs>
        <path id="CMR17-33" d="M 1414 2176 
C 1984 2176 2234 1673 2234 1094 
C 2234 322 1824 25 1453 25 
C 1114 25 563 193 390 691 
C 422 678 454 678 486 678 
C 640 678 755 780 755 947 
C 755 1132 614 1216 486 1216 
C 378 1216 211 1164 211 927 
C 211 335 787 -128 1466 -128 
C 2176 -128 2720 432 2720 1087 
C 2720 1718 2208 2176 1600 2246 
C 2086 2347 2554 2776 2554 3353 
C 2554 3856 2048 4224 1472 4224 
C 890 4224 378 3862 378 3347 
C 378 3123 544 3084 627 3084 
C 762 3084 877 3167 877 3334 
C 877 3500 762 3584 627 3584 
C 602 3584 570 3584 544 3571 
C 730 3999 1235 4076 1459 4076 
C 1683 4076 2106 3966 2106 3347 
C 2106 3167 2080 2851 1862 2574 
C 1670 2329 1453 2316 1242 2297 
C 1210 2297 1062 2284 1037 2284 
C 992 2278 966 2272 966 2227 
C 966 2182 973 2176 1101 2176 
L 1414 2176 
z
" transform="scale(0.015625)"/>
       </defs>
       <use xlink:href="#CMR17-33" transform="scale(0.996264)"/>
       <use xlink:href="#CMR17-30" transform="translate(45.690477 0) scale(0.996264)"/>
       <use xlink:href="#CMR17-30" transform="translate(91.380954 0) scale(0.996264)"/>
       <use xlink:href="#CMR17-30" transform="translate(137.071431 0) scale(0.996264)"/>
      </g>
     </g>
    </g>
    <g id="ytick_5">
     <g id="line2d_12">
      <g>
       <use xlink:href="#m2d27d810f1" x="48.087981" y="47.43871" style="stroke: #000000; stroke-width: 0.8"/>
      </g>
     </g>
     <g id="text_13">
      <!-- $\mathdefault{3500}$ -->
      <g transform="translate(21.16264 50.897959) scale(0.1 -0.1)">
       <use xlink:href="#CMR17-33" transform="scale(0.996264)"/>
       <use xlink:href="#CMR17-35" transform="translate(45.690477 0) scale(0.996264)"/>
       <use xlink:href="#CMR17-30" transform="translate(91.380954 0) scale(0.996264)"/>
       <use xlink:href="#CMR17-30" transform="translate(137.071431 0) scale(0.996264)"/>
      </g>
     </g>
    </g>
    <g id="ytick_6">
     <g id="line2d_13">
      <g>
       <use xlink:href="#m2d27d810f1" x="48.087981" y="20.612903" style="stroke: #000000; stroke-width: 0.8"/>
      </g>
     </g>
     <g id="text_14">
      <!-- $\mathdefault{4000}$ -->
      <g transform="translate(21.16264 24.072152) scale(0.1 -0.1)">
       <use xlink:href="#CMR17-34" transform="scale(0.996264)"/>
       <use xlink:href="#CMR17-30" transform="translate(45.690477 0) scale(0.996264)"/>
       <use xlink:href="#CMR17-30" transform="translate(91.380954 0) scale(0.996264)"/>
       <use xlink:href="#CMR17-30" transform="translate(137.071431 0) scale(0.996264)"/>
      </g>
     </g>
    </g>
    <g id="text_15">
     <!-- $\nu/\mu$Hz -->
     <g transform="translate(14.67198 104.579846) rotate(-90) scale(0.1 -0.1)">
      <use xlink:href="#CMMI12-17" transform="scale(0.996264)"/>
      <use xlink:href="#CMMI12-3d" transform="translate(54.482793 0) scale(0.996264)"/>
      <use xlink:href="#CMMI12-16" transform="translate(103.257712 0) scale(0.996264)"/>
      <use xlink:href="#CMR17-48" transform="translate(161.949133 0) scale(0.996264)"/>
      <use xlink:href="#CMR17-7a" transform="translate(231.021563 0) scale(0.996264)"/>
     </g>
    </g>
   </g>
   <g id="line2d_14">
    <path d="M 172.635858 162.414116 
L 185.37113 155.133592 
L 191.65046 147.853068 
L 191.461805 140.572545 
L 190.278076 133.292021 
L 191.175148 126.011497 
L 190.119117 118.730973 
L 185.922457 111.450449 
L 180.181984 104.169925 
L 174.794484 96.889401 
L 171.764567 89.608877 
L 169.747191 82.328354 
L 167.343711 75.04783 
L 165.308868 67.767306 
L 163.398712 60.486782 
L 162.828772 53.206258 
L 163.295469 45.925734 
L 164.151281 38.64521 
L 166.503921 31.364686 
L 169.403491 24.084163 
" clip-path="url(#p47a6b64cb6)" style="fill: none; stroke: #006ba4; stroke-width: 1.5; stroke-linecap: square"/>
    <defs>
     <path id="m2d54dbdcbd" d="M 0 1.5 
C 0.397805 1.5 0.77937 1.341951 1.06066 1.06066 
C 1.341951 0.77937 1.5 0.397805 1.5 0 
C 1.5 -0.397805 1.341951 -0.77937 1.06066 -1.06066 
C 0.77937 -1.341951 0.397805 -1.5 0 -1.5 
C -0.397805 -1.5 -0.77937 -1.341951 -1.06066 -1.06066 
C -1.341951 -0.77937 -1.5 -0.397805 -1.5 0 
C -1.5 0.397805 -1.341951 0.77937 -1.06066 1.06066 
C -0.77937 1.341951 -0.397805 1.5 0 1.5 
z
" style="stroke: #006ba4"/>
    </defs>
    <g clip-path="url(#p47a6b64cb6)">
     <use xlink:href="#m2d54dbdcbd" x="172.635858" y="162.414116" style="fill: #006ba4; stroke: #006ba4"/>
     <use xlink:href="#m2d54dbdcbd" x="185.37113" y="155.133592" style="fill: #006ba4; stroke: #006ba4"/>
     <use xlink:href="#m2d54dbdcbd" x="191.65046" y="147.853068" style="fill: #006ba4; stroke: #006ba4"/>
     <use xlink:href="#m2d54dbdcbd" x="191.461805" y="140.572545" style="fill: #006ba4; stroke: #006ba4"/>
     <use xlink:href="#m2d54dbdcbd" x="190.278076" y="133.292021" style="fill: #006ba4; stroke: #006ba4"/>
     <use xlink:href="#m2d54dbdcbd" x="191.175148" y="126.011497" style="fill: #006ba4; stroke: #006ba4"/>
     <use xlink:href="#m2d54dbdcbd" x="190.119117" y="118.730973" style="fill: #006ba4; stroke: #006ba4"/>
     <use xlink:href="#m2d54dbdcbd" x="185.922457" y="111.450449" style="fill: #006ba4; stroke: #006ba4"/>
     <use xlink:href="#m2d54dbdcbd" x="180.181984" y="104.169925" style="fill: #006ba4; stroke: #006ba4"/>
     <use xlink:href="#m2d54dbdcbd" x="174.794484" y="96.889401" style="fill: #006ba4; stroke: #006ba4"/>
     <use xlink:href="#m2d54dbdcbd" x="171.764567" y="89.608877" style="fill: #006ba4; stroke: #006ba4"/>
     <use xlink:href="#m2d54dbdcbd" x="169.747191" y="82.328354" style="fill: #006ba4; stroke: #006ba4"/>
     <use xlink:href="#m2d54dbdcbd" x="167.343711" y="75.04783" style="fill: #006ba4; stroke: #006ba4"/>
     <use xlink:href="#m2d54dbdcbd" x="165.308868" y="67.767306" style="fill: #006ba4; stroke: #006ba4"/>
     <use xlink:href="#m2d54dbdcbd" x="163.398712" y="60.486782" style="fill: #006ba4; stroke: #006ba4"/>
     <use xlink:href="#m2d54dbdcbd" x="162.828772" y="53.206258" style="fill: #006ba4; stroke: #006ba4"/>
     <use xlink:href="#m2d54dbdcbd" x="163.295469" y="45.925734" style="fill: #006ba4; stroke: #006ba4"/>
     <use xlink:href="#m2d54dbdcbd" x="164.151281" y="38.64521" style="fill: #006ba4; stroke: #006ba4"/>
     <use xlink:href="#m2d54dbdcbd" x="166.503921" y="31.364686" style="fill: #006ba4; stroke: #006ba4"/>
     <use xlink:href="#m2d54dbdcbd" x="169.403491" y="24.084163" style="fill: #006ba4; stroke: #006ba4"/>
    </g>
   </g>
   <g id="line2d_15">
    <path d="M 333.891874 162.414116 
L 344.195476 155.133592 
L 346.362895 147.853068 
L 346.593172 140.572545 
L 346.616243 133.292021 
L 347.312133 126.011497 
L 346.078409 118.730973 
L 340.912573 111.450449 
L 335.754568 104.169925 
L 331.896424 96.889401 
L 329.589321 89.608877 
L 328.378485 82.328354 
L 326.209319 75.04783 
L 324.53227 67.767306 
L 323.662964 60.486782 
L 323.663445 53.206258 
L 324.777063 45.925734 
" clip-path="url(#p47a6b64cb6)" style="fill: none; stroke: #ff800e; stroke-width: 1.5; stroke-linecap: square"/>
    <defs>
     <path id="m78c1a5a5d2" d="M 0 1.5 
C 0.397805 1.5 0.77937 1.341951 1.06066 1.06066 
C 1.341951 0.77937 1.5 0.397805 1.5 0 
C 1.5 -0.397805 1.341951 -0.77937 1.06066 -1.06066 
C 0.77937 -1.341951 0.397805 -1.5 0 -1.5 
C -0.397805 -1.5 -0.77937 -1.341951 -1.06066 -1.06066 
C -1.341951 -0.77937 -1.5 -0.397805 -1.5 0 
C -1.5 0.397805 -1.341951 0.77937 -1.06066 1.06066 
C -0.77937 1.341951 -0.397805 1.5 0 1.5 
z
" style="stroke: #ff800e"/>
    </defs>
    <g clip-path="url(#p47a6b64cb6)">
     <use xlink:href="#m78c1a5a5d2" x="333.891874" y="162.414116" style="fill: #ff800e; stroke: #ff800e"/>
     <use xlink:href="#m78c1a5a5d2" x="344.195476" y="155.133592" style="fill: #ff800e; stroke: #ff800e"/>
     <use xlink:href="#m78c1a5a5d2" x="346.362895" y="147.853068" style="fill: #ff800e; stroke: #ff800e"/>
     <use xlink:href="#m78c1a5a5d2" x="346.593172" y="140.572545" style="fill: #ff800e; stroke: #ff800e"/>
     <use xlink:href="#m78c1a5a5d2" x="346.616243" y="133.292021" style="fill: #ff800e; stroke: #ff800e"/>
     <use xlink:href="#m78c1a5a5d2" x="347.312133" y="126.011497" style="fill: #ff800e; stroke: #ff800e"/>
     <use xlink:href="#m78c1a5a5d2" x="346.078409" y="118.730973" style="fill: #ff800e; stroke: #ff800e"/>
     <use xlink:href="#m78c1a5a5d2" x="340.912573" y="111.450449" style="fill: #ff800e; stroke: #ff800e"/>
     <use xlink:href="#m78c1a5a5d2" x="335.754568" y="104.169925" style="fill: #ff800e; stroke: #ff800e"/>
     <use xlink:href="#m78c1a5a5d2" x="331.896424" y="96.889401" style="fill: #ff800e; stroke: #ff800e"/>
     <use xlink:href="#m78c1a5a5d2" x="329.589321" y="89.608877" style="fill: #ff800e; stroke: #ff800e"/>
     <use xlink:href="#m78c1a5a5d2" x="328.378485" y="82.328354" style="fill: #ff800e; stroke: #ff800e"/>
     <use xlink:href="#m78c1a5a5d2" x="326.209319" y="75.04783" style="fill: #ff800e; stroke: #ff800e"/>
     <use xlink:href="#m78c1a5a5d2" x="324.53227" y="67.767306" style="fill: #ff800e; stroke: #ff800e"/>
     <use xlink:href="#m78c1a5a5d2" x="323.662964" y="60.486782" style="fill: #ff800e; stroke: #ff800e"/>
     <use xlink:href="#m78c1a5a5d2" x="323.663445" y="53.206258" style="fill: #ff800e; stroke: #ff800e"/>
     <use xlink:href="#m78c1a5a5d2" x="324.777063" y="45.925734" style="fill: #ff800e; stroke: #ff800e"/>
    </g>
   </g>
   <g id="line2d_16">
    <path d="M 141.057596 162.414116 
L 154.576216 155.133592 
L 161.891882 147.853068 
L 162.130893 140.572545 
L 161.590167 133.292021 
L 163.073324 126.011497 
L 162.758175 118.730973 
L 159.843306 111.450449 
L 154.808782 104.169925 
L 150.157349 96.889401 
L 147.896023 89.608877 
L 146.393655 82.328354 
L 145.017777 75.04783 
L 143.568414 67.767306 
L 142.55093 60.486782 
L 142.600203 53.206258 
L 143.828265 45.925734 
L 145.30329 38.64521 
L 148.177561 31.364686 
" clip-path="url(#p47a6b64cb6)" style="fill: none; stroke: #ababab; stroke-width: 1.5; stroke-linecap: square"/>
    <defs>
     <path id="m77c5872cd4" d="M 0 1.5 
C 0.397805 1.5 0.77937 1.341951 1.06066 1.06066 
C 1.341951 0.77937 1.5 0.397805 1.5 0 
C 1.5 -0.397805 1.341951 -0.77937 1.06066 -1.06066 
C 0.77937 -1.341951 0.397805 -1.5 0 -1.5 
C -0.397805 -1.5 -0.77937 -1.341951 -1.06066 -1.06066 
C -1.341951 -0.77937 -1.5 -0.397805 -1.5 0 
C -1.5 0.397805 -1.341951 0.77937 -1.06066 1.06066 
C -0.77937 1.341951 -0.397805 1.5 0 1.5 
z
" style="stroke: #ababab"/>
    </defs>
    <g clip-path="url(#p47a6b64cb6)">
     <use xlink:href="#m77c5872cd4" x="141.057596" y="162.414116" style="fill: #ababab; stroke: #ababab"/>
     <use xlink:href="#m77c5872cd4" x="154.576216" y="155.133592" style="fill: #ababab; stroke: #ababab"/>
     <use xlink:href="#m77c5872cd4" x="161.891882" y="147.853068" style="fill: #ababab; stroke: #ababab"/>
     <use xlink:href="#m77c5872cd4" x="162.130893" y="140.572545" style="fill: #ababab; stroke: #ababab"/>
     <use xlink:href="#m77c5872cd4" x="161.590167" y="133.292021" style="fill: #ababab; stroke: #ababab"/>
     <use xlink:href="#m77c5872cd4" x="163.073324" y="126.011497" style="fill: #ababab; stroke: #ababab"/>
     <use xlink:href="#m77c5872cd4" x="162.758175" y="118.730973" style="fill: #ababab; stroke: #ababab"/>
     <use xlink:href="#m77c5872cd4" x="159.843306" y="111.450449" style="fill: #ababab; stroke: #ababab"/>
     <use xlink:href="#m77c5872cd4" x="154.808782" y="104.169925" style="fill: #ababab; stroke: #ababab"/>
     <use xlink:href="#m77c5872cd4" x="150.157349" y="96.889401" style="fill: #ababab; stroke: #ababab"/>
     <use xlink:href="#m77c5872cd4" x="147.896023" y="89.608877" style="fill: #ababab; stroke: #ababab"/>
     <use xlink:href="#m77c5872cd4" x="146.393655" y="82.328354" style="fill: #ababab; stroke: #ababab"/>
     <use xlink:href="#m77c5872cd4" x="145.017777" y="75.04783" style="fill: #ababab; stroke: #ababab"/>
     <use xlink:href="#m77c5872cd4" x="143.568414" y="67.767306" style="fill: #ababab; stroke: #ababab"/>
     <use xlink:href="#m77c5872cd4" x="142.55093" y="60.486782" style="fill: #ababab; stroke: #ababab"/>
     <use xlink:href="#m77c5872cd4" x="142.600203" y="53.206258" style="fill: #ababab; stroke: #ababab"/>
     <use xlink:href="#m77c5872cd4" x="143.828265" y="45.925734" style="fill: #ababab; stroke: #ababab"/>
     <use xlink:href="#m77c5872cd4" x="145.30329" y="38.64521" style="fill: #ababab; stroke: #ababab"/>
     <use xlink:href="#m77c5872cd4" x="148.177561" y="31.364686" style="fill: #ababab; stroke: #ababab"/>
    </g>
   </g>
   <g id="line2d_17">
    <path d="M 279.972015 162.414116 
L 292.03296 155.133592 
L 296.557961 147.853068 
L 297.722475 140.572545 
L 298.307233 133.292021 
L 300.435801 126.011497 
L 300.534464 118.730973 
L 296.683549 111.450449 
L 292.530859 104.169925 
L 289.604545 96.889401 
L 288.275048 89.608877 
L 288.099644 82.328354 
L 287.207451 75.04783 
L 286.450181 67.767306 
L 286.38802 60.486782 
L 287.235399 53.206258 
L 289.436249 45.925734 
L 291.242563 38.64521 
" clip-path="url(#p47a6b64cb6)" style="fill: none; stroke: #595959; stroke-width: 1.5; stroke-linecap: square"/>
    <defs>
     <path id="mdfeae3eadb" d="M 0 1.5 
C 0.397805 1.5 0.77937 1.341951 1.06066 1.06066 
C 1.341951 0.77937 1.5 0.397805 1.5 0 
C 1.5 -0.397805 1.341951 -0.77937 1.06066 -1.06066 
C 0.77937 -1.341951 0.397805 -1.5 0 -1.5 
C -0.397805 -1.5 -0.77937 -1.341951 -1.06066 -1.06066 
C -1.341951 -0.77937 -1.5 -0.397805 -1.5 0 
C -1.5 0.397805 -1.341951 0.77937 -1.06066 1.06066 
C -0.77937 1.341951 -0.397805 1.5 0 1.5 
z
" style="stroke: #595959"/>
    </defs>
    <g clip-path="url(#p47a6b64cb6)">
     <use xlink:href="#mdfeae3eadb" x="279.972015" y="162.414116" style="fill: #595959; stroke: #595959"/>
     <use xlink:href="#mdfeae3eadb" x="292.03296" y="155.133592" style="fill: #595959; stroke: #595959"/>
     <use xlink:href="#mdfeae3eadb" x="296.557961" y="147.853068" style="fill: #595959; stroke: #595959"/>
     <use xlink:href="#mdfeae3eadb" x="297.722475" y="140.572545" style="fill: #595959; stroke: #595959"/>
     <use xlink:href="#mdfeae3eadb" x="298.307233" y="133.292021" style="fill: #595959; stroke: #595959"/>
     <use xlink:href="#mdfeae3eadb" x="300.435801" y="126.011497" style="fill: #595959; stroke: #595959"/>
     <use xlink:href="#mdfeae3eadb" x="300.534464" y="118.730973" style="fill: #595959; stroke: #595959"/>
     <use xlink:href="#mdfeae3eadb" x="296.683549" y="111.450449" style="fill: #595959; stroke: #595959"/>
     <use xlink:href="#mdfeae3eadb" x="292.530859" y="104.169925" style="fill: #595959; stroke: #595959"/>
     <use xlink:href="#mdfeae3eadb" x="289.604545" y="96.889401" style="fill: #595959; stroke: #595959"/>
     <use xlink:href="#mdfeae3eadb" x="288.275048" y="89.608877" style="fill: #595959; stroke: #595959"/>
     <use xlink:href="#mdfeae3eadb" x="288.099644" y="82.328354" style="fill: #595959; stroke: #595959"/>
     <use xlink:href="#mdfeae3eadb" x="287.207451" y="75.04783" style="fill: #595959; stroke: #595959"/>
     <use xlink:href="#mdfeae3eadb" x="286.450181" y="67.767306" style="fill: #595959; stroke: #595959"/>
     <use xlink:href="#mdfeae3eadb" x="286.38802" y="60.486782" style="fill: #595959; stroke: #595959"/>
     <use xlink:href="#mdfeae3eadb" x="287.235399" y="53.206258" style="fill: #595959; stroke: #595959"/>
     <use xlink:href="#mdfeae3eadb" x="289.436249" y="45.925734" style="fill: #595959; stroke: #595959"/>
     <use xlink:href="#mdfeae3eadb" x="291.242563" y="38.64521" style="fill: #595959; stroke: #595959"/>
    </g>
   </g>
   <g id="patch_3">
    <path d="M 48.087981 173.52 
L 48.087981 7.2 
" style="fill: none; stroke: #000000; stroke-width: 0.8; stroke-linejoin: miter; stroke-linecap: square"/>
   </g>
   <g id="patch_4">
    <path d="M 382.887981 173.52 
L 382.887981 7.2 
" style="fill: none; stroke: #000000; stroke-width: 0.8; stroke-linejoin: miter; stroke-linecap: square"/>
   </g>
   <g id="patch_5">
    <path d="M 48.087981 173.52 
L 382.887981 173.52 
" style="fill: none; stroke: #000000; stroke-width: 0.8; stroke-linejoin: miter; stroke-linecap: square"/>
   </g>
   <g id="patch_6">
    <path d="M 48.087981 7.2 
L 382.887981 7.2 
" style="fill: none; stroke: #000000; stroke-width: 0.8; stroke-linejoin: miter; stroke-linecap: square"/>
   </g>
   <g id="legend_1">
    <g id="patch_7">
     <path d="M 55.087981 70.948713 
L 109.503845 70.948713 
Q 111.503845 70.948713 111.503845 68.948713 
L 111.503845 14.2 
Q 111.503845 12.2 109.503845 12.2 
L 55.087981 12.2 
Q 53.087981 12.2 53.087981 14.2 
L 53.087981 68.948713 
Q 53.087981 70.948713 55.087981 70.948713 
z
" style="fill: #ffffff; opacity: 0.8; stroke: #cccccc; stroke-linejoin: miter"/>
    </g>
    <g id="line2d_18">
     <path d="M 57.087981 19.7 
L 67.087981 19.7 
L 77.087981 19.7 
" style="fill: none; stroke: #006ba4; stroke-width: 1.5; stroke-linecap: square"/>
     <g>
      <use xlink:href="#m2d54dbdcbd" x="67.087981" y="19.7" style="fill: #006ba4; stroke: #006ba4"/>
     </g>
    </g>
    <g id="text_16">
     <!-- $\ell=0$ -->
     <g transform="translate(85.087981 23.2) scale(0.1 -0.1)">
      <defs>
       <path id="CMMI12-60" d="M 589 1091 
C 186 698 83 603 83 577 
C 83 552 109 508 154 508 
C 186 508 550 856 602 913 
C 640 488 800 -64 1299 -64 
C 1555 -64 1786 95 1888 171 
C 1971 235 2278 495 2278 552 
C 2278 584 2246 622 2214 622 
C 2189 622 2093 527 2067 501 
C 1843 286 1562 64 1306 64 
C 960 64 915 558 915 901 
C 915 964 915 1231 960 1281 
C 1338 1668 2522 2880 2522 4002 
C 2522 4256 2426 4480 2150 4480 
C 1555 4480 1037 3171 947 2930 
C 922 2867 550 1890 589 1091 
z
M 973 1484 
C 979 1522 1267 3184 1805 4072 
C 1914 4243 2022 4351 2150 4351 
C 2368 4351 2381 4148 2381 4009 
C 2381 3787 2317 3216 1760 2417 
C 1594 2182 1338 1865 973 1484 
z
" transform="scale(0.015625)"/>
       <path id="CMR17-3d" d="M 4115 2048 
C 4211 2048 4307 2048 4307 2156 
C 4307 2272 4198 2272 4090 2272 
L 512 2272 
C 403 2272 294 2272 294 2156 
C 294 2048 390 2048 486 2048 
L 4115 2048 
z
M 4090 927 
C 4198 927 4307 927 4307 1043 
C 4307 1152 4211 1152 4115 1152 
L 486 1152 
C 390 1152 294 1152 294 1043 
C 294 927 403 927 512 927 
L 4090 927 
z
" transform="scale(0.015625)"/>
      </defs>
      <use xlink:href="#CMMI12-60" transform="scale(0.996264)"/>
      <use xlink:href="#CMR17-3d" transform="translate(68.608228 0) scale(0.996264)"/>
      <use xlink:href="#CMR17-30" transform="translate(167.997025 0) scale(0.996264)"/>
     </g>
    </g>
    <g id="line2d_19">
     <path d="M 57.087981 33.637178 
L 67.087981 33.637178 
L 77.087981 33.637178 
" style="fill: none; stroke: #ff800e; stroke-width: 1.5; stroke-linecap: square"/>
     <g>
      <use xlink:href="#m78c1a5a5d2" x="67.087981" y="33.637178" style="fill: #ff800e; stroke: #ff800e"/>
     </g>
    </g>
    <g id="text_17">
     <!-- $\ell=1$ -->
     <g transform="translate(85.087981 37.137178) scale(0.1 -0.1)">
      <use xlink:href="#CMMI12-60" transform="scale(0.996264)"/>
      <use xlink:href="#CMR17-3d" transform="translate(68.608228 0) scale(0.996264)"/>
      <use xlink:href="#CMR17-31" transform="translate(167.997025 0) scale(0.996264)"/>
     </g>
    </g>
    <g id="line2d_20">
     <path d="M 57.087981 47.574357 
L 67.087981 47.574357 
L 77.087981 47.574357 
" style="fill: none; stroke: #ababab; stroke-width: 1.5; stroke-linecap: square"/>
     <g>
      <use xlink:href="#m77c5872cd4" x="67.087981" y="47.574357" style="fill: #ababab; stroke: #ababab"/>
     </g>
    </g>
    <g id="text_18">
     <!-- $\ell=2$ -->
     <g transform="translate(85.087981 51.074357) scale(0.1 -0.1)">
      <use xlink:href="#CMMI12-60" transform="scale(0.996264)"/>
      <use xlink:href="#CMR17-3d" transform="translate(68.608228 0) scale(0.996264)"/>
      <use xlink:href="#CMR17-32" transform="translate(167.997025 0) scale(0.996264)"/>
     </g>
    </g>
    <g id="line2d_21">
     <path d="M 57.087981 61.511535 
L 67.087981 61.511535 
L 77.087981 61.511535 
" style="fill: none; stroke: #595959; stroke-width: 1.5; stroke-linecap: square"/>
     <g>
      <use xlink:href="#mdfeae3eadb" x="67.087981" y="61.511535" style="fill: #595959; stroke: #595959"/>
     </g>
    </g>
    <g id="text_19">
     <!-- $\ell=3$ -->
     <g transform="translate(85.087981 65.011535) scale(0.1 -0.1)">
      <use xlink:href="#CMMI12-60" transform="scale(0.996264)"/>
      <use xlink:href="#CMR17-3d" transform="translate(68.608228 0) scale(0.996264)"/>
      <use xlink:href="#CMR17-33" transform="translate(167.997025 0) scale(0.996264)"/>
     </g>
    </g>
   </g>
  </g>
 </g>
 <defs>
  <clipPath id="p47a6b64cb6">
   <rect x="48.087981" y="7.2" width="334.8" height="166.32"/>
  </clipPath>
 </defs>
</svg>
