<?xml version="1.0" encoding="UTF-8" standalone="no"?>
<!-- Created with matplotlib (https://matplotlib.org/) -->

<svg
   height="210.538317pt"
   version="1.1"
   viewBox="0 0 395.706955 210.538317"
   width="395.706955pt"
   id="svg104"
   sodipodi:docname="solar_νmax.svg"
   inkscape:version="1.3.2 (091e20ef0f, 2023-11-25, custom)"
   xmlns:inkscape="http://www.inkscape.org/namespaces/inkscape"
   xmlns:sodipodi="http://sodipodi.sourceforge.net/DTD/sodipodi-0.dtd"
   xmlns:xlink="http://www.w3.org/1999/xlink"
   xmlns="http://www.w3.org/2000/svg"
   xmlns:svg="http://www.w3.org/2000/svg"
   xmlns:rdf="http://www.w3.org/1999/02/22-rdf-syntax-ns#"
   xmlns:cc="http://creativecommons.org/ns#"
   xmlns:dc="http://purl.org/dc/elements/1.1/">
  <sodipodi:namedview
     id="namedview104"
     pagecolor="#ffffff"
     bordercolor="#000000"
     borderopacity="0.25"
     inkscape:showpageshadow="2"
     inkscape:pageopacity="0.0"
     inkscape:pagecheckerboard="0"
     inkscape:deskcolor="#d1d1d1"
     inkscape:document-units="pt"
     inkscape:zoom="4.9752725"
     inkscape:cx="263.80465"
     inkscape:cy="140.29382"
     inkscape:window-width="3840"
     inkscape:window-height="2133"
     inkscape:window-x="0"
     inkscape:window-y="27"
     inkscape:window-maximized="1"
     inkscape:current-layer="figure_1" />
  <metadata
     id="metadata1">
    <rdf:RDF>
      <cc:Work>
        <dc:type
           rdf:resource="http://purl.org/dc/dcmitype/StillImage" />
        <dc:date>2021-02-18T20:21:22.476685</dc:date>
        <dc:format>image/svg+xml</dc:format>
        <dc:creator>
          <cc:Agent>
            <dc:title>Matplotlib v3.3.3, https://matplotlib.org/</dc:title>
          </cc:Agent>
        </dc:creator>
      </cc:Work>
    </rdf:RDF>
  </metadata>
  <defs
     id="defs1">
    <style
       type="text/css"
       id="style1">*{stroke-linecap:butt;stroke-linejoin:round;}</style>
    <clipPath
       id="pcc0d1a3f7d-6">
      <rect
         height="166.32001"
         width="334.79999"
         x="43.744286"
         y="7.1999998"
         id="rect104-7" />
    </clipPath>
    <path
       d="M 26,23.078125 C 29,26.96875 32.40625,31.34375 35.203125,34.625 38.5,38.40625 42.296875,40 46.703125,40 v 2.59375 c -1.703125,0 -5.203125,0 -7,0 -2.703125,0 -5.796875,0 -8.109375,0.09375 V 40.09375 C 33,39.890625 33.796875,38.890625 33.796875,37.5 c 0,-1.796875 -1,-2.890625 -1.5,-3.578125 l -7.390625,-9.34375 -8.8125,11.453125 c -0.890625,1.09375 -0.890625,1.28125 -0.890625,1.78125 0,1.203125 1,2.1875 2.703125,2.1875 v 2.6875 C 15.5,42.59375 11.203125,42.59375 8.703125,42.59375 c -2.703125,0 -5.90625,0 -8.109375,0.09375 V 40 c 5.40625,0 6.609375,-0.40625 9,-3.390625 l 11.5,-14.8125 C 21.296875,21.59375 21.796875,21 21.796875,20.703125 21.796875,20.296875 13.09375,9.671875 12,8.28125 7.5,2.890625 2.796875,2.5 0.09375,2.5 V 0 c 1.703125,0 5.203125,0 7,0 2,0 6.40625,0 8.203125,-0.09375 V 2.5 c -0.59375,0.09375 -2.203125,0.296875 -2.203125,2.578125 0,1.796875 0.8125,2.890625 1.703125,4.078125 L 23.09375,19.3125 31.796875,8 c 0.796875,-1.09375 2,-2.59375 2,-3.296875 C 33.796875,3.296875 32.59375,2.5 31,2.5 V -0.09375 C 33.40625,0 37.703125,0 40.203125,0 42.90625,0 46.09375,0 48.296875,-0.09375 V 2.5 c -5,0 -6.5,0.1875 -8.890625,3.28125 z"
       id="CMR17-120" />
  </defs>
  <g
     id="figure_1">
    <g
       id="patch_1">
      <path
         d="M 0 210.538317  L 395.706955 210.538317  L 395.706955 0  L 0 0  z "
         style="fill:none;"
         id="path1" />
    </g>
    <g
       id="axes_1" />
    <g
       id="line2d_17"
       style="stroke-linecap:butt;stroke-linejoin:round">
      <path
         clip-path="url(#pcc0d1a3f7d-6)"
         d="m 43.744146,171.94649 32.911565,-0.0407 21.81312,-0.21938 16.004259,-0.31084 8.80069,-0.33715 13.60565,-0.75604 11.78452,-0.97694 8.64166,-0.95454 6.44064,-0.88377 7.04865,-1.23684 9.26761,-1.73012 7.53642,-1.73061 6.47725,-1.7669 10.84219,-3.27749 10.08436,-2.52693 2.53049,-0.31115 3.48614,-0.18936 6.28281,-0.0618 3.00856,0.10418 2.60079,0.32864 3.27232,0.60037 10.74134,2.23658 9.86424,2.70717 8.16455,1.86858 6.28912,1.40992 9.87126,1.83529 4.80715,0.70627 15.97492,1.83803 10.44655,0.85125 8.96239,0.58763 15.40812,0.73645 23.18794,0.77984 17.90442,0.35837 0.73845,0.0123 v 0"
         style="fill:none;stroke:#000000;stroke-width:1.5;stroke-linecap:butt;stroke-linejoin:round;stroke-dasharray:5.55, 2.4;stroke-dashoffset:0"
         id="path93" />
    </g>
    <g
       id="patch_8"
       style="stroke-linecap:butt;stroke-linejoin:round">
      <path
         d="M 270.54144,92.633806 Q 246.47786,123.64642 223.09967,153.77573"
         style="fill:none;stroke:#000000;stroke-linecap:round;stroke-linejoin:round"
         id="path98" />
      <path
         d="m 227.13191,151.84155 -4.03224,1.93418 0.872,-4.3863"
         style="fill:none;stroke:#000000;stroke-linecap:round;stroke-linejoin:round"
         id="path99" />
    </g>
    <g
       id="text_18"
       style="stroke-linecap:butt;stroke-linejoin:round">
      <!-- $\nu_\text{max}$ -->
      <g
         transform="matrix(0.1,0,0,-0.1,266.94428,87.115394)"
         id="g102"
         style="stroke-linecap:butt;stroke-linejoin:round">
        <defs
           id="defs99">
          <path
             d="M 26,23.078125 C 29,26.96875 32.40625,31.34375 35.203125,34.625 38.5,38.40625 42.296875,40 46.703125,40 v 2.59375 c -1.703125,0 -5.203125,0 -7,0 -2.703125,0 -5.796875,0 -8.109375,0.09375 V 40.09375 C 33,39.890625 33.796875,38.890625 33.796875,37.5 c 0,-1.796875 -1,-2.890625 -1.5,-3.578125 l -7.390625,-9.34375 -8.8125,11.453125 c -0.890625,1.09375 -0.890625,1.28125 -0.890625,1.78125 0,1.203125 1,2.1875 2.703125,2.1875 v 2.6875 C 15.5,42.59375 11.203125,42.59375 8.703125,42.59375 c -2.703125,0 -5.90625,0 -8.109375,0.09375 V 40 c 5.40625,0 6.609375,-0.40625 9,-3.390625 l 11.5,-14.8125 C 21.296875,21.59375 21.796875,21 21.796875,20.703125 21.796875,20.296875 13.09375,9.671875 12,8.28125 7.5,2.890625 2.796875,2.5 0.09375,2.5 V 0 c 1.703125,0 5.203125,0 7,0 2,0 6.40625,0 8.203125,-0.09375 V 2.5 c -0.59375,0.09375 -2.203125,0.296875 -2.203125,2.578125 0,1.796875 0.8125,2.890625 1.703125,4.078125 L 23.09375,19.3125 31.796875,8 c 0.796875,-1.09375 2,-2.59375 2,-3.296875 C 33.796875,3.296875 32.59375,2.5 31,2.5 V -0.09375 C 33.40625,0 37.703125,0 40.203125,0 42.90625,0 46.09375,0 48.296875,-0.09375 V 2.5 c -5,0 -6.5,0.1875 -8.890625,3.28125 z"
             id="path104" />
        </defs>
        <path
           d="M 22,43.015625 C 22,43.40625 21.703125,44 20.90625,44 20.203125,44 10.796875,42.984375 9.296875,42.984375 8.203125,42.875 7.203125,42.78125 7.203125,40.984375 7.203125,40 8,40 9.40625,40 c 4.6875,0 5,-0.703125 5,-1.796875 0,-0.40625 -0.203125,-1.59375 -0.3125,-1.984375 L 5.296875,1 c 0,-0.40625 0.296875,-1 1,-1 H 8.40625 C 9.796875,0 25,3.59375 36.703125,15.5625 49.59375,28.84375 51.40625,41.125 51.40625,41.515625 51.40625,43.109375 50.09375,44 48.796875,44 45.90625,44 45.203125,41.3125 45,40.609375 39.09375,19.75 25.40625,7.390625 12.09375,3 Z"
           id="use99"
           style="stroke-linecap:butt;stroke-linejoin:round"
           transform="scale(0.996264)" />
        <path
           d="m 67.59375,30.203125 c 0,4.984375 -0.890625,13.390625 -12.796875,13.390625 C 48,43.59375 43.296875,39 41.5,33.609375 h -0.09375 c -1.203125,8.203125 -7.109375,9.984375 -12.703125,9.984375 -7.90625,0 -12,-6.09375 -13.5,-10.09375 H 15.09375 V 43.59375 L 3.296875,42.5 v -2.59375 c 5.90625,0 6.796875,-0.609375 6.796875,-5.40625 V 6.6875 c 0,-3.8125 -0.390625,-4.296875 -6.796875,-4.296875 v -2.59375 C 5.703125,0 10.09375,0 12.703125,0 c 2.59375,0 7.09375,0 9.5,-0.203125 v 2.59375 c -6.40625,0 -6.796875,0.390625 -6.796875,4.296875 V 25.90625 C 15.40625,35.109375 21,42 28,42 c 7.40625,0 8.203125,-6.59375 8.203125,-11.40625 V 6.6875 c 0,-3.8125 -0.40625,-4.296875 -6.796875,-4.296875 v -2.59375 C 31.796875,0 36.203125,0 38.796875,0 c 2.609375,0 7.109375,0 9.5,-0.203125 v 2.59375 C 41.90625,2.390625 41.5,2.78125 41.5,6.6875 V 25.90625 C 41.5,35.109375 47.09375,42 54.09375,42 61.5,42 62.296875,35.40625 62.296875,30.59375 V 6.6875 C 62.296875,2.875 61.90625,2.390625 55.5,2.390625 v -2.59375 C 57.90625,0 62.296875,0 64.90625,0 67.5,0 72,0 74.40625,-0.203125 v 2.59375 c -6.40625,0 -6.8125,0.390625 -6.8125,4.296875 z"
           id="use100"
           style="stroke-linecap:butt;stroke-linejoin:round"
           transform="matrix(0.697382,0,0,0.697382,48.198482,-14.943915)" />
        <path
           d="M 36,25.828125 C 36,32.375 36,35.84375 31.796875,39.734375 28.09375,43 23.796875,44 20.40625,44 12.5,44 6.796875,37.609375 6.796875,30.796875 6.796875,27 9.796875,27 10.40625,27 11.703125,27 14,27.78125 14,30.53125 14,33 12.09375,34.078125 10.40625,34.078125 10,34.078125 9.5,33.96875 9.203125,33.875 c 2.09375,6.625 7.5,8.53125 11,8.53125 5,0 10.5,-4.453125 10.5,-12.953125 V 25 c -5.90625,0 -13,-0.796875 -18.609375,-3.796875 C 5.796875,17.703125 4,12.703125 4,8.90625 4,1.203125 13,-1 18.296875,-1 c 5.5,0 10.609375,3.171875 12.796875,8.984375 0.203125,-4.34375 3,-8.265625 7.40625,-8.265625 2.09375,0 7.40625,1.375 7.40625,9.140625 V 14.375 h -1.8125 V 8.78125 c 0,-6 -2.6875,-6.78125 -4,-6.78125 C 36,2 36,7.15625 36,11.53125 Z M 30.703125,13.59375 c 0,-8.640625 -6.203125,-13 -11.703125,-13 -5,0 -8.90625,3.703125 -8.90625,8.3125 0,2.984375 1.3125,8.28125 7.109375,11.484375 C 22,23.09375 27.5,23.5 30.703125,23.5 Z"
           id="use101"
           style="stroke-linecap:butt;stroke-linejoin:round"
           transform="matrix(0.697382,0,0,0.697382,102.04195,-14.943915)" />
        <use
           transform="matrix(0.697382,0,0,0.697382,134.02513,-14.943915)"
           xlink:href="#CMR17-120"
           id="use102"
           style="stroke-linecap:butt;stroke-linejoin:round" />
      </g>
    </g>
  </g>
  <defs
     id="defs104">
    <clipPath
       id="pcc0d1a3f7d">
      <rect
         height="166.32"
         width="334.8"
         x="43.744285"
         y="7.2"
         id="rect104" />
    </clipPath>
  </defs>
</svg>
