<?xml version="1.0" encoding="utf-8" standalone="no"?>
<!DOCTYPE svg PUBLIC "-//W3C//DTD SVG 1.1//EN"
  "http://www.w3.org/Graphics/SVG/1.1/DTD/svg11.dtd">
<svg xmlns:xlink="http://www.w3.org/1999/xlink" width="424.8pt" height="230.4pt" viewBox="0 0 424.8 230.4" xmlns="http://www.w3.org/2000/svg" version="1.1">
 <metadata>
  <rdf:RDF xmlns:dc="http://purl.org/dc/elements/1.1/" xmlns:cc="http://creativecommons.org/ns#" xmlns:rdf="http://www.w3.org/1999/02/22-rdf-syntax-ns#">
   <cc:Work>
    <dc:type rdf:resource="http://purl.org/dc/dcmitype/StillImage"/>
    <dc:date>2025-07-17T00:00:37.903532</dc:date>
    <dc:format>image/svg+xml</dc:format>
    <dc:creator>
     <cc:Agent>
      <dc:title>Matplotlib v3.10.1, https://matplotlib.org/</dc:title>
     </cc:Agent>
    </dc:creator>
   </cc:Work>
  </rdf:RDF>
 </metadata>
 <defs>
  <style type="text/css">*{stroke-linejoin: round; stroke-linecap: butt}</style>
 </defs>
 <g id="figure_1">
  <g id="patch_1">
   <path d="M 0 230.4 
L 424.8 230.4 
L 424.8 0 
L 0 0 
L 0 230.4 
z
" style="fill: none"/>
  </g>
  <g id="axes_1">
   <g id="patch_2">
    <path d="M 48.641463 193.381683 
L 411.234961 193.381683 
L 411.234961 7.2 
L 48.641463 7.2 
L 48.641463 193.381683 
z
" style="fill: none"/>
   </g>
   <g id="matplotlib.axis_1">
    <g id="xtick_1">
     <g id="line2d_1">
      <defs>
       <path id="m462aa55f7a" d="M 0 0 
L 0 3.5 
" style="stroke: #000000; stroke-width: 0.8"/>
      </defs>
      <g>
       <use xlink:href="#m462aa55f7a" x="48.641463" y="193.381683" style="stroke: #000000; stroke-width: 0.8"/>
      </g>
     </g>
     <g id="text_1">
      <!-- $\mathdefault{0.0}$ -->
      <g transform="translate(42.276423 207.300182) scale(0.1 -0.1)">
       <defs>
        <path id="CMR17-30" d="M 2688 2038 
C 2688 2430 2682 3099 2413 3613 
C 2176 4063 1798 4224 1466 4224 
C 1158 4224 768 4082 525 3620 
C 269 3137 243 2539 243 2038 
C 243 1671 250 1112 448 623 
C 723 -39 1216 -128 1466 -128 
C 1760 -128 2208 -7 2470 604 
C 2662 1048 2688 1568 2688 2038 
z
M 1466 -26 
C 1056 -26 813 328 723 816 
C 653 1196 653 1749 653 2109 
C 653 2604 653 3015 736 3407 
C 858 3954 1216 4121 1466 4121 
C 1728 4121 2067 3947 2189 3420 
C 2272 3054 2278 2623 2278 2109 
C 2278 1691 2278 1176 2202 797 
C 2067 96 1690 -26 1466 -26 
z
" transform="scale(0.015625)"/>
        <path id="CMMI12-3a" d="M 1178 307 
C 1178 492 1024 620 870 620 
C 685 620 557 467 557 313 
C 557 128 710 0 864 0 
C 1050 0 1178 153 1178 307 
z
" transform="scale(0.015625)"/>
       </defs>
       <use xlink:href="#CMR17-30" transform="scale(0.996264)"/>
       <use xlink:href="#CMMI12-3a" transform="translate(45.690477 0) scale(0.996264)"/>
       <use xlink:href="#CMR17-30" transform="translate(72.787654 0) scale(0.996264)"/>
      </g>
     </g>
    </g>
    <g id="xtick_2">
     <g id="line2d_2">
      <g>
       <use xlink:href="#m462aa55f7a" x="121.160162" y="193.381683" style="stroke: #000000; stroke-width: 0.8"/>
      </g>
     </g>
     <g id="text_2">
      <!-- $\mathdefault{0.2}$ -->
      <g transform="translate(114.795123 207.300182) scale(0.1 -0.1)">
       <defs>
        <path id="CMR17-32" d="M 2669 990 
L 2554 990 
C 2490 537 2438 460 2413 422 
C 2381 371 1920 371 1830 371 
L 602 371 
C 832 620 1280 1073 1824 1596 
C 2214 1966 2669 2400 2669 3033 
C 2669 3788 2067 4224 1395 4224 
C 691 4224 262 3603 262 3027 
C 262 2777 448 2745 525 2745 
C 589 2745 781 2783 781 3007 
C 781 3206 614 3264 525 3264 
C 486 3264 448 3257 422 3244 
C 544 3788 915 4057 1306 4057 
C 1862 4057 2227 3616 2227 3033 
C 2227 2477 1901 1998 1536 1583 
L 262 147 
L 262 0 
L 2515 0 
L 2669 990 
z
" transform="scale(0.015625)"/>
       </defs>
       <use xlink:href="#CMR17-30" transform="scale(0.996264)"/>
       <use xlink:href="#CMMI12-3a" transform="translate(45.690477 0) scale(0.996264)"/>
       <use xlink:href="#CMR17-32" transform="translate(72.787654 0) scale(0.996264)"/>
      </g>
     </g>
    </g>
    <g id="xtick_3">
     <g id="line2d_3">
      <g>
       <use xlink:href="#m462aa55f7a" x="193.678862" y="193.381683" style="stroke: #000000; stroke-width: 0.8"/>
      </g>
     </g>
     <g id="text_3">
      <!-- $\mathdefault{0.4}$ -->
      <g transform="translate(187.313822 207.300182) scale(0.1 -0.1)">
       <defs>
        <path id="CMR17-34" d="M 2150 4147 
C 2150 4281 2144 4288 2029 4288 
L 128 1254 
L 128 1088 
L 1779 1088 
L 1779 460 
C 1779 230 1766 166 1318 166 
L 1197 166 
L 1197 0 
C 1402 12 1747 12 1965 12 
C 2182 12 2528 12 2733 0 
L 2733 166 
L 2611 166 
C 2163 166 2150 230 2150 460 
L 2150 1088 
L 2803 1088 
L 2803 1254 
L 2150 1254 
L 2150 4147 
z
M 1798 3723 
L 1798 1254 
L 256 1254 
L 1798 3723 
z
" transform="scale(0.015625)"/>
       </defs>
       <use xlink:href="#CMR17-30" transform="scale(0.996264)"/>
       <use xlink:href="#CMMI12-3a" transform="translate(45.690477 0) scale(0.996264)"/>
       <use xlink:href="#CMR17-34" transform="translate(72.787654 0) scale(0.996264)"/>
      </g>
     </g>
    </g>
    <g id="xtick_4">
     <g id="line2d_4">
      <g>
       <use xlink:href="#m462aa55f7a" x="266.197561" y="193.381683" style="stroke: #000000; stroke-width: 0.8"/>
      </g>
     </g>
     <g id="text_4">
      <!-- $\mathdefault{0.6}$ -->
      <g transform="translate(259.832522 207.300182) scale(0.1 -0.1)">
       <defs>
        <path id="CMR17-36" d="M 678 2198 
C 678 3712 1395 4076 1811 4076 
C 1946 4076 2272 4049 2400 3782 
C 2298 3782 2106 3782 2106 3558 
C 2106 3385 2246 3328 2336 3328 
C 2394 3328 2566 3353 2566 3571 
C 2566 3987 2246 4224 1805 4224 
C 1043 4224 243 3411 243 2011 
C 243 257 966 -128 1478 -128 
C 2099 -128 2688 431 2688 1295 
C 2688 2101 2170 2688 1517 2688 
C 1126 2688 838 2430 678 1979 
L 678 2198 
z
M 1478 25 
C 691 25 691 1212 691 1450 
C 691 1914 909 2585 1504 2585 
C 1613 2585 1926 2585 2138 2140 
C 2253 1889 2253 1624 2253 1302 
C 2253 954 2253 696 2118 438 
C 1978 173 1773 25 1478 25 
z
" transform="scale(0.015625)"/>
       </defs>
       <use xlink:href="#CMR17-30" transform="scale(0.996264)"/>
       <use xlink:href="#CMMI12-3a" transform="translate(45.690477 0) scale(0.996264)"/>
       <use xlink:href="#CMR17-36" transform="translate(72.787654 0) scale(0.996264)"/>
      </g>
     </g>
    </g>
    <g id="xtick_5">
     <g id="line2d_5">
      <g>
       <use xlink:href="#m462aa55f7a" x="338.716261" y="193.381683" style="stroke: #000000; stroke-width: 0.8"/>
      </g>
     </g>
     <g id="text_5">
      <!-- $\mathdefault{0.8}$ -->
      <g transform="translate(332.351221 207.300182) scale(0.1 -0.1)">
       <defs>
        <path id="CMR17-38" d="M 1741 2289 
C 2144 2494 2554 2803 2554 3298 
C 2554 3884 1990 4224 1472 4224 
C 890 4224 378 3800 378 3215 
C 378 3054 416 2777 666 2533 
C 730 2469 998 2276 1171 2154 
C 883 2006 211 1652 211 945 
C 211 282 838 -128 1459 -128 
C 2144 -128 2720 366 2720 1022 
C 2720 1607 2330 1877 2074 2051 
L 1741 2289 
z
M 902 2855 
C 851 2887 595 3086 595 3388 
C 595 3781 998 4076 1459 4076 
C 1965 4076 2336 3716 2336 3298 
C 2336 2700 1670 2359 1638 2359 
C 1632 2359 1626 2359 1574 2398 
L 902 2855 
z
M 2080 1536 
C 2176 1466 2483 1253 2483 861 
C 2483 385 2010 25 1472 25 
C 890 25 448 443 448 951 
C 448 1459 838 1884 1280 2083 
L 2080 1536 
z
" transform="scale(0.015625)"/>
       </defs>
       <use xlink:href="#CMR17-30" transform="scale(0.996264)"/>
       <use xlink:href="#CMMI12-3a" transform="translate(45.690477 0) scale(0.996264)"/>
       <use xlink:href="#CMR17-38" transform="translate(72.787654 0) scale(0.996264)"/>
      </g>
     </g>
    </g>
    <g id="xtick_6">
     <g id="line2d_6">
      <g>
       <use xlink:href="#m462aa55f7a" x="411.234961" y="193.381683" style="stroke: #000000; stroke-width: 0.8"/>
      </g>
     </g>
     <g id="text_6">
      <!-- $\mathdefault{1.0}$ -->
      <g transform="translate(404.869921 207.300182) scale(0.1 -0.1)">
       <defs>
        <path id="CMR17-31" d="M 1702 4083 
C 1702 4217 1696 4224 1606 4224 
C 1357 3927 979 3833 621 3820 
C 602 3820 570 3820 563 3808 
C 557 3795 557 3782 557 3648 
C 755 3648 1088 3686 1344 3839 
L 1344 467 
C 1344 243 1331 166 781 166 
L 589 166 
L 589 0 
C 896 6 1216 12 1523 12 
C 1830 12 2150 6 2458 0 
L 2458 166 
L 2266 166 
C 1715 166 1702 236 1702 467 
L 1702 4083 
z
" transform="scale(0.015625)"/>
       </defs>
       <use xlink:href="#CMR17-31" transform="scale(0.996264)"/>
       <use xlink:href="#CMMI12-3a" transform="translate(45.690477 0) scale(0.996264)"/>
       <use xlink:href="#CMR17-30" transform="translate(72.787654 0) scale(0.996264)"/>
      </g>
     </g>
    </g>
    <g id="text_7">
     <!-- $q = 2\Omega_\text{rot}/\omega$ -->
     <g transform="translate(203.86644 220.70934) scale(0.1 -0.1)">
      <defs>
       <path id="CMMI12-71" d="M 2822 2751 
C 2822 2783 2797 2809 2765 2809 
C 2714 2809 2464 2579 2342 2356 
C 2227 2643 2029 2816 1754 2816 
C 1030 2816 250 1883 250 938 
C 250 306 621 -64 1056 -64 
C 1395 -64 1677 191 1811 338 
L 1818 332 
L 1574 -613 
L 1517 -838 
C 1459 -1025 1363 -1025 1062 -1031 
C 992 -1031 928 -1031 928 -1152 
C 928 -1197 966 -1216 1011 -1216 
C 1101 -1216 1216 -1204 1306 -1204 
L 1958 -1204 
C 2054 -1204 2163 -1216 2259 -1216 
C 2298 -1216 2374 -1216 2374 -1095 
C 2374 -1031 2323 -1031 2227 -1031 
C 1926 -1031 1907 -987 1907 -937 
C 1907 -906 1914 -900 1933 -819 
L 2822 2751 
z
M 1920 759 
C 1888 651 1888 638 1798 517 
C 1658 338 1376 64 1075 64 
C 813 64 666 300 666 676 
C 666 1028 864 1743 986 2011 
C 1203 2458 1504 2687 1754 2687 
C 2176 2687 2259 2164 2259 2113 
C 2259 2107 2240 2024 2234 2011 
L 1920 759 
z
" transform="scale(0.015625)"/>
       <path id="CMR17-3d" d="M 4115 2048 
C 4211 2048 4307 2048 4307 2156 
C 4307 2272 4198 2272 4090 2272 
L 512 2272 
C 403 2272 294 2272 294 2156 
C 294 2048 390 2048 486 2048 
L 4115 2048 
z
M 4090 927 
C 4198 927 4307 927 4307 1043 
C 4307 1152 4211 1152 4115 1152 
L 486 1152 
C 390 1152 294 1152 294 1043 
C 294 927 403 927 512 927 
L 4090 927 
z
" transform="scale(0.015625)"/>
       <path id="CMR17-a" d="M 4038 935 
L 3923 935 
C 3866 640 3846 563 3814 461 
C 3782 364 3763 313 3392 313 
L 2874 313 
C 2944 685 3098 961 3366 1390 
C 3699 1935 3974 2377 3974 2909 
C 3974 3775 3155 4480 2138 4480 
C 1094 4480 294 3768 294 2909 
C 294 2377 576 1922 890 1416 
C 1171 961 1325 685 1395 313 
L 877 313 
C 512 313 493 364 461 454 
C 422 557 410 640 346 935 
L 230 935 
L 416 0 
L 1382 0 
C 1517 0 1523 6 1523 102 
C 1523 557 1286 1153 1178 1428 
C 973 1928 781 2416 781 2916 
C 781 3871 1466 4377 2131 4377 
C 2829 4377 3488 3852 3488 2916 
C 3488 2422 3315 1980 3078 1396 
C 2976 1134 2746 550 2746 102 
C 2746 0 2752 0 2886 0 
L 3853 0 
L 4038 935 
z
" transform="scale(0.015625)"/>
       <path id="CMR17-72" d="M 960 1517 
C 960 2134 1222 2713 1702 2713 
C 1747 2713 1792 2707 1837 2687 
C 1837 2687 1696 2642 1696 2475 
C 1696 2321 1818 2257 1914 2257 
C 1990 2257 2131 2302 2131 2482 
C 2131 2687 1926 2816 1709 2816 
C 1222 2816 1011 2340 947 2115 
L 941 2115 
L 941 2816 
L 198 2745 
L 198 2578 
C 576 2578 634 2540 634 2231 
L 634 443 
C 634 198 608 166 198 166 
L 198 0 
C 352 12 646 12 813 12 
C 998 12 1325 12 1498 0 
L 1498 166 
C 1037 166 960 166 960 455 
L 960 1517 
z
" transform="scale(0.015625)"/>
       <path id="CMR17-6f" d="M 2758 1356 
C 2758 2176 2163 2816 1466 2816 
C 768 2816 173 2176 173 1356 
C 173 550 768 -64 1466 -64 
C 2163 -64 2758 550 2758 1356 
z
M 1466 51 
C 1165 51 909 230 762 480 
C 602 768 582 1126 582 1408 
C 582 1676 595 2009 762 2297 
C 890 2508 1139 2713 1466 2713 
C 1754 2713 1997 2553 2150 2329 
C 2349 2028 2349 1606 2349 1408 
C 2349 1158 2336 774 2163 467 
C 1984 172 1709 51 1466 51 
z
" transform="scale(0.015625)"/>
       <path id="CMR17-74" d="M 966 2585 
L 1862 2585 
L 1862 2752 
L 966 2752 
L 966 3968 
L 851 3968 
C 838 3292 614 2700 70 2687 
L 70 2585 
L 627 2585 
L 627 778 
C 627 655 627 -64 1370 -64 
C 1747 -64 1965 308 1965 784 
L 1965 1151 
L 1850 1151 
L 1850 790 
C 1850 347 1677 51 1408 51 
C 1222 51 966 179 966 765 
L 966 2585 
z
" transform="scale(0.015625)"/>
       <path id="CMMI12-3d" d="M 2746 4563 
C 2746 4569 2784 4665 2784 4678 
C 2784 4755 2720 4800 2669 4800 
C 2637 4800 2579 4800 2528 4659 
L 384 -1364 
C 384 -1370 346 -1466 346 -1479 
C 346 -1556 410 -1600 461 -1600 
C 499 -1600 557 -1594 602 -1460 
L 2746 4563 
z
" transform="scale(0.015625)"/>
       <path id="CMMI12-21" d="M 3802 2406 
C 3802 2592 3750 2828 3526 2828 
C 3398 2828 3251 2668 3251 2540 
C 3251 2483 3277 2444 3328 2387 
C 3424 2278 3546 2105 3546 1804 
C 3546 1574 3405 1209 3302 1011 
C 3123 659 2829 358 2496 358 
C 2093 358 1939 614 1869 972 
C 1939 1139 2086 1555 2086 1721 
C 2086 1792 2061 1849 1978 1849 
C 1933 1849 1882 1824 1850 1772 
C 1760 1632 1677 1126 1683 992 
C 1562 755 1216 358 806 358 
C 378 358 262 736 262 1100 
C 262 1766 678 2348 794 2508 
C 858 2604 902 2668 902 2681 
C 902 2726 877 2796 819 2796 
C 717 2796 685 2713 634 2636 
C 307 2131 77 1420 77 806 
C 77 409 224 -64 704 -64 
C 1235 -64 1568 390 1702 633 
C 1754 275 1946 -64 2413 -64 
C 2899 -64 3206 364 3437 883 
C 3603 1254 3802 2054 3802 2406 
z
" transform="scale(0.015625)"/>
      </defs>
      <use xlink:href="#CMMI12-71" transform="scale(0.996264)"/>
      <use xlink:href="#CMR17-3d" transform="translate(74.500333 0) scale(0.996264)"/>
      <use xlink:href="#CMR17-32" transform="translate(173.88913 0) scale(0.996264)"/>
      <use xlink:href="#CMR17-a" transform="translate(219.579607 0) scale(0.996264)"/>
      <use xlink:href="#CMR17-72" transform="translate(286.089487 -14.943915) scale(0.697382)"/>
      <use xlink:href="#CMR17-6f" transform="translate(310.785908 -14.943915) scale(0.697382)"/>
      <use xlink:href="#CMR17-74" transform="translate(342.76909 -14.943915) scale(0.697382)"/>
      <use xlink:href="#CMMI12-3d" transform="translate(367.963642 0) scale(0.996264)"/>
      <use xlink:href="#CMMI12-21" transform="translate(416.738561 0) scale(0.996264)"/>
     </g>
    </g>
   </g>
   <g id="matplotlib.axis_2">
    <g id="ytick_1">
     <g id="line2d_7">
      <defs>
       <path id="mc84c005889" d="M 0 0 
L -3.5 0 
" style="stroke: #000000; stroke-width: 0.8"/>
      </defs>
      <g>
       <use xlink:href="#mc84c005889" x="48.641463" y="188.948786" style="stroke: #000000; stroke-width: 0.8"/>
      </g>
     </g>
     <g id="text_8">
      <!-- $\mathdefault{−2.0}$ -->
      <g transform="translate(21.16264 192.408035) scale(0.1 -0.1)">
       <defs>
        <path id="CMSY10-0" d="M 4218 1472 
C 4326 1472 4442 1472 4442 1600 
C 4442 1728 4326 1728 4218 1728 
L 755 1728 
C 646 1728 531 1728 531 1600 
C 531 1472 646 1472 755 1472 
L 4218 1472 
z
" transform="scale(0.015625)"/>
       </defs>
       <use xlink:href="#CMSY10-0" transform="scale(0.996264)"/>
       <use xlink:href="#CMR17-32" transform="translate(77.487468 0) scale(0.996264)"/>
       <use xlink:href="#CMMI12-3a" transform="translate(123.177945 0) scale(0.996264)"/>
       <use xlink:href="#CMR17-30" transform="translate(150.275122 0) scale(0.996264)"/>
      </g>
     </g>
    </g>
    <g id="ytick_2">
     <g id="line2d_8">
      <g>
       <use xlink:href="#mc84c005889" x="48.641463" y="166.7843" style="stroke: #000000; stroke-width: 0.8"/>
      </g>
     </g>
     <g id="text_9">
      <!-- $\mathdefault{−1.5}$ -->
      <g transform="translate(21.16264 170.243549) scale(0.1 -0.1)">
       <defs>
        <path id="CMR17-35" d="M 730 3750 
C 794 3724 1056 3641 1325 3641 
C 1920 3641 2246 3961 2432 4140 
C 2432 4191 2432 4224 2394 4224 
C 2387 4224 2374 4224 2323 4198 
C 2099 4102 1837 4032 1517 4032 
C 1325 4032 1037 4055 723 4191 
C 653 4224 640 4224 634 4224 
C 602 4224 595 4217 595 4090 
L 595 2231 
C 595 2113 595 2080 659 2080 
C 691 2080 704 2093 736 2139 
C 941 2435 1222 2560 1542 2560 
C 1766 2560 2246 2415 2246 1293 
C 2246 1087 2246 716 2054 422 
C 1894 159 1645 25 1370 25 
C 947 25 518 319 403 812 
C 429 806 480 793 506 793 
C 589 793 749 838 749 1036 
C 749 1209 627 1280 506 1280 
C 358 1280 262 1190 262 1011 
C 262 454 704 -128 1382 -128 
C 2042 -128 2669 441 2669 1267 
C 2669 2054 2170 2662 1549 2662 
C 1222 2662 947 2540 730 2304 
L 730 3750 
z
" transform="scale(0.015625)"/>
       </defs>
       <use xlink:href="#CMSY10-0" transform="scale(0.996264)"/>
       <use xlink:href="#CMR17-31" transform="translate(77.487468 0) scale(0.996264)"/>
       <use xlink:href="#CMMI12-3a" transform="translate(123.177945 0) scale(0.996264)"/>
       <use xlink:href="#CMR17-35" transform="translate(150.275122 0) scale(0.996264)"/>
      </g>
     </g>
    </g>
    <g id="ytick_3">
     <g id="line2d_9">
      <g>
       <use xlink:href="#mc84c005889" x="48.641463" y="144.619814" style="stroke: #000000; stroke-width: 0.8"/>
      </g>
     </g>
     <g id="text_10">
      <!-- $\mathdefault{−1.0}$ -->
      <g transform="translate(21.16264 148.079063) scale(0.1 -0.1)">
       <use xlink:href="#CMSY10-0" transform="scale(0.996264)"/>
       <use xlink:href="#CMR17-31" transform="translate(77.487468 0) scale(0.996264)"/>
       <use xlink:href="#CMMI12-3a" transform="translate(123.177945 0) scale(0.996264)"/>
       <use xlink:href="#CMR17-30" transform="translate(150.275122 0) scale(0.996264)"/>
      </g>
     </g>
    </g>
    <g id="ytick_4">
     <g id="line2d_10">
      <g>
       <use xlink:href="#mc84c005889" x="48.641463" y="122.455328" style="stroke: #000000; stroke-width: 0.8"/>
      </g>
     </g>
     <g id="text_11">
      <!-- $\mathdefault{−0.5}$ -->
      <g transform="translate(21.16264 125.914577) scale(0.1 -0.1)">
       <use xlink:href="#CMSY10-0" transform="scale(0.996264)"/>
       <use xlink:href="#CMR17-30" transform="translate(77.487468 0) scale(0.996264)"/>
       <use xlink:href="#CMMI12-3a" transform="translate(123.177945 0) scale(0.996264)"/>
       <use xlink:href="#CMR17-35" transform="translate(150.275122 0) scale(0.996264)"/>
      </g>
     </g>
    </g>
    <g id="ytick_5">
     <g id="line2d_11">
      <g>
       <use xlink:href="#mc84c005889" x="48.641463" y="100.290842" style="stroke: #000000; stroke-width: 0.8"/>
      </g>
     </g>
     <g id="text_12">
      <!-- $\mathdefault{0.0}$ -->
      <g transform="translate(28.911384 103.750091) scale(0.1 -0.1)">
       <use xlink:href="#CMR17-30" transform="scale(0.996264)"/>
       <use xlink:href="#CMMI12-3a" transform="translate(45.690477 0) scale(0.996264)"/>
       <use xlink:href="#CMR17-30" transform="translate(72.787654 0) scale(0.996264)"/>
      </g>
     </g>
    </g>
    <g id="ytick_6">
     <g id="line2d_12">
      <g>
       <use xlink:href="#mc84c005889" x="48.641463" y="78.126356" style="stroke: #000000; stroke-width: 0.8"/>
      </g>
     </g>
     <g id="text_13">
      <!-- $\mathdefault{0.5}$ -->
      <g transform="translate(28.911384 81.585605) scale(0.1 -0.1)">
       <use xlink:href="#CMR17-30" transform="scale(0.996264)"/>
       <use xlink:href="#CMMI12-3a" transform="translate(45.690477 0) scale(0.996264)"/>
       <use xlink:href="#CMR17-35" transform="translate(72.787654 0) scale(0.996264)"/>
      </g>
     </g>
    </g>
    <g id="ytick_7">
     <g id="line2d_13">
      <g>
       <use xlink:href="#mc84c005889" x="48.641463" y="55.961869" style="stroke: #000000; stroke-width: 0.8"/>
      </g>
     </g>
     <g id="text_14">
      <!-- $\mathdefault{1.0}$ -->
      <g transform="translate(28.911384 59.421119) scale(0.1 -0.1)">
       <use xlink:href="#CMR17-31" transform="scale(0.996264)"/>
       <use xlink:href="#CMMI12-3a" transform="translate(45.690477 0) scale(0.996264)"/>
       <use xlink:href="#CMR17-30" transform="translate(72.787654 0) scale(0.996264)"/>
      </g>
     </g>
    </g>
    <g id="ytick_8">
     <g id="line2d_14">
      <g>
       <use xlink:href="#mc84c005889" x="48.641463" y="33.797383" style="stroke: #000000; stroke-width: 0.8"/>
      </g>
     </g>
     <g id="text_15">
      <!-- $\mathdefault{1.5}$ -->
      <g transform="translate(28.911384 37.256633) scale(0.1 -0.1)">
       <use xlink:href="#CMR17-31" transform="scale(0.996264)"/>
       <use xlink:href="#CMMI12-3a" transform="translate(45.690477 0) scale(0.996264)"/>
       <use xlink:href="#CMR17-35" transform="translate(72.787654 0) scale(0.996264)"/>
      </g>
     </g>
    </g>
    <g id="ytick_9">
     <g id="line2d_15">
      <g>
       <use xlink:href="#mc84c005889" x="48.641463" y="11.632897" style="stroke: #000000; stroke-width: 0.8"/>
      </g>
     </g>
     <g id="text_16">
      <!-- $\mathdefault{2.0}$ -->
      <g transform="translate(28.911384 15.092146) scale(0.1 -0.1)">
       <use xlink:href="#CMR17-32" transform="scale(0.996264)"/>
       <use xlink:href="#CMMI12-3a" transform="translate(45.690477 0) scale(0.996264)"/>
       <use xlink:href="#CMR17-30" transform="translate(72.787654 0) scale(0.996264)"/>
      </g>
     </g>
    </g>
    <g id="text_17">
     <!-- $\lambda - \ell(\ell + 1)$ -->
     <g transform="translate(14.67198 125.88926) rotate(-90) scale(0.1 -0.1)">
      <defs>
       <path id="CMMI12-15" d="M 1978 3963 
C 1818 4416 1312 4416 1229 4416 
C 1190 4416 1120 4416 1120 4351 
C 1120 4300 1158 4294 1190 4287 
C 1286 4275 1363 4262 1466 4078 
C 1530 3957 2189 2055 2189 2042 
C 2189 2036 2182 2029 2131 1978 
L 467 305 
C 390 229 339 178 339 95 
C 339 6 416 -71 518 -71 
C 544 -71 614 -58 653 -20 
C 755 76 1670 1190 2253 1877 
C 2419 1380 2624 795 2822 261 
C 2854 165 2886 76 2976 -7 
C 3040 -64 3053 -64 3232 -64 
L 3354 -64 
C 3379 -64 3424 -64 3424 -13 
C 3424 12 3418 19 3392 44 
C 3334 114 3290 229 3264 305 
L 1978 3963 
z
" transform="scale(0.015625)"/>
       <path id="CMMI12-60" d="M 589 1091 
C 186 698 83 603 83 577 
C 83 552 109 508 154 508 
C 186 508 550 856 602 913 
C 640 488 800 -64 1299 -64 
C 1555 -64 1786 95 1888 171 
C 1971 235 2278 495 2278 552 
C 2278 584 2246 622 2214 622 
C 2189 622 2093 527 2067 501 
C 1843 286 1562 64 1306 64 
C 960 64 915 558 915 901 
C 915 964 915 1231 960 1281 
C 1338 1668 2522 2880 2522 4002 
C 2522 4256 2426 4480 2150 4480 
C 1555 4480 1037 3171 947 2930 
C 922 2867 550 1890 589 1091 
z
M 973 1484 
C 979 1522 1267 3184 1805 4072 
C 1914 4243 2022 4351 2150 4351 
C 2368 4351 2381 4148 2381 4009 
C 2381 3787 2317 3216 1760 2417 
C 1594 2182 1338 1865 973 1484 
z
" transform="scale(0.015625)"/>
       <path id="CMR17-28" d="M 1958 -1562 
C 1958 -1556 1958 -1543 1939 -1524 
C 1645 -1223 858 -403 858 1596 
C 858 3595 1632 4408 1946 4729 
C 1946 4735 1958 4748 1958 4767 
C 1958 4787 1939 4800 1914 4800 
C 1843 4800 1299 4325 986 3620 
C 666 2909 576 2218 576 1603 
C 576 1141 621 360 1005 -467 
C 1312 -1133 1837 -1600 1914 -1600 
C 1946 -1600 1958 -1588 1958 -1562 
z
" transform="scale(0.015625)"/>
       <path id="CMR17-2b" d="M 2413 1472 
L 4109 1472 
C 4198 1472 4307 1472 4307 1580 
C 4307 1696 4205 1696 4109 1696 
L 2413 1696 
L 2413 3385 
C 2413 3475 2413 3584 2304 3584 
C 2189 3584 2189 3481 2189 3385 
L 2189 1696 
L 493 1696 
C 403 1696 294 1696 294 1587 
C 294 1472 397 1472 493 1472 
L 2189 1472 
L 2189 -194 
C 2189 -282 2189 -391 2298 -391 
C 2413 -391 2413 -289 2413 -194 
L 2413 1472 
z
" transform="scale(0.015625)"/>
       <path id="CMR17-29" d="M 1683 1596 
C 1683 2057 1638 2839 1254 3665 
C 947 4332 422 4800 346 4800 
C 326 4800 301 4793 301 4761 
C 301 4748 307 4742 314 4729 
C 621 4408 1402 3595 1402 1603 
C 1402 -396 627 -1210 314 -1530 
C 307 -1543 301 -1549 301 -1562 
C 301 -1594 326 -1600 346 -1600 
C 416 -1600 960 -1127 1274 -422 
C 1594 289 1683 981 1683 1596 
z
" transform="scale(0.015625)"/>
      </defs>
      <use xlink:href="#CMMI12-15" transform="scale(0.996264)"/>
      <use xlink:href="#CMSY10-0" transform="translate(79.043279 0) scale(0.996264)"/>
      <use xlink:href="#CMMI12-60" transform="translate(178.669953 0) scale(0.996264)"/>
      <use xlink:href="#CMR17-28" transform="translate(219.604173 0) scale(0.996264)"/>
      <use xlink:href="#CMMI12-60" transform="translate(254.884941 0) scale(0.996264)"/>
      <use xlink:href="#CMR17-2b" transform="translate(317.958367 0) scale(0.996264)"/>
      <use xlink:href="#CMR17-31" transform="translate(411.812363 0) scale(0.996264)"/>
      <use xlink:href="#CMR17-29" transform="translate(457.50284 0) scale(0.996264)"/>
     </g>
    </g>
   </g>
   <g id="line2d_16">
    <path d="M 48.641463 100.290842 
L 55.967331 100.290842 
L 63.2932 100.290842 
L 70.619069 100.290842 
L 77.944937 100.290842 
L 85.270806 100.290842 
L 92.596675 100.290842 
L 99.922543 100.290842 
L 107.248412 100.290842 
L 114.57428 100.290842 
L 121.900149 100.290842 
L 129.226018 100.290842 
L 136.551886 100.290842 
L 143.877755 100.290842 
L 151.203624 100.290842 
L 158.529492 100.290842 
L 165.855361 100.290842 
L 173.181229 100.290842 
L 180.507098 100.290842 
L 187.832967 100.290842 
L 195.158835 100.290842 
L 202.484704 100.290842 
L 209.810573 100.290842 
L 217.136441 100.290842 
L 224.46231 100.290842 
L 231.788178 100.290842 
L 239.114047 100.290842 
L 246.439916 100.290842 
L 253.765784 100.290842 
L 261.091653 100.290842 
L 268.417522 100.290842 
L 275.74339 100.290842 
L 283.069259 100.290842 
L 290.395127 100.290842 
L 297.720996 100.290842 
L 305.046865 100.290842 
L 312.372733 100.290842 
L 319.698602 100.290842 
L 327.024471 100.290842 
L 334.350339 100.290842 
L 341.676208 100.290842 
L 349.002077 100.290842 
L 356.327945 100.290842 
L 363.653814 100.290842 
L 370.979682 100.290842 
L 378.305551 100.290842 
L 385.63142 100.290842 
L 392.957288 100.290842 
L 400.283157 100.290842 
L 407.609026 100.290842 
" clip-path="url(#p7140395b12)" style="fill: none; stroke-dasharray: 0.3,0.495; stroke-dashoffset: 0; stroke: #808080; stroke-width: 0.3"/>
   </g>
   <g id="line2d_17">
    <path d="M 48.641463 100.290842 
L 55.967331 101.186468 
L 63.2932 102.082094 
L 70.619069 102.97772 
L 77.944937 103.873346 
L 85.270806 104.768972 
L 92.596675 105.664599 
L 99.922543 106.560225 
L 107.248412 107.455851 
L 114.57428 108.351477 
L 121.900149 109.247103 
L 129.226018 110.142729 
L 136.551886 111.038356 
L 143.877755 111.933982 
L 151.203624 112.829608 
L 158.529492 113.725234 
L 165.855361 114.62086 
L 173.181229 115.516487 
L 180.507098 116.412113 
L 187.832967 117.307739 
L 195.158835 118.203365 
L 202.484704 119.098991 
L 209.810573 119.994617 
L 217.136441 120.890244 
L 224.46231 121.78587 
L 231.788178 122.681496 
L 239.114047 123.577122 
L 246.439916 124.472748 
L 253.765784 125.368374 
L 261.091653 126.264001 
L 268.417522 127.159627 
L 275.74339 128.055253 
L 283.069259 128.950879 
L 290.395127 129.846505 
L 297.720996 130.742131 
L 305.046865 131.637758 
L 312.372733 132.533384 
L 319.698602 133.42901 
L 327.024471 134.324636 
L 334.350339 135.220262 
L 341.676208 136.115889 
L 349.002077 137.011515 
L 356.327945 137.907141 
L 363.653814 138.802767 
L 370.979682 139.698393 
L 378.305551 140.594019 
L 385.63142 141.489646 
L 392.957288 142.385272 
L 400.283157 143.280898 
L 407.609026 144.176524 
" clip-path="url(#p7140395b12)" style="fill: none; stroke-dasharray: 0.3,0.495; stroke-dashoffset: 0; stroke: #808080; stroke-width: 0.3"/>
   </g>
   <g id="line2d_18">
    <path d="M 48.641463 100.290842 
L 55.967331 99.395215 
L 63.2932 98.499589 
L 70.619069 97.603963 
L 77.944937 96.708337 
L 85.270806 95.812711 
L 92.596675 94.917085 
L 99.922543 94.021458 
L 107.248412 93.125832 
L 114.57428 92.230206 
L 121.900149 91.33458 
L 129.226018 90.438954 
L 136.551886 89.543328 
L 143.877755 88.647701 
L 151.203624 87.752075 
L 158.529492 86.856449 
L 165.855361 85.960823 
L 173.181229 85.065197 
L 180.507098 84.16957 
L 187.832967 83.273944 
L 195.158835 82.378318 
L 202.484704 81.482692 
L 209.810573 80.587066 
L 217.136441 79.69144 
L 224.46231 78.795813 
L 231.788178 77.900187 
L 239.114047 77.004561 
L 246.439916 76.108935 
L 253.765784 75.213309 
L 261.091653 74.317683 
L 268.417522 73.422056 
L 275.74339 72.52643 
L 283.069259 71.630804 
L 290.395127 70.735178 
L 297.720996 69.839552 
L 305.046865 68.943926 
L 312.372733 68.048299 
L 319.698602 67.152673 
L 327.024471 66.257047 
L 334.350339 65.361421 
L 341.676208 64.465795 
L 349.002077 63.570169 
L 356.327945 62.674542 
L 363.653814 61.778916 
L 370.979682 60.88329 
L 378.305551 59.987664 
L 385.63142 59.092038 
L 392.957288 58.196411 
L 400.283157 57.300785 
L 407.609026 56.405159 
" clip-path="url(#p7140395b12)" style="fill: none; stroke-dasharray: 0.3,0.495; stroke-dashoffset: 0; stroke: #808080; stroke-width: 0.3"/>
   </g>
   <g id="line2d_19">
    <path d="M 48.641463 100.290842 
L 55.967331 102.082094 
L 63.2932 103.873346 
L 70.619069 105.664599 
L 77.944937 107.455851 
L 85.270806 109.247103 
L 92.596675 111.038356 
L 99.922543 112.829608 
L 107.248412 114.62086 
L 114.57428 116.412113 
L 121.900149 118.203365 
L 129.226018 119.994617 
L 136.551886 121.78587 
L 143.877755 123.577122 
L 151.203624 125.368374 
L 158.529492 127.159627 
L 165.855361 128.950879 
L 173.181229 130.742131 
L 180.507098 132.533384 
L 187.832967 134.324636 
L 195.158835 136.115889 
L 202.484704 137.907141 
L 209.810573 139.698393 
L 217.136441 141.489646 
L 224.46231 143.280898 
L 231.788178 145.07215 
L 239.114047 146.863403 
L 246.439916 148.654655 
L 253.765784 150.445907 
L 261.091653 152.23716 
L 268.417522 154.028412 
L 275.74339 155.819664 
L 283.069259 157.610917 
L 290.395127 159.402169 
L 297.720996 161.193421 
L 305.046865 162.984674 
L 312.372733 164.775926 
L 319.698602 166.567178 
L 327.024471 168.358431 
L 334.350339 170.149683 
L 341.676208 171.940935 
L 349.002077 173.732188 
L 356.327945 175.52344 
L 363.653814 177.314692 
L 370.979682 179.105945 
L 378.305551 180.897197 
L 385.63142 182.688449 
L 392.957288 184.479702 
L 400.283157 186.270954 
L 407.609026 188.062207 
" clip-path="url(#p7140395b12)" style="fill: none; stroke-dasharray: 0.3,0.495; stroke-dashoffset: 0; stroke: #808080; stroke-width: 0.3"/>
   </g>
   <g id="line2d_20">
    <path d="M 48.641463 100.290842 
L 55.967331 98.499589 
L 63.2932 96.708337 
L 70.619069 94.917085 
L 77.944937 93.125832 
L 85.270806 91.33458 
L 92.596675 89.543328 
L 99.922543 87.752075 
L 107.248412 85.960823 
L 114.57428 84.16957 
L 121.900149 82.378318 
L 129.226018 80.587066 
L 136.551886 78.795813 
L 143.877755 77.004561 
L 151.203624 75.213309 
L 158.529492 73.422056 
L 165.855361 71.630804 
L 173.181229 69.839552 
L 180.507098 68.048299 
L 187.832967 66.257047 
L 195.158835 64.465795 
L 202.484704 62.674542 
L 209.810573 60.88329 
L 217.136441 59.092038 
L 224.46231 57.300785 
L 231.788178 55.509533 
L 239.114047 53.718281 
L 246.439916 51.927028 
L 253.765784 50.135776 
L 261.091653 48.344524 
L 268.417522 46.553271 
L 275.74339 44.762019 
L 283.069259 42.970767 
L 290.395127 41.179514 
L 297.720996 39.388262 
L 305.046865 37.59701 
L 312.372733 35.805757 
L 319.698602 34.014505 
L 327.024471 32.223252 
L 334.350339 30.432 
L 341.676208 28.640748 
L 349.002077 26.849495 
L 356.327945 25.058243 
L 363.653814 23.266991 
L 370.979682 21.475738 
L 378.305551 19.684486 
L 385.63142 17.893234 
L 392.957288 16.101981 
L 400.283157 14.310729 
L 407.609026 12.519477 
" clip-path="url(#p7140395b12)" style="fill: none; stroke-dasharray: 0.3,0.495; stroke-dashoffset: 0; stroke: #808080; stroke-width: 0.3"/>
   </g>
   <g id="line2d_21">
    <path d="M 48.641463 100.290842 
L 55.967331 102.97772 
L 63.2932 105.664599 
L 70.619069 108.351477 
L 77.944937 111.038356 
L 85.270806 113.725234 
L 92.596675 116.412113 
L 99.922543 119.098991 
L 107.248412 121.78587 
L 114.57428 124.472748 
L 121.900149 127.159627 
L 129.226018 129.846505 
L 136.551886 132.533384 
L 143.877755 135.220262 
L 151.203624 137.907141 
L 158.529492 140.594019 
L 165.855361 143.280898 
L 173.181229 145.967776 
L 180.507098 148.654655 
L 187.832967 151.341533 
L 195.158835 154.028412 
L 202.484704 156.71529 
L 209.810573 159.402169 
L 217.136441 162.089048 
L 224.46231 164.775926 
L 231.788178 167.462805 
L 239.114047 170.149683 
L 246.439916 172.836562 
L 253.765784 175.52344 
L 261.091653 178.210319 
L 268.417522 180.897197 
L 275.74339 183.584076 
L 283.069259 186.270954 
L 290.395127 188.957833 
L 297.720996 191.644711 
L 305.046865 194.33159 
L 312.372733 197.018468 
L 319.698602 199.705347 
L 327.024471 202.392225 
L 334.350339 205.079104 
L 341.676208 207.765982 
L 349.002077 210.452861 
L 356.327945 213.139739 
L 363.653814 215.826618 
L 370.979682 218.513496 
L 378.305551 221.200375 
L 385.63142 223.887253 
L 392.957288 226.574132 
L 400.283157 229.26101 
L 406.115187 231.4 
" clip-path="url(#p7140395b12)" style="fill: none; stroke-dasharray: 0.3,0.495; stroke-dashoffset: 0; stroke: #808080; stroke-width: 0.3"/>
   </g>
   <g id="line2d_22">
    <path d="M 48.641463 100.290842 
L 55.967331 97.603963 
L 63.2932 94.917085 
L 70.619069 92.230206 
L 77.944937 89.543328 
L 85.270806 86.856449 
L 92.596675 84.16957 
L 99.922543 81.482692 
L 107.248412 78.795813 
L 114.57428 76.108935 
L 121.900149 73.422056 
L 129.226018 70.735178 
L 136.551886 68.048299 
L 143.877755 65.361421 
L 151.203624 62.674542 
L 158.529492 59.987664 
L 165.855361 57.300785 
L 173.181229 54.613907 
L 180.507098 51.927028 
L 187.832967 49.24015 
L 195.158835 46.553271 
L 202.484704 43.866393 
L 209.810573 41.179514 
L 217.136441 38.492636 
L 224.46231 35.805757 
L 231.788178 33.118879 
L 239.114047 30.432 
L 246.439916 27.745122 
L 253.765784 25.058243 
L 261.091653 22.371365 
L 268.417522 19.684486 
L 275.74339 16.997608 
L 283.069259 14.310729 
L 290.395127 11.62385 
L 297.720996 8.936972 
L 305.046865 6.250093 
L 312.372733 3.563215 
L 319.698602 0.876336 
L 324.814499 -1 
" clip-path="url(#p7140395b12)" style="fill: none; stroke-dasharray: 0.3,0.495; stroke-dashoffset: 0; stroke: #808080; stroke-width: 0.3"/>
   </g>
   <g id="line2d_23">
    <path d="M 48.641463 100.290844 
L 55.967331 101.17221 
L 63.2932 102.025895 
L 70.619069 102.853106 
L 77.944937 103.65498 
L 85.270806 104.432591 
L 92.596675 105.186955 
L 99.922543 105.919034 
L 107.248412 106.629738 
L 114.57428 107.319926 
L 121.900149 107.990417 
L 129.226018 108.641984 
L 136.551886 109.275364 
L 143.877755 109.891254 
L 151.203624 110.490318 
L 158.529492 111.073187 
L 165.855361 111.640461 
L 173.181229 112.192712 
L 180.507098 112.730484 
L 187.832967 113.254297 
L 195.158835 113.764646 
L 202.484704 114.262002 
L 209.810573 114.746816 
L 217.136441 115.21952 
L 224.46231 115.680524 
L 231.788178 116.130222 
L 239.114047 116.56899 
L 246.439916 116.997189 
L 253.765784 117.415163 
L 261.091653 117.823242 
L 268.417522 118.221744 
L 275.74339 118.610971 
L 283.069259 118.991216 
L 290.395127 119.362756 
L 297.720996 119.725861 
L 305.046865 120.080788 
L 312.372733 120.427783 
L 319.698602 120.767086 
L 327.024471 121.098925 
L 334.350339 121.423519 
L 341.676208 121.74108 
L 349.002077 122.051812 
L 356.327945 122.355912 
L 363.653814 122.653567 
L 370.979682 122.94496 
L 378.305551 123.230266 
L 385.63142 123.509656 
L 392.957288 123.783292 
L 400.283157 124.051335 
L 407.609026 124.313957 
" clip-path="url(#p7140395b12)" style="fill: none; stroke: #ff800e; stroke-width: 1.5; stroke-linecap: square"/>
   </g>
   <g id="line2d_24">
    <path d="M 48.641463 100.290842 
L 55.967331 100.283603 
L 63.2932 100.261882 
L 70.619069 100.225662 
L 77.944937 100.174915 
L 85.270806 100.109603 
L 92.596675 100.02968 
L 99.922543 99.935078 
L 107.248412 99.825731 
L 114.57428 99.701554 
L 121.900149 99.562454 
L 129.226018 99.408324 
L 136.551886 99.239048 
L 143.877755 99.054492 
L 151.203624 98.854522 
L 158.529492 98.638982 
L 165.855361 98.407705 
L 173.181229 98.160516 
L 180.507098 97.897224 
L 187.832967 97.617624 
L 195.158835 97.321502 
L 202.484704 97.00863 
L 209.810573 96.678759 
L 217.136441 96.331643 
L 224.46231 95.967004 
L 231.788178 95.584556 
L 239.114047 95.184005 
L 246.439916 94.765033 
L 253.765784 94.327314 
L 261.091653 93.870499 
L 268.417522 93.394235 
L 275.74339 92.898138 
L 283.069259 92.381816 
L 290.395127 91.844871 
L 297.720996 91.286867 
L 305.046865 90.707359 
L 312.372733 90.1059 
L 319.698602 89.481994 
L 327.024471 88.835159 
L 334.350339 88.164874 
L 341.676208 87.470611 
L 349.002077 86.751824 
L 356.327945 86.007935 
L 363.653814 85.238386 
L 370.979682 84.442522 
L 378.305551 83.61973 
L 385.63142 82.769429 
L 392.957288 81.890872 
L 400.283157 80.983459 
L 407.609026 80.047102 
" clip-path="url(#p7140395b12)" style="fill: none; stroke: #006ba4; stroke-width: 1.5; stroke-linecap: square"/>
   </g>
   <g id="line2d_25">
    <path d="M 48.641463 100.290844 
L 55.967331 99.380519 
L 63.2932 98.439878 
L 70.619069 97.46748 
L 77.944937 96.461794 
L 85.270806 95.42119 
L 92.596675 94.343933 
L 99.922543 93.228172 
L 107.248412 92.071936 
L 114.57428 90.873117 
L 121.900149 89.629464 
L 129.226018 88.338568 
L 136.551886 86.99785 
L 143.877755 85.604544 
L 151.203624 84.155682 
L 158.529492 82.648077 
L 165.855361 81.078301 
L 173.181229 79.442662 
L 180.507098 77.737182 
L 187.832967 75.957568 
L 195.158835 74.099184 
L 202.484704 72.157014 
L 209.810573 70.125627 
L 217.136441 67.999136 
L 224.46231 65.771151 
L 231.788178 63.434728 
L 239.114047 60.982312 
L 246.439916 58.405675 
L 253.765784 55.695845 
L 261.091653 52.843028 
L 268.417522 49.836522 
L 275.74339 46.664619 
L 283.069259 43.314506 
L 290.395127 39.772143 
L 297.720996 36.02214 
L 305.046865 32.047619 
L 312.372733 27.830071 
L 319.698602 23.349197 
L 327.024471 18.582745 
L 334.350339 13.506356 
L 341.676208 8.093396 
L 349.002077 2.314817 
L 352.934198 -1 
" clip-path="url(#p7140395b12)" style="fill: none; stroke: #ababab; stroke-width: 1.5; stroke-linecap: square"/>
   </g>
   <g id="line2d_26">
    <path d="M 48.641463 100.290843 
L 55.967331 102.056555 
L 63.2932 103.772398 
L 70.619069 105.440133 
L 77.944937 107.061444 
L 85.270806 108.637943 
L 92.596675 110.171175 
L 99.922543 111.662619 
L 107.248412 113.113695 
L 114.57428 114.52576 
L 121.900149 115.900119 
L 129.226018 117.238023 
L 136.551886 118.540672 
L 143.877755 119.809218 
L 151.203624 121.044768 
L 158.529492 122.248386 
L 165.855361 123.421091 
L 173.181229 124.563867 
L 180.507098 125.677657 
L 187.832967 126.763369 
L 195.158835 127.821878 
L 202.484704 128.854024 
L 209.810573 129.860616 
L 217.136441 130.842435 
L 224.46231 131.800231 
L 231.788178 132.734728 
L 239.114047 133.646623 
L 246.439916 134.536589 
L 253.765784 135.405275 
L 261.091653 136.253305 
L 268.417522 137.081285 
L 275.74339 137.889795 
L 283.069259 138.6794 
L 290.395127 139.450642 
L 297.720996 140.204045 
L 305.046865 140.940117 
L 312.372733 141.659348 
L 319.698602 142.362211 
L 327.024471 143.049163 
L 334.350339 143.720647 
L 341.676208 144.377093 
L 349.002077 145.018913 
L 356.327945 145.646509 
L 363.653814 146.260268 
L 370.979682 146.860567 
L 378.305551 147.447769 
L 385.63142 148.022226 
L 392.957288 148.584278 
L 400.283157 149.134258 
L 407.609026 149.672485 
" clip-path="url(#p7140395b12)" style="fill: none; stroke: #595959; stroke-width: 1.5; stroke-linecap: square"/>
   </g>
   <g id="line2d_27">
    <path d="M 48.641463 100.290852 
L 55.967331 101.145578 
L 63.2932 101.920281 
L 70.619069 102.617473 
L 77.944937 103.23948 
L 85.270806 103.788455 
L 92.596675 104.266389 
L 99.922543 104.675124 
L 107.248412 105.01636 
L 114.57428 105.291667 
L 121.900149 105.502494 
L 129.226018 105.650174 
L 136.551886 105.735936 
L 143.877755 105.760906 
L 151.203624 105.726115 
L 158.529492 105.632509 
L 165.855361 105.480947 
L 173.181229 105.272211 
L 180.507098 105.007008 
L 187.832967 104.685977 
L 195.158835 104.309689 
L 202.484704 103.878652 
L 209.810573 103.393317 
L 217.136441 102.854078 
L 224.46231 102.261275 
L 231.788178 101.615201 
L 239.114047 100.916097 
L 246.439916 100.164164 
L 253.765784 99.359556 
L 261.091653 98.502391 
L 268.417522 97.592747 
L 275.74339 96.630665 
L 283.069259 95.616155 
L 290.395127 94.549194 
L 297.720996 93.429729 
L 305.046865 92.25768 
L 312.372733 91.032941 
L 319.698602 89.755382 
L 327.024471 88.42485 
L 334.350339 87.041174 
L 341.676208 85.604162 
L 349.002077 84.113608 
L 356.327945 82.569288 
L 363.653814 80.970968 
L 370.979682 79.318401 
L 378.305551 77.611332 
L 385.63142 75.849498 
L 392.957288 74.032631 
L 400.283157 72.160466 
L 407.609026 70.232794 
" clip-path="url(#p7140395b12)" style="fill: none; stroke: #ff800e; stroke-width: 1.5; stroke-linecap: square"/>
   </g>
   <g id="line2d_28">
    <path d="M 48.641463 100.290844 
L 55.967331 100.244307 
L 63.2932 100.104607 
L 70.619069 99.87149 
L 77.944937 99.544528 
L 85.270806 99.123119 
L 92.596675 98.606485 
L 99.922543 97.993668 
L 107.248412 97.283531 
L 114.57428 96.474748 
L 121.900149 95.565802 
L 129.226018 94.554979 
L 136.551886 93.440358 
L 143.877755 92.219807 
L 151.203624 90.890985 
L 158.529492 89.451307 
L 165.855361 87.897956 
L 173.181229 86.227873 
L 180.507098 84.437724 
L 187.832967 82.523914 
L 195.158835 80.482555 
L 202.484704 78.309458 
L 209.810573 76.000112 
L 217.136441 73.549682 
L 224.46231 70.952967 
L 231.788178 68.204401 
L 239.114047 65.298024 
L 246.439916 62.227467 
L 253.765784 58.985918 
L 261.091653 55.566104 
L 268.417522 51.960283 
L 275.74339 48.160192 
L 283.069259 44.157042 
L 290.395127 39.941501 
L 297.720996 35.503622 
L 305.046865 30.832893 
L 312.372733 25.918162 
L 319.698602 20.74764 
L 327.024471 15.308874 
L 334.350339 9.588734 
L 341.676208 3.573459 
L 346.973483 -1 
" clip-path="url(#p7140395b12)" style="fill: none; stroke: #006ba4; stroke-width: 1.5; stroke-linecap: square"/>
   </g>
   <g id="line2d_29">
    <path d="M 48.641463 100.290852 
L 55.967331 99.353386 
L 63.2932 98.330246 
L 70.619069 97.218263 
L 77.944937 96.014009 
L 85.270806 94.71378 
L 92.596675 93.313568 
L 99.922543 91.809034 
L 107.248412 90.19548 
L 114.57428 88.467813 
L 121.900149 86.620509 
L 129.226018 84.647571 
L 136.551886 82.542481 
L 143.877755 80.298147 
L 151.203624 77.906846 
L 158.529492 75.360155 
L 165.855361 72.648876 
L 173.181229 69.762953 
L 180.507098 66.691372 
L 187.832967 63.422054 
L 195.158835 59.941733 
L 202.484704 56.235808 
L 209.810573 52.288186 
L 217.136441 48.081095 
L 224.46231 43.594871 
L 231.788178 38.807716 
L 239.114047 33.695415 
L 246.439916 28.231011 
L 253.765784 22.384437 
L 261.091653 16.122076 
L 268.417522 9.406267 
L 275.74339 2.194726 
L 278.76139 -1 
" clip-path="url(#p7140395b12)" style="fill: none; stroke: #ababab; stroke-width: 1.5; stroke-linecap: square"/>
   </g>
   <g id="line2d_30">
    <path d="M 48.641463 100.290843 
L 55.967331 98.473423 
L 63.2932 96.602373 
L 70.619069 94.675679 
L 77.944937 92.691239 
L 85.270806 90.64685 
L 92.596675 88.540205 
L 99.922543 86.368892 
L 107.248412 84.130379 
L 114.57428 81.822017 
L 121.900149 79.441029 
L 129.226018 76.984503 
L 136.551886 74.449383 
L 143.877755 71.832469 
L 151.203624 69.130399 
L 158.529492 66.339648 
L 165.855361 63.456515 
L 173.181229 60.477116 
L 180.507098 57.397375 
L 187.832967 54.213013 
L 195.158835 50.919535 
L 202.484704 47.512226 
L 209.810573 43.986134 
L 217.136441 40.336063 
L 224.46231 36.556561 
L 231.788178 32.641904 
L 239.114047 28.586095 
L 246.439916 24.382843 
L 253.765784 20.025556 
L 261.091653 15.507335 
L 268.417522 10.820956 
L 275.74339 5.95887 
L 283.069259 0.913192 
L 285.745306 -1 
" clip-path="url(#p7140395b12)" style="fill: none; stroke: #5f9ed1; stroke-width: 1.5; stroke-linecap: square"/>
   </g>
   <g id="line2d_31">
    <path d="M 48.641463 100.290843 
L 55.967331 102.941894 
L 63.2932 105.522716 
L 70.619069 108.035398 
L 77.944937 110.481962 
L 85.270806 112.864365 
L 92.596675 115.184503 
L 99.922543 117.444209 
L 107.248412 119.645258 
L 114.57428 121.789369 
L 121.900149 123.878207 
L 129.226018 125.913383 
L 136.551886 127.896457 
L 143.877755 129.828942 
L 151.203624 131.7123 
L 158.529492 133.54795 
L 165.855361 135.337265 
L 173.181229 137.081576 
L 180.507098 138.782172 
L 187.832967 140.440302 
L 195.158835 142.057177 
L 202.484704 143.63397 
L 209.810573 145.171818 
L 217.136441 146.671824 
L 224.46231 148.135056 
L 231.788178 149.562551 
L 239.114047 150.955313 
L 246.439916 152.314315 
L 253.765784 153.640504 
L 261.091653 154.934795 
L 268.417522 156.198076 
L 275.74339 157.43121 
L 283.069259 158.635033 
L 290.395127 159.810356 
L 297.720996 160.957966 
L 305.046865 162.078627 
L 312.372733 163.17308 
L 319.698602 164.242044 
L 327.024471 165.286217 
L 334.350339 166.306276 
L 341.676208 167.302879 
L 349.002077 168.276663 
L 356.327945 169.228248 
L 363.653814 170.158236 
L 370.979682 171.06721 
L 378.305551 171.955736 
L 385.63142 172.824366 
L 392.957288 173.673632 
L 400.283157 174.504054 
L 407.609026 175.316135 
" clip-path="url(#p7140395b12)" style="fill: none; stroke: #c85200; stroke-width: 1.5; stroke-linecap: square"/>
   </g>
   <g id="line2d_32">
    <path d="M 48.641463 100.290846 
L 55.967331 102.010437 
L 63.2932 103.589494 
L 70.619069 105.032008 
L 77.944937 106.341723 
L 85.270806 107.522155 
L 92.596675 108.576602 
L 99.922543 109.508162 
L 107.248412 110.319741 
L 114.57428 111.014068 
L 121.900149 111.593703 
L 129.226018 112.061048 
L 136.551886 112.418358 
L 143.877755 112.667746 
L 151.203624 112.811197 
L 158.529492 112.850569 
L 165.855361 112.787605 
L 173.181229 112.623941 
L 180.507098 112.361105 
L 187.832967 112.000532 
L 195.158835 111.543565 
L 202.484704 110.991461 
L 209.810573 110.345396 
L 217.136441 109.606471 
L 224.46231 108.775718 
L 231.788178 107.8541 
L 239.114047 106.842519 
L 246.439916 105.74182 
L 253.765784 104.552793 
L 261.091653 103.276178 
L 268.417522 101.912669 
L 275.74339 100.462917 
L 283.069259 98.927532 
L 290.395127 97.307088 
L 297.720996 95.602126 
L 305.046865 93.813157 
L 312.372733 91.940664 
L 319.698602 89.985103 
L 327.024471 87.946912 
L 334.350339 85.826507 
L 341.676208 83.624286 
L 349.002077 81.340635 
L 356.327945 78.975925 
L 363.653814 76.530519 
L 370.979682 74.004771 
L 378.305551 71.399028 
L 385.63142 68.713633 
L 392.957288 65.948927 
L 400.283157 63.105251 
L 407.609026 60.182946 
" clip-path="url(#p7140395b12)" style="fill: none; stroke: #595959; stroke-width: 1.5; stroke-linecap: square"/>
   </g>
   <g id="line2d_33">
    <path d="M 48.641463 100.290868 
L 55.967331 101.092893 
L 63.2932 101.709546 
L 70.619069 102.143271 
L 77.944937 102.396111 
L 85.270806 102.469732 
L 92.596675 102.365437 
L 99.922543 102.084181 
L 107.248412 101.626578 
L 114.57428 100.992916 
L 121.900149 100.183161 
L 129.226018 99.196969 
L 136.551886 98.033686 
L 143.877755 96.692356 
L 151.203624 95.171722 
L 158.529492 93.470232 
L 165.855361 91.586036 
L 173.181229 89.51699 
L 180.507098 87.260653 
L 187.832967 84.814289 
L 195.158835 82.174865 
L 202.484704 79.339047 
L 209.810573 76.3032 
L 217.136441 73.063387 
L 224.46231 69.61536 
L 231.788178 65.954565 
L 239.114047 62.076134 
L 246.439916 57.974884 
L 253.765784 53.645317 
L 261.091653 49.081612 
L 268.417522 44.277631 
L 275.74339 39.226916 
L 283.069259 33.922688 
L 290.395127 28.35785 
L 297.720996 22.524996 
L 305.046865 16.416408 
L 312.372733 10.02407 
L 319.698602 3.339678 
L 324.25004 -1 
" clip-path="url(#p7140395b12)" style="fill: none; stroke: #ff800e; stroke-width: 1.5; stroke-linecap: square"/>
   </g>
   <g id="line2d_34">
    <path d="M 48.641463 100.290848 
L 55.967331 100.189495 
L 63.2932 99.885183 
L 70.619069 99.377162 
L 77.944937 98.66418 
L 85.270806 97.744474 
L 92.596675 96.615754 
L 99.922543 95.275203 
L 107.248412 93.719448 
L 114.57428 91.944549 
L 121.900149 89.945974 
L 129.226018 87.71857 
L 136.551886 85.256531 
L 143.877755 82.553377 
L 151.203624 79.601897 
L 158.529492 76.394115 
L 165.855361 72.921241 
L 173.181229 69.173618 
L 180.507098 65.140649 
L 187.832967 60.810753 
L 195.158835 56.171272 
L 202.484704 51.208394 
L 209.810573 45.907064 
L 217.136441 40.250892 
L 224.46231 34.222026 
L 231.788178 27.80106 
L 239.114047 20.966885 
L 246.439916 13.696556 
L 253.765784 5.965134 
L 259.973582 -1 
" clip-path="url(#p7140395b12)" style="fill: none; stroke: #006ba4; stroke-width: 1.5; stroke-linecap: square"/>
   </g>
   <g id="line2d_35">
    <path d="M 48.641463 100.290868 
L 55.967331 99.300616 
L 63.2932 98.118839 
L 70.619069 96.741775 
L 77.944937 95.165165 
L 85.270806 93.384222 
L 92.596675 91.393591 
L 99.922543 89.187308 
L 107.248412 86.758747 
L 114.57428 84.10057 
L 121.900149 81.20466 
L 129.226018 78.062054 
L 136.551886 74.662856 
L 143.877755 70.99615 
L 151.203624 67.049893 
L 158.529492 62.810796 
L 165.855361 58.264183 
L 173.181229 53.393836 
L 180.507098 48.181812 
L 187.832967 42.608231 
L 195.158835 36.651035 
L 202.484704 30.285704 
L 209.810573 23.484925 
L 217.136441 16.218211 
L 224.46231 8.451447 
L 231.788178 0.146357 
L 232.733217 -1 
" clip-path="url(#p7140395b12)" style="fill: none; stroke: #ababab; stroke-width: 1.5; stroke-linecap: square"/>
   </g>
   <g id="line2d_36">
    <path d="M 48.641463 100.290846 
L 55.967331 98.42647 
L 63.2932 96.412776 
L 70.619069 94.244935 
L 77.944937 91.917795 
L 85.270806 89.425867 
L 92.596675 86.763292 
L 99.922543 83.923819 
L 107.248412 80.900779 
L 114.57428 77.68705 
L 121.900149 74.275025 
L 129.226018 70.656578 
L 136.551886 66.823023 
L 143.877755 62.765072 
L 151.203624 58.472789 
L 158.529492 53.935543 
L 165.855361 49.141948 
L 173.181229 44.079812 
L 180.507098 38.736068 
L 187.832967 33.096709 
L 195.158835 27.146712 
L 202.484704 20.869959 
L 209.810573 14.249153 
L 217.136441 7.265721 
L 224.46231 -0.10028 
L 225.310603 -1 
" clip-path="url(#p7140395b12)" style="fill: none; stroke: #5f9ed1; stroke-width: 1.5; stroke-linecap: square"/>
   </g>
   <g id="line2d_37">
    <path d="M 48.641463 100.290843 
L 55.967331 97.567406 
L 63.2932 94.769351 
L 70.619069 91.894375 
L 77.944937 88.940097 
L 85.270806 85.904058 
L 92.596675 82.783718 
L 99.922543 79.576451 
L 107.248412 76.279547 
L 114.57428 72.890205 
L 121.900149 69.405534 
L 129.226018 65.822549 
L 136.551886 62.138166 
L 143.877755 58.349205 
L 151.203624 54.452382 
L 158.529492 50.444313 
L 165.855361 46.321503 
L 173.181229 42.080354 
L 180.507098 37.717154 
L 187.832967 33.228083 
L 195.158835 28.609207 
L 202.484704 23.856478 
L 209.810573 18.965731 
L 217.136441 13.93269 
L 224.46231 8.752961 
L 231.788178 3.422036 
L 237.692456 -1 
" clip-path="url(#p7140395b12)" style="fill: none; stroke: #898989; stroke-width: 1.5; stroke-linecap: square"/>
   </g>
   <g id="patch_3">
    <path d="M 48.641463 193.381683 
L 48.641463 7.2 
" style="fill: none; stroke: #000000; stroke-width: 0.8; stroke-linejoin: miter; stroke-linecap: square"/>
   </g>
   <g id="patch_4">
    <path d="M 411.234961 193.381683 
L 411.234961 7.2 
" style="fill: none; stroke: #000000; stroke-width: 0.8; stroke-linejoin: miter; stroke-linecap: square"/>
   </g>
   <g id="patch_5">
    <path d="M 48.641463 193.381683 
L 411.234961 193.381683 
" style="fill: none; stroke: #000000; stroke-width: 0.8; stroke-linejoin: miter; stroke-linecap: square"/>
   </g>
   <g id="patch_6">
    <path d="M 48.641463 7.2 
L 411.234961 7.2 
" style="fill: none; stroke: #000000; stroke-width: 0.8; stroke-linejoin: miter; stroke-linecap: square"/>
   </g>
  </g>
 </g>
 <defs>
  <clipPath id="p7140395b12">
   <rect x="48.641463" y="7.2" width="362.593498" height="186.181683"/>
  </clipPath>
 </defs>
</svg>
