<?xml version="1.0" encoding="utf-8" standalone="no"?>
<!DOCTYPE svg PUBLIC "-//W3C//DTD SVG 1.1//EN"
  "http://www.w3.org/Graphics/SVG/1.1/DTD/svg11.dtd">
<svg xmlns:xlink="http://www.w3.org/1999/xlink" width="387.874054pt" height="212.890603pt" viewBox="0 0 387.874054 212.890603" xmlns="http://www.w3.org/2000/svg" version="1.1">
 <metadata>
  <rdf:RDF xmlns:dc="http://purl.org/dc/elements/1.1/" xmlns:cc="http://creativecommons.org/ns#" xmlns:rdf="http://www.w3.org/1999/02/22-rdf-syntax-ns#">
   <cc:Work>
    <dc:type rdf:resource="http://purl.org/dc/dcmitype/StillImage"/>
    <dc:date>2025-01-23T19:35:16.199709</dc:date>
    <dc:format>image/svg+xml</dc:format>
    <dc:creator>
     <cc:Agent>
      <dc:title>Matplotlib v3.9.2, https://matplotlib.org/</dc:title>
     </cc:Agent>
    </dc:creator>
   </cc:Work>
  </rdf:RDF>
 </metadata>
 <defs>
  <style type="text/css">*{stroke-linejoin: round; stroke-linecap: butt}</style>
 </defs>
 <g id="figure_1">
  <g id="patch_1">
   <path d="M 0 212.890603 
L 387.874054 212.890603 
L 387.874054 0 
L 0 0 
L 0 212.890603 
z
" style="fill: none"/>
  </g>
  <g id="axes_1">
   <g id="patch_2">
    <path d="M 40.892719 176.979249 
L 375.692719 176.979249 
L 375.692719 10.659249 
L 40.892719 10.659249 
L 40.892719 176.979249 
z
" style="fill: none"/>
   </g>
   <g id="PolyCollection_1">
    <path d="M 40.892719 10.659249 
L 40.892719 161.859249 
L 41.227854 161.859249 
L 41.562989 161.859249 
L 41.898124 161.859249 
L 42.23326 161.859249 
L 42.568395 161.859249 
L 42.90353 161.859249 
L 43.238665 161.859249 
L 43.5738 161.859249 
L 43.908935 161.859249 
L 44.24407 161.859249 
L 44.579206 161.859249 
L 44.914341 161.859249 
L 45.249476 161.859249 
L 45.584611 161.859249 
L 45.919746 161.859249 
L 46.254881 161.859249 
L 46.590016 161.859249 
L 46.925152 161.859249 
L 47.260287 161.859249 
L 47.595422 161.859249 
L 47.930557 161.859249 
L 48.265692 161.859249 
L 48.600827 161.859249 
L 48.935962 161.859249 
L 49.271097 161.859249 
L 49.606233 161.859249 
L 49.941368 161.859249 
L 50.276503 161.859249 
L 50.611638 161.859249 
L 50.946773 161.859249 
L 51.281908 161.859249 
L 51.617043 161.859249 
L 51.952179 161.859249 
L 52.287314 161.859249 
L 52.622449 161.859249 
L 52.957584 161.859249 
L 53.292719 161.859249 
L 53.627854 161.859249 
L 53.962989 161.859249 
L 54.298124 161.859249 
L 54.63326 161.859249 
L 54.968395 161.859249 
L 55.30353 161.859249 
L 55.638665 161.859249 
L 55.9738 161.859249 
L 56.308935 161.859249 
L 56.64407 161.859249 
L 56.979206 161.859249 
L 57.314341 161.859249 
L 57.649476 161.859249 
L 57.984611 161.859249 
L 58.319746 161.859249 
L 58.654881 161.859249 
L 58.990016 161.859249 
L 59.325152 161.859249 
L 59.660287 161.859249 
L 59.995422 161.859249 
L 60.330557 161.859249 
L 60.665692 161.859249 
L 61.000827 161.859249 
L 61.335962 161.859249 
L 61.671097 161.859249 
L 62.006233 161.859249 
L 62.341368 161.859249 
L 62.676503 161.859249 
L 63.011638 161.859249 
L 63.346773 161.859249 
L 63.681908 161.859249 
L 64.017043 161.859249 
L 64.352179 161.859249 
L 64.687314 161.859249 
L 65.022449 161.859249 
L 65.357584 161.859249 
L 65.692719 161.859249 
L 66.027854 161.859249 
L 66.362989 161.859249 
L 66.698124 161.859249 
L 67.03326 161.859249 
L 67.368395 161.859249 
L 67.70353 161.859249 
L 68.038665 161.859249 
L 68.3738 161.859249 
L 68.708935 161.859249 
L 69.04407 161.859249 
L 69.379206 161.859249 
L 69.714341 161.859249 
L 70.049476 161.859249 
L 70.384611 161.859249 
L 70.719746 161.859249 
L 71.054881 161.859249 
L 71.390016 161.859249 
L 71.725152 161.859249 
L 72.060287 161.859249 
L 72.395422 161.859249 
L 72.730557 161.859249 
L 73.065692 161.859249 
L 73.400827 161.859249 
L 73.735962 161.859249 
L 74.071097 161.859249 
L 74.406233 161.859249 
L 74.741368 161.859249 
L 75.076503 161.859249 
L 75.411638 161.859249 
L 75.746773 161.859249 
L 76.081908 161.859249 
L 76.417043 161.859249 
L 76.752179 161.859249 
L 77.087314 161.859249 
L 77.422449 161.859249 
L 77.757584 161.859249 
L 78.092719 161.859249 
L 78.427854 161.859249 
L 78.762989 161.859249 
L 79.098124 161.859249 
L 79.43326 161.859249 
L 79.768395 161.859249 
L 80.10353 161.859249 
L 80.438665 161.859249 
L 80.7738 161.859249 
L 81.108935 161.859249 
L 81.44407 161.859249 
L 81.779206 161.859249 
L 82.114341 161.859249 
L 82.449476 161.859249 
L 82.784611 161.859249 
L 83.119746 161.859249 
L 83.454881 161.859249 
L 83.790016 161.859249 
L 84.125152 161.859249 
L 84.460287 161.859249 
L 84.795422 161.859249 
L 85.130557 161.859249 
L 85.465692 161.859249 
L 85.800827 161.859249 
L 86.135962 161.859249 
L 86.471097 161.859249 
L 86.806233 161.859249 
L 87.141368 161.859249 
L 87.476503 161.859249 
L 87.811638 161.859248 
L 88.146773 161.859248 
L 88.481908 161.859248 
L 88.817043 161.859248 
L 89.152179 161.859248 
L 89.487314 161.859248 
L 89.822449 161.859248 
L 90.157584 161.859248 
L 90.492719 161.859248 
L 90.827854 161.859248 
L 91.162989 161.859248 
L 91.498124 161.859248 
L 91.83326 161.859248 
L 92.168395 161.859248 
L 92.50353 161.859248 
L 92.838665 161.859248 
L 93.1738 161.859248 
L 93.508935 161.859248 
L 93.84407 161.859247 
L 94.179206 161.859247 
L 94.514341 161.859247 
L 94.849476 161.859247 
L 95.184611 161.859247 
L 95.519746 161.859247 
L 95.854881 161.859247 
L 96.190016 161.859247 
L 96.525152 161.859247 
L 96.860287 161.859247 
L 97.195422 161.859246 
L 97.530557 161.859246 
L 97.865692 161.859246 
L 98.200827 161.859246 
L 98.535962 161.859246 
L 98.871097 161.859246 
L 99.206233 161.859245 
L 99.541368 161.859245 
L 99.876503 161.859245 
L 100.211638 161.859245 
L 100.546773 161.859245 
L 100.881908 161.859244 
L 101.217043 161.859244 
L 101.552179 161.859244 
L 101.887314 161.859243 
L 102.222449 161.859243 
L 102.557584 161.859243 
L 102.892719 161.859243 
L 103.227854 161.859242 
L 103.562989 161.859242 
L 103.898124 161.859242 
L 104.23326 161.859241 
L 104.568395 161.859241 
L 104.90353 161.85924 
L 105.238665 161.85924 
L 105.5738 161.859239 
L 105.908935 161.859239 
L 106.24407 161.859238 
L 106.579206 161.859238 
L 106.914341 161.859237 
L 107.249476 161.859237 
L 107.584611 161.859236 
L 107.919746 161.859235 
L 108.254881 161.859234 
L 108.590016 161.859234 
L 108.925152 161.859233 
L 109.260287 161.859232 
L 109.595422 161.859231 
L 109.930557 161.85923 
L 110.265692 161.859229 
L 110.600827 161.859228 
L 110.935962 161.859227 
L 111.271097 161.859226 
L 111.606233 161.859225 
L 111.941368 161.859224 
L 112.276503 161.859222 
L 112.611638 161.859221 
L 112.946773 161.859219 
L 113.281908 161.859218 
L 113.617043 161.859216 
L 113.952179 161.859215 
L 114.287314 161.859213 
L 114.622449 161.859211 
L 114.957584 161.859209 
L 115.292719 161.859207 
L 115.627854 161.859205 
L 115.962989 161.859203 
L 116.298124 161.8592 
L 116.63326 161.859198 
L 116.968395 161.859195 
L 117.30353 161.859192 
L 117.638665 161.859189 
L 117.9738 161.859186 
L 118.308935 161.859183 
L 118.64407 161.85918 
L 118.979206 161.859176 
L 119.314341 161.859172 
L 119.649476 161.859168 
L 119.984611 161.859164 
L 120.319746 161.85916 
L 120.654881 161.859155 
L 120.990016 161.85915 
L 121.325152 161.859145 
L 121.660287 161.85914 
L 121.995422 161.859134 
L 122.330557 161.859129 
L 122.665692 161.859122 
L 123.000827 161.859116 
L 123.335962 161.859109 
L 123.671097 161.859102 
L 124.006233 161.859094 
L 124.341368 161.859086 
L 124.676503 161.859078 
L 125.011638 161.859069 
L 125.346773 161.85906 
L 125.681908 161.85905 
L 126.017043 161.85904 
L 126.352179 161.859029 
L 126.687314 161.859018 
L 127.022449 161.859006 
L 127.357584 161.858994 
L 127.692719 161.858981 
L 128.027854 161.858967 
L 128.362989 161.858952 
L 128.698124 161.858937 
L 129.03326 161.858921 
L 129.368395 161.858904 
L 129.70353 161.858887 
L 130.038665 161.858868 
L 130.3738 161.858848 
L 130.708935 161.858828 
L 131.04407 161.858806 
L 131.379206 161.858783 
L 131.714341 161.85876 
L 132.049476 161.858734 
L 132.384611 161.858708 
L 132.719746 161.85868 
L 133.054881 161.858651 
L 133.390016 161.85862 
L 133.725152 161.858588 
L 134.060287 161.858554 
L 134.395422 161.858518 
L 134.730557 161.858481 
L 135.065692 161.858441 
L 135.400827 161.8584 
L 135.735962 161.858356 
L 136.071097 161.858311 
L 136.406233 161.858262 
L 136.741368 161.858212 
L 137.076503 161.858159 
L 137.411638 161.858103 
L 137.746773 161.858044 
L 138.081908 161.857982 
L 138.417043 161.857917 
L 138.752179 161.857848 
L 139.087314 161.857777 
L 139.422449 161.857701 
L 139.757584 161.857622 
L 140.092719 161.857538 
L 140.427854 161.85745 
L 140.762989 161.857358 
L 141.098124 161.857261 
L 141.43326 161.857159 
L 141.768395 161.857052 
L 142.10353 161.856939 
L 142.438665 161.85682 
L 142.7738 161.856695 
L 143.108935 161.856564 
L 143.44407 161.856427 
L 143.779206 161.856282 
L 144.114341 161.856129 
L 144.449476 161.855969 
L 144.784611 161.855801 
L 145.119746 161.855624 
L 145.454881 161.855438 
L 145.790016 161.855242 
L 146.125152 161.855037 
L 146.460287 161.854821 
L 146.795422 161.854593 
L 147.130557 161.854354 
L 147.465692 161.854103 
L 147.800827 161.853839 
L 148.135962 161.853561 
L 148.471097 161.85327 
L 148.806233 161.852963 
L 149.141368 161.85264 
L 149.476503 161.852301 
L 149.811638 161.851944 
L 150.146773 161.851569 
L 150.481908 161.851175 
L 150.817043 161.85076 
L 151.152179 161.850324 
L 151.487314 161.849866 
L 151.822449 161.849384 
L 152.157584 161.848878 
L 152.492719 161.848345 
L 152.827854 161.847785 
L 153.162989 161.847196 
L 153.498124 161.846577 
L 153.83326 161.845925 
L 154.168395 161.84524 
L 154.50353 161.84452 
L 154.838665 161.843762 
L 155.1738 161.842965 
L 155.508935 161.842127 
L 155.84407 161.841245 
L 156.179206 161.840317 
L 156.514341 161.83934 
L 156.849476 161.838313 
L 157.184611 161.837231 
L 157.519746 161.836092 
L 157.854881 161.834894 
L 158.190016 161.833631 
L 158.525152 161.832302 
L 158.860287 161.830901 
L 159.195422 161.829425 
L 159.530557 161.827869 
L 159.865692 161.826229 
L 160.200827 161.824498 
L 160.535962 161.822672 
L 160.871097 161.820744 
L 161.206233 161.818708 
L 161.541368 161.816557 
L 161.876503 161.814282 
L 162.211638 161.811876 
L 162.546773 161.809329 
L 162.881908 161.80663 
L 163.217043 161.80377 
L 163.552179 161.800735 
L 163.887314 161.797512 
L 164.222449 161.794087 
L 164.557584 161.790443 
L 164.892719 161.786562 
L 165.227854 161.782425 
L 165.562989 161.77801 
L 165.898124 161.773292 
L 166.23326 161.768245 
L 166.568395 161.762839 
L 166.90353 161.757042 
L 167.238665 161.750816 
L 167.5738 161.744121 
L 167.908935 161.736912 
L 168.24407 161.72914 
L 168.579206 161.720749 
L 168.914341 161.711678 
L 169.249476 161.701858 
L 169.584611 161.691215 
L 169.919746 161.679664 
L 170.254881 161.667114 
L 170.590016 161.653461 
L 170.925152 161.638593 
L 171.260287 161.622384 
L 171.595422 161.604697 
L 171.930557 161.585378 
L 172.265692 161.56426 
L 172.600827 161.541158 
L 172.935962 161.515869 
L 173.271097 161.48817 
L 173.606233 161.457816 
L 173.941368 161.424539 
L 174.276503 161.388045 
L 174.611638 161.348014 
L 174.946773 161.304097 
L 175.281908 161.255912 
L 175.617043 161.203044 
L 175.952179 161.145045 
L 176.287314 161.081424 
L 176.622449 161.011655 
L 176.957584 160.935165 
L 177.292719 160.851337 
L 177.627854 160.759506 
L 177.962989 160.658959 
L 178.298124 160.548928 
L 178.63326 160.428589 
L 178.968395 160.297064 
L 179.30353 160.153413 
L 179.638665 159.996635 
L 179.9738 159.825666 
L 180.308935 159.639376 
L 180.64407 159.436568 
L 180.979206 159.215978 
L 181.314341 158.976273 
L 181.649476 158.716049 
L 181.984611 158.433833 
L 182.319746 158.128082 
L 182.654881 157.797185 
L 182.990016 157.439463 
L 183.325152 157.053169 
L 183.660287 156.636495 
L 183.995422 156.18757 
L 184.330557 155.704467 
L 184.665692 155.185206 
L 185.000827 154.627758 
L 185.335962 154.030053 
L 185.671097 153.389986 
L 186.006233 152.705423 
L 186.341368 151.974212 
L 186.676503 151.194188 
L 187.011638 150.363189 
L 187.346773 149.47906 
L 187.681908 148.53967 
L 188.017043 147.542921 
L 188.352179 146.486765 
L 188.687314 145.369212 
L 189.022449 144.188353 
L 189.357584 142.942366 
L 189.692719 141.62954 
L 190.027854 140.248286 
L 190.362989 138.797155 
L 190.698124 137.274856 
L 191.03326 135.680275 
L 191.368395 134.012486 
L 191.70353 132.270774 
L 192.038665 130.45465 
L 192.3738 128.563869 
L 192.708935 126.598443 
L 193.04407 124.558658 
L 193.379206 122.445091 
L 193.714341 120.25862 
L 194.049476 118.00044 
L 194.384611 115.672072 
L 194.719746 113.275374 
L 195.054881 110.81255 
L 195.390016 108.286154 
L 195.725152 105.699097 
L 196.060287 103.054651 
L 196.395422 100.356447 
L 196.730557 97.608475 
L 197.065692 94.815078 
L 197.400827 91.980949 
L 197.735962 89.111121 
L 198.071097 86.210956 
L 198.406233 83.28613 
L 198.741368 80.342618 
L 199.076503 77.386676 
L 199.411638 74.42482 
L 199.746773 71.463802 
L 200.081908 68.510583 
L 200.417043 65.572309 
L 200.752179 62.656278 
L 201.087314 59.769909 
L 201.422449 56.920709 
L 201.757584 54.11624 
L 202.092719 51.364079 
L 202.427854 48.671785 
L 202.762989 46.046858 
L 203.098124 43.496703 
L 203.43326 41.028588 
L 203.768395 38.649609 
L 204.10353 36.36665 
L 204.438665 34.186345 
L 204.7738 32.115041 
L 205.108935 30.158761 
L 205.44407 28.323174 
L 205.779206 26.613557 
L 206.114341 25.034769 
L 206.449476 23.591219 
L 206.784611 22.286842 
L 207.119746 21.125076 
L 207.454881 20.108841 
L 207.790016 19.240522 
L 208.125152 18.521955 
L 208.460287 17.954417 
L 208.795422 17.538618 
L 209.130557 17.2747 
L 209.465692 17.162232 
L 209.800827 17.200218 
L 210.135962 17.387104 
L 210.471097 17.720784 
L 210.806233 18.198622 
L 211.141368 18.817462 
L 211.476503 19.573651 
L 211.811638 20.463063 
L 212.146773 21.481126 
L 212.481908 22.622849 
L 212.817043 23.882854 
L 213.152179 25.255409 
L 213.487314 26.734461 
L 213.822449 28.313675 
L 214.157584 29.986471 
L 214.492719 31.746059 
L 214.827854 33.585484 
L 215.162989 35.497659 
L 215.498124 37.475405 
L 215.83326 39.511494 
L 216.168395 41.598681 
L 216.50353 43.729745 
L 216.838665 45.897523 
L 217.1738 48.094945 
L 217.508935 50.315066 
L 217.84407 52.551099 
L 218.179206 54.796441 
L 218.514341 57.0447 
L 218.849476 59.289722 
L 219.184611 61.52561 
L 219.519746 63.746747 
L 219.854881 65.947807 
L 220.190016 68.123776 
L 220.525152 70.26996 
L 220.860287 72.381997 
L 221.195422 74.455859 
L 221.530557 76.487863 
L 221.865692 78.474668 
L 222.200827 80.413277 
L 222.535962 82.301034 
L 222.871097 84.13562 
L 223.206233 85.915048 
L 223.541368 87.637651 
L 223.876503 89.302078 
L 224.211638 90.907279 
L 224.546773 92.452495 
L 224.881908 93.937242 
L 225.217043 95.361301 
L 225.552179 96.724699 
L 225.887314 98.027695 
L 226.222449 99.270765 
L 226.557584 100.454584 
L 226.892719 101.580008 
L 227.227854 102.648063 
L 227.562989 103.659922 
L 227.898124 104.616893 
L 228.23326 105.5204 
L 228.568395 106.371972 
L 228.90353 107.173221 
L 229.238665 107.925834 
L 229.5738 108.631556 
L 229.908935 109.292177 
L 230.24407 109.909519 
L 230.579206 110.485428 
L 230.914341 111.021756 
L 231.249476 111.520359 
L 231.584611 111.983082 
L 231.919746 112.411752 
L 232.254881 112.808172 
L 232.590016 113.174113 
L 232.925152 113.511306 
L 233.260287 113.82144 
L 233.595422 114.106156 
L 233.930557 114.367044 
L 234.265692 114.605637 
L 234.600827 114.823411 
L 234.935962 115.021784 
L 235.271097 115.202112 
L 235.606233 115.365688 
L 235.941368 115.513744 
L 236.276503 115.647449 
L 236.611638 115.767911 
L 236.946773 115.876176 
L 237.281908 115.973228 
L 237.617043 116.059996 
L 237.952179 116.137347 
L 238.287314 116.206096 
L 238.622449 116.267001 
L 238.957584 116.32077 
L 239.292719 116.368061 
L 239.627854 116.409482 
L 239.962989 116.445599 
L 240.298124 116.476932 
L 240.63326 116.503962 
L 240.968395 116.52713 
L 241.30353 116.546842 
L 241.638665 116.563466 
L 241.9738 116.577344 
L 242.308935 116.588782 
L 242.64407 116.598063 
L 242.979206 116.60544 
L 243.314341 116.611145 
L 243.649476 116.615386 
L 243.984611 116.61835 
L 244.319746 116.620207 
L 244.654881 116.621107 
L 244.990016 116.621187 
L 245.325152 116.620568 
L 245.660287 116.619357 
L 245.995422 116.617649 
L 246.330557 116.615529 
L 246.665692 116.613072 
L 247.000827 116.610343 
L 247.335962 116.6074 
L 247.671097 116.604292 
L 248.006233 116.601064 
L 248.341368 116.597753 
L 248.676503 116.594391 
L 249.011638 116.591007 
L 249.346773 116.587624 
L 249.681908 116.584262 
L 250.017043 116.580938 
L 250.352179 116.577665 
L 250.687314 116.574456 
L 251.022449 116.571319 
L 251.357584 116.568262 
L 251.692719 116.565291 
L 252.027854 116.562409 
L 252.362989 116.559619 
L 252.698124 116.556924 
L 253.03326 116.554325 
L 253.368395 116.551821 
L 253.70353 116.549413 
L 254.038665 116.547099 
L 254.3738 116.544878 
L 254.708935 116.542749 
L 255.04407 116.540709 
L 255.379206 116.538756 
L 255.714341 116.536887 
L 256.049476 116.535101 
L 256.384611 116.533394 
L 256.719746 116.531763 
L 257.054881 116.530207 
L 257.390016 116.528721 
L 257.725152 116.527305 
L 258.060287 116.525953 
L 258.395422 116.524665 
L 258.730557 116.523437 
L 259.065692 116.522268 
L 259.400827 116.521153 
L 259.735962 116.520091 
L 260.071097 116.51908 
L 260.406233 116.518118 
L 260.741368 116.517201 
L 261.076503 116.516328 
L 261.411638 116.515498 
L 261.746773 116.514707 
L 262.081908 116.513955 
L 262.417043 116.513239 
L 262.752179 116.512557 
L 263.087314 116.511909 
L 263.422449 116.511292 
L 263.757584 116.510705 
L 264.092719 116.510146 
L 264.427854 116.509615 
L 264.762989 116.509109 
L 265.098124 116.508628 
L 265.43326 116.508171 
L 265.768395 116.507736 
L 266.10353 116.507322 
L 266.438665 116.506928 
L 266.7738 116.506553 
L 267.108935 116.506197 
L 267.44407 116.505858 
L 267.779206 116.505535 
L 268.114341 116.505228 
L 268.449476 116.504937 
L 268.784611 116.504659 
L 269.119746 116.504395 
L 269.454881 116.504144 
L 269.790016 116.503905 
L 270.125152 116.503678 
L 270.460287 116.503461 
L 270.795422 116.503256 
L 271.130557 116.50306 
L 271.465692 116.502874 
L 271.800827 116.502697 
L 272.135962 116.502529 
L 272.471097 116.502369 
L 272.806233 116.502217 
L 273.141368 116.502072 
L 273.476503 116.501934 
L 273.811638 116.501803 
L 274.146773 116.501678 
L 274.481908 116.50156 
L 274.817043 116.501447 
L 275.152179 116.50134 
L 275.487314 116.501238 
L 275.822449 116.50114 
L 276.157584 116.501048 
L 276.492719 116.50096 
L 276.827854 116.500877 
L 277.162989 116.500797 
L 277.498124 116.500722 
L 277.83326 116.50065 
L 278.168395 116.500582 
L 278.50353 116.500516 
L 278.838665 116.500455 
L 279.1738 116.500396 
L 279.508935 116.50034 
L 279.84407 116.500287 
L 280.179206 116.500236 
L 280.514341 116.500188 
L 280.849476 116.500142 
L 281.184611 116.500098 
L 281.519746 116.500057 
L 281.854881 116.500017 
L 282.190016 116.49998 
L 282.525152 116.499944 
L 282.860287 116.49991 
L 283.195422 116.499878 
L 283.530557 116.499847 
L 283.865692 116.499818 
L 284.200827 116.49979 
L 284.535962 116.499764 
L 284.871097 116.499739 
L 285.206233 116.499715 
L 285.541368 116.499692 
L 285.876503 116.499671 
L 286.211638 116.49965 
L 286.546773 116.49963 
L 286.881908 116.499612 
L 287.217043 116.499594 
L 287.552179 116.499577 
L 287.887314 116.499561 
L 288.222449 116.499546 
L 288.557584 116.499532 
L 288.892719 116.499518 
L 289.227854 116.499505 
L 289.562989 116.499492 
L 289.898124 116.49948 
L 290.23326 116.499469 
L 290.568395 116.499458 
L 290.90353 116.499448 
L 291.238665 116.499438 
L 291.5738 116.499429 
L 291.908935 116.49942 
L 292.24407 116.499412 
L 292.579206 116.499404 
L 292.914341 116.499396 
L 293.249476 116.499389 
L 293.584611 116.499382 
L 293.919746 116.499376 
L 294.254881 116.49937 
L 294.590016 116.499364 
L 294.925152 116.499358 
L 295.260287 116.499353 
L 295.595422 116.499348 
L 295.930557 116.499343 
L 296.265692 116.499338 
L 296.600827 116.499334 
L 296.935962 116.49933 
L 297.271097 116.499326 
L 297.606233 116.499322 
L 297.941368 116.499319 
L 298.276503 116.499315 
L 298.611638 116.499312 
L 298.946773 116.499309 
L 299.281908 116.499306 
L 299.617043 116.499303 
L 299.952179 116.499301 
L 300.287314 116.499298 
L 300.622449 116.499296 
L 300.957584 116.499294 
L 301.292719 116.499291 
L 301.627854 116.499289 
L 301.962989 116.499287 
L 302.298124 116.499285 
L 302.63326 116.499284 
L 302.968395 116.499282 
L 303.30353 116.49928 
L 303.638665 116.499279 
L 303.9738 116.499277 
L 304.308935 116.499276 
L 304.64407 116.499275 
L 304.979206 116.499273 
L 305.314341 116.499272 
L 305.649476 116.499271 
L 305.984611 116.49927 
L 306.319746 116.499269 
L 306.654881 116.499268 
L 306.990016 116.499267 
L 307.325152 116.499266 
L 307.660287 116.499265 
L 307.995422 116.499265 
L 308.330557 116.499264 
L 308.665692 116.499263 
L 309.000827 116.499263 
L 309.335962 116.499262 
L 309.671097 116.499261 
L 310.006233 116.499261 
L 310.341368 116.49926 
L 310.676503 116.49926 
L 311.011638 116.499259 
L 311.346773 116.499259 
L 311.681908 116.499258 
L 312.017043 116.499258 
L 312.352179 116.499257 
L 312.687314 116.499257 
L 313.022449 116.499257 
L 313.357584 116.499256 
L 313.692719 116.499256 
L 314.027854 116.499255 
L 314.362989 116.499255 
L 314.698124 116.499255 
L 315.03326 116.499255 
L 315.368395 116.499254 
L 315.70353 116.499254 
L 316.038665 116.499254 
L 316.3738 116.499254 
L 316.708935 116.499253 
L 317.04407 116.499253 
L 317.379206 116.499253 
L 317.714341 116.499253 
L 318.049476 116.499253 
L 318.384611 116.499252 
L 318.719746 116.499252 
L 319.054881 116.499252 
L 319.390016 116.499252 
L 319.725152 116.499252 
L 320.060287 116.499252 
L 320.395422 116.499252 
L 320.730557 116.499252 
L 321.065692 116.499251 
L 321.400827 116.499251 
L 321.735962 116.499251 
L 322.071097 116.499251 
L 322.406233 116.499251 
L 322.741368 116.499251 
L 323.076503 116.499251 
L 323.411638 116.499251 
L 323.746773 116.499251 
L 324.081908 116.499251 
L 324.417043 116.499251 
L 324.752179 116.49925 
L 325.087314 116.49925 
L 325.422449 116.49925 
L 325.757584 116.49925 
L 326.092719 116.49925 
L 326.427854 116.49925 
L 326.762989 116.49925 
L 327.098124 116.49925 
L 327.43326 116.49925 
L 327.768395 116.49925 
L 328.10353 116.49925 
L 328.438665 116.49925 
L 328.7738 116.49925 
L 329.108935 116.49925 
L 329.44407 116.49925 
L 329.779206 116.49925 
L 330.114341 116.49925 
L 330.449476 116.49925 
L 330.784611 116.49925 
L 331.119746 116.49925 
L 331.454881 116.49925 
L 331.790016 116.49925 
L 332.125152 116.49925 
L 332.460287 116.49925 
L 332.795422 116.49925 
L 333.130557 116.49925 
L 333.465692 116.49925 
L 333.800827 116.49925 
L 334.135962 116.49925 
L 334.471097 116.499249 
L 334.806233 116.499249 
L 335.141368 116.499249 
L 335.476503 116.499249 
L 335.811638 116.499249 
L 336.146773 116.499249 
L 336.481908 116.499249 
L 336.817043 116.499249 
L 337.152179 116.499249 
L 337.487314 116.499249 
L 337.822449 116.499249 
L 338.157584 116.499249 
L 338.492719 116.499249 
L 338.827854 116.499249 
L 339.162989 116.499249 
L 339.498124 116.499249 
L 339.83326 116.499249 
L 340.168395 116.499249 
L 340.50353 116.499249 
L 340.838665 116.499249 
L 341.1738 116.499249 
L 341.508935 116.499249 
L 341.84407 116.499249 
L 342.179206 116.499249 
L 342.514341 116.499249 
L 342.849476 116.499249 
L 343.184611 116.499249 
L 343.519746 116.499249 
L 343.854881 116.499249 
L 344.190016 116.499249 
L 344.525152 116.499249 
L 344.860287 116.499249 
L 345.195422 116.499249 
L 345.530557 116.499249 
L 345.865692 116.499249 
L 346.200827 116.499249 
L 346.535962 116.499249 
L 346.871097 116.499249 
L 347.206233 116.499249 
L 347.541368 116.499249 
L 347.876503 116.499249 
L 348.211638 116.499249 
L 348.546773 116.499249 
L 348.881908 116.499249 
L 349.217043 116.499249 
L 349.552179 116.499249 
L 349.887314 116.499249 
L 350.222449 116.499249 
L 350.557584 116.499249 
L 350.892719 116.499249 
L 351.227854 116.499249 
L 351.562989 116.499249 
L 351.898124 116.499249 
L 352.23326 116.499249 
L 352.568395 116.499249 
L 352.90353 116.499249 
L 353.238665 116.499249 
L 353.5738 116.499249 
L 353.908935 116.499249 
L 354.24407 116.499249 
L 354.579206 116.499249 
L 354.914341 116.499249 
L 355.249476 116.499249 
L 355.584611 116.499249 
L 355.919746 116.499249 
L 356.254881 116.499249 
L 356.590016 116.499249 
L 356.925152 116.499249 
L 357.260287 116.499249 
L 357.595422 116.499249 
L 357.930557 116.499249 
L 358.265692 116.499249 
L 358.600827 116.499249 
L 358.935962 116.499249 
L 359.271097 116.499249 
L 359.606233 116.499249 
L 359.941368 116.499249 
L 360.276503 116.499249 
L 360.611638 116.499249 
L 360.946773 116.499249 
L 361.281908 116.499249 
L 361.617043 116.499249 
L 361.952179 116.499249 
L 362.287314 116.499249 
L 362.622449 116.499249 
L 362.957584 116.499249 
L 363.292719 116.499249 
L 363.627854 116.499249 
L 363.962989 116.499249 
L 364.298124 116.499249 
L 364.63326 116.499249 
L 364.968395 116.499249 
L 365.30353 116.499249 
L 365.638665 116.499249 
L 365.9738 116.499249 
L 366.308935 116.499249 
L 366.64407 116.499249 
L 366.979206 116.499249 
L 367.314341 116.499249 
L 367.649476 116.499249 
L 367.984611 116.499249 
L 368.319746 116.499249 
L 368.654881 116.499249 
L 368.990016 116.499249 
L 369.325152 116.499249 
L 369.660287 116.499249 
L 369.995422 116.499249 
L 370.330557 116.499249 
L 370.665692 116.499249 
L 371.000827 116.499249 
L 371.335962 116.499249 
L 371.671097 116.499249 
L 372.006233 116.499249 
L 372.341368 116.499249 
L 372.676503 116.499249 
L 373.011638 116.499249 
L 373.346773 116.499249 
L 373.681908 116.499249 
L 374.017043 116.499249 
L 374.352179 116.499249 
L 374.687314 116.499249 
L 375.022449 116.499249 
L 375.357584 116.499249 
L 375.692719 116.499249 
L 375.692719 10.659249 
L 375.692719 10.659249 
L 375.357584 10.659249 
L 375.022449 10.659249 
L 374.687314 10.659249 
L 374.352179 10.659249 
L 374.017043 10.659249 
L 373.681908 10.659249 
L 373.346773 10.659249 
L 373.011638 10.659249 
L 372.676503 10.659249 
L 372.341368 10.659249 
L 372.006233 10.659249 
L 371.671097 10.659249 
L 371.335962 10.659249 
L 371.000827 10.659249 
L 370.665692 10.659249 
L 370.330557 10.659249 
L 369.995422 10.659249 
L 369.660287 10.659249 
L 369.325152 10.659249 
L 368.990016 10.659249 
L 368.654881 10.659249 
L 368.319746 10.659249 
L 367.984611 10.659249 
L 367.649476 10.659249 
L 367.314341 10.659249 
L 366.979206 10.659249 
L 366.64407 10.659249 
L 366.308935 10.659249 
L 365.9738 10.659249 
L 365.638665 10.659249 
L 365.30353 10.659249 
L 364.968395 10.659249 
L 364.63326 10.659249 
L 364.298124 10.659249 
L 363.962989 10.659249 
L 363.627854 10.659249 
L 363.292719 10.659249 
L 362.957584 10.659249 
L 362.622449 10.659249 
L 362.287314 10.659249 
L 361.952179 10.659249 
L 361.617043 10.659249 
L 361.281908 10.659249 
L 360.946773 10.659249 
L 360.611638 10.659249 
L 360.276503 10.659249 
L 359.941368 10.659249 
L 359.606233 10.659249 
L 359.271097 10.659249 
L 358.935962 10.659249 
L 358.600827 10.659249 
L 358.265692 10.659249 
L 357.930557 10.659249 
L 357.595422 10.659249 
L 357.260287 10.659249 
L 356.925152 10.659249 
L 356.590016 10.659249 
L 356.254881 10.659249 
L 355.919746 10.659249 
L 355.584611 10.659249 
L 355.249476 10.659249 
L 354.914341 10.659249 
L 354.579206 10.659249 
L 354.24407 10.659249 
L 353.908935 10.659249 
L 353.5738 10.659249 
L 353.238665 10.659249 
L 352.90353 10.659249 
L 352.568395 10.659249 
L 352.23326 10.659249 
L 351.898124 10.659249 
L 351.562989 10.659249 
L 351.227854 10.659249 
L 350.892719 10.659249 
L 350.557584 10.659249 
L 350.222449 10.659249 
L 349.887314 10.659249 
L 349.552179 10.659249 
L 349.217043 10.659249 
L 348.881908 10.659249 
L 348.546773 10.659249 
L 348.211638 10.659249 
L 347.876503 10.659249 
L 347.541368 10.659249 
L 347.206233 10.659249 
L 346.871097 10.659249 
L 346.535962 10.659249 
L 346.200827 10.659249 
L 345.865692 10.659249 
L 345.530557 10.659249 
L 345.195422 10.659249 
L 344.860287 10.659249 
L 344.525152 10.659249 
L 344.190016 10.659249 
L 343.854881 10.659249 
L 343.519746 10.659249 
L 343.184611 10.659249 
L 342.849476 10.659249 
L 342.514341 10.659249 
L 342.179206 10.659249 
L 341.84407 10.659249 
L 341.508935 10.659249 
L 341.1738 10.659249 
L 340.838665 10.659249 
L 340.50353 10.659249 
L 340.168395 10.659249 
L 339.83326 10.659249 
L 339.498124 10.659249 
L 339.162989 10.659249 
L 338.827854 10.659249 
L 338.492719 10.659249 
L 338.157584 10.659249 
L 337.822449 10.659249 
L 337.487314 10.659249 
L 337.152179 10.659249 
L 336.817043 10.659249 
L 336.481908 10.659249 
L 336.146773 10.659249 
L 335.811638 10.659249 
L 335.476503 10.659249 
L 335.141368 10.659249 
L 334.806233 10.659249 
L 334.471097 10.659249 
L 334.135962 10.659249 
L 333.800827 10.659249 
L 333.465692 10.659249 
L 333.130557 10.659249 
L 332.795422 10.659249 
L 332.460287 10.659249 
L 332.125152 10.659249 
L 331.790016 10.659249 
L 331.454881 10.659249 
L 331.119746 10.659249 
L 330.784611 10.659249 
L 330.449476 10.659249 
L 330.114341 10.659249 
L 329.779206 10.659249 
L 329.44407 10.659249 
L 329.108935 10.659249 
L 328.7738 10.659249 
L 328.438665 10.659249 
L 328.10353 10.659249 
L 327.768395 10.659249 
L 327.43326 10.659249 
L 327.098124 10.659249 
L 326.762989 10.659249 
L 326.427854 10.659249 
L 326.092719 10.659249 
L 325.757584 10.659249 
L 325.422449 10.659249 
L 325.087314 10.659249 
L 324.752179 10.659249 
L 324.417043 10.659249 
L 324.081908 10.659249 
L 323.746773 10.659249 
L 323.411638 10.659249 
L 323.076503 10.659249 
L 322.741368 10.659249 
L 322.406233 10.659249 
L 322.071097 10.659249 
L 321.735962 10.659249 
L 321.400827 10.659249 
L 321.065692 10.659249 
L 320.730557 10.659249 
L 320.395422 10.659249 
L 320.060287 10.659249 
L 319.725152 10.659249 
L 319.390016 10.659249 
L 319.054881 10.659249 
L 318.719746 10.659249 
L 318.384611 10.659249 
L 318.049476 10.659249 
L 317.714341 10.659249 
L 317.379206 10.659249 
L 317.04407 10.659249 
L 316.708935 10.659249 
L 316.3738 10.659249 
L 316.038665 10.659249 
L 315.70353 10.659249 
L 315.368395 10.659249 
L 315.03326 10.659249 
L 314.698124 10.659249 
L 314.362989 10.659249 
L 314.027854 10.659249 
L 313.692719 10.659249 
L 313.357584 10.659249 
L 313.022449 10.659249 
L 312.687314 10.659249 
L 312.352179 10.659249 
L 312.017043 10.659249 
L 311.681908 10.659249 
L 311.346773 10.659249 
L 311.011638 10.659249 
L 310.676503 10.659249 
L 310.341368 10.659249 
L 310.006233 10.659249 
L 309.671097 10.659249 
L 309.335962 10.659249 
L 309.000827 10.659249 
L 308.665692 10.659249 
L 308.330557 10.659249 
L 307.995422 10.659249 
L 307.660287 10.659249 
L 307.325152 10.659249 
L 306.990016 10.659249 
L 306.654881 10.659249 
L 306.319746 10.659249 
L 305.984611 10.659249 
L 305.649476 10.659249 
L 305.314341 10.659249 
L 304.979206 10.659249 
L 304.64407 10.659249 
L 304.308935 10.659249 
L 303.9738 10.659249 
L 303.638665 10.659249 
L 303.30353 10.659249 
L 302.968395 10.659249 
L 302.63326 10.659249 
L 302.298124 10.659249 
L 301.962989 10.659249 
L 301.627854 10.659249 
L 301.292719 10.659249 
L 300.957584 10.659249 
L 300.622449 10.659249 
L 300.287314 10.659249 
L 299.952179 10.659249 
L 299.617043 10.659249 
L 299.281908 10.659249 
L 298.946773 10.659249 
L 298.611638 10.659249 
L 298.276503 10.659249 
L 297.941368 10.659249 
L 297.606233 10.659249 
L 297.271097 10.659249 
L 296.935962 10.659249 
L 296.600827 10.659249 
L 296.265692 10.659249 
L 295.930557 10.659249 
L 295.595422 10.659249 
L 295.260287 10.659249 
L 294.925152 10.659249 
L 294.590016 10.659249 
L 294.254881 10.659249 
L 293.919746 10.659249 
L 293.584611 10.659249 
L 293.249476 10.659249 
L 292.914341 10.659249 
L 292.579206 10.659249 
L 292.24407 10.659249 
L 291.908935 10.659249 
L 291.5738 10.659249 
L 291.238665 10.659249 
L 290.90353 10.659249 
L 290.568395 10.659249 
L 290.23326 10.659249 
L 289.898124 10.659249 
L 289.562989 10.659249 
L 289.227854 10.659249 
L 288.892719 10.659249 
L 288.557584 10.659249 
L 288.222449 10.659249 
L 287.887314 10.659249 
L 287.552179 10.659249 
L 287.217043 10.659249 
L 286.881908 10.659249 
L 286.546773 10.659249 
L 286.211638 10.659249 
L 285.876503 10.659249 
L 285.541368 10.659249 
L 285.206233 10.659249 
L 284.871097 10.659249 
L 284.535962 10.659249 
L 284.200827 10.659249 
L 283.865692 10.659249 
L 283.530557 10.659249 
L 283.195422 10.659249 
L 282.860287 10.659249 
L 282.525152 10.659249 
L 282.190016 10.659249 
L 281.854881 10.659249 
L 281.519746 10.659249 
L 281.184611 10.659249 
L 280.849476 10.659249 
L 280.514341 10.659249 
L 280.179206 10.659249 
L 279.84407 10.659249 
L 279.508935 10.659249 
L 279.1738 10.659249 
L 278.838665 10.659249 
L 278.50353 10.659249 
L 278.168395 10.659249 
L 277.83326 10.659249 
L 277.498124 10.659249 
L 277.162989 10.659249 
L 276.827854 10.659249 
L 276.492719 10.659249 
L 276.157584 10.659249 
L 275.822449 10.659249 
L 275.487314 10.659249 
L 275.152179 10.659249 
L 274.817043 10.659249 
L 274.481908 10.659249 
L 274.146773 10.659249 
L 273.811638 10.659249 
L 273.476503 10.659249 
L 273.141368 10.659249 
L 272.806233 10.659249 
L 272.471097 10.659249 
L 272.135962 10.659249 
L 271.800827 10.659249 
L 271.465692 10.659249 
L 271.130557 10.659249 
L 270.795422 10.659249 
L 270.460287 10.659249 
L 270.125152 10.659249 
L 269.790016 10.659249 
L 269.454881 10.659249 
L 269.119746 10.659249 
L 268.784611 10.659249 
L 268.449476 10.659249 
L 268.114341 10.659249 
L 267.779206 10.659249 
L 267.44407 10.659249 
L 267.108935 10.659249 
L 266.7738 10.659249 
L 266.438665 10.659249 
L 266.10353 10.659249 
L 265.768395 10.659249 
L 265.43326 10.659249 
L 265.098124 10.659249 
L 264.762989 10.659249 
L 264.427854 10.659249 
L 264.092719 10.659249 
L 263.757584 10.659249 
L 263.422449 10.659249 
L 263.087314 10.659249 
L 262.752179 10.659249 
L 262.417043 10.659249 
L 262.081908 10.659249 
L 261.746773 10.659249 
L 261.411638 10.659249 
L 261.076503 10.659249 
L 260.741368 10.659249 
L 260.406233 10.659249 
L 260.071097 10.659249 
L 259.735962 10.659249 
L 259.400827 10.659249 
L 259.065692 10.659249 
L 258.730557 10.659249 
L 258.395422 10.659249 
L 258.060287 10.659249 
L 257.725152 10.659249 
L 257.390016 10.659249 
L 257.054881 10.659249 
L 256.719746 10.659249 
L 256.384611 10.659249 
L 256.049476 10.659249 
L 255.714341 10.659249 
L 255.379206 10.659249 
L 255.04407 10.659249 
L 254.708935 10.659249 
L 254.3738 10.659249 
L 254.038665 10.659249 
L 253.70353 10.659249 
L 253.368395 10.659249 
L 253.03326 10.659249 
L 252.698124 10.659249 
L 252.362989 10.659249 
L 252.027854 10.659249 
L 251.692719 10.659249 
L 251.357584 10.659249 
L 251.022449 10.659249 
L 250.687314 10.659249 
L 250.352179 10.659249 
L 250.017043 10.659249 
L 249.681908 10.659249 
L 249.346773 10.659249 
L 249.011638 10.659249 
L 248.676503 10.659249 
L 248.341368 10.659249 
L 248.006233 10.659249 
L 247.671097 10.659249 
L 247.335962 10.659249 
L 247.000827 10.659249 
L 246.665692 10.659249 
L 246.330557 10.659249 
L 245.995422 10.659249 
L 245.660287 10.659249 
L 245.325152 10.659249 
L 244.990016 10.659249 
L 244.654881 10.659249 
L 244.319746 10.659249 
L 243.984611 10.659249 
L 243.649476 10.659249 
L 243.314341 10.659249 
L 242.979206 10.659249 
L 242.64407 10.659249 
L 242.308935 10.659249 
L 241.9738 10.659249 
L 241.638665 10.659249 
L 241.30353 10.659249 
L 240.968395 10.659249 
L 240.63326 10.659249 
L 240.298124 10.659249 
L 239.962989 10.659249 
L 239.627854 10.659249 
L 239.292719 10.659249 
L 238.957584 10.659249 
L 238.622449 10.659249 
L 238.287314 10.659249 
L 237.952179 10.659249 
L 237.617043 10.659249 
L 237.281908 10.659249 
L 236.946773 10.659249 
L 236.611638 10.659249 
L 236.276503 10.659249 
L 235.941368 10.659249 
L 235.606233 10.659249 
L 235.271097 10.659249 
L 234.935962 10.659249 
L 234.600827 10.659249 
L 234.265692 10.659249 
L 233.930557 10.659249 
L 233.595422 10.659249 
L 233.260287 10.659249 
L 232.925152 10.659249 
L 232.590016 10.659249 
L 232.254881 10.659249 
L 231.919746 10.659249 
L 231.584611 10.659249 
L 231.249476 10.659249 
L 230.914341 10.659249 
L 230.579206 10.659249 
L 230.24407 10.659249 
L 229.908935 10.659249 
L 229.5738 10.659249 
L 229.238665 10.659249 
L 228.90353 10.659249 
L 228.568395 10.659249 
L 228.23326 10.659249 
L 227.898124 10.659249 
L 227.562989 10.659249 
L 227.227854 10.659249 
L 226.892719 10.659249 
L 226.557584 10.659249 
L 226.222449 10.659249 
L 225.887314 10.659249 
L 225.552179 10.659249 
L 225.217043 10.659249 
L 224.881908 10.659249 
L 224.546773 10.659249 
L 224.211638 10.659249 
L 223.876503 10.659249 
L 223.541368 10.659249 
L 223.206233 10.659249 
L 222.871097 10.659249 
L 222.535962 10.659249 
L 222.200827 10.659249 
L 221.865692 10.659249 
L 221.530557 10.659249 
L 221.195422 10.659249 
L 220.860287 10.659249 
L 220.525152 10.659249 
L 220.190016 10.659249 
L 219.854881 10.659249 
L 219.519746 10.659249 
L 219.184611 10.659249 
L 218.849476 10.659249 
L 218.514341 10.659249 
L 218.179206 10.659249 
L 217.84407 10.659249 
L 217.508935 10.659249 
L 217.1738 10.659249 
L 216.838665 10.659249 
L 216.50353 10.659249 
L 216.168395 10.659249 
L 215.83326 10.659249 
L 215.498124 10.659249 
L 215.162989 10.659249 
L 214.827854 10.659249 
L 214.492719 10.659249 
L 214.157584 10.659249 
L 213.822449 10.659249 
L 213.487314 10.659249 
L 213.152179 10.659249 
L 212.817043 10.659249 
L 212.481908 10.659249 
L 212.146773 10.659249 
L 211.811638 10.659249 
L 211.476503 10.659249 
L 211.141368 10.659249 
L 210.806233 10.659249 
L 210.471097 10.659249 
L 210.135962 10.659249 
L 209.800827 10.659249 
L 209.465692 10.659249 
L 209.130557 10.659249 
L 208.795422 10.659249 
L 208.460287 10.659249 
L 208.125152 10.659249 
L 207.790016 10.659249 
L 207.454881 10.659249 
L 207.119746 10.659249 
L 206.784611 10.659249 
L 206.449476 10.659249 
L 206.114341 10.659249 
L 205.779206 10.659249 
L 205.44407 10.659249 
L 205.108935 10.659249 
L 204.7738 10.659249 
L 204.438665 10.659249 
L 204.10353 10.659249 
L 203.768395 10.659249 
L 203.43326 10.659249 
L 203.098124 10.659249 
L 202.762989 10.659249 
L 202.427854 10.659249 
L 202.092719 10.659249 
L 201.757584 10.659249 
L 201.422449 10.659249 
L 201.087314 10.659249 
L 200.752179 10.659249 
L 200.417043 10.659249 
L 200.081908 10.659249 
L 199.746773 10.659249 
L 199.411638 10.659249 
L 199.076503 10.659249 
L 198.741368 10.659249 
L 198.406233 10.659249 
L 198.071097 10.659249 
L 197.735962 10.659249 
L 197.400827 10.659249 
L 197.065692 10.659249 
L 196.730557 10.659249 
L 196.395422 10.659249 
L 196.060287 10.659249 
L 195.725152 10.659249 
L 195.390016 10.659249 
L 195.054881 10.659249 
L 194.719746 10.659249 
L 194.384611 10.659249 
L 194.049476 10.659249 
L 193.714341 10.659249 
L 193.379206 10.659249 
L 193.04407 10.659249 
L 192.708935 10.659249 
L 192.3738 10.659249 
L 192.038665 10.659249 
L 191.70353 10.659249 
L 191.368395 10.659249 
L 191.03326 10.659249 
L 190.698124 10.659249 
L 190.362989 10.659249 
L 190.027854 10.659249 
L 189.692719 10.659249 
L 189.357584 10.659249 
L 189.022449 10.659249 
L 188.687314 10.659249 
L 188.352179 10.659249 
L 188.017043 10.659249 
L 187.681908 10.659249 
L 187.346773 10.659249 
L 187.011638 10.659249 
L 186.676503 10.659249 
L 186.341368 10.659249 
L 186.006233 10.659249 
L 185.671097 10.659249 
L 185.335962 10.659249 
L 185.000827 10.659249 
L 184.665692 10.659249 
L 184.330557 10.659249 
L 183.995422 10.659249 
L 183.660287 10.659249 
L 183.325152 10.659249 
L 182.990016 10.659249 
L 182.654881 10.659249 
L 182.319746 10.659249 
L 181.984611 10.659249 
L 181.649476 10.659249 
L 181.314341 10.659249 
L 180.979206 10.659249 
L 180.64407 10.659249 
L 180.308935 10.659249 
L 179.9738 10.659249 
L 179.638665 10.659249 
L 179.30353 10.659249 
L 178.968395 10.659249 
L 178.63326 10.659249 
L 178.298124 10.659249 
L 177.962989 10.659249 
L 177.627854 10.659249 
L 177.292719 10.659249 
L 176.957584 10.659249 
L 176.622449 10.659249 
L 176.287314 10.659249 
L 175.952179 10.659249 
L 175.617043 10.659249 
L 175.281908 10.659249 
L 174.946773 10.659249 
L 174.611638 10.659249 
L 174.276503 10.659249 
L 173.941368 10.659249 
L 173.606233 10.659249 
L 173.271097 10.659249 
L 172.935962 10.659249 
L 172.600827 10.659249 
L 172.265692 10.659249 
L 171.930557 10.659249 
L 171.595422 10.659249 
L 171.260287 10.659249 
L 170.925152 10.659249 
L 170.590016 10.659249 
L 170.254881 10.659249 
L 169.919746 10.659249 
L 169.584611 10.659249 
L 169.249476 10.659249 
L 168.914341 10.659249 
L 168.579206 10.659249 
L 168.24407 10.659249 
L 167.908935 10.659249 
L 167.5738 10.659249 
L 167.238665 10.659249 
L 166.90353 10.659249 
L 166.568395 10.659249 
L 166.23326 10.659249 
L 165.898124 10.659249 
L 165.562989 10.659249 
L 165.227854 10.659249 
L 164.892719 10.659249 
L 164.557584 10.659249 
L 164.222449 10.659249 
L 163.887314 10.659249 
L 163.552179 10.659249 
L 163.217043 10.659249 
L 162.881908 10.659249 
L 162.546773 10.659249 
L 162.211638 10.659249 
L 161.876503 10.659249 
L 161.541368 10.659249 
L 161.206233 10.659249 
L 160.871097 10.659249 
L 160.535962 10.659249 
L 160.200827 10.659249 
L 159.865692 10.659249 
L 159.530557 10.659249 
L 159.195422 10.659249 
L 158.860287 10.659249 
L 158.525152 10.659249 
L 158.190016 10.659249 
L 157.854881 10.659249 
L 157.519746 10.659249 
L 157.184611 10.659249 
L 156.849476 10.659249 
L 156.514341 10.659249 
L 156.179206 10.659249 
L 155.84407 10.659249 
L 155.508935 10.659249 
L 155.1738 10.659249 
L 154.838665 10.659249 
L 154.50353 10.659249 
L 154.168395 10.659249 
L 153.83326 10.659249 
L 153.498124 10.659249 
L 153.162989 10.659249 
L 152.827854 10.659249 
L 152.492719 10.659249 
L 152.157584 10.659249 
L 151.822449 10.659249 
L 151.487314 10.659249 
L 151.152179 10.659249 
L 150.817043 10.659249 
L 150.481908 10.659249 
L 150.146773 10.659249 
L 149.811638 10.659249 
L 149.476503 10.659249 
L 149.141368 10.659249 
L 148.806233 10.659249 
L 148.471097 10.659249 
L 148.135962 10.659249 
L 147.800827 10.659249 
L 147.465692 10.659249 
L 147.130557 10.659249 
L 146.795422 10.659249 
L 146.460287 10.659249 
L 146.125152 10.659249 
L 145.790016 10.659249 
L 145.454881 10.659249 
L 145.119746 10.659249 
L 144.784611 10.659249 
L 144.449476 10.659249 
L 144.114341 10.659249 
L 143.779206 10.659249 
L 143.44407 10.659249 
L 143.108935 10.659249 
L 142.7738 10.659249 
L 142.438665 10.659249 
L 142.10353 10.659249 
L 141.768395 10.659249 
L 141.43326 10.659249 
L 141.098124 10.659249 
L 140.762989 10.659249 
L 140.427854 10.659249 
L 140.092719 10.659249 
L 139.757584 10.659249 
L 139.422449 10.659249 
L 139.087314 10.659249 
L 138.752179 10.659249 
L 138.417043 10.659249 
L 138.081908 10.659249 
L 137.746773 10.659249 
L 137.411638 10.659249 
L 137.076503 10.659249 
L 136.741368 10.659249 
L 136.406233 10.659249 
L 136.071097 10.659249 
L 135.735962 10.659249 
L 135.400827 10.659249 
L 135.065692 10.659249 
L 134.730557 10.659249 
L 134.395422 10.659249 
L 134.060287 10.659249 
L 133.725152 10.659249 
L 133.390016 10.659249 
L 133.054881 10.659249 
L 132.719746 10.659249 
L 132.384611 10.659249 
L 132.049476 10.659249 
L 131.714341 10.659249 
L 131.379206 10.659249 
L 131.04407 10.659249 
L 130.708935 10.659249 
L 130.3738 10.659249 
L 130.038665 10.659249 
L 129.70353 10.659249 
L 129.368395 10.659249 
L 129.03326 10.659249 
L 128.698124 10.659249 
L 128.362989 10.659249 
L 128.027854 10.659249 
L 127.692719 10.659249 
L 127.357584 10.659249 
L 127.022449 10.659249 
L 126.687314 10.659249 
L 126.352179 10.659249 
L 126.017043 10.659249 
L 125.681908 10.659249 
L 125.346773 10.659249 
L 125.011638 10.659249 
L 124.676503 10.659249 
L 124.341368 10.659249 
L 124.006233 10.659249 
L 123.671097 10.659249 
L 123.335962 10.659249 
L 123.000827 10.659249 
L 122.665692 10.659249 
L 122.330557 10.659249 
L 121.995422 10.659249 
L 121.660287 10.659249 
L 121.325152 10.659249 
L 120.990016 10.659249 
L 120.654881 10.659249 
L 120.319746 10.659249 
L 119.984611 10.659249 
L 119.649476 10.659249 
L 119.314341 10.659249 
L 118.979206 10.659249 
L 118.64407 10.659249 
L 118.308935 10.659249 
L 117.9738 10.659249 
L 117.638665 10.659249 
L 117.30353 10.659249 
L 116.968395 10.659249 
L 116.63326 10.659249 
L 116.298124 10.659249 
L 115.962989 10.659249 
L 115.627854 10.659249 
L 115.292719 10.659249 
L 114.957584 10.659249 
L 114.622449 10.659249 
L 114.287314 10.659249 
L 113.952179 10.659249 
L 113.617043 10.659249 
L 113.281908 10.659249 
L 112.946773 10.659249 
L 112.611638 10.659249 
L 112.276503 10.659249 
L 111.941368 10.659249 
L 111.606233 10.659249 
L 111.271097 10.659249 
L 110.935962 10.659249 
L 110.600827 10.659249 
L 110.265692 10.659249 
L 109.930557 10.659249 
L 109.595422 10.659249 
L 109.260287 10.659249 
L 108.925152 10.659249 
L 108.590016 10.659249 
L 108.254881 10.659249 
L 107.919746 10.659249 
L 107.584611 10.659249 
L 107.249476 10.659249 
L 106.914341 10.659249 
L 106.579206 10.659249 
L 106.24407 10.659249 
L 105.908935 10.659249 
L 105.5738 10.659249 
L 105.238665 10.659249 
L 104.90353 10.659249 
L 104.568395 10.659249 
L 104.23326 10.659249 
L 103.898124 10.659249 
L 103.562989 10.659249 
L 103.227854 10.659249 
L 102.892719 10.659249 
L 102.557584 10.659249 
L 102.222449 10.659249 
L 101.887314 10.659249 
L 101.552179 10.659249 
L 101.217043 10.659249 
L 100.881908 10.659249 
L 100.546773 10.659249 
L 100.211638 10.659249 
L 99.876503 10.659249 
L 99.541368 10.659249 
L 99.206233 10.659249 
L 98.871097 10.659249 
L 98.535962 10.659249 
L 98.200827 10.659249 
L 97.865692 10.659249 
L 97.530557 10.659249 
L 97.195422 10.659249 
L 96.860287 10.659249 
L 96.525152 10.659249 
L 96.190016 10.659249 
L 95.854881 10.659249 
L 95.519746 10.659249 
L 95.184611 10.659249 
L 94.849476 10.659249 
L 94.514341 10.659249 
L 94.179206 10.659249 
L 93.84407 10.659249 
L 93.508935 10.659249 
L 93.1738 10.659249 
L 92.838665 10.659249 
L 92.50353 10.659249 
L 92.168395 10.659249 
L 91.83326 10.659249 
L 91.498124 10.659249 
L 91.162989 10.659249 
L 90.827854 10.659249 
L 90.492719 10.659249 
L 90.157584 10.659249 
L 89.822449 10.659249 
L 89.487314 10.659249 
L 89.152179 10.659249 
L 88.817043 10.659249 
L 88.481908 10.659249 
L 88.146773 10.659249 
L 87.811638 10.659249 
L 87.476503 10.659249 
L 87.141368 10.659249 
L 86.806233 10.659249 
L 86.471097 10.659249 
L 86.135962 10.659249 
L 85.800827 10.659249 
L 85.465692 10.659249 
L 85.130557 10.659249 
L 84.795422 10.659249 
L 84.460287 10.659249 
L 84.125152 10.659249 
L 83.790016 10.659249 
L 83.454881 10.659249 
L 83.119746 10.659249 
L 82.784611 10.659249 
L 82.449476 10.659249 
L 82.114341 10.659249 
L 81.779206 10.659249 
L 81.44407 10.659249 
L 81.108935 10.659249 
L 80.7738 10.659249 
L 80.438665 10.659249 
L 80.10353 10.659249 
L 79.768395 10.659249 
L 79.43326 10.659249 
L 79.098124 10.659249 
L 78.762989 10.659249 
L 78.427854 10.659249 
L 78.092719 10.659249 
L 77.757584 10.659249 
L 77.422449 10.659249 
L 77.087314 10.659249 
L 76.752179 10.659249 
L 76.417043 10.659249 
L 76.081908 10.659249 
L 75.746773 10.659249 
L 75.411638 10.659249 
L 75.076503 10.659249 
L 74.741368 10.659249 
L 74.406233 10.659249 
L 74.071097 10.659249 
L 73.735962 10.659249 
L 73.400827 10.659249 
L 73.065692 10.659249 
L 72.730557 10.659249 
L 72.395422 10.659249 
L 72.060287 10.659249 
L 71.725152 10.659249 
L 71.390016 10.659249 
L 71.054881 10.659249 
L 70.719746 10.659249 
L 70.384611 10.659249 
L 70.049476 10.659249 
L 69.714341 10.659249 
L 69.379206 10.659249 
L 69.04407 10.659249 
L 68.708935 10.659249 
L 68.3738 10.659249 
L 68.038665 10.659249 
L 67.70353 10.659249 
L 67.368395 10.659249 
L 67.03326 10.659249 
L 66.698124 10.659249 
L 66.362989 10.659249 
L 66.027854 10.659249 
L 65.692719 10.659249 
L 65.357584 10.659249 
L 65.022449 10.659249 
L 64.687314 10.659249 
L 64.352179 10.659249 
L 64.017043 10.659249 
L 63.681908 10.659249 
L 63.346773 10.659249 
L 63.011638 10.659249 
L 62.676503 10.659249 
L 62.341368 10.659249 
L 62.006233 10.659249 
L 61.671097 10.659249 
L 61.335962 10.659249 
L 61.000827 10.659249 
L 60.665692 10.659249 
L 60.330557 10.659249 
L 59.995422 10.659249 
L 59.660287 10.659249 
L 59.325152 10.659249 
L 58.990016 10.659249 
L 58.654881 10.659249 
L 58.319746 10.659249 
L 57.984611 10.659249 
L 57.649476 10.659249 
L 57.314341 10.659249 
L 56.979206 10.659249 
L 56.64407 10.659249 
L 56.308935 10.659249 
L 55.9738 10.659249 
L 55.638665 10.659249 
L 55.30353 10.659249 
L 54.968395 10.659249 
L 54.63326 10.659249 
L 54.298124 10.659249 
L 53.962989 10.659249 
L 53.627854 10.659249 
L 53.292719 10.659249 
L 52.957584 10.659249 
L 52.622449 10.659249 
L 52.287314 10.659249 
L 51.952179 10.659249 
L 51.617043 10.659249 
L 51.281908 10.659249 
L 50.946773 10.659249 
L 50.611638 10.659249 
L 50.276503 10.659249 
L 49.941368 10.659249 
L 49.606233 10.659249 
L 49.271097 10.659249 
L 48.935962 10.659249 
L 48.600827 10.659249 
L 48.265692 10.659249 
L 47.930557 10.659249 
L 47.595422 10.659249 
L 47.260287 10.659249 
L 46.925152 10.659249 
L 46.590016 10.659249 
L 46.254881 10.659249 
L 45.919746 10.659249 
L 45.584611 10.659249 
L 45.249476 10.659249 
L 44.914341 10.659249 
L 44.579206 10.659249 
L 44.24407 10.659249 
L 43.908935 10.659249 
L 43.5738 10.659249 
L 43.238665 10.659249 
L 42.90353 10.659249 
L 42.568395 10.659249 
L 42.23326 10.659249 
L 41.898124 10.659249 
L 41.562989 10.659249 
L 41.227854 10.659249 
L 40.892719 10.659249 
z
" clip-path="url(#pd9ff8165f1)" style="fill: #1f77b4; fill-opacity: 0.1"/>
   </g>
   <g id="matplotlib.axis_1">
    <g id="xtick_1">
     <g id="line2d_1">
      <defs>
       <path id="mfb1953b5b2" d="M 0 0 
L 0 3.5 
" style="stroke: #000000; stroke-width: 0.8"/>
      </defs>
      <g>
       <use xlink:href="#mfb1953b5b2" x="40.892719" y="176.979249" style="stroke: #000000; stroke-width: 0.8"/>
      </g>
     </g>
     <g id="text_1">
      <!-- $\mathdefault{15}$ -->
      <g transform="translate(32.037012 190.897748) scale(0.1 -0.1)">
       <defs>
        <path id="CMSY10-0" d="M 4218 1472 
C 4326 1472 4442 1472 4442 1600 
C 4442 1728 4326 1728 4218 1728 
L 755 1728 
C 646 1728 531 1728 531 1600 
C 531 1472 646 1472 755 1472 
L 4218 1472 
z
" transform="scale(0.015625)"/>
        <path id="CMR17-31" d="M 1702 4058 
C 1702 4192 1696 4192 1606 4192 
C 1357 3916 979 3827 621 3827 
C 602 3827 570 3827 563 3808 
C 557 3795 557 3782 557 3648 
C 755 3648 1088 3686 1344 3839 
L 1344 461 
C 1344 236 1331 160 781 160 
L 589 160 
L 589 0 
C 896 0 1216 0 1523 0 
C 1830 0 2150 0 2458 0 
L 2458 160 
L 2266 160 
C 1715 160 1702 230 1702 458 
L 1702 4058 
z
" transform="scale(0.015625)"/>
        <path id="CMR17-35" d="M 730 3692 
C 794 3666 1056 3584 1325 3584 
C 1920 3584 2246 3911 2432 4100 
C 2432 4157 2432 4192 2394 4192 
C 2387 4192 2374 4192 2323 4163 
C 2099 4058 1837 3973 1517 3973 
C 1325 3973 1037 3999 723 4139 
C 653 4171 640 4171 634 4171 
C 602 4171 595 4164 595 4037 
L 595 2203 
C 595 2089 595 2057 659 2057 
C 691 2057 704 2070 736 2114 
C 941 2401 1222 2522 1542 2522 
C 1766 2522 2246 2382 2246 1289 
C 2246 1085 2246 715 2054 421 
C 1894 159 1645 25 1370 25 
C 947 25 518 320 403 814 
C 429 807 480 795 506 795 
C 589 795 749 840 749 1038 
C 749 1210 627 1280 506 1280 
C 358 1280 262 1190 262 1011 
C 262 454 704 -128 1382 -128 
C 2042 -128 2669 440 2669 1264 
C 2669 2030 2170 2624 1549 2624 
C 1222 2624 947 2503 730 2274 
L 730 3692 
z
" transform="scale(0.015625)"/>
       </defs>
       <use xlink:href="#CMSY10-0" transform="scale(0.996264)"/>
       <use xlink:href="#CMR17-31" transform="translate(77.487468 0) scale(0.996264)"/>
       <use xlink:href="#CMR17-35" transform="translate(123.177945 0) scale(0.996264)"/>
      </g>
     </g>
    </g>
    <g id="xtick_2">
     <g id="line2d_2">
      <g>
       <use xlink:href="#mfb1953b5b2" x="107.852719" y="176.979249" style="stroke: #000000; stroke-width: 0.8"/>
      </g>
     </g>
     <g id="text_2">
      <!-- $\mathdefault{10}$ -->
      <g transform="translate(98.997012 190.897748) scale(0.1 -0.1)">
       <defs>
        <path id="CMR17-30" d="M 2688 2025 
C 2688 2416 2682 3080 2413 3591 
C 2176 4039 1798 4198 1466 4198 
C 1158 4198 768 4058 525 3597 
C 269 3118 243 2524 243 2025 
C 243 1661 250 1106 448 619 
C 723 -39 1216 -128 1466 -128 
C 1760 -128 2208 -7 2470 600 
C 2662 1042 2688 1559 2688 2025 
z
M 1466 -26 
C 1056 -26 813 325 723 812 
C 653 1188 653 1738 653 2096 
C 653 2588 653 2997 736 3387 
C 858 3929 1216 4096 1466 4096 
C 1728 4096 2067 3923 2189 3400 
C 2272 3036 2278 2607 2278 2096 
C 2278 1680 2278 1169 2202 792 
C 2067 95 1690 -26 1466 -26 
z
" transform="scale(0.015625)"/>
       </defs>
       <use xlink:href="#CMSY10-0" transform="scale(0.996264)"/>
       <use xlink:href="#CMR17-31" transform="translate(77.487468 0) scale(0.996264)"/>
       <use xlink:href="#CMR17-30" transform="translate(123.177945 0) scale(0.996264)"/>
      </g>
     </g>
    </g>
    <g id="xtick_3">
     <g id="line2d_3">
      <g>
       <use xlink:href="#mfb1953b5b2" x="174.812719" y="176.979249" style="stroke: #000000; stroke-width: 0.8"/>
      </g>
     </g>
     <g id="text_3">
      <!-- $\mathdefault{5}$ -->
      <g transform="translate(168.44768 190.897748) scale(0.1 -0.1)">
       <use xlink:href="#CMSY10-0" transform="scale(0.996264)"/>
       <use xlink:href="#CMR17-35" transform="translate(77.487468 0) scale(0.996264)"/>
      </g>
     </g>
    </g>
    <g id="xtick_4">
     <g id="line2d_4">
      <g>
       <use xlink:href="#mfb1953b5b2" x="241.772719" y="176.979249" style="stroke: #000000; stroke-width: 0.8"/>
      </g>
     </g>
     <g id="text_4">
      <!-- $\mathdefault{0}$ -->
      <g transform="translate(239.282051 190.897748) scale(0.1 -0.1)">
       <use xlink:href="#CMR17-30" transform="scale(0.996264)"/>
      </g>
     </g>
    </g>
    <g id="xtick_5">
     <g id="line2d_5">
      <g>
       <use xlink:href="#mfb1953b5b2" x="308.732719" y="176.979249" style="stroke: #000000; stroke-width: 0.8"/>
      </g>
     </g>
     <g id="text_5">
      <!-- $\mathdefault{5}$ -->
      <g transform="translate(306.242051 190.897748) scale(0.1 -0.1)">
       <use xlink:href="#CMR17-35" transform="scale(0.996264)"/>
      </g>
     </g>
    </g>
    <g id="xtick_6">
     <g id="line2d_6">
      <g>
       <use xlink:href="#mfb1953b5b2" x="375.692719" y="176.979249" style="stroke: #000000; stroke-width: 0.8"/>
      </g>
     </g>
     <g id="text_6">
      <!-- $\mathdefault{10}$ -->
      <g transform="translate(370.711384 190.897748) scale(0.1 -0.1)">
       <use xlink:href="#CMR17-31" transform="scale(0.996264)"/>
       <use xlink:href="#CMR17-30" transform="translate(45.690477 0) scale(0.996264)"/>
      </g>
     </g>
    </g>
    <g id="text_7">
     <!-- $x$ -->
     <g transform="translate(205.44576 203.753424) scale(0.1 -0.1)">
      <defs>
       <path id="CMMI12-78" d="M 3034 2606 
C 2829 2567 2752 2414 2752 2293 
C 2752 2139 2874 2088 2963 2088 
C 3155 2088 3290 2254 3290 2427 
C 3290 2695 2982 2816 2714 2816 
C 2323 2816 2106 2433 2048 2312 
C 1901 2816 1504 2816 1389 2816 
C 736 2816 390 1980 390 1839 
C 390 1814 416 1782 461 1782 
C 512 1782 525 1820 538 1846 
C 755 2555 1184 2689 1370 2689 
C 1658 2689 1715 2420 1715 2267 
C 1715 2127 1677 1980 1600 1673 
L 1382 798 
C 1286 415 1101 64 762 64 
C 730 64 570 64 435 147 
C 666 192 717 383 717 460 
C 717 588 621 664 499 664 
C 346 664 179 530 179 326 
C 179 57 480 -64 755 -64 
C 1062 -64 1280 179 1414 441 
C 1517 64 1837 -64 2074 -64 
C 2726 -64 3072 773 3072 913 
C 3072 945 3046 971 3008 971 
C 2950 971 2944 939 2925 888 
C 2752 326 2381 64 2093 64 
C 1869 64 1747 230 1747 492 
C 1747 632 1773 734 1875 1156 
L 2099 2024 
C 2195 2408 2413 2689 2707 2689 
C 2720 2689 2899 2689 3034 2606 
z
" transform="scale(0.015625)"/>
      </defs>
      <use xlink:href="#CMMI12-78" transform="scale(0.996264)"/>
     </g>
    </g>
   </g>
   <g id="matplotlib.axis_2">
    <g id="ytick_1">
     <g id="line2d_7">
      <defs>
       <path id="mdc6f05074d" d="M 0 0 
L -3.5 0 
" style="stroke: #000000; stroke-width: 0.8"/>
      </defs>
      <g>
       <use xlink:href="#mdc6f05074d" x="40.892719" y="161.859249" style="stroke: #000000; stroke-width: 0.8"/>
      </g>
     </g>
     <g id="text_8">
      <!-- $\mathdefault{0.6}$ -->
      <g transform="translate(21.16264 165.318498) scale(0.1 -0.1)">
       <defs>
        <path id="CMMI12-3a" d="M 1178 307 
C 1178 492 1024 619 870 619 
C 685 619 557 466 557 313 
C 557 128 710 0 864 0 
C 1050 0 1178 153 1178 307 
z
" transform="scale(0.015625)"/>
        <path id="CMR17-36" d="M 678 2176 
C 678 3690 1395 4032 1811 4032 
C 1946 4032 2272 4009 2400 3776 
C 2298 3776 2106 3776 2106 3553 
C 2106 3381 2246 3323 2336 3323 
C 2394 3323 2566 3348 2566 3560 
C 2566 3954 2246 4179 1805 4179 
C 1043 4179 243 3390 243 1984 
C 243 253 966 -128 1478 -128 
C 2099 -128 2688 427 2688 1283 
C 2688 2081 2170 2662 1517 2662 
C 1126 2662 838 2407 678 1960 
L 678 2176 
z
M 1478 25 
C 691 25 691 1200 691 1436 
C 691 1896 909 2560 1504 2560 
C 1613 2560 1926 2560 2138 2120 
C 2253 1870 2253 1609 2253 1289 
C 2253 944 2253 690 2118 434 
C 1978 171 1773 25 1478 25 
z
" transform="scale(0.015625)"/>
       </defs>
       <use xlink:href="#CMR17-30" transform="scale(0.996264)"/>
       <use xlink:href="#CMMI12-3a" transform="translate(45.690477 0) scale(0.996264)"/>
       <use xlink:href="#CMR17-36" transform="translate(72.787654 0) scale(0.996264)"/>
      </g>
     </g>
    </g>
    <g id="ytick_2">
     <g id="line2d_8">
      <g>
       <use xlink:href="#mdc6f05074d" x="40.892719" y="131.619249" style="stroke: #000000; stroke-width: 0.8"/>
      </g>
     </g>
     <g id="text_9">
      <!-- $\mathdefault{0.8}$ -->
      <g transform="translate(21.16264 135.078498) scale(0.1 -0.1)">
       <defs>
        <path id="CMR17-38" d="M 1741 2264 
C 2144 2467 2554 2773 2554 3263 
C 2554 3841 1990 4179 1472 4179 
C 890 4179 378 3759 378 3180 
C 378 3021 416 2747 666 2505 
C 730 2442 998 2251 1171 2130 
C 883 1983 211 1634 211 934 
C 211 279 838 -128 1459 -128 
C 2144 -128 2720 362 2720 1010 
C 2720 1590 2330 1857 2074 2029 
L 1741 2264 
z
M 902 2822 
C 851 2854 595 3051 595 3351 
C 595 3739 998 4032 1459 4032 
C 1965 4032 2336 3676 2336 3262 
C 2336 2669 1670 2331 1638 2331 
C 1632 2331 1626 2331 1574 2370 
L 902 2822 
z
M 2080 1519 
C 2176 1449 2483 1240 2483 851 
C 2483 381 2010 25 1472 25 
C 890 25 448 438 448 940 
C 448 1443 838 1862 1280 2060 
L 2080 1519 
z
" transform="scale(0.015625)"/>
       </defs>
       <use xlink:href="#CMR17-30" transform="scale(0.996264)"/>
       <use xlink:href="#CMMI12-3a" transform="translate(45.690477 0) scale(0.996264)"/>
       <use xlink:href="#CMR17-38" transform="translate(72.787654 0) scale(0.996264)"/>
      </g>
     </g>
    </g>
    <g id="ytick_3">
     <g id="line2d_9">
      <g>
       <use xlink:href="#mdc6f05074d" x="40.892719" y="101.379249" style="stroke: #000000; stroke-width: 0.8"/>
      </g>
     </g>
     <g id="text_10">
      <!-- $\mathdefault{1.0}$ -->
      <g transform="translate(21.16264 104.838498) scale(0.1 -0.1)">
       <use xlink:href="#CMR17-31" transform="scale(0.996264)"/>
       <use xlink:href="#CMMI12-3a" transform="translate(45.690477 0) scale(0.996264)"/>
       <use xlink:href="#CMR17-30" transform="translate(72.787654 0) scale(0.996264)"/>
      </g>
     </g>
    </g>
    <g id="ytick_4">
     <g id="line2d_10">
      <g>
       <use xlink:href="#mdc6f05074d" x="40.892719" y="71.139249" style="stroke: #000000; stroke-width: 0.8"/>
      </g>
     </g>
     <g id="text_11">
      <!-- $\mathdefault{1.2}$ -->
      <g transform="translate(21.16264 74.598498) scale(0.1 -0.1)">
       <defs>
        <path id="CMR17-32" d="M 2669 989 
L 2554 989 
C 2490 536 2438 459 2413 420 
C 2381 369 1920 369 1830 369 
L 602 369 
C 832 619 1280 1072 1824 1597 
C 2214 1967 2669 2402 2669 3035 
C 2669 3790 2067 4224 1395 4224 
C 691 4224 262 3604 262 3030 
C 262 2780 448 2748 525 2748 
C 589 2748 781 2787 781 3010 
C 781 3207 614 3264 525 3264 
C 486 3264 448 3258 422 3245 
C 544 3790 915 4058 1306 4058 
C 1862 4058 2227 3617 2227 3035 
C 2227 2479 1901 2000 1536 1584 
L 262 146 
L 262 0 
L 2515 0 
L 2669 989 
z
" transform="scale(0.015625)"/>
       </defs>
       <use xlink:href="#CMR17-31" transform="scale(0.996264)"/>
       <use xlink:href="#CMMI12-3a" transform="translate(45.690477 0) scale(0.996264)"/>
       <use xlink:href="#CMR17-32" transform="translate(72.787654 0) scale(0.996264)"/>
      </g>
     </g>
    </g>
    <g id="ytick_5">
     <g id="line2d_11">
      <g>
       <use xlink:href="#mdc6f05074d" x="40.892719" y="40.899249" style="stroke: #000000; stroke-width: 0.8"/>
      </g>
     </g>
     <g id="text_12">
      <!-- $\mathdefault{1.4}$ -->
      <g transform="translate(21.16264 44.358498) scale(0.1 -0.1)">
       <defs>
        <path id="CMR17-34" d="M 2150 4122 
C 2150 4256 2144 4256 2029 4256 
L 128 1254 
L 128 1088 
L 1779 1088 
L 1779 457 
C 1779 224 1766 160 1318 160 
L 1197 160 
L 1197 0 
C 1402 0 1747 0 1965 0 
C 2182 0 2528 0 2733 0 
L 2733 160 
L 2611 160 
C 2163 160 2150 224 2150 457 
L 2150 1088 
L 2803 1088 
L 2803 1254 
L 2150 1254 
L 2150 4122 
z
M 1798 3703 
L 1798 1254 
L 256 1254 
L 1798 3703 
z
" transform="scale(0.015625)"/>
       </defs>
       <use xlink:href="#CMR17-31" transform="scale(0.996264)"/>
       <use xlink:href="#CMMI12-3a" transform="translate(45.690477 0) scale(0.996264)"/>
       <use xlink:href="#CMR17-34" transform="translate(72.787654 0) scale(0.996264)"/>
      </g>
     </g>
    </g>
    <g id="ytick_6">
     <g id="line2d_12">
      <g>
       <use xlink:href="#mdc6f05074d" x="40.892719" y="10.659249" style="stroke: #000000; stroke-width: 0.8"/>
      </g>
     </g>
     <g id="text_13">
      <!-- $\mathdefault{1.6}$ -->
      <g transform="translate(21.16264 14.118498) scale(0.1 -0.1)">
       <use xlink:href="#CMR17-31" transform="scale(0.996264)"/>
       <use xlink:href="#CMMI12-3a" transform="translate(45.690477 0) scale(0.996264)"/>
       <use xlink:href="#CMR17-36" transform="translate(72.787654 0) scale(0.996264)"/>
      </g>
     </g>
    </g>
    <g id="text_14">
     <!-- $\omega / \omega_0$ -->
     <g transform="translate(14.67198 104.675534) rotate(-90) scale(0.1 -0.1)">
      <defs>
       <path id="CMMI12-21" d="M 3802 2395 
C 3802 2580 3750 2816 3526 2816 
C 3398 2816 3251 2657 3251 2529 
C 3251 2472 3277 2434 3328 2376 
C 3424 2268 3546 2096 3546 1797 
C 3546 1567 3405 1204 3302 1007 
C 3123 656 2829 357 2496 357 
C 2093 357 1939 615 1869 975 
C 1939 1143 2086 1560 2086 1728 
C 2086 1798 2061 1856 1978 1856 
C 1933 1856 1882 1831 1850 1779 
C 1760 1638 1677 1129 1683 994 
C 1562 756 1216 357 806 357 
C 378 357 262 733 262 1096 
C 262 1758 678 2338 794 2497 
C 858 2593 902 2657 902 2669 
C 902 2714 877 2784 819 2784 
C 717 2784 685 2701 634 2625 
C 307 2121 77 1414 77 803 
C 77 408 224 -64 704 -64 
C 1235 -64 1568 391 1702 634 
C 1754 275 1946 -64 2413 -64 
C 2899 -64 3206 363 3437 879 
C 3603 1249 3802 2045 3802 2395 
z
" transform="scale(0.015625)"/>
       <path id="CMMI12-3d" d="M 2746 4562 
C 2746 4569 2784 4666 2784 4678 
C 2784 4755 2720 4800 2669 4800 
C 2637 4800 2579 4800 2528 4659 
L 384 -1363 
C 384 -1370 346 -1465 346 -1478 
C 346 -1555 410 -1600 461 -1600 
C 499 -1600 557 -1593 602 -1459 
L 2746 4562 
z
" transform="scale(0.015625)"/>
      </defs>
      <use xlink:href="#CMMI12-21" transform="scale(0.996264)"/>
      <use xlink:href="#CMMI12-3d" transform="translate(64.318346 0) scale(0.996264)"/>
      <use xlink:href="#CMMI12-21" transform="translate(113.093265 0) scale(0.996264)"/>
      <use xlink:href="#CMR17-30" transform="translate(173.837018 -14.943915) scale(0.697382)"/>
     </g>
    </g>
   </g>
   <g id="line2d_13">
    <path d="M 40.892719 161.859249 
L 167.238665 161.750816 
L 172.600827 161.541158 
L 175.617043 161.203044 
L 177.627854 160.759506 
L 179.30353 160.153413 
L 180.64407 159.436568 
L 181.984611 158.433833 
L 182.990016 157.439463 
L 183.995422 156.18757 
L 185.000827 154.627758 
L 186.006233 152.705423 
L 187.011638 150.363189 
L 188.017043 147.542921 
L 189.022449 144.188353 
L 190.362989 138.797155 
L 191.70353 132.270774 
L 193.04407 124.558658 
L 194.384611 115.672072 
L 196.060287 103.054651 
L 198.406233 83.28613 
L 202.427854 48.671785 
L 204.10353 36.36665 
L 205.44407 28.323174 
L 206.449476 23.591219 
L 207.454881 20.108841 
L 208.125152 18.521955 
L 208.795422 17.538618 
L 209.130557 17.2747 
L 209.465692 17.162232 
L 209.800827 17.200218 
L 210.135962 17.387104 
L 210.806233 18.198622 
L 211.476503 19.573651 
L 212.146773 21.481126 
L 213.152179 25.255409 
L 214.157584 29.986471 
L 215.498124 37.475405 
L 217.508935 50.315066 
L 221.530557 76.487863 
L 223.206233 85.915048 
L 224.546773 92.452495 
L 225.887314 98.027695 
L 227.227854 102.648063 
L 228.568395 106.371972 
L 229.908935 109.292177 
L 230.914341 111.021756 
L 231.919746 112.411752 
L 232.925152 113.511306 
L 234.265692 114.605637 
L 235.606233 115.365688 
L 236.946773 115.876176 
L 238.622449 116.267001 
L 240.63326 116.503962 
L 243.649476 116.615386 
L 251.022449 116.571319 
L 270.460287 116.503461 
L 375.692719 116.499249 
L 375.692719 116.499249 
" clip-path="url(#pd9ff8165f1)" style="fill: none; stroke: #000000; stroke-width: 1.5; stroke-linecap: square"/>
   </g>
   <g id="line2d_14">
    <path d="M 375.692719 106.419249 
L 372.880399 107.359163 
L 370.335919 107.984065 
L 367.925359 108.357062 
L 365.514799 108.504587 
L 363.104239 108.421874 
L 360.693679 108.111595 
L 358.149199 107.548386 
L 355.470799 106.716162 
L 352.524559 105.556511 
L 349.042639 103.931405 
L 343.819759 101.209588 
L 337.793359 98.127081 
L 334.445359 96.659037 
L 331.499119 95.607313 
L 328.820719 94.89156 
L 326.410159 94.467919 
L 323.999599 94.267601 
L 321.589039 94.297078 
L 319.178479 94.5554 
L 316.767919 95.034217 
L 314.223439 95.761648 
L 311.411119 96.799575 
L 308.197039 98.22909 
L 303.911599 100.400259 
L 295.206799 104.872558 
L 291.858799 106.301051 
L 289.046479 107.267632 
L 286.501999 107.920159 
L 284.091439 108.32146 
L 281.680879 108.498431 
L 279.270319 108.445351 
L 276.859759 108.16393 
L 274.449199 107.663254 
L 271.770799 106.869691 
L 268.958479 105.801509 
L 265.610479 104.280904 
L 261.057199 101.943358 
L 253.557679 98.082618 
L 250.209679 96.622326 
L 247.397359 95.622194 
L 244.718959 94.905982 
L 242.308399 94.48315 
L 239.897839 94.284317 
L 237.487279 94.313499 
L 235.076719 94.563284 
L 232.398319 95.072687 
L 229.184239 95.929454 
L 220.747279 98.32552 
L 218.336719 98.713674 
L 216.193999 98.842058 
L 214.319119 98.745214 
L 212.578159 98.439431 
L 210.971119 97.928581 
L 209.497999 97.221477 
L 208.158799 96.336359 
L 206.819599 95.174372 
L 205.480399 93.687358 
L 204.141199 91.828367 
L 202.801999 89.558532 
L 201.462799 86.856038 
L 199.989679 83.391206 
L 198.248719 78.717633 
L 194.766799 68.497781 
L 193.025839 63.793431 
L 191.820559 61.076021 
L 190.749199 59.202678 
L 189.945679 58.208536 
L 189.276079 57.68585 
L 188.606479 57.46536 
L 188.070799 57.519362 
L 187.535119 57.786704 
L 186.865519 58.429825 
L 186.195919 59.423022 
L 185.392399 61.080487 
L 184.454959 63.649492 
L 183.517519 66.878954 
L 182.312239 71.932075 
L 180.973039 78.585978 
L 179.232079 88.49312 
L 175.884079 109.302517 
L 173.607439 122.655694 
L 172.134319 130.092373 
L 170.929039 135.166461 
L 169.857679 138.767914 
L 168.920239 141.140565 
L 168.116719 142.557877 
L 167.447119 143.288117 
L 166.911439 143.571592 
L 166.375759 143.585636 
L 165.840079 143.330121 
L 165.304399 142.80664 
L 164.634799 141.780672 
L 163.965199 140.351491 
L 163.161679 138.124528 
L 162.224239 134.861721 
L 161.152879 130.335476 
L 159.813679 123.653539 
L 158.072719 113.684536 
L 151.644559 75.353155 
L 150.305359 69.267378 
L 149.233999 65.310382 
L 148.296559 62.600869 
L 147.493039 60.880713 
L 146.823439 59.891361 
L 146.287759 59.397985 
L 145.752079 59.173126 
L 145.216399 59.218224 
L 144.680719 59.532993 
L 144.145039 60.11542 
L 143.475439 61.214013 
L 142.671919 63.06079 
L 141.734479 65.909584 
L 140.663119 70.011318 
L 139.457839 75.577516 
L 137.984719 83.492476 
L 135.841999 96.430893 
L 131.824399 120.970363 
L 130.217359 129.29892 
L 129.012079 134.517927 
L 127.940719 138.262598 
L 127.003279 140.768979 
L 126.199759 142.305287 
L 125.530159 143.136583 
L 124.994479 143.501478 
L 124.458799 143.596935 
L 123.923119 143.422344 
L 123.387439 142.978821 
L 122.717839 142.050716 
L 122.048239 140.716237 
L 121.244719 138.597499 
L 120.307279 135.451651 
L 119.235919 131.044193 
L 117.896719 124.484294 
L 116.289679 115.42226 
L 113.611279 98.808366 
L 110.932879 82.600357 
L 109.325839 74.150015 
L 107.986639 68.282368 
L 106.915279 64.528741 
L 105.977839 62.013831 
L 105.174319 60.469829 
L 104.504719 59.631936 
L 103.969039 59.261689 
L 103.433359 59.16085 
L 102.897679 59.330066 
L 102.361999 59.768252 
L 101.692399 60.689793 
L 101.022799 62.01789 
L 100.219279 64.129298 
L 99.281839 67.267177 
L 98.210479 71.666488 
L 96.871279 78.217944 
L 95.264239 87.272832 
L 92.585839 103.883003 
L 89.907439 120.097886 
L 88.300399 128.557054 
L 86.961199 134.434335 
L 85.889839 138.196889 
L 84.952399 140.720308 
L 84.148879 142.271988 
L 83.479279 143.116469 
L 82.943599 143.492061 
L 82.407919 143.598275 
L 81.872239 143.434431 
L 81.336559 143.001578 
L 80.666959 142.086597 
L 79.997359 140.764882 
L 79.193839 138.660808 
L 78.256399 135.530902 
L 77.185039 131.139746 
L 75.845839 124.596747 
L 74.238799 115.549028 
L 71.560399 98.942624 
L 68.881999 82.720909 
L 67.274959 74.252938 
L 65.935759 68.366039 
L 64.864399 64.594568 
L 63.926959 62.062648 
L 63.123439 60.503294 
L 62.453839 59.652229 
L 61.918159 59.271292 
L 61.382479 59.159703 
L 60.846799 59.318174 
L 60.311119 59.745694 
L 59.641519 60.654112 
L 58.971919 61.969442 
L 58.168399 64.066179 
L 57.230959 67.188104 
L 56.159599 71.571094 
L 54.820399 78.105618 
L 53.213359 87.146146 
L 50.534959 103.748741 
L 47.856559 119.977245 
L 46.249519 128.453999 
L 44.910319 134.3505 
L 43.838959 138.130878 
L 42.901519 140.671293 
L 42.097999 142.238318 
L 41.428399 143.095965 
L 40.892719 143.482245 
L 40.892719 143.482245 
" clip-path="url(#pd9ff8165f1)" style="fill: none; stroke: #1f77b4; stroke-width: 1.5; stroke-linecap: square"/>
   </g>
   <g id="line2d_15">
    <path d="M 40.892719 101.379249 
L 375.692719 101.379249 
" clip-path="url(#pd9ff8165f1)" style="fill: none; stroke-dasharray: 1,1.65; stroke-dashoffset: 0; stroke: #808080"/>
   </g>
   <g id="patch_3">
    <path d="M 40.892719 176.979249 
L 40.892719 10.659249 
" style="fill: none; stroke: #000000; stroke-width: 0.8; stroke-linejoin: miter; stroke-linecap: square"/>
   </g>
   <g id="patch_4">
    <path d="M 375.692719 176.979249 
L 375.692719 10.659249 
" style="fill: none; stroke: #000000; stroke-width: 0.8; stroke-linejoin: miter; stroke-linecap: square"/>
   </g>
   <g id="patch_5">
    <path d="M 40.892719 176.979249 
L 375.692719 176.979249 
" style="fill: none; stroke: #000000; stroke-width: 0.8; stroke-linejoin: miter; stroke-linecap: square"/>
   </g>
   <g id="patch_6">
    <path d="M 40.892719 10.659249 
L 375.692719 10.659249 
" style="fill: none; stroke: #000000; stroke-width: 0.8; stroke-linejoin: miter; stroke-linecap: square"/>
   </g>
   <g id="text_15">
    <!-- $k^2 &gt; 0$ -->
    <g transform="translate(54.284719 25.779249) scale(0.1 -0.1)">
     <defs>
      <path id="CMMI12-6b" d="M 1798 4257 
C 1805 4283 1818 4321 1818 4352 
C 1818 4416 1754 4416 1741 4416 
C 1734 4416 1504 4393 1389 4377 
C 1280 4377 1184 4358 1069 4358 
C 915 4345 870 4339 870 4224 
C 870 4160 934 4160 998 4160 
C 1325 4160 1325 4103 1325 4040 
C 1325 4015 1325 4002 1293 3888 
L 378 248 
C 352 152 352 140 352 101 
C 352 -38 461 -64 525 -64 
C 704 -64 742 77 794 275 
L 1094 1469 
C 1555 1418 1830 1226 1830 920 
C 1830 881 1830 856 1811 760 
C 1786 664 1786 588 1786 556 
C 1786 185 2029 -64 2355 -64 
C 2650 -64 2803 204 2854 294 
C 2989 530 3072 888 3072 913 
C 3072 945 3046 971 3008 971 
C 2950 971 2944 945 2918 843 
C 2829 511 2694 64 2368 64 
C 2240 64 2157 128 2157 370 
C 2157 492 2182 632 2208 728 
C 2234 843 2234 849 2234 926 
C 2234 1303 1894 1514 1306 1590 
C 1536 1731 1766 1980 1856 2076 
C 2221 2484 2470 2689 2765 2689 
C 2912 2689 2950 2650 2995 2612 
C 2758 2586 2669 2420 2669 2293 
C 2669 2139 2790 2088 2880 2088 
C 3053 2088 3206 2235 3206 2440 
C 3206 2625 3059 2816 2771 2816 
C 2419 2816 2131 2567 1677 2056 
C 1613 1980 1376 1737 1139 1648 
L 1798 4257 
z
" transform="scale(0.015625)"/>
      <path id="CMMI12-3e" d="M 4218 1449 
C 4339 1507 4346 1545 4346 1590 
C 4346 1628 4333 1673 4218 1725 
L 755 3322 
C 672 3360 659 3360 646 3360 
C 570 3360 525 3296 525 3245 
C 525 3168 576 3142 659 3104 
L 3949 1590 
L 653 65 
C 525 6 525 -39 525 -77 
C 525 -128 570 -192 646 -192 
C 659 -192 666 -185 755 -147 
L 4218 1449 
z
" transform="scale(0.015625)"/>
     </defs>
     <use xlink:href="#CMMI12-6b" transform="scale(0.996264)"/>
     <use xlink:href="#CMR17-32" transform="translate(54.079201 36.153639) scale(0.697382)"/>
     <use xlink:href="#CMMI12-3e" transform="translate(114.234523 0) scale(0.996264)"/>
     <use xlink:href="#CMR17-30" transform="translate(217.780628 0) scale(0.996264)"/>
    </g>
   </g>
   <g id="text_16">
    <!-- $k^2 &lt; 0$ -->
    <g transform="translate(335.516719 161.859249) scale(0.1 -0.1)">
     <defs>
      <path id="CMMI12-3c" d="M 4218 3104 
C 4333 3155 4346 3200 4346 3238 
C 4346 3309 4294 3360 4224 3360 
C 4211 3360 4205 3353 4115 3315 
L 653 1719 
C 538 1667 525 1622 525 1584 
C 525 1539 531 1501 653 1442 
L 4115 -154 
C 4198 -192 4211 -192 4224 -192 
C 4294 -192 4346 -141 4346 -70 
C 4346 -32 4333 13 4218 64 
L 922 1581 
L 4218 3104 
z
" transform="scale(0.015625)"/>
     </defs>
     <use xlink:href="#CMMI12-6b" transform="scale(0.996264)"/>
     <use xlink:href="#CMR17-32" transform="translate(54.079201 36.153639) scale(0.697382)"/>
     <use xlink:href="#CMMI12-3c" transform="translate(114.234523 0) scale(0.996264)"/>
     <use xlink:href="#CMR17-30" transform="translate(217.780628 0) scale(0.996264)"/>
    </g>
   </g>
   <g id="legend_1">
    <g id="patch_7">
     <path d="M 322.977914 32.596428 
L 368.692719 32.596428 
Q 370.692719 32.596428 370.692719 30.596428 
L 370.692719 17.659249 
Q 370.692719 15.659249 368.692719 15.659249 
L 322.977914 15.659249 
Q 320.977914 15.659249 320.977914 17.659249 
L 320.977914 30.596428 
Q 320.977914 32.596428 322.977914 32.596428 
z
" style="fill: #ffffff; opacity: 0.8; stroke: #cccccc; stroke-linejoin: miter"/>
    </g>
    <g id="line2d_16">
     <path d="M 324.977914 23.159249 
L 334.977914 23.159249 
L 344.977914 23.159249 
" style="fill: none; stroke: #000000; stroke-width: 1.5; stroke-linecap: square"/>
    </g>
    <g id="text_17">
     <!-- $\omega_\text{ac}$ -->
     <g transform="translate(352.977914 26.659249) scale(0.1 -0.1)">
      <defs>
       <path id="CMR17-61" d="M 2304 1653 
C 2304 2072 2304 2294 2035 2543 
C 1798 2752 1523 2816 1306 2816 
C 800 2816 435 2407 435 1971 
C 435 1728 627 1728 666 1728 
C 749 1728 896 1778 896 1954 
C 896 2112 774 2181 666 2181 
C 640 2181 608 2174 589 2168 
C 723 2592 1069 2714 1293 2714 
C 1613 2714 1965 2429 1965 1885 
L 1965 1600 
C 1587 1600 1133 1549 774 1357 
C 371 1133 256 813 256 570 
C 256 77 832 -64 1171 -64 
C 1523 -64 1850 139 1990 511 
C 2003 233 2182 -18 2464 -18 
C 2598 -18 2938 70 2938 567 
L 2938 920 
L 2822 920 
L 2822 562 
C 2822 178 2650 128 2566 128 
C 2304 128 2304 458 2304 738 
L 2304 1653 
z
M 1965 870 
C 1965 317 1568 38 1216 38 
C 896 38 646 275 646 570 
C 646 761 730 1100 1101 1305 
C 1408 1478 1760 1504 1965 1504 
L 1965 870 
z
" transform="scale(0.015625)"/>
       <path id="CMR17-63" d="M 2234 2240 
C 2112 2240 1933 2240 1933 2017 
C 1933 1838 2080 1787 2163 1787 
C 2208 1787 2394 1807 2394 2024 
C 2394 2467 1958 2803 1466 2803 
C 787 2803 211 2178 211 1363 
C 211 516 813 -64 1466 -64 
C 2259 -64 2458 677 2458 748 
C 2458 774 2451 793 2406 793 
C 2362 793 2355 787 2330 703 
C 2163 180 1798 51 1523 51 
C 1114 51 621 427 621 1369 
C 621 2338 1094 2688 1472 2688 
C 1722 2688 2093 2573 2234 2240 
z
" transform="scale(0.015625)"/>
      </defs>
      <use xlink:href="#CMMI12-21" transform="scale(0.996264)"/>
      <use xlink:href="#CMR17-61" transform="translate(60.743753 -14.943915) scale(0.697382)"/>
      <use xlink:href="#CMR17-63" transform="translate(92.726935 -14.943915) scale(0.697382)"/>
     </g>
    </g>
   </g>
  </g>
 </g>
 <defs>
  <clipPath id="pd9ff8165f1">
   <rect x="40.892719" y="10.659249" width="334.8" height="166.32"/>
  </clipPath>
 </defs>
</svg>
