<?xml version="1.0" encoding="utf-8" standalone="no"?>
<!DOCTYPE svg PUBLIC "-//W3C//DTD SVG 1.1//EN"
  "http://www.w3.org/Graphics/SVG/1.1/DTD/svg11.dtd">
<!-- Created with matplotlib (https://matplotlib.org/) -->
<svg height="210.538317pt" version="1.1" viewBox="0 0 382.892719 210.538317" width="382.892719pt" xmlns="http://www.w3.org/2000/svg" xmlns:xlink="http://www.w3.org/1999/xlink">
 <metadata>
  <rdf:RDF xmlns:cc="http://creativecommons.org/ns#" xmlns:dc="http://purl.org/dc/elements/1.1/" xmlns:rdf="http://www.w3.org/1999/02/22-rdf-syntax-ns#">
   <cc:Work>
    <dc:type rdf:resource="http://purl.org/dc/dcmitype/StillImage"/>
    <dc:date>2021-11-30T17:09:45.935870</dc:date>
    <dc:format>image/svg+xml</dc:format>
    <dc:creator>
     <cc:Agent>
      <dc:title>Matplotlib v3.3.3, https://matplotlib.org/</dc:title>
     </cc:Agent>
    </dc:creator>
   </cc:Work>
  </rdf:RDF>
 </metadata>
 <defs>
  <style type="text/css">*{stroke-linecap:butt;stroke-linejoin:round;}</style>
 </defs>
 <g id="figure_1">
  <g id="patch_1">
   <path d="M 0 210.538317 
L 382.892719 210.538317 
L 382.892719 0 
L 0 0 
z
" style="fill:none;"/>
  </g>
  <g id="axes_1">
   <g id="patch_2">
    <path d="M 40.892719 173.52 
L 375.692719 173.52 
L 375.692719 7.2 
L 40.892719 7.2 
z
" style="fill:none;"/>
   </g>
   <g id="matplotlib.axis_1">
    <g id="xtick_1">
     <g id="line2d_1">
      <defs>
       <path d="M 0 0 
L 0 3.5 
" id="m43f6cc654d" style="stroke:#000000;stroke-width:0.8;"/>
      </defs>
      <g>
       <use style="stroke:#000000;stroke-width:0.8;" x="73.578426" xlink:href="#m43f6cc654d" y="173.52"/>
      </g>
     </g>
     <g id="text_1">
      <!-- $\mathdefault{140}$ -->
      <g transform="translate(66.106423 187.438498)scale(0.1 -0.1)">
       <defs>
        <path d="M 26.59375 63.40625 
C 26.59375 65.5 26.5 65.5 25.09375 65.5 
C 21.203125 61.1875 15.296875 59.796875 9.703125 59.796875 
C 9.40625 59.796875 8.90625 59.796875 8.796875 59.5 
C 8.703125 59.296875 8.703125 59.09375 8.703125 57 
C 11.796875 57 17 57.59375 21 59.984375 
L 21 7.203125 
C 21 3.6875 20.796875 2.5 12.203125 2.5 
L 9.203125 2.5 
L 9.203125 0 
C 14 0 19 0 23.796875 0 
C 28.59375 0 33.59375 0 38.40625 0 
L 38.40625 2.5 
L 35.40625 2.5 
C 26.796875 2.5 26.59375 3.59375 26.59375 7.15625 
z
" id="CMR17-49"/>
        <path d="M 33.59375 64.40625 
C 33.59375 66.5 33.5 66.5 31.703125 66.5 
L 2 19.59375 
L 2 17 
L 27.796875 17 
L 27.796875 7.140625 
C 27.796875 3.5 27.59375 2.5 20.59375 2.5 
L 18.703125 2.5 
L 18.703125 0 
C 21.90625 0 27.296875 0 30.703125 0 
C 34.09375 0 39.5 0 42.703125 0 
L 42.703125 2.5 
L 40.796875 2.5 
C 33.796875 2.5 33.59375 3.5 33.59375 7.140625 
L 33.59375 17 
L 43.796875 17 
L 43.796875 19.59375 
L 33.59375 19.59375 
z
M 28.09375 57.859375 
L 28.09375 19.59375 
L 4 19.59375 
z
" id="CMR17-52"/>
        <path d="M 42 31.640625 
C 42 37.75 41.90625 48.125 37.703125 56.109375 
C 34 63.109375 28.09375 65.59375 22.90625 65.59375 
C 18.09375 65.59375 12 63.40625 8.203125 56.203125 
C 4.203125 48.71875 3.796875 39.4375 3.796875 31.640625 
C 3.796875 25.953125 3.90625 17.28125 7 9.671875 
C 11.296875 -0.609375 19 -2 22.90625 -2 
C 27.5 -2 34.5 -0.109375 38.59375 9.375 
C 41.59375 16.28125 42 24.359375 42 31.640625 
z
M 22.90625 -0.40625 
C 16.5 -0.40625 12.703125 5.078125 11.296875 12.6875 
C 10.203125 18.5625 10.203125 27.15625 10.203125 32.75 
C 10.203125 40.4375 10.203125 46.828125 11.5 52.921875 
C 13.40625 61.390625 19 64 22.90625 64 
C 27 64 32.296875 61.296875 34.203125 53.125 
C 35.5 47.4375 35.59375 40.734375 35.59375 32.75 
C 35.59375 26.25 35.59375 18.265625 34.40625 12.375 
C 32.296875 1.484375 26.40625 -0.40625 22.90625 -0.40625 
z
" id="CMR17-48"/>
       </defs>
       <use transform="scale(0.996264)" xlink:href="#CMR17-49"/>
       <use transform="translate(45.690477 0)scale(0.996264)" xlink:href="#CMR17-52"/>
       <use transform="translate(91.380954 0)scale(0.996264)" xlink:href="#CMR17-48"/>
      </g>
     </g>
    </g>
    <g id="xtick_2">
     <g id="line2d_2">
      <g>
       <use style="stroke:#000000;stroke-width:0.8;" x="124.425449" xlink:href="#m43f6cc654d" y="173.52"/>
      </g>
     </g>
     <g id="text_2">
      <!-- $\mathdefault{160}$ -->
      <g transform="translate(116.953446 187.438498)scale(0.1 -0.1)">
       <defs>
        <path d="M 10.59375 34 
C 10.59375 57.65625 21.796875 63 28.296875 63 
C 30.40625 63 35.5 62.640625 37.5 59 
C 35.90625 59 32.90625 59 32.90625 55.515625 
C 32.90625 52.828125 35.09375 51.921875 36.5 51.921875 
C 37.40625 51.921875 40.09375 52.3125 40.09375 55.625 
C 40.09375 61.78125 35.09375 65.296875 28.203125 65.296875 
C 16.296875 65.296875 3.796875 52.96875 3.796875 31 
C 3.796875 3.953125 15.09375 -2 23.09375 -2 
C 32.796875 -2 42 6.671875 42 20.046875 
C 42 32.515625 33.90625 41.59375 23.703125 41.59375 
C 17.59375 41.59375 13.09375 37.609375 10.59375 30.625 
z
M 23.09375 0.390625 
C 10.796875 0.390625 10.796875 18.75 10.796875 22.4375 
C 10.796875 29.625 14.203125 40 23.5 40 
C 25.203125 40 30.09375 40 33.40625 33.125 
C 35.203125 29.21875 35.203125 25.140625 35.203125 20.140625 
C 35.203125 14.75 35.203125 10.78125 33.09375 6.78125 
C 30.90625 2.671875 27.703125 0.390625 23.09375 0.390625 
z
" id="CMR17-54"/>
       </defs>
       <use transform="scale(0.996264)" xlink:href="#CMR17-49"/>
       <use transform="translate(45.690477 0)scale(0.996264)" xlink:href="#CMR17-54"/>
       <use transform="translate(91.380954 0)scale(0.996264)" xlink:href="#CMR17-48"/>
      </g>
     </g>
    </g>
    <g id="xtick_3">
     <g id="line2d_3">
      <g>
       <use style="stroke:#000000;stroke-width:0.8;" x="175.272473" xlink:href="#m43f6cc654d" y="173.52"/>
      </g>
     </g>
     <g id="text_3">
      <!-- $\mathdefault{180}$ -->
      <g transform="translate(167.80047 187.438498)scale(0.1 -0.1)">
       <defs>
        <path d="M 27.203125 35.375 
C 33.5 38.546875 39.90625 43.328125 39.90625 50.984375 
C 39.90625 60.015625 31.09375 65.296875 23 65.296875 
C 13.90625 65.296875 5.90625 58.734375 5.90625 49.6875 
C 5.90625 47.203125 6.5 42.921875 10.40625 39.140625 
C 11.40625 38.15625 15.59375 35.171875 18.296875 33.28125 
C 13.796875 30.984375 3.296875 25.53125 3.296875 14.59375 
C 3.296875 4.359375 13.09375 -2 22.796875 -2 
C 33.5 -2 42.5 5.65625 42.5 15.78125 
C 42.5 24.84375 36.40625 29.015625 32.40625 31.703125 
z
M 14.09375 44.09375 
C 13.296875 44.59375 9.296875 47.671875 9.296875 52.359375 
C 9.296875 58.421875 15.59375 63 22.796875 63 
C 30.703125 63 36.5 57.4375 36.5 50.96875 
C 36.5 41.703125 26.09375 36.421875 25.59375 36.421875 
C 25.5 36.421875 25.40625 36.421875 24.59375 37.03125 
z
M 32.5 23.734375 
C 34 22.640625 38.796875 19.375 38.796875 13.296875 
C 38.796875 5.953125 31.40625 0.390625 23 0.390625 
C 13.90625 0.390625 7 6.84375 7 14.6875 
C 7 22.546875 13.09375 29.09375 20 32.1875 
z
" id="CMR17-56"/>
       </defs>
       <use transform="scale(0.996264)" xlink:href="#CMR17-49"/>
       <use transform="translate(45.690477 0)scale(0.996264)" xlink:href="#CMR17-56"/>
       <use transform="translate(91.380954 0)scale(0.996264)" xlink:href="#CMR17-48"/>
      </g>
     </g>
    </g>
    <g id="xtick_4">
     <g id="line2d_4">
      <g>
       <use style="stroke:#000000;stroke-width:0.8;" x="226.119496" xlink:href="#m43f6cc654d" y="173.52"/>
      </g>
     </g>
     <g id="text_4">
      <!-- $\mathdefault{200}$ -->
      <g transform="translate(218.647493 187.438498)scale(0.1 -0.1)">
       <defs>
        <path d="M 41.703125 15.453125 
L 39.90625 15.453125 
C 38.90625 8.375 38.09375 7.171875 37.703125 6.5625 
C 37.203125 5.765625 30 5.765625 28.59375 5.765625 
L 9.40625 5.765625 
C 13 9.671875 20 16.75 28.5 24.953125 
C 34.59375 30.734375 41.703125 37.53125 41.703125 47.421875 
C 41.703125 59.21875 32.296875 66 21.796875 66 
C 10.796875 66 4.09375 56.3125 4.09375 47.34375 
C 4.09375 43.4375 7 42.9375 8.203125 42.9375 
C 9.203125 42.9375 12.203125 43.546875 12.203125 47.03125 
C 12.203125 50.109375 9.59375 51 8.203125 51 
C 7.59375 51 7 50.90625 6.59375 50.703125 
C 8.5 59.21875 14.296875 63.40625 20.40625 63.40625 
C 29.09375 63.40625 34.796875 56.515625 34.796875 47.421875 
C 34.796875 38.734375 29.703125 31.25 24 24.75 
L 4.09375 2.28125 
L 4.09375 0 
L 39.296875 0 
z
" id="CMR17-50"/>
       </defs>
       <use transform="scale(0.996264)" xlink:href="#CMR17-50"/>
       <use transform="translate(45.690477 0)scale(0.996264)" xlink:href="#CMR17-48"/>
       <use transform="translate(91.380954 0)scale(0.996264)" xlink:href="#CMR17-48"/>
      </g>
     </g>
    </g>
    <g id="xtick_5">
     <g id="line2d_5">
      <g>
       <use style="stroke:#000000;stroke-width:0.8;" x="276.96652" xlink:href="#m43f6cc654d" y="173.52"/>
      </g>
     </g>
     <g id="text_5">
      <!-- $\mathdefault{220}$ -->
      <g transform="translate(269.494517 187.438498)scale(0.1 -0.1)">
       <use transform="scale(0.996264)" xlink:href="#CMR17-50"/>
       <use transform="translate(45.690477 0)scale(0.996264)" xlink:href="#CMR17-50"/>
       <use transform="translate(91.380954 0)scale(0.996264)" xlink:href="#CMR17-48"/>
      </g>
     </g>
    </g>
    <g id="xtick_6">
     <g id="line2d_6">
      <g>
       <use style="stroke:#000000;stroke-width:0.8;" x="327.813543" xlink:href="#m43f6cc654d" y="173.52"/>
      </g>
     </g>
     <g id="text_6">
      <!-- $\mathdefault{240}$ -->
      <g transform="translate(320.34154 187.438498)scale(0.1 -0.1)">
       <use transform="scale(0.996264)" xlink:href="#CMR17-50"/>
       <use transform="translate(45.690477 0)scale(0.996264)" xlink:href="#CMR17-52"/>
       <use transform="translate(91.380954 0)scale(0.996264)" xlink:href="#CMR17-48"/>
      </g>
     </g>
    </g>
    <g id="text_7">
     <!-- $\nu/\mu$Hz -->
     <g transform="translate(194.072873 200.847657)scale(0.1 -0.1)">
      <defs>
       <path d="M 22 43.015625 
C 22 43.40625 21.703125 44 20.90625 44 
C 20.203125 44 10.796875 42.984375 9.296875 42.984375 
C 8.203125 42.875 7.203125 42.78125 7.203125 40.984375 
C 7.203125 40 8 40 9.40625 40 
C 14.09375 40 14.40625 39.296875 14.40625 38.203125 
C 14.40625 37.796875 14.203125 36.609375 14.09375 36.21875 
L 5.296875 1 
C 5.296875 0.59375 5.59375 0 6.296875 0 
L 8.40625 0 
C 9.796875 0 25 3.59375 36.703125 15.5625 
C 49.59375 28.84375 51.40625 41.125 51.40625 41.515625 
C 51.40625 43.109375 50.09375 44 48.796875 44 
C 45.90625 44 45.203125 41.3125 45 40.609375 
C 39.09375 19.75 25.40625 7.390625 12.09375 3 
z
" id="CMMI12-23"/>
       <path d="M 42.90625 71.28125 
C 42.90625 71.390625 43.5 72.90625 43.5 73.09375 
C 43.5 74.296875 42.5 75 41.703125 75 
C 41.203125 75 40.296875 75 39.5 72.796875 
L 6 -21.296875 
C 6 -21.40625 5.40625 -22.890625 5.40625 -23.09375 
C 5.40625 -24.296875 6.40625 -25 7.203125 -25 
C 7.796875 -25 8.703125 -24.890625 9.40625 -22.796875 
z
" id="CMMI12-61"/>
       <path d="M 14.40625 2.1875 
C 16.90625 -0.09375 20.59375 -1 24 -1 
C 30.40625 -1 34.796875 3.25 37.09375 6.328125 
C 38.09375 1.078125 42.296875 -1 45.796875 -1 
C 48.796875 -1 51.203125 0.78125 53 4.328125 
C 54.59375 7.703125 56 13.734375 56 14.109375 
C 56 14.609375 55.59375 15 55 15 
C 54.09375 15 54 14.5 53.59375 13.03125 
C 52.09375 7.203125 50.203125 1 46.09375 1 
C 43.203125 1 43 3.578125 43 5.59375 
C 43 7.875 43.90625 11.484375 44.59375 14.46875 
L 47.40625 25.234375 
C 47.796875 27.140625 48.90625 31.609375 49.40625 33.421875 
C 50 35.8125 51.09375 40.109375 51.09375 40.5 
C 51.09375 42 49.90625 43 48.40625 43 
C 47.5 43 45.40625 42.59375 44.59375 39.609375 
L 37.59375 11.875 
C 37.09375 9.875 37.09375 9.671875 35.796875 8.078125 
C 34.59375 6.390625 30.703125 1 24.40625 1 
C 18.796875 1 17 5.09375 17 9.765625 
C 17 12.671875 17.90625 16.15625 18.296875 17.859375 
L 22.796875 35.828125 
C 23.296875 37.71875 24.09375 40.90625 24.09375 41.515625 
C 24.09375 43.109375 22.796875 44 21.5 44 
C 20.59375 44 18.40625 43.703125 17.59375 40.5 
L 3.09375 -17.296875 
C 3 -17.796875 2.796875 -18.390625 2.796875 -19 
C 2.796875 -20.5 4 -21.5 5.5 -21.5 
C 8.40625 -21.5 9 -19.1875 9.703125 -16.40625 
z
" id="CMMI12-22"/>
       <path d="M 56.09375 61.015625 
C 56.09375 65.5 57.203125 65.5 64.09375 65.5 
L 64.09375 68 
C 61.203125 68 55.90625 68 52.796875 68 
C 49.703125 68 44.40625 68 41.5 68 
L 41.5 65.5 
C 48.40625 65.5 49.5 65.5 49.5 61 
L 49.5 36.578125 
L 19.703125 36.578125 
L 19.703125 61 
C 19.703125 65.5 20.796875 65.5 27.703125 65.5 
L 27.703125 68 
C 24.796875 68 19.5 68 16.40625 68 
C 13.296875 68 8 68 5.09375 68 
L 5.09375 65.5 
C 12 65.5 13.09375 65.5 13.09375 61.015625 
L 13.09375 6.984375 
C 13.09375 2.5 12 2.5 5.09375 2.5 
L 5.09375 0 
C 8 0 13.296875 0 16.40625 0 
C 19.5 0 24.796875 0 27.703125 0 
L 27.703125 2.5 
C 20.796875 2.5 19.703125 2.5 19.703125 6.96875 
L 19.703125 34 
L 49.5 34 
L 49.5 6.96875 
C 49.5 2.5 48.40625 2.5 41.5 2.5 
L 41.5 0 
C 44.40625 0 49.703125 0 52.796875 0 
C 55.90625 0 61.203125 0 64.09375 0 
L 64.09375 2.5 
C 57.203125 2.5 56.09375 2.5 56.09375 6.984375 
z
" id="CMR17-72"/>
       <path d="M 36.09375 40.703125 
C 36.90625 41.71875 36.90625 41.90625 36.90625 42.109375 
C 36.90625 43 36.5 43 34.703125 43 
L 4.296875 43 
L 3.296875 27.5 
L 5.09375 27.5 
C 5.796875 37.203125 6.90625 41.40625 18.40625 41.40625 
L 30.59375 41.40625 
L 2 1.5 
C 2 0 2.09375 0 4.203125 0 
L 35.796875 0 
L 37.203125 18 
L 35.40625 18 
C 34.59375 6.90625 33.296875 1.796875 21.09375 1.796875 
L 8.296875 1.796875 
z
" id="CMR17-122"/>
      </defs>
      <use transform="scale(0.996264)" xlink:href="#CMMI12-23"/>
      <use transform="translate(54.482793 0)scale(0.996264)" xlink:href="#CMMI12-61"/>
      <use transform="translate(103.257712 0)scale(0.996264)" xlink:href="#CMMI12-22"/>
      <use transform="translate(161.949133 0)scale(0.996264)" xlink:href="#CMR17-72"/>
      <use transform="translate(231.021563 0)scale(0.996264)" xlink:href="#CMR17-122"/>
     </g>
    </g>
   </g>
   <g id="matplotlib.axis_2">
    <g id="ytick_1">
     <g id="line2d_7">
      <defs>
       <path d="M 0 0 
L -3.5 0 
" id="m70ad5f1c42" style="stroke:#000000;stroke-width:0.8;"/>
      </defs>
      <g>
       <use style="stroke:#000000;stroke-width:0.8;" x="40.892719" xlink:href="#m70ad5f1c42" y="173.52"/>
      </g>
     </g>
     <g id="text_8">
      <!-- $\mathdefault{0.2}$ -->
      <g transform="translate(21.16264 176.979249)scale(0.1 -0.1)">
       <defs>
        <path d="M 18.40625 4.796875 
C 18.40625 7.6875 16 9.671875 13.59375 9.671875 
C 10.703125 9.671875 8.703125 7.28125 8.703125 4.890625 
C 8.703125 2 11.09375 0 13.5 0 
C 16.40625 0 18.40625 2.390625 18.40625 4.796875 
z
" id="CMMI12-58"/>
       </defs>
       <use transform="scale(0.996264)" xlink:href="#CMR17-48"/>
       <use transform="translate(45.690477 0)scale(0.996264)" xlink:href="#CMMI12-58"/>
       <use transform="translate(72.787654 0)scale(0.996264)" xlink:href="#CMR17-50"/>
      </g>
     </g>
    </g>
    <g id="ytick_2">
     <g id="line2d_8">
      <g>
       <use style="stroke:#000000;stroke-width:0.8;" x="40.892719" xlink:href="#m70ad5f1c42" y="136.56"/>
      </g>
     </g>
     <g id="text_9">
      <!-- $\mathdefault{0.4}$ -->
      <g transform="translate(21.16264 140.019249)scale(0.1 -0.1)">
       <use transform="scale(0.996264)" xlink:href="#CMR17-48"/>
       <use transform="translate(45.690477 0)scale(0.996264)" xlink:href="#CMMI12-58"/>
       <use transform="translate(72.787654 0)scale(0.996264)" xlink:href="#CMR17-52"/>
      </g>
     </g>
    </g>
    <g id="ytick_3">
     <g id="line2d_9">
      <g>
       <use style="stroke:#000000;stroke-width:0.8;" x="40.892719" xlink:href="#m70ad5f1c42" y="99.6"/>
      </g>
     </g>
     <g id="text_10">
      <!-- $\mathdefault{0.6}$ -->
      <g transform="translate(21.16264 103.059249)scale(0.1 -0.1)">
       <use transform="scale(0.996264)" xlink:href="#CMR17-48"/>
       <use transform="translate(45.690477 0)scale(0.996264)" xlink:href="#CMMI12-58"/>
       <use transform="translate(72.787654 0)scale(0.996264)" xlink:href="#CMR17-54"/>
      </g>
     </g>
    </g>
    <g id="ytick_4">
     <g id="line2d_10">
      <g>
       <use style="stroke:#000000;stroke-width:0.8;" x="40.892719" xlink:href="#m70ad5f1c42" y="62.64"/>
      </g>
     </g>
     <g id="text_11">
      <!-- $\mathdefault{0.8}$ -->
      <g transform="translate(21.16264 66.099249)scale(0.1 -0.1)">
       <use transform="scale(0.996264)" xlink:href="#CMR17-48"/>
       <use transform="translate(45.690477 0)scale(0.996264)" xlink:href="#CMMI12-58"/>
       <use transform="translate(72.787654 0)scale(0.996264)" xlink:href="#CMR17-56"/>
      </g>
     </g>
    </g>
    <g id="ytick_5">
     <g id="line2d_11">
      <g>
       <use style="stroke:#000000;stroke-width:0.8;" x="40.892719" xlink:href="#m70ad5f1c42" y="25.68"/>
      </g>
     </g>
     <g id="text_12">
      <!-- $\mathdefault{1.0}$ -->
      <g transform="translate(21.16264 29.139249)scale(0.1 -0.1)">
       <use transform="scale(0.996264)" xlink:href="#CMR17-49"/>
       <use transform="translate(45.690477 0)scale(0.996264)" xlink:href="#CMMI12-58"/>
       <use transform="translate(72.787654 0)scale(0.996264)" xlink:href="#CMR17-48"/>
      </g>
     </g>
    </g>
    <g id="text_13">
     <!-- Mixing function $\zeta(\nu)$ -->
     <g transform="translate(14.67198 135.950427)rotate(-90)scale(0.1 -0.1)">
      <defs>
       <path d="M 20.90625 66 
C 20.296875 67.5 20.203125 67.5 18.09375 67.5 
L 5.296875 67.5 
L 5.296875 65 
C 12.203125 65 13.296875 65 13.296875 60.546875 
L 13.296875 9.53125 
C 13.296875 7.046875 13.296875 2.390625 5.296875 2.390625 
L 5.296875 -0.203125 
C 7.59375 0 11.796875 0 14.296875 0 
C 16.796875 0 21 0 23.296875 -0.203125 
L 23.296875 2.390625 
C 15.296875 2.390625 15.296875 7.046875 15.296875 9.53125 
L 15.296875 64.609375 
L 15.40625 64.609375 
L 38.90625 1.390625 
C 39.296875 0.390625 39.5 -0.203125 40.296875 -0.203125 
C 41.09375 -0.203125 41.296875 0.390625 41.703125 1.390625 
L 65.40625 65.09375 
L 65.5 65.09375 
L 65.5 6.84375 
C 65.5 2.390625 64.40625 2.390625 57.5 2.390625 
L 57.5 -0.203125 
C 60.203125 0 65.59375 0 68.5 0 
C 71.40625 0 76.90625 0 79.59375 -0.203125 
L 79.59375 2.390625 
C 72.703125 2.390625 71.59375 2.390625 71.59375 6.84375 
L 71.59375 60.546875 
C 71.59375 65 72.703125 65 79.59375 65 
L 79.59375 67.5 
L 66.90625 67.5 
C 64.796875 67.5 64.703125 67.40625 64.09375 65.90625 
L 42.5 7.84375 
z
" id="CMR17-77"/>
       <path d="M 15.5 61.078125 
C 15.5 63.265625 13.703125 65.15625 11.40625 65.15625 
C 9.203125 65.15625 7.296875 63.375 7.296875 61.078125 
C 7.296875 58.890625 9.09375 57 11.40625 57 
C 13.59375 57 15.5 58.796875 15.5 61.078125 
z
M 3.796875 42.28125 
L 3.796875 39.703125 
C 9.40625 39.703125 10.203125 39.09375 10.203125 34.328125 
L 10.203125 6.671875 
C 10.203125 2.875 9.796875 2.390625 3.40625 2.390625 
L 3.40625 -0.203125 
C 5.796875 0 10.09375 0 12.59375 0 
C 15 0 19.09375 0 21.40625 -0.203125 
L 21.40625 2.390625 
C 15.5 2.390625 15.296875 2.984375 15.296875 6.5625 
L 15.296875 43.375 
z
" id="CMR17-105"/>
       <path d="M 26 23.078125 
C 29 26.96875 32.40625 31.34375 35.203125 34.625 
C 38.5 38.40625 42.296875 40 46.703125 40 
L 46.703125 42.59375 
C 45 42.59375 41.5 42.59375 39.703125 42.59375 
C 37 42.59375 33.90625 42.59375 31.59375 42.6875 
L 31.59375 40.09375 
C 33 39.890625 33.796875 38.890625 33.796875 37.5 
C 33.796875 35.703125 32.796875 34.609375 32.296875 33.921875 
L 24.90625 24.578125 
L 16.09375 36.03125 
C 15.203125 37.125 15.203125 37.3125 15.203125 37.8125 
C 15.203125 39.015625 16.203125 40 17.90625 40 
L 17.90625 42.6875 
C 15.5 42.59375 11.203125 42.59375 8.703125 42.59375 
C 6 42.59375 2.796875 42.59375 0.59375 42.6875 
L 0.59375 40 
C 6 40 7.203125 39.59375 9.59375 36.609375 
L 21.09375 21.796875 
C 21.296875 21.59375 21.796875 21 21.796875 20.703125 
C 21.796875 20.296875 13.09375 9.671875 12 8.28125 
C 7.5 2.890625 2.796875 2.5 0.09375 2.5 
L 0.09375 0 
C 1.796875 0 5.296875 0 7.09375 0 
C 9.09375 0 13.5 0 15.296875 -0.09375 
L 15.296875 2.5 
C 14.703125 2.59375 13.09375 2.796875 13.09375 5.078125 
C 13.09375 6.875 13.90625 7.96875 14.796875 9.15625 
L 23.09375 19.3125 
L 31.796875 8 
C 32.59375 6.90625 33.796875 5.40625 33.796875 4.703125 
C 33.796875 3.296875 32.59375 2.5 31 2.5 
L 31 -0.09375 
C 33.40625 0 37.703125 0 40.203125 0 
C 42.90625 0 46.09375 0 48.296875 -0.09375 
L 48.296875 2.5 
C 43.296875 2.5 41.796875 2.6875 39.40625 5.78125 
z
" id="CMR17-120"/>
       <path d="M 41.5 30.203125 
C 41.5 35.296875 40.5 43.59375 28.703125 43.59375 
C 20.796875 43.59375 16.703125 37.5 15.203125 33.5 
L 15.09375 33.5 
L 15.09375 43.59375 
L 3.296875 42.5 
L 3.296875 39.90625 
C 9.203125 39.90625 10.09375 39.296875 10.09375 34.5 
L 10.09375 6.6875 
C 10.09375 2.875 9.703125 2.390625 3.296875 2.390625 
L 3.296875 -0.203125 
C 5.703125 0 10.09375 0 12.703125 0 
C 15.296875 0 19.796875 0 22.203125 -0.203125 
L 22.203125 2.390625 
C 15.796875 2.390625 15.40625 2.78125 15.40625 6.6875 
L 15.40625 25.90625 
C 15.40625 35.109375 21 42 28 42 
C 35.40625 42 36.203125 35.40625 36.203125 30.59375 
L 36.203125 6.6875 
C 36.203125 2.875 35.796875 2.390625 29.40625 2.390625 
L 29.40625 -0.203125 
C 31.796875 0 36.203125 0 38.796875 0 
C 41.40625 0 45.90625 0 48.296875 -0.203125 
L 48.296875 2.390625 
C 41.90625 2.390625 41.5 2.78125 41.5 6.6875 
z
" id="CMR17-110"/>
       <path d="M 11.09375 18.1875 
C 13 16.6875 16.296875 15 20.296875 15 
C 28.203125 15 35 21.203125 35 29.5 
C 35 32.09375 34.203125 36.09375 31.203125 39.203125 
C 34 42.0625 38.09375 43 40.40625 43 
C 40.796875 43 41.40625 43 41.90625 42.71875 
C 41.5 42.625 40.59375 42.234375 40.59375 40.703125 
C 40.59375 39.484375 41.5 38.609375 42.796875 38.609375 
C 44.296875 38.609375 45.09375 39.578125 45.09375 40.84375 
C 45.09375 42.671875 43.59375 44.59375 40.40625 44.59375 
C 36.40625 44.59375 32.90625 42.78125 30.09375 40.3125 
C 27.09375 43.015625 23.5 44 20.296875 44 
C 12.40625 44 5.59375 37.796875 5.59375 29.5 
C 5.59375 23.78125 8.90625 20.1875 9.90625 19.1875 
C 6.90625 15.6875 6.90625 11.609375 6.90625 11.109375 
C 6.90625 8.515625 7.90625 4.71875 11.296875 2.625 
C 6.09375 1.328125 2 -2.640625 2 -7.59375 
C 2 -14.734375 11.5 -20 22.90625 -20 
C 33.90625 -20 43.796875 -14.9375 43.796875 -7.484375 
C 43.796875 6 29 6 21.296875 6 
C 19 6 14.90625 6 14.40625 6.109375 
C 11.296875 6.609375 9.203125 9.40625 9.203125 12.90625 
C 9.203125 13.796875 9.203125 16 11.09375 18.1875 
z
M 20.296875 16.6875 
C 11.5 16.6875 11.5 27.5 11.5 29.515625 
C 11.5 31.5 11.5 42.3125 20.296875 42.3125 
C 29.09375 42.3125 29.09375 31.5 29.09375 29.515625 
C 29.09375 27.5 29.09375 16.6875 20.296875 16.6875 
z
M 22.90625 -18.296875 
C 12.90625 -18.296875 6 -13.046875 6 -7.59375 
C 6 -4.515625 7.703125 -1.640625 9.90625 -0.0625 
C 12.40625 1.625 13.40625 1.625 20.203125 1.625 
C 28.40625 1.625 39.796875 1.625 39.796875 -7.59375 
C 39.796875 -13.046875 32.90625 -18.296875 22.90625 -18.296875 
z
" id="CMR17-103"/>
       <path d="M 15.296875 40 
L 26.703125 40 
L 26.703125 42.578125 
L 15.09375 42.578125 
L 15.09375 54.59375 
C 15.09375 62.84375 19.296875 68 23.59375 68 
C 24.90625 68 26.40625 67.609375 27.40625 66.90625 
C 26.59375 66.703125 24.5 66.015625 24.5 63.546875 
C 24.5 60.953125 26.5 60.15625 27.90625 60.15625 
C 29.296875 60.15625 31.296875 60.953125 31.296875 63.546875 
C 31.296875 67.3125 27.703125 69.59375 23.703125 69.59375 
C 18 69.59375 10.203125 64.9375 10.203125 54.390625 
L 10.203125 42.578125 
L 2.203125 42.578125 
L 2.203125 40 
L 10.203125 40 
L 10.203125 6.671875 
C 10.203125 2.875 9.796875 2.390625 3.40625 2.390625 
L 3.40625 -0.203125 
C 5.796875 0 10.40625 0 13 0 
C 15.90625 0 21 0 23.703125 -0.203125 
L 23.703125 2.390625 
C 16.5 2.390625 15.296875 2.390625 15.296875 6.859375 
z
" id="CMR17-102"/>
       <path d="M 29.40625 42.078125 
L 29.40625 39.5 
C 35.296875 39.5 36.203125 38.890625 36.203125 34.15625 
L 36.203125 16.125 
C 36.203125 7.8125 31.703125 0.59375 24.296875 0.59375 
C 16.09375 0.59375 15.40625 5.4375 15.40625 10.59375 
L 15.40625 43.171875 
L 3.296875 42.078125 
L 3.296875 39.5 
C 7.296875 39.5 10 39.5 10.09375 35.53125 
L 10.09375 16.53125 
C 10.09375 9.890625 10.09375 5.640625 12.703125 2.859375 
C 14 1.578125 16.5 -1 23.703125 -1 
C 32.203125 -1 35.5 5.890625 36.296875 7.90625 
L 36.40625 7.90625 
L 36.40625 -0.984375 
L 48.296875 -0.984375 
L 48.296875 2 
C 42.40625 2 41.5 2.59375 41.5 7.390625 
L 41.5 43.171875 
z
" id="CMR17-117"/>
       <path d="M 34.90625 35 
C 33 35 30.203125 35 30.203125 31.515625 
C 30.203125 28.71875 32.5 27.921875 33.796875 27.921875 
C 34.5 27.921875 37.40625 28.234375 37.40625 31.625 
C 37.40625 38.546875 30.59375 43.796875 22.90625 43.796875 
C 12.296875 43.796875 3.296875 34.03125 3.296875 21.296875 
C 3.296875 8.0625 12.703125 -1 22.90625 -1 
C 35.296875 -1 38.40625 10.578125 38.40625 11.6875 
C 38.40625 12.09375 38.296875 12.390625 37.59375 12.390625 
C 36.90625 12.390625 36.796875 12.296875 36.40625 10.984375 
C 33.796875 2.8125 28.09375 0.796875 23.796875 0.796875 
C 17.40625 0.796875 9.703125 6.671875 9.703125 21.390625 
C 9.703125 36.53125 17.09375 42 23 42 
C 26.90625 42 32.703125 40.203125 34.90625 35 
z
" id="CMR17-99"/>
       <path d="M 15.09375 40 
L 29.09375 40 
L 29.09375 42.578125 
L 15.09375 42.578125 
L 15.09375 61 
L 13.296875 61 
C 13.09375 50.703125 9.59375 41.6875 1.09375 41.6875 
L 1.09375 40 
L 9.796875 40 
L 9.796875 12.046875 
C 9.796875 10.15625 9.796875 -1 21.40625 -1 
C 27.296875 -1 30.703125 4.78125 30.703125 12.140625 
L 30.703125 17.8125 
L 28.90625 17.8125 
L 28.90625 12.234375 
C 28.90625 5.375 26.203125 0.796875 22 0.796875 
C 19.09375 0.796875 15.09375 2.78125 15.09375 11.84375 
z
" id="CMR17-116"/>
       <path d="M 43.09375 21.1875 
C 43.09375 34 33.796875 44 22.90625 44 
C 12 44 2.703125 34 2.703125 21.1875 
C 2.703125 8.609375 12 -1 22.90625 -1 
C 33.796875 -1 43.09375 8.609375 43.09375 21.1875 
z
M 22.90625 0.796875 
C 18.203125 0.796875 14.203125 3.59375 11.90625 7.5 
C 9.40625 11.984375 9.09375 17.59375 9.09375 22 
C 9.09375 26.203125 9.296875 31.40625 11.90625 35.90625 
C 13.90625 39.203125 17.796875 42.40625 22.90625 42.40625 
C 27.40625 42.40625 31.203125 39.90625 33.59375 36.40625 
C 36.703125 31.703125 36.703125 25.109375 36.703125 22 
C 36.703125 18.09375 36.5 12.109375 33.796875 7.296875 
C 31 2.703125 26.703125 0.796875 22.90625 0.796875 
z
" id="CMR17-111"/>
       <path d="M 18.90625 5.296875 
C 13 7.609375 9.59375 12.09375 9.59375 19.59375 
C 9.59375 33.296875 19.703125 51.59375 32 58.6875 
C 33.796875 57 36.09375 57 38 57 
C 40.5 57 46.59375 57 46.59375 59.6875 
C 46.59375 61.890625 42.09375 61.890625 38.90625 61.890625 
C 36.90625 61.890625 35.203125 61.890625 32.59375 60.890625 
C 32 62.1875 31.703125 63.5625 31.703125 65.046875 
C 31.703125 66.828125 32.09375 68.203125 32.09375 68.5 
C 32.09375 69.09375 31.59375 69.5 31.09375 69.5 
C 29.5 69.5 29.5 65.8125 29.5 65.015625 
C 29.5 64.125 29.5 62.046875 30.703125 59.953125 
C 19.09375 53.984375 4.5 35.390625 4.5 16.8125 
C 4.5 3.1875 13.59375 0 18.796875 -1.796875 
C 20.09375 -2.1875 23.296875 -3.28125 24.59375 -3.78125 
C 28.703125 -5.171875 32.59375 -6.46875 32.59375 -11.234375 
C 32.59375 -14.125 30.5 -18 26.796875 -18 
C 24.796875 -18 22.09375 -17.3125 19.59375 -14.796875 
C 19.203125 -14.40625 19 -14.203125 18.5 -14.203125 
C 17.703125 -14.203125 17.5 -15 17.5 -15.203125 
C 17.5 -16.203125 21.796875 -20 26.796875 -20 
C 33.203125 -20 37.59375 -13.296875 37.59375 -8.109375 
C 37.59375 -1.109375 31.796875 0.90625 28.09375 2.09375 
z
M 34.203125 59.5 
C 35.703125 60 37.09375 60 38.796875 60 
C 42 60 42.296875 59.9375 44.296875 59.5625 
C 43.09375 59.203125 42.296875 58.984375 38.09375 58.984375 
C 36 58.984375 35.296875 58.984375 34.203125 59.5 
z
" id="CMMI12-16"/>
       <path d="M 30.59375 -24.390625 
C 30.59375 -24.296875 30.59375 -24.09375 30.296875 -23.796875 
C 25.703125 -19.125 13.40625 -6.359375 13.40625 24.703125 
C 13.40625 55.765625 25.5 68.421875 30.40625 73.390625 
C 30.40625 73.5 30.59375 73.703125 30.59375 74 
C 30.59375 74.296875 30.296875 74.5 29.90625 74.5 
C 28.796875 74.5 20.296875 67.125 15.40625 56.15625 
C 10.40625 45.109375 9 34.359375 9 24.8125 
C 9 17.625 9.703125 5.484375 15.703125 -7.359375 
C 20.5 -17.734375 28.703125 -25 29.90625 -25 
C 30.40625 -25 30.59375 -24.796875 30.59375 -24.390625 
z
" id="CMR17-40"/>
       <path d="M 26.296875 24.703125 
C 26.296875 31.875 25.59375 44.015625 19.59375 56.859375 
C 14.796875 67.234375 6.59375 74.5 5.40625 74.5 
C 5.09375 74.5 4.703125 74.390625 4.703125 73.890625 
C 4.703125 73.703125 4.796875 73.59375 4.90625 73.390625 
C 9.703125 68.40625 21.90625 55.75 21.90625 24.75 
C 21.90625 -6.359375 9.796875 -19.015625 4.90625 -24.015625 
C 4.796875 -24.203125 4.703125 -24.3125 4.703125 -24.5 
C 4.703125 -25 5.09375 -25 5.40625 -25 
C 6.5 -25 15 -17.625 19.90625 -6.65625 
C 24.90625 4.390625 26.296875 15.140625 26.296875 24.703125 
z
" id="CMR17-41"/>
      </defs>
      <use transform="scale(0.996264)" xlink:href="#CMR17-77"/>
      <use transform="translate(84.686941 0)scale(0.996264)" xlink:href="#CMR17-105"/>
      <use transform="translate(109.557999 0)scale(0.996264)" xlink:href="#CMR17-120"/>
      <use transform="translate(157.850915 0)scale(0.996264)" xlink:href="#CMR17-105"/>
      <use transform="translate(182.721973 0)scale(0.996264)" xlink:href="#CMR17-110"/>
      <use transform="translate(233.617343 0)scale(0.996264)" xlink:href="#CMR17-103"/>
      <use transform="translate(309.383787 0)scale(0.996264)" xlink:href="#CMR17-102"/>
      <use transform="translate(336.857299 0)scale(0.996264)" xlink:href="#CMR17-117"/>
      <use transform="translate(387.752669 0)scale(0.996264)" xlink:href="#CMR17-110"/>
      <use transform="translate(438.648039 0)scale(0.996264)" xlink:href="#CMR17-99"/>
      <use transform="translate(479.133699 0)scale(0.996264)" xlink:href="#CMR17-116"/>
      <use transform="translate(514.414467 0)scale(0.996264)" xlink:href="#CMR17-105"/>
      <use transform="translate(539.285525 0)scale(0.996264)" xlink:href="#CMR17-111"/>
      <use transform="translate(584.976002 0)scale(0.996264)" xlink:href="#CMR17-110"/>
      <use transform="translate(665.947339 0)scale(0.996264)" xlink:href="#CMMI12-16"/>
      <use transform="translate(716.07739 0)scale(0.996264)" xlink:href="#CMR17-40"/>
      <use transform="translate(751.358158 0)scale(0.996264)" xlink:href="#CMMI12-23"/>
      <use transform="translate(805.84095 0)scale(0.996264)" xlink:href="#CMR17-41"/>
     </g>
    </g>
   </g>
   <g id="line2d_12">
    <path clip-path="url(#pa448bf230c)" d="M 8.431089 34.528887 
L 11.246529 29.320651 
L 14.159366 27.799293 
L 17.142119 27.206481 
L 20.185972 26.972541 
L 23.296939 26.937127 
L 26.471707 27.092351 
L 29.706442 27.564154 
L 32.991673 28.864862 
L 36.295482 33.596931 
L 39.406 65.27723 
L 41.402871 121.554516 
L 43.881712 46.569333 
L 47.301105 31.143927 
L 50.939381 28.334555 
L 54.686644 27.512765 
L 58.526739 27.305953 
L 62.451866 27.484329 
L 66.457542 28.287298 
L 70.521021 31.303835 
L 74.481659 51.76203 
L 77.135984 133.718082 
L 79.793922 53.394429 
L 83.939567 31.80843 
L 88.409911 28.652696 
L 93.038091 27.917131 
L 97.781906 28.067033 
L 102.62272 29.432946 
L 107.499843 36.503562 
L 111.731805 103.616344 
L 114.154947 97.873578 
L 118.608145 35.931523 
L 123.898867 29.52127 
L 129.429434 28.392791 
L 135.119414 28.727811 
L 140.909014 31.553074 
L 146.558645 55.478206 
L 150.028865 141.076706 
L 154.046588 47.160861 
L 160.16418 31.055981 
L 166.669805 29.105022 
L 173.394638 29.85778 
L 180.216129 37.256883 
L 185.876076 121.486178 
L 189.102329 85.84454 
L 195.679595 34.062257 
L 203.235941 29.979322 
L 211.084249 31.095959 
L 218.888764 47.135609 
L 223.97495 149.492704 
L 228.803078 51.822231 
L 237.128445 31.85165 
L 246.062177 31.113815 
L 255.084547 42.76209 
L 261.387119 150.345729 
L 266.419366 57.09288 
L 275.941319 32.534352 
L 286.180493 33.151626 
L 296.050561 72.537383 
L 300.817274 140.720375 
L 309.283906 38.627668 
L 320.707854 32.954623 
L 332.188862 55.798259 
L 338.319433 156.231743 
L 346.670719 42.285437 
L 359.451247 34.347619 
L 371.996209 78.82867 
L 377.511332 139.136167 
" style="fill:none;stroke:#1f77b4;stroke-linecap:square;stroke-width:1.5;"/>
    <defs>
     <path d="M -0 3 
L 3 -3 
L -3 -3 
z
" id="m68a9eb4077" style="stroke:#1f77b4;stroke-linejoin:miter;"/>
    </defs>
    <g clip-path="url(#pa448bf230c)">
     <use style="fill:#1f77b4;stroke:#1f77b4;stroke-linejoin:miter;" x="8.431089" xlink:href="#m68a9eb4077" y="34.528887"/>
     <use style="fill:#1f77b4;stroke:#1f77b4;stroke-linejoin:miter;" x="11.246529" xlink:href="#m68a9eb4077" y="29.320651"/>
     <use style="fill:#1f77b4;stroke:#1f77b4;stroke-linejoin:miter;" x="14.159366" xlink:href="#m68a9eb4077" y="27.799293"/>
     <use style="fill:#1f77b4;stroke:#1f77b4;stroke-linejoin:miter;" x="17.142119" xlink:href="#m68a9eb4077" y="27.206481"/>
     <use style="fill:#1f77b4;stroke:#1f77b4;stroke-linejoin:miter;" x="20.185972" xlink:href="#m68a9eb4077" y="26.972541"/>
     <use style="fill:#1f77b4;stroke:#1f77b4;stroke-linejoin:miter;" x="23.296939" xlink:href="#m68a9eb4077" y="26.937127"/>
     <use style="fill:#1f77b4;stroke:#1f77b4;stroke-linejoin:miter;" x="26.471707" xlink:href="#m68a9eb4077" y="27.092351"/>
     <use style="fill:#1f77b4;stroke:#1f77b4;stroke-linejoin:miter;" x="29.706442" xlink:href="#m68a9eb4077" y="27.564154"/>
     <use style="fill:#1f77b4;stroke:#1f77b4;stroke-linejoin:miter;" x="32.991673" xlink:href="#m68a9eb4077" y="28.864862"/>
     <use style="fill:#1f77b4;stroke:#1f77b4;stroke-linejoin:miter;" x="36.295482" xlink:href="#m68a9eb4077" y="33.596931"/>
     <use style="fill:#1f77b4;stroke:#1f77b4;stroke-linejoin:miter;" x="39.406" xlink:href="#m68a9eb4077" y="65.27723"/>
     <use style="fill:#1f77b4;stroke:#1f77b4;stroke-linejoin:miter;" x="41.402871" xlink:href="#m68a9eb4077" y="121.554516"/>
     <use style="fill:#1f77b4;stroke:#1f77b4;stroke-linejoin:miter;" x="43.881712" xlink:href="#m68a9eb4077" y="46.569333"/>
     <use style="fill:#1f77b4;stroke:#1f77b4;stroke-linejoin:miter;" x="47.301105" xlink:href="#m68a9eb4077" y="31.143927"/>
     <use style="fill:#1f77b4;stroke:#1f77b4;stroke-linejoin:miter;" x="50.939381" xlink:href="#m68a9eb4077" y="28.334555"/>
     <use style="fill:#1f77b4;stroke:#1f77b4;stroke-linejoin:miter;" x="54.686644" xlink:href="#m68a9eb4077" y="27.512765"/>
     <use style="fill:#1f77b4;stroke:#1f77b4;stroke-linejoin:miter;" x="58.526739" xlink:href="#m68a9eb4077" y="27.305953"/>
     <use style="fill:#1f77b4;stroke:#1f77b4;stroke-linejoin:miter;" x="62.451866" xlink:href="#m68a9eb4077" y="27.484329"/>
     <use style="fill:#1f77b4;stroke:#1f77b4;stroke-linejoin:miter;" x="66.457542" xlink:href="#m68a9eb4077" y="28.287298"/>
     <use style="fill:#1f77b4;stroke:#1f77b4;stroke-linejoin:miter;" x="70.521021" xlink:href="#m68a9eb4077" y="31.303835"/>
     <use style="fill:#1f77b4;stroke:#1f77b4;stroke-linejoin:miter;" x="74.481659" xlink:href="#m68a9eb4077" y="51.76203"/>
     <use style="fill:#1f77b4;stroke:#1f77b4;stroke-linejoin:miter;" x="77.135984" xlink:href="#m68a9eb4077" y="133.718082"/>
     <use style="fill:#1f77b4;stroke:#1f77b4;stroke-linejoin:miter;" x="79.793922" xlink:href="#m68a9eb4077" y="53.394429"/>
     <use style="fill:#1f77b4;stroke:#1f77b4;stroke-linejoin:miter;" x="83.939567" xlink:href="#m68a9eb4077" y="31.80843"/>
     <use style="fill:#1f77b4;stroke:#1f77b4;stroke-linejoin:miter;" x="88.409911" xlink:href="#m68a9eb4077" y="28.652696"/>
     <use style="fill:#1f77b4;stroke:#1f77b4;stroke-linejoin:miter;" x="93.038091" xlink:href="#m68a9eb4077" y="27.917131"/>
     <use style="fill:#1f77b4;stroke:#1f77b4;stroke-linejoin:miter;" x="97.781906" xlink:href="#m68a9eb4077" y="28.067033"/>
     <use style="fill:#1f77b4;stroke:#1f77b4;stroke-linejoin:miter;" x="102.62272" xlink:href="#m68a9eb4077" y="29.432946"/>
     <use style="fill:#1f77b4;stroke:#1f77b4;stroke-linejoin:miter;" x="107.499843" xlink:href="#m68a9eb4077" y="36.503562"/>
     <use style="fill:#1f77b4;stroke:#1f77b4;stroke-linejoin:miter;" x="111.731805" xlink:href="#m68a9eb4077" y="103.616344"/>
     <use style="fill:#1f77b4;stroke:#1f77b4;stroke-linejoin:miter;" x="114.154947" xlink:href="#m68a9eb4077" y="97.873578"/>
     <use style="fill:#1f77b4;stroke:#1f77b4;stroke-linejoin:miter;" x="118.608145" xlink:href="#m68a9eb4077" y="35.931523"/>
     <use style="fill:#1f77b4;stroke:#1f77b4;stroke-linejoin:miter;" x="123.898867" xlink:href="#m68a9eb4077" y="29.52127"/>
     <use style="fill:#1f77b4;stroke:#1f77b4;stroke-linejoin:miter;" x="129.429434" xlink:href="#m68a9eb4077" y="28.392791"/>
     <use style="fill:#1f77b4;stroke:#1f77b4;stroke-linejoin:miter;" x="135.119414" xlink:href="#m68a9eb4077" y="28.727811"/>
     <use style="fill:#1f77b4;stroke:#1f77b4;stroke-linejoin:miter;" x="140.909014" xlink:href="#m68a9eb4077" y="31.553074"/>
     <use style="fill:#1f77b4;stroke:#1f77b4;stroke-linejoin:miter;" x="146.558645" xlink:href="#m68a9eb4077" y="55.478206"/>
     <use style="fill:#1f77b4;stroke:#1f77b4;stroke-linejoin:miter;" x="150.028865" xlink:href="#m68a9eb4077" y="141.076706"/>
     <use style="fill:#1f77b4;stroke:#1f77b4;stroke-linejoin:miter;" x="154.046588" xlink:href="#m68a9eb4077" y="47.160861"/>
     <use style="fill:#1f77b4;stroke:#1f77b4;stroke-linejoin:miter;" x="160.16418" xlink:href="#m68a9eb4077" y="31.055981"/>
     <use style="fill:#1f77b4;stroke:#1f77b4;stroke-linejoin:miter;" x="166.669805" xlink:href="#m68a9eb4077" y="29.105022"/>
     <use style="fill:#1f77b4;stroke:#1f77b4;stroke-linejoin:miter;" x="173.394638" xlink:href="#m68a9eb4077" y="29.85778"/>
     <use style="fill:#1f77b4;stroke:#1f77b4;stroke-linejoin:miter;" x="180.216129" xlink:href="#m68a9eb4077" y="37.256883"/>
     <use style="fill:#1f77b4;stroke:#1f77b4;stroke-linejoin:miter;" x="185.876076" xlink:href="#m68a9eb4077" y="121.486178"/>
     <use style="fill:#1f77b4;stroke:#1f77b4;stroke-linejoin:miter;" x="189.102329" xlink:href="#m68a9eb4077" y="85.84454"/>
     <use style="fill:#1f77b4;stroke:#1f77b4;stroke-linejoin:miter;" x="195.679595" xlink:href="#m68a9eb4077" y="34.062257"/>
     <use style="fill:#1f77b4;stroke:#1f77b4;stroke-linejoin:miter;" x="203.235941" xlink:href="#m68a9eb4077" y="29.979322"/>
     <use style="fill:#1f77b4;stroke:#1f77b4;stroke-linejoin:miter;" x="211.084249" xlink:href="#m68a9eb4077" y="31.095959"/>
     <use style="fill:#1f77b4;stroke:#1f77b4;stroke-linejoin:miter;" x="218.888764" xlink:href="#m68a9eb4077" y="47.135609"/>
     <use style="fill:#1f77b4;stroke:#1f77b4;stroke-linejoin:miter;" x="223.97495" xlink:href="#m68a9eb4077" y="149.492704"/>
     <use style="fill:#1f77b4;stroke:#1f77b4;stroke-linejoin:miter;" x="228.803078" xlink:href="#m68a9eb4077" y="51.822231"/>
     <use style="fill:#1f77b4;stroke:#1f77b4;stroke-linejoin:miter;" x="237.128445" xlink:href="#m68a9eb4077" y="31.85165"/>
     <use style="fill:#1f77b4;stroke:#1f77b4;stroke-linejoin:miter;" x="246.062177" xlink:href="#m68a9eb4077" y="31.113815"/>
     <use style="fill:#1f77b4;stroke:#1f77b4;stroke-linejoin:miter;" x="255.084547" xlink:href="#m68a9eb4077" y="42.76209"/>
     <use style="fill:#1f77b4;stroke:#1f77b4;stroke-linejoin:miter;" x="261.387119" xlink:href="#m68a9eb4077" y="150.345729"/>
     <use style="fill:#1f77b4;stroke:#1f77b4;stroke-linejoin:miter;" x="266.419366" xlink:href="#m68a9eb4077" y="57.09288"/>
     <use style="fill:#1f77b4;stroke:#1f77b4;stroke-linejoin:miter;" x="275.941319" xlink:href="#m68a9eb4077" y="32.534352"/>
     <use style="fill:#1f77b4;stroke:#1f77b4;stroke-linejoin:miter;" x="286.180493" xlink:href="#m68a9eb4077" y="33.151626"/>
     <use style="fill:#1f77b4;stroke:#1f77b4;stroke-linejoin:miter;" x="296.050561" xlink:href="#m68a9eb4077" y="72.537383"/>
     <use style="fill:#1f77b4;stroke:#1f77b4;stroke-linejoin:miter;" x="300.817274" xlink:href="#m68a9eb4077" y="140.720375"/>
     <use style="fill:#1f77b4;stroke:#1f77b4;stroke-linejoin:miter;" x="309.283906" xlink:href="#m68a9eb4077" y="38.627668"/>
     <use style="fill:#1f77b4;stroke:#1f77b4;stroke-linejoin:miter;" x="320.707854" xlink:href="#m68a9eb4077" y="32.954623"/>
     <use style="fill:#1f77b4;stroke:#1f77b4;stroke-linejoin:miter;" x="332.188862" xlink:href="#m68a9eb4077" y="55.798259"/>
     <use style="fill:#1f77b4;stroke:#1f77b4;stroke-linejoin:miter;" x="338.319433" xlink:href="#m68a9eb4077" y="156.231743"/>
     <use style="fill:#1f77b4;stroke:#1f77b4;stroke-linejoin:miter;" x="346.670719" xlink:href="#m68a9eb4077" y="42.285437"/>
     <use style="fill:#1f77b4;stroke:#1f77b4;stroke-linejoin:miter;" x="359.451247" xlink:href="#m68a9eb4077" y="34.347619"/>
     <use style="fill:#1f77b4;stroke:#1f77b4;stroke-linejoin:miter;" x="371.996209" xlink:href="#m68a9eb4077" y="78.82867"/>
     <use style="fill:#1f77b4;stroke:#1f77b4;stroke-linejoin:miter;" x="377.511332" xlink:href="#m68a9eb4077" y="139.136167"/>
    </g>
   </g>
   <g id="line2d_13">
    <path clip-path="url(#pa448bf230c)" d="M 383.892719 57.263834 
L 383.130788 59.213727 
L 374.686612 144.729559 
L 365.841042 40.243015 
L 353.139469 32.340667 
L 342.355428 82.707003 
L 335.142076 127.586867 
L 326.553463 34.087236 
L 314.961395 26.799806 
L 304.803404 67.766884 
L 298.205915 135.370566 
L 291.105647 43.59652 
L 281.129679 28.444485 
L 271.131417 30.511038 
L 263.673585 112.868382 
L 258.209967 98.894428 
L 250.708575 27.056409 
L 241.67459 28.697919 
L 233.049198 31.646578 
L 226.276366 98.412449 
L 221.309833 103.643049 
L 214.955173 29.851736 
L 207.071607 25.238862 
L 199.353028 25.992522 
L 192.24611 44.159465 
L 187.305355 127.330051 
L 182.929402 66.901229 
L 176.868684 33.26966 
L 170.01305 14.705338 
L 163.280714 29.310821 
L 157.041201 31.808968 
L 151.874748 83.950216 
L 148.087597 108.385232 
L 143.638362 37.799161 
L 137.939687 23.502709 
L 132.218237 26.657249 
L 126.687246 25.931744 
L 121.2452 22.693186 
L 116.315098 52.587224 
L 112.872395 122.206156 
L 109.511743 53.092355 
L 105.044088 35.288065 
L 100.276745 22.281597 
L 95.523357 27.452323 
L 90.83967 18.295766 
L 86.098508 13.186396 
L 81.772313 43.956705 
L 78.420484 89.255193 
L 75.841608 106.441649 
L 72.66936 32.1214 
L 68.597125 19.568464 
L 64.50027 21.3091 
L 60.464427 16.266643 
L 56.735359 42.682101 
L 52.92313 -0.925308 
L 49.158127 39.777383 
L 45.66709 18.378645 
L 42.559555 73.80478 
L 40.35078 109.477314 
L 37.870819 39.902369 
L 34.719766 30.462871 
L 31.417519 15.467449 
L 28.125911 23.981597 
L 24.981305 24.792852 
L 21.729142 2.913494 
L 18.679129 42.132761 
L 15.685392 -1 
M 15.63098 -1 
L 12.604703 29.672991 
L 9.659381 4.832057 
L 6.821711 36.909583 
L 4.098493 12.524509 
L 1.277495 16.328823 
L -1 10.208388 
" style="fill:none;stroke:#ff7f0e;stroke-linecap:square;stroke-width:1.5;"/>
    <defs>
     <path d="M 0 1.5 
C 0.397805 1.5 0.77937 1.341951 1.06066 1.06066 
C 1.341951 0.77937 1.5 0.397805 1.5 0 
C 1.5 -0.397805 1.341951 -0.77937 1.06066 -1.06066 
C 0.77937 -1.341951 0.397805 -1.5 0 -1.5 
C -0.397805 -1.5 -0.77937 -1.341951 -1.06066 -1.06066 
C -1.341951 -0.77937 -1.5 -0.397805 -1.5 0 
C -1.5 0.397805 -1.341951 0.77937 -1.06066 1.06066 
C -0.77937 1.341951 -0.397805 1.5 0 1.5 
z
" id="m49cf69bb84" style="stroke:#ff7f0e;"/>
    </defs>
    <g clip-path="url(#pa448bf230c)">
     <use style="fill:#ff7f0e;stroke:#ff7f0e;" x="9684.649855" xlink:href="#m49cf69bb84" y="45.906523"/>
     <use style="fill:#ff7f0e;stroke:#ff7f0e;" x="7565.1386" xlink:href="#m49cf69bb84" y="-1"/>
     <use style="fill:#ff7f0e;stroke:#ff7f0e;" x="4849.090097" xlink:href="#m49cf69bb84" y="-1"/>
     <use style="fill:#ff7f0e;stroke:#ff7f0e;" x="4461.151656" xlink:href="#m49cf69bb84" y="0.918962"/>
     <use style="fill:#ff7f0e;stroke:#ff7f0e;" x="3792.475998" xlink:href="#m49cf69bb84" y="36.789421"/>
     <use style="fill:#ff7f0e;stroke:#ff7f0e;" x="3370.580865" xlink:href="#m49cf69bb84" y="68.381479"/>
     <use style="fill:#ff7f0e;stroke:#ff7f0e;" x="3022.662757" xlink:href="#m49cf69bb84" y="23.414138"/>
     <use style="fill:#ff7f0e;stroke:#ff7f0e;" x="2682.947341" xlink:href="#m49cf69bb84" y="5.233609"/>
     <use style="fill:#ff7f0e;stroke:#ff7f0e;" x="2398.137881" xlink:href="#m49cf69bb84" y="12.811115"/>
     <use style="fill:#ff7f0e;stroke:#ff7f0e;" x="2204.807028" xlink:href="#m49cf69bb84" y="86.501838"/>
     <use style="fill:#ff7f0e;stroke:#ff7f0e;" x="2074.302713" xlink:href="#m49cf69bb84" y="-1"/>
     <use style="fill:#ff7f0e;stroke:#ff7f0e;" x="1869.524124" xlink:href="#m49cf69bb84" y="-1"/>
     <use style="fill:#ff7f0e;stroke:#ff7f0e;" x="1826.207504" xlink:href="#m49cf69bb84" y="9.182332"/>
     <use style="fill:#ff7f0e;stroke:#ff7f0e;" x="1680.857707" xlink:href="#m49cf69bb84" y="16.215416"/>
     <use style="fill:#ff7f0e;stroke:#ff7f0e;" x="1560.923437" xlink:href="#m49cf69bb84" y="31.773731"/>
     <use style="fill:#ff7f0e;stroke:#ff7f0e;" x="1458.408292" xlink:href="#m49cf69bb84" y="28.454702"/>
     <use style="fill:#ff7f0e;stroke:#ff7f0e;" x="1364.217032" xlink:href="#m49cf69bb84" y="21.246657"/>
     <use style="fill:#ff7f0e;stroke:#ff7f0e;" x="1278.275192" xlink:href="#m49cf69bb84" y="22.314547"/>
     <use style="fill:#ff7f0e;stroke:#ff7f0e;" x="1201.188045" xlink:href="#m49cf69bb84" y="22.873131"/>
     <use style="fill:#ff7f0e;stroke:#ff7f0e;" x="1131.136518" xlink:href="#m49cf69bb84" y="20.92053"/>
     <use style="fill:#ff7f0e;stroke:#ff7f0e;" x="1067.073575" xlink:href="#m49cf69bb84" y="20.912343"/>
     <use style="fill:#ff7f0e;stroke:#ff7f0e;" x="1008.92586" xlink:href="#m49cf69bb84" y="23.450504"/>
     <use style="fill:#ff7f0e;stroke:#ff7f0e;" x="956.068156" xlink:href="#m49cf69bb84" y="24.399332"/>
     <use style="fill:#ff7f0e;stroke:#ff7f0e;" x="907.467121" xlink:href="#m49cf69bb84" y="24.18193"/>
     <use style="fill:#ff7f0e;stroke:#ff7f0e;" x="862.485073" xlink:href="#m49cf69bb84" y="23.943446"/>
     <use style="fill:#ff7f0e;stroke:#ff7f0e;" x="820.415135" xlink:href="#m49cf69bb84" y="20.672047"/>
     <use style="fill:#ff7f0e;stroke:#ff7f0e;" x="780.888176" xlink:href="#m49cf69bb84" y="19.635266"/>
     <use style="fill:#ff7f0e;stroke:#ff7f0e;" x="744.237421" xlink:href="#m49cf69bb84" y="22.300977"/>
     <use style="fill:#ff7f0e;stroke:#ff7f0e;" x="710.502981" xlink:href="#m49cf69bb84" y="25.051811"/>
     <use style="fill:#ff7f0e;stroke:#ff7f0e;" x="679.005796" xlink:href="#m49cf69bb84" y="23.252438"/>
     <use style="fill:#ff7f0e;stroke:#ff7f0e;" x="649.012494" xlink:href="#m49cf69bb84" y="19.347998"/>
     <use style="fill:#ff7f0e;stroke:#ff7f0e;" x="620.797769" xlink:href="#m49cf69bb84" y="22.979415"/>
     <use style="fill:#ff7f0e;stroke:#ff7f0e;" x="594.516648" xlink:href="#m49cf69bb84" y="23.268822"/>
     <use style="fill:#ff7f0e;stroke:#ff7f0e;" x="569.635994" xlink:href="#m49cf69bb84" y="21.583546"/>
     <use style="fill:#ff7f0e;stroke:#ff7f0e;" x="546.066893" xlink:href="#m49cf69bb84" y="22.323266"/>
     <use style="fill:#ff7f0e;stroke:#ff7f0e;" x="523.923092" xlink:href="#m49cf69bb84" y="24.329132"/>
     <use style="fill:#ff7f0e;stroke:#ff7f0e;" x="502.975995" xlink:href="#m49cf69bb84" y="23.031238"/>
     <use style="fill:#ff7f0e;stroke:#ff7f0e;" x="482.944216" xlink:href="#m49cf69bb84" y="21.516297"/>
     <use style="fill:#ff7f0e;stroke:#ff7f0e;" x="463.781943" xlink:href="#m49cf69bb84" y="20.46581"/>
     <use style="fill:#ff7f0e;stroke:#ff7f0e;" x="445.601958" xlink:href="#m49cf69bb84" y="22.57447"/>
     <use style="fill:#ff7f0e;stroke:#ff7f0e;" x="428.508305" xlink:href="#m49cf69bb84" y="25.428256"/>
     <use style="fill:#ff7f0e;stroke:#ff7f0e;" x="412.231845" xlink:href="#m49cf69bb84" y="23.221511"/>
     <use style="fill:#ff7f0e;stroke:#ff7f0e;" x="396.647828" xlink:href="#m49cf69bb84" y="24.621641"/>
     <use style="fill:#ff7f0e;stroke:#ff7f0e;" x="383.130788" xlink:href="#m49cf69bb84" y="59.213727"/>
     <use style="fill:#ff7f0e;stroke:#ff7f0e;" x="374.686612" xlink:href="#m49cf69bb84" y="144.729559"/>
     <use style="fill:#ff7f0e;stroke:#ff7f0e;" x="365.841042" xlink:href="#m49cf69bb84" y="40.243015"/>
     <use style="fill:#ff7f0e;stroke:#ff7f0e;" x="353.139469" xlink:href="#m49cf69bb84" y="32.340667"/>
     <use style="fill:#ff7f0e;stroke:#ff7f0e;" x="342.355428" xlink:href="#m49cf69bb84" y="82.707003"/>
     <use style="fill:#ff7f0e;stroke:#ff7f0e;" x="335.142076" xlink:href="#m49cf69bb84" y="127.586867"/>
     <use style="fill:#ff7f0e;stroke:#ff7f0e;" x="326.553463" xlink:href="#m49cf69bb84" y="34.087236"/>
     <use style="fill:#ff7f0e;stroke:#ff7f0e;" x="314.961395" xlink:href="#m49cf69bb84" y="26.799806"/>
     <use style="fill:#ff7f0e;stroke:#ff7f0e;" x="304.803404" xlink:href="#m49cf69bb84" y="67.766884"/>
     <use style="fill:#ff7f0e;stroke:#ff7f0e;" x="298.205915" xlink:href="#m49cf69bb84" y="135.370566"/>
     <use style="fill:#ff7f0e;stroke:#ff7f0e;" x="291.105647" xlink:href="#m49cf69bb84" y="43.59652"/>
     <use style="fill:#ff7f0e;stroke:#ff7f0e;" x="281.129679" xlink:href="#m49cf69bb84" y="28.444485"/>
     <use style="fill:#ff7f0e;stroke:#ff7f0e;" x="271.131417" xlink:href="#m49cf69bb84" y="30.511038"/>
     <use style="fill:#ff7f0e;stroke:#ff7f0e;" x="263.673585" xlink:href="#m49cf69bb84" y="112.868382"/>
     <use style="fill:#ff7f0e;stroke:#ff7f0e;" x="258.209967" xlink:href="#m49cf69bb84" y="98.894428"/>
     <use style="fill:#ff7f0e;stroke:#ff7f0e;" x="250.708575" xlink:href="#m49cf69bb84" y="27.056409"/>
     <use style="fill:#ff7f0e;stroke:#ff7f0e;" x="241.67459" xlink:href="#m49cf69bb84" y="28.697919"/>
     <use style="fill:#ff7f0e;stroke:#ff7f0e;" x="233.049198" xlink:href="#m49cf69bb84" y="31.646578"/>
     <use style="fill:#ff7f0e;stroke:#ff7f0e;" x="226.276366" xlink:href="#m49cf69bb84" y="98.412449"/>
     <use style="fill:#ff7f0e;stroke:#ff7f0e;" x="221.309833" xlink:href="#m49cf69bb84" y="103.643049"/>
     <use style="fill:#ff7f0e;stroke:#ff7f0e;" x="214.955173" xlink:href="#m49cf69bb84" y="29.851736"/>
     <use style="fill:#ff7f0e;stroke:#ff7f0e;" x="207.071607" xlink:href="#m49cf69bb84" y="25.238862"/>
     <use style="fill:#ff7f0e;stroke:#ff7f0e;" x="199.353028" xlink:href="#m49cf69bb84" y="25.992522"/>
     <use style="fill:#ff7f0e;stroke:#ff7f0e;" x="192.24611" xlink:href="#m49cf69bb84" y="44.159465"/>
     <use style="fill:#ff7f0e;stroke:#ff7f0e;" x="187.305355" xlink:href="#m49cf69bb84" y="127.330051"/>
     <use style="fill:#ff7f0e;stroke:#ff7f0e;" x="182.929402" xlink:href="#m49cf69bb84" y="66.901229"/>
     <use style="fill:#ff7f0e;stroke:#ff7f0e;" x="176.868684" xlink:href="#m49cf69bb84" y="33.26966"/>
     <use style="fill:#ff7f0e;stroke:#ff7f0e;" x="170.01305" xlink:href="#m49cf69bb84" y="14.705338"/>
     <use style="fill:#ff7f0e;stroke:#ff7f0e;" x="163.280714" xlink:href="#m49cf69bb84" y="29.310821"/>
     <use style="fill:#ff7f0e;stroke:#ff7f0e;" x="157.041201" xlink:href="#m49cf69bb84" y="31.808968"/>
     <use style="fill:#ff7f0e;stroke:#ff7f0e;" x="151.874748" xlink:href="#m49cf69bb84" y="83.950216"/>
     <use style="fill:#ff7f0e;stroke:#ff7f0e;" x="148.087597" xlink:href="#m49cf69bb84" y="108.385232"/>
     <use style="fill:#ff7f0e;stroke:#ff7f0e;" x="143.638362" xlink:href="#m49cf69bb84" y="37.799161"/>
     <use style="fill:#ff7f0e;stroke:#ff7f0e;" x="137.939687" xlink:href="#m49cf69bb84" y="23.502709"/>
     <use style="fill:#ff7f0e;stroke:#ff7f0e;" x="132.218237" xlink:href="#m49cf69bb84" y="26.657249"/>
     <use style="fill:#ff7f0e;stroke:#ff7f0e;" x="126.687246" xlink:href="#m49cf69bb84" y="25.931744"/>
     <use style="fill:#ff7f0e;stroke:#ff7f0e;" x="121.2452" xlink:href="#m49cf69bb84" y="22.693186"/>
     <use style="fill:#ff7f0e;stroke:#ff7f0e;" x="116.315098" xlink:href="#m49cf69bb84" y="52.587224"/>
     <use style="fill:#ff7f0e;stroke:#ff7f0e;" x="112.872395" xlink:href="#m49cf69bb84" y="122.206156"/>
     <use style="fill:#ff7f0e;stroke:#ff7f0e;" x="109.511743" xlink:href="#m49cf69bb84" y="53.092355"/>
     <use style="fill:#ff7f0e;stroke:#ff7f0e;" x="105.044088" xlink:href="#m49cf69bb84" y="35.288065"/>
     <use style="fill:#ff7f0e;stroke:#ff7f0e;" x="100.276745" xlink:href="#m49cf69bb84" y="22.281597"/>
     <use style="fill:#ff7f0e;stroke:#ff7f0e;" x="95.523357" xlink:href="#m49cf69bb84" y="27.452323"/>
     <use style="fill:#ff7f0e;stroke:#ff7f0e;" x="90.83967" xlink:href="#m49cf69bb84" y="18.295766"/>
     <use style="fill:#ff7f0e;stroke:#ff7f0e;" x="86.098508" xlink:href="#m49cf69bb84" y="13.186396"/>
     <use style="fill:#ff7f0e;stroke:#ff7f0e;" x="81.772313" xlink:href="#m49cf69bb84" y="43.956705"/>
     <use style="fill:#ff7f0e;stroke:#ff7f0e;" x="78.420484" xlink:href="#m49cf69bb84" y="89.255193"/>
     <use style="fill:#ff7f0e;stroke:#ff7f0e;" x="75.841608" xlink:href="#m49cf69bb84" y="106.441649"/>
     <use style="fill:#ff7f0e;stroke:#ff7f0e;" x="72.66936" xlink:href="#m49cf69bb84" y="32.1214"/>
     <use style="fill:#ff7f0e;stroke:#ff7f0e;" x="68.597125" xlink:href="#m49cf69bb84" y="19.568464"/>
     <use style="fill:#ff7f0e;stroke:#ff7f0e;" x="64.50027" xlink:href="#m49cf69bb84" y="21.3091"/>
     <use style="fill:#ff7f0e;stroke:#ff7f0e;" x="60.464427" xlink:href="#m49cf69bb84" y="16.266643"/>
     <use style="fill:#ff7f0e;stroke:#ff7f0e;" x="56.735359" xlink:href="#m49cf69bb84" y="42.682101"/>
     <use style="fill:#ff7f0e;stroke:#ff7f0e;" x="52.92313" xlink:href="#m49cf69bb84" y="-0.925308"/>
     <use style="fill:#ff7f0e;stroke:#ff7f0e;" x="49.158127" xlink:href="#m49cf69bb84" y="39.777383"/>
     <use style="fill:#ff7f0e;stroke:#ff7f0e;" x="45.66709" xlink:href="#m49cf69bb84" y="18.378645"/>
     <use style="fill:#ff7f0e;stroke:#ff7f0e;" x="42.559555" xlink:href="#m49cf69bb84" y="73.80478"/>
     <use style="fill:#ff7f0e;stroke:#ff7f0e;" x="40.35078" xlink:href="#m49cf69bb84" y="109.477314"/>
     <use style="fill:#ff7f0e;stroke:#ff7f0e;" x="37.870819" xlink:href="#m49cf69bb84" y="39.902369"/>
     <use style="fill:#ff7f0e;stroke:#ff7f0e;" x="34.719766" xlink:href="#m49cf69bb84" y="30.462871"/>
     <use style="fill:#ff7f0e;stroke:#ff7f0e;" x="31.417519" xlink:href="#m49cf69bb84" y="15.467449"/>
     <use style="fill:#ff7f0e;stroke:#ff7f0e;" x="28.125911" xlink:href="#m49cf69bb84" y="23.981597"/>
     <use style="fill:#ff7f0e;stroke:#ff7f0e;" x="24.981305" xlink:href="#m49cf69bb84" y="24.792852"/>
     <use style="fill:#ff7f0e;stroke:#ff7f0e;" x="21.729142" xlink:href="#m49cf69bb84" y="2.913494"/>
     <use style="fill:#ff7f0e;stroke:#ff7f0e;" x="18.679129" xlink:href="#m49cf69bb84" y="42.132761"/>
     <use style="fill:#ff7f0e;stroke:#ff7f0e;" x="15.685392" xlink:href="#m49cf69bb84" y="-1"/>
     <use style="fill:#ff7f0e;stroke:#ff7f0e;" x="15.63098" xlink:href="#m49cf69bb84" y="-1"/>
     <use style="fill:#ff7f0e;stroke:#ff7f0e;" x="12.604703" xlink:href="#m49cf69bb84" y="29.672991"/>
     <use style="fill:#ff7f0e;stroke:#ff7f0e;" x="9.659381" xlink:href="#m49cf69bb84" y="4.832057"/>
     <use style="fill:#ff7f0e;stroke:#ff7f0e;" x="6.821711" xlink:href="#m49cf69bb84" y="36.909583"/>
     <use style="fill:#ff7f0e;stroke:#ff7f0e;" x="4.098493" xlink:href="#m49cf69bb84" y="12.524509"/>
     <use style="fill:#ff7f0e;stroke:#ff7f0e;" x="1.277495" xlink:href="#m49cf69bb84" y="16.328823"/>
     <use style="fill:#ff7f0e;stroke:#ff7f0e;" x="-1" xlink:href="#m49cf69bb84" y="10.208388"/>
    </g>
   </g>
   <g id="patch_3">
    <path d="M 40.892719 173.52 
L 40.892719 7.2 
" style="fill:none;stroke:#000000;stroke-linecap:square;stroke-linejoin:miter;stroke-width:0.8;"/>
   </g>
   <g id="patch_4">
    <path d="M 375.692719 173.52 
L 375.692719 7.2 
" style="fill:none;stroke:#000000;stroke-linecap:square;stroke-linejoin:miter;stroke-width:0.8;"/>
   </g>
   <g id="patch_5">
    <path d="M 40.892719 173.52 
L 375.692719 173.52 
" style="fill:none;stroke:#000000;stroke-linecap:square;stroke-linejoin:miter;stroke-width:0.8;"/>
   </g>
   <g id="patch_6">
    <path d="M 40.892719 7.2 
L 375.692719 7.2 
" style="fill:none;stroke:#000000;stroke-linecap:square;stroke-linejoin:miter;stroke-width:0.8;"/>
   </g>
   <g id="legend_1">
    <g id="patch_7">
     <path d="M 47.892719 168.52 
L 143.493085 168.52 
Q 145.493085 168.52 145.493085 166.52 
L 145.493085 136.98207 
Q 145.493085 134.98207 143.493085 134.98207 
L 47.892719 134.98207 
Q 45.892719 134.98207 45.892719 136.98207 
L 45.892719 166.52 
Q 45.892719 168.52 47.892719 168.52 
z
" style="fill:#ffffff;opacity:0.8;stroke:#cccccc;stroke-linejoin:miter;"/>
    </g>
    <g id="line2d_14">
     <path d="M 49.892719 143.080507 
L 69.892719 143.080507 
" style="fill:none;stroke:#1f77b4;stroke-linecap:square;stroke-width:1.5;"/>
    </g>
    <g id="line2d_15">
     <g>
      <use style="fill:#1f77b4;stroke:#1f77b4;stroke-linejoin:miter;" x="59.892719" xlink:href="#m68a9eb4077" y="143.080507"/>
     </g>
    </g>
    <g id="text_14">
     <!-- $1 - I_p(\nu_{nl})/I_{nl}$ -->
     <g transform="translate(77.892719 146.580507)scale(0.1 -0.1)">
      <defs>
       <path d="M 65.90625 23 
C 67.59375 23 69.40625 23 69.40625 25 
C 69.40625 27 67.59375 27 65.90625 27 
L 11.796875 27 
C 10.09375 27 8.296875 27 8.296875 25 
C 8.296875 23 10.09375 23 11.796875 23 
z
" id="CMSY10-0"/>
       <path d="M 36.796875 60.625 
C 37.703125 64.109375 37.90625 65.109375 45.203125 65.109375 
C 47.40625 65.109375 48.203125 65.109375 48.203125 67 
C 48.203125 68 47.09375 68 46.796875 68 
C 45 68 42.796875 68 41 68 
L 28.703125 68 
C 26.703125 68 24.40625 68 22.40625 68 
C 21.59375 68 20.5 68 20.5 66.109375 
C 20.5 65.109375 21.296875 65.109375 23.296875 65.109375 
C 29.5 65.109375 29.5 64.3125 29.5 63.21875 
C 29.5 62.53125 29.296875 61.921875 29.09375 61.03125 
L 15.59375 7.375 
C 14.703125 3.890625 14.5 2.890625 7.203125 2.890625 
C 5 2.890625 4.09375 2.890625 4.09375 1 
C 4.09375 0 5.09375 0 5.59375 0 
C 7.40625 0 9.59375 0 11.40625 0 
L 23.703125 0 
C 25.703125 0 27.90625 0 29.90625 0 
C 30.703125 0 31.90625 0 31.90625 1.796875 
C 31.90625 2.890625 31.296875 2.890625 29.09375 2.890625 
C 22.90625 2.890625 22.90625 3.6875 22.90625 4.875 
C 22.90625 5.078125 22.90625 5.578125 23.296875 7.171875 
z
" id="CMMI12-73"/>
       <path d="M 4.296875 -12.328125 
C 3.59375 -15.3125 3.203125 -16.109375 -0.90625 -16.109375 
C -2.09375 -16.109375 -3.09375 -16.109375 -3.09375 -18 
C -3.09375 -18.203125 -3 -19 -1.90625 -19 
C -0.59375 -19 0.796875 -19 2.09375 -19 
L 6.40625 -19 
C 8.5 -19 13.59375 -19 15.703125 -19 
C 16.296875 -19 17.5 -19 17.5 -17.203125 
C 17.5 -16.109375 16.796875 -16.109375 15.09375 -16.109375 
C 10.5 -16.109375 10.203125 -15.421875 10.203125 -14.640625 
C 10.203125 -13.453125 14.703125 3.421875 15.296875 5.6875 
C 16.40625 2.890625 19.09375 -1 24.296875 -1 
C 35.59375 -1 47.796875 13.671875 47.796875 28.34375 
C 47.796875 37.515625 42.59375 44 35.09375 44 
C 28.703125 44 23.296875 37.8125 22.203125 36.421875 
C 21.40625 41.40625 17.5 44 13.5 44 
C 10.59375 44 8.296875 42.609375 6.40625 38.8125 
C 4.59375 35.21875 3.203125 29.140625 3.203125 28.734375 
C 3.203125 28.34375 3.59375 27.84375 4.296875 27.84375 
C 5.09375 27.84375 5.203125 27.9375 5.796875 30.234375 
C 7.296875 36.125 9.203125 42.015625 13.203125 42.015625 
C 15.5 42.015625 16.296875 40.421875 16.296875 37.453125 
C 16.296875 35.078125 16 34.078125 15.59375 32.296875 
z
M 21.59375 31.140625 
C 22.296875 33.921875 25.09375 36.828125 26.703125 38.21875 
C 27.796875 39.21875 31.09375 42.015625 34.90625 42.015625 
C 39.296875 42.015625 41.296875 37.625 41.296875 32.4375 
C 41.296875 27.640625 38.5 16.359375 36 11.171875 
C 33.5 5.78125 28.90625 1 24.296875 1 
C 17.5 1 16.40625 9.578125 16.40625 9.984375 
C 16.40625 10.28125 16.59375 11.078125 16.703125 11.578125 
z
" id="CMMI12-112"/>
       <path d="M 20.59375 29.234375 
C 20.796875 29.84375 23.296875 34.828125 27 38.015625 
C 29.59375 40.40625 33 42.015625 36.90625 42.015625 
C 40.90625 42.015625 42.296875 39.015625 42.296875 35.03125 
C 42.296875 29.34375 38.203125 17.96875 36.203125 12.578125 
C 35.296875 10.171875 34.796875 8.875 34.796875 7.078125 
C 34.796875 2.59375 37.90625 -1 42.703125 -1 
C 52 -1 55.5 13.671875 55.5 14.265625 
C 55.5 14.765625 55.09375 15.171875 54.5 15.171875 
C 53.59375 15.171875 53.5 14.875 53 13.171875 
C 50.703125 4.984375 46.90625 1 43 1 
C 42 1 40.40625 1 40.40625 4.203125 
C 40.40625 6.703125 41.5 9.703125 42.09375 11.09375 
C 44.09375 16.609375 48.296875 27.8125 48.296875 33.515625 
C 48.296875 39.5 44.796875 44 37.203125 44 
C 28.296875 44 23.59375 37.734375 21.796875 35.234375 
C 21.5 40.90625 17.40625 44 13 44 
C 9.796875 44 7.59375 42.109375 5.90625 38.71875 
C 4.09375 35.125 2.703125 29.140625 2.703125 28.734375 
C 2.703125 28.34375 3.09375 27.84375 3.796875 27.84375 
C 4.59375 27.84375 4.703125 27.9375 5.296875 30.234375 
C 6.90625 36.328125 8.703125 42.015625 12.703125 42.015625 
C 15 42.015625 15.796875 40.40625 15.796875 37.421875 
C 15.796875 35.21875 14.796875 31.328125 14.09375 28.234375 
L 11.296875 17.46875 
C 10.90625 15.5625 9.796875 11.078125 9.296875 9.28125 
C 8.59375 6.6875 7.5 2 7.5 1.5 
C 7.5 0.09375 8.59375 -1 10.09375 -1 
C 11.296875 -1 12.703125 -0.40625 13.5 1.09375 
C 13.703125 1.59375 14.59375 5.09375 15.09375 7.078125 
L 17.296875 16.0625 
z
" id="CMMI12-110"/>
       <path d="M 25.40625 66.515625 
C 25.5 66.90625 25.703125 67.5 25.703125 68 
C 25.703125 69 24.703125 69 24.5 69 
C 24.40625 69 20.796875 68.640625 19 68.390625 
C 17.296875 68.390625 15.796875 68.09375 14 68.09375 
C 11.59375 67.890625 10.90625 67.796875 10.90625 66 
C 10.90625 65 11.90625 65 12.90625 65 
C 18 65 18 64.09375 18 63.109375 
C 18 62.71875 18 62.515625 17.5 60.734375 
L 5.09375 11.421875 
C 4.796875 10.328125 4.59375 9.53125 4.59375 7.953125 
C 4.59375 2.984375 8.296875 -1 13.40625 -1 
C 16.703125 -1 18.90625 1.1875 20.5 4.28125 
C 22.203125 7.546875 23.59375 13.8125 23.59375 14.203125 
C 23.59375 14.703125 23.203125 15.109375 22.59375 15.109375 
C 21.703125 15.109375 21.59375 14.609375 21.203125 13.125 
C 19.40625 6.265625 17.59375 1 13.59375 1 
C 10.59375 1 10.59375 4.171875 10.59375 5.578125 
C 10.59375 5.96875 10.59375 8.046875 11.296875 10.84375 
z
" id="CMMI12-108"/>
      </defs>
      <use transform="scale(0.996264)" xlink:href="#CMR17-49"/>
      <use transform="translate(67.829684 0)scale(0.996264)" xlink:href="#CMSY10-0"/>
      <use transform="translate(167.456359 0)scale(0.996264)" xlink:href="#CMMI12-73"/>
      <use transform="translate(210.480534 -14.943915)scale(0.697382)" xlink:href="#CMMI12-112"/>
      <use transform="translate(245.250173 0)scale(0.996264)" xlink:href="#CMR17-40"/>
      <use transform="translate(280.53094 0)scale(0.996264)" xlink:href="#CMMI12-23"/>
      <use transform="translate(328.729423 -14.943915)scale(0.697382)" xlink:href="#CMMI12-110"/>
      <use transform="translate(369.490266 -14.943915)scale(0.697382)" xlink:href="#CMMI12-108"/>
      <use transform="translate(391.862182 0)scale(0.996264)" xlink:href="#CMR17-41"/>
      <use transform="translate(427.14295 0)scale(0.996264)" xlink:href="#CMMI12-61"/>
      <use transform="translate(475.917868 0)scale(0.996264)" xlink:href="#CMMI12-73"/>
      <use transform="translate(518.942044 -14.943915)scale(0.697382)" xlink:href="#CMMI12-110"/>
      <use transform="translate(559.702887 -14.943915)scale(0.697382)" xlink:href="#CMMI12-108"/>
     </g>
    </g>
    <g id="line2d_16">
     <path d="M 49.892719 158.52934 
L 69.892719 158.52934 
" style="fill:none;stroke:#ff7f0e;stroke-linecap:square;stroke-width:1.5;"/>
    </g>
    <g id="line2d_17">
     <g>
      <use style="fill:#ff7f0e;stroke:#ff7f0e;" x="59.892719" xlink:href="#m49cf69bb84" y="158.52934"/>
     </g>
    </g>
    <g id="text_15">
     <!-- $\delta P / \Delta \Pi_l$ -->
     <g transform="translate(77.892719 162.02934)scale(0.1 -0.1)">
      <defs>
       <path d="M 26 43.671875 
C 13.203125 40.578125 4 27.3125 4 15.640625 
C 4 4.984375 11.203125 -1 19.203125 -1 
C 31 -1 39 15.15625 39 28.40625 
C 39 37.375 34.796875 42.875 32.296875 46.15625 
C 28.59375 50.84375 22.59375 58.53125 22.59375 63.3125 
C 22.59375 65.015625 23.90625 68 28.296875 68 
C 31.40625 68 33.296875 66.90625 36.296875 65.203125 
C 37.203125 64.59375 39.5 63.3125 40.796875 63.3125 
C 42.90625 63.3125 44.40625 65.390625 44.40625 66.984375 
C 44.40625 68.890625 42.90625 69.1875 39.40625 69.984375 
C 34.703125 70.984375 33.296875 70.984375 31.59375 70.984375 
C 29.90625 70.984375 20.09375 70.984375 20.09375 60.8125 
C 20.09375 55.921875 22.59375 50.25 26 43.671875 
z
M 27.09375 41.703125 
C 30.90625 33.828125 32.40625 30.84375 32.40625 24.375 
C 32.40625 16.609375 28.203125 0.984375 19.296875 0.984375 
C 15.40625 0.984375 9.796875 3.578125 9.796875 12.828125 
C 9.796875 19.296875 13.5 38.109375 27.09375 41.703125 
z
" id="CMMI12-14"/>
       <path d="M 29.59375 31.609375 
L 46.40625 31.609375 
C 60.203125 31.609375 74 41.765625 74 53.140625 
C 74 60.90625 67.40625 68 54.796875 68 
L 23.90625 68 
C 22 68 21.09375 68 21.09375 66.109375 
C 21.09375 65.109375 22 65.109375 23.5 65.109375 
C 29.59375 65.109375 29.59375 64.3125 29.59375 63.21875 
C 29.59375 63.03125 29.59375 62.421875 29.203125 60.921875 
L 15.703125 7.375 
C 14.796875 3.890625 14.59375 2.890625 7.59375 2.890625 
C 5.703125 2.890625 4.703125 2.890625 4.703125 1.09375 
C 4.703125 0 5.59375 0 6.203125 0 
C 8.09375 0 10.09375 0 12 0 
L 23.703125 0 
C 25.59375 0 27.703125 0 29.59375 0 
C 30.40625 0 31.5 0 31.5 1.890625 
C 31.5 2.890625 30.59375 2.890625 29.09375 2.890625 
C 23.09375 2.890625 23 3.59375 23 4.578125 
C 23 5.078125 23.09375 5.765625 23.203125 6.265625 
z
M 36.796875 61.40625 
C 37.703125 65.109375 38.09375 65.109375 42 65.109375 
L 51.90625 65.109375 
C 59.40625 65.109375 65.59375 62.703125 65.59375 55.234375 
C 65.59375 52.640625 64.296875 44.171875 59.703125 39.59375 
C 58 37.796875 53.203125 34 44.09375 34 
L 30 34 
z
" id="CMMI12-80"/>
       <path d="M 40.59375 68.796875 
C 39.796875 70.5 39.40625 70.5 38.59375 70.5 
C 37.40625 70.5 37.296875 70.296875 36.59375 68.890625 
L 4.203125 1.703125 
C 4.09375 1.5 3.703125 0.59375 3.703125 0.5 
C 3.703125 0.09375 3.796875 0 5.59375 0 
L 71.5 0 
C 73.296875 0 73.40625 0.09375 73.40625 0.5 
C 73.40625 0.59375 73 1.5 72.90625 1.703125 
z
M 36.09375 63.09375 
L 63.796875 5.59375 
L 8.296875 5.59375 
z
" id="CMR17-1"/>
       <path d="M 56.09375 60.90625 
C 56.09375 65.40625 57.203125 65.40625 64.09375 65.40625 
L 64.09375 68 
L 5.09375 68 
L 5.09375 65.40625 
C 12 65.40625 13.09375 65.40625 13.09375 60.90625 
L 13.09375 7 
C 13.09375 2.5 12 2.5 5.09375 2.5 
L 5.09375 0 
C 8 0 13.296875 0 16.40625 0 
C 19.5 0 24.796875 0 27.703125 0 
L 27.703125 2.5 
C 20.796875 2.5 19.703125 2.5 19.703125 7 
L 19.703125 65.40625 
L 49.5 65.40625 
L 49.5 7 
C 49.5 2.5 48.40625 2.5 41.5 2.5 
L 41.5 0 
C 44.40625 0 49.703125 0 52.796875 0 
C 55.90625 0 61.203125 0 64.09375 0 
L 64.09375 2.5 
C 57.203125 2.5 56.09375 2.5 56.09375 7 
z
" id="CMR17-5"/>
      </defs>
      <use transform="scale(0.996264)" xlink:href="#CMMI12-14"/>
      <use transform="translate(46.941386 0)scale(0.996264)" xlink:href="#CMMI12-80"/>
      <use transform="translate(117.947772 0)scale(0.996264)" xlink:href="#CMMI12-61"/>
      <use transform="translate(166.72269 0)scale(0.996264)" xlink:href="#CMR17-1"/>
      <use transform="translate(243.64228 0)scale(0.996264)" xlink:href="#CMR17-5"/>
      <use transform="translate(312.71471 -14.943915)scale(0.697382)" xlink:href="#CMMI12-108"/>
     </g>
    </g>
   </g>
  </g>
 </g>
 <defs>
  <clipPath id="pa448bf230c">
   <rect height="166.32" width="334.8" x="40.892719" y="7.2"/>
  </clipPath>
 </defs>
</svg>
